<?xml version="1.0" encoding="UTF-8"?>
<svg xmlns="http://www.w3.org/2000/svg" id="Layer_1" version="1.1" viewBox="0 0 355.48 101.99">
  <defs>
    <style>
      .st0 {
        fill: #fff;
      }
    </style>
  </defs>
  <g>
    <path class="st0" d="M15.12,89.68l-4.4-10.42h1.61l3.84,9.12-.33.08,3.74-9.2h1.5l-4.42,10.42h-1.52Z"></path>
    <path class="st0" d="M26.98,89.99c-.99,0-1.84-.21-2.57-.62-.72-.41-1.28-1.03-1.67-1.85-.39-.82-.58-1.84-.58-3.07,0-1.79.41-3.14,1.22-4.04s1.93-1.35,3.35-1.35c1.11,0,2.01.25,2.68.75.67.5,1.16,1.18,1.45,2.02.29.85.43,1.81.42,2.88h-8.37l.1-1.38h7.28l-.58.21c-.04-1.04-.3-1.82-.78-2.34s-1.21-.77-2.2-.77c-.68,0-1.25.12-1.7.38-.45.25-.79.69-1.01,1.3s-.33,1.49-.33,2.6c0,1.27.3,2.23.89,2.89s1.42.99,2.49.99c.51,0,.99-.04,1.42-.12.43-.08.83-.18,1.19-.32.36-.14.68-.29.96-.46v1.54c-.5.24-1.05.42-1.66.54-.6.12-1.27.19-1.99.19Z"></path>
    <path class="st0" d="M34.03,89.68v-9.58c.17-.07.49-.19.97-.35s1.06-.32,1.73-.46c.67-.14,1.37-.21,2.1-.21.11,0,.22.01.33.04.11.03.22.06.33.08v1.34c-.36-.04-.71-.06-1.05-.06s-.67.02-.99.05c-.32.04-.64.08-.96.14-.32.06-.64.11-.96.17v8.85h-1.5Z"></path>
    <path class="st0" d="M41.84,89.68v-15.03h1.5v5.78l-.17-.4c.53-.29,1.09-.53,1.67-.7s1.13-.26,1.65-.26c.86,0,1.59.16,2.18.48.59.32,1.04.8,1.36,1.45.31.65.47,1.48.47,2.49v6.18h-1.5v-6.18c0-.97-.22-1.73-.67-2.25-.45-.53-1.11-.79-2-.79-.49,0-.98.07-1.47.21-.49.14-1,.35-1.51.63v8.39h-1.5Z"></path>
    <path class="st0" d="M58.14,89.99c-.92,0-1.7-.16-2.36-.48-.65-.32-1.15-.79-1.49-1.4-.34-.61-.51-1.36-.51-2.25v-6.6h1.5v6.26c0,1.06.23,1.83.7,2.33s1.19.74,2.16.74,1.69-.25,2.16-.74c.47-.49.7-1.27.7-2.33v-6.26h1.5v6.6c0,1.32-.38,2.34-1.14,3.06-.76.72-1.83,1.08-3.23,1.08Z"></path>
    <path class="st0" d="M70.14,89.99c-.92,0-1.7-.16-2.36-.48-.65-.32-1.15-.79-1.49-1.4-.34-.61-.51-1.36-.51-2.25v-6.6h1.5v6.26c0,1.06.23,1.83.7,2.33s1.19.74,2.16.74,1.69-.25,2.16-.74c.47-.49.7-1.27.7-2.33v-6.26h1.5v6.6c0,1.32-.38,2.34-1.14,3.06-.76.72-1.83,1.08-3.23,1.08Z"></path>
    <path class="st0" d="M77.78,89.68v-9.58c.17-.07.49-.19.97-.35s1.06-.32,1.73-.46c.67-.14,1.37-.21,2.1-.21.11,0,.22.01.33.04.11.03.22.06.33.08v1.34c-.36-.04-.71-.06-1.05-.06s-.67.02-.99.05c-.32.04-.64.08-.96.14-.32.06-.64.11-.96.17v8.85h-1.5Z"></path>
    <path class="st0" d="M83.89,92.02l1.54-4.09h1.71l-1.75,4.09h-1.5Z"></path>
    <path class="st0" d="M99.94,89.68l-4.4-10.42h1.61l3.84,9.12-.33.08,3.74-9.2h1.5l-4.42,10.42h-1.52Z"></path>
    <path class="st0" d="M111.8,89.99c-.99,0-1.84-.21-2.57-.62-.72-.41-1.28-1.03-1.67-1.85-.39-.82-.58-1.84-.58-3.07,0-1.79.41-3.14,1.22-4.04s1.93-1.35,3.35-1.35c1.11,0,2.01.25,2.68.75.67.5,1.16,1.18,1.45,2.02.29.85.43,1.81.42,2.88h-8.37l.1-1.38h7.28l-.58.21c-.04-1.04-.3-1.82-.78-2.34s-1.21-.77-2.2-.77c-.68,0-1.25.12-1.7.38-.45.25-.79.69-1.01,1.3s-.33,1.49-.33,2.6c0,1.27.3,2.23.89,2.89s1.42.99,2.49.99c.51,0,.99-.04,1.42-.12.43-.08.83-.18,1.19-.32.36-.14.68-.29.96-.46v1.54c-.5.24-1.05.42-1.66.54-.6.12-1.27.19-1.99.19Z"></path>
    <path class="st0" d="M118.85,89.68v-9.58c.17-.07.49-.19.97-.35s1.06-.32,1.73-.46c.67-.14,1.37-.21,2.1-.21.11,0,.22.01.33.04.11.03.22.06.33.08v1.34c-.36-.04-.71-.06-1.05-.06s-.67.02-.99.05c-.32.04-.64.08-.96.14-.32.06-.64.11-.96.17v8.85h-1.5Z"></path>
    <path class="st0" d="M128.16,89.68h-1.5v-14.38h1.5v14.38ZM128.58,83.19l6.45,6.49h-2l-5.47-5.53,1.02-.96ZM127.83,83.44l4.57-4.17h1.88l-6.12,5.41-.33-1.23Z"></path>
    <path class="st0" d="M140.6,89.99c-1.63,0-2.83-.48-3.62-1.45-.79-.97-1.18-2.31-1.18-4.04,0-1.81.41-3.17,1.24-4.07s2-1.36,3.52-1.36c1.13,0,2.05.23,2.75.68.71.45,1.23,1.09,1.57,1.9.33.81.5,1.76.5,2.85,0,1.71-.41,3.05-1.24,4.03-.83.97-2.01,1.46-3.54,1.46ZM140.58,88.62c.85,0,1.51-.18,1.98-.55.47-.37.81-.86,1.01-1.48.2-.62.3-1.31.3-2.08,0-.82-.1-1.53-.31-2.14-.21-.61-.55-1.08-1.03-1.41-.48-.33-1.13-.5-1.95-.5s-1.49.18-1.96.54c-.47.36-.81.85-1.01,1.45-.2.61-.3,1.29-.3,2.06,0,1.22.24,2.22.73,2.97.49.76,1.34,1.14,2.55,1.14Z"></path>
    <path class="st0" d="M152.41,89.99c-1.63,0-2.83-.48-3.62-1.45-.79-.97-1.18-2.31-1.18-4.04,0-1.81.41-3.17,1.24-4.07s2-1.36,3.52-1.36c1.13,0,2.05.23,2.75.68.71.45,1.23,1.09,1.57,1.9.33.81.5,1.76.5,2.85,0,1.71-.41,3.05-1.24,4.03-.83.97-2.01,1.46-3.54,1.46ZM152.39,88.62c.85,0,1.51-.18,1.98-.55.47-.37.81-.86,1.01-1.48.2-.62.3-1.31.3-2.08,0-.82-.1-1.53-.31-2.14-.21-.61-.55-1.08-1.03-1.41-.48-.33-1.13-.5-1.95-.5s-1.49.18-1.96.54c-.47.36-.81.85-1.01,1.45-.2.61-.3,1.29-.3,2.06,0,1.22.24,2.22.73,2.97.49.76,1.34,1.14,2.55,1.14Z"></path>
    <path class="st0" d="M164.04,89.97c-.31,0-.65-.04-1.03-.12-.38-.08-.75-.19-1.12-.31-.36-.12-.68-.26-.96-.4l.52-.52v5.59h-1.5v-13.07c0-.43.14-.78.41-1.04s.62-.47,1.05-.62c.43-.15.89-.25,1.38-.31.49-.06.95-.09,1.38-.09.83,0,1.62.17,2.36.52.74.35,1.34.94,1.79,1.76s.69,1.95.69,3.37c0,1.07-.19,2-.57,2.79s-.94,1.39-1.68,1.82c-.74.42-1.64.64-2.71.64ZM164.04,88.6c.77,0,1.39-.16,1.89-.49.49-.33.87-.78,1.12-1.37.25-.58.38-1.25.38-2s-.08-1.45-.25-2.11c-.17-.65-.49-1.18-.96-1.58s-1.16-.59-2.07-.59c-.72,0-1.35.08-1.89.25s-.8.4-.8.71v6.45c.43.25.86.43,1.29.55.43.12.86.18,1.29.18Z"></path>
    <path class="st0" d="M180.53,89.85c-.79,0-1.47-.13-2.02-.4-.56-.26-1.01-.61-1.35-1.02-.34-.42-.59-.86-.75-1.32s-.24-.88-.24-1.27c0-.44.09-.92.26-1.42s.49-1,.94-1.51,1.09-.98,1.91-1.43l.98,1.02c-.75.4-1.31.81-1.69,1.23-.38.42-.62.8-.74,1.16s-.18.66-.18.91c0,.18.04.41.12.7.08.29.23.57.44.87.21.29.51.54.9.73.39.19.88.29,1.48.29.65,0,1.26-.16,1.82-.49.56-.33,1.01-.68,1.36-1.05l.94,1.06c-.32.33-.7.65-1.13.94-.43.29-.9.53-1.42.72-.51.19-1.06.28-1.63.28ZM185.73,89.68l-6.74-8.04c-.31-.38-.61-.83-.92-1.36-.31-.53-.46-1.04-.46-1.52,0-.58.14-1.11.43-1.59s.67-.85,1.15-1.14c.48-.29,1.01-.43,1.58-.43.6,0,1.13.14,1.61.41.47.27.85.64,1.14,1.11.29.47.43.99.43,1.56,0,.51-.11.97-.33,1.36s-.54.75-.96,1.08c-.42.33-.92.66-1.5.99l-.75-.92c.64-.35,1.11-.66,1.42-.94.31-.28.5-.55.59-.8.09-.26.14-.5.14-.74,0-.46-.17-.84-.5-1.14-.33-.3-.75-.45-1.23-.45s-.88.16-1.22.49c-.34.33-.51.72-.51,1.18,0,.18.08.42.25.71s.37.59.6.9c.23.31.45.58.66.81l7.12,8.47h-1.96ZM184.39,85.88c.15-.28.29-.56.4-.84s.21-.55.28-.8c.08-.25.14-.45.18-.61h1.36c-.08.46-.23.98-.44,1.58-.21.59-.49,1.17-.83,1.74l-.94-1.06Z"></path>
    <path class="st0" d="M198.42,89.68l-4.4-10.42h1.61l3.84,9.12-.33.08,3.74-9.2h1.5l-4.42,10.42h-1.52Z"></path>
    <path class="st0" d="M209.87,89.99c-.46,0-.92-.05-1.39-.15-.47-.1-.9-.26-1.29-.5-.4-.24-.72-.56-.96-.97-.24-.41-.37-.93-.37-1.55,0-.86.16-1.55.49-2.08.33-.52.78-.9,1.36-1.13.58-.23,1.24-.34,1.99-.34.57,0,1.06.03,1.48.1.42.07.79.17,1.12.3.33.13.62.28.89.45l.29,1.38c-.32-.24-.78-.44-1.39-.62s-1.27-.26-1.99-.26c-.88,0-1.55.17-2.02.5-.47.33-.71.82-.71,1.46,0,.51.14.93.43,1.23s.65.52,1.09.65c.44.13.89.19,1.35.19.9,0,1.59-.07,2.06-.2.47-.13.7-.43.7-.91v-4.78c0-.81-.24-1.4-.71-1.77-.47-.38-1.15-.56-2.02-.56-.56,0-1.15.08-1.76.24-.62.16-1.15.41-1.6.76v-1.5c.43-.28,1.01-.49,1.73-.64.72-.15,1.43-.22,2.11-.22.46,0,.88.04,1.27.14.39.09.74.22,1.04.4.31.17.57.4.78.67.22.27.38.58.5.94.12.36.18.75.18,1.2v5.05c0,.74-.22,1.29-.66,1.65-.44.36-1.01.6-1.71.71-.7.11-1.46.17-2.26.17Z"></path>
    <path class="st0" d="M220.73,89.99c-.75,0-1.38-.08-1.89-.23-.51-.15-1.03-.37-1.58-.65v-1.59c.43.24.81.44,1.15.6s.67.29,1.02.37c.35.08.74.12,1.19.12.7,0,1.26-.15,1.7-.46.44-.31.66-.7.66-1.19,0-.39-.11-.69-.32-.9-.22-.21-.49-.38-.82-.52-.33-.14-.68-.29-1.04-.44-.4-.11-.81-.23-1.22-.37-.41-.13-.79-.31-1.13-.52s-.62-.49-.82-.83-.31-.78-.31-1.33.11-.98.32-1.36c.21-.38.5-.69.84-.93s.74-.42,1.17-.53c.43-.11.86-.17,1.29-.17.63,0,1.16.08,1.61.25s.9.35,1.38.56v1.5c-.53-.28-1-.5-1.42-.68-.42-.17-.91-.26-1.48-.26s-1.08.12-1.53.34-.68.58-.68,1.05c0,.39.12.7.34.93s.53.41.91.54c.38.13.78.26,1.21.39.35.11.71.23,1.08.37.38.13.72.31,1.04.52s.58.5.78.84c.2.35.3.79.3,1.34,0,.74-.19,1.35-.56,1.83-.38.48-.85.83-1.43,1.05-.58.22-1.17.33-1.76.33Z"></path>
    <path class="st0" d="M230.52,89.85c-.74,0-1.36-.23-1.86-.68-.5-.45-.75-1.12-.75-2.01v-6.51h-1.82v-1.38h1.82v-2.94h1.5v2.94h2.69v1.38h-2.69v6.03c0,.58.09,1.02.27,1.32s.55.44,1.11.44c.25,0,.49-.02.73-.07s.43-.11.58-.18v1.42c-.2.07-.44.13-.74.18-.3.05-.58.07-.85.07Z"></path>
    <path class="st0" d="M238.99,89.99c-1.07,0-1.96-.21-2.66-.64-.7-.42-1.23-1.03-1.58-1.82-.35-.79-.52-1.71-.52-2.79,0-1.2.16-2.17.48-2.91.32-.75.73-1.32,1.24-1.71.51-.4,1.06-.67,1.67-.81.6-.15,1.19-.22,1.76-.22.65,0,1.28.09,1.87.26.59.17,1.08.45,1.46.82.38.38.57.88.57,1.5v8.43c0,.42-.06.84-.19,1.27-.12.43-.35.83-.68,1.2-.33.37-.79.67-1.38.89-.59.22-1.35.33-2.29.33-.6,0-1.15-.06-1.65-.17s-.94-.22-1.32-.31v-1.42c.22.06.48.12.76.2.28.08.6.14.94.2s.71.08,1.1.08c.95,0,1.65-.11,2.1-.34s.75-.52.89-.86c.14-.34.21-.69.21-1.03v-1.52l.52.52c-.26.14-.6.27-1,.4-.4.12-.81.23-1.23.31-.42.08-.78.13-1.09.13ZM238.99,88.62c.45,0,.92-.06,1.41-.18.49-.12.96-.3,1.39-.55v-5.99c0-.39-.11-.69-.32-.89-.22-.2-.5-.34-.87-.42-.36-.08-.75-.11-1.17-.11-1.02,0-1.78.2-2.3.59s-.86.92-1.04,1.58c-.18.65-.27,1.36-.27,2.11,0,1.14.24,2.07.73,2.79.49.72,1.3,1.08,2.44,1.08Z"></path>
    <path class="st0" d="M250.84,89.99c-1.63,0-2.83-.48-3.62-1.45-.79-.97-1.18-2.31-1.18-4.04,0-1.81.41-3.17,1.24-4.07s2-1.36,3.52-1.36c1.13,0,2.05.23,2.76.68.71.45,1.23,1.09,1.57,1.9.33.81.5,1.76.5,2.85,0,1.71-.42,3.05-1.24,4.03-.83.97-2.01,1.46-3.54,1.46ZM250.82,88.62c.85,0,1.51-.18,1.98-.55.47-.37.81-.86,1.01-1.48.2-.62.3-1.31.3-2.08,0-.82-.1-1.53-.31-2.14s-.55-1.08-1.03-1.41c-.48-.33-1.13-.5-1.95-.5s-1.49.18-1.96.54c-.47.36-.81.85-1.01,1.45-.2.61-.3,1.29-.3,2.06,0,1.22.24,2.22.73,2.97.49.76,1.34,1.14,2.55,1.14Z"></path>
    <path class="st0" d="M262.68,89.99c-.99,0-1.84-.21-2.57-.62-.72-.41-1.28-1.03-1.67-1.85-.39-.82-.58-1.84-.58-3.07,0-1.79.41-3.14,1.22-4.04.81-.9,1.93-1.35,3.35-1.35,1.11,0,2.01.25,2.68.75.67.5,1.16,1.18,1.45,2.02.29.85.43,1.81.42,2.88h-8.37l.1-1.38h7.28l-.58.21c-.04-1.04-.3-1.82-.78-2.34s-1.21-.77-2.2-.77c-.68,0-1.25.12-1.7.38-.45.25-.79.69-1.01,1.3-.22.62-.33,1.49-.33,2.6,0,1.27.29,2.23.89,2.89.59.66,1.42.99,2.49.99.51,0,.99-.04,1.42-.12.43-.08.83-.18,1.19-.32.36-.14.68-.29.96-.46v1.54c-.5.24-1.05.42-1.66.54-.61.12-1.27.19-1.99.19Z"></path>
    <path class="st0" d="M274.05,89.99c-.5,0-1.03-.07-1.59-.22-.56-.15-1.08-.42-1.58-.81s-.9-.97-1.21-1.71c-.31-.74-.47-1.71-.47-2.91,0-1.61.39-2.89,1.18-3.83.79-.94,1.98-1.41,3.58-1.41.31,0,.67.04,1.09.12.42.08.83.19,1.23.31.4.12.74.26,1,.4l-.52.52v-5.59h1.5v13.02c0,.39-.14.72-.41.99-.27.27-.62.49-1.05.65-.43.16-.89.28-1.38.35-.49.08-.95.12-1.38.12ZM274.07,88.62c.72,0,1.35-.08,1.89-.25.54-.17.8-.38.8-.63v-6.53c-.43-.25-.89-.43-1.39-.55-.49-.12-.96-.18-1.41-.18-.75,0-1.36.16-1.83.49-.47.33-.81.78-1.02,1.36-.22.58-.32,1.25-.32,2.01s.08,1.45.25,2.1c.17.65.49,1.17.96,1.58.47.4,1.16.61,2.07.61Z"></path>
    <path class="st0" d="M285.66,89.99c-.54,0-1.06-.03-1.55-.09-.49-.06-.93-.17-1.32-.33-.38-.16-.68-.37-.91-.64-.22-.26-.33-.61-.33-1.02v-13.04h1.5v5.59l-.52-.52c.28-.14.62-.27,1.01-.4s.8-.23,1.22-.31c.42-.08.78-.12,1.09-.12,1.61,0,2.81.47,3.59,1.41.78.94,1.17,2.22,1.17,3.83,0,1.2-.16,2.17-.48,2.91s-.73,1.32-1.22,1.71c-.49.4-1.03.67-1.6.81-.57.15-1.12.22-1.65.22ZM285.51,88.62c.99,0,1.73-.2,2.23-.61.5-.4.84-.93,1.01-1.58.17-.65.26-1.35.26-2.1s-.11-1.44-.32-2.01c-.22-.58-.55-1.03-1.01-1.36-.46-.33-1.07-.49-1.84-.49-.43,0-.9.06-1.4.18-.5.12-.97.3-1.4.55v6.34c0,.31.14.54.41.69.27.15.6.25.98.3s.74.07,1.08.07Z"></path>
    <path class="st0" d="M297.66,89.99c-.99,0-1.84-.21-2.57-.62-.72-.41-1.28-1.03-1.67-1.85-.39-.82-.58-1.84-.58-3.07,0-1.79.41-3.14,1.22-4.04.81-.9,1.93-1.35,3.35-1.35,1.11,0,2.01.25,2.68.75.67.5,1.16,1.18,1.45,2.02.29.85.43,1.81.42,2.88h-8.37l.1-1.38h7.28l-.58.21c-.04-1.04-.3-1.82-.78-2.34s-1.21-.77-2.2-.77c-.68,0-1.25.12-1.7.38-.45.25-.79.69-1.01,1.3-.22.62-.33,1.49-.33,2.6,0,1.27.29,2.23.89,2.89.59.66,1.42.99,2.49.99.51,0,.99-.04,1.42-.12.43-.08.83-.18,1.19-.32.36-.14.68-.29.96-.46v1.54c-.5.24-1.05.42-1.66.54-.61.12-1.27.19-1.99.19Z"></path>
    <path class="st0" d="M304.71,89.68v-15.03h1.5v5.78l-.17-.4c.53-.29,1.08-.53,1.67-.7.58-.17,1.13-.26,1.65-.26.86,0,1.59.16,2.18.48.59.32,1.04.8,1.36,1.45.31.65.47,1.48.47,2.49v6.18h-1.5v-6.18c0-.97-.22-1.73-.67-2.25-.45-.53-1.11-.79-2-.79-.49,0-.98.07-1.47.21-.49.14-1,.35-1.51.63v8.39h-1.5Z"></path>
    <path class="st0" d="M320.95,89.99c-.99,0-1.84-.21-2.57-.62-.72-.41-1.28-1.03-1.67-1.85-.39-.82-.58-1.84-.58-3.07,0-1.79.41-3.14,1.22-4.04.81-.9,1.93-1.35,3.35-1.35,1.11,0,2.01.25,2.68.75.67.5,1.16,1.18,1.45,2.02.29.85.43,1.81.42,2.88h-8.37l.1-1.38h7.28l-.58.21c-.04-1.04-.3-1.82-.78-2.34s-1.21-.77-2.2-.77c-.68,0-1.25.12-1.7.38-.45.25-.79.69-1.01,1.3-.22.62-.33,1.49-.33,2.6,0,1.27.29,2.23.89,2.89.59.66,1.42.99,2.49.99.51,0,.99-.04,1.42-.12.43-.08.83-.18,1.19-.32.36-.14.68-.29.96-.46v1.54c-.5.24-1.05.42-1.66.54-.61.12-1.27.19-1.99.19Z"></path>
    <path class="st0" d="M332.31,89.99c-.99,0-1.84-.21-2.57-.62-.72-.41-1.28-1.03-1.67-1.85-.39-.82-.58-1.84-.58-3.07,0-1.79.41-3.14,1.22-4.04.81-.9,1.93-1.35,3.35-1.35,1.11,0,2.01.25,2.68.75.67.5,1.16,1.18,1.45,2.02.29.85.43,1.81.42,2.88h-8.37l.1-1.38h7.28l-.58.21c-.04-1.04-.3-1.82-.78-2.34s-1.21-.77-2.2-.77c-.68,0-1.25.12-1.7.38-.45.25-.79.69-1.01,1.3-.22.62-.33,1.49-.33,2.6,0,1.27.29,2.23.89,2.89.59.66,1.42.99,2.49.99.51,0,.99-.04,1.42-.12.43-.08.83-.18,1.19-.32.36-.14.68-.29.96-.46v1.54c-.5.24-1.05.42-1.66.54-.61.12-1.27.19-1.99.19Z"></path>
    <path class="st0" d="M339.36,89.68v-9.58c.17-.07.49-.19.97-.35.48-.17,1.06-.32,1.73-.46.67-.14,1.37-.21,2.1-.21.11,0,.22.01.33.04.11.03.22.06.33.08v1.34c-.36-.04-.71-.06-1.05-.06s-.67.02-.99.05c-.32.04-.64.08-.96.14-.32.06-.64.11-.96.17v8.85h-1.5Z"></path>
  </g>
  <g>
    <path class="st0" d="M140.02,49.27c.08.07.16.13.23.2l-.06-.41-.17.21Z"></path>
    <g>
      <path class="st0" d="M24.62,33.62v-10.1h7.64c.92,0,1.75.1,2.49.28,2.41-3.07,4.77-6.05,7.03-8.92-2.41-.95-5.35-1.46-8.91-1.46H12.95v38.07c4.71-5.98,9.45-12,14.06-17.86h-2.39Z"></path>
      <path class="st0" d="M41.65,40.85c5.23-2.23,8.67-6.5,8.67-12.93v-.12c0-.79-.06-1.53-.15-2.26-.39-3.09-1.58-5.6-3.58-7.55-1.05-1.07-2.33-1.98-3.85-2.7-.31-.15-.63-.28-.95-.41-2.26,2.87-4.61,5.86-7.03,8.92.39.1.75.22,1.09.37,1.74.77,2.74,2.22,2.74,4.35v.12c0,3.07-2.29,4.99-6.26,4.99h-5.31c-4.62,5.86-9.36,11.88-14.06,17.86v4.04h11.67v-12.76h5.11l8.48,12.76h13.48l-10.05-14.68Z"></path>
    </g>
    <path class="st0" d="M166.53,31.03c-.49-.17-1-.32-1.53-.47-1.23-.36-2.54-.68-3.92-.98-5.84-1.32-7.28-2.17-7.28-4.09v-.12c0-1.5,1.38-2.71,4.21-2.71,2.57,0,5.37.69,8.13,2,.46.22.93.46,1.39.72.77.43,1.53.9,2.27,1.43l5.84-8.24c-1.9-1.52-3.97-2.74-6.26-3.65-.42-.16-.84-.32-1.27-.47-2.91-.98-6.15-1.48-9.8-1.48-4.32,0-7.93,1.04-10.64,2.83-3.63,2.4-5.67,6.17-5.67,10.65v.12c0,5.62,2.91,8.65,7.41,10.65,2.43,1.08,5.33,1.86,8.48,2.58,2.33.54,3.94,1.02,5.03,1.52.76.35,1.28.7,1.6,1.09.35.42.48.88.48,1.42v.12c0,.86-.38,1.54-1.11,2.04-.5.34-1.17.59-2.01.72-.51.08-1.07.13-1.7.13-3.56,0-6.99-.94-10.21-2.73-1.18-.66-2.34-1.43-3.45-2.32l-6.32,7.55.06.41c3.01,2.63,6.65,4.5,10.63,5.6,1.4.39,2.84.68,4.31.88,1.5.2,3.02.3,4.56.3h.22c.7,0,1.39-.04,2.06-.09,5.71-.45,10.14-2.64,12.6-6.24,1.39-2.04,2.15-4.52,2.15-7.39v-.12c0-6.28-3.81-9.53-10.25-11.66Z"></path>
    <g>
      <path class="st0" d="M213.28,13.11h-1.48l-9.57,26.65-9.57-26.65h-13.05l12.78,31.73c7.54-2.34,14.99-4.64,22.21-6.88l2.89-7.17.9-2.25,6.21-15.42h-11.33Z"></path>
      <path class="st0" d="M196.69,55.53h10.83l7.08-17.57c-7.22,2.24-14.67,4.55-22.21,6.88l4.3,10.69Z"></path>
    </g>
    <g>
      <path class="st0" d="M288.5,19.34l.13-.05,4.26-5.41c-2.38-.59-4.96-.9-7.79-.9-7.8,0-13.28,3.37-15.37,8.51,13.93-4.31,22.57-6.99,22.57-6.99l-3.81,4.84Z"></path>
      <path class="st0" d="M303.48,42.81v-.12c0-7.88-6.02-11.01-15.71-13.11-2.97-.67-4.8-1.22-5.89-1.86l-7.02,8.9c2.66,1.41,6.01,2.34,9.71,3.18,5.72,1.32,7.1,2.29,7.1,4.03v.12c0,1.8-1.68,2.89-4.81,2.89-4.87,0-9.51-1.74-13.66-5.05l-6.5,7.76c5.17,4.63,12.27,6.98,19.73,6.98,10.23,0,17.03-5.11,17.03-13.72Z"></path>
      <path class="st0" d="M298.06,15.81c-1.63-.82-3.38-1.47-5.26-1.94l-4.26,5.41-2.7,3.43c3.44.26,7.19,1.67,10.66,4.1l5.83-8.24c-1.33-1.07-2.75-1.99-4.28-2.76Z"></path>
      <path class="st0" d="M269.74,21.49c-.61,1.52-.94,3.19-.94,4.97v.12c0,5.06,2.36,8.03,6.12,10.03l6.98-8.88c-1-.6-1.3-1.3-1.3-2.23v-.12c0-1.5,1.38-2.71,4.21-2.71.34,0,.7.02,1.05.04l2.65-3.37,3.81-4.84s-8.64,2.68-22.57,6.99Z"></path>
    </g>
    <g>
      <path class="st0" d="M242.78,26.95l.9,2.3c3.57-1.11,7-2.17,10.29-3.19l-5.47-12.95h-11.25l-8.82,20.86c4.54-1.41,8.95-2.77,13.19-4.09l1.17-2.94Z"></path>
      <g>
        <polygon class="st0" points="264.09 50.02 259.76 55.53 266.42 55.53 264.09 50.02"></polygon>
        <path class="st0" d="M255.99,30.86l-2.03-4.8c-3.28,1.02-6.72,2.08-10.29,3.19l2.09,5.33,1.7,4.34h-9.45l.7-1.78,2.88-7.25c-4.23,1.31-8.64,2.68-13.19,4.09l-3.46,8.18-1.2,2.83-4.45,10.54h12.28l3.01-7.52h16.24l3.07,7.52h5.81l4.36-5.55-8.09-19.12Z"></path>
      </g>
    </g>
    <path class="st0" d="M54.38,34.55v-.12c0-12.2,9.83-22.1,22.95-22.1s22.83,9.78,22.83,21.98v.12c0,12.2-9.84,22.1-22.95,22.1s-22.83-9.78-22.83-21.98ZM88.14,34.55v-.12c0-6.13-4.43-11.47-10.93-11.47s-10.75,5.22-10.75,11.35v.12c0,6.13,4.43,11.48,10.87,11.48s10.81-5.22,10.81-11.36Z"></path>
    <g>
      <path class="st0" d="M76.15,23.01l-13.48-5.71c-1.12.88-2.14,1.87-3.05,2.94l7.77,9.37c1.47-3.57,4.6-6.21,8.76-6.59Z"></path>
      <path class="st0" d="M88.14,34.43v.12c0,5.06-2.94,9.49-7.61,10.89l7.22,8.7c7.5-3.64,12.42-11.09,12.42-19.71v-.12c0-.39-.04-.76-.06-1.14l-14.46-6.13c1.59,2.03,2.5,4.63,2.5,7.4Z"></path>
    </g>
    <g>
      <polygon class="st0" points="114.69 55.53 126.37 55.53 126.37 42.38 114.69 36.4 114.69 55.53"></polygon>
      <polygon class="st0" points="101.2 13.41 101.22 23.64 114.69 23.64 114.67 36.38 114.69 36.4 126.37 42.38 126.39 23.64 139 23.64 139 13.41 101.2 13.41"></polygon>
    </g>
    <g>
      <polygon class="st0" points="306.31 13.41 305.59 13.41 305.59 14.15 305.59 23.64 318.22 23.64 318.22 55.53 329.89 55.53 329.89 23.64 342.53 23.64 342.53 13.41 306.31 13.41"></polygon>
      <polygon class="st0" points="318.24 55.52 329.9 55.52 329.9 40.51 318.24 28.86 318.24 55.52"></polygon>
    </g>
  </g>
</svg>
