<svg height="39.21" width="150.17" xmlns="http://www.w3.org/2000/svg"><path d="m39.21 39.21h-39.21v-39.2h39.21z" fill="#c3002f"/><path d="m28.26 31.17h-17.31c-.8 0-1.43-.64-1.43-1.43v-7.42a1.43 1.43 0 0 1 2.86 0v5.99h14.45v-11.23l-7.19-5.77-7.8 6.2a1.43 1.43 0 0 1 -1.78-2.24l8.7-6.91a1.43 1.43 0 0 1 1.78 0l8.62 6.92c.34.27.53.68.53 1.12v13.34c0 .79-.64 1.43-1.43 1.43" fill="#fff"/><path d="m52.81 8.56c0-.55-.07-1.04-.22-1.48-.14-.44-.35-.8-.63-1.1-.27-.3-.6-.54-1-.7a3.41 3.41 0 0 0 -1.31-.24h-1.95v7.04h1.94c.49 0 .93-.08 1.32-.25.39-.16.72-.39 1-.7.27-.3.48-.66.62-1.1.15-.43.22-.92.22-1.47zm1.9 0c0 .73-.11 1.4-.36 2.02a4.66 4.66 0 0 1 -2.63 2.61c-.62.24-1.31.37-2.07.37h-3.81v-10h3.8c.77 0 1.46.12 2.08.37a4.67 4.67 0 0 1 2.63 2.6c.25.62.37 1.3.37 2.03m4.2-3.52v2.76h3.5v1.43h-3.5v2.83h4.44v1.49h-6.31v-10h6.3v1.48h-4.43m19.25-1.47v10h-1.86v-4.37h-4.7v4.37h-1.87v-10h1.87v4.3h4.7v-4.3zm6.95 8.5c.36 0 .68-.06.96-.18a1.98 1.98 0 0 0 1.16-1.3c.1-.3.16-.65.16-1.03v-6h1.86v6c0 .6-.1 1.14-.29 1.65a3.74 3.74 0 0 1 -2.12 2.16c-.52.2-1.1.3-1.73.3-.65 0-1.23-.1-1.74-.3a3.73 3.73 0 0 1 -2.12-2.16c-.2-.5-.3-1.06-.3-1.65v-6h1.87v5.99c0 .38.05.73.15 1.04.1.3.26.57.45.79.2.22.44.39.72.5.29.13.6.19.97.19m8.8 1.5h-1.87v-10h1.87zm9.81-9.32a1 1 0 0 1 -.18.58l-5.13 7.25h5.2v1.49h-7.62v-.74c0-.09.01-.18.05-.26.03-.09.07-.17.12-.24l5.14-7.28h-4.99v-1.48h7.4v.68m4.06.8v2.76h3.5v1.43h-3.5v2.83h4.44v1.49h-6.31v-10h6.3v1.48h-4.43m15.2-1.47v10h-.95a.83.83 0 0 1 -.37-.08.86.86 0 0 1 -.29-.24l-5.22-6.67c.03.3.04.59.04.85v6.14h-1.64v-10h1.18a.48.48 0 0 1 .28.14c.04.04.1.09.14.15l5.24 6.7a16.35 16.35 0 0 1 -.04-.91v-6.08zm-73.4 20.88c.35 0 .64-.04.87-.13.24-.08.42-.19.57-.33.14-.13.24-.3.3-.48a1.82 1.82 0 0 0 -.01-1.17 1.1 1.1 0 0 0 -.33-.45 1.5 1.5 0 0 0 -.57-.28c-.23-.06-.5-.1-.84-.1h-1.87v2.94zm-1.88-7.11v2.89h1.48c.64 0 1.12-.11 1.44-.34.33-.24.49-.6.49-1.1 0-.53-.15-.9-.44-1.12-.3-.22-.76-.33-1.39-.33zm1.58-1.44c.66 0 1.22.06 1.68.19.47.12.85.3 1.15.53s.51.51.65.84a2.84 2.84 0 0 1 .1 1.78c-.06.21-.17.41-.32.6-.14.19-.33.36-.55.5-.22.16-.49.29-.8.4 1.38.3 2.06 1.05 2.06 2.22 0 .43-.08.82-.24 1.18s-.4.67-.7.93c-.31.26-.7.46-1.15.61a5 5 0 0 1 -1.54.22h-3.78v-10zm8.22 1.48v2.77h3.5v1.44h-3.5v2.82h4.44v1.5h-6.3v-10h6.3v1.47h-4.43m17.62-1.47v10h-1.64v-6.47c0-.26.01-.53.04-.83l-3.02 5.67a.7.7 0 0 1 -.66.41h-.26a.7.7 0 0 1 -.66-.4l-3.06-5.7a15.84 15.84 0 0 1 .05.85v6.46h-1.64v-10h1.62l.16.04c.05.02.1.05.13.1.04.03.08.09.12.16l3 5.55a5.76 5.76 0 0 1 .4.94 9.5 9.5 0 0 1 .43-.95l2.95-5.54a.67.67 0 0 1 .12-.17.4.4 0 0 1 .13-.09.6.6 0 0 1 .17-.03h1.61m4.79 10h-1.87v-10h1.87zm9.89-5c0-.56-.07-1.05-.21-1.49-.15-.43-.36-.8-.63-1.1-.28-.3-.6-.54-1-.7a3.4 3.4 0 0 0 -1.31-.24h-1.95v7.04h1.95c.48 0 .92-.08 1.31-.24.4-.16.72-.4 1-.7.27-.3.48-.67.63-1.1.14-.44.21-.93.21-1.48zm1.91 0c0 .72-.12 1.4-.36 2.01a4.64 4.64 0 0 1 -2.63 2.61c-.62.25-1.32.37-2.07.37h-3.82v-10h3.82c.75 0 1.45.12 2.07.37a4.62 4.62 0 0 1 2.63 2.61c.24.62.36 1.29.36 2.02m9.3.01c0-.56-.07-1.05-.21-1.49-.15-.43-.36-.8-.63-1.1-.28-.3-.6-.54-1-.7a3.41 3.41 0 0 0 -1.32-.24h-1.94v7.04h1.94c.5 0 .93-.08 1.32-.24.4-.16.72-.4 1-.7.27-.3.48-.67.63-1.1.14-.44.21-.93.21-1.48zm1.91 0c0 .72-.12 1.4-.36 2.01a4.62 4.62 0 0 1 -2.63 2.61c-.62.25-1.32.37-2.08.37h-3.8v-10h3.8c.76 0 1.46.12 2.08.37a4.68 4.68 0 0 1 2.63 2.61c.24.62.36 1.29.36 2.02m4.2-3.52v2.77h3.5v1.44h-3.5v2.82h4.44v1.5h-6.3v-10h6.3v1.47zm12.64 6.99v1.53h-5.86v-10h1.86v8.47zm7.3-2.24-1.22-3.33a6.95 6.95 0 0 1 -.38-1.18 13.27 13.27 0 0 1 -.37 1.2l-1.21 3.3zm3.28 3.77h-1.44a.62.62 0 0 1 -.4-.12.77.77 0 0 1 -.22-.3l-.75-2.04h-4.14l-.75 2.04c-.03.1-.1.2-.2.3a.6.6 0 0 1 -.4.12h-1.46l3.94-10h1.9zm7.01-3.77-1.21-3.33a6.78 6.78 0 0 1 -.38-1.18 11.65 11.65 0 0 1 -.38 1.2l-1.2 3.3zm3.29 3.77h-1.44a.62.62 0 0 1 -.4-.12.74.74 0 0 1 -.22-.3l-.75-2.04h-4.14l-.75 2.04c-.04.1-.1.2-.21.3a.6.6 0 0 1 -.4.12h-1.45l3.94-10h1.9zm4.75-5.24c.35 0 .66-.04.92-.13s.47-.21.64-.37c.17-.15.3-.33.38-.55.08-.2.12-.44.12-.7 0-.5-.17-.89-.5-1.16-.34-.27-.85-.41-1.53-.41h-1.2v3.32zm4.78 5.24h-1.68c-.31 0-.54-.12-.69-.37l-2.1-3.2a.73.73 0 0 0 -.26-.26.9.9 0 0 0 -.42-.08h-.8v3.91h-1.85v-10h3.05c.67 0 1.26.07 1.74.21.49.14.89.34 1.2.6.31.25.54.55.69.9.14.36.22.74.22 1.17a3 3 0 0 1 -.58 1.77 2.9 2.9 0 0 1 -.69.64c-.27.19-.59.33-.94.44a1.78 1.78 0 0 1 .61.58l2.5 3.7" fill="#100f0d"/><path d="m52.93 28.98v6.6h-.93v-4.52a5.12 5.12 0 0 1 .03-.5l-2.13 3.92c-.08.16-.2.24-.38.24h-.15a.4.4 0 0 1 -.38-.24l-2.15-3.93a4.45 4.45 0 0 1 .02.5v4.53h-.94v-6.6h.8c.1 0 .17.01.22.03.05.01.1.07.14.15l2.12 3.84a5.7 5.7 0 0 1 .24.56 6.17 6.17 0 0 1 .25-.57l2.09-3.83c.04-.08.09-.14.14-.15a.7.7 0 0 1 .22-.03h.8m5.51 4.12-.9-2.4a6.59 6.59 0 0 1 -.23-.71 4.6 4.6 0 0 1 -.22.71l-.9 2.4zm2.03 2.48h-.82a.35.35 0 0 1 -.23-.07.45.45 0 0 1 -.14-.17l-.55-1.46h-2.84l-.55 1.46a.43.43 0 0 1 -.13.17.34.34 0 0 1 -.23.07h-.83l2.62-6.6h1.09zm2.31-3.78h.3a.7.7 0 0 0 .29-.04.51.51 0 0 0 .2-.16l2-2.38a.62.62 0 0 1 .21-.18.66.66 0 0 1 .29-.06h.91l-2.36 2.79c-.06.08-.13.15-.19.2a.8.8 0 0 1 -.19.13c.1.03.17.08.25.14.07.06.14.14.21.24l2.45 3.1h-1.11a.43.43 0 0 1 -.12-.05.35.35 0 0 1 -.1-.07.54.54 0 0 1 -.06-.1l-2.07-2.51a.47.47 0 0 0 -.34-.2c-.05-.02-.1-.02-.18-.02h-.4v2.95h-1.07v-6.6h1.08v2.83m9.69 2.91v.86h-4.12v-6.6h4.12v.87h-3.04v1.99h2.43v.84h-2.43v2.04zm5.43-.03v.9h-3.8v-6.6h1.06v5.7zm4.88-1.59-.9-2.4a6.38 6.38 0 0 1 -.23-.71 4.6 4.6 0 0 1 -.22.71l-.91 2.4zm2.03 2.48h-.83a.35.35 0 0 1 -.23-.07.47.47 0 0 1 -.13-.17l-.55-1.46h-2.85l-.55 1.46a.45.45 0 0 1 -.12.17.34.34 0 0 1 -.23.07h-.83l2.62-6.6h1.08zm4.72-2.48-.9-2.4a6.5 6.5 0 0 1 -.23-.71 4.6 4.6 0 0 1 -.22.71l-.9 2.4zm2.03 2.48h-.83a.35.35 0 0 1 -.22-.07.45.45 0 0 1 -.14-.17l-.55-1.46h-2.83l-.55 1.46a.44.44 0 0 1 -.13.17.34.34 0 0 1 -.23.07h-.83l2.62-6.6h1.09l2.61 6.6m3.14-3.43c.24 0 .46-.03.64-.1.19-.05.34-.14.46-.24.12-.11.22-.24.28-.39s.09-.3.09-.49c0-.36-.12-.64-.36-.82-.24-.2-.6-.29-1.08-.29h-.87v2.33zm3.11 3.43h-.96c-.19 0-.33-.07-.41-.22l-1.54-2.22a.51.51 0 0 0 -.17-.16.59.59 0 0 0 -.28-.05h-.6v2.65h-1.07v-6.6h1.95c.43 0 .8.05 1.12.13.31.1.57.22.77.38.2.17.35.36.45.6.1.22.14.48.14.76a1.78 1.78 0 0 1 -.88 1.6c-.19.12-.4.22-.64.28.13.08.24.2.34.34zm5.96-3.3c0-.38-.05-.72-.16-1.02a1.93 1.93 0 0 0 -1.13-1.24 2.4 2.4 0 0 0 -.92-.17h-1.42v4.87h1.42c.34 0 .65-.06.92-.17.27-.1.5-.27.7-.48.18-.2.33-.46.43-.76s.16-.64.16-1.03zm1.1 0c0 .5-.09.94-.25 1.35a3.03 3.03 0 0 1 -1.7 1.71c-.41.17-.86.24-1.36.24h-2.5v-6.6h2.5c.5 0 .95.08 1.35.24a3.02 3.02 0 0 1 1.71 1.72c.16.4.24.85.24 1.34m2.72 3.3h-1.08v-6.6h1.08zm4.43-2.32c0 .37-.05.7-.14 1a2 2 0 0 1 -.4.75c-.18.21-.4.37-.67.48-.26.11-.57.17-.92.17a3.72 3.72 0 0 1 -.96-.12l.06-.65c0-.06.03-.1.07-.14s.1-.06.17-.06c.05 0 .12.01.21.04.09.02.2.03.34.03.19 0 .36-.03.5-.08a.9.9 0 0 0 .37-.26c.1-.12.17-.27.22-.46.05-.18.08-.4.08-.67v-4.29h1.07v4.27" fill="#585a5c"/></svg>