<?xml version="1.0" encoding="utf-8"?>
<!-- Generator: Adobe Illustrator 21.1.0, SVG Export Plug-In . SVG Version: 6.00 Build 0)  -->
<svg version="1.1" id="Layer_1" xmlns="http://www.w3.org/2000/svg" xmlns:xlink="http://www.w3.org/1999/xlink" x="0px" y="0px"
	 viewBox="0 0 320 90" style="enable-background:new 0 0 320 90;" xml:space="preserve">
<style type="text/css">
	.st0{display:none;}
	.st1{display:none;fill:#252B31;}
	.st2{fill:#FFFFFF;}
	.st3{display:none;fill:#FFFFFF;}
	.st4{font-family:'Times-Roman';}
	.st5{font-size:65px;}
	.st6{letter-spacing:-2;}
	.st7{fill:#727578;}
	.st8{font-family:'TimesNewRomanPSMT';}
	.st9{font-size:33.3841px;}
</style>
<g id="W1kDfd.tif" class="st0">
	
		<image style="display:inline;overflow:visible;" width="320" height="90" id="Layer_0_1_" xlink:href="55AFD666B48E2606.png"  transform="matrix(1 0 0 1 -2 106)">
	</image>
</g>
<rect y="-2" class="st1" width="322" height="94"/>
<g>
	<path class="st2" d="M18,56.9c2.4-0.3,3.9-0.7,4.6-1.3c0.7-0.6,1.1-2.1,1.1-4.6V22.1c0-2.4-0.3-3.9-1-4.6c-0.7-0.7-2.3-1.1-4.7-1.3
		v-1.2h17.5c5.9,0,10.9,1,15,2.9c7.4,3.5,11,9.7,11,18.7c0,3.2-0.7,6.3-2,9.2s-3.3,5.4-6,7.4c-1.7,1.3-3.4,2.2-5.3,2.9
		c-3.3,1.2-7.4,1.8-12.3,1.8H18V56.9z M31.1,55.2c0.5,0.3,1.6,0.5,3.2,0.5c5.1,0,9.3-1,12.5-3c5-3.1,7.6-8.4,7.6-15.9
		c0-6.7-2.1-11.7-6.2-15.1c-3.6-2.9-8.3-4.3-14.1-4.3c-1.5,0-2.4,0.2-3,0.5c-0.5,0.3-0.8,1-0.8,2.1v33.1
		C30.3,54.1,30.5,54.8,31.1,55.2z"/>
	<path class="st2" d="M62.3,58.1v-1.2C64,56.7,65.2,56,66,55c0.8-1.1,2.3-4,4.3-8.8l13.5-31.9h1.3l16.2,36.8c1.1,2.4,1.9,4,2.6,4.5
		c0.6,0.6,1.7,1,3.3,1.2v1.2H90.7v-1.2c1.9-0.2,3.1-0.4,3.7-0.6c0.5-0.2,0.8-0.8,0.8-1.8c0-0.3-0.1-0.9-0.3-1.7
		c-0.2-0.8-0.5-1.6-0.9-2.5L91.4,44H74.2c-1.7,4.3-2.7,6.8-3,7.8c-0.3,0.9-0.5,1.7-0.5,2.2c0,1.1,0.4,1.9,1.3,2.3
		c0.5,0.3,1.6,0.4,3.1,0.6v1.2H62.3z M90.3,41.4l-7.4-17.9l-7.5,17.9H90.3z"/>
	<path class="st2" d="M106.5,56.9c2.7-0.3,4.4-0.9,5.2-1.8s1.1-3.1,1.1-6.5V19.9l-0.9-1c-1-1.1-1.8-1.8-2.4-2.1
		c-0.7-0.3-1.7-0.4-3-0.5v-1.2h11.1l25.1,31.1V24.6c0-3.6-0.5-5.9-1.6-6.9c-0.7-0.7-2.2-1.1-4.6-1.4v-1.2h15.3v1.2
		c-2.5,0.3-4.1,0.9-5,1.8s-1.2,3.1-1.2,6.5v34.2h-1.1l-28.8-35.6v25.3c0,3.6,0.5,5.9,1.6,6.9c0.7,0.7,2.2,1.2,4.5,1.4v1.2h-15.3
		V56.9z"/>
	<path class="st2" d="M172.2,51.9c1.6,0,3.6,0,5.5,0l11.6-29.6c1-2.5,2-4.2,3-5c0.7-0.5,1.7-0.9,3-1.1v-1.1h-13.3v1.1
		c1.5,0,2.5,0.2,3.1,0.5c1.1,0.5,1.6,1.3,1.6,2.6c0,0.5-0.1,1.1-0.3,1.8c-0.2,0.8-0.5,1.7-0.9,2.8l-9.2,24.5l-10.2-22.6
		c-1-2.2-1.7-3.8-2.1-4.8c-0.4-1-0.6-1.7-0.6-2.3c0-1.1,0.5-1.8,1.6-2.1c0.6-0.2,1.7-0.3,3.3-0.3v-1.1h-17.3v1.1
		c1.6,0.1,2.8,0.5,3.6,1.3c0.8,0.7,1.9,2.6,3.3,5.7l12.9,28.8C171.4,51.9,171.9,51.9,172.2,51.9z"/>
	<path class="st2" d="M226.7,52.1C226.7,52.1,226.7,52.1,226.7,52.1c-2.7,0-5.5,0-7.2-0.1c0,0,0,0,0,0.1
		C222.1,52.1,224.6,52.1,226.7,52.1z"/>
	<path class="st2" d="M218.8,50.3c0.2,0.6,0.4,1.1,0.6,1.7c1.6,0,4.4-0.1,7.1-0.1c-0.1-0.2-0.2-0.5-0.3-0.7L210,14.3h-1.3
		l-13.5,31.9c-1,2.3-1.8,4.2-2.5,5.7c1.2,0,2.4,0,3.4,0c0,0,0-0.1,0-0.1c0.3-0.9,1.3-3.5,3-7.8h17.1L218.8,50.3z M200.2,41.4
		l7.5-17.9l7.4,17.9H200.2z"/>
	<path class="st2" d="M238.5,51.8c-1.4-1.7-2.7-4-3.7-6.8h-1.5l1,6.8C235.3,51.8,236.9,51.8,238.5,51.8z"/>
	<path class="st2" d="M241.8,35.6l5.5,3.5c3.2,2,5.3,3.5,6.3,4.5c1.5,1.6,2.3,3.4,2.3,5.5c0,1.1-0.2,2-0.5,2.9c2.4,0,4.7,0,5.9,0.1
		c0.8-1.5,1.1-3.2,1.1-5c0-2.5-0.7-4.7-2.2-6.6c-1.5-1.8-4-3.9-7.6-6.1l-5.7-3.5c-2.1-1.3-3.7-2.6-4.7-3.8c-1-1.2-1.5-2.6-1.5-4.3
		c0-1.9,0.7-3.3,2-4.4c1.3-1,2.9-1.6,4.7-1.6c2.3,0,4.6,0.8,6.9,2.5c2.3,1.7,4,4.6,5.1,8.7h1.6l-1.4-13.8h-1.3
		c-0.2,0.7-0.4,1.2-0.7,1.6c-0.3,0.4-0.9,0.6-1.7,0.6c-0.3,0-1.5-0.4-3.6-1.1c-2.1-0.7-3.9-1.1-5.3-1.1c-3.6,0-6.5,1.1-8.7,3.3
		c-2.2,2.2-3.3,4.9-3.3,8.2c0,2.5,0.9,4.7,2.8,6.8C238.8,33.5,240.1,34.5,241.8,35.6z"/>
	<path class="st2" d="M280.6,17.8v32.5c0,0.5,0,1,0,1.5c2.8,0,5.3,0.1,5.8,0.1c0,0,0.3,0,0.7,0c0-0.3,0-0.5,0-0.8V17.8h3.6
		c3.8,0,6.2,0.5,7.4,1.6c1.2,1,2.1,3.3,2.9,6.8h1.6l-0.3-11h-36.8l-0.4,11h1.6c0.7-3.5,1.6-5.8,2.9-6.8c1.3-1,3.8-1.6,7.3-1.6H280.6
		z"/>
</g>
<text transform="matrix(1 0 0 1 20.916 58.0723)" class="st3 st4 st5 st6">DANVAST</text>
<rect x="152.1" y="52" class="st1" width="169.9" height="40"/>
<text transform="matrix(1 0 0 1 163.999 76.499)"><tspan x="0" y="0" class="st7 st8 st9">real</tspan><tspan x="50.7" y="0" class="st7 st8 st9"> </tspan><tspan x="59.9" y="0" class="st7 st8 st9">estate</tspan></text>
</svg>
