<svg xmlns="http://www.w3.org/2000/svg" width="793" height="217" viewBox="0 0 793 217" fill="none"><path d="M294.84 38.9197H270.92V25.9697H333.68V38.9197H309.82V114.81H294.84V38.9197Z" fill="white"></path><path d="M344.49 25.98H398.43V38.86H359.47V63.8H395.26V76.55H359.47V102H399.57V114.82H344.49V25.98Z" fill="white"></path><path d="M414.85 25.98H429.76L469.48 89.95V25.98H483.76V114.82H468.85L429.13 50.85V114.82H414.85V25.98Z" fill="white"></path><path d="M583.26 92.23C574.31 108.35 561.18 116.34 543.09 116.34C517.9 116.34 498.29 96.86 498.29 70.4C498.29 43.94 517.9 24.46 543.09 24.46C564.35 24.46 579.77 36.64 584.46 56.38H568.79C565.11 44.13 554.89 37.6 543.28 37.6C527.35 37.6 513.46 50.29 513.46 70.41C513.46 90.53 527.68 103.22 543.86 103.22C557.18 103.22 567.34 96.62 574.19 85.64L583.26 92.24V92.23Z" fill="white"></path><path d="M637.13 25.98L669.75 114.82H653.7L646.27 93.37H611.3L603.87 114.82H587.82L620.5 25.98H637.13ZM642.21 80.87L628.82 42.22L615.43 80.87H642.21Z" fill="white"></path><path d="M687.92 38.9197H663.99V25.9697H726.75V38.9197H702.89V114.81H687.92V38.9197Z" fill="white"></path><path d="M737.57 25.98H791.51V38.86H752.55V63.8H788.34V76.55H752.55V102H792.66V114.82H737.58V25.98H737.57Z" fill="white"></path><path d="M288.12 190.23H283.76L270.91 157.98H275.39L285.94 184.62L296.49 157.98H300.97L288.11 190.23H288.12Z" fill="white"></path><path d="M321.26 157.24C326.77 157.24 331.25 159.95 333.96 164.06V157.99H338.19V190.24H333.96V184.2C331.25 188.28 326.77 190.99 321.26 190.99C311.89 190.99 305.45 183.36 305.45 174.12C305.45 164.88 311.89 157.25 321.26 157.25V157.24ZM321.88 187.18C329.04 187.18 333.96 181.2 333.96 174.11C333.96 167.02 329.14 161.04 321.88 161.04C314.62 161.04 309.74 167.02 309.74 174.11C309.74 181.2 314.72 187.18 321.88 187.18Z" fill="white"></path><path d="M349.89 182.79C352.41 185.65 355.46 187.3 359.45 187.3C364.15 187.3 367.11 185 367.11 181.64C367.11 178.46 364.34 176.32 358.95 175.29C351.95 173.98 348.49 170.68 348.49 166.01C348.49 161.09 352.51 157.23 359.04 157.23C365.57 157.23 369.44 160.56 370.34 166.1H366.11C365.64 163.21 363.22 160.9 359.32 160.9C355.42 160.9 352.72 163.17 352.72 166.07C352.72 168.68 355.3 170.89 360.31 171.86C367.5 173.26 371.33 176.47 371.33 181.7C371.33 186.93 367.04 190.98 359.69 190.98C354.46 190.98 350.69 188.77 347.8 185.19L349.89 182.79Z" fill="white"></path><path d="M387.97 180.33C387.97 184.87 389.96 187.24 394.82 187.24C395.75 187.24 397.03 187.18 397.81 187.05V190.26C396.78 190.76 395.26 190.98 393.89 190.98C387.23 190.98 383.74 187.49 383.74 180.4V161.73H376.83V157.99H383.74V149.8L387.97 148.65V157.99H397.43V161.73H387.97V180.34V180.33Z" fill="white"></path><path d="M418.42 157.24C423.93 157.24 428.41 159.95 431.12 164.06V157.99H435.35V189.92C435.35 198.7 429.56 204.67 419.76 204.67C413.66 204.67 409.3 201.81 406 197.82L408.34 195.49C411.08 198.66 414.97 201 419.73 201C426.51 201 431.12 196.77 431.12 190.17V184.19C428.41 188.27 423.93 190.98 418.42 190.98C409.05 190.98 402.61 183.35 402.61 174.11C402.61 164.87 409.05 157.24 418.42 157.24ZM419.04 187.18C426.2 187.18 431.12 181.2 431.12 174.11C431.12 167.02 426.3 161.04 419.04 161.04C411.78 161.04 406.9 167.02 406.9 174.11C406.9 181.2 411.88 187.18 419.04 187.18Z" fill="white"></path><path d="M479.15 174.11C479.15 183.32 471.9 190.98 462.03 190.98C452.16 190.98 444.91 183.32 444.91 174.11C444.91 164.9 452.16 157.24 462.03 157.24C471.9 157.24 479.15 164.9 479.15 174.11ZM474.85 174.11C474.85 167.01 469.31 161.04 462.03 161.04C454.75 161.04 449.21 167.02 449.21 174.11C449.21 181.2 454.75 187.18 462.03 187.18C469.31 187.18 474.85 181.2 474.85 174.11Z" fill="white"></path><path d="M503.71 187.3C508.25 187.3 511.89 185.37 514.91 181.98L517.37 184.28C514.04 188.48 509.81 190.97 503.8 190.97C493.56 190.97 486.62 183.38 486.62 174.1C486.62 164.82 493.72 157.23 503.37 157.23C513.02 157.23 519.49 164.45 519.49 173.29C519.49 173.97 519.4 174.78 519.27 175.34H490.95C491.39 181.94 496.58 187.29 503.71 187.29V187.3ZM491.11 171.8H515.08C514.39 165.54 509.66 160.91 503.38 160.91C497.1 160.91 492.02 165.77 491.12 171.8H491.11Z" fill="white"></path><path d="M542.78 157.24C548.29 157.24 552.77 159.95 555.48 164.06V144.79H559.71V190.23H555.48V184.19C552.77 188.27 548.29 190.98 542.78 190.98C533.41 190.98 526.97 183.35 526.97 174.11C526.97 164.87 533.41 157.24 542.78 157.24ZM543.41 187.18C550.57 187.18 555.49 181.2 555.49 174.11C555.49 167.02 550.67 161.04 543.41 161.04C536.15 161.04 531.27 167.02 531.27 174.11C531.27 181.2 536.25 187.18 543.41 187.18Z" fill="white"></path><path d="M588.361 190.98C582.821 190.98 578.341 188.27 575.661 184.19V190.23H571.431V144.79H575.661V164.06C578.341 159.95 582.821 157.24 588.361 157.24C597.731 157.24 604.171 164.9 604.171 174.11C604.171 183.32 597.731 190.98 588.361 190.98ZM587.741 161.03C580.491 161.03 575.661 167.01 575.661 174.1C575.661 181.19 580.581 187.17 587.741 187.17C594.901 187.17 599.881 181.19 599.881 174.1C599.881 167.01 594.961 161.03 587.741 161.03Z" fill="white"></path><path d="M629.191 187.3C633.731 187.3 637.371 185.37 640.391 181.98L642.851 184.28C639.521 188.48 635.291 190.97 629.281 190.97C619.041 190.97 612.101 183.38 612.101 174.1C612.101 164.82 619.201 157.23 628.851 157.23C638.501 157.23 644.971 164.45 644.971 173.29C644.971 173.97 644.881 174.78 644.751 175.34H616.421C616.861 181.94 622.051 187.29 629.181 187.29L629.191 187.3ZM616.581 171.8H640.551C639.861 165.54 635.131 160.91 628.851 160.91C622.571 160.91 617.491 165.77 616.591 171.8H616.581Z" fill="white"></path><path d="M658.64 190.23H654.41V144.79H658.64V163.53C660.88 159.86 665.05 157.24 670.03 157.24C677.38 157.24 682.73 162.5 682.73 170.13V190.24H678.5V170.38C678.5 164.93 674.8 161.04 669.19 161.04C663.58 161.04 658.64 165.77 658.64 171.62V190.23Z" fill="white"></path><path d="M708.95 187.3C713.49 187.3 717.13 185.37 720.15 181.98L722.61 184.28C719.28 188.48 715.05 190.97 709.04 190.97C698.8 190.97 691.86 183.38 691.86 174.1C691.86 164.82 698.96 157.23 708.61 157.23C718.26 157.23 724.73 164.45 724.73 173.29C724.73 173.97 724.64 174.78 724.51 175.34H696.18C696.62 181.94 701.81 187.29 708.94 187.29L708.95 187.3ZM696.34 171.8H720.31C719.62 165.54 714.89 160.91 708.61 160.91C702.33 160.91 697.25 165.77 696.35 171.8H696.34Z" fill="white"></path><path d="M749.29 187.3C753.83 187.3 757.47 185.37 760.49 181.98L762.95 184.28C759.62 188.48 755.39 190.97 749.38 190.97C739.14 190.97 732.2 183.38 732.2 174.1C732.2 164.82 739.3 157.23 748.95 157.23C758.6 157.23 765.07 164.45 765.07 173.29C765.07 173.97 764.98 174.78 764.85 175.34H736.52C736.96 181.94 742.15 187.29 749.28 187.29L749.29 187.3ZM736.69 171.8H760.66C759.97 165.54 755.24 160.91 748.96 160.91C742.68 160.91 737.6 165.77 736.7 171.8H736.69Z" fill="white"></path><path d="M792.25 161.44C791.35 161.16 790.35 161.03 789.29 161.03C783.69 161.03 778.74 165.76 778.74 171.61V190.22H774.51V157.97H778.74V163.51C780.98 159.84 785.15 157.22 790.13 157.22C791 157.22 791.84 157.28 792.65 157.44L792.25 161.42V161.44Z" fill="white"></path><path d="M216.96 0H0V216.96H216.96V0Z" fill="#D1C1B2"></path><path d="M64.3199 71.4801C63.6599 70.8101 63.0899 70.1701 62.5999 69.6201C54.3199 80.9201 50.1299 94.0001 50.1299 108.48C50.1299 126.9 56.7499 142.86 69.7999 155.91C82.8599 168.96 98.8099 175.58 117.23 175.58C135.65 175.58 150.49 169.25 163.54 156.76L156.61 149.84C145.51 160.56 132.26 166 117.23 166C102.2 166 88.1899 160.32 77.2699 149.12C66.3399 137.92 60.7999 124.25 60.7999 108.48C60.7999 96.7701 63.9499 86.1101 70.1499 76.7801L69.8999 76.5701C68.0399 75.0201 66.1599 73.3001 64.3199 71.4801Z" fill="#101C34"></path><path d="M82.8301 53.7496C84.0401 54.9896 85.3701 56.2097 87.0201 57.5897L88.5401 58.8496C97.0501 53.6196 106.7 50.9696 117.24 50.9696C126.9 50.9696 135.77 53.1497 143.76 57.4297C146.53 55.6197 149.18 53.5796 151.67 51.2596L151.93 51.0197C141.67 44.6397 130.06 41.3896 117.23 41.3896C104.4 41.3896 91.7501 44.9097 81.1201 51.8697C81.6601 52.5097 82.2101 53.1496 82.8101 53.7596L82.8301 53.7496Z" fill="#101C34"></path><path d="M160.21 57.0799C160.07 57.2099 159.92 57.3699 159.79 57.4999L159.66 57.6199C159.43 57.8399 159.21 58.0499 158.98 58.2799C156.1 61.0999 153.04 63.5999 149.83 65.7999C145.97 68.5599 141.86 70.7699 137.52 72.4199C137.47 72.4399 137.42 72.4599 137.37 72.4799C131.17 74.7999 124.53 76.0299 117.45 76.0499H117.27C103.88 76.0499 92.0303 71.8499 82.0603 63.5599C80.2703 62.0699 78.7103 60.6399 77.2803 59.1799C76.5903 58.4699 75.9503 57.7299 75.3303 57.0199L74.8003 56.4099C70.7903 51.8099 67.6103 46.7499 65.3203 41.3799H54.0703C56.9603 49.4399 61.4903 56.8699 67.5303 63.4699C67.7403 63.6999 67.9503 63.9399 68.1603 64.1699L68.2803 64.2999C68.7403 64.8199 69.2603 65.4099 69.8203 65.9699C71.4503 67.5999 73.1603 69.1599 74.9003 70.6099C84.4203 78.5199 95.4503 83.3499 107.7 84.9699L108.29 85.0499V146.35H119.54V85.5799L120.19 85.5499C138.43 84.8399 154.12 77.4399 166.83 63.5399L166.85 63.4999L166.83 63.4699C164.71 61.1499 162.5 59.0299 160.21 57.0799Z" fill="#101C34"></path></svg>