<svg xmlns="http://www.w3.org/2000/svg" xmlns:xlink="http://www.w3.org/1999/xlink" id="Laag_1" x="0px" y="0px" viewBox="0 0 300 85" style="enable-background:new 0 0 300 85;" xml:space="preserve"><style type="text/css">	.st0{fill:#F88D2A;}	.st1{fill:none;}	.st2{fill:#1A1A1A;}	.st3{fill:#3C3C3B;stroke:#3C3C3B;stroke-width:0.75;stroke-miterlimit:10;}	.st4{fill:#3C3C3B;}</style><g>	<path class="st0" d="M37.4,53.4c-2.1,1.1-6.4,2.1-11.9,2.1c-12.7,0-22.3-8-22.3-22.8C3.2,18.6,12.8,9,26.8,9c5.6,0,9.2,1.2,10.7,2  l-1.4,4.8c-2.2-1.1-5.4-1.9-9.1-1.9c-10.6,0-17.6,6.8-17.6,18.6c0,11,6.4,18.1,17.3,18.1c3.5,0,7.2-0.7,9.5-1.9L37.4,53.4z"></path>	<path class="st0" d="M88.5,31.8c0,15.5-9.4,23.8-21,23.8c-11.9,0-20.3-9.2-20.3-22.9c0-14.3,8.9-23.7,21-23.7  C80.6,9,88.5,18.4,88.5,31.8z M53.5,32.6c0,9.6,5.2,18.3,14.4,18.3c9.2,0,14.5-8.5,14.5-18.7c0-9-4.7-18.3-14.4-18.3  C58.4,13.8,53.5,22.7,53.5,32.6z"></path>	<g>		<path class="st1" d="M131.5,12.3c0.4,7.6,0.6,14.8,0.6,24.7v2.4c2.7,4.6,4.9,8.9,6.9,13.1l0.2-0.1c-0.7-8-0.9-15.3-0.9-24.6v-3.3   c-2.4-4.1-4.7-8.3-6.5-12.3L131.5,12.3z"></path>		<path class="st0" d="M143,36.1c-1.6-2.6-3.1-5.1-4.7-7.7v3.3c0,9.3,0.2,12.7,0.9,20.7l-0.2,0.1c-2-4.2-4.2-8.5-6.9-13.1   c-1.2-2.1-2.5-4.2-3.9-6.4l-3.4-5.4L109.1,2.7h-8.4v59.9h7.3V37c0-10-0.2-17.2-0.6-24.7l0.3-0.1c3,6.5,7,13.3,11.2,20l6.1,9.7   l7.3,11.6l5.7,9h7.8V40.4L143,36.1z"></path>		<path class="st2" d="M162.6,2.7v25.1c0,9.3,0.2,16.6,0.9,24.6l-0.2,0.1C160.4,46.3,157,40,152.5,33l-6.9-10.8l-7.3-11.5l-5-8h-8.4   v20.9l3.4,5.4c1.4,2.2,2.6,4.3,3.9,6.4V33c0-10-0.2-13.2-0.6-20.8l0.3-0.1c1.9,4,4.1,8.1,6.5,12.3c1.5,2.6,3.1,5.1,4.7,7.7   l2.6,4.2L162,62.6h7.8V2.7H162.6z"></path>	</g>	<path class="st0" d="M204.9,33.7h-17.5V50h19.5v4.9h-25.4V9.7h24.4v4.9h-18.5v14.3h17.5V33.7z"></path>	<path class="st0" d="M252.7,53.4c-2.1,1.1-6.4,2.1-11.9,2.1c-12.7,0-22.3-8-22.3-22.8c0-14.1,9.6-23.7,23.6-23.7  c5.6,0,9.2,1.2,10.7,2l-1.4,4.8c-2.2-1.1-5.4-1.9-9.1-1.9c-10.6,0-17.6,6.8-17.6,18.6c0,11,6.4,18.1,17.3,18.1  c3.5,0,7.2-0.7,9.5-1.9L252.7,53.4z"></path>	<path class="st0" d="M277.1,14.7h-13.7v-5h33.4v5H283v40.2h-5.9V14.7z"></path></g><line class="st3" x1="4.6" y1="62" x2="88.9" y2="62"></line><line class="st3" x1="181.5" y1="62" x2="296.7" y2="62.2"></line><g>	<g>		<path class="st4" d="M4.5,70.7h5.6l2.2,7l2.2-7h5.6v11.5h-3.5v-8.7l-2.7,8.7h-3.2L8,73.4v8.7H4.5V70.7z"></path>		<path class="st4" d="M45.1,80.2h-4.9l-0.7,1.9h-4.4l5.2-11.5h4.7l5.2,11.5h-4.5L45.1,80.2z M44.2,77.8l-1.5-4.1l-1.5,4.1H44.2z"></path>		<path class="st4" d="M65.5,70.7h4.3V75l4.5-4.3h5.7L74.9,75l5.3,7.1h-5.3L72,77.4l-2.2,1.9v2.8h-4.3V70.7z"></path>		<path class="st4" d="M95.3,70.7h11.5v2.4h-7.2v1.8h6.7v2.3h-6.7v2.3h7.4v2.6H95.3V70.7z"></path>		<path class="st4" d="M123.1,70.7h4.3v8.6h6.7v2.8h-11V70.7z"></path>		<path class="st4" d="M158.3,80.2h-4.9l-0.7,1.9h-4.4l5.2-11.5h4.7l5.2,11.5H159L158.3,80.2z M157.4,77.8l-1.5-4.1l-1.5,4.1H157.4z   "></path>		<path class="st4" d="M187.2,80.2h-4.9l-0.7,1.9h-4.4l5.2-11.5h4.7l5.2,11.5h-4.5L187.2,80.2z M186.3,77.8l-1.5-4.1l-1.5,4.1H186.3   z"></path>		<path class="st4" d="M207.6,82.1V70.7h7.1c1.3,0,2.3,0.1,3,0.3s1.3,0.5,1.7,1c0.4,0.5,0.6,1.1,0.6,1.9c0,0.6-0.2,1.2-0.5,1.6   s-0.8,0.8-1.4,1.1c-0.4,0.2-0.9,0.3-1.5,0.5c0.5,0.1,0.9,0.3,1.1,0.4c0.2,0.1,0.4,0.3,0.7,0.6c0.3,0.3,0.5,0.5,0.6,0.7l2.1,3.3   h-4.8l-2.3-3.5c-0.3-0.5-0.5-0.7-0.8-0.9c-0.3-0.2-0.7-0.3-1-0.3h-0.4v4.6H207.6z M211.9,75.3h1.8c0.2,0,0.6-0.1,1.1-0.2   c0.3,0,0.5-0.2,0.7-0.4s0.3-0.4,0.3-0.7c0-0.4-0.1-0.7-0.4-0.9c-0.3-0.2-0.8-0.3-1.6-0.3h-1.9V75.3z"></path>		<path class="st4" d="M236.4,70.7h6.4c1.3,0,2.3,0.1,3,0.4c0.8,0.3,1.4,0.7,1.9,1.2s0.9,1.1,1.1,1.8c0.2,0.7,0.3,1.4,0.3,2.2   c0,1.2-0.2,2.2-0.5,2.8s-0.8,1.2-1.4,1.7c-0.6,0.5-1.2,0.8-1.9,0.9c-0.9,0.2-1.8,0.3-2.6,0.3h-6.4V70.7z M240.7,73.3v6.3h1   c0.9,0,1.5-0.1,1.9-0.2s0.7-0.5,0.9-0.9c0.2-0.4,0.3-1.1,0.3-2c0-1.2-0.2-2-0.7-2.5s-1.3-0.7-2.4-0.7H240.7z"></path>		<path class="st4" d="M265.4,70.7h4.3v11.5h-4.3V70.7z"></path>		<path class="st4" d="M292.3,70.7h4.3v6.2c0,1.3-0.1,2.3-0.4,3s-0.8,1.3-1.7,1.7c-0.8,0.5-1.9,0.7-3.3,0.7c-1.4,0-2.5-0.2-3.2-0.5   c-0.8-0.3-1.4-0.8-1.8-1.4s-0.7-1.3-0.7-2.2l4.1-0.5c0,0.5,0.1,0.9,0.2,1.1c0.1,0.2,0.3,0.4,0.5,0.6c0.2,0.1,0.4,0.1,0.7,0.1   c0.5,0,0.8-0.1,1.1-0.4c0.2-0.3,0.3-0.8,0.3-1.5V70.7z"></path>	</g></g></svg>