<?xml version="1.0" encoding="UTF-8"?>
<svg width="26px" height="32px" viewBox="0 0 26 32" version="1.1" xmlns="http://www.w3.org/2000/svg" xmlns:xlink="http://www.w3.org/1999/xlink">
    <!-- Generator: Sketch 52.2 (67145) - http://www.bohemiancoding.com/sketch -->
    <title>noun_leaves_1240618</title>
    <desc>Created with Sketch.</desc>
    <g id="Page-1" stroke="none" stroke-width="1" fill="none" fill-rule="evenodd">
        <g id="Buitenstate---Home" transform="translate(-1234.000000, -357.000000)" fill="#FFFFFF" fill-rule="nonzero">
            <g id="Group-18" transform="translate(1218.000000, 340.000000)">
                <g id="noun_leaves_1240618" transform="translate(16.000000, 17.000000)">
                    <path d="M0,29.9378345 L1.18319653,31.5760576 C4.15684255,29.5685251 6.81704869,27.1599551 9.08267193,24.4238152 C9.10336924,24.4471233 9.11716745,24.4704313 9.14131432,24.4904096 C12.4639475,27.6879411 17.8403718,27.6879411 21.163005,24.4904096 C21.5665384,24.1004093 21.5665384,23.468608 21.163005,23.0786076 C18.5284943,20.5424328 14.493329,19.9505667 11.1972477,21.6168597 C12.1520157,20.2154707 13.0060602,18.7525082 13.7533661,17.2382756 C13.7804931,17.2664952 13.8092874,17.2931774 13.8396049,17.3181889 C17.5311544,20.1162775 22.8727227,19.5010122 25.7785064,15.9430139 C26.1314809,15.5098238 26.0543002,14.8825369 25.6060288,14.541201 C22.4357894,12.1404596 17.9563961,12.212708 14.8710211,14.7143465 C15.257371,13.7487272 15.6023263,12.7664593 15.9058869,11.7675428 C19.9039092,9.79031593 21.6128777,5.14807266 19.8038813,1.17902752 C19.6936225,0.932516961 19.4851947,0.739231457 19.225602,0.642760104 C18.9660093,0.546288751 18.6771117,0.554755288 18.4240603,0.666250372 C14.2610025,2.43777833 12.2813338,7.05945309 13.9327428,11.1515442 C13.7993601,11.5955071 13.6567786,12.03947 13.5049983,12.4834329 C13.211301,9.05221589 10.7328632,6.16146967 7.29580369,5.24128808 C6.74525282,5.09443168 6.17554351,5.40590325 6.02291879,5.93719993 C4.7701009,10.3062397 7.42085334,14.8289914 11.9458006,16.0429055 L12.0354889,16.0595541 C11.2629385,17.6779647 10.3622344,19.2364558 9.34138837,20.7211646 C9.59830773,17.0927257 7.35282911,13.7331394 3.82210425,12.4634546 C3.28676293,12.2704108 2.69065135,12.5327711 2.49057696,13.0494856 C0.897131212,17.1860864 2.98536541,21.7975914 7.21301443,23.4781742 C5.12718489,25.9407115 2.70006003,28.1143384 4.90210905e-15,29.9378345 Z M18.8276579,23.7845086 C16.6170161,25.2640017 13.6873032,25.2640017 11.4766614,23.7845086 C13.6873032,22.3050155 16.6170161,22.3050155 18.8276579,23.7845086 Z M23.3879664,15.51015 C21.3727605,17.2403017 18.4541511,17.5751791 16.074915,16.3492399 C18.0914157,14.621869 21.0081471,14.2872071 23.3879664,15.51015 Z M11.4352668,13.7320786 C9.00938459,12.6047077 7.56603556,10.1396957 7.81668613,7.55211499 C10.2425683,8.67948593 11.6859174,11.1444979 11.4352668,13.7320786 Z M4.61205179,18.4835916 C4.0637328,17.3304296 3.89748773,16.042018 4.13601354,14.7942598 C6.44607113,16.12291 7.6577704,18.6971078 7.17506935,21.2505904 C6.0464691,20.6043859 5.15153643,19.6382288 4.61205179,18.4835916 Z M15.8644923,5.92388105 C16.340037,4.73889742 17.1834278,3.72477012 18.2791791,3.02036366 C18.9082877,5.5466212 17.8434065,8.18407363 15.6092254,9.6331911 C15.2967727,8.40086427 15.3859178,7.10548743 15.8644923,5.92388105 Z" id="Shape"></path>
                </g>
            </g>
        </g>
    </g>
</svg>