<?xml version="1.0" encoding="UTF-8"?>
<svg width="35px" height="50px" xmlns="http://www.w3.org/2000/svg" xmlns:xlink="http://www.w3.org/1999/xlink" version="1.1" id="Layer_1" x="0px" y="0px" viewBox="0 0 300.4 431.4" style="enable-background:new 0 0 300.4 431.4;" xml:space="preserve">
<style type="text/css">
	.st0{fill:#FFFFFF;}
</style>
<path class="st0" d="M83.6,331.5v100h-6.7l-56.8-60.7v58.9H0v-100h6.5l57,60.4v-58.6H83.6 M191,331.5l-43.7,100h-6.7l-43.9-100h22.8  L144,391l24.4-59.5H191 M300.4,329.7v100h-20.1v-52.4l-24.7,31h-6.5l-24.7-31v52.4h-20.1v-100h6.5l41.5,53.1l41.5-53.1H300.4   M278.2,0c12.1,0,21.9,9.7,21.9,21.6v266.8c-0.1,6.7-5.5,12-12.2,12h-66.8c-6.7,0-12.2-5.4-12.2-12v-91.6c0-13.6,11.2-24.6,25-24.6  h2.5c22.6,0,41-18,41-40.3s-18.3-40.3-41-40.3s-41,18-41,40.3l0.1,156.6c-0.1,6.7-5.5,12-12.2,12h-66.7c-6.7,0-12.2-5.4-12.2-12  l0.1-156.6c0-22.3-18.3-40.3-41-40.3c-22.6,0-41,18-41,40.3s18.3,40.3,41,40.3h2.5c13.8,0,25,11,25,24.6v91.6c0,6.6-5.4,12-12.2,12  H12.4c-6.7,0-12.1-5.3-12.2-12V21.6C0.2,9.7,10,0,22.1,0l90.2,0.1c17.6,0,32,14.1,32,31.4l-1.6,0.5c-18.6,3.5-32.7,19.7-32.7,39  c0,21.9,18.1,39.7,40.4,39.7h-0.1c22.3,0,40.4-17.8,40.4-39.7c0-19.4-14.1-35.5-32.7-39l-1.6-0.5c0-17.4,14.3-31.4,32-31.4L278.2,0"></path>
</svg>
