<?xml version="1.0" encoding="utf-8"?>
<svg viewBox="3.536 76.932 491.8287 178.7765" xmlns="http://www.w3.org/2000/svg">
  <g transform="matrix(0.7899889349937439, 0, 0, 0.7828089594841003, -92.39138793945312, -65.30438995361328)" style="">
    <g id="GR9NkL_1_">
      <g>
        <path class="st0" d="M325,181.8c34.3-0.2,68.6-0.1,102.9,0.3c0,0,27.6,39.6,40.4,56.6c0,0,6.6,0,15.6,0c0-2.9,0-5.8,0-9.2     c6.1,0,12,0,18.5,0c0,3.3-0.1,6.2,0,9.2c13.2,0,41.2,0,54.4,0c0,0,55.4,80,59.8,86.6c1.4,2.2,5.6,7.6,7,9.9     c-9.5,2.5-20-2.5-27.1-13.3c-12.6-19.2-24.9-38.5-37.3-57.8c-1.7-2.6-3.4-5.2-5.7-8.8c-1.8,2.4-3.2,4.2-4.4,6.1     c-12.7,19.7-25.4,39.4-37.9,59.1c-6.9,10.9-16.6,16.2-29.6,16.1c-28.7-0.2-57.5-0.1-86.2-0.1c-2.1,0-4.3,0-8.1,0     c12.6-19.8,24.3-38,37-57.8c-8.5,0-15.6-0.3-22.6,0.1c-14.3,0.7-24.3-5.5-31.8-17.4c-12.1-19.5-24.7-38.7-37.1-57.9     c-1.1-1.8-2.4-3.4-4.3-6.1c-2.6,4-4.8,7.4-7,10.7c-12,18.7-24,37.4-36,56.1c-6.2,9.6-15.1,14.3-28.3,14.7" style="fill: rgb(23, 51, 94);"/>
        <path class="st0" d="M398.7,295.6c-5.2,13-11.7,17.7-24.6,17.7c-41.5,0-83,0-124.5,0c-2.1,0-4.1-0.3-6.3-0.4     c3.2-11.6,10.4-18,22.6-18.1c43.7-0.3,87.4-0.1,131,0C397.3,294.8,397.7,295.2,398.7,295.6z" style="fill: rgb(23, 51, 94);"/>
        <path class="st0" d="M387.3,319.5c-4.4,11.3-11.7,17.6-23.5,17.7c-43.2,0-86.4,0-129.6-0.1c-0.9,0-1.8-0.3-2.7-0.5     c3.4-11.1,11-17.6,21.3-17.7c44.2-0.1,88.3,0,132.5,0C385.7,318.9,386.1,319.2,387.3,319.5z" style="fill: rgb(23, 51, 94);"/>
        <path class="st0" d="M556.8,294.9c4.1,0,7.7,0,11.8,0c0,3.9,0,7.6,0,12c-3.6,0-7.5,0-11.8,0C556.8,303.2,556.8,299.5,556.8,294.9     z" style="fill: rgb(23, 51, 94);"/>
        <path class="st0" d="M313.4,255.3c4.2,0,7.8,0,11.9,0c0,4,0,7.7,0,11.9c-3.9,0-7.6,0-11.9,0C313.4,263.3,313.4,259.6,313.4,255.3     z" style="fill: rgb(23, 51, 94);"/>
        <path class="st0" d="M325.1,249.3c-4,0-7.6,0-11.7,0c0-3.8,0-7.5,0-11.8c3.7,0,7.4,0,11.7,0C325.1,241.1,325.1,244.8,325.1,249.3     z" style="fill: rgb(23, 51, 94);"/>
        <path class="st0" d="M538.8,295c4,0,7.5,0,11.5,0c0,4,0,7.7,0,12c-3.6,0-7.3,0-11.5,0C538.8,303.2,538.8,299.3,538.8,295z" style="fill: rgb(23, 51, 94);"/>
        <path class="st0" d="M331.6,255.3c4.1,0,7.6,0,11.6,0c0,4,0,7.6,0,11.8c-4,0-7.6,0-11.6,0C331.6,263.2,331.6,259.7,331.6,255.3z" style="fill: rgb(23, 51, 94);"/>
        <path class="st0" d="M550.5,313.5c0,3.9,0,7.4,0,11.4c-4,0-7.6,0-11.7,0c0-3.8,0-7.3,0-11.4C542.4,313.5,546,313.5,550.5,313.5z" style="fill: rgb(23, 51, 94);"/>
        <path class="st0" d="M568.6,313.5c0,3.9,0,7.4,0,11.4c-4,0-7.6,0-11.7,0c0-3.8,0-7.3,0-11.4C560.5,313.5,564.1,313.5,568.6,313.5z" style="fill: rgb(23, 51, 94);"/>
      </g>
    </g>
    <path class="st0" d="M343.5,249.3c-4,0-7.6,0-11.7,0c0-3.8,0-7.5,0-11.8c3.7,0,7.4,0,11.7,0C343.5,241.1,343.5,244.8,343.5,249.3z" style="fill: rgb(23, 51, 94);"/>
  </g>
  <text style="fill: rgb(51, 51, 51); font-family: Arial, sans-serif; font-size: 40px; font-weight: 700; white-space: pre;" x="-10.277" y="-16.295"><tspan x="3.536" y="247.708" style="fill: rgb(23, 51, 94); font-size: 40px; word-spacing: 0px;">Ik zoek de beste</tspan><tspan style="font-size: 40px; word-spacing: 0px;"> </tspan><tspan style="fill: rgb(231, 87, 45); font-size: 40px; word-spacing: 0px;">makelaar</tspan></text>
</svg>