<?xml version="1.0" encoding="utf-8"?>
<!-- Generator: Adobe Illustrator 27.1.0, SVG Export Plug-In . SVG Version: 6.00 Build 0)  -->
<svg version="1.1" id="Layer_1" xmlns="http://www.w3.org/2000/svg" xmlns:xlink="http://www.w3.org/1999/xlink" x="0px" y="0px"
	 viewBox="0 0 88.4 102.9" style="enable-background:new 0 0 88.4 102.9;" xml:space="preserve">
<style type="text/css">
	.st0{fill:#F28D1D;stroke:#F28D1D;stroke-width:0.3;}
	.st1{fill-rule:evenodd;clip-rule:evenodd;fill:#F28D1D;stroke:#F28D1D;stroke-width:0.3;}
</style>
<g id="Group_27" transform="translate(-246.544 -82.85)">
	<path id="Path_21" class="st0" d="M294.4,145.5H287v14.7h7.4V145.5z"/>
	<path id="Path_22" class="st1" d="M334.9,123.4h-14.7v-11.1c0-16.3-13.2-29.5-29.5-29.5c-16.3,0-29.5,13.2-29.5,29.5l0,0v11.1
		h-14.7v47.9c0,8.1,6.6,14.7,14.7,14.7l0,0h59c8.1,0,14.7-6.6,14.7-14.7l0,0L334.9,123.4z M268.6,112.3v11.1h44.2v-11.1
		c0-12.2-9.9-22.1-22.1-22.1S268.6,100.1,268.6,112.3L268.6,112.3z M327.6,171.3v-40.5h-73.7v40.5c0,4.1,3.3,7.4,7.4,7.4h59
		C324.2,178.7,327.5,175.4,327.6,171.3C327.6,171.3,327.6,171.3,327.6,171.3z"/>
</g>
</svg>
