<svg xmlns="http://www.w3.org/2000/svg" width="223" height="32" viewBox="0 0 223 32" fill="none"><path d="M11.92 31.02C8.52 31.02 6.32 29.1 5.4 27.26L5.24 30.5H2.98023e-08V0.9H5.64V12.62C6.88 10.78 9.04 9.34 12.08 9.34C17.56 9.34 20.88 13.82 20.88 19.9V20.42C20.88 26.58 17.44 31.02 11.92 31.02ZM10.32 26.7C13.52 26.7 15.2 24.46 15.2 20.42V19.9C15.2 15.86 13.52 13.62 10.32 13.62C7.16 13.62 5.44 15.86 5.44 19.9V20.42C5.44 24.46 7.16 26.7 10.32 26.7ZM29.5016 31.02C24.6216 31.02 22.3416 27.94 22.3416 23.06V9.86H27.9816V21.98C27.9816 24.9 29.0616 26.46 31.5416 26.46C34.1016 26.46 35.7016 24.58 35.7016 21.14V9.86H41.3416V30.5H35.9016L35.7816 27.5C34.6216 29.34 32.5016 31.02 29.5016 31.02ZM49.4731 0.9V7.14H43.6331V0.9H49.4731ZM43.7531 9.86H49.3531V30.5H43.7531V9.86ZM61.3625 31.02C56.4025 31.02 54.0425 28.78 54.0425 24.54V13.94H50.2025V9.86H54.0425V3.3H59.6425V9.86H65.0025V13.94H59.6425V24.06C59.6425 25.86 60.4425 26.62 62.6025 26.62C63.6025 26.62 64.5225 26.38 65.0825 26.22V30.5C64.1225 30.82 62.5625 31.02 61.3625 31.02ZM76.0591 31.02C69.4191 31.02 65.4191 26.78 65.4191 20.42V19.9C65.4191 13.62 69.5391 9.34 76.0591 9.34C83.0991 9.34 86.5791 14.3 86.2191 21.5H71.1391C71.4191 25.02 73.0591 26.74 76.0591 26.74C78.5791 26.74 80.0191 25.54 80.5391 23.94H86.0991C85.0991 28.3 81.4591 31.02 76.0591 31.02ZM71.2191 17.82H80.4991C80.2591 15.22 78.8191 13.62 76.0191 13.62C73.2591 13.62 71.6991 14.98 71.2191 17.82ZM93.5375 30.5H87.9375V9.86H93.3375L93.4975 13.06C94.5375 11.14 96.5775 9.34 100.018 9.34C105.138 9.34 107.178 12.58 107.178 17.22V30.5H101.618V18.62C101.618 15.62 100.578 13.86 97.8975 13.86C95.2975 13.86 93.5375 15.78 93.5375 19.06V30.5Z" fill="white"></path><path d="M118.65 30.5H112.77L106.69 9.86H112.33L116.05 24.58L119.77 9.86H125.33L129.05 24.66L132.89 9.86H138.41L132.25 30.5H126.37L122.49 16.06L118.65 30.5ZM147.821 31.02C141.421 31.02 137.221 26.7 137.221 20.42V19.9C137.221 13.66 141.421 9.34 147.821 9.34C154.221 9.34 158.421 13.66 158.421 19.94V20.42C158.421 26.7 154.221 31.02 147.821 31.02ZM147.821 26.66C151.101 26.66 152.741 24.46 152.741 20.42V19.94C152.741 15.9 151.101 13.7 147.821 13.7C144.541 13.7 142.901 15.9 142.901 19.9V20.42C142.901 24.46 144.541 26.66 147.821 26.66ZM165.691 30.5H160.091V9.86H165.491L165.651 13.06C166.691 11.14 168.731 9.34 172.171 9.34C177.291 9.34 179.331 12.58 179.331 17.22V30.5H173.771V18.62C173.771 15.62 172.731 13.86 170.051 13.86C167.451 13.86 165.691 15.78 165.691 19.06V30.5ZM191.497 31.02C184.857 31.02 180.857 26.78 180.857 20.42V19.9C180.857 13.62 184.977 9.34 191.497 9.34C198.537 9.34 202.017 14.3 201.657 21.5H186.577C186.857 25.02 188.497 26.74 191.497 26.74C194.017 26.74 195.457 25.54 195.977 23.94H201.537C200.537 28.3 196.897 31.02 191.497 31.02ZM186.657 17.82H195.937C195.697 15.22 194.257 13.62 191.457 13.62C188.697 13.62 187.137 14.98 186.657 17.82ZM208.975 30.5H203.375V9.86H208.775L208.935 13.06C209.975 11.14 212.015 9.34 215.455 9.34C220.575 9.34 222.615 12.58 222.615 17.22V30.5H217.055V18.62C217.055 15.62 216.015 13.86 213.335 13.86C210.735 13.86 208.975 15.78 208.975 19.06V30.5Z" fill="#FB971C"></path></svg>