<?xml version="1.0" encoding="UTF-8"?>
<svg width="60px" height="60px" viewBox="0 0 60 60" version="1.1" xmlns="http://www.w3.org/2000/svg" xmlns:xlink="http://www.w3.org/1999/xlink">
    <title>tel-green</title>
    <g id="tel-green" stroke="none" stroke-width="1" fill="none" fill-rule="evenodd">
        <path d="M43.7204231,47.749427 C44.4986934,47.749427 45.1509905,47.2054319 45.3190216,46.4779911 L46.9596779,39.3687382 C46.9860475,39.2512475 47,39.1290172 47,39.0035825 C47,38.3220699 46.5898359,37.7377542 46.001894,37.4820117 L38.345498,34.2008181 C38.1482935,34.1167722 37.9312617,34.0702432 37.7034817,34.0702432 C37.1909769,34.0702432 36.732413,34.3038894 36.431399,34.6725164 L33.040736,38.8149967 C27.7148784,36.3040344 23.438998,32.0282422 20.927878,26.7026443 L25.0705752,23.3120375 C25.439616,23.0119022 25.6756072,22.5542227 25.6756072,22.04187 C25.6756072,21.8135643 25.6268735,21.595539 25.5422238,21.3980078 L22.2609112,13.7418893 C22.0062276,13.157974 21.4236264,12.749427 20.7462949,12.749427 C20.6201214,12.749427 20.4990883,12.7649144 20.3809925,12.7917503 L13.2714819,14.4323471 C12.5440148,14.6003054 12.0009346,15.2527123 12.0009346,16.0309544 L12,16.0312214 C12,33.5651001 26.2122118,47.749427 43.719355,47.749427 L43.7204231,47.749427 Z" id="" fill="#70B556" fill-rule="nonzero"></path>
    </g>
</svg>