<?xml version="1.0" encoding="UTF-8"?>
<svg xmlns="http://www.w3.org/2000/svg" viewBox="0 0 371.67 114.63">
  <defs>
    <style>.cls-1{fill:#ffce00;fill-rule:evenodd;}.cls-2{fill:#fff;}</style>
  </defs>
  <g id="Layer_2" data-name="Layer 2">
    <g id="Layer_1-2" data-name="Layer 1">
      <path class="cls-1" d="M85.62,86.51H72.52V51.31q0-5.7.49-12.59h-.32a61.37,61.37,0,0,1-1.85,7.8l-13.77,40H46.23l-14-39.59a77.56,77.56,0,0,1-1.85-8.2H30c.34,5.8.53,10.88.53,15.26V86.51H18.57V27.69H38L50,62.55A48.84,48.84,0,0,1,52.09,71h.26a79.65,79.65,0,0,1,2.33-8.5l12-34.78H85.62V86.51ZM0,0H371.67V114.53H114l3.66-7.38H364.3V7.38H7.38v99.77h92c.16-.33,7-14.2,9.82-20.72L92.09,44.5h14.36l7.83,25.56a30.86,30.86,0,0,1,1,4.83l.72-1.46c.24-1,.54-2.11.91-3.29l7.91-25.64h12.85c-11.6,30.82-14.42,38.09-29.12,70.13L0,114.53V0Z"></path>
      <path class="cls-2" d="M171,88.21q-12.53,0-20-8.25t-7.53-21.45q0-14.19,7.67-22.64T172,27.41q12.18,0,19.62,8.21t7.45,21.46q0,14.39-7.63,22.77T171,88.21Zm.49-54.55a19,19,0,0,0-15,6.68Q150.67,47,150.67,57.9c0,7.25,1.88,13.07,5.65,17.5A18.39,18.39,0,0,0,171,82q9.67,0,15.26-6.31T191.85,58q0-11.66-5.4-18t-14.94-6.36Zm59-2.72a9.07,9.07,0,0,0-4.48-1.1c-4.69,0-7.05,3-7.05,8.9v6.48h9.85V51H219V87.23h-6.69V51H205.1V45.22h7.18v-6.8c0-4.41,1.27-7.88,3.81-10.45a12.9,12.9,0,0,1,9.52-3.83,13.27,13.27,0,0,1,4.89.74v6.06Zm26.29,0a9,9,0,0,0-4.48-1.1q-7,0-7,8.9v6.48h9.84V51h-9.84V87.23h-6.69V51h-7.19V45.22h7.19v-6.8c0-4.41,1.27-7.88,3.8-10.45a12.91,12.91,0,0,1,9.53-3.83,13.21,13.21,0,0,1,4.88.74v6.06Zm9,3.61a4.22,4.22,0,0,1-3.07-1.23,4.11,4.11,0,0,1-1.27-3.11,4.32,4.32,0,0,1,4.34-4.39,4.37,4.37,0,0,1,3.15,1.26,4.37,4.37,0,0,1,0,6.2,4.34,4.34,0,0,1-3.15,1.27Zm3.29,52.68h-6.74v-42h6.74v42ZM311.3,85.3a21.86,21.86,0,0,1-11.48,2.91q-9,0-14.51-5.84c-3.66-3.89-5.51-9-5.51-15.16q0-10.38,5.95-16.68t15.88-6.29a22.06,22.06,0,0,1,9.76,2v6.89a17.14,17.14,0,0,0-10-3.28,13.5,13.5,0,0,0-10.55,4.62q-4.12,4.6-4.13,12.11c0,4.93,1.3,8.81,3.87,11.65A13.39,13.39,0,0,0,301,82.55,16.84,16.84,0,0,0,311.3,78.9v6.4Zm43.93-17.39H325.57c.11,4.67,1.37,8.29,3.78,10.83s5.71,3.81,9.93,3.81a20.66,20.66,0,0,0,13.05-4.67v6.31q-5.55,4-14.65,4-8.91,0-14-5.71T318.6,66.39q0-9.8,5.55-16A17.86,17.86,0,0,1,338,44.24q8.25,0,12.76,5.34t4.51,14.8v3.53Zm-6.89-5.7c0-3.88-1-6.9-2.8-9.08a9.62,9.62,0,0,0-7.71-3.23,10.85,10.85,0,0,0-8.07,3.4,15.44,15.44,0,0,0-4.11,8.91Z"></path>
    </g>
  </g>
</svg>
