<svg xmlns="http://www.w3.org/2000/svg" xmlns:xlink="http://www.w3.org/1999/xlink" id="Layer_1" data-name="Layer 1" viewBox="0 0 105 102.29"><defs><style>      .cls-1 {        fill: #fff;      }      .cls-2 {        clip-path: url(#clippath-2);      }      .cls-3 {        clip-path: url(#clippath-1);      }      .cls-4 {        clip-path: url(#clippath);      }      .cls-5 {        fill: none;      }      .cls-6 {        fill: url(#linear-gradient);      }    </style><clipPath id="clippath"><rect class="cls-5" y="0" width="105" height="102.29"></rect></clipPath><clipPath id="clippath-1"><path class="cls-5" d="m1.09,0v42.64l4.23-9.93,1.67-3.91,1.67,3.91,6.99,16.39.09.22,2.35-2.93v-6.58h5.26l2.84-3.55,1.42-1.77,1.42,1.77,9.55,11.93,5.16-6.45,1.42-1.77,1.41,1.77,3.32,4.14v-4.21h3.14v-4.69h3.19v-3.19h2.88v-.21c0-2.57,2.11-4.66,4.7-4.66s4.7,2.09,4.7,4.66v.21h2.89v3.25h3.25v4.64h3.09v9.31l.19-.28h5.4v-1.94h6.27v1.94h1.49l1.27-1.27,1.28-1.28,1.28,1.28,1.27,1.27h3.15l.54.74,2.41,3.28V0H1.09Z"></path></clipPath><linearGradient id="linear-gradient" x1="-667.92" y1="1737.59" x2="-666.92" y2="1737.59" gradientTransform="translate(74869.72 -28713.44) rotate(-90) scale(43.06 -43.06)" gradientUnits="userSpaceOnUse"><stop offset="0" stop-color="#009fe3"></stop><stop offset=".15" stop-color="#0397dc"></stop><stop offset=".37" stop-color="#0b81cb"></stop><stop offset=".64" stop-color="#1a5eaf"></stop><stop offset=".96" stop-color="#2e2e88"></stop><stop offset="1" stop-color="#312783"></stop></linearGradient><clipPath id="clippath-2"><rect class="cls-5" y="0" width="105" height="102.29"></rect></clipPath></defs><g class="cls-4"><path d="m63.79,30.73c1.59,0,2.88,1.27,2.88,2.85v2.02h2.89v3.25h3.25v4.64h3.09v13.34l2.96-4.31h6.25v-1.94h2.64v1.94h4.06l1.8-1.8,1.8,1.8h2.99l6.61,8.99h-2.73v40.79H1.09v-52.49H0l6.99-16.39,6.99,16.39h-1.1v5.31h3.58v-3.81l3.44-4.29v-5.4h2.64v2.1l5.07-6.33,10.97,13.7,6.58-8.22,6.55,8.18v-7.56h3.13v-4.69h3.19v-3.19h2.88v-2.01h0c0-1.58,1.29-2.86,2.89-2.86"></path></g><g class="cls-3"><rect class="cls-6" x="1.09" width="101.18" height="54.72"></rect></g><rect class="cls-1" x="7.35" y="84.45" width="88.66" height=".48"></rect><g class="cls-2"><path class="cls-1" d="m7.46,78.31l2.06-2.46c1.43,1.18,2.92,1.92,4.73,1.92,1.43,0,2.28-.56,2.28-1.49v-.05c0-.88-.54-1.33-3.19-2.01-3.19-.82-5.25-1.7-5.25-4.84v-.05c0-2.88,2.31-4.78,5.54-4.78,2.31,0,4.27.72,5.88,2.01l-1.81,2.63c-1.4-.97-2.78-1.56-4.12-1.56s-2.04.61-2.04,1.38v.05c0,1.04.68,1.38,3.42,2.08,3.21.84,5.02,1.99,5.02,4.75v.04c0,3.15-2.4,4.91-5.81,4.91-2.4,0-4.82-.84-6.72-2.54"></path><polygon class="cls-1" points="29.77 68 24.95 68 24.95 64.78 38.07 64.78 38.07 68 33.25 68 33.25 80.62 29.77 80.62 29.77 68"></polygon><polygon class="cls-1" points="44.14 64.78 56.08 64.78 56.08 67.88 47.6 67.88 47.6 71.1 55.07 71.1 55.07 74.2 47.6 74.2 47.6 77.52 56.2 77.52 56.2 80.62 44.14 80.62 44.14 64.78"></polygon><path class="cls-1" d="m61.99,72.75v-.05c0-4.5,3.51-8.19,8.3-8.19,2.85,0,4.57.77,6.22,2.17l-2.19,2.65c-1.22-1.02-2.31-1.61-4.14-1.61-2.53,0-4.55,2.24-4.55,4.93v.04c0,2.9,1.99,5.02,4.8,5.02,1.27,0,2.4-.32,3.28-.95v-2.26h-3.51v-3.01h6.88v6.88c-1.63,1.38-3.87,2.51-6.76,2.51-4.93,0-8.32-3.46-8.32-8.14"></path><polygon class="cls-1" points="83.83 64.78 95.77 64.78 95.77 67.88 87.29 67.88 87.29 71.1 94.75 71.1 94.75 74.2 87.29 74.2 87.29 77.52 95.88 77.52 95.88 80.62 83.83 80.62 83.83 64.78"></polygon><path class="cls-1" d="m7.51,91.02h.79v.9c.35-.53.82-1.01,1.72-1.01s1.42.46,1.71,1.06c.38-.59.95-1.06,1.88-1.06,1.23,0,1.98.82,1.98,2.14v3.3h-.79v-3.11c0-1.03-.52-1.61-1.38-1.61-.8,0-1.46.6-1.46,1.65v3.07h-.79v-3.13c0-1-.52-1.59-1.37-1.59s-1.48.7-1.48,1.68v3.04h-.79v-5.33Z"></path><path class="cls-1" d="m20.09,94.8v-.02c0-1.12.93-1.72,2.28-1.72.68,0,1.16.09,1.64.23v-.19c0-.96-.59-1.45-1.59-1.45-.63,0-1.12.16-1.62.39l-.24-.65c.59-.27,1.17-.44,1.94-.44s1.33.2,1.72.59c.36.36.55.88.55,1.56v3.26h-.76v-.8c-.37.48-.99.92-1.93.92-.99,0-1.99-.57-1.99-1.66m3.93-.41v-.51c-.39-.11-.92-.23-1.57-.23-1,0-1.56.43-1.56,1.1v.02c0,.67.62,1.06,1.34,1.06.98,0,1.78-.6,1.78-1.44"></path><polygon class="cls-1" points="29.63 88.82 30.43 88.82 30.43 94.02 33.3 91.02 34.29 91.02 32.06 93.3 34.36 96.34 33.42 96.34 31.51 93.86 30.43 94.95 30.43 96.34 29.63 96.34 29.63 88.82"></polygon><path class="cls-1" d="m38.08,93.7v-.02c0-1.54,1.08-2.77,2.56-2.77,1.58,0,2.48,1.26,2.48,2.81,0,.1,0,.17-.01.26h-4.23c.11,1.15.93,1.8,1.88,1.8.73,0,1.25-.3,1.68-.75l.49.44c-.53.6-1.18,1-2.19,1-1.46,0-2.66-1.12-2.66-2.77m4.24-.31c-.08-.97-.64-1.81-1.7-1.81-.93,0-1.63.77-1.73,1.81h3.43Z"></path><rect class="cls-1" x="47.76" y="88.82" width=".79" height="7.52"></rect><path class="cls-1" d="m53.18,94.8v-.02c0-1.12.93-1.72,2.28-1.72.68,0,1.17.09,1.64.23v-.19c0-.96-.59-1.45-1.59-1.45-.63,0-1.12.16-1.62.39l-.24-.65c.59-.27,1.17-.44,1.94-.44s1.33.2,1.72.59c.36.36.55.88.55,1.56v3.26h-.76v-.8c-.37.48-.99.92-1.93.92-.99,0-1.99-.57-1.99-1.66m3.93-.41v-.51c-.39-.11-.92-.23-1.57-.23-1,0-1.56.43-1.56,1.1v.02c0,.67.62,1.06,1.34,1.06.98,0,1.78-.6,1.78-1.44"></path><path class="cls-1" d="m62.32,94.8v-.02c0-1.12.93-1.72,2.28-1.72.68,0,1.17.09,1.64.23v-.19c0-.96-.59-1.45-1.59-1.45-.63,0-1.12.16-1.62.39l-.24-.65c.59-.27,1.17-.44,1.94-.44s1.33.2,1.72.59c.36.36.55.88.55,1.56v3.26h-.76v-.8c-.37.48-.99.92-1.93.92-.99,0-1.99-.57-1.99-1.66m3.93-.41v-.51c-.39-.11-.92-.23-1.57-.23-1,0-1.56.43-1.56,1.1v.02c0,.67.62,1.06,1.34,1.06.98,0,1.78-.6,1.78-1.44"></path><path class="cls-1" d="m71.86,91.02h.79v1.39c.39-.89,1.16-1.52,2.17-1.48v.85h-.06c-1.17,0-2.11.83-2.11,2.44v2.12h-.79v-5.33Z"></path><path class="cls-1" d="m78.69,93.69v-.02c0-1.74,1.27-2.77,2.55-2.77.99,0,1.63.54,2.04,1.13v-3.22h.79v7.53h-.79v-1.07c-.43.64-1.06,1.19-2.04,1.19-1.28,0-2.55-1.01-2.55-2.76m4.62-.01v-.02c0-1.23-.94-2.05-1.93-2.05s-1.88.76-1.88,2.05v.02c0,1.26.88,2.06,1.88,2.06s1.93-.83,1.93-2.06"></path><path class="cls-1" d="m89.04,88.98h.91v.88h-.91v-.88Zm.05,2.04h.79v5.33h-.79v-5.33Z"></path><path class="cls-1" d="m93.97,97.97v-.65c.12.02.28.03.39.03.36,0,.61-.22.61-.71v-5.63h.79v5.64c0,.94-.49,1.37-1.3,1.37-.19,0-.32-.01-.5-.05m.95-9h.91v.88h-.91v-.88Z"></path></g></svg>