<?xml version="1.0" encoding="utf-8"?>
<!-- Generator: Adobe Illustrator 23.0.4, SVG Export Plug-In . SVG Version: 6.00 Build 0)  -->
<svg version="1.1" id="Laag_1" xmlns="http://www.w3.org/2000/svg" xmlns:xlink="http://www.w3.org/1999/xlink" x="0px" y="0px"
	 viewBox="0 0 761 337" style="enable-background:new 0 0 761 337;" xml:space="preserve">
<style type="text/css">
	.st0{fill:#9F7D51;}
	.st1{fill:#04658E;}
</style>
<g>
	<path class="st0" d="M440.2,162.4l36.8-0.6V155C464.8,160.2,452.5,162.2,440.2,162.4z"/>
	<path class="st0" d="M477,139.1c-56.5,19.6-114.1-34.3-170.6-18.2v35.7c44.3-16.8,89.2,6.5,133.8,5.9l0,0
		c12.3-0.2,24.6-2.2,36.8-7.4V139.1z"/>
	<path class="st0" d="M306.4,71.3v35.6c56.5-20.8,114.1,23.1,170.6-1.6V89.4C420.5,109.7,362.9,55.8,306.4,71.3z"/>
	<path class="st0" d="M306.4,21.7v35.6C362.9,37,420.5,80.9,477,55.6V39.7C420.5,60.7,362.9,6.9,306.4,21.7z"/>
</g>
<g>
	<path class="st1" d="M53.5,233.6c22.7,0,34.9,17,34.9,37.9c0,2.1-0.5,6.4-0.5,6.4h-59c1,17.3,13.4,27,27.8,27
		c13.9,0,23.7-9.4,23.7-9.4l6.7,11c0,0-12,11.8-31.2,11.8c-25.6,0-43-18.4-43-42.4C12.8,250.3,30.4,233.6,53.5,233.6z M72.4,266.6
		c-0.5-13.4-9-20.6-19-20.6c-11.8,0-21.4,7.2-23.8,20.6H72.4z"/>
	<path class="st1" d="M106.1,293.8c0,0,9.6,12,24.5,12c7.5,0,14.1-3.4,14.1-10.4c0-14.6-44.2-13-44.2-39c0-15.5,13.6-22.7,30.1-22.7
		c9.8,0,26.6,3.4,26.6,15.7v7.7h-13.9v-4c0-4.8-7.2-6.9-12.2-6.9c-9.1,0-15,3.2-15,9.6c0,15.4,44.2,12,44.2,39
		c0,14.4-12.8,23.7-29.8,23.7c-21.6,0-32.3-14.2-32.3-14.2L106.1,293.8z"/>
	<path class="st1" d="M179.1,248h-10.6v-12.5h10.9v-22.2h15.2v22.2H214V248h-19.4v37.1c0,16.2,11.2,18.2,17.1,18.2
		c2.2,0,3.7-0.3,3.7-0.3v13.8c0,0-2.1,0.3-5.4,0.3c-10.2,0-30.9-3.2-30.9-30.2V248z"/>
	<path class="st1" d="M232.8,252.3c0-2.4-1.3-3.5-3.5-3.5h-6.6v-13.3H238c7.4,0,10.4,3,10.4,9.9v38.4c0,11.2,2.2,20.2,15,20.2
		c16.6,0,26.4-14.6,26.4-30.6v-37.9h15.5v64.2c0,2.4,1.3,3.5,3.5,3.5h6.6v13.3h-14.9c-6.9,0-10.2-3.2-10.2-9v-3
		c0-2.6,0.2-4.6,0.2-4.6h-0.3c-3.4,8-13.8,18.6-29.8,18.6c-18.2,0-27.5-9.6-27.5-31V252.3z"/>
	<path class="st1" d="M372,266.1h3.5v-0.8c0-14.2-5.3-19.4-17.9-19.4c-3.8,0-13.3,1-13.3,6.2v4.6h-14.6v-8c0-13.3,20.2-15.2,28-15.2
		c26.2,0,33.3,13.8,33.3,31.7v34.4c0,2.4,1.3,3.5,3.5,3.5h6.6v13.3h-14.6c-7.2,0-10.1-3.5-10.1-9.3c0-2.7,0.3-4.8,0.3-4.8h-0.3
		c0,0-6.4,16-25.8,16c-13.9,0-27.5-8.5-27.5-24.6C323.2,267.7,358.4,266.1,372,266.1z M354.1,305.9c13.1,0,21.6-13.8,21.6-25.8v-2.7
		h-4c-11.7,0-32.8,0.6-32.8,15.5C338.9,299.5,343.9,305.9,354.1,305.9z"/>
	<path class="st1" d="M416.4,252.3c0-2.4-1.3-3.5-3.5-3.5h-6.6v-13.3H421c7,0,10.4,2.9,10.4,9.4v5.1c0,3.2-0.3,5.6-0.3,5.6h0.3
		c3.8-11.8,13.1-21.1,25.6-21.1c2.1,0,4.2,0.3,4.2,0.3v15.4c0,0-2.1-0.5-4.6-0.5c-9.9,0-19,7-22.7,19c-1.4,4.6-1.9,9.6-1.9,14.6
		v33.1h-15.5V252.3z"/>
	<path class="st1" d="M477.5,252.3c0-2.4-1.3-3.5-3.5-3.5h-6.6v-13.3h15.2c7.2,0,10.2,3,10.2,10.2v53.9c0,2.4,1.3,3.5,3.5,3.5h6.6
		v13.3h-15.2c-7.2,0-10.2-3-10.2-10.2V252.3z M477.8,203.5h13.9v16.2h-13.9V203.5z"/>
	<path class="st1" d="M518.7,252.3c0-2.4-1.3-3.5-3.5-3.5h-6.6v-13.3h15.2c7.4,0,10.4,3,10.4,9.9v38.4c0,11.2,2.2,20.2,15,20.2
		c16.6,0,26.4-14.6,26.4-30.6v-37.9h15.5v64.2c0,2.4,1.3,3.5,3.5,3.5h6.6v13.3h-14.9c-6.9,0-10.2-3.2-10.2-9v-3
		c0-2.6,0.2-4.6,0.2-4.6H576c-3.4,8-13.8,18.6-29.8,18.6c-18.2,0-27.5-9.6-27.5-31V252.3z"/>
	<path class="st1" d="M616.8,252.3c0-2.4-1.3-3.5-3.5-3.5h-6.6v-13.3h14.9c7,0,10.2,3,10.2,9v3c0,2.6-0.2,4.6-0.2,4.6h0.3
		c3.8-9.4,15-18.6,27.7-18.6c13.8,0,21.6,6.2,24.3,18.4h0.3c4.5-9.8,15.7-18.4,28.8-18.4c18.2,0,26.7,10.4,26.7,31v35
		c0,2.4,1.3,3.5,3.5,3.5h6.6v13.3h-15.4c-7.2,0-10.2-3-10.2-10.2V268c0-11.4-2.2-20.3-14.2-20.3c-11.2,0-19.8,9.8-22.7,20.8
		c-0.8,3.4-1.3,6.9-1.3,11v37h-15.5V268c0-10.6-1.6-20.3-13.9-20.3c-11.8,0-20.2,9.9-23.2,21.4c-0.8,3.2-1.1,6.7-1.1,10.4v37h-15.5
		V252.3z"/>
</g>
</svg>
