<svg id="Layer_1" data-name="Layer 1" xmlns="http://www.w3.org/2000/svg" viewBox="0 0 737.07 130.44"><defs><style>.cls-1{fill:#1b4b8f;}</style></defs><path class="cls-1" d="M114.71,170.66a35.79,35.79,0,0,1-1,9.52,17.51,17.51,0,0,1-3,6.18,16.6,16.6,0,0,1-4.64,4,38.54,38.54,0,0,1-6,2.79,18.41,18.41,0,0,1,5.24,1.55,17.77,17.77,0,0,1,5.68,4.09,22.7,22.7,0,0,1,4.49,7.2,28.35,28.35,0,0,1,1.81,10.73,18,18,0,0,1-1.8,7.94,20.68,20.68,0,0,1-4.85,6.45,23,23,0,0,1-7.19,4.34,24.3,24.3,0,0,1-8.88,1.61H58.6V150.37H89A36.22,36.22,0,0,1,100.34,152a24.38,24.38,0,0,1,8,4.33,16.84,16.84,0,0,1,4.77,6.43,20.44,20.44,0,0,1,1.55,7.92m-15,3.93a24.42,24.42,0,0,0-.37-4.31,8.67,8.67,0,0,0-1.5-3.64,8.14,8.14,0,0,0-3.23-2.52,13.72,13.72,0,0,0-5.73-1H73.83V185.8H88.89a10.78,10.78,0,0,0,10.83-11.21M88.51,223.21c1.66,0,3.28-.06,4.86-.19a11.2,11.2,0,0,0,4.29-1.18,7.51,7.51,0,0,0,3.11-3.11,12.75,12.75,0,0,0,1.18-6.11,9.47,9.47,0,0,0-1.06-5.17,10,10,0,0,0-3.11-3.36,13.94,13.94,0,0,0-4.29-1.94,23.27,23.27,0,0,0-4.6-.74H73.83v21.8Z" transform="translate(-56.49 -147.03)"/><path class="cls-1" d="M163.26,147q10.53,22.8,20.19,45.21t20.2,44.84H186.92l-5.94-15H145.43l-5.82,15H122.76Zm-12,61.19H175l-11.77-30.47Z" transform="translate(-56.49 -147.03)"/><polygon class="cls-1" points="178.12 76.18 217.01 76.18 217.01 90.05 162.88 90.05 162.88 3.34 217.01 3.34 217.01 17.22 178.12 17.22 178.12 38.15 210.57 38.15 210.57 52.02 178.12 52.02 178.12 76.18"/><polygon class="cls-1" points="267.05 17.22 267.05 90.05 251.82 90.05 251.82 17.22 232.49 17.22 232.49 3.34 286.62 3.34 286.62 17.22 267.05 17.22"/><polygon class="cls-1" points="302.1 90.05 302.1 3.34 317.34 3.34 317.34 76.18 353.38 76.18 353.38 90.05 302.1 90.05"/><path class="cls-1" d="M463.26,147q10.53,22.8,20.19,45.21t20.19,44.84H486.92l-5.95-15H445.42l-5.82,15H422.76Zm-12,61.19H475l-11.77-30.47Z" transform="translate(-56.49 -147.03)"/><polygon class="cls-1" points="529.52 90.3 474.15 39.76 474.15 90.05 458.91 90.05 458.91 3.1 514.28 54.62 514.28 3.34 529.52 3.34 529.52 90.3"/><path class="cls-1" d="M637.29,150.37q10.9,0,18.33,2.92a38.39,38.39,0,0,1,12.26,7.37,33.47,33.47,0,0,1,7.44,9.72,52.52,52.52,0,0,1,3.84,10.1,43.73,43.73,0,0,1,1.42,8.48c.12,2.44.19,4,.19,4.77a53.54,53.54,0,0,1-5.45,21.67,49.3,49.3,0,0,1-5.2,8,32.88,32.88,0,0,1-7.69,6.94,40.46,40.46,0,0,1-10.77,4.89,50.11,50.11,0,0,1-14.37,1.86H605.46V150.37Zm-1.36,72.84a31.15,31.15,0,0,0,9.29-1.24,25.56,25.56,0,0,0,6.93-3.29,22,22,0,0,0,5-4.72,33.89,33.89,0,0,0,3.41-5.4,39.28,39.28,0,0,0,3.59-14.77c0-.58,0-1.74-.13-3.47a33.78,33.78,0,0,0-.92-6,40.31,40.31,0,0,0-2.48-7.14,22.68,22.68,0,0,0-4.83-6.83,25.67,25.67,0,0,0-8-5.15,30.61,30.61,0,0,0-11.89-2.05H620.69v60.08Z" transform="translate(-56.49 -147.03)"/><polygon class="cls-1" points="320.33 129.37 314.94 113.68 315.89 113.68 320.89 128.09 325.88 113.68 326.83 113.68 321.46 129.37 320.33 129.37"/><polygon class="cls-1" points="319.8 130.12 313.89 112.93 316.42 112.93 320.89 125.81 325.35 112.93 327.88 112.93 321.99 130.12 319.8 130.12"/><path class="cls-1" d="M395.39,276.4l-1.23-3.56h-7.53l-1.24,3.56h-.95l5.38-15.69h1.12l5.4,15.69Zm-5-14.48L386.91,272h7Z" transform="translate(-56.49 -147.03)"/><path class="cls-1" d="M397.39,277.15h-2.54l-1.23-3.56h-6.46l-1.23,3.56H383.4L389.28,260h2.2ZM388,271.27h4.86l-2.44-7Z" transform="translate(-56.49 -147.03)"/><path class="cls-1" d="M406.94,265.07a5.34,5.34,0,0,0-.21-1.53,3.28,3.28,0,0,0-.64-1.23,2.75,2.75,0,0,0-1.1-.81,3.86,3.86,0,0,0-1.59-.29,4.72,4.72,0,0,0-1.41.21,3.34,3.34,0,0,0-1.16.63,3,3,0,0,0-1.1,2.39,2.92,2.92,0,0,0,.86,2.19,5.85,5.85,0,0,0,3,1.27,6,6,0,0,1,3.37,1.54,4.23,4.23,0,0,1,1,3,4.48,4.48,0,0,1-.35,1.82,3.9,3.9,0,0,1-1,1.34,4,4,0,0,1-1.45.83,5.56,5.56,0,0,1-1.8.28,5.25,5.25,0,0,1-1.83-.31,4.7,4.7,0,0,1-1.51-.9A4.46,4.46,0,0,1,399,274.1a5.73,5.73,0,0,1-.52-1.87l.87-.21a4.42,4.42,0,0,0,.37,1.46,4.24,4.24,0,0,0,.84,1.24,3.71,3.71,0,0,0,1.23.85,3.86,3.86,0,0,0,1.59.31,4.6,4.6,0,0,0,1.46-.22A3.75,3.75,0,0,0,406,275a3.46,3.46,0,0,0,.8-1.08,3.62,3.62,0,0,0,.29-1.48,3.38,3.38,0,0,0-.84-2.37,5.31,5.31,0,0,0-2.94-1.32,6.57,6.57,0,0,1-3.36-1.48,3.77,3.77,0,0,1-1.08-2.84,4,4,0,0,1,.37-1.76,3.59,3.59,0,0,1,1-1.26,4.55,4.55,0,0,1,1.43-.76,5.54,5.54,0,0,1,1.67-.25,4.22,4.22,0,0,1,3.24,1.21A4.93,4.93,0,0,1,407.8,265Z" transform="translate(-56.49 -147.03)"/><path class="cls-1" d="M403.4,277.47a6.08,6.08,0,0,1-2.09-.36,5.5,5.5,0,0,1-1.75-1,5.39,5.39,0,0,1-1.24-1.65,6.21,6.21,0,0,1-.59-2.12l-.07-.65,2.35-.58.08.88a3.6,3.6,0,0,0,.31,1.22,3.53,3.53,0,0,0,.69,1,3.06,3.06,0,0,0,1,.68,3.66,3.66,0,0,0,2.51.06,2.64,2.64,0,0,0,.93-.52,2.33,2.33,0,0,0,.61-.83,2.73,2.73,0,0,0,.23-1.16,2.59,2.59,0,0,0-.65-1.86,4.6,4.6,0,0,0-2.52-1.1,7.23,7.23,0,0,1-3.74-1.67,4.49,4.49,0,0,1-1.31-3.38,4.72,4.72,0,0,1,.45-2.09,4.41,4.41,0,0,1,1.21-1.52,5.44,5.44,0,0,1,1.67-.88,6.13,6.13,0,0,1,1.9-.29,5,5,0,0,1,3.79,1.45,5.62,5.62,0,0,1,1.39,3.88v.69l-2.37.24v-.83a4.7,4.7,0,0,0-.18-1.33,2.76,2.76,0,0,0-.49-.95,2.12,2.12,0,0,0-.83-.6,3.82,3.82,0,0,0-2.47-.06,2.73,2.73,0,0,0-.91.49,2.27,2.27,0,0,0-.83,1.82,2.22,2.22,0,0,0,.64,1.66,5.15,5.15,0,0,0,2.61,1.06,6.66,6.66,0,0,1,3.77,1.77,4.93,4.93,0,0,1,1.24,3.52,5.12,5.12,0,0,1-.42,2.13,4.54,4.54,0,0,1-1.17,1.59,4.77,4.77,0,0,1-1.71,1,6.19,6.19,0,0,1-2,.32" transform="translate(-56.49 -147.03)"/><polygon class="cls-1" points="358.97 129.37 358.97 114.54 354.32 114.54 354.32 113.68 364.49 113.68 364.49 114.54 359.87 114.54 359.87 129.37 358.97 129.37"/><polygon class="cls-1" points="360.62 130.12 358.22 130.12 358.22 115.29 353.57 115.29 353.57 112.93 365.24 112.93 365.24 115.29 360.62 115.29 360.62 130.12"/><path class="cls-1" d="M433.57,269.06h-4.36v-.86h5.22q0,.24,0,.6c0,.25,0,.5,0,.76a11.55,11.55,0,0,1-.3,2.64,6.84,6.84,0,0,1-1,2.29,5.09,5.09,0,0,1-1.79,1.62,5.57,5.57,0,0,1-2.73.61,5.72,5.72,0,0,1-2.29-.47,5.11,5.11,0,0,1-1.89-1.47,7.32,7.32,0,0,1-1.27-2.53,13,13,0,0,1-.47-3.71,12.49,12.49,0,0,1,.48-3.68,7.1,7.1,0,0,1,1.3-2.53,5.21,5.21,0,0,1,2-1.47,6.25,6.25,0,0,1,2.47-.47,5.07,5.07,0,0,1,1.79.31,5.12,5.12,0,0,1,1.52.88,5.69,5.69,0,0,1,1.17,1.36,5.42,5.42,0,0,1,.68,1.76l-.82.15a5.68,5.68,0,0,0-.64-1.49,4.53,4.53,0,0,0-1-1.13,4.45,4.45,0,0,0-2.77-1,5.24,5.24,0,0,0-2.09.42,4.33,4.33,0,0,0-1.68,1.31,6.21,6.21,0,0,0-1.11,2.26,11.77,11.77,0,0,0-.4,3.28,12,12,0,0,0,.4,3.32,6.49,6.49,0,0,0,1.09,2.27,4.32,4.32,0,0,0,1.6,1.31,4.72,4.72,0,0,0,2,.42,4.66,4.66,0,0,0,2.36-.54,4.15,4.15,0,0,0,1.5-1.44,5.81,5.81,0,0,0,.79-2.05,12.32,12.32,0,0,0,.23-2.38Z" transform="translate(-56.49 -147.03)"/><path class="cls-1" d="M428.67,277.47a6.49,6.49,0,0,1-2.59-.53,5.88,5.88,0,0,1-2.17-1.69,8,8,0,0,1-1.41-2.79,13.68,13.68,0,0,1-.5-3.92,13.32,13.32,0,0,1,.51-3.9,7.75,7.75,0,0,1,1.45-2.79,5.82,5.82,0,0,1,2.25-1.68A6.76,6.76,0,0,1,431,260a5.51,5.51,0,0,1,1.74,1,6.37,6.37,0,0,1,1.33,1.54,5.88,5.88,0,0,1,.77,2l.15.74-2.25.42-.18-.68a4.74,4.74,0,0,0-.54-1.28,3.82,3.82,0,0,0-.84-.94,3.49,3.49,0,0,0-1.07-.59,4.25,4.25,0,0,0-3,.15,3.56,3.56,0,0,0-1.4,1.09,5.57,5.57,0,0,0-1,2,11,11,0,0,0-.37,3.07,11.28,11.28,0,0,0,.37,3.11,5.94,5.94,0,0,0,1,2,3.6,3.6,0,0,0,1.33,1.09,4.42,4.42,0,0,0,3.65-.09,3.51,3.51,0,0,0,1.24-1.18,5.31,5.31,0,0,0,.68-1.8,11.51,11.51,0,0,0,.21-1.88h-4.35v-2.36h6.66l.06.68c0,.17,0,.39,0,.65s0,.51,0,.78a12.41,12.41,0,0,1-.32,2.81,7.64,7.64,0,0,1-1.09,2.54,5.92,5.92,0,0,1-2.05,1.86,6.33,6.33,0,0,1-3.09.7" transform="translate(-56.49 -147.03)"/><path class="cls-1" d="M443.8,276.72a5.07,5.07,0,0,1-2.39-.56,5.51,5.51,0,0,1-1.9-1.62,7.81,7.81,0,0,1-1.26-2.57,13.22,13.22,0,0,1,0-6.84,8,8,0,0,1,1.26-2.57,5.59,5.59,0,0,1,1.9-1.61,5.07,5.07,0,0,1,2.39-.56,4.86,4.86,0,0,1,2.32.57,5.26,5.26,0,0,1,1.82,1.64,8.6,8.6,0,0,1,1.19,2.57,12.08,12.08,0,0,1,.43,3.37,12.23,12.23,0,0,1-.43,3.39,8.55,8.55,0,0,1-1.19,2.58,5.26,5.26,0,0,1-1.82,1.64,4.86,4.86,0,0,1-2.32.57m-.05-.9a4.11,4.11,0,0,0,2-.5,4.62,4.62,0,0,0,1.56-1.44,7.27,7.27,0,0,0,1-2.28,11.88,11.88,0,0,0,.37-3.06,11.75,11.75,0,0,0-.37-3,7.27,7.27,0,0,0-1-2.28,4.77,4.77,0,0,0-1.56-1.42,4.11,4.11,0,0,0-2-.5,4.21,4.21,0,0,0-2,.49,4.53,4.53,0,0,0-1.62,1.41,7.09,7.09,0,0,0-1.07,2.28,11,11,0,0,0-.39,3.05,11.13,11.13,0,0,0,.39,3.08,7.25,7.25,0,0,0,1.07,2.29,4.56,4.56,0,0,0,1.62,1.42,4.21,4.21,0,0,0,2,.49" transform="translate(-56.49 -147.03)"/><path class="cls-1" d="M443.8,277.47a5.87,5.87,0,0,1-2.73-.64,6.43,6.43,0,0,1-2.15-1.83,8.69,8.69,0,0,1-1.39-2.81,14,14,0,0,1,0-7.27,8.59,8.59,0,0,1,1.39-2.81,6.34,6.34,0,0,1,2.15-1.83,5.94,5.94,0,0,1,5.4,0,6,6,0,0,1,2.08,1.86,9.28,9.28,0,0,1,1.3,2.8,13.22,13.22,0,0,1,.46,3.58,13.37,13.37,0,0,1-.46,3.6,9.17,9.17,0,0,1-1.3,2.8,5.8,5.8,0,0,1-2.08,1.87,5.59,5.59,0,0,1-2.67.66m-.05-15.41a3.67,3.67,0,0,0-1.67.4,3.86,3.86,0,0,0-1.36,1.2,6.33,6.33,0,0,0-1,2,10.25,10.25,0,0,0-.36,2.84,10.38,10.38,0,0,0,.36,2.87,6.65,6.65,0,0,0,1,2.06,4,4,0,0,0,1.36,1.2,3.56,3.56,0,0,0,3.3,0,3.84,3.84,0,0,0,1.31-1.21,6.69,6.69,0,0,0,.92-2.05,11.22,11.22,0,0,0,.34-2.86,11.09,11.09,0,0,0-.34-2.83,6.52,6.52,0,0,0-.92-2,3.82,3.82,0,0,0-1.31-1.2,3.34,3.34,0,0,0-1.63-.41" transform="translate(-56.49 -147.03)"/><polygon class="cls-1" points="396.91 129.37 396.91 113.68 404.83 113.68 404.83 114.54 397.77 114.54 397.77 120.86 404.74 120.86 404.74 121.73 397.77 121.73 397.77 128.53 404.83 128.53 404.83 129.37 396.91 129.37"/><polygon class="cls-1" points="405.58 130.12 396.16 130.12 396.16 112.93 405.58 112.93 405.58 115.29 398.52 115.29 398.52 120.11 405.49 120.11 405.49 122.48 398.52 122.48 398.52 127.78 405.58 127.78 405.58 130.12"/><path class="cls-1" d="M465.29,276.4V260.71h4.82a6.56,6.56,0,0,1,3,.6A5,5,0,0,1,475,263a6.81,6.81,0,0,1,1,2.49,15.07,15.07,0,0,1,.3,3.09,15.23,15.23,0,0,1-.3,3.12,6.69,6.69,0,0,1-1,2.48,4.88,4.88,0,0,1-1.91,1.65,6.42,6.42,0,0,1-3,.61Zm4.77-.84a5.88,5.88,0,0,0,2.55-.5,4,4,0,0,0,1.65-1.42,6.54,6.54,0,0,0,.89-2.22,15.39,15.39,0,0,0,0-5.74,6.43,6.43,0,0,0-.89-2.2,4.05,4.05,0,0,0-1.65-1.41,5.88,5.88,0,0,0-2.55-.5h-3.9v14Z" transform="translate(-56.49 -147.03)"/><path class="cls-1" d="M470.11,277.15h-5.57V260h5.57a7.22,7.22,0,0,1,3.3.69,5.6,5.6,0,0,1,2.19,1.89,7.63,7.63,0,0,1,1.13,2.75,16.82,16.82,0,0,1,0,6.53,7.71,7.71,0,0,1-1.13,2.75,5.6,5.6,0,0,1-2.19,1.89,7.22,7.22,0,0,1-3.3.69m-3.2-2.34h3.15a5.22,5.22,0,0,0,2.23-.42,3.25,3.25,0,0,0,1.34-1.17,5.46,5.46,0,0,0,.78-2,13.25,13.25,0,0,0,.26-2.73,13.09,13.09,0,0,0-.26-2.7,5.59,5.59,0,0,0-.77-1.94,3.29,3.29,0,0,0-1.35-1.15,5.07,5.07,0,0,0-2.23-.43h-3.15Z" transform="translate(-56.49 -147.03)"/><line class="cls-1" x1="435.6" y1="121.7" x2="736.95" y2="121.7"/><rect class="cls-1" x="435.6" y="119.7" width="301.35" height="4"/><line class="cls-1" y1="121.7" x2="300" y2="121.7"/><rect class="cls-1" y="119.7" width="300" height="4"/><path class="cls-1" d="M706.8,237.08h86.77V150.32H706.8ZM789.57,195s-21.2.22-22.42.07-1.76.24-3.42,1.54-12.07,9.84-12.74,10.32-9.91,8.18-14.42,11.68-7.2,5.58-7.3,5.82a5.61,5.61,0,0,0-.2,1s-.82.75-1,.69-.37-1-.37-1-2-4.45-1.91-4.67a5.38,5.38,0,0,0,.3-1.63,14.65,14.65,0,0,1-.63-2.32c.13-.2,6.43-8.47,10.09-12.37a85.41,85.41,0,0,0,6.09-7,55.43,55.43,0,0,1,5.85-6c2.33-2.11,9.13-8.88,9.62-9.45s5.65-6.18,6.87-7.39,3.63-3.77,5.07-3.85c1.77-.11,3.87-.53,5.17-.66s2.53,0,5.5,0c0,0,6.38-.32,9.82-.89Z" transform="translate(-56.49 -147.03)"/></svg>