<?xml version="1.0" encoding="utf-8"?>
<!-- Generator: Adobe Illustrator 27.6.1, SVG Export Plug-In . SVG Version: 6.00 Build 0)  -->
<svg version="1.1" id="Laag_1" xmlns="http://www.w3.org/2000/svg" xmlns:xlink="http://www.w3.org/1999/xlink" x="0px" y="0px"
	 viewBox="0 0 179 55.3" style="enable-background:new 0 0 179 55.3;" xml:space="preserve">
<style type="text/css">
	.st0{fill:#FFFFFF;}
	.st1{fill:#525252;}
	.st2{fill-rule:evenodd;clip-rule:evenodd;fill:#159DCC;}
	.st3{fill-rule:evenodd;clip-rule:evenodd;fill:#868686;}
	.st4{fill:#4E4D4D;}
	.st5{enable-background:new    ;}
</style>
<g>
	<rect x="1.5" y="1.1" class="st0" width="52.1" height="52.4"/>
</g>
<g>
	<g>
		<g>
			<path class="st1" d="M0,0h55.3v55.3H0V0z M51.4,3.9H3.9v47.5h47.5C51.4,51.4,51.4,3.9,51.4,3.9z"/>
		</g>
		<g>
			<polygon class="st2" points="4.8,50.5 50.5,50.5 50.5,34 4.8,42.9 			"/>
		</g>
		<g>
			<polygon class="st3" points="4.8,40.5 50.5,27 50.5,32.9 4.8,41.9 			"/>
		</g>
		<g>
			<polygon class="st4" points="28.3,10.6 44.8,27.1 15.2,36.5 15.2,30.5 13.9,31.9 10.4,28.5 			"/>
		</g>
	</g>
	<g>
		<g class="st5">
			<path class="st1" d="M72.9,9.2c3.1,0,7.8,1.3,7.8,4.3V15h-1.3v-1.2c0-2.1-3.8-3.3-6.4-3.3c-5,0-8.9,4-8.9,9.4
				c0,5.4,3.8,9.7,9,9.7c4.5,0,7.1-3,7.1-3l0.8,0.9c0,0-2.8,3.3-7.9,3.3c-6,0-10.3-4.9-10.3-10.9S67.1,9.2,72.9,9.2z"/>
			<path class="st1" d="M91,15.2c4.3,0,7.7,3.4,7.7,7.7c0,4.4-3.5,7.9-7.7,7.9s-7.7-3.5-7.7-7.9C83.3,18.6,86.8,15.2,91,15.2z
				 M91,29.6c3.5,0,6.4-2.9,6.4-6.7c0-3.7-2.9-6.5-6.4-6.5s-6.4,2.8-6.4,6.5C84.6,26.7,87.5,29.6,91,29.6z"/>
			<path class="st1" d="M102.7,17.4c0-0.4-0.2-0.7-0.7-0.7h-1.3v-1.1h1.5c1.2,0,1.7,0.5,1.7,1.6V18c0,0.7-0.1,1.2-0.1,1.2h0.1
				c0.5-1.4,2.5-4.1,6.3-4.1c3.9,0,4.9,2.3,4.9,5.8v7.7c0,0.4,0.2,0.7,0.7,0.7h1.3v1.1h-1.5c-1.2,0-1.7-0.5-1.7-1.7v-7.3
				c0-2.6-0.3-5-3.7-5c-2.8,0-5.3,2-6,4.7c-0.2,0.6-0.2,1.3-0.2,2v7.3h-1.3V17.4z"/>
			<path class="st1" d="M120.4,16.7h-1.9v-1.1h1.9V15c0-4.9,3.2-5.5,4.7-5.5c0.5,0,0.8,0.1,0.8,0.1v1.2c0,0-0.3-0.1-0.7-0.1
				c-1.2,0-3.6,0.5-3.6,4.3v0.6h6.7c1.2,0,1.7,0.5,1.7,1.7v11.4c0,0.4,0.2,0.7,0.7,0.7h1.3v1.1h-1.5c-1.2,0-1.7-0.5-1.7-1.7V17.4
				c0-0.4-0.2-0.7-0.7-0.7h-6.5v13.8h-1.3V16.7z M128.7,9.6h1.4v2.2h-1.4V9.6z"/>
			<path class="st1" d="M140.9,15.2c3.8,0,5.1,3.2,5.1,3.2h0.1c0,0-0.1-0.5-0.1-1.2v-5.8c0-0.4-0.2-0.7-0.7-0.7h-1.3V9.6h1.5
				c1.2,0,1.7,0.5,1.7,1.7v17.4c0,0.4,0.2,0.7,0.7,0.7h1.3v1.1h-1.5c-1.2,0-1.7-0.5-1.7-1.7c0-0.7,0.1-1.1,0.1-1.1H146
				c0,0-1.2,3.2-5.3,3.2c-4,0-6.4-3.2-6.4-7.8C134.3,18.3,137,15.2,140.9,15.2z M146.1,23c0-3.3-1.7-6.6-5.2-6.6
				c-2.9,0-5.3,2.4-5.3,6.6c0,4,2.1,6.6,5.2,6.6C143.5,29.6,146.1,27.7,146.1,23z"/>
			<path class="st1" d="M158.5,15.2c4.1,0,6.1,3.2,6.1,6.8c0,0.3-0.1,0.8-0.1,0.8h-12c0,4.3,2.9,6.8,6.4,6.8c2.9,0,4.6-1.9,4.6-1.9
				l0.7,1c0,0-2.1,2.1-5.3,2.1c-4.2,0-7.7-3-7.7-7.8C151.3,18,154.7,15.2,158.5,15.2z M163.3,21.6c-0.1-3.6-2.3-5.3-4.8-5.3
				c-2.7,0-5.3,1.8-5.8,5.3H163.3z"/>
			<path class="st1" d="M168,27.3c0,0,1.6,2.3,4.6,2.3c1.9,0,3.7-1,3.7-2.8c0-3.8-8.6-2.9-8.6-7.7c0-2.6,2.1-3.9,5.1-3.9
				c1.3,0,4.2,0.6,4.2,2.5v1.1h-1.3v-0.7c0-1.3-1.8-1.7-2.9-1.7c-2.4,0-3.8,0.9-3.8,2.6c0,3.8,8.6,2.9,8.6,7.8c0,2.4-2.2,4-5,4
				c-3.8,0-5.5-2.6-5.5-2.6L168,27.3z"/>
		</g>
		<g class="st5">
			<path class="st1" d="M130.8,48.1c1.5,0,2.7-0.6,2.7-2.3v-0.6c0-0.2,0-0.5,0-0.5h0c-0.6,0.9-1.4,1.3-2.7,1.3
				c-2.8,0-4.3-2.2-4.3-4.9s1.5-4.8,4.3-4.8c2.1,0,2.9,1.2,2.9,1.2h0.1c0,0,0-0.1,0-0.3v-0.7h2.3v9.1c0,3.3-2.6,4.6-5.1,4.6
				c-1.2,0-2.5-0.3-3.4-0.8l0.7-1.8C128.2,47.5,129.4,48.1,130.8,48.1z M133.6,41.1c0-2.2-1.1-2.8-2.4-2.8c-1.5,0-2.3,1.1-2.3,2.7
				c0,1.7,0.9,2.9,2.4,2.9C132.5,43.9,133.6,43.3,133.6,41.1z"/>
			<path class="st1" d="M138.6,36.5h2.3v1.7c0,0.4,0,0.7,0,0.7h0c0.4-1.4,1.6-2.5,3.1-2.5c0.2,0,0.4,0,0.4,0v2.4c0,0-0.2,0-0.6,0
				c-1,0-2.2,0.6-2.6,2c-0.2,0.5-0.2,1-0.2,1.6v3.8h-2.4V36.5z"/>
			<path class="st1" d="M150.6,36.3c3,0,5.3,2.1,5.3,5.1c0,3-2.4,5.1-5.3,5.1c-3,0-5.3-2.1-5.3-5.1
				C145.3,38.4,147.7,36.3,150.6,36.3z M150.7,44.3c1.6,0,2.9-1.2,2.9-3c0-1.8-1.3-3-2.9-3c-1.6,0-2.9,1.2-2.9,3
				C147.8,43.1,149.1,44.3,150.7,44.3z"/>
			<path class="st1" d="M162.1,36.3c2.8,0,4.3,2,4.3,4.6c0,0.3-0.1,0.9-0.1,0.9h-6.7c0.2,1.7,1.5,2.6,2.9,2.6c1.6,0,2.8-1.1,2.8-1.1
				l0.9,1.7c0,0-1.5,1.4-3.9,1.4c-3.2,0-5.2-2.3-5.2-5.1C157.2,38.4,159.2,36.3,162.1,36.3z M164,40.1c0-1.3-0.9-2-1.9-2
				c-1.2,0-2.1,0.8-2.3,2H164z"/>
			<path class="st1" d="M168.4,36.5h2.2v0.7c0,0.4,0,0.7,0,0.7h0c0,0,0.8-1.6,3.1-1.6c2.6,0,4.3,2.1,4.3,5.1c0,3.1-1.9,5.1-4.4,5.1
				c-1.9,0-2.8-1.3-2.8-1.3h0c0,0,0,0.3,0,0.8v4.1h-2.4V36.5z M173.1,44.4c1.3,0,2.4-1.1,2.4-3c0-1.8-1-3-2.4-3
				c-1.2,0-2.4,0.9-2.4,3C170.7,42.9,171.5,44.4,173.1,44.4z"/>
		</g>
	</g>
</g>
</svg>
