<?xml version="1.0" encoding="UTF-8" standalone="no"?><!DOCTYPE svg PUBLIC "-//W3C//DTD SVG 1.1//EN" "http://www.w3.org/Graphics/SVG/1.1/DTD/svg11.dtd"><svg width="100%" height="100%" viewBox="0 0 462 89" version="1.1" xmlns="http://www.w3.org/2000/svg" xmlns:xlink="http://www.w3.org/1999/xlink" xml:space="preserve" xmlns:serif="http://www.serif.com/" style="fill-rule:evenodd;clip-rule:evenodd;stroke-linejoin:round;stroke-miterlimit:1.41421;"><path d="M126.9,6.2l-3.8,11.7l7.7,0l-3.9,-11.7Zm12,25.3l-2.5,0c-0.9,0 -1.1,-0.4 -1.4,-1.1l-3,-8.8l-10.1,0l-2.7,8.5c-0.4,1.1 -0.6,1.5 -1.6,1.5l-2.1,0c-0.7,0 -1,0 -1,-0.4c0,-0.2 0.1,-0.7 0.3,-1.2l9.3,-27.4c0.5,-1.3 0.7,-1.6 1.9,-1.6l1.9,0c1.2,0 1.5,0.3 1.9,1.6l9.8,27.9c0,0.2 0.1,0.3 0.1,0.5c0,0.4 -0.3,0.5 -0.8,0.5" style="fill-rule:nonzero;"/><path d="M83.2,29.8l-7.8,-10.1c1.4,0 2.4,-0.2 3.3,-0.7c1.7,-0.9 3.4,-2.6 3.4,-7.6c0,-4.1 -0.7,-6.9 -2.1,-8.4c-1.5,-1.7 -2.5,-2 -7.2,-2l-8.3,0c-0.9,0 -1.4,0 -1.4,1.2l0,27.9c0,1.1 0.3,1.3 1.4,1.3l1.9,0c0.9,0 1.1,-0.3 1.1,-1.3l0,-10.3l0,-3.9l0,-10.9c1.5,0 2.6,0 4.6,-0.1c1,0 3.1,0 4,0.5c1.1,0.6 1.6,2.3 1.6,5.7c0,2.3 -0.2,3 -0.7,3.6c-0.6,0.9 -1.7,1.2 -3.6,1.2l-3.1,0c-0.2,0 -0.3,0.1 -0.4,0.1c-1.2,1.4 0.1,3.7 0.1,3.7l7.9,10.7c0.7,0.9 1.2,1 2.1,1l2.7,0c1,0 1.2,-0.6 0.5,-1.6" style="fill-rule:nonzero;"/><path d="M52.6,31.8c-1.9,0.1 -3,0.2 -5.1,0.2c-1,0 -3.4,-0.1 -5.2,-0.5c-6,-1.5 -7.1,-7.7 -7.1,-14.9c0,-13.7 3.9,-15.9 12.3,-15.9c2,0 3.1,0.1 5.1,0.2c1.2,0.1 1.6,0.2 1.6,0.9l0,1.6c0,1 0,1.5 -1,1.5c-1.8,0 -1.3,-0.2 -4.9,-0.2c-1.4,0 -4,0.1 -5.2,0.7c-2.9,1.4 -3.3,5.4 -3.3,11.3c0,5.9 0.5,10.3 4.9,11.2c0.9,0.2 2.3,0.2 3.6,0.2c3.6,0 3.1,-0.2 4.9,-0.2c0.9,0 1,0.5 1,1.5l0,1.6c0.1,0.6 -0.4,0.7 -1.6,0.8" style="fill-rule:nonzero;"/><path d="M106.9,31.4l-14,0c-1.1,0 -1.4,-0.2 -1.4,-1.3l0,-27.9c0,-1.1 0.5,-1.2 1.4,-1.2l14,0c0.7,0 1.1,0.1 1.1,1.2l0,1.3c0,1 0,1.5 -1.1,1.5c-4.1,0 -8.1,-0.1 -10.9,-0.2l0,9.1c2.7,-0.1 5.8,-0.1 9.9,-0.2c1.1,0 1.1,0.5 1.1,1.5l0,0.6c0,1 0,1.5 -1.1,1.5c-4.1,0 -7.2,-0.1 -9.9,-0.2l0,10.6c2.8,-0.1 6.8,-0.1 10.9,-0.2c1.1,0 1.1,0.5 1.1,1.5l0,1.3c0,1 -0.4,1.1 -1.1,1.1" style="fill-rule:nonzero;"/><path d="M160.7,4.9c-2.9,0 -5.3,0 -7.5,-0.1l0,25.3c0,1 -0.3,1.3 -1.1,1.3l-1.9,0c-1.2,0 -1.4,-0.2 -1.4,-1.3l0,-25.3c-2.1,0 -4.6,0.1 -7.5,0.1c-1.1,0 -1.1,-0.5 -1.1,-1.5l0,-1.3c0,-1 0.4,-1.2 1.1,-1.2l19.4,0c0.7,0 1.1,0.1 1.1,1.2l0,1.3c0,1 0,1.5 -1.1,1.5" style="fill-rule:nonzero;"/><path d="M173.7,31.4l-1.9,0c-1.2,0 -1.4,-0.2 -1.4,-1.3l0,-27.9c0,-1.1 0.5,-1.2 1.4,-1.2l1.9,0c1,0 1.1,0.4 1.1,1.2l0,27.9c0,1 -0.3,1.3 -1.1,1.3" style="fill-rule:nonzero;"/><path d="M207.9,31.4l-1.5,0c-0.8,0 -1.3,0 -1.9,-0.7c-3.7,-5.3 -9.7,-14.8 -14.2,-21.7l0,21c0,1 -0.3,1.3 -1.1,1.3l-1.9,0c-1.2,0 -1.4,-0.2 -1.4,-1.3l0,-27.9c0,-1.1 0.5,-1.2 1.4,-1.2l1.3,0c1,0 1.2,0 1.6,0.6c3.7,5.4 9.3,14.2 14.3,21.8l0,-21.2c0,-1.1 0.5,-1.2 1.4,-1.2l2,0c1,0 1.1,0.4 1.1,1.2l0,27.9c0.1,1.1 -0.3,1.4 -1.1,1.4" style="fill-rule:nonzero;"/><path d="M236.2,31.1c-2,0.6 -4.8,0.9 -6.9,0.9c-1,0 -3.4,-0.1 -5.2,-0.5c-6,-1.5 -7.1,-7.7 -7.1,-14.9c0,-13.7 3.9,-15.9 12.3,-15.9c2.5,0 5.1,0.2 6.6,0.4c1.1,0.1 1.6,0.2 1.6,0.9l0,1.6c0,1 0,1.5 -0.9,1.5c-1.8,0 -1.7,-0.4 -6.4,-0.4c-1.4,0 -4,0.1 -5.2,0.7c-2.9,1.4 -3.3,5.4 -3.3,11.3c0,5.9 0.5,10.3 4.9,11.2c0.9,0.2 2.3,0.2 3.6,0.2c0.7,0 1.6,-0.1 2.9,-0.4l0,-10.4l-5.3,0c-1.1,0 -1.1,-0.5 -1.1,-1.5l0,-0.6c0,-1 0,-1.5 1.1,-1.5l8.6,0c1,0 1.1,0.4 1.1,1.2l0,14.5c0.1,1.1 -0.2,1.4 -1.3,1.7" style="fill-rule:nonzero;"/><path d="M1.5,85.4l19.2,-20.8l-18,-21.5c-0.8,-0.9 -0.7,-2 0.8,-2l3.6,0c1.4,0 1.8,0.2 2.9,1.5l16.5,19.6c0,0 2,3 0,6.3l-16.5,17.9c-1.1,1.3 -1.8,1.5 -3.3,1.5l-4.7,0c-1.5,0.1 -1.9,-1.1 -0.5,-2.5" style="fill:#0095db;fill-rule:nonzero;"/><g><path d="M165.1,48.8l-5.9,18.1l5.6,0c2.3,0 4.4,0 6.4,0.1l-6.1,-18.2Zm18.4,38.9l-3.8,0c-1.4,0 -1.8,-0.6 -2.2,-1.8l-4.6,-13.5c-2.5,0.1 -5.2,0.1 -8.2,0.1c-2.7,0 -5.2,0 -7.4,-0.1l-4.2,13c-0.6,1.8 -0.9,2.2 -2.5,2.2l-3.2,0c-1.1,0 -1.5,0 -1.5,-0.6c0,-0.4 0.2,-1.1 0.5,-1.8l14.3,-42.3c0.7,-2 1.1,-2.5 2.9,-2.5l2.9,0c1.9,0 2.2,0.5 2.9,2.5l15.1,43c0.1,0.3 0.1,0.5 0.1,0.7c0.2,0.9 -0.2,1.1 -1.1,1.1" style="fill-rule:nonzero;"/><path d="M67.7,85.1l-12.1,-15.5c2.2,-0.1 3.6,-0.4 5.1,-1.1c2.6,-1.3 5.3,-4 5.3,-11.6c0,-6.3 -1.1,-10.6 -3.3,-13c-2.4,-2.6 -3.8,-3.1 -11.1,-3.1l-12.8,0c-1.4,0 -2.2,0.1 -2.2,1.8l0,43c0,1.8 0.4,2 2.2,2l2.9,0c1.3,0 1.8,-0.4 1.8,-2l0,-15.9l0,-6l0,-16.8c2.3,-0.1 4.1,-0.1 7.1,-0.1c1.5,0 4.8,0 6.1,0.7c1.8,1 2.5,3.5 2.5,8.8c0,3.5 -0.4,4.6 -1.1,5.5c-0.9,1.3 -2.6,1.9 -5.5,1.9l-4.7,0c-0.3,0 -0.5,0.1 -0.6,0.2c-1.9,2.2 0.2,5.7 0.2,5.7l12.2,16.4c1.1,1.4 1.8,1.5 3.3,1.5l4.1,0c1.4,0.1 1.8,-0.9 0.6,-2.4" style="fill-rule:nonzero;"/><path d="M102.4,87.5l-21.5,0c-1.8,0 -2.2,-0.3 -2.2,-2l0,-43c0,-1.8 0.8,-1.8 2.2,-1.8l21.5,0c1.1,0 1.8,0.2 1.8,1.8l0,2c0,1.5 -0.1,2.2 -1.8,2.2c-6.4,-0.1 -12.5,-0.1 -16.8,-0.3l0,14.1c4.1,-0.1 9,-0.2 15.3,-0.3c1.7,0 1.8,0.8 1.8,2.2l0,1c0,1.5 -0.1,2.2 -1.8,2.2c-6.3,-0.1 -11.1,-0.1 -15.3,-0.3l0,16.3c4.3,-0.1 10.4,-0.2 16.8,-0.3c1.7,0 1.8,0.8 1.8,2.2l0,2c-0.1,1.8 -0.7,2 -1.8,2" style="fill-rule:nonzero;"/><path d="M143.4,46.7c-4.5,0 -8.2,-0.1 -11.5,-0.1l0,38.9c0,1.6 -0.5,2 -1.8,2l-2.9,0c-1.8,0 -2.2,-0.3 -2.2,-2l0,-38.9c-3.3,0.1 -7,0.1 -11.5,0.1c-1.7,0 -1.8,-0.8 -1.8,-2.2l0,-2c0,-1.6 0.6,-1.8 1.8,-1.8l29.9,0c1.1,0 1.8,0.2 1.8,1.8l0,2c-0.1,1.5 -0.1,2.2 -1.8,2.2" style="fill-rule:nonzero;"/><path d="M199.6,87.5l-2.9,0c-1.8,0 -2.2,-0.3 -2.2,-2l0,-43c0,-1.8 0.8,-1.8 2.2,-1.8l2.9,0c1.5,0 1.8,0.6 1.8,1.8l0,43c0,1.6 -0.5,2 -1.8,2" style="fill-rule:nonzero;"/><path d="M236.8,87.5l-19.6,0c-1.8,0 -2.2,-0.3 -2.2,-2l0,-43c0,-1.8 0.8,-1.8 2.2,-1.8l2.9,0c1.5,0 1.8,0.6 1.8,1.8l0,39.2c4.1,-0.1 8.8,-0.1 14.9,-0.2c1.7,0 1.7,0.8 1.7,2.2l0,2c0,1.6 -0.6,1.8 -1.7,1.8" style="fill-rule:nonzero;"/></g><g><path d="M312.7,48.6l-5.9,18.1l5.6,0c2.3,0 4.4,0 6.4,0.1l-6.1,-18.2Zm18.5,38.9l-3.8,0c-1.4,0 -1.8,-0.6 -2.2,-1.8l-4.6,-13.5c-2.5,0.1 -5.2,0.1 -8.2,0.1c-2.7,0 -5.2,0 -7.4,-0.1l-4.2,13c-0.6,1.8 -0.9,2.2 -2.5,2.2l-3.2,0c-1.1,0 -1.5,0 -1.5,-0.6c0,-0.4 0.2,-1.1 0.5,-1.8l14.3,-42.3c0.7,-2 1.1,-2.5 2.9,-2.5l2.9,0c1.9,0 2.2,0.5 2.9,2.5l15.1,43c0.1,0.3 0.1,0.5 0.1,0.7c0.1,0.8 -0.3,1.1 -1.1,1.1" style="fill-rule:nonzero;"/><path d="M374.7,85.1l-12.1,-15.5c2.2,-0.1 3.6,-0.4 5.1,-1.1c2.6,-1.3 5.3,-4 5.3,-11.6c0,-6.3 -1.1,-10.6 -3.3,-13c-2.4,-2.6 -3.8,-3.1 -11.1,-3.1l-12.8,0c-1.4,0 -2.2,0.1 -2.2,1.8l0,43c0,1.8 0.4,2 2.2,2l2.9,0c1.3,0 1.8,-0.4 1.8,-2l0,-15.9l0,-6l0,-16.8c2.3,-0.1 4.1,-0.1 7.1,-0.1c1.5,0 4.8,0 6.1,0.7c1.8,1 2.5,3.5 2.5,8.8c0,3.5 -0.4,4.6 -1.1,5.5c-0.9,1.3 -2.6,1.9 -5.5,1.9l-4.7,0c-0.3,0 -0.5,0.1 -0.6,0.2c-1.9,2.2 0.2,5.7 0.2,5.7l12.2,16.4c1.1,1.4 1.8,1.5 3.3,1.5l4.1,0c1.5,0.1 1.8,-0.9 0.6,-2.4" style="fill-rule:nonzero;"/><path d="M423.6,85l-19.2,-20.8l18,-21.5c0.8,-0.9 0.7,-2 -0.8,-2l-3.6,0c-1.4,0 -1.8,0.2 -2.9,1.5l-16.5,19.6c0,0 -2,3 0,6.3l16.5,17.8c1.1,1.3 1.8,1.5 3.3,1.5l4.8,0c1.3,0.1 1.8,-1 0.4,-2.4" style="fill:#0095db;fill-rule:nonzero;"/><path d="M459.4,83.2c-2.3,4.7 -8.6,4.9 -13.3,4.9c-3.9,0 -7.8,-0.4 -10.1,-0.6c-1.8,-0.1 -2.5,-0.3 -2.5,-1.3l0,-2.5c0,-1.6 0.1,-2.3 1.4,-2.3c3.9,0 2.9,0.6 12.2,0.6c5,0 6.8,-0.5 6.8,-6c0,-5.2 -0.1,-6.3 -3.2,-7.6c-2.9,-1.3 -5.8,-2.5 -8.7,-3.9c-6.9,-3.2 -8,-4.3 -8,-12.5c0,-3.4 0,-7 2.7,-9.4c2.8,-2.6 6.9,-2.5 12.7,-2.5c3.2,0 4.8,0.1 7.9,0.4c1.8,0.1 2.5,0.3 2.5,1.3l0,2.5c0,1.6 -0.1,2.3 -1.4,2.3c-2.7,0 -2,-0.4 -7.6,-0.4c-1.3,0 -3.7,-0.1 -5,-0.1c-5,0 -5,2.1 -5,6.6c0,3.3 0.2,4.1 3.2,5.5c1.9,0.8 3.9,1.7 5.7,2.5c9,4 11,5 11,12.8c-0.1,2.7 -0.1,7.3 -1.3,9.7" style="fill-rule:nonzero;"/><path d="M395.1,42.5c0,-1.2 -0.2,-1.8 -1.8,-1.8l-2.9,0c-1.4,0 -2.2,0.1 -2.2,1.8l0,43c0,1.8 0.4,2 2.2,2l2.9,0c1.3,0 1.8,-0.4 1.8,-2l0,-17.3l0,-6.3l0,-19.4Z" style="fill-rule:nonzero;"/><path d="M285.4,43.7c-2.4,-2.6 -3.8,-3.1 -11.1,-3.1l-12.8,0c-1.4,0 -2.2,0.1 -2.2,1.8l0,43c0,1.8 0.4,2 2.2,2l2.9,0c1.3,0 1.8,-0.4 1.8,-2l0,-38.7c2.3,-0.1 4.1,-0.1 7.1,-0.1c1.5,0 4.8,0 6.1,0.7c1.8,1 2.5,3.5 2.5,8.8c0,4.7 -0.2,6.3 -1.1,7.6c-0.9,1.2 -2.4,1.8 -5,1.9c-0.2,0 -0.3,0 -0.5,0l-4.7,0c-0.3,0 -0.5,0.1 -0.6,0.2c-1.5,1.7 -0.6,4.1 -0.1,5.1c0.1,0.3 0.4,0.5 0.7,0.5l7.7,-0.1c2.4,-0.1 3.5,-0.5 5,-1.2c3.6,-1.9 5.3,-6.1 5.3,-13.4c0.1,-6.3 -1.1,-10.6 -3.2,-13Z" style="fill-rule:nonzero;"/></g></svg>