<svg xmlns="http://www.w3.org/2000/svg" xmlns:xlink="http://www.w3.org/1999/xlink" width="316" height="208.537" viewBox="0 0 316 208.537"><defs><filter id="a" x="0" y="0" width="316" height="208.537" filterUnits="userSpaceOnUse"><feOffset dx="18" input="SourceAlpha"/><feGaussianBlur stdDeviation="16" result="b"/><feFlood flood-opacity="0.161"/><feComposite operator="in" in2="b"/><feComposite in="SourceGraphic"/></filter></defs><g transform="translate(-38.037 -127.581)"><g transform="matrix(1, 0, 0, 1, 38.04, 127.58)" filter="url(#a)"><rect width="212.804" height="95.105" transform="matrix(1, -0.08, 0.08, 1, 30, 65.76)" fill="#e6f5f2"/></g><path d="M122.586,235.23l27.705-44.361,14.3-1.2-27.706,44.361Zm11-23.759-44.15,3.7,18.851,21.26,14.3-1.2-9.326-10.52,12.718-1.065ZM156,209.592l-7.6,12.174,14.3-1.2,7.6-12.172Zm14.064,15.559,2.229-.187c4.562-.382,6.707,2.68,7.059,6.887.388,4.633-.9,7.555-5.887,7.973l-2.157.181Zm-5.254,20.6,9.831-.824c7.64-.64,12.706-5.194,11.981-13.859-.684-8.171-5.885-12.007-13.595-11.362l-10.326.865Zm26.843-2.249,17.894-1.5-.432-5.163-11.105.93-.421-5.022,10.08-.843-.432-5.164-10.08.845-.392-4.669,10.717-.9-.433-5.163-17.506,1.466Zm22.279-1.867,16.3-1.365-.444-5.305-9.373.785-1.665-19.874-6.932.58Zm12.2-21.036,6.507-.545,1.665,19.874,6.931-.58-1.664-19.876,6.506-.545-.443-5.3-19.947,1.67Zm30,7.315,1.486-6.07a30.677,30.677,0,0,0,.761-4.088l.142-.012a27.958,27.958,0,0,0,1.36,3.911l2.4,5.746Zm6.449-15.71-8.735.732-7.122,25.953,6.931-.58,1.231-5.3,9.372-.785,1.954,5.035,7.285-.61Z" transform="translate(4.795 3.157)" fill="#034638"/><path d="M151.492,242.5l2.664-.223.13,1.56.033,0a3.222,3.222,0,0,1,2.939-2.012,2.673,2.673,0,0,1,2.785,1.4,3.365,3.365,0,0,1,2.871-1.877c2.437-.2,3.106,1.13,3.3,3.421l.419,4.988-2.926.245-.381-4.549c-.08-.96-.481-1.645-1.31-1.575-1.039.087-1.588.967-1.436,2.786l.3,3.574-2.923.245-.383-4.549c-.08-.958-.481-1.645-1.31-1.575-1.039.087-1.588.968-1.435,2.787l.3,3.574-2.924.245Z" transform="translate(18.702 14.735)" fill="#034638"/><path d="M171.619,249.228c-.054-.453-.14-.887-.176-1.327l-.033,0a2.913,2.913,0,0,1-2.552,1.753c-1.673.14-3.238-.563-3.392-2.4-.217-2.584,2.568-3.128,4.128-3.259a8.559,8.559,0,0,1,1.375,0c-.111-1.152-1-1.389-2.055-1.3a5.517,5.517,0,0,0-2.644.861l-.214-1.979a8.787,8.787,0,0,1,3.328-.884c2.162-.181,4.107.589,4.324,3.173l.264,3.152A10.227,10.227,0,0,0,174.3,249Zm-2.162-1.585a1.912,1.912,0,0,0,1.635-2.15c-.375.015-.8.017-1.238.054-.992.083-1.746.458-1.677,1.271.049.584.6.881,1.279.825" transform="translate(21.831 14.586)" fill="#034638"/><path d="M173.861,237.4l2.926-.245.61,7.28.032,0,2.14-3.762,3.2-.268-2.615,4.129,3.568,4.315-3.543.3-2.691-4-.032,0,.35,4.191-2.924.245Z" transform="translate(23.715 13.799)" fill="#034638"/><path d="M185.439,244.671c.261,1.156,1.192,1.536,2.622,1.416a5.485,5.485,0,0,0,2.529-.867l.173,2.064a8.482,8.482,0,0,1-3.058.8c-2.795.234-5.06-1.229-5.294-4.022a4.216,4.216,0,0,1,4.163-4.8c3.136-.263,4.459,1.869,4.67,4.387l.045.536Zm3.079-1.927a1.556,1.556,0,0,0-1.772-1.635,1.653,1.653,0,0,0-1.477,1.907Z" transform="translate(25.626 14.265)" fill="#034638"/><rect width="2.935" height="12.229" transform="translate(218.661 249.432) rotate(-4.784)" fill="#034638"/><path d="M202.218,246.666c-.055-.454-.141-.889-.176-1.328l-.033,0a2.915,2.915,0,0,1-2.552,1.752c-1.675.14-3.238-.563-3.392-2.4-.217-2.583,2.568-3.128,4.13-3.259a8.685,8.685,0,0,1,1.372,0c-.113-1.152-1-1.388-2.055-1.3a5.5,5.5,0,0,0-2.644.859l-.214-1.978a8.764,8.764,0,0,1,3.328-.884c2.161-.181,4.107.588,4.324,3.172l.264,3.152a10.317,10.317,0,0,0,.329,1.984Zm-2.161-1.586a1.912,1.912,0,0,0,1.635-2.15c-.375.015-.8.017-1.239.055-.99.082-1.746.457-1.677,1.269.049.584.6.883,1.28.825" transform="translate(28.688 14.012)" fill="#034638"/><path d="M210.857,245.942c-.055-.454-.141-.889-.176-1.328l-.033,0a2.915,2.915,0,0,1-2.552,1.752c-1.675.14-3.238-.563-3.392-2.4-.217-2.583,2.568-3.128,4.128-3.259a8.712,8.712,0,0,1,1.375,0c-.113-1.152-1-1.388-2.055-1.3a5.5,5.5,0,0,0-2.644.859l-.215-1.978a8.8,8.8,0,0,1,3.33-.885c2.161-.18,4.107.589,4.324,3.173l.264,3.152a10.317,10.317,0,0,0,.329,1.984Zm-2.162-1.586a1.911,1.911,0,0,0,1.635-2.15c-.375.015-.8.017-1.238.055-.992.082-1.746.457-1.677,1.269.049.584.6.883,1.279.825" transform="translate(30.624 13.85)" fill="#034638"/><path d="M219.607,239.058a3.37,3.37,0,0,0-1-.015c-1.365.115-2.045,1.169-1.907,2.826l.3,3.574-2.926.245-.709-8.465,2.666-.223.13,1.56.032,0a2.624,2.624,0,0,1,2.355-1.965,6.123,6.123,0,0,1,1,.015Z" transform="translate(32.568 13.67)" fill="#034638"/><path d="M220.373,242.783a7.281,7.281,0,0,0,2.8.355c.6-.05,1.178-.2,1.129-.782-.12-1.43-4.195-.073-4.451-3.128-.163-1.95,1.687-2.907,3.377-3.049a8.123,8.123,0,0,1,3.014.239l-.058,2.05a4.773,4.773,0,0,0-2.322-.377c-.633.051-1.339.226-1.3.7.109,1.317,4.376-.088,4.647,3.129.189,2.258-1.795,3-3.711,3.158a9.622,9.622,0,0,1-3.106-.149Z" transform="translate(34.018 13.571)" fill="#034638"/><rect width="2.739" height="2.642" transform="translate(263.724 255.277) rotate(-4.792)" fill="#034638"/><path d="M88.226,245.845c.04.476.1,1.211-.787,1.285-.541.045-.785-.233-.955-.711a2.227,2.227,0,0,1-1.692,1.011c-1.739.146-3.19-1.224-3.365-3.311a3.337,3.337,0,0,1,2.765-3.85,2.129,2.129,0,0,1,1.836.7.881.881,0,0,1,.823-.847c.889-.075.951.66.99,1.136Zm-3.319-.137c.966-.081,1.348-1.1,1.273-1.988s-.61-1.855-1.589-1.772c-1.017.084-1.383,1.127-1.31,2.016s.621,1.829,1.626,1.744" transform="translate(2.997 14.463)" fill="#da1884"/><path d="M96.487,245.153c.04.476.1,1.211-.787,1.285-.541.045-.785-.233-.954-.711a2.226,2.226,0,0,1-1.693,1.011c-1.738.146-3.19-1.224-3.364-3.311a3.336,3.336,0,0,1,2.764-3.85,2.126,2.126,0,0,1,1.836.7.884.884,0,0,1,.824-.847c.889-.075.95.66.989,1.136Zm-3.319-.137c.966-.081,1.348-1.1,1.273-1.987s-.61-1.856-1.588-1.774c-1.017.086-1.384,1.127-1.31,2.016s.621,1.829,1.624,1.744" transform="translate(4.849 14.308)" fill="#da1884"/><path d="M98.039,240.21a.94.94,0,0,1,.841-1.108.784.784,0,0,1,.907.611,2.012,2.012,0,0,1,1.727-.91,2.384,2.384,0,0,1,2.747,2.287l.3,3.555a.936.936,0,1,1-1.855.155l-.272-3.233a1.2,1.2,0,1,0-2.4.2l.272,3.234a.936.936,0,1,1-1.856.155Z" transform="translate(6.722 14.165)" fill="#da1884"/><path d="M112.856,244.51a.94.94,0,0,1-.841,1.108.891.891,0,0,1-.993-.7,2.029,2.029,0,0,1-1.628.994,3.294,3.294,0,0,1-3.345-3.237c-.151-1.8.684-3.753,2.681-3.921a2.7,2.7,0,0,1,1.819.5l-.212-2.524a.936.936,0,1,1,1.855-.155Zm-3.675-4.076c-.966.081-1.358,1.138-1.284,2.015s.633,1.828,1.6,1.746c1.017-.084,1.369-1.152,1.293-2.053s-.616-1.791-1.608-1.708" transform="translate(8.515 13.454)" fill="#da1884"/><path d="M121.1,243.091c.04.476.1,1.211-.787,1.285-.541.045-.785-.233-.954-.711a2.229,2.229,0,0,1-1.693,1.011c-1.738.146-3.19-1.224-3.364-3.311a3.336,3.336,0,0,1,2.764-3.85,2.127,2.127,0,0,1,1.836.7.883.883,0,0,1,.824-.847c.889-.075.95.66.989,1.136Zm-3.319-.137c.966-.081,1.348-1.1,1.273-1.987s-.61-1.856-1.588-1.774c-1.017.086-1.384,1.127-1.31,2.016s.621,1.829,1.624,1.744" transform="translate(10.365 13.846)" fill="#da1884"/><path d="M127.323,238.711c-.465.039-.907-.288-1.5-.237a1.683,1.683,0,0,0-1.4,2.023,1.714,1.714,0,0,0,1.715,1.737,10.287,10.287,0,0,0,1.347-.5.816.816,0,0,1,.865.744c.081.954-1.49,1.41-2.159,1.465a3.386,3.386,0,0,1-3.622-3.289,3.463,3.463,0,0,1,3.022-3.872c.734-.061,2.289.081,2.365.983.032.386-.2.911-.633.947" transform="translate(12.217 13.712)" fill="#da1884"/><path d="M129.548,235.056a.936.936,0,1,1,1.855-.155l.212,2.525.026,0a2.22,2.22,0,0,1,1.633-.786,2.384,2.384,0,0,1,2.747,2.287l.3,3.555a.936.936,0,1,1-1.855.155l-.271-3.233a1.2,1.2,0,1,0-2.4.2l.271,3.233a.936.936,0,1,1-1.855.155Z" transform="translate(13.783 13.079)" fill="#da1884"/><path d="M138.452,237.839l-.411.034a.754.754,0,0,1-.88-.743.8.8,0,0,1,.743-.88l.413-.034-.093-1.108a.936.936,0,1,1,1.856-.155l.092,1.108.528-.044a.818.818,0,1,1,.137,1.623l-.528.044.357,4.277a.936.936,0,1,1-1.855.155Z" transform="translate(15.49 13.091)" fill="#da1884"/><path d="M102.722,255.043l.454-.622c.3-.414.517-.64.929-.674a.756.756,0,0,1,.777.753,2.237,2.237,0,0,1-.606,1.283l-.294.375.958.919a.853.853,0,0,1,.338.619.918.918,0,0,1-.829.939.851.851,0,0,1-.709-.24l-.966-.852a4.144,4.144,0,0,1-2.731,1.46c-1.726.146-3.238-.715-3.388-2.518a3.305,3.305,0,0,1,1.71-2.957,2.392,2.392,0,0,1-1-1.668c-.124-1.468,1.2-2.278,2.523-2.389,1.16-.1,2.683.437,2.8,1.8a2.734,2.734,0,0,1-1.448,2.392Zm-3.249-.545a1.921,1.921,0,0,0-.977,1.651,1.215,1.215,0,0,0,1.446,1.149,2.231,2.231,0,0,0,1.573-.883Zm.545-3.561c-.334.028-.752.323-.719.71s.233.6.775,1.049c.371-.225.895-.619.857-1.083a.774.774,0,0,0-.913-.676" transform="translate(6.411 16.556)" fill="#da1884"/><path d="M113.04,249.039a1.065,1.065,0,0,1-.954,1.156,1.091,1.091,0,0,1-1.133-.982,1.047,1.047,0,0,1,2.087-.174M111.3,252a.936.936,0,1,1,1.855-.155l.415,4.947a.936.936,0,1,1-1.855.155Z" transform="translate(9.617 16.253)" fill="#da1884"/><path d="M115.845,251.161a.941.941,0,0,1,.841-1.109.786.786,0,0,1,.907.612,2.013,2.013,0,0,1,1.727-.911,2.386,2.386,0,0,1,2.747,2.287l.3,3.556a.936.936,0,1,1-1.855.155l-.272-3.234a1.2,1.2,0,1,0-2.4.2l.272,3.234a.936.936,0,1,1-1.856.154Z" transform="translate(10.712 16.619)" fill="#da1884"/><path d="M126.641,250.922l-2.151.18a.815.815,0,1,1-.136-1.623l4.212-.353a.568.568,0,0,1,.654.529.794.794,0,0,1-.147.57l-2.58,4.341,2.447-.2a.814.814,0,1,1,.136,1.621l-4.315.362c-.413.034-.777-.143-.813-.568a1.016,1.016,0,0,1,.125-.517Z" transform="translate(12.447 16.481)" fill="#da1884"/><path d="M132.764,252.848a1.607,1.607,0,0,0,1.863,1.194c.954-.08,1.548-.883,2.038-.923a.825.825,0,0,1,.826.734c.067.8-1.517,1.71-2.9,1.825a3.389,3.389,0,0,1-3.776-3.277,3.346,3.346,0,1,1,6.64-.776.713.713,0,0,1-.742.892Zm2.807-1.48a1.473,1.473,0,0,0-1.6-1.293,1.5,1.5,0,0,0-1.35,1.54Z" transform="translate(14.067 16.345)" fill="#da1884"/><path d="M139.487,250.193l-.413.034a.753.753,0,0,1-.879-.743.793.793,0,0,1,.743-.879l.413-.035-.093-1.107a.936.936,0,1,1,1.856-.155l.092,1.107.528-.044a.818.818,0,1,1,.136,1.623l-.528.044.359,4.277a.936.936,0,1,1-1.856.155Z" transform="translate(15.722 15.859)" fill="#da1884"/></g></svg>