<?xml version="1.0" encoding="utf-8"?>
<!-- Generator: Adobe Illustrator 16.0.0, SVG Export Plug-In . SVG Version: 6.00 Build 0)  -->
<svg version="1.2" baseProfile="tiny" id="Layer_1" xmlns="http://www.w3.org/2000/svg" xmlns:xlink="http://www.w3.org/1999/xlink"
	 x="0px" y="0px" width="549.565px" height="201.566px" viewBox="-91.075 -33.724 549.565 201.566" xml:space="preserve">
<g>
	<g>
		<path fill="#98A6AC" d="M-52.513,138.668c1.773,1.836,2.66,4.344,2.66,7.523v20.488c0,0.408-0.205,0.611-0.611,0.611h-3.059
			c-0.408,0-0.612-0.203-0.612-0.611v-19.633c0-2.24-0.643-4.025-1.927-5.352c-1.284-1.324-2.966-1.988-5.045-1.988
			c-2.162,0-3.906,0.654-5.231,1.959c-1.324,1.305-1.985,3.057-1.985,5.26v19.754c0,0.408-0.205,0.611-0.612,0.611h-3.119
			c-0.408,0-0.612-0.203-0.612-0.611v-19.633c0-2.24-0.633-4.025-1.896-5.352c-1.264-1.324-2.957-1.988-5.077-1.988
			c-2.161,0-3.884,0.654-5.167,1.959c-1.285,1.305-1.927,3.057-1.927,5.26v19.754c0,0.408-0.204,0.611-0.612,0.611h-3.119
			c-0.408,0-0.611-0.203-0.611-0.611v-29.725c0-0.406,0.204-0.611,0.611-0.611h3.119c0.408,0,0.612,0.205,0.612,0.611v2.447
			c0,0.082,0.03,0.127,0.092,0.152c0.061,0.021,0.132-0.01,0.214-0.09c0.897-1.184,2.049-2.07,3.456-2.662
			c1.407-0.59,2.966-0.887,4.679-0.887c2.12,0,3.935,0.428,5.443,1.285c1.508,0.855,2.65,2.1,3.425,3.73
			c0.081,0.201,0.182,0.201,0.305,0c0.897-1.672,2.161-2.926,3.792-3.762s3.487-1.254,5.566-1.254
			C-56.703,135.917-54.288,136.834-52.513,138.668z"/>
		<path fill="#98A6AC" d="M13.448,138.668c1.996,1.877,2.997,4.365,2.997,7.463v20.549c0,0.408-0.207,0.611-0.612,0.611h-3.119
			c-0.408,0-0.612-0.203-0.612-0.611v-2.508c0-0.08-0.03-0.143-0.091-0.184c-0.062-0.039-0.133-0.02-0.214,0.063
			c-1.02,1.223-2.346,2.15-3.975,2.783c-1.631,0.631-3.446,0.947-5.444,0.947c-2.895,0-5.321-0.734-7.277-2.203
			c-1.958-1.467-2.937-3.709-2.937-6.727c0-3.059,1.111-5.475,3.334-7.248s5.311-2.66,9.266-2.66h7.095
			c0.163,0,0.245-0.082,0.245-0.244v-2.324c0-2.08-0.581-3.721-1.743-4.924c-1.163-1.201-2.967-1.805-5.413-1.805
			c-1.957,0-3.547,0.379-4.77,1.133c-1.224,0.754-1.979,1.803-2.264,3.148c-0.122,0.408-0.367,0.592-0.734,0.551l-3.302-0.428
			c-0.449-0.082-0.632-0.246-0.55-0.49c0.326-2.283,1.549-4.137,3.67-5.564c2.12-1.428,4.771-2.139,7.951-2.139
			C8.616,135.858,11.45,136.795,13.448,138.668z M9.472,162.247c1.753-1.203,2.63-2.822,2.63-4.861v-4.771
			c0-0.162-0.082-0.244-0.245-0.244H5.436c-2.694,0-4.853,0.549-6.483,1.65c-1.631,1.102-2.447,2.631-2.447,4.588
			c0,1.793,0.622,3.15,1.866,4.066c1.244,0.918,2.865,1.377,4.863,1.377C5.641,164.051,7.719,163.45,9.472,162.247z"/>
		<path fill="#98A6AC" d="M60.234,166.68v-41.588c0-0.408,0.202-0.613,0.611-0.613h3.119c0.408,0,0.612,0.205,0.612,0.613v25.014
			c0,0.082,0.031,0.143,0.09,0.184c0.063,0.041,0.133,0.021,0.215-0.063l12.966-13.576c0.204-0.205,0.448-0.307,0.734-0.307h3.669
			c0.245,0,0.407,0.082,0.489,0.244c0.082,0.164,0.041,0.328-0.122,0.49l-7.829,8.686c-0.082,0.082-0.102,0.182-0.062,0.305
			l9.358,20.488l0.061,0.246c0,0.326-0.184,0.488-0.551,0.488h-3.302c-0.327,0-0.552-0.162-0.673-0.488l-7.89-17.859
			c-0.083-0.162-0.185-0.184-0.306-0.061l-6.728,7.094c-0.083,0.082-0.123,0.184-0.123,0.307v10.396
			c0,0.408-0.204,0.611-0.612,0.611h-3.119C60.437,167.292,60.234,167.088,60.234,166.68z"/>
		<path fill="#98A6AC" d="M148.428,150.901v1.957c0,0.408-0.205,0.611-0.612,0.611h-19.754c-0.164,0-0.245,0.082-0.245,0.246
			c0.082,2.244,0.204,3.689,0.367,4.342c0.448,1.834,1.406,3.283,2.875,4.342c1.467,1.061,3.342,1.59,5.626,1.59
			c1.713,0,3.221-0.387,4.526-1.166c1.305-0.77,2.324-1.871,3.059-3.299c0.244-0.367,0.529-0.447,0.855-0.244l2.387,1.408
			c0.325,0.203,0.407,0.488,0.244,0.855c-1.02,1.957-2.549,3.496-4.587,4.617c-2.04,1.121-4.384,1.682-7.037,1.682
			c-2.893-0.041-5.317-0.734-7.275-2.08c-1.957-1.346-3.363-3.219-4.22-5.627c-0.734-1.957-1.101-4.77-1.101-8.439
			c0-1.713,0.031-3.109,0.092-4.189c0.061-1.08,0.214-2.049,0.458-2.904c0.693-2.65,2.089-4.771,4.19-6.361
			c2.1-1.59,4.638-2.383,7.614-2.383c3.71,0,6.564,0.938,8.563,2.811c1.998,1.877,3.242,4.525,3.73,7.951
			C148.345,147.762,148.428,149.188,148.428,150.901z M130.905,141.206c-1.325,1.041-2.192,2.439-2.599,4.191
			c-0.244,0.855-0.408,2.242-0.489,4.158c0,0.164,0.082,0.246,0.245,0.246h15.84c0.162,0,0.244-0.082,0.244-0.246
			c-0.083-1.834-0.204-3.139-0.367-3.914c-0.449-1.836-1.356-3.291-2.722-4.373c-1.367-1.08-3.09-1.621-5.168-1.621
			C133.891,139.647,132.229,140.167,130.905,141.206z"/>
		<path fill="#98A6AC" d="M191.789,166.68v-41.588c0-0.408,0.204-0.613,0.611-0.613h3.119c0.408,0,0.612,0.205,0.612,0.613v41.588
			c0,0.408-0.204,0.611-0.612,0.611H192.4C191.993,167.292,191.789,167.088,191.789,166.68z"/>
		<path fill="#98A6AC" d="M259.8,138.668c1.997,1.877,2.995,4.365,2.995,7.463v20.549c0,0.408-0.204,0.611-0.61,0.611h-3.12
			c-0.408,0-0.609-0.203-0.609-0.611v-2.508c0-0.08-0.031-0.143-0.092-0.184c-0.063-0.039-0.135-0.02-0.215,0.063
			c-1.021,1.223-2.346,2.15-3.975,2.783c-1.632,0.631-3.446,0.947-5.443,0.947c-2.902,0-5.322-0.734-7.278-2.203
			c-1.958-1.467-2.937-3.709-2.937-6.727c0-3.059,1.109-5.475,3.333-7.248c2.222-1.773,5.311-2.66,9.265-2.66h7.096
			c0.164,0,0.246-0.082,0.246-0.244v-2.324c0-2.08-0.583-3.721-1.745-4.924c-1.16-1.201-2.966-1.805-5.412-1.805
			c-1.956,0-3.547,0.379-4.77,1.133c-1.226,0.754-1.979,1.803-2.265,3.148c-0.121,0.408-0.365,0.592-0.733,0.551l-3.302-0.428
			c-0.449-0.082-0.633-0.246-0.551-0.49c0.324-2.283,1.55-4.137,3.67-5.564s4.77-2.139,7.95-2.139
			C254.968,135.858,257.803,136.795,259.8,138.668z M255.824,162.247c1.752-1.203,2.631-2.822,2.631-4.861v-4.771
			c0-0.162-0.082-0.244-0.246-0.244h-6.423c-2.69,0-4.852,0.549-6.483,1.65c-1.63,1.102-2.444,2.631-2.444,4.588
			c0,1.793,0.622,3.15,1.866,4.066c1.241,0.918,2.862,1.377,4.86,1.377C251.991,164.051,254.07,163.45,255.824,162.247z"/>
		<path fill="#98A6AC" d="M325.792,138.668c1.996,1.877,2.996,4.365,2.996,7.463v20.549c0,0.408-0.205,0.611-0.611,0.611h-3.118
			c-0.408,0-0.613-0.203-0.613-0.611v-2.508c0-0.08-0.029-0.143-0.092-0.184c-0.061-0.039-0.133-0.02-0.215,0.063
			c-1.018,1.223-2.344,2.15-3.975,2.783c-1.632,0.631-3.445,0.947-5.443,0.947c-2.895,0-5.32-0.734-7.279-2.203
			c-1.956-1.467-2.935-3.709-2.935-6.727c0-3.059,1.104-5.475,3.334-7.248c2.222-1.773,5.311-2.66,9.265-2.66h7.095
			c0.163,0,0.245-0.082,0.245-0.244v-2.324c0-2.08-0.581-3.721-1.743-4.924c-1.163-1.201-2.967-1.805-5.413-1.805
			c-1.957,0-3.548,0.379-4.77,1.133c-1.223,0.754-1.979,1.803-2.263,3.148c-0.123,0.408-0.368,0.592-0.734,0.551l-3.304-0.428
			c-0.449-0.082-0.632-0.246-0.551-0.49c0.328-2.283,1.551-4.137,3.67-5.564c2.121-1.428,4.771-2.139,7.951-2.139
			C320.961,135.858,323.792,136.795,325.792,138.668z M321.814,162.247c1.755-1.203,2.631-2.822,2.631-4.861v-4.771
			c0-0.162-0.082-0.244-0.245-0.244h-6.421c-2.69,0-4.854,0.549-6.482,1.65c-1.632,1.102-2.448,2.631-2.448,4.588
			c0,1.793,0.622,3.15,1.866,4.066c1.24,0.918,2.863,1.377,4.862,1.377C317.981,164.051,320.063,163.45,321.814,162.247z"/>
		<path fill="#98A6AC" d="M388.541,136.834c0.325,0.164,0.448,0.428,0.366,0.795l-0.673,2.996c-0.122,0.41-0.387,0.529-0.795,0.367
			c-0.693-0.285-1.487-0.428-2.387-0.428l-0.792,0.061c-2.122,0.082-3.875,0.867-5.261,2.355c-1.387,1.488-2.079,3.375-2.079,5.656
			v18.043c0,0.408-0.204,0.611-0.611,0.611h-3.12c-0.407,0-0.611-0.203-0.611-0.611v-29.725c0-0.406,0.204-0.611,0.611-0.611h3.12
			c0.407,0,0.611,0.205,0.611,0.611v3.73c0,0.123,0.029,0.195,0.092,0.215c0.06,0.021,0.111-0.01,0.151-0.092
			c0.857-1.508,1.946-2.68,3.272-3.516s2.864-1.254,4.616-1.254C386.399,136.04,387.562,136.305,388.541,136.834z"/>
		<path fill="#98A6AC" d="M433.464,166.497c-1.773-0.734-3.14-1.711-4.098-2.936c-0.962-1.225-1.435-2.588-1.435-4.098v-0.734
			c0-0.406,0.2-0.611,0.608-0.611h2.936c0.408,0,0.611,0.205,0.611,0.611v0.49c0,1.346,0.703,2.518,2.11,3.518
			c1.406,0.998,3.169,1.496,5.289,1.496s3.834-0.479,5.139-1.436c1.305-0.959,1.958-2.172,1.958-3.641
			c0-1.018-0.337-1.854-1.011-2.506c-0.672-0.652-1.467-1.164-2.385-1.529c-0.917-0.367-2.334-0.836-4.25-1.406
			c-2.285-0.652-4.164-1.305-5.628-1.959c-1.467-0.65-2.7-1.559-3.698-2.721c-1.001-1.162-1.499-2.639-1.499-4.434
			c0-2.609,1.019-4.689,3.058-6.238c2.041-1.549,4.729-2.324,8.074-2.324c2.24,0,4.228,0.365,5.963,1.1
			c1.732,0.734,3.067,1.744,4.006,3.027c0.939,1.285,1.405,2.723,1.405,4.313v0.184c0,0.408-0.204,0.611-0.611,0.611h-2.873
			c-0.408,0-0.613-0.203-0.613-0.611v-0.184c0-1.385-0.662-2.547-1.987-3.486c-1.327-0.938-3.108-1.406-5.352-1.406
			c-2.079,0-3.752,0.418-5.015,1.254c-1.264,0.836-1.896,1.986-1.896,3.455c0,1.387,0.611,2.447,1.836,3.18
			c1.224,0.734,3.119,1.469,5.687,2.203c2.363,0.693,4.283,1.346,5.75,1.957c1.468,0.613,2.731,1.498,3.793,2.66
			c1.059,1.162,1.589,2.682,1.589,4.557c0,2.65-1.04,4.77-3.119,6.361c-2.079,1.59-4.832,2.385-8.257,2.385
			C437.267,167.598,435.237,167.231,433.464,166.497z"/>
	</g>
	<g>
		<g>
			<path fill="#7971B3" d="M-0.278-33.724h22.896c0.651,0,1.205,0.215,1.663,0.641c0.456,0.429,0.685,0.947,0.685,1.557V92.266
				c0,0.613-0.229,1.131-0.685,1.557c-0.458,0.43-1.012,0.641-1.663,0.641H-0.278c-0.654,0-1.208-0.211-1.663-0.641
				c-0.458-0.426-0.685-0.943-0.685-1.557V11.508c0-0.486-0.131-0.732-0.391-0.732c-0.263,0-0.523,0.183-0.783,0.549l-20.743,30.399
				c-0.654,0.979-1.565,1.465-2.74,1.465h-11.545c-1.174,0-2.088-0.486-2.74-1.465L-62.31,11.325
				c-0.263-0.366-0.523-0.518-0.783-0.458c-0.263,0.063-0.392,0.337-0.392,0.824v80.575c0,0.613-0.229,1.131-0.685,1.557
				c-0.458,0.43-1.012,0.641-1.663,0.641h-22.895c-0.654,0-1.208-0.211-1.664-0.641c-0.458-0.426-0.685-0.943-0.685-1.557V-31.526
				c0-0.609,0.226-1.127,0.685-1.557c0.456-0.426,1.009-0.641,1.664-0.641h22.895c1.174,0,2.085,0.489,2.74,1.465l29.353,42.668
				c0.391,0.732,0.783,0.732,1.174,0l29.549-42.668C-2.366-33.235-1.452-33.724-0.278-33.724z"/>
			<path fill="#7971B3" d="M76.302,88.95c-7.547-3.799-13.412-9.109-17.597-15.936c-4.186-6.822-6.278-14.686-6.278-23.588V11.329
				c0-8.781,2.092-16.556,6.278-23.321c4.185-6.766,10.05-12.017,17.597-15.755c7.543-3.738,16.266-5.608,26.157-5.608
				c10.017,0,18.801,1.87,26.348,5.608c7.544,3.738,13.412,8.99,17.596,15.755c4.185,6.765,6.278,14.54,6.278,23.321v38.097
				c0,8.902-2.093,16.795-6.278,23.676c-4.185,6.887-10.052,12.197-17.596,15.936c-7.547,3.738-16.331,5.607-26.348,5.607
				C92.567,94.645,83.845,92.745,76.302,88.95z M119.39,66.873c4.31-4.154,6.467-9.673,6.467-16.558V11.151
				c0-6.882-2.125-12.431-6.373-16.646c-4.25-4.211-9.925-6.32-17.026-6.32c-6.976,0-12.588,2.109-16.835,6.32
				C81.373-1.28,79.25,4.269,79.25,11.151v39.165c0,6.885,2.122,12.403,6.373,16.558c4.247,4.157,9.859,6.229,16.835,6.229
				C109.433,73.102,115.077,71.03,119.39,66.873z"/>
			<path fill="#7971B3" d="M274.559-12.207c-0.459,0.429-1.012,0.641-1.664,0.641h-64.184c-0.654,0-0.979,0.306-0.979,0.916v28.384
				c0,0.613,0.324,0.916,0.979,0.916h42.072c0.65,0,1.203,0.214,1.662,0.641c0.457,0.429,0.686,0.947,0.686,1.557V38.61
				c0,0.612-0.229,1.13-0.686,1.557c-0.459,0.429-1.012,0.641-1.662,0.641h-42.072c-0.654,0-0.979,0.306-0.979,0.916v29.667
				c0,0.611,0.324,0.914,0.979,0.914h64.184c0.652,0,1.205,0.215,1.664,0.641c0.455,0.43,0.686,0.947,0.686,1.557v17.764
				c0,0.613-0.23,1.131-0.686,1.557c-0.459,0.43-1.012,0.641-1.664,0.641h-90.406c-0.654,0-1.208-0.211-1.664-0.641
				c-0.458-0.426-0.685-0.943-0.685-1.557V-31.526c0-0.609,0.226-1.127,0.685-1.557c0.456-0.426,1.009-0.641,1.664-0.641h90.406
				c0.652,0,1.205,0.215,1.664,0.641c0.455,0.429,0.686,0.947,0.686,1.557v17.763C275.244-13.151,275.014-12.633,274.559-12.207z"/>
			<path fill="#7971B3" d="M333.166,92.633L292.855-31.16l-0.195-0.732c0-1.219,0.715-1.832,2.152-1.832h24.656
				c1.434,0,2.348,0.612,2.74,1.832l26.025,89.364c0.129,0.367,0.324,0.55,0.588,0.55c0.26,0,0.455-0.183,0.586-0.55l25.635-89.364
				c0.393-1.219,1.303-1.832,2.74-1.832h24.068c0.783,0,1.371,0.246,1.762,0.733c0.391,0.489,0.455,1.099,0.195,1.831L362.91,92.633
				c-0.391,1.221-1.24,1.83-2.543,1.83h-24.656C334.404,94.463,333.559,93.854,333.166,92.633z"/>
		</g>
		<g>
			<path fill-rule="evenodd" fill="#98A6AC" d="M454.509,40.425c-1.458,0-2.907-0.741-3.878-1.983L421.629,1.316
				c-0.745-0.953-1.142-2.11-1.117-3.257c0.027-1.276,0.585-2.43,1.529-3.167c0.693-0.541,1.542-0.827,2.454-0.827
				c1.458,0,2.908,0.742,3.879,1.984l29.002,37.122c1.633,2.091,1.448,4.973-0.411,6.425
				C456.271,40.139,455.422,40.425,454.509,40.425z"/>
			<path fill-rule="evenodd" fill="#98A6AC" d="M424.495,78.855c-0.912,0-1.762-0.286-2.456-0.829
				c-0.943-0.737-1.501-1.892-1.528-3.167c-0.024-1.147,0.372-2.305,1.117-3.258l29.004-37.123c0.97-1.242,2.419-1.983,3.878-1.983
				c0.912,0,1.761,0.286,2.454,0.828c0.944,0.737,1.502,1.892,1.529,3.167c0.024,1.147-0.372,2.304-1.116,3.257l-29.005,37.125
				C427.402,78.114,425.953,78.855,424.495,78.855z"/>
		</g>
	</g>
</g>
</svg>
