<svg xmlns="http://www.w3.org/2000/svg" xmlns:xlink="http://www.w3.org/1999/xlink" id="Group_1226" data-name="Group 1226" width="111.174" height="144.527" viewBox="0 0 111.174 144.527"><g id="Group_1225" data-name="Group 1225"><path id="Path_752" data-name="Path 752" d="M115.769,132.523a278.447,278.447,0,0,0-8.111,30.6h26.728V86.242c-4.584,7.625-7.779,14.607-18.616,46.281" transform="translate(-23.211 -18.594)" fill="#151515"></path><path id="Path_753" data-name="Path 753" d="M19.323,70.036h-.918v3.487h1.407c1.285,0,1.917-.571,1.917-1.632,0-1.428-.918-1.856-2.407-1.856" transform="translate(-3.968 -15.1)" fill="#151515"></path><path id="Path_754" data-name="Path 754" d="M21.321,64.811c0-1.122-.612-1.509-1.774-1.509H18.405v3.182h1c1.305,0,1.917-.53,1.917-1.672" transform="translate(-3.968 -13.648)" fill="#151515"></path><path id="Path_755" data-name="Path 755" d="M21.321,41.911c0-1.122-.612-1.509-1.774-1.509H18.405v3.182h1c1.305,0,1.917-.53,1.917-1.672" transform="translate(-3.968 -8.711)" fill="#151515"></path><path id="Path_756" data-name="Path 756" d="M68.638,18.256l-1.509,4.976h2.978l-1.346-4.976Z" transform="translate(-14.473 -3.936)" fill="#151515"></path><path id="Path_757" data-name="Path 757" d="M73.879,63.718H72.615v8.321h1.366c2.61,0,3.671-1.55,3.671-4.2,0-3.324-1.49-4.12-3.774-4.12" transform="translate(-15.656 -13.738)" fill="#151515"></path><path id="Path_758" data-name="Path 758" d="M37.156,17.736H35.851v3.569h1.305a1.671,1.671,0,0,0,1.835-1.856c0-1.326-.693-1.713-1.835-1.713" transform="translate(-7.73 -3.824)" fill="#151515"></path><path id="Path_759" data-name="Path 759" d="M54.723,26.092c0-1.428-.918-1.856-2.407-1.856H51.4v3.487h1.407c1.285,0,1.917-.57,1.917-1.632" transform="translate(-11.082 -5.225)" fill="#151515"></path><path id="Path_760" data-name="Path 760" d="M19.323,47.136h-.918v3.487h1.407c1.285,0,1.917-.571,1.917-1.632,0-1.428-.918-1.856-2.407-1.856" transform="translate(-3.968 -10.163)" fill="#151515"></path><path id="Path_761" data-name="Path 761" d="M0,0V144.527H66.1A183.945,183.945,0,0,0,75.458,124.2c10.887-27.732,27.862-48.163,35.717-65.291V0ZM76.007,34.852V37.3H71.6v3h5.71v2.488H68.767V29.59h8.158v2.468h-5.3v2.795ZM37.5,11.627h4.569c2.385,0,4.119.714,4.119,3.223a3.025,3.025,0,0,1-2.2,3v.061a3,3,0,0,1,2.754,3.141c0,2.468-1.755,3.773-4.753,3.773H37.5ZM16.11,60.748H11.622v-13.2h4.568c2.387,0,4.12.714,4.12,3.223a3.025,3.025,0,0,1-2.2,3v.06a3.005,3.005,0,0,1,2.753,3.142c0,2.468-1.754,3.773-4.752,3.773m0-17.963H11.622V29.59h4.568c2.387,0,4.12.714,4.12,3.223a3.023,3.023,0,0,1-2.2,3v.062a3,3,0,0,1,2.753,3.141c0,2.468-1.754,3.773-4.752,3.773m5.914-23.592c0,2.9-.653,5.874-5.3,5.874-4.2,0-5.14-2.284-5.14-5.649V11.627h2.856v7.2c0,2.08.163,3.63,2.427,3.63,2.1,0,2.366-1.509,2.366-3.283V11.627h2.794ZM33.791,55.12c0,2.9-.653,5.874-5.3,5.874-4.2,0-5.139-2.284-5.139-5.649V47.553H26.2v7.2c0,2.08.163,3.63,2.427,3.63,2.1,0,2.366-1.509,2.366-3.283V47.553h2.794Zm0-17.963c0,2.9-.653,5.874-5.3,5.874-4.2,0-5.139-2.284-5.139-5.649V29.59H26.2v7.2c0,2.081.163,3.631,2.427,3.631,2.1,0,2.366-1.509,2.366-3.283V29.59h2.794Zm-1.61-12.334-3.059-5.139h-.979v5.139H25.267v-13.2h4.711c2.284,0,4.364.8,4.364,3.774a3.976,3.976,0,0,1-2.386,3.732l3.426,5.69Zm7.81,35.925H37.136v-13.2h2.855ZM36.157,41.807l1.081-2.3a7.418,7.418,0,0,0,3.487.979q1.9,0,1.9-1.468c0-.938-.755-1.428-1.917-1.795-2.243-.714-3.916-1.387-3.916-3.916,0-2.631,2.06-3.957,4.548-3.957a8.693,8.693,0,0,1,3.916.979l-1.02,2.244a6.715,6.715,0,0,0-2.855-.715c-1.142,0-1.672.47-1.672,1.183,0,.877.734,1.2,2.06,1.693,1.958.694,3.773,1.449,3.773,3.978,0,2.9-1.978,4.324-4.772,4.324a9.184,9.184,0,0,1-4.609-1.224m15.5,18.942h-8.3v-13.2h2.876V58.24h5.425ZM48.434,29.59h2.855v13.2H48.434Zm2.631-4.767H48.108L51.82,13.647l.591-2.02h3.61l4.284,13.2h-3.08L56.2,21.682h-4.1Zm7.75,35.925H54.1v-13.2h4.446c3.243,0,6.384,1.326,6.384,6.139,0,5.365-2.916,7.057-6.118,7.057M65.5,42.786H62.445l-4.936-9.2-.122.021v9.177H54.655V29.59h3.67l4.344,8.383.123-.02V29.59H65.5Zm-.225-27.161-.122.02v9.178H62.425v-13.2h3.67L70.44,20.01l.122-.02V11.627h2.712v13.2H70.215Zm5.3,45.123H67.726v-13.2h2.855Zm14.215,0H81.738L76.8,51.55l-.122.02v9.178H73.947v-13.2h3.671l4.344,8.383.122-.02V47.553H84.8ZM83.613,43.031A9.189,9.189,0,0,1,79,41.807l1.081-2.3a7.419,7.419,0,0,0,3.488.979q1.9,0,1.9-1.468c0-.938-.755-1.428-1.918-1.795-2.243-.714-3.916-1.387-3.916-3.916,0-2.631,2.06-3.957,4.549-3.957a8.693,8.693,0,0,1,3.916.979L87.08,32.568a6.712,6.712,0,0,0-2.854-.715c-1.142,0-1.672.47-1.672,1.183,0,.877.733,1.2,2.06,1.693,1.958.694,3.772,1.449,3.772,3.978,0,2.9-1.977,4.324-4.772,4.324M98.564,60.014a9.656,9.656,0,0,1-4.405.979c-4.814,0-6.67-3.039-6.67-6.853,0-3.978,2.367-6.935,6.67-6.935a8.147,8.147,0,0,1,4.385,1.285l-1.081,2.162a7.034,7.034,0,0,0-3.263-.9c-2.223,0-3.691,1.347-3.691,4.242,0,2.448.835,4.488,3.814,4.488a5.442,5.442,0,0,0,1.407-.184v-4.12h2.835ZM94.708,43.031A9.184,9.184,0,0,1,90.1,41.807l1.081-2.3a7.418,7.418,0,0,0,3.487.979q1.9,0,1.9-1.468c0-.938-.755-1.428-1.917-1.795C92.4,36.5,90.731,35.831,90.731,33.3c0-2.631,2.06-3.957,4.549-3.957a8.7,8.7,0,0,1,3.916.979l-1.02,2.244a6.713,6.713,0,0,0-2.855-.715c-1.142,0-1.672.47-1.672,1.183,0,.877.734,1.2,2.06,1.693,1.959.694,3.773,1.449,3.773,3.978,0,2.9-1.977,4.324-4.772,4.324" fill="#151515"></path><path id="Path_762" data-name="Path 762" d="M54.315,19.011c0-1.122-.612-1.509-1.774-1.509H51.4v3.182h1c1.305,0,1.917-.53,1.917-1.672" transform="translate(-11.082 -3.773)" fill="#151515"></path></g></svg>