<svg xmlns="http://www.w3.org/2000/svg" id="Layer_1" data-name="Layer 1" viewBox="0 0 283.46 141.73"><defs><style>.cls-1{fill:#1d1d1b;}.cls-2{fill:#009fe3;}</style></defs><path class="cls-1" d="M77,55.46A16,16,0,0,1,76,61a12.58,12.58,0,0,1-2.6,4.4l-38.9,51.39H76.06v20.66H2.4V126.16a13.79,13.79,0,0,1,.9-4.31A15.9,15.9,0,0,1,6,117L45.25,65H4.91V44.32H77Z"></path><path class="cls-1" d="M119.27,3V78.37h4.14a8.17,8.17,0,0,0,4-.77A9.08,9.08,0,0,0,130.05,75l17.61-26.23a11.2,11.2,0,0,1,3.68-3.37,11.06,11.06,0,0,1,5.31-1.12h25.51L158.08,77.47A29.64,29.64,0,0,1,150,84.84a22.47,22.47,0,0,1,3.77,3.54A35.54,35.54,0,0,1,157,92.92l26.24,44.56H158.08a12.83,12.83,0,0,1-5.39-1,8.64,8.64,0,0,1-3.77-3.64l-17.61-33a6.93,6.93,0,0,0-2.6-2.92,9.41,9.41,0,0,0-4.05-.67h-5.39v41.23H91.42V3Z"></path><path class="cls-1" d="M217.82,58.69a39.38,39.38,0,0,1,9.93-11.86,20.61,20.61,0,0,1,12.89-4.31q6.29,0,10.24,3L249.09,66a4.26,4.26,0,0,1-1.49,2.69,4.8,4.8,0,0,1-2.83.72c-.48,0-1.11,0-1.88-.09s-1.59-.13-2.43-.22l-2.56-.27a23.34,23.34,0,0,0-2.38-.14q-6.11,0-9.75,3.24a25.46,25.46,0,0,0-6.15,9v56.6H191.77V44.32H208.3a14.08,14.08,0,0,1,3.46.36,6,6,0,0,1,2.33,1.12,4.78,4.78,0,0,1,1.44,2,18.29,18.29,0,0,1,.85,3.06Z"></path><path class="cls-2" d="M249.44,123.38a14.86,14.86,0,0,1,1.22-6A15.05,15.05,0,0,1,254,112.5a16.38,16.38,0,0,1,17.47-3.27,16.24,16.24,0,0,1,5,3.27,14.94,14.94,0,0,1,4.59,10.88,15.22,15.22,0,0,1-1.22,6.06,14.59,14.59,0,0,1-3.37,4.9,15.79,15.79,0,0,1-5,3.23,16.24,16.24,0,0,1-6.19,1.17,16.5,16.5,0,0,1-6.29-1.17,15.39,15.39,0,0,1-5-3.23,14.91,14.91,0,0,1-3.32-4.9,15.22,15.22,0,0,1-1.22-6.06"></path></svg>