<?xml version="1.0" encoding="utf-8"?>
<!-- Generator: Adobe Illustrator 21.1.0, SVG Export Plug-In . SVG Version: 6.00 Build 0)  -->
<svg version="1.1" id="Laag_1" xmlns="http://www.w3.org/2000/svg" xmlns:xlink="http://www.w3.org/1999/xlink" x="0px" y="0px"
	 viewBox="0 0 545 170.9" style="enable-background:new 0 0 545 170.9;" xml:space="preserve">
<style type="text/css">
	.st0{fill:#E0DFEE;}
	.st1{fill:#007549;}
	.st2{fill:#173077;}
	.st3{fill:#FFFFFE;}
	.st4{fill:#FFFFFF;}
</style>
<rect x="129.6" y="14.7" class="st0" width="139.2" height="141.6"/>
<rect x="129" y="85.2" class="st1" width="71.1" height="71.1"/>
<polygon class="st1" points="525.5,91.5 8.4,91.5 8.4,84.5 197,84.5 197,14.6 268.7,14.6 268.7,84.5 525.5,84.5 "/>
<polygon class="st2" points="513,136.4 518.5,123.7 516.6,123.7 512.3,133.9 508.2,123.7 506,123.7 511.5,136.4 "/>
<path class="st2" d="M495.6,134l-0.3-0.3l-0.3-0.4l-0.2-0.4l-0.2-0.4l-0.1-0.5l-0.1-0.5l-0.1-1.1l0.1-1.1l0.3-1l0.4-0.8l0.5-0.7
	l0.7-0.6l0.8-0.4l0.8-0.2l0.9-0.1l0.8,0.1l0.8,0.2l0.7,0.4l0.6,0.6l0.5,0.7l0.4,0.8l0.3,1l0.1,1.1l-0.1,1.1l-0.3,1l-0.4,0.8
	l-0.6,0.8l-0.6,0.6l-0.7,0.5l-0.8,0.2l-0.8,0.1l-0.9-0.1l-0.8-0.2l-0.8-0.4L495.6,134z M497.2,136.8l0.6,0.2l0.6,0.1l0.7,0l0.6,0
	l0.6-0.1l0.6-0.2l0.5-0.2l0.5-0.3l0.5-0.3l0.5-0.4l0.5-0.4l0.4-0.4l0.4-0.5l0.3-0.6l0.3-0.6l0.2-0.6l0.2-0.7l0.1-0.7l0-0.8l0-0.8
	l-0.1-0.8l-0.1-0.7l-0.3-0.6l-0.2-0.6l-0.3-0.5l-0.4-0.5l-0.4-0.4l-0.4-0.4l-0.5-0.3l-0.5-0.3l-0.5-0.2l-0.6-0.2l-0.6-0.2l-0.6-0.1
	l-0.6,0l-0.7,0l-0.7,0.1l-0.6,0.2l-0.6,0.3l-0.6,0.3l-0.5,0.4l-0.5,0.5l-0.4,0.5v-12.5h-1.8v23.6h1.8v-2.1l0.5,0.5l0.5,0.5l0.5,0.4
	l0.5,0.3L497.2,136.8z"/>
<polygon class="st2" points="307.2,126.5 301.9,111.9 297.2,111.9 291.8,126.5 286.9,111.9 279.4,111.9 288.8,136.9 294.4,136.9 
	299.6,122.5 304.7,136.9 310.2,136.9 319.6,111.9 312.1,111.9 "/>
<polygon class="st2" points="114.3,126.5 108.9,111.9 104.2,111.9 98.9,126.5 94,111.9 86.5,111.9 95.9,136.9 101.4,136.9 
	106.6,122.5 111.7,136.9 117.3,136.9 126.7,111.9 119.2,111.9 "/>
<path class="st2" d="M52.5,125.3l-0.1,0.7l-0.4,1.2l-0.3,0.6l-0.2,0.6l-0.4,0.5l-0.4,0.5l-0.5,0.5l-0.5,0.4l-0.6,0.3l-0.5,0.3
	l-0.6,0.2l-0.7,0.2l-0.7,0.1l-0.7,0.1l-0.6-0.1l-0.8-0.1l-0.6-0.2l-0.6-0.2l-0.6-0.3l-0.6-0.3l-0.5-0.4l-0.5-0.4l-0.4-0.5l-0.4-0.6
	l-0.3-0.5l-0.3-0.6l-0.2-0.7l-0.2-0.7l-0.1-0.7l0-0.7l0-0.8l0.1-0.7l0.2-0.7l0.2-0.7l0.3-0.6l0.3-0.6l0.4-0.6l0.5-0.5l0.5-0.4
	l0.5-0.4l0.6-0.3l0.6-0.3l0.6-0.2l0.6-0.1l0.7-0.1l0.6,0l0.7,0l0.7,0.1l0.7,0.1l0.6,0.2l0.6,0.3l0.6,0.3l0.5,0.4l0.5,0.4l0.4,0.5
	l0.4,0.6l0.3,0.6l0.3,0.6l0.2,0.7l0.1,0.7l0.1,0.7l0,0.8V125.3z M59.3,121.9l-0.3-1.3l-0.4-1.2l-0.6-1.2l-0.7-1.1l-0.7-1l-0.9-0.9
	l-1-0.8l-1.1-0.7l-1.1-0.7l-1.3-0.6L50,112l-1.3-0.3l-1.5-0.2l-1.6,0l-1.4,0l-1.5,0.2l-1.4,0.3l-1.3,0.4l-1.2,0.6l-1.1,0.7l-1.1,0.7
	l-0.9,0.8l-0.9,0.9l-0.8,1l-0.6,1.1l-0.5,1.2l-0.4,1.2l-0.4,1.3l-0.1,1.3l-0.1,1.4l0.1,1.3l0.1,1.3l0.4,1.2l0.4,1.2l0.5,1.1l0.7,1.1
	l0.7,1l0.9,0.9l0.9,0.8l1.1,0.7l1.2,0.6l1.2,0.5l1.3,0.5l1.4,0.3l1.5,0.2l1.5,0.1l1.5-0.1l1.4-0.2l1.4-0.3l1.3-0.4l1.2-0.5l1.1-0.6
	l1.1-0.7l0.9-0.8l0.9-0.9l0.8-1l0.6-1.1l0.6-1.1l0.4-1.2l0.3-1.2l0.2-1.3l0.1-1.3l-0.1-1.4L59.3,121.9z"/>
<path class="st2" d="M222.5,124.6l-0.1,1.3l-0.3,1.2l-0.2,0.6l-0.3,0.6l-0.3,0.5l-0.4,0.5l-0.5,0.5l-0.5,0.4l-0.5,0.3l-0.6,0.3
	l-0.6,0.2l-0.7,0.2l-0.7,0.1l-0.7,0.1l-0.7-0.1l-0.7-0.1l-0.6-0.2l-0.7-0.2l-0.6-0.3l-0.5-0.3l-0.6-0.4l-0.5-0.4l-0.4-0.5l-0.4-0.6
	l-0.3-0.5l-0.3-0.6l-0.2-0.7l-0.2-0.7l-0.1-0.7l0-0.7l0-0.8l0.1-0.7l0.2-0.7l0.2-0.7l0.3-0.6l0.3-0.6l0.4-0.6l0.5-0.5l0.4-0.4
	l0.5-0.4l0.6-0.3l0.6-0.3l0.6-0.2l0.7-0.1l0.7-0.1l0.6,0l0.8,0l0.7,0.1l0.6,0.1l0.7,0.2l0.5,0.3l0.6,0.3l0.5,0.4l0.5,0.4l0.5,0.5
	l0.3,0.6l0.3,0.6l0.3,0.6l0.2,0.7l0.2,0.7l0.1,0.7V124.6z M229.4,121.9l-0.3-1.3l-0.5-1.2l-0.6-1.2l-0.6-1.1l-0.7-1l-0.9-0.9l-1-0.8
	l-1-0.7l-1.1-0.7l-1.2-0.6l-1.3-0.4l-1.4-0.3l-1.4-0.2l-1.5,0l-1.4,0l-1.5,0.2l-1.3,0.3l-1.3,0.4l-1.2,0.6l-1.1,0.7l-1.1,0.7
	l-0.9,0.8l-0.8,0.9l-0.8,1l-0.6,1.1l-0.6,1.2l-0.4,1.2l-0.3,1.3l-0.2,1.3l-0.1,1.4l0.1,1.3l0.2,1.3l0.3,1.2l0.4,1.2l0.6,1.1l0.7,1.1
	l0.7,1l0.8,0.9l1,0.8l1.1,0.7l1.1,0.6l1.2,0.5l1.3,0.5l1.4,0.3l1.5,0.2l1.5,0.1l1.4-0.1l1.4-0.2l1.3-0.3l1.2-0.4l1.2-0.5l1.1-0.6
	l1-0.7l1-0.8l0.8-0.9l0.7-1l0.7-1.1l0.5-1.1l0.5-1.2l0.3-1.2l0.2-1.3l0-1.3l0-1.4L229.4,121.9z"/>
<polygon class="st2" points="474.4,122.7 474.4,128 480,128 479.9,128.7 479.5,129.4 479.1,130 478.5,130.6 477.7,131.1 
	476.9,131.5 475.9,131.7 474.8,131.8 474.1,131.8 473.3,131.7 472.6,131.5 471.9,131.3 471.2,131 470.6,130.7 470.1,130.3 
	469.6,129.9 469.1,129.4 468.7,128.8 468.4,128.2 468.1,127.6 467.9,126.9 467.7,126.2 467.6,125.4 467.5,124.6 467.6,123.7 
	467.7,122.9 467.9,122.2 468.2,121.4 468.4,120.8 468.8,120.2 469.2,119.6 469.6,119.1 470.1,118.7 470.6,118.3 471.2,118 
	471.8,117.7 472.4,117.4 473.1,117.3 473.7,117.2 474.4,117.2 475.3,117.2 476.1,117.4 476.9,117.6 477.6,118 478.3,118.3 
	478.9,118.9 479.5,119.4 480,120.1 485.7,117.6 485.4,116.9 485,116.3 484,115.2 483.5,114.7 482.9,114.2 481.5,113.2 480,112.5 
	478.3,111.9 477.4,111.7 476.5,111.6 475.6,111.5 474.6,111.5 473.3,111.5 471.9,111.7 470.6,112 469.3,112.3 468.1,112.8 
	467,113.4 465.9,114.1 464.8,114.9 464,115.8 463.2,116.7 462.4,117.8 461.9,119 461.3,120.2 461,121.5 460.8,122.9 460.7,124.4 
	460.8,125.9 461,127.3 461.4,128.6 462,129.9 462.6,131 463.3,132.1 464.2,133.1 465.2,133.9 466.1,134.7 467.3,135.4 468.4,136 
	469.6,136.5 470.8,136.8 472.1,137.1 473.4,137.3 474.6,137.4 476.1,137.3 477.6,137 478.9,136.7 480.1,136.3 481.3,135.6 
	482.4,134.9 483.4,134 484.3,133.1 484.9,132.3 485.4,131.5 485.9,130.6 486.3,129.6 486.6,128.5 486.8,127.3 487,125.9 487,124.4 
	487,122.7 "/>
<polygon class="st2" points="251.2,127.1 239,111.9 232.4,111.9 232.4,136.9 239.4,136.9 239.4,121.8 251.2,136.9 257.9,136.9 
	257.9,111.9 251.2,111.9 "/>
<polygon class="st2" points="451.3,127.1 439.1,111.9 432.5,111.9 432.5,136.9 439.6,136.9 439.6,121.8 451.3,136.9 457.9,136.9 
	457.9,111.9 451.3,111.9 "/>
<polygon class="st2" points="355.3,111.9 347,111.9 339.1,122.3 339.1,112.1 332.2,112.1 332.2,136.9 339.1,136.9 339.1,125.9 
	347.8,136.9 356.6,136.9 345.5,124.2 "/>
<polygon class="st2" points="382.2,111.9 374,111.9 366,122.3 366,112.1 359.2,112.1 359.2,136.9 366,136.9 366,125.9 374.8,136.9 
	383.5,136.9 372.5,124.2 "/>
<polygon class="st2" points="77.5,126.9 77.5,128.2 77.3,129.1 77,129.8 76.6,130.3 76.1,130.8 75.3,131.2 74.3,131.5 73.8,131.5 
	73.2,131.6 72.2,131.5 71.2,131.2 70.4,130.7 69.8,130.1 69.5,129.7 69.4,129.3 69.1,128.4 69,127.5 69,111.9 62.1,111.9 
	62.1,125.9 62.2,128 62.3,129.3 62.4,130.2 62.6,130.7 63.2,132.2 63.6,132.9 64,133.6 64.5,134.1 65,134.7 65.6,135.2 66.2,135.6 
	66.9,136 67.6,136.3 68.4,136.7 69.3,136.9 70.2,137 71.1,137.2 72.1,137.3 73.2,137.4 74.8,137.3 76.2,137.1 77.5,136.8 
	78.7,136.5 79.7,136.2 80.5,135.7 81.3,135.3 81.8,134.8 82.6,133.9 83.2,133.1 83.7,132.1 84.2,131.2 84.4,130.2 84.5,129.1 
	84.5,128.1 84.5,111.9 77.5,111.9 "/>
<path class="st2" d="M23.2,129.5L23,130l-0.2,0.4l-0.4,0.4l-0.5,0.3l-0.6,0.3l-0.8,0.2l-0.9,0H17v-5.3h2.4l1.2,0l0.8,0.2l0.5,0.3
	l0.4,0.3l0.4,0.4L23,128l0.1,0.5l0,0.6L23.2,129.5z M17,117h2.1l0.7,0l0.7,0.2l0.5,0.2l0.4,0.3l0.2,0.3l0.2,0.4l0.1,0.4v0.9
	l-0.1,0.4l-0.2,0.4l-0.2,0.4l-0.4,0.3l-0.6,0.2l-0.6,0.1l-0.8,0.1H17V117z M29.7,127.9l-0.5-1.1l-0.6-0.9l-0.8-0.8l-1-0.6l-1.1-0.6
	l-1.2-0.3l0.7-0.3l0.7-0.4l0.6-0.5l0.5-0.6l0.4-0.7l0.3-0.7l0.2-0.8l0.1-0.8l-0.1-0.9l-0.2-0.8l-0.3-0.8l-0.4-0.8l-0.5-0.8l-0.6-0.6
	l-0.7-0.6l-0.8-0.5l-0.7-0.4l-1-0.3l-1.4-0.3l-0.8-0.1h-10v25h10.1l1.2-0.1l1.1,0l1.1-0.2l1-0.3l0.9-0.3l0.8-0.3l0.7-0.4l0.6-0.5
	l0.6-0.5l0.5-0.6l0.4-0.5l0.3-0.6l0.3-0.6l0.1-0.6l0.2-0.6v-0.7L30,129L29.7,127.9z"/>
<polygon class="st2" points="260,117.8 265.3,117.8 265.3,136.9 272.4,136.9 272.4,117.8 277.5,117.8 277.5,111.9 260,111.9 "/>
<polygon class="st2" points="386.2,136.9 401.3,136.9 401.3,131.2 392.9,131.2 392.9,126.9 400,126.9 400,121.4 393.2,121.4 
	393.2,117.4 401.3,117.4 401.3,111.9 386.2,111.9 "/>
<polygon class="st2" points="412,111.9 405.1,111.9 405.1,136.9 419.9,136.9 419.9,131 412,131 "/>
<rect x="321.5" y="111.9" class="st2" width="6.9" height="25"/>
<rect x="421.8" y="111.9" class="st2" width="6.9" height="25"/>
<path class="st3" d="M153.5,119.6l0.9-0.5l1.8-0.7l14.6,20.2l-0.1,0l0.8,0.9l-2.1,1.2l-1,0.6l-1.1,0.5l-1.1,0.4l-0.3,0.1l-0.7,0.2
	l-1.1,0.2l-1.1,0.1l-0.9,0l-1.2,0c0,0-1.1-0.2-1.2-0.2c0,0-0.4,0-0.4,0l-0.9-0.3l-1.1-0.4l-1.1-0.6l-1.2-0.8l-1.1-0.9l-1.1-1
	l-0.9-1.1l-0.9-1.2l-0.8-1.3l-0.6-1.3l-0.6-1.4l-0.5-1.4l-0.3-1.4l-0.2-1.4v-0.5l0.1-1.3l0.3-1.2l0.4-1.1l0.5-1l0.2-0.3l0.4-0.4
	l0.5-0.6c0,0,0.3-0.2,0.3-0.3c0,0,0.2-0.2,0.2-0.2l0.6-0.5c0,0,0.2-0.1,0.2-0.1c0,0,0.4-0.3,0.4-0.3l0.5-0.3c0,0,0.2-0.1,0.2-0.1
	C153.1,119.9,153.5,119.6,153.5,119.6 M160.3,96.7c-0.1,0-1.2,0.2-1.2,0.2l-1.3,0.3c0,0-1,0.3-1.1,0.3c-0.1,0-1.1,0.5-1.1,0.5
	l-1.1,0.6c0,0-0.7,0.4-0.8,0.5c-0.1,0.1-0.1,0.1-0.1,0.1l-0.7,0.6l-0.5,0.5c0,0,0,0-0.1,0.1c-0.1,0.1-0.5,0.7-0.5,0.7l-0.4,0.5
	c0,0-0.1,0.1-0.2,0.2c-0.1,0.1-0.3,0.6-0.4,0.7c0,0.1-0.3,0.9-0.3,0.9s-0.2,0.5-0.3,0.7c0,0.2-0.1,0.9-0.1,0.9l-0.1,0.9v0.3
	c0,0.1,0.2,1.6,0.2,1.6s0.1,0.5,0.1,0.6c0.1,0.1,0.2,0.6,0.2,0.6s0.7,1.6,0.7,1.7c0,0.1,1.2,2.3,1.2,2.3s0.8,1.4,0.8,1.5
	c0.1,0.1,1.8,2.5,1.8,2.5l-1.2,0.5c0,0-1.3,0.5-1.4,0.6c-0.1,0-1.3,0.7-1.3,0.7l-0.2,0.1l-1.2,0.6c0,0-1.1,0.6-1.2,0.7
	c-0.1,0.1-1,0.8-1,0.8s-1,0.7-1.1,0.8c0,0.1-0.8,0.7-0.8,0.7s-0.5,0.5-0.6,0.6c-0.1,0.1-0.8,1-0.9,1c0,0.1-0.8,1.2-0.8,1.2
	s-0.6,0.9-0.7,1c-0.1,0.1-0.5,1.1-0.5,1.1s-0.4,0.8-0.5,1c0,0.2-0.2,1.1-0.2,1.1l-0.1,1.1l-0.1,1.2c0,0,0,0.4,0,0.5
	c0,0.1,0.2,1.4,0.2,1.5c0,0.1,0.4,1.4,0.4,1.4s0.5,1.4,0.5,1.5c0,0.1,0.6,1.2,0.6,1.4c0.1,0.1,0.9,1.3,0.9,1.3l1,1.4
	c0,0,0.8,1,0.9,1.1c0.1,0.1,1.1,1,1.2,1c0.1,0,1.1,0.8,1.1,0.8c0.1,0,1.3,0.8,1.3,0.8c0.1,0,1.3,0.6,1.3,0.6s1.2,0.5,1.3,0.5
	c0.1,0,1.5,0.4,1.5,0.4s1.4,0.4,1.6,0.4c0.1,0,1.4,0.1,1.5,0.2c0.1,0,2.7,0,2.9,0c0,0,0.1,0,0.1,0l1.2-0.2c0,0,2.4-0.4,2.5-0.4
	c0.1,0,0.7-0.3,0.7-0.3s0.9-0.2,1-0.3c0.1,0,2.1-0.9,2.2-0.9c0.1,0,2.5-1.3,2.5-1.3l1.2-0.7c0,0,0.1,0,0.1,0
	c0.1-0.1,0.3-0.2,0.3-0.2l1.7-1.1c0,0,2.7,3.9,3.2,4.5c0.8,0,6.8,0,9.5,0c-1.8-2.3-7.5-9.6-7.5-9.6s1.5-2.3,1.6-2.4
	c0.1-0.1,1-1.9,1-1.9l0.9-1.9c0,0,0.7-1.9,0.8-2c0-0.1,0.6-2.2,0.6-2.2s0.5-2.2,0.5-2.3c0-0.1,0.3-2.4,0.3-2.4s0.2-2.4,0.2-2.5
	c0,0,0-1,0-1s4.6,0,6,0c0-0.7,0-1.1-0.1-1.8c-1.6,0-13.2,0-14.8,0c0,0.7,0,1.1,0,1.8c1.4,0,6.4,0,6.4,0l-0.1,2.9l-0.3,1.9l-0.3,1.9
	l-0.5,1.8l-0.5,1.8l-0.7,1.7l-0.7,1.7l-1.7,2.8l-11.6-15.2l-3.4-4.6c0,0-2.3-3-2.4-3.1c-0.1-0.1-0.3-0.2-0.3-0.2l-0.7-1.1l-0.8-1.1
	l-0.5-1.1l-0.4-0.9l-0.5-1.6l-0.3-1.4l0.2-0.7l0.3-0.6l0.2-0.3l0.2-0.3l0.5-0.6c0,0,0.2-0.2,0.3-0.2c0.1-0.1,0.4-0.4,0.4-0.4
	l0.3-0.3l0.8-0.5l0.7-0.4l1-0.2l0.7-0.1h0.9l0.8,0.2l0.8,0.4l0.8,0.4l1.7,1l1.6,1.3l0,0c0,0,1.3-2.2,1.3-2.3
	c-0.1-0.1-0.6-0.7-0.7-0.8c-0.1-0.1-0.9-0.6-0.9-0.6s-0.8-0.6-0.9-0.7c-0.1,0-0.8-0.5-0.9-0.5c-0.1,0-0.4-0.1-0.4-0.1
	s-0.5-0.3-0.6-0.4c-0.1-0.1-0.8-0.3-0.9-0.3c-0.2,0-1.1-0.2-1.1-0.2s-1-0.1-1.1-0.1C161.4,96.7,160.4,96.7,160.3,96.7"/>
<polygon class="st2" points="294.1,71.2 309.4,71.2 309.4,77 287.9,77 287.9,21.5 294.1,21.5 "/>
<path class="st2" d="M335.8,33.3l-9.5,22.2h18.8L335.8,33.3z M323.8,61.2L317.1,77h-6.8L336,18.8l25,58.1h-6.8l-6.6-15.8H323.8z"/>
<polygon class="st2" points="367.3,19.1 410.6,64.5 410.6,21.5 416.8,21.5 416.8,79.5 373.5,34.2 373.5,77 367.3,77 "/>
<path class="st2" d="M480,49.1c0.1,7.5-0.7,13.7-5.7,19.6c-5.1,5.9-12.8,9.3-20.5,9.3c-15.6,0-28.6-13-28.6-28.6
	c0-15.9,13-28.9,28.9-28.9c9.7,0,17.6,4.3,23.5,12l-4.5,4.2c-4.6-6.6-10.9-10.5-19.1-10.5c-12.7,0-22.7,10.7-22.7,23.2
	c0,5.9,2.4,11.5,6.5,15.7c4,4,9.9,7.1,15.8,7.1c9.6,0,19.8-7.1,19.8-17.4h-16.5v-5.7H480"/>
<polygon class="st2" points="488.7,21.5 517.5,21.5 517.5,27.2 494.9,27.2 494.9,43.7 516.8,43.7 516.8,49.4 494.9,49.4 494.9,71.2 
	517.5,71.2 517.5,77 488.7,77 "/>
<path class="st4" d="M213.8,68.2c4.9,0,9.1-0.7,12.8-4.2c3.3-3.1,5.1-7.4,5.1-11.9c0-4.6-1.8-9.1-5.3-12.1
	c-3.7-3.3-7.8-3.9-12.6-3.9h-3.3v32.1H213.8 M206,31.9h7.6c6.1,0,11,0.8,15.8,4.9c4.6,4,6.7,9.4,6.7,15.4c0,5.9-2.2,11.1-6.6,15.1
	c-4.8,4.3-9.7,5.1-16,5.1H206V31.9z"/>
<polygon class="st4" points="239.1,31.9 260.1,31.9 260.1,36.1 243.6,36.1 243.6,48.1 259.7,48.1 259.7,52.3 243.6,52.3 243.6,68.2 
	260.1,68.2 260.1,72.4 239.1,72.4 "/>
<g>
</g>
<g>
</g>
<g>
</g>
<g>
</g>
<g>
</g>
<g>
</g>
</svg>
