<svg width="401" height="111" viewBox="0 0 401 111" fill="none" xmlns="http://www.w3.org/2000/svg">
<path d="M228.185 11.7096C243.419 11.7096 251.367 20.7888 251.367 35.629C251.367 50.3415 243.287 59.5485 228.185 59.5485C213.083 59.5485 205.003 50.3446 205.003 35.6331C205.003 20.7898 212.952 11.7137 228.185 11.7137M228.185 50.4151C235.669 50.4151 238.65 43.2597 238.65 35.6362C238.65 27.6181 235.669 20.8583 228.185 20.8583C220.701 20.8583 217.72 27.6181 217.72 35.6362C217.72 43.2577 220.701 50.4151 228.185 50.4151Z" fill="#122D55"/>
<path d="M280.244 58.7614C280.178 56.9061 279.981 55.1162 279.981 53.3274H279.848C277.132 57.6339 273.82 59.5567 268.916 59.5567C262.095 59.5567 256 56.1773 256 48.6887C256 38.1518 267.459 36.8925 273.818 36.8925C275.682 36.8985 277.543 37.0537 279.382 37.3566C279.316 32.6545 275.806 31.3921 271.501 31.3921C267.675 31.3012 263.89 32.1908 260.505 33.9762L260.306 25.8916C264.691 24.1718 269.374 23.338 274.083 23.4383C282.893 23.4383 290.509 27.2143 290.509 37.7491V50.6104C290.466 53.3425 290.688 56.0722 291.172 58.7614H280.244ZM272.031 51.606C276.536 51.606 279.387 47.4978 279.387 43.455C277.863 43.3886 276.141 43.2567 274.354 43.2567C270.313 43.2567 267.132 44.5161 267.132 47.829C267.132 50.2148 269.252 51.6111 272.036 51.6111" fill="#122D55"/>
<path d="M297.464 49.2181C301.004 50.7362 304.807 51.5467 308.658 51.6039C311.11 51.6039 313.493 51.2053 313.493 48.8205C313.493 42.9878 296.534 47.0971 296.534 34.6385C296.534 26.6858 304.35 23.4393 311.238 23.4393C315.369 23.3319 319.482 24.0057 323.362 25.4255L322.435 33.7053C319.585 32.1724 316.398 31.3752 313.162 31.3859C310.579 31.3859 307.665 31.85 307.665 33.7717C307.665 39.1403 325.415 34.8961 325.415 48.0191C325.415 57.2311 317.139 59.5495 309.321 59.5495C305.086 59.6821 300.857 59.1224 296.802 57.8925L297.464 49.2181Z" fill="#122D55"/>
<path d="M341.643 44.977C342.305 49.7476 345.948 51.604 351.777 51.604C355.451 51.6006 359.068 50.6902 362.307 48.9534V57.3691C358.263 58.882 353.972 59.6236 349.656 59.5556C338.263 59.5556 329.589 52.8633 329.589 41.4627C329.589 30.0622 337.338 23.4373 348.067 23.4373C360.85 23.4373 365.487 32.5164 365.487 42.7875V44.975L341.643 44.977ZM354.758 38.2173C354.758 34.2409 352.903 30.9944 348.134 30.9944C343.828 30.9944 341.775 34.2419 341.51 38.2173H354.758Z" fill="#122D55"/>
<path d="M13.7505 49.1885C12.5004 49.5744 11.1989 49.7675 9.89065 49.7609C4.28176 49.7609 0 46.8068 0 40.1369C0 34.9779 3.55843 27.9779 12.6348 27.9779C14.3496 27.9804 16.0483 28.3082 17.6409 28.9439L16.7664 31.5382C15.4841 30.9651 14.0993 30.6574 12.6951 30.6336C6.3026 30.6336 3.1937 35.3357 3.1937 40.2882C3.1937 44.9045 6.2699 47.1073 10.3708 47.1073C11.6622 47.1094 12.9419 46.8637 14.1407 46.3836L13.7505 49.1885Z" fill="#122D55"/>
<path d="M20.5659 34.4341C21.95 33.9758 23.391 33.712 24.8477 33.65C27.9535 33.65 30.9388 34.8573 30.9388 38.5382C30.9214 39.3492 30.8305 40.157 30.667 40.9516C30.0939 43.8138 29.4604 46.6841 29.0691 49.4001H26.4496L26.9604 46.8354H26.8992C26.4072 47.7305 25.6818 48.4754 24.8003 48.9907C23.9187 49.5061 22.914 49.7726 21.893 49.7619C19.299 49.7619 16.9778 48.4044 16.9778 45.5075C16.9778 41.1325 20.9286 39.8957 26.0849 39.8957C26.6877 39.8957 27.4416 39.956 28.1354 39.9866C28.2199 39.6609 28.2706 39.3272 28.2866 38.991C28.2866 36.7882 26.8389 35.9439 24.7588 35.9439C23.1074 35.9688 21.4898 36.4153 20.0592 37.241L20.5659 34.4341ZM25.3605 42.0075C23.2151 42.0075 19.9928 42.581 19.9928 45.3869C19.9928 46.7444 21.1697 47.4691 22.5254 47.4691C25.3861 47.4691 27.1995 44.607 27.5316 42.0085L25.3605 42.0075Z" fill="#122D55"/>
<path d="M36.8501 35.7619C36.9716 35.2191 37.0309 34.6753 37.1565 34.0119H39.8129L39.4512 36.1238H39.5125C40.0522 35.3329 40.7831 34.6914 41.6371 34.2589C42.491 33.8264 43.4404 33.617 44.397 33.6501C45.2781 33.5764 46.1584 33.8009 46.8967 34.2877C47.635 34.7745 48.1884 35.4952 48.4683 36.3344C49.1026 35.4886 49.9275 34.8047 50.8758 34.3382C51.8242 33.8717 52.8693 33.636 53.926 33.6501C54.476 33.6089 55.0285 33.6823 55.5486 33.8658C56.0687 34.0493 56.545 34.3389 56.9475 34.7161C57.35 35.0933 57.6698 35.55 57.8867 36.0573C58.1037 36.5646 58.213 37.1115 58.2078 37.6632C58.1655 38.7516 58.0142 39.8331 57.7562 40.8913L55.9765 49.4001H53.1332L55.1837 39.6545C55.2874 39.1781 55.3479 38.6933 55.3645 38.206C55.383 37.9041 55.3372 37.6016 55.2301 37.3187C55.1231 37.0359 54.9572 36.7789 54.7434 36.565C54.5297 36.351 54.273 36.1849 53.9903 36.0777C53.7076 35.9704 53.4054 35.9245 53.1036 35.9429C50.2429 35.9429 48.64 39.2916 48.1271 41.6753L46.4097 49.3991H43.5746L45.6251 39.6534C45.7291 39.1771 45.7896 38.6923 45.8059 38.205C45.8242 37.9035 45.7784 37.6016 45.6715 37.3191C45.5646 37.0366 45.399 36.78 45.1858 36.5663C44.9725 36.3525 44.7164 36.1864 44.4342 36.0789C44.1521 35.9715 43.8504 35.9251 43.5491 35.9429C40.6884 35.9429 39.0865 39.2916 38.5726 41.6753L36.8541 49.3991H34.015L36.8501 35.7619Z" fill="#122D55"/>
<path d="M62.8124 39.1106C63.1189 37.3913 63.4152 35.7016 63.6297 34.0119H66.286L65.7752 36.363H65.8355C66.4258 35.4698 67.2413 34.7484 68.1997 34.2716C69.158 33.7949 70.2251 33.5798 71.2932 33.648C74.7607 33.648 76.7815 36.182 76.7815 39.5011C76.7815 45.1436 74.1579 49.7589 69.0323 49.7589C66.3484 49.7589 64.7495 48.8542 64.0261 47.1011H63.9659L62.1269 55.7305H59.2897L62.8124 39.1106ZM68.6358 47.4681C71.8622 47.4681 73.7625 43.5756 73.7625 39.7444C73.7625 37.1501 72.2842 35.9428 70.3246 35.9428C67.0073 35.9428 64.8077 39.6227 64.8077 43.4253C64.7648 43.9492 64.8329 44.4763 65.0073 44.9721C65.1818 45.4679 65.4587 45.9213 65.8202 46.3028C66.1816 46.6843 66.6193 46.9852 67.1048 47.186C67.5904 47.3868 68.1127 47.4829 68.6379 47.4681" fill="#122D55"/>
<path d="M82.6858 34.0119H85.5209L82.2638 49.3991H79.4257L82.6858 34.0119ZM86.4557 30.5722H83.2589L83.922 27.3738H87.1187L86.4557 30.5722Z" fill="#122D55"/>
<path d="M90.3154 36.365C90.4359 35.7312 90.6218 34.9165 90.7373 34.0139H93.3936L92.9104 36.458H92.9717C93.5204 35.568 94.295 34.8395 95.2168 34.3465C96.1386 33.8536 97.1744 33.614 98.2189 33.6521C101.204 33.6521 103.345 35.2212 103.345 38.4799C103.315 39.4247 103.194 40.3644 102.983 41.2859L101.294 49.4011H98.459L100.359 40.2013C100.445 39.7232 100.496 39.2394 100.51 38.7539C100.532 38.3798 100.474 38.0053 100.341 37.6551C100.207 37.305 100.002 36.987 99.7368 36.722C99.472 36.457 99.1541 36.2511 98.8041 36.1177C98.4542 35.9843 98.0799 35.9264 97.706 35.9479C94.2079 35.9479 92.4884 39.7485 92.0971 41.6508L90.4686 49.4042H87.6345L90.3154 36.365Z" fill="#122D55"/>
<path d="M122.641 34.0119L119.113 50.5153C118.45 53.5625 115.585 56.0965 110.851 56.0965C109.076 56.0619 107.325 55.6828 105.695 54.9803L106.328 52.4462C107.84 53.2702 109.522 53.7346 111.243 53.8037C114.5 53.8037 116.038 51.6918 116.611 49.306L117.003 47.647H116.943C116.008 48.7633 114.832 49.397 112.36 49.397C111.575 49.3829 110.802 49.2109 110.085 48.8912C109.369 48.5715 108.724 48.1108 108.189 47.5364C107.655 46.962 107.241 46.2858 106.973 45.5481C106.705 44.8103 106.589 44.0262 106.63 43.2424C106.63 37.5702 109.947 33.5877 114.38 33.648C115.433 33.5818 116.482 33.8416 117.383 34.3922C118.284 34.9429 118.993 35.7576 119.415 36.7259H119.476L120.018 34.0109L122.641 34.0119ZM113.081 47.1063C115.553 47.1063 118.358 45.1753 118.358 40.1369C118.358 37.8441 117.001 35.9459 114.528 35.9459C111.241 35.9459 109.642 40.1369 109.642 43.1013C109.642 45.1232 110.728 47.1145 113.08 47.1145" fill="#122D55"/>
<path d="M50.5658 4.91403C49.4101 4.22085 48.0829 3.86665 46.7356 3.89183C44.7455 3.89183 42.5744 4.67585 42.5744 7.18024C42.5744 10.7109 49.7516 10.7406 49.7516 16.2625C49.7516 19.4313 47.5499 23.0212 42.4845 23.0212C40.4632 23.0182 38.4631 22.6076 36.6039 21.814L37.5693 19.0388C38.9032 19.867 40.4331 20.3256 42.0023 20.3676C45.1991 20.3676 46.5558 18.3764 46.5558 16.6264C46.5558 12.3413 39.3787 13.0967 39.3787 7.24362C39.3787 3.4114 42.8769 1.23923 46.3444 1.23923C48.0822 1.23364 49.8041 1.572 51.4108 2.23485L50.5658 4.91403Z" fill="#122D55"/>
<path d="M53.4031 7.2661H56.8409L57.5939 3.70681L60.6394 2.65088L59.674 7.2661H63.8955L63.4429 9.55991H59.1907L57.7737 16.1715C57.5611 17.1261 57.4099 18.0934 57.3211 19.0674C57.3211 20.154 57.9239 20.7274 59.3726 20.7274C60.0543 20.7191 60.7288 20.586 61.3628 20.3349L60.9408 22.686C60.0363 22.926 59.1026 23.0378 58.167 23.0182C57.6942 23.071 57.2156 23.0213 56.7637 22.8725C56.3119 22.7237 55.8973 22.4793 55.5483 22.1558C55.1993 21.8323 54.9241 21.4374 54.7413 20.998C54.5585 20.5585 54.4725 20.0848 54.4891 19.6091C54.57 18.3897 54.7515 17.1791 55.0316 15.9895L56.3597 9.56298H52.9791L53.4031 7.2661Z" fill="#122D55"/>
<path d="M66.6386 9.62022C66.7591 8.98646 66.9451 8.17177 67.0605 7.26917H69.7168L69.2336 9.71325H69.2949C69.8437 8.82332 70.6184 8.09481 71.5401 7.60192C72.4618 7.10902 73.4977 6.86935 74.5421 6.90731C74.9869 6.92089 75.4258 7.01294 75.8386 7.17922L75.2052 9.6836C74.8213 9.52019 74.4141 9.41843 73.9986 9.38205C70.5015 9.38205 68.782 13.1826 68.3907 15.0839L66.7918 22.6573H63.9578L66.6386 9.62022Z" fill="#122D55"/>
<path d="M79.0016 7.68828C80.3858 7.23029 81.8268 6.96644 83.2834 6.90426C86.3892 6.90426 89.3745 8.11147 89.3745 11.7924C89.3571 12.6034 89.2662 13.4112 89.1027 14.2058C88.5296 17.068 87.8962 19.9383 87.5049 22.6543H84.8813L85.3921 20.0896H85.3308C84.8388 20.9847 84.1135 21.7296 83.2319 22.245C82.3503 22.7603 81.3456 23.0268 80.3247 23.0161C77.7307 23.0161 75.4095 21.6587 75.4095 18.7618C75.4095 14.3878 79.3602 13.1499 84.5165 13.1499C85.1193 13.1499 85.8733 13.2102 86.567 13.2409C86.6516 12.9147 86.7022 12.5808 86.7182 12.2442C86.7182 10.0424 85.2705 9.19705 83.1904 9.19705C81.5391 9.22234 79.9215 9.66881 78.4908 10.4942L79.0016 7.68828ZM83.7963 15.2617C81.6508 15.2617 78.4285 15.8342 78.4285 18.6401C78.4285 19.9986 79.6054 20.7223 80.9612 20.7223C83.8218 20.7223 85.6352 17.8602 85.9673 15.2617H83.7963Z" fill="#122D55"/>
<path d="M95.1355 9.62022C95.256 8.98646 95.442 8.17177 95.5574 7.26917H98.2137L97.7305 9.71324H97.7918C98.3405 8.82332 99.1152 8.09481 100.037 7.60192C100.959 7.10902 101.995 6.86935 103.039 6.90731C106.024 6.90731 108.165 8.47639 108.165 11.7352C108.135 12.68 108.014 13.6197 107.803 14.5411L106.114 22.6573H103.279L105.178 13.4576C105.264 12.9791 105.315 12.495 105.33 12.0091C105.351 11.635 105.293 11.2606 105.16 10.9104C105.027 10.5602 104.821 10.2422 104.556 9.97721C104.291 9.71224 103.973 9.50629 103.623 9.37289C103.273 9.23949 102.899 9.18165 102.525 9.20317C99.027 9.20317 97.3075 13.0047 96.9162 14.906L95.2877 22.6604H92.4536L95.1355 9.62022Z" fill="#122D55"/>
<path d="M125.26 17.5555C124.898 19.2749 124.597 20.9646 124.386 22.6543H121.729C121.88 21.9306 122.001 21.0852 122.24 20.3032H122.18C121.124 22.3548 119.255 23.0182 116.933 23.0182C113.224 23.0182 111.233 20.061 111.233 16.561C111.233 11.7341 113.946 6.90629 119.194 6.90629C120.212 6.84328 121.227 7.08515 122.107 7.60106C122.988 8.11698 123.696 8.88359 124.139 9.8032H124.2L126.225 0.0258789H129.06L125.26 17.5555ZM117.993 20.7244C121.552 20.7244 123.18 16.289 123.18 13.3932C123.18 11.1004 121.823 9.20215 119.351 9.20215C116.003 9.20215 114.255 13.4565 114.255 16.3575C114.255 18.8016 115.401 20.7325 117.993 20.7325" fill="#122D55"/>
<path d="M194.05 64.7964C193.024 62.0815 196.085 58.6458 198.833 56.2427C198.885 56.1926 198.935 56.1398 198.981 56.0842C199.283 55.8011 199.483 55.426 199.55 55.0174C199.617 54.6087 199.548 54.1893 199.352 53.8243C199.157 53.4593 198.846 53.1691 198.469 52.9988C198.091 52.8286 197.668 52.7877 197.266 52.8827C187.691 55.1029 179.609 54.2432 175.647 50.5827C174.918 49.9277 174.328 49.1326 173.913 48.2447C173.497 47.3568 173.264 46.3943 173.228 45.4145C178.736 46.0933 185.142 44.2594 188.692 38.9082C189.914 36.9981 190.734 34.8583 191.101 32.6201C191.467 30.3819 191.374 28.0923 190.825 25.8916C187.582 10.4257 175.039 3.62605 163.751 3.62605C163.479 3.62605 163.206 3.63013 162.934 3.63831C150.763 3.99404 137.32 12.1226 134.728 29.4876C133.318 38.9368 134.477 47.1114 138.173 53.7843C140.476 57.8868 143.552 61.5036 147.231 64.4346C139.013 61.8015 130.397 60.6314 121.775 60.9775C117.946 61.0509 114.168 61.8803 110.659 63.4182C107.151 64.9561 103.98 67.1721 101.33 69.9391C99.0464 72.3726 97.2108 75.1909 95.9081 78.2639L36.9421 78.6932V79.975H95.2501C94.3426 82.5337 93.8237 85.2141 93.7105 87.9267C93.3508 97.3657 98.4203 109.038 113.889 110.868C114.61 110.954 115.335 110.997 116.06 110.998C118.159 111.034 120.243 110.631 122.177 109.815C124.111 108.998 125.853 107.786 127.291 106.256C128.925 104.531 130.146 102.458 130.863 100.193C131.58 97.9281 131.774 95.5297 131.43 93.1788C130.496 88.1414 127.154 84.1129 123.114 83.1612C121.159 82.6982 117.366 82.6021 113.919 87.158C113.763 87.3548 113.647 87.5809 113.58 87.8229C113.512 88.0649 113.494 88.318 113.525 88.5673C113.557 88.8166 113.638 89.0571 113.763 89.2746C113.889 89.4922 114.057 89.6824 114.257 89.8341C114.458 89.9858 114.686 90.0959 114.929 90.158C115.173 90.2201 115.426 90.2329 115.674 90.1957C115.923 90.1584 116.161 90.0719 116.376 89.9412C116.59 89.8105 116.777 89.6382 116.924 89.4344C118.056 87.939 119.893 86.2728 122.248 86.8309C124.777 87.4299 127.081 90.3902 127.727 93.8708C127.959 95.6404 127.794 97.4396 127.243 99.1373C126.692 100.835 125.77 102.388 124.543 103.684C123.253 105.05 121.648 106.078 119.868 106.679C118.089 107.28 116.189 107.435 114.336 107.13C101.418 105.596 97.1831 95.9101 97.4783 88.077C97.5915 85.2966 98.1886 82.5573 99.2427 79.9822H227.069L217.989 72.8329C206.31 71.8741 195.655 69.0385 194.053 64.8025M100.036 78.2352C103.671 70.994 111.097 65.1971 121.932 64.7422C135.9 64.1637 146.069 67.8282 155.904 71.3732C162.116 73.6129 170.804 76.4525 177.994 77.6638L100.036 78.2352ZM141.47 51.9556C138.185 46.0268 137.172 38.6537 138.456 30.0447C140.726 14.8375 152.441 7.7179 163.044 7.40818C172.229 7.14445 184.062 12.0214 187.132 26.6674C187.565 28.3798 187.648 30.1622 187.376 31.9075C187.103 33.6529 186.481 35.3251 185.547 36.824C182.39 41.5823 175.877 42.6198 171.354 41.1806C166.246 39.5573 165.15 37.9433 164.177 36.5194C163.328 35.2965 162.836 33.8615 162.755 32.3748C162.674 30.888 163.009 29.4081 163.72 28.1005C164.661 26.3873 166.101 25.313 167.398 25.3508C168.654 25.3917 169.869 26.5366 170.818 28.5728C171.036 29.0146 171.419 29.3534 171.883 29.5166C172.348 29.6799 172.858 29.6546 173.305 29.4462C173.751 29.2378 174.098 28.8628 174.272 28.4015C174.445 27.9402 174.432 27.4293 174.233 26.9782C172.101 22.4038 169.114 21.6331 167.522 21.5809C164.783 21.493 162.053 23.2931 160.412 26.2831C159.364 28.2006 158.869 30.3722 158.983 32.5551C159.097 34.7379 159.816 36.8459 161.059 38.6435C162.47 40.7124 164.195 42.719 169.445 44.5181C169.356 46.1688 169.637 47.8185 170.267 49.3469C170.896 50.8753 171.859 52.2439 173.084 53.3529C176.316 56.3387 181.324 57.872 187.457 57.872C189.115 57.8679 190.771 57.7655 192.417 57.5654C190.162 60.6238 189.521 63.4941 190.52 66.1334C192.898 72.423 204.384 75.0613 213.892 76.1663C191.183 76.2552 153.75 74.1403 141.465 51.9586" fill="#122D55"/>
<path d="M217.911 72.7685L217.986 72.8268L227.066 79.9771H401V78.6952L217.911 72.7685Z" fill="#FA9700"/>
</svg>
