<?xml version="1.0" encoding="utf-8"?>
<!-- Generator: Adobe Illustrator 25.1.0, SVG Export Plug-In . SVG Version: 6.00 Build 0)  -->
<svg version="1.1" id="Layer_1" xmlns="http://www.w3.org/2000/svg" xmlns:xlink="http://www.w3.org/1999/xlink" x="0px" y="0px"
	 viewBox="0 0 375.8 78.2" style="enable-background:new 0 0 375.8 78.2;" xml:space="preserve">
<style type="text/css">
	.st0{clip-path:url(#SVGID_2_);}
	.st1{fill:url(#SVGID_3_);}
	.st2{fill:url(#SVGID_4_);}
	.st3{fill:url(#SVGID_5_);}
	.st4{fill:url(#SVGID_6_);}
	.st5{clip-path:url(#SVGID_8_);}
	.st6{fill:url(#SVGID_9_);}
	.st7{fill:url(#SVGID_10_);}
	.st8{fill:url(#SVGID_11_);}
	.st9{fill:url(#SVGID_12_);}
	.st10{clip-path:url(#SVGID_14_);}
	.st11{fill:url(#SVGID_15_);}
	.st12{fill:url(#SVGID_16_);}
	.st13{fill:url(#SVGID_17_);}
	.st14{fill:url(#SVGID_18_);}
	.st15{clip-path:url(#SVGID_20_);}
	.st16{fill:url(#SVGID_21_);}
	.st17{fill:url(#SVGID_22_);}
	.st18{fill:url(#SVGID_23_);}
	.st19{fill:url(#SVGID_24_);}
	.st20{clip-path:url(#SVGID_26_);}
	.st21{fill:url(#SVGID_27_);}
	.st22{fill:url(#SVGID_28_);}
	.st23{fill:url(#SVGID_29_);}
	.st24{fill:url(#SVGID_30_);}
	.st25{fill:#1A2629;}
</style>
<g>
	<g>
		<g>
			<defs>
				<path id="SVGID_1_" d="M225.1,28.8c0,0-3.2-1.8-3-3.7c0.2-1.9,6.1-5.9,11.8-5.9c1.8,0,3.2,1.9,1.4,3.5S227.4,27.8,225.1,28.8z"
					/>
			</defs>
			<clipPath id="SVGID_2_">
				<use xlink:href="#SVGID_1_"  style="overflow:visible;"/>
			</clipPath>
			<g class="st0">
				<g>
					<linearGradient id="SVGID_3_" gradientUnits="userSpaceOnUse" x1="182.9057" y1="94.9199" x2="212.6736" y2="55.1053">
						<stop  offset="0" style="stop-color:#13A288"/>
						<stop  offset="1" style="stop-color:#0DB795"/>
					</linearGradient>
					<path class="st1" d="M230,48.9c-8.1-1.9-17.1,2.4-24.7-0.9c-7.4-3.2-10.4-12.2-10.6-20.2c-0.2-7.8,1.4-15.8,0-23.5
						c-1.6,1-3.1,2.3-4.3,3.7c-5.5,6.3-6.1,15.3-6.6,23.6c-0.5,9.4-0.8,19.3,3.7,27.5c4.7,8.5,13.8,13.8,23.1,16.6
						c15.9,4.9,34.2,3.6,48.1-5.2c-2.7-1.4-5.2-3.2-7.5-5.2C244.3,59.5,238.9,50.9,230,48.9z"/>
					<linearGradient id="SVGID_4_" gradientUnits="userSpaceOnUse" x1="250.0411" y1="37.4481" x2="263.8087" y2="2.4707">
						<stop  offset="0" style="stop-color:#003A2D"/>
						<stop  offset="1" style="stop-color:#046C5A"/>
					</linearGradient>
					<path class="st2" d="M234.9,13c0.7,4.7,3.8,9.6,8.5,10c4.3,0.4,8.4-3.1,12.6-2.3c5.2,1.1,6.9,7.4,9,12.3
						c2.4,5.4,6.9,9.8,12.2,12.5c3-10.8,2.2-22.7-4.5-31.5c-7.3-9.6-23.1-13.6-38-14.9C235.1,3.7,234.2,8.4,234.9,13z"/>
					<linearGradient id="SVGID_5_" gradientUnits="userSpaceOnUse" x1="230.1536" y1="41.0749" x2="221.9674" y2="71.5869">
						<stop  offset="0" style="stop-color:#0DA487"/>
						<stop  offset="1" style="stop-color:#006A5E"/>
					</linearGradient>
					<path class="st3" d="M269.5,58.6c-3.9-4.1-6-9.5-8.9-14.4c-2.8-4.9-6.8-9.7-12.3-11.1c-7.4-1.9-15.4,2.9-22.8,0.7
						c-5.5-1.7-9.2-7.1-10.8-12.6c-1.6-5.5-1.6-11.4-2.4-17.1c-0.2-1.6-0.5-3.2-0.9-4.8c-5.9,0.6-12,1.9-16.8,5.1
						c1.5,7.7-0.2,15.6,0,23.5c0.2,8,3.2,17,10.6,20.2c7.7,3.3,16.6-1,24.7,0.9c8.8,2,14.3,10.6,21.1,16.5c2.3,2,4.8,3.7,7.5,5.2
						c2.4-1.5,4.7-3.3,6.9-5.2c1.8-1.7,3.5-3.6,5-5.7C270.2,59.3,269.8,58.9,269.5,58.6z"/>
					<linearGradient id="SVGID_6_" gradientUnits="userSpaceOnUse" x1="231.4133" y1="44.6607" x2="244.8089" y2="23.451">
						<stop  offset="0" style="stop-color:#CA2026"/>
						<stop  offset="1" style="stop-color:#E81D25"/>
					</linearGradient>
					<path class="st4" d="M265.1,33c-2.2-4.8-3.8-11.2-9-12.3c-4.2-0.9-8.3,2.6-12.6,2.3c-4.7-0.4-7.8-5.3-8.5-10
						c-0.7-4.6,0.2-9.3-0.1-13.9c-8.3-0.7-16.4-0.5-22.5,0c-0.3,0-0.5,0.1-0.8,0.1c0.4,1.6,0.7,3.2,0.9,4.8
						c0.8,5.7,0.8,11.6,2.4,17.1c1.6,5.5,5.3,10.9,10.8,12.6c7.3,2.2,15.3-2.6,22.8-0.7c5.5,1.4,9.4,6.2,12.3,11.1
						c2.8,4.9,5,10.3,8.9,14.4c0.3,0.4,0.7,0.7,1,1c3-4.2,5.3-9,6.7-14.2C272,42.8,267.5,38.4,265.1,33z"/>
				</g>
			</g>
		</g>
		<g>
			<g>
				<defs>
					<path id="SVGID_7_" d="M238,39.9c0,0-8.5-7.3-10.4-8.8c0,0,8.9-3.7,11.8-6.2c2.9-2.5,3-3.2,3-4.9c0-1.7-1.4-4.4-7.7-4.4
						c-6.3,0-17.6,4.1-17.6,11.9c0,2.3,1.6,4.1,1.6,4.1s-13.1,5.5-23.2,16.5c0,0-0.7-3-0.7-8.2s1-20.2,17.7-32
						c8.9-6.2,25.9-8.8,38.5-1.6l-5.5,2c0,0,1.1,2.3,2.8,5.3s1.5,4,0.6,7.8c-0.5,2.5,0.9,4.8,5.1,12.4C254,33.8,243.9,37.2,238,39.9
						z"/>
				</defs>
				<clipPath id="SVGID_8_">
					<use xlink:href="#SVGID_7_"  style="overflow:visible;"/>
				</clipPath>
				<g class="st5">
					<g>
						<linearGradient id="SVGID_9_" gradientUnits="userSpaceOnUse" x1="182.9057" y1="94.9199" x2="212.6736" y2="55.1053">
							<stop  offset="0" style="stop-color:#EF3B57"/>
							<stop  offset="1" style="stop-color:#EE2F3F"/>
						</linearGradient>
						<path class="st6" d="M230,48.9c-8.1-1.9-17.1,2.4-24.7-0.9c-7.4-3.2-10.4-12.2-10.6-20.2c-0.2-7.8,1.4-15.8,0-23.5
							c-1.6,1-3.1,2.3-4.3,3.7c-5.5,6.3-6.1,15.3-6.6,23.6c-0.5,9.4-0.8,19.3,3.7,27.5c4.7,8.5,13.8,13.8,23.1,16.6
							c15.9,4.9,34.2,3.6,48.1-5.2c-2.7-1.4-5.2-3.2-7.5-5.2C244.3,59.5,238.9,50.9,230,48.9z"/>
						<linearGradient id="SVGID_10_" gradientUnits="userSpaceOnUse" x1="248.2519" y1="28.2095" x2="256.8985" y2="21.6066">
							<stop  offset="0" style="stop-color:#921A1C"/>
							<stop  offset="1" style="stop-color:#C42026"/>
						</linearGradient>
						<path class="st7" d="M234.9,13c0.7,4.7,3.8,9.6,8.5,10c4.3,0.4,8.4-3.1,12.6-2.3c5.2,1.1,6.9,7.4,9,12.3
							c2.4,5.4,6.9,9.8,12.2,12.5c3-10.8,2.2-22.7-4.5-31.5c-7.3-9.6-23.1-13.6-38-14.9C235.1,3.7,234.2,8.4,234.9,13z"/>
						<linearGradient id="SVGID_11_" gradientUnits="userSpaceOnUse" x1="222.157" y1="42.7903" x2="210.5668" y2="54.3805">
							<stop  offset="0" style="stop-color:#EE2C26"/>
							<stop  offset="1" style="stop-color:#CA2026"/>
						</linearGradient>
						<path class="st8" d="M269.5,58.6c-3.9-4.1-6-9.5-8.9-14.4c-2.8-4.9-6.8-9.7-12.3-11.1c-7.4-1.9-15.4,2.9-22.8,0.7
							c-5.5-1.7-9.2-7.1-10.8-12.6c-1.6-5.5-1.6-11.4-2.4-17.1c-0.2-1.6-0.5-3.2-0.9-4.8c-5.9,0.6-12,1.9-16.8,5.1
							c1.5,7.7-0.2,15.6,0,23.5c0.2,8,3.2,17,10.6,20.2c7.7,3.3,16.6-1,24.7,0.9c8.8,2,14.3,10.6,21.1,16.5c2.3,2,4.8,3.7,7.5,5.2
							c2.4-1.5,4.7-3.3,6.9-5.2c1.8-1.7,3.5-3.6,5-5.7C270.2,59.3,269.8,58.9,269.5,58.6z"/>
						<linearGradient id="SVGID_12_" gradientUnits="userSpaceOnUse" x1="234.6039" y1="35.0281" x2="252.3687" y2="19.4642">
							<stop  offset="0" style="stop-color:#B11F24"/>
							<stop  offset="1" style="stop-color:#E81D25"/>
						</linearGradient>
						<path class="st9" d="M265.1,33c-2.2-4.8-3.8-11.2-9-12.3c-4.2-0.9-8.3,2.6-12.6,2.3c-4.7-0.4-7.8-5.3-8.5-10
							c-0.7-4.6,0.2-9.3-0.1-13.9c-8.3-0.7-16.4-0.5-22.5,0c-0.3,0-0.5,0.1-0.8,0.1c0.4,1.6,0.7,3.2,0.9,4.8
							c0.8,5.7,0.8,11.6,2.4,17.1c1.6,5.5,5.3,10.9,10.8,12.6c7.3,2.2,15.3-2.6,22.8-0.7c5.5,1.4,9.4,6.2,12.3,11.1
							c2.8,4.9,5,10.3,8.9,14.4c0.3,0.4,0.7,0.7,1,1c3-4.2,5.3-9,6.7-14.2C272,42.8,267.5,38.4,265.1,33z"/>
					</g>
				</g>
			</g>
			<g>
				<defs>
					<path id="SVGID_13_" d="M241.3,43.1c0,0,7.1-2.5,15.3-4.4c0,0,1.2,1.9,1.7,3c0.5,1,2.2,3.5,0,6.5c-2.2,3-4.1,4.4-6.7,4.2
						C251.2,52.3,241.3,43.1,241.3,43.1z"/>
				</defs>
				<clipPath id="SVGID_14_">
					<use xlink:href="#SVGID_13_"  style="overflow:visible;"/>
				</clipPath>
				<g class="st10">
					<g>
						<linearGradient id="SVGID_15_" gradientUnits="userSpaceOnUse" x1="182.9057" y1="94.9199" x2="212.6736" y2="55.1053">
							<stop  offset="0" style="stop-color:#13A288"/>
							<stop  offset="1" style="stop-color:#0DB795"/>
						</linearGradient>
						<path class="st11" d="M230,48.9c-8.1-1.9-17.1,2.4-24.7-0.9c-7.4-3.2-10.4-12.2-10.6-20.2c-0.2-7.8,1.4-15.8,0-23.5
							c-1.6,1-3.1,2.3-4.3,3.7c-5.5,6.3-6.1,15.3-6.6,23.6c-0.5,9.4-0.8,19.3,3.7,27.5c4.7,8.5,13.8,13.8,23.1,16.6
							c15.9,4.9,34.2,3.6,48.1-5.2c-2.7-1.4-5.2-3.2-7.5-5.2C244.3,59.5,238.9,50.9,230,48.9z"/>
						<linearGradient id="SVGID_16_" gradientUnits="userSpaceOnUse" x1="250.0411" y1="37.4481" x2="263.8087" y2="2.4707">
							<stop  offset="0" style="stop-color:#003A2D"/>
							<stop  offset="1" style="stop-color:#046C5A"/>
						</linearGradient>
						<path class="st12" d="M234.9,13c0.7,4.7,3.8,9.6,8.5,10c4.3,0.4,8.4-3.1,12.6-2.3c5.2,1.1,6.9,7.4,9,12.3
							c2.4,5.4,6.9,9.8,12.2,12.5c3-10.8,2.2-22.7-4.5-31.5c-7.3-9.6-23.1-13.6-38-14.9C235.1,3.7,234.2,8.4,234.9,13z"/>
						<linearGradient id="SVGID_17_" gradientUnits="userSpaceOnUse" x1="230.1536" y1="41.0749" x2="221.9674" y2="71.5869">
							<stop  offset="0" style="stop-color:#EE2C26"/>
							<stop  offset="1" style="stop-color:#CA2026"/>
						</linearGradient>
						<path class="st13" d="M269.5,58.6c-3.9-4.1-6-9.5-8.9-14.4c-2.8-4.9-6.8-9.7-12.3-11.1c-7.4-1.9-15.4,2.9-22.8,0.7
							c-5.5-1.7-9.2-7.1-10.8-12.6c-1.6-5.5-1.6-11.4-2.4-17.1c-0.2-1.6-0.5-3.2-0.9-4.8c-5.9,0.6-12,1.9-16.8,5.1
							c1.5,7.7-0.2,15.6,0,23.5c0.2,8,3.2,17,10.6,20.2c7.7,3.3,16.6-1,24.7,0.9c8.8,2,14.3,10.6,21.1,16.5c2.3,2,4.8,3.7,7.5,5.2
							c2.4-1.5,4.7-3.3,6.9-5.2c1.8-1.7,3.5-3.6,5-5.7C270.2,59.3,269.8,58.9,269.5,58.6z"/>
						<linearGradient id="SVGID_18_" gradientUnits="userSpaceOnUse" x1="231.4133" y1="44.6607" x2="244.8089" y2="23.451">
							<stop  offset="0" style="stop-color:#00544C"/>
							<stop  offset="1" style="stop-color:#0C8975"/>
						</linearGradient>
						<path class="st14" d="M265.1,33c-2.2-4.8-3.8-11.2-9-12.3c-4.2-0.9-8.3,2.6-12.6,2.3c-4.7-0.4-7.8-5.3-8.5-10
							c-0.7-4.6,0.2-9.3-0.1-13.9c-8.3-0.7-16.4-0.5-22.5,0c-0.3,0-0.5,0.1-0.8,0.1c0.4,1.6,0.7,3.2,0.9,4.8
							c0.8,5.7,0.8,11.6,2.4,17.1c1.6,5.5,5.3,10.9,10.8,12.6c7.3,2.2,15.3-2.6,22.8-0.7c5.5,1.4,9.4,6.2,12.3,11.1
							c2.8,4.9,5,10.3,8.9,14.4c0.3,0.4,0.7,0.7,1,1c3-4.2,5.3-9,6.7-14.2C272,42.8,267.5,38.4,265.1,33z"/>
					</g>
				</g>
			</g>
			<g>
				<defs>
					<path id="SVGID_19_" d="M205.4,59.4l28.9-13.5c0,0,8.2,6.9,14.3,24C248.6,69.9,231.1,60.7,205.4,59.4z"/>
				</defs>
				<clipPath id="SVGID_20_">
					<use xlink:href="#SVGID_19_"  style="overflow:visible;"/>
				</clipPath>
				<g class="st15">
					<g>
						<linearGradient id="SVGID_21_" gradientUnits="userSpaceOnUse" x1="182.9057" y1="94.9199" x2="212.6736" y2="55.1053">
							<stop  offset="0" style="stop-color:#EF3B57"/>
							<stop  offset="1" style="stop-color:#EE2F3F"/>
						</linearGradient>
						<path class="st16" d="M230,48.9c-8.1-1.9-17.1,2.4-24.7-0.9c-7.4-3.2-10.4-12.2-10.6-20.2c-0.2-7.8,1.4-15.8,0-23.5
							c-1.6,1-3.1,2.3-4.3,3.7c-5.5,6.3-6.1,15.3-6.6,23.6c-0.5,9.4-0.8,19.3,3.7,27.5c4.7,8.5,13.8,13.8,23.1,16.6
							c15.9,4.9,34.2,3.6,48.1-5.2c-2.7-1.4-5.2-3.2-7.5-5.2C244.3,59.5,238.9,50.9,230,48.9z"/>
						<linearGradient id="SVGID_22_" gradientUnits="userSpaceOnUse" x1="250.0411" y1="37.4481" x2="263.8087" y2="2.4707">
							<stop  offset="0" style="stop-color:#003A2D"/>
							<stop  offset="1" style="stop-color:#046C5A"/>
						</linearGradient>
						<path class="st17" d="M234.9,13c0.7,4.7,3.8,9.6,8.5,10c4.3,0.4,8.4-3.1,12.6-2.3c5.2,1.1,6.9,7.4,9,12.3
							c2.4,5.4,6.9,9.8,12.2,12.5c3-10.8,2.2-22.7-4.5-31.5c-7.3-9.6-23.1-13.6-38-14.9C235.1,3.7,234.2,8.4,234.9,13z"/>
						<linearGradient id="SVGID_23_" gradientUnits="userSpaceOnUse" x1="229.486" y1="37.1105" x2="223.3548" y2="47.2506">
							<stop  offset="0" style="stop-color:#EE2C26"/>
							<stop  offset="1" style="stop-color:#CA2026"/>
						</linearGradient>
						<path class="st18" d="M269.5,58.6c-3.9-4.1-6-9.5-8.9-14.4c-2.8-4.9-6.8-9.7-12.3-11.1c-7.4-1.9-15.4,2.9-22.8,0.7
							c-5.5-1.7-9.2-7.1-10.8-12.6c-1.6-5.5-1.6-11.4-2.4-17.1c-0.2-1.6-0.5-3.2-0.9-4.8c-5.9,0.6-12,1.9-16.8,5.1
							c1.5,7.7-0.2,15.6,0,23.5c0.2,8,3.2,17,10.6,20.2c7.7,3.3,16.6-1,24.7,0.9c8.8,2,14.3,10.6,21.1,16.5c2.3,2,4.8,3.7,7.5,5.2
							c2.4-1.5,4.7-3.3,6.9-5.2c1.8-1.7,3.5-3.6,5-5.7C270.2,59.3,269.8,58.9,269.5,58.6z"/>
						<linearGradient id="SVGID_24_" gradientUnits="userSpaceOnUse" x1="231.4133" y1="44.6607" x2="244.8089" y2="23.451">
							<stop  offset="0" style="stop-color:#00544C"/>
							<stop  offset="1" style="stop-color:#0C8975"/>
						</linearGradient>
						<path class="st19" d="M265.1,33c-2.2-4.8-3.8-11.2-9-12.3c-4.2-0.9-8.3,2.6-12.6,2.3c-4.7-0.4-7.8-5.3-8.5-10
							c-0.7-4.6,0.2-9.3-0.1-13.9c-8.3-0.7-16.4-0.5-22.5,0c-0.3,0-0.5,0.1-0.8,0.1c0.4,1.6,0.7,3.2,0.9,4.8
							c0.8,5.7,0.8,11.6,2.4,17.1c1.6,5.5,5.3,10.9,10.8,12.6c7.3,2.2,15.3-2.6,22.8-0.7c5.5,1.4,9.4,6.2,12.3,11.1
							c2.8,4.9,5,10.3,8.9,14.4c0.3,0.4,0.7,0.7,1,1c3-4.2,5.3-9,6.7-14.2C272,42.8,267.5,38.4,265.1,33z"/>
					</g>
				</g>
			</g>
			<g>
				<defs>
					<path id="SVGID_25_" d="M231.2,43c0,0-8.4-7.5-9.9-9c0,0-14.2,7.4-20.1,14.2s-2.5,9.9,3.6,6.8C210.8,52,231.2,43,231.2,43z"/>
				</defs>
				<clipPath id="SVGID_26_">
					<use xlink:href="#SVGID_25_"  style="overflow:visible;"/>
				</clipPath>
				<g class="st20">
					<g>
						<linearGradient id="SVGID_27_" gradientUnits="userSpaceOnUse" x1="215.3332" y1="66.9374" x2="219.1063" y2="54.2033">
							<stop  offset="0" style="stop-color:#EF3B57"/>
							<stop  offset="1" style="stop-color:#EE2F3F"/>
						</linearGradient>
						<path class="st21" d="M230,48.9c-8.1-1.9-17.1,2.4-24.7-0.9c-7.4-3.2-10.4-12.2-10.6-20.2c-0.2-7.8,1.4-15.8,0-23.5
							c-1.6,1-3.1,2.3-4.3,3.7c-5.5,6.3-6.1,15.3-6.6,23.6c-0.5,9.4-0.8,19.3,3.7,27.5c4.7,8.5,13.8,13.8,23.1,16.6
							c15.9,4.9,34.2,3.6,48.1-5.2c-2.7-1.4-5.2-3.2-7.5-5.2C244.3,59.5,238.9,50.9,230,48.9z"/>
						<linearGradient id="SVGID_28_" gradientUnits="userSpaceOnUse" x1="250.0411" y1="37.4481" x2="263.8087" y2="2.4707">
							<stop  offset="0" style="stop-color:#003A2D"/>
							<stop  offset="1" style="stop-color:#046C5A"/>
						</linearGradient>
						<path class="st22" d="M234.9,13c0.7,4.7,3.8,9.6,8.5,10c4.3,0.4,8.4-3.1,12.6-2.3c5.2,1.1,6.9,7.4,9,12.3
							c2.4,5.4,6.9,9.8,12.2,12.5c3-10.8,2.2-22.7-4.5-31.5c-7.3-9.6-23.1-13.6-38-14.9C235.1,3.7,234.2,8.4,234.9,13z"/>
						<linearGradient id="SVGID_29_" gradientUnits="userSpaceOnUse" x1="230.1536" y1="41.0749" x2="221.9674" y2="71.5869">
							<stop  offset="0" style="stop-color:#EE2C26"/>
							<stop  offset="1" style="stop-color:#CA2026"/>
						</linearGradient>
						<path class="st23" d="M269.5,58.6c-3.9-4.1-6-9.5-8.9-14.4c-2.8-4.9-6.8-9.7-12.3-11.1c-7.4-1.9-15.4,2.9-22.8,0.7
							c-5.5-1.7-9.2-7.1-10.8-12.6c-1.6-5.5-1.6-11.4-2.4-17.1c-0.2-1.6-0.5-3.2-0.9-4.8c-5.9,0.6-12,1.9-16.8,5.1
							c1.5,7.7-0.2,15.6,0,23.5c0.2,8,3.2,17,10.6,20.2c7.7,3.3,16.6-1,24.7,0.9c8.8,2,14.3,10.6,21.1,16.5c2.3,2,4.8,3.7,7.5,5.2
							c2.4-1.5,4.7-3.3,6.9-5.2c1.8-1.7,3.5-3.6,5-5.7C270.2,59.3,269.8,58.9,269.5,58.6z"/>
						<linearGradient id="SVGID_30_" gradientUnits="userSpaceOnUse" x1="231.4133" y1="44.6607" x2="244.8089" y2="23.451">
							<stop  offset="0" style="stop-color:#00544C"/>
							<stop  offset="1" style="stop-color:#0C8975"/>
						</linearGradient>
						<path class="st24" d="M265.1,33c-2.2-4.8-3.8-11.2-9-12.3c-4.2-0.9-8.3,2.6-12.6,2.3c-4.7-0.4-7.8-5.3-8.5-10
							c-0.7-4.6,0.2-9.3-0.1-13.9c-8.3-0.7-16.4-0.5-22.5,0c-0.3,0-0.5,0.1-0.8,0.1c0.4,1.6,0.7,3.2,0.9,4.8
							c0.8,5.7,0.8,11.6,2.4,17.1c1.6,5.5,5.3,10.9,10.8,12.6c7.3,2.2,15.3-2.6,22.8-0.7c5.5,1.4,9.4,6.2,12.3,11.1
							c2.8,4.9,5,10.3,8.9,14.4c0.3,0.4,0.7,0.7,1,1c3-4.2,5.3-9,6.7-14.2C272,42.8,267.5,38.4,265.1,33z"/>
					</g>
				</g>
			</g>
		</g>
	</g>
	<g>
		<g>
			<g>
				<path class="st25" d="M8.1,54.4H2.9V25.1h5.2V54.4z M22.1,29.3H6.7v-4.2h15.4V29.3z M20.1,41.4H6.7v-4.1h13.5V41.4z M22.2,54.4
					H6.7v-4.2h15.5V54.4z"/>
				<path class="st25" d="M41.2,44.7c0,2-0.3,3.7-0.9,5.2c-0.6,1.5-1.5,2.7-2.7,3.6c-1.2,0.9-2.8,1.3-4.8,1.3
					c-2.1,0-3.9-0.6-5.2-1.9c-1.3-1.3-2-3.3-2-6.2V32.6h5v14.1c0,1,0.2,1.8,0.5,2.4c0.3,0.6,0.7,1,1.3,1.2c0.5,0.2,1.1,0.4,1.7,0.4
					c1.4,0,2.4-0.3,3.2-0.8c0.8-0.5,1.3-1.3,1.7-2.2c0.3-0.9,0.5-1.9,0.5-3.1L41.2,44.7z M38.8,32.6h5v21.8h-4.7l-0.3-5.2V32.6z"/>
				<path class="st25" d="M57.3,50.5l0.2,3.9h-3.2l-7.6-21.8h5.2L57.3,50.5z M61.1,32.6h5.2l-7.5,21.8h-3.2l0.3-3.9L61.1,32.6z"/>
				<path class="st25" d="M78.9,54.8c-2.2,0-4-0.5-5.6-1.4c-1.6-0.9-2.8-2.2-3.6-3.8c-0.8-1.6-1.3-3.4-1.3-5.3v-0.8
					c0-2.3,0.4-4.2,1.3-5.9c0.9-1.7,2-3,3.5-3.9c1.5-0.9,3.2-1.4,5.1-1.4c2.1,0,3.8,0.5,5.2,1.4c1.4,0.9,2.4,2.2,3.1,3.8
					c0.7,1.6,1,3.5,1,5.6v2.2H70.8v-3.6h11.9v-0.4c0-0.8-0.2-1.6-0.5-2.4c-0.3-0.7-0.8-1.3-1.4-1.8c-0.6-0.5-1.5-0.7-2.5-0.7
					s-2,0.3-2.7,0.9c-0.7,0.6-1.3,1.4-1.7,2.5c-0.4,1.1-0.6,2.4-0.6,3.8v0.8c0,1.2,0.2,2.3,0.7,3.3c0.5,1,1.1,1.8,2,2.3
					c0.9,0.6,1.9,0.9,3.1,0.9c1.2,0,2.2-0.2,3.1-0.7s1.7-1.1,2.3-2l2.6,2.6c-0.7,1-1.7,2-3.1,2.8C82.8,54.4,81.1,54.8,78.9,54.8z"/>
				<path class="st25" d="M96.4,54.4h-5V32.6h4.8l0.2,4.3V54.4z M103,37.2c-0.3-0.1-0.6-0.1-1-0.1c-0.3,0-0.7,0-1,0
					c-1.1,0-2,0.2-2.8,0.6c-0.7,0.4-1.3,1-1.7,1.7c-0.4,0.7-0.6,1.6-0.7,2.6l-1.1,0c0-1.8,0.2-3.5,0.7-5c0.5-1.5,1.2-2.6,2.2-3.5
					c1-0.9,2.2-1.3,3.6-1.3c0.3,0,0.6,0,0.9,0.1c0.3,0.1,0.6,0.1,0.8,0.2L103,37.2z"/>
				<path class="st25" d="M111,54.4h-5V32.6h4.7l0.3,4.5V54.4z M108.5,42.7c0-2,0.3-3.8,1-5.4c0.7-1.6,1.6-2.8,2.9-3.7
					c1.3-0.9,2.9-1.4,4.8-1.4c2,0,3.6,0.6,4.9,1.8c1.3,1.2,1.9,3.2,1.9,5.9v14.5h-5V40.4c0-1-0.2-1.8-0.5-2.4
					c-0.3-0.6-0.8-1-1.3-1.3s-1.3-0.4-2-0.4c-0.9,0-1.7,0.2-2.3,0.5c-0.6,0.3-1.1,0.8-1.5,1.4c-0.4,0.6-0.7,1.3-0.9,2.1
					c-0.2,0.8-0.3,1.6-0.3,2.5L108.5,42.7z M121.4,42c0-1.8,0.3-3.4,1-4.9c0.6-1.5,1.6-2.7,2.9-3.6c1.3-0.9,2.8-1.3,4.7-1.3
					c1.5,0,2.7,0.3,3.8,0.8c1.1,0.5,1.9,1.4,2.5,2.6s0.9,2.8,0.9,4.7v14.1h-5V40.3c0-1.1-0.2-1.9-0.5-2.5c-0.3-0.6-0.8-1-1.3-1.2
					c-0.6-0.2-1.2-0.3-2-0.3c-0.7,0-1.4,0.1-1.9,0.4c-0.6,0.3-1,0.6-1.4,1.1c-0.4,0.5-0.7,1-0.8,1.7c-0.2,0.6-0.3,1.3-0.3,2.1
					L121.4,42z"/>
				<path class="st25" d="M155,44.2h-3.4c-1.8,0-3.1,0.3-4,1c-0.9,0.7-1.3,1.5-1.3,2.6c0,0.9,0.3,1.6,0.9,2.1
					c0.6,0.6,1.4,0.9,2.5,0.9c1,0,1.8-0.2,2.6-0.6c0.7-0.4,1.3-0.9,1.7-1.5s0.6-1.1,0.6-1.6l1.6,2.2c-0.2,0.6-0.4,1.1-0.8,1.8
					s-0.9,1.2-1.5,1.8c-0.6,0.6-1.4,1-2.2,1.4s-1.8,0.5-3,0.5c-1.4,0-2.7-0.3-3.8-0.8c-1.1-0.6-2-1.3-2.6-2.3c-0.6-1-1-2.1-1-3.3
					c0-2.3,0.9-4.1,2.6-5.3c1.7-1.2,4.2-1.9,7.4-1.9h3.7L155,44.2z M154.2,39.7c0-1.1-0.3-2-0.9-2.7c-0.6-0.7-1.6-1-2.8-1
					c-0.8,0-1.4,0.1-2,0.4c-0.6,0.3-1,0.6-1.3,1.1s-0.5,0.9-0.5,1.5h-5c0-1.2,0.4-2.3,1.1-3.3c0.7-1,1.8-1.9,3.1-2.5
					s2.9-0.9,4.8-0.9c1.6,0,3.1,0.3,4.4,0.8s2.3,1.4,3,2.5c0.7,1.1,1.1,2.5,1.1,4.2v9.6c0,1,0.1,1.9,0.2,2.7c0.1,0.8,0.4,1.5,0.6,2
					v0.3h-5.1c-0.2-0.5-0.4-1.2-0.5-2c-0.1-0.8-0.2-1.6-0.2-2.4V39.7z"/>
				<path class="st25" d="M169.2,54.4h-5V32.6h4.7l0.3,4.7V54.4z M166.7,42.7c0-2.1,0.4-4,1.1-5.5c0.7-1.6,1.7-2.8,3-3.7
					c1.3-0.9,2.8-1.3,4.6-1.3c1.4,0,2.6,0.3,3.7,0.8c1,0.5,1.8,1.4,2.4,2.6c0.6,1.2,0.9,2.8,0.9,4.8v14h-5V40.3c0-1-0.1-1.8-0.4-2.4
					c-0.3-0.6-0.7-1-1.3-1.3c-0.6-0.2-1.3-0.4-2.1-0.4c-0.8,0-1.6,0.2-2.2,0.5c-0.6,0.3-1.2,0.8-1.6,1.4c-0.5,0.6-0.8,1.3-1,2.1
					c-0.2,0.8-0.4,1.6-0.4,2.5L166.7,42.7z"/>
			</g>
		</g>
		<g>
			<g>
				<path class="st25" d="M294.6,54.6h-5.2l-12.9-20.7v20.7h-5.2V25.3h5.2l13,20.7V25.3h5.2V54.6z"/>
				<path class="st25" d="M315.5,44.9c0,2-0.3,3.7-0.9,5.2c-0.6,1.5-1.5,2.7-2.7,3.6c-1.2,0.9-2.8,1.3-4.8,1.3
					c-2.1,0-3.9-0.6-5.2-1.9s-2-3.3-2-6.2V32.8h5v14.1c0,1,0.2,1.8,0.5,2.4c0.3,0.6,0.7,1,1.3,1.2s1.1,0.4,1.7,0.4
					c1.4,0,2.4-0.3,3.2-0.8c0.8-0.5,1.3-1.3,1.7-2.2c0.3-0.9,0.5-1.9,0.5-3.1L315.5,44.9z M313.2,32.8h5v21.8h-4.7l-0.3-5.2V32.8z"
					/>
				<path class="st25" d="M331.3,49l0.9,5.4l-3.5,0.8l-7.9-22.3h5.4L331.3,49z M335.2,32.8h5.3l-8.7,25.1c-0.2,0.6-0.5,1.1-0.8,1.8
					c-0.3,0.6-0.7,1.2-1.3,1.8c-0.5,0.6-1.2,1-1.9,1.4c-0.8,0.4-1.7,0.5-2.8,0.5c-0.3,0-0.6,0-0.9-0.1c-0.3,0-0.5-0.1-0.8-0.1
					c-0.3-0.1-0.5-0.1-0.7-0.2v-3.8c0.1,0,0.3,0,0.5,0c0.2,0,0.3,0,0.5,0c1.2,0,2.1-0.2,2.7-0.6c0.6-0.4,1.1-1.2,1.4-2.2l1.6-4.2
					L335.2,32.8z"/>
				<path class="st25" d="M353.4,36.5H341v-3.7h12.4V36.5z M349.5,27.5v21c0,0.7,0.1,1.2,0.3,1.5c0.2,0.3,0.5,0.6,0.8,0.7
					c0.3,0.1,0.8,0.2,1.2,0.2c0.3,0,0.7,0,1-0.1c0.3,0,0.6-0.1,0.7-0.1v3.8c-0.4,0.1-0.9,0.2-1.4,0.3c-0.5,0.1-1.2,0.1-1.9,0.1
					c-1.1,0-2.1-0.2-3-0.6c-0.9-0.4-1.5-1.1-2-2s-0.7-2.1-0.7-3.6V27.5H349.5z"/>
				<path class="st25" d="M369.2,48.7c0-0.5-0.1-0.9-0.4-1.2c-0.2-0.4-0.7-0.7-1.4-1c-0.7-0.3-1.7-0.6-3-0.9
					c-1.5-0.3-2.9-0.8-4.1-1.3c-1.2-0.5-2.1-1.2-2.7-2.1c-0.7-0.8-1-1.9-1-3.1c0-1.2,0.3-2.3,1-3.3c0.7-1,1.7-1.8,2.9-2.4
					c1.3-0.6,2.8-0.9,4.5-0.9c1.8,0,3.4,0.3,4.7,0.9c1.3,0.6,2.3,1.4,3,2.5c0.7,1,1.1,2.2,1.1,3.5h-5c0-0.9-0.3-1.6-1-2.3
					c-0.6-0.7-1.6-1-2.9-1c-0.8,0-1.5,0.1-2,0.4s-0.9,0.6-1.2,1c-0.3,0.4-0.4,0.8-0.4,1.3c0,0.5,0.1,0.9,0.4,1.2
					c0.3,0.3,0.7,0.7,1.4,0.9c0.6,0.3,1.5,0.5,2.7,0.8c1.7,0.3,3.1,0.8,4.3,1.3c1.2,0.5,2.1,1.2,2.8,2.1c0.7,0.9,1,2,1,3.3
					c0,1.3-0.4,2.4-1.1,3.4c-0.7,1-1.8,1.8-3.1,2.3c-1.3,0.6-2.9,0.8-4.7,0.8c-2,0-3.7-0.4-5.1-1.1s-2.4-1.6-3.1-2.7
					c-0.7-1.1-1.1-2.3-1.1-3.5h4.8c0.1,0.9,0.3,1.6,0.7,2.1s1,0.9,1.7,1.1s1.4,0.4,2.1,0.4c0.9,0,1.6-0.1,2.1-0.3
					c0.6-0.2,1-0.5,1.3-0.9C369.1,49.7,369.2,49.2,369.2,48.7z"/>
			</g>
		</g>
	</g>
	<g>
		<g>
			<path class="st25" d="M5.4,71.7l0.5,2.4H5.3L3,65.2h0.8L5.4,71.7z M8,65.2h0.6l-0.5,1.9l-2,6.9H5.4L6,71.7L8,65.2z M10.5,71.7
				l0.6,2.3h-0.6l-2-6.9L8,65.2h0.6L10.5,71.7z M12.7,65.2h0.8l-2.3,8.9h-0.6l0.5-2.4L12.7,65.2z"/>
			<path class="st25" d="M20.8,70.8h-1.4c-0.7,0-1.3,0.1-1.7,0.4c-0.4,0.3-0.6,0.6-0.6,1.1c0,0.4,0.1,0.7,0.4,0.9
				c0.3,0.3,0.6,0.4,1.1,0.4c0.4,0,0.8-0.1,1.1-0.2c0.3-0.1,0.6-0.3,0.8-0.6s0.3-0.5,0.4-0.8l0.3,0.4c-0.1,0.2-0.1,0.4-0.3,0.6
				c-0.1,0.2-0.3,0.4-0.5,0.6c-0.2,0.2-0.5,0.3-0.8,0.5c-0.3,0.1-0.6,0.2-1,0.2c-0.4,0-0.8-0.1-1.1-0.2s-0.6-0.4-0.7-0.7
				c-0.2-0.3-0.3-0.6-0.3-1c0-0.6,0.3-1.2,0.8-1.5c0.5-0.4,1.3-0.6,2.2-0.6h1.5L20.8,70.8z M20.7,69.5c0-0.5-0.1-0.8-0.4-1.1
				C19.9,68.1,19.5,68,19,68c-0.3,0-0.6,0.1-0.9,0.2s-0.5,0.3-0.6,0.5c-0.2,0.2-0.2,0.4-0.2,0.7l-0.7,0c0-0.3,0.1-0.6,0.3-0.9
				s0.5-0.5,0.9-0.7c0.4-0.2,0.8-0.3,1.3-0.3c0.5,0,0.9,0.1,1.2,0.2s0.6,0.4,0.8,0.7c0.2,0.3,0.3,0.7,0.3,1.2v3.2
				c0,0.2,0,0.5,0.1,0.7c0,0.2,0.1,0.4,0.1,0.6v0.1h-0.8c0-0.1-0.1-0.3-0.1-0.6c0-0.2,0-0.4,0-0.6V69.5z"/>
			<path class="st25" d="M29.4,70.8H28c-0.7,0-1.3,0.1-1.7,0.4s-0.6,0.6-0.6,1.1c0,0.4,0.1,0.7,0.4,0.9c0.3,0.3,0.6,0.4,1.1,0.4
				c0.4,0,0.8-0.1,1.1-0.2c0.3-0.1,0.6-0.3,0.8-0.6s0.3-0.5,0.4-0.8l0.3,0.4c-0.1,0.2-0.1,0.4-0.3,0.6s-0.3,0.4-0.5,0.6
				c-0.2,0.2-0.5,0.3-0.8,0.5c-0.3,0.1-0.6,0.2-1,0.2c-0.4,0-0.8-0.1-1.1-0.2s-0.6-0.4-0.7-0.7c-0.2-0.3-0.3-0.6-0.3-1
				c0-0.6,0.3-1.2,0.8-1.5c0.5-0.4,1.3-0.6,2.2-0.6h1.5L29.4,70.8z M29.2,69.5c0-0.5-0.1-0.8-0.4-1.1c-0.3-0.3-0.7-0.4-1.3-0.4
				c-0.3,0-0.6,0.1-0.9,0.2c-0.3,0.1-0.5,0.3-0.6,0.5c-0.2,0.2-0.2,0.4-0.2,0.7l-0.7,0c0-0.3,0.1-0.6,0.3-0.9s0.5-0.5,0.9-0.7
				c0.4-0.2,0.8-0.3,1.3-0.3c0.5,0,0.9,0.1,1.2,0.2s0.6,0.4,0.8,0.7c0.2,0.3,0.3,0.7,0.3,1.2v3.2c0,0.2,0,0.5,0.1,0.7
				c0,0.2,0.1,0.4,0.1,0.6v0.1h-0.8c0-0.1-0.1-0.3-0.1-0.6c0-0.2,0-0.4,0-0.6V69.5z"/>
			<path class="st25" d="M34.5,74.1h-0.7v-6.6h0.7l0,1.1V74.1z M36.8,68.1c-0.1,0-0.2,0-0.2,0s-0.2,0-0.2,0c-0.4,0-0.8,0.1-1.1,0.3
				s-0.5,0.5-0.6,0.8c-0.1,0.3-0.2,0.7-0.2,1.1l-0.3,0.1c0-0.6,0.1-1.1,0.2-1.5s0.4-0.8,0.7-1.1s0.8-0.4,1.3-0.4c0.1,0,0.2,0,0.3,0
				c0.1,0,0.2,0,0.2,0.1L36.8,68.1z"/>
			<path class="st25" d="M44.4,70.7c0-0.7,0.1-1.3,0.3-1.8c0.2-0.5,0.5-0.9,0.9-1.2c0.4-0.3,0.8-0.4,1.4-0.4c0.5,0,0.9,0.1,1.3,0.3
				c0.4,0.2,0.6,0.5,0.9,0.9c0.2,0.4,0.4,0.9,0.4,1.4v1.6c-0.1,0.5-0.2,0.9-0.4,1.3c-0.2,0.4-0.5,0.7-0.9,0.9
				c-0.4,0.2-0.8,0.3-1.3,0.3c-0.5,0-1-0.1-1.3-0.4c-0.4-0.3-0.7-0.7-0.9-1.2c-0.2-0.5-0.3-1.1-0.3-1.7V70.7z M45.2,70.8
				c0,0.5,0.1,1,0.2,1.4c0.1,0.4,0.3,0.7,0.6,1c0.3,0.2,0.6,0.4,1.1,0.4c0.4,0,0.8-0.1,1.1-0.2s0.5-0.4,0.7-0.6s0.3-0.6,0.4-0.9
				v-1.9c0-0.2-0.1-0.4-0.2-0.7c-0.1-0.2-0.2-0.4-0.4-0.6c-0.2-0.2-0.4-0.3-0.6-0.5C47.7,68,47.4,68,47.1,68c-0.4,0-0.8,0.1-1.1,0.4
				s-0.5,0.6-0.6,1c-0.1,0.4-0.2,0.9-0.2,1.4V70.8z M49,64.7h0.7v9.3H49l0-1.3V64.7z"/>
			<path class="st25" d="M54.2,74.1h-0.7v-6.6h0.7l0,1.1V74.1z M56.5,68.1c-0.1,0-0.2,0-0.2,0s-0.2,0-0.2,0c-0.4,0-0.8,0.1-1.1,0.3
				s-0.5,0.5-0.6,0.8c-0.1,0.3-0.2,0.7-0.2,1.1l-0.3,0.1c0-0.6,0.1-1.1,0.2-1.5s0.4-0.8,0.7-1.1s0.8-0.4,1.3-0.4c0.1,0,0.2,0,0.3,0
				c0.1,0,0.2,0,0.2,0.1L56.5,68.1z"/>
			<path class="st25" d="M59.2,70.7c0-0.6,0.1-1.2,0.4-1.7c0.2-0.5,0.6-0.9,1-1.2c0.4-0.3,1-0.4,1.5-0.4c0.6,0,1.1,0.1,1.6,0.4
				c0.4,0.3,0.8,0.7,1,1.2c0.2,0.5,0.4,1.1,0.4,1.7v0.2c0,0.6-0.1,1.2-0.4,1.7c-0.2,0.5-0.6,0.9-1,1.2c-0.4,0.3-1,0.4-1.5,0.4
				c-0.6,0-1.1-0.1-1.6-0.4c-0.4-0.3-0.8-0.7-1-1.2c-0.2-0.5-0.4-1.1-0.4-1.7V70.7z M59.9,70.9c0,0.5,0.1,0.9,0.3,1.3
				c0.2,0.4,0.4,0.7,0.7,1c0.3,0.2,0.7,0.4,1.2,0.4c0.5,0,0.9-0.1,1.2-0.4c0.3-0.2,0.6-0.6,0.7-1c0.2-0.4,0.3-0.9,0.3-1.3v-0.2
				c0-0.5-0.1-0.9-0.3-1.3s-0.4-0.7-0.7-1C63,68.1,62.6,68,62.1,68c-0.5,0-0.9,0.1-1.2,0.4c-0.3,0.3-0.6,0.6-0.7,1
				c-0.2,0.4-0.3,0.9-0.3,1.3V70.9z"/>
			<path class="st25" d="M69.1,74.1h-0.7v-6.6h0.7l0,1.4V74.1z M68.6,70.2c0-0.5,0.2-1,0.4-1.4c0.2-0.4,0.5-0.8,0.9-1
				c0.4-0.3,0.8-0.4,1.4-0.4c0.6,0,1.2,0.2,1.5,0.5c0.4,0.4,0.6,1,0.6,1.8v4.4h-0.7v-4.4c0-0.4-0.1-0.8-0.2-1s-0.3-0.4-0.6-0.5
				S71.3,68,71,68c-0.4,0-0.7,0.1-0.9,0.2c-0.3,0.2-0.5,0.3-0.6,0.6s-0.3,0.5-0.4,0.8C69,69.8,69,70.1,69,70.3L68.6,70.2z
				 M72.9,69.8c0-0.4,0.1-0.8,0.4-1.2s0.5-0.7,0.9-0.9c0.4-0.2,0.8-0.3,1.3-0.3c0.5,0,0.8,0.1,1.2,0.2c0.3,0.2,0.6,0.4,0.7,0.8
				c0.2,0.4,0.3,0.8,0.3,1.4v4.3h-0.7v-4.3c0-0.5-0.1-0.8-0.2-1.1s-0.3-0.4-0.6-0.5S75.6,68,75.3,68c-0.3,0-0.6,0.1-0.8,0.2
				c-0.2,0.1-0.4,0.3-0.6,0.4s-0.3,0.4-0.4,0.6s-0.1,0.4-0.1,0.6L72.9,69.8z"/>
			<path class="st25" d="M83.9,74.2c-0.6,0-1.1-0.1-1.5-0.4c-0.4-0.3-0.8-0.7-1-1.1s-0.4-1-0.4-1.7v-0.3c0-0.7,0.1-1.3,0.4-1.8
				c0.3-0.5,0.6-0.9,1-1.2c0.4-0.3,0.9-0.4,1.4-0.4c0.6,0,1,0.1,1.4,0.4c0.4,0.3,0.7,0.6,0.9,1.1s0.3,1,0.3,1.6v0.4h-5v-0.6h4.3
				v-0.1c0-0.4-0.1-0.7-0.2-1s-0.3-0.6-0.6-0.8s-0.6-0.3-1-0.3c-0.4,0-0.8,0.1-1.1,0.3c-0.3,0.2-0.6,0.6-0.7,1
				c-0.2,0.4-0.3,0.9-0.3,1.4v0.3c0,0.5,0.1,0.9,0.3,1.3s0.5,0.7,0.8,0.9c0.3,0.2,0.7,0.4,1.2,0.4c0.4,0,0.7-0.1,1-0.2
				c0.3-0.1,0.6-0.4,0.8-0.7l0.5,0.3c-0.2,0.3-0.5,0.6-0.9,0.8C85,74.1,84.5,74.2,83.9,74.2z"/>
			<path class="st25" d="M90.4,74.1h-0.7v-6.6h0.7l0,1.4V74.1z M89.9,70.2c0-0.5,0.2-1,0.4-1.4s0.5-0.8,0.9-1
				c0.4-0.3,0.8-0.4,1.3-0.4c0.4,0,0.8,0.1,1.1,0.2c0.3,0.2,0.6,0.4,0.7,0.8c0.2,0.4,0.3,0.8,0.3,1.4v4.3h-0.7v-4.3
				c0-0.5-0.1-0.8-0.2-1.1c-0.1-0.3-0.3-0.4-0.5-0.6C92.9,68,92.6,68,92.3,68c-0.3,0-0.7,0.1-0.9,0.2c-0.3,0.2-0.5,0.3-0.7,0.6
				c-0.2,0.2-0.3,0.5-0.4,0.8c-0.1,0.3-0.1,0.5-0.1,0.8L89.9,70.2z"/>
			<path class="st25" d="M105.8,68.1h-3.3v-0.6h3.3V68.1z M104.4,65.8v6.7c0,0.3,0,0.5,0.1,0.7c0.1,0.2,0.2,0.3,0.3,0.3
				c0.1,0.1,0.3,0.1,0.4,0.1c0.1,0,0.2,0,0.3,0s0.2,0,0.3,0l0,0.6c-0.1,0-0.2,0.1-0.3,0.1c-0.1,0-0.3,0-0.4,0
				c-0.3,0-0.5-0.1-0.7-0.2s-0.4-0.3-0.5-0.5c-0.1-0.3-0.2-0.6-0.2-1v-6.7H104.4z"/>
			<path class="st25" d="M109.9,74.1h-0.7v-9.3h0.7V74.1z M109.4,70.2c0-0.5,0.2-1,0.4-1.4c0.2-0.4,0.5-0.8,0.9-1
				c0.4-0.3,0.8-0.4,1.3-0.4c0.4,0,0.8,0.1,1.1,0.2c0.3,0.2,0.6,0.4,0.7,0.8c0.2,0.4,0.3,0.8,0.3,1.4v4.3h-0.7v-4.3
				c0-0.5-0.1-0.8-0.2-1.1c-0.1-0.3-0.3-0.4-0.5-0.6s-0.5-0.2-0.8-0.2c-0.3,0-0.7,0.1-0.9,0.2c-0.3,0.2-0.5,0.3-0.7,0.6
				s-0.3,0.5-0.4,0.8c-0.1,0.3-0.1,0.5-0.1,0.8L109.4,70.2z"/>
			<path class="st25" d="M122.6,71.3c0,0.6-0.1,1-0.3,1.5c-0.2,0.4-0.5,0.8-0.8,1c-0.4,0.2-0.9,0.4-1.5,0.4c-0.6,0-1.2-0.2-1.6-0.6
				c-0.4-0.4-0.6-1-0.6-1.9v-4.2h0.7v4.2c0,0.5,0.1,0.8,0.2,1.1s0.3,0.5,0.6,0.6c0.2,0.1,0.5,0.2,0.8,0.2c0.5,0,1-0.1,1.3-0.3
				c0.3-0.2,0.5-0.5,0.7-0.8c0.1-0.3,0.2-0.7,0.2-1.1L122.6,71.3z M122.1,67.5h0.7v6.6h-0.7l0-1.5V67.5z"/>
			<path class="st25" d="M126.5,65.6c0-0.1,0-0.3,0.1-0.3c0.1-0.1,0.2-0.1,0.4-0.1c0.2,0,0.3,0,0.4,0.1c0.1,0.1,0.1,0.2,0.1,0.3
				c0,0.1,0,0.2-0.1,0.3c-0.1,0.1-0.2,0.1-0.4,0.1c-0.2,0-0.3,0-0.4-0.1C126.6,65.8,126.5,65.7,126.5,65.6z M127.4,74.1h-0.7v-6.6
				h0.7V74.1z"/>
			<path class="st25" d="M135.2,72.4c0-0.2,0-0.4-0.1-0.5c-0.1-0.2-0.3-0.3-0.5-0.5c-0.3-0.1-0.6-0.3-1.1-0.4
				c-0.5-0.1-0.9-0.2-1.2-0.4c-0.3-0.2-0.6-0.3-0.8-0.6c-0.2-0.2-0.3-0.5-0.3-0.9c0-0.3,0.1-0.6,0.3-0.9s0.5-0.5,0.8-0.6
				c0.3-0.2,0.8-0.2,1.2-0.2c0.5,0,0.9,0.1,1.3,0.3s0.6,0.4,0.8,0.7s0.3,0.6,0.3,1h-0.7c0-0.3-0.1-0.7-0.4-0.9
				c-0.3-0.3-0.7-0.4-1.3-0.4c-0.4,0-0.7,0.1-0.9,0.2c-0.2,0.1-0.4,0.3-0.5,0.4c-0.1,0.2-0.2,0.4-0.2,0.5c0,0.2,0,0.4,0.1,0.5
				c0.1,0.2,0.3,0.3,0.5,0.4c0.3,0.1,0.6,0.2,1.1,0.4c0.5,0.1,1,0.3,1.3,0.4c0.3,0.2,0.6,0.4,0.8,0.6c0.2,0.2,0.2,0.5,0.2,0.9
				c0,0.4-0.1,0.7-0.3,1c-0.2,0.3-0.5,0.5-0.8,0.6s-0.8,0.2-1.3,0.2c-0.6,0-1-0.1-1.4-0.3s-0.7-0.4-0.9-0.7s-0.3-0.6-0.3-1h0.7
				c0,0.3,0.1,0.6,0.3,0.8c0.2,0.2,0.4,0.3,0.7,0.4s0.5,0.1,0.8,0.1c0.4,0,0.7-0.1,0.9-0.2c0.3-0.1,0.4-0.3,0.6-0.4
				S135.2,72.6,135.2,72.4z"/>
			<path class="st25" d="M140.1,74.1h-0.7v-9.3h0.7V74.1z M141.2,70.5l-1.3,1.3l-0.1-0.7l1.1-1.1l2.5-2.5h0.9L141.2,70.5z
				 M140.9,70.6l0.4-0.6l3.2,4h-0.9L140.9,70.6z"/>
			<path class="st25" d="M147,70.7c0-0.6,0.1-1.2,0.4-1.7c0.2-0.5,0.6-0.9,1-1.2c0.4-0.3,1-0.4,1.5-0.4c0.6,0,1.1,0.1,1.6,0.4
				c0.4,0.3,0.8,0.7,1,1.2c0.2,0.5,0.4,1.1,0.4,1.7v0.2c0,0.6-0.1,1.2-0.4,1.7c-0.2,0.5-0.6,0.9-1,1.2c-0.4,0.3-1,0.4-1.5,0.4
				c-0.6,0-1.1-0.1-1.6-0.4c-0.4-0.3-0.8-0.7-1-1.2c-0.2-0.5-0.4-1.1-0.4-1.7V70.7z M147.7,70.9c0,0.5,0.1,0.9,0.3,1.3
				c0.2,0.4,0.4,0.7,0.7,1c0.3,0.2,0.7,0.4,1.2,0.4c0.5,0,0.9-0.1,1.2-0.4c0.3-0.2,0.6-0.6,0.7-1c0.2-0.4,0.3-0.9,0.3-1.3v-0.2
				c0-0.5-0.1-0.9-0.3-1.3s-0.4-0.7-0.7-1c-0.3-0.3-0.7-0.4-1.2-0.4c-0.5,0-0.9,0.1-1.2,0.4c-0.3,0.3-0.6,0.6-0.7,1
				c-0.2,0.4-0.3,0.9-0.3,1.3V70.9z"/>
			<path class="st25" d="M156.9,74.1h-0.7v-6.6h0.7l0,1.4V74.1z M156.4,70.2c0-0.5,0.2-1,0.4-1.4s0.5-0.8,0.9-1
				c0.4-0.3,0.8-0.4,1.4-0.4c0.6,0,1.2,0.2,1.5,0.5c0.4,0.4,0.6,1,0.6,1.8v4.4h-0.7v-4.4c0-0.4-0.1-0.8-0.2-1s-0.3-0.4-0.6-0.5
				s-0.5-0.2-0.8-0.2c-0.4,0-0.7,0.1-0.9,0.2c-0.3,0.2-0.5,0.3-0.6,0.6s-0.3,0.5-0.4,0.8c-0.1,0.3-0.1,0.5-0.1,0.8L156.4,70.2z
				 M160.7,69.8c0-0.4,0.1-0.8,0.4-1.2s0.5-0.7,0.9-0.9c0.4-0.2,0.8-0.3,1.3-0.3c0.5,0,0.8,0.1,1.2,0.2c0.3,0.2,0.6,0.4,0.7,0.8
				c0.2,0.4,0.3,0.8,0.3,1.4v4.3h-0.7v-4.3c0-0.5-0.1-0.8-0.2-1.1s-0.3-0.4-0.6-0.5s-0.5-0.2-0.8-0.2c-0.3,0-0.6,0.1-0.8,0.2
				c-0.2,0.1-0.4,0.3-0.6,0.4c-0.2,0.2-0.3,0.4-0.4,0.6s-0.1,0.4-0.1,0.6L160.7,69.8z"/>
			<path class="st25" d="M171.7,74.2c-0.6,0-1.1-0.1-1.5-0.4c-0.4-0.3-0.8-0.7-1-1.1s-0.4-1-0.4-1.7v-0.3c0-0.7,0.1-1.3,0.4-1.8
				c0.3-0.5,0.6-0.9,1-1.2c0.4-0.3,0.9-0.4,1.4-0.4c0.6,0,1,0.1,1.4,0.4c0.4,0.3,0.7,0.6,0.9,1.1s0.3,1,0.3,1.6v0.4h-5v-0.6h4.3
				v-0.1c0-0.4-0.1-0.7-0.2-1c-0.1-0.3-0.3-0.6-0.6-0.8s-0.6-0.3-1-0.3c-0.4,0-0.8,0.1-1.1,0.3c-0.3,0.2-0.6,0.6-0.7,1
				c-0.2,0.4-0.3,0.9-0.3,1.4v0.3c0,0.5,0.1,0.9,0.3,1.3s0.5,0.7,0.8,0.9c0.3,0.2,0.7,0.4,1.2,0.4c0.4,0,0.7-0.1,1-0.2
				c0.3-0.1,0.6-0.4,0.8-0.7L174,73c-0.2,0.3-0.5,0.6-0.9,0.8C172.8,74.1,172.3,74.2,171.7,74.2z"/>
			<path class="st25" d="M178.2,74.1h-0.7v-6.6h0.7l0,1.4V74.1z M177.7,70.2c0-0.5,0.2-1,0.4-1.4s0.5-0.8,0.9-1
				c0.4-0.3,0.8-0.4,1.3-0.4c0.4,0,0.8,0.1,1.1,0.2c0.3,0.2,0.6,0.4,0.7,0.8c0.2,0.4,0.3,0.8,0.3,1.4v4.3h-0.7v-4.3
				c0-0.5-0.1-0.8-0.2-1.1c-0.1-0.3-0.3-0.4-0.5-0.6c-0.2-0.1-0.5-0.2-0.8-0.2c-0.3,0-0.7,0.1-0.9,0.2c-0.3,0.2-0.5,0.3-0.7,0.6
				c-0.2,0.2-0.3,0.5-0.4,0.8c-0.1,0.3-0.1,0.5-0.1,0.8L177.7,70.2z"/>
		</g>
	</g>
</g>
</svg>
