<svg xmlns="http://www.w3.org/2000/svg" viewBox="0 0 317.2 181.96"><defs><style>.cls-1,.cls-3{fill:#fff;}.cls-1,.cls-2{fill-rule:evenodd;}.cls-2{fill:#fdc300;}</style></defs><g id="Layer_2" data-name="Layer 2"><g id="Laag_1" data-name="Laag 1"><polygon class="cls-1" points="209.43 181.39 277.6 181.39 277.6 160.9 243.51 160.9 277.6 124.89 277.6 107.93 210.65 107.93 210.65 128.42 243.38 128.42 209.43 164.43 209.43 181.39"></polygon><polygon class="cls-1" points="131.28 181.39 199.45 181.39 199.45 160.9 165.37 160.9 199.45 124.89 199.45 107.93 132.51 107.93 132.51 128.42 165.23 128.42 131.28 164.43 131.28 181.39"></polygon><polygon class="cls-2" points="132.97 0 132.97 33.47 0 96.24 0 62.78 132.97 0 132.97 0"></polygon><polygon class="cls-2" points="132.97 33.47 199.45 64.86 199.45 96.24 132.97 96.24 132.97 33.47 132.97 33.47"></polygon><path class="cls-3" d="M212.63,58.82h-.07L212.37,60h-1.25V47.34h1.44v5.15h.07a2.93,2.93,0,0,1,2.64-1.37c2.48,0,3.71,1.94,3.73,4.53,0,2.83-1.43,4.55-3.73,4.55A2.92,2.92,0,0,1,212.63,58.82Zm4.91-3.17c0-1.75-.69-3.25-2.51-3.25s-2.5,1.51-2.5,3.25.75,3.26,2.5,3.26S217.54,57.42,217.54,55.65Z"></path><path class="cls-3" d="M220.72,55.66c0-2.52,1.25-4.54,4-4.54s4,2,4,4.54-1.22,4.54-4,4.54S220.72,58.19,220.72,55.66Zm6.47,0c0-1.88-.72-3.26-2.5-3.26s-2.51,1.39-2.51,3.26.74,3.25,2.51,3.25S227.19,57.55,227.19,55.66Z"></path><path class="cls-3" d="M230.89,57V51.27h1.44v5.46c0,1.37.63,2.16,2,2.16s2.32-1,2.32-2.79V51.27h1.44V60h-1.25l-.12-1.39h-.07A2.86,2.86,0,0,1,234,60.18,2.89,2.89,0,0,1,230.89,57Z"></path><path class="cls-3" d="M239.83,51.44v-.17h1.5l1.75,6.82h.07l2.06-6.82h1.47l2.06,6.82h.07l1.75-6.82H252v.17L249.55,60h-1.49L246,53.23h-.07L243.82,60h-1.5Z"></path><path class="cls-3" d="M253.23,55.66c0-2.52,1.25-4.54,4-4.54s4,2,4,4.54-1.22,4.54-4,4.54S253.23,58.19,253.23,55.66Zm6.47,0c0-1.88-.72-3.26-2.51-3.26s-2.5,1.39-2.5,3.26.74,3.25,2.5,3.25S259.7,57.55,259.7,55.66Z"></path><path class="cls-3" d="M263.57,51.27h1.25l.12,1.37H265a2.86,2.86,0,0,1,2.71-1.52,2.89,2.89,0,0,1,3.07,3.22V60h-1.44V54.57c0-1.38-.63-2.17-2-2.17s-2.32,1-2.32,2.8V60h-1.44Z"></path><path class="cls-3" d="M274.32,57.69v-5.2h-1.46V51.27h1.49V48.92h1.41v2.35h2.14v1.22h-2.14v5.08c0,.84.36,1.2,1.15,1.2h1V60h-1.31C274.9,60,274.32,59.15,274.32,57.69Z"></path><path class="cls-3" d="M279.06,51.44v-.17h1.49l1.75,6.82h.07l2.06-6.82h1.48L288,58.09H288l1.75-6.82h1.46v.17L288.77,60h-1.49l-2.06-6.81h-.07L283,60h-1.49Z"></path><path class="cls-3" d="M292.45,55.66c0-2.54,1.25-4.54,4-4.54,2.47,0,3.79,1.83,3.79,4.27v.71H294c0,1.66.84,2.81,2.47,2.81a2,2,0,0,0,2.22-1.41h1.44a3.45,3.45,0,0,1-3.66,2.7C293.84,60.2,292.45,58.24,292.45,55.66Zm6.27-.77a2.22,2.22,0,0,0-2.3-2.49A2.32,2.32,0,0,0,294,54.89Z"></path><path class="cls-3" d="M302.62,51.27h1.25l.12,1.48h.07a2.39,2.39,0,0,1,2.32-1.58h.79v1.39h-.69c-1.67,0-2.42,1.16-2.42,3.23V60h-1.44Z"></path><path class="cls-3" d="M309.31,51.27h1.26l.19,1.22h.06a3,3,0,0,1,2.65-1.37c2.3,0,3.71,1.71,3.73,4.54,0,2.6-1.26,4.54-3.73,4.54a2.94,2.94,0,0,1-2.65-1.38h-.06V64h-1.45Zm6.43,4.39c0-1.76-.69-3.26-2.51-3.26s-2.51,1.51-2.51,3.26.76,3.25,2.51,3.25S315.74,57.42,315.74,55.66Z"></path><path class="cls-3" d="M210.43,75.61c0-1.48,1-2.75,3.63-2.75h2.16V72.3a1.77,1.77,0,0,0-2-1.82c-1.29,0-1.92.72-1.94,1.56h-1.39c0-1.68,1.41-2.8,3.33-2.8,2.25,0,3.44,1.36,3.44,3v5.91h-1.22l-.11-1.24h-.06a3,3,0,0,1-2.75,1.39A2.75,2.75,0,0,1,210.43,75.61Zm5.79-.84V74h-2.16c-1.43,0-2.17.55-2.17,1.58,0,.88.59,1.53,1.86,1.53A2.35,2.35,0,0,0,216.22,74.77Z"></path><path class="cls-3" d="M219.86,73.77c0-2.59,1.25-4.53,3.73-4.53a2.93,2.93,0,0,1,2.64,1.37h.07V65.46h1.44V78.17h-1.25L226.3,77h-.07a2.93,2.93,0,0,1-2.64,1.37C221.28,78.32,219.88,76.61,219.86,73.77Zm6.47,0c0-1.73-.75-3.24-2.5-3.24s-2.51,1.49-2.51,3.24S222,77,223.83,77,226.33,75.53,226.33,73.77Z"></path><path class="cls-3" d="M229.2,69.57v-.18h1.5l2.69,7.1h.07l2.59-7.1h1.5v.18l-3.4,8.6h-1.5Z"></path><path class="cls-3" d="M239.35,65.89H241v1.68h-1.62Zm.09,3.5h1.44v8.78h-1.44Z"></path><path class="cls-3" d="M243.11,73.79c0-2.54,1.26-4.55,4-4.55,2.47,0,3.79,1.84,3.79,4.28v.7h-6.25c0,1.67.84,2.82,2.48,2.82a2,2,0,0,0,2.21-1.41h1.44a3.44,3.44,0,0,1-3.65,2.69C244.5,78.32,243.11,76.37,243.11,73.79Zm6.27-.77a2.22,2.22,0,0,0-2.3-2.49A2.32,2.32,0,0,0,244.64,73Z"></path><path class="cls-3" d="M252.59,75.27H254c0,1.17.9,1.77,2.15,1.77s2-.42,2-1.26c0-.58-.4-1-1.34-1.25l-1.75-.33a2.43,2.43,0,0,1-2.23-2.45c0-1.46,1.25-2.51,3.19-2.51s3.38,1.08,3.38,2.83H258c0-1.11-.87-1.61-2-1.61s-1.8.43-1.8,1.29c0,.68.56,1.08,1.53,1.23l1.37.26c1.65.38,2.49,1,2.49,2.54s-1.58,2.54-3.47,2.54C254.1,78.32,252.64,77.19,252.59,75.27Z"></path><path class="cls-3" d="M266.52,73.79c0-2.54,1.25-4.55,4-4.55,2.48,0,3.8,1.84,3.8,4.28v.7H268c0,1.67.84,2.82,2.47,2.82a2,2,0,0,0,2.22-1.41h1.44a3.46,3.46,0,0,1-3.66,2.69C267.91,78.32,266.52,76.37,266.52,73.79Zm6.27-.77a2.23,2.23,0,0,0-2.31-2.49A2.32,2.32,0,0,0,268.05,73Z"></path><path class="cls-3" d="M276.69,69.39h1.25l.12,1.38h.07a2.86,2.86,0,0,1,2.71-1.53,2.89,2.89,0,0,1,3.07,3.23v5.7h-1.44V72.69c0-1.37-.63-2.16-2-2.16s-2.32,1-2.32,2.8v4.84h-1.44Z"></path><path class="cls-3" d="M211.12,87.52h1.25l.12,1.48h.07a2.39,2.39,0,0,1,2.32-1.58h.79v1.39H215c-1.66,0-2.42,1.17-2.42,3.23V96.3h-1.44Z"></path><path class="cls-3" d="M216.79,91.92c0-2.54,1.25-4.55,4-4.55,2.48,0,3.8,1.83,3.8,4.27v.71H218.3c0,1.66.84,2.81,2.47,2.81A2,2,0,0,0,223,93.75h1.45a3.45,3.45,0,0,1-3.66,2.7C218.18,96.45,216.79,94.49,216.79,91.92Zm6.26-.78a2.22,2.22,0,0,0-2.3-2.49,2.33,2.33,0,0,0-2.44,2.49Z"></path><path class="cls-3" d="M226.26,93.74c0-1.48,1.05-2.75,3.63-2.75h2.16v-.57a1.77,1.77,0,0,0-2-1.82c-1.29,0-1.93.72-1.95,1.57h-1.39c0-1.69,1.41-2.8,3.34-2.8,2.24,0,3.43,1.35,3.43,3V96.3h-1.22l-.1-1.24h-.07a3,3,0,0,1-2.75,1.39A2.76,2.76,0,0,1,226.26,93.74Zm5.79-.84v-.76h-2.16c-1.43,0-2.17.55-2.17,1.58,0,.88.59,1.53,1.86,1.53A2.35,2.35,0,0,0,232.05,92.9Z"></path><path class="cls-3" d="M236.38,83.59h1.44V96.3h-1.44Z"></path><path class="cls-3" d="M240.66,84h1.61V85.7h-1.61Zm.08,3.5h1.44V96.3h-1.44Z"></path><path class="cls-3" d="M244.42,93.39h1.44c0,1.17.89,1.77,2.15,1.77s2-.41,2-1.25c0-.58-.4-1-1.34-1.25l-1.76-.33a2.44,2.44,0,0,1-2.23-2.46c0-1.46,1.26-2.5,3.2-2.5s3.38,1.08,3.38,2.83h-1.41c-.05-1.12-.88-1.61-2-1.61s-1.81.43-1.81,1.28c0,.69.57,1.09,1.53,1.24l1.37.26c1.65.37,2.49,1,2.49,2.54s-1.57,2.54-3.46,2.54C245.93,96.45,244.47,95.32,244.42,93.39Z"></path><path class="cls-3" d="M253.19,93.74c0-1.48,1.05-2.75,3.63-2.75H259v-.57a1.77,1.77,0,0,0-2-1.82c-1.28,0-1.92.72-1.94,1.57h-1.39c0-1.69,1.41-2.8,3.33-2.8,2.25,0,3.44,1.35,3.44,3V96.3h-1.22l-.11-1.24H259a3.05,3.05,0,0,1-2.75,1.39A2.75,2.75,0,0,1,253.19,93.74ZM259,92.9v-.76h-2.16c-1.43,0-2.17.55-2.17,1.58,0,.88.59,1.53,1.86,1.53A2.35,2.35,0,0,0,259,92.9Z"></path><path class="cls-3" d="M263.91,93.94v-5.2h-1.46V87.52h1.49V85.17h1.41v2.35h2.15v1.22h-2.15v5.08c0,.84.36,1.2,1.15,1.2h1V96.3h-1.3C264.49,96.3,263.91,95.4,263.91,93.94Z"></path><path class="cls-3" d="M269.76,84h1.62V85.7h-1.62Zm.09,3.5h1.44V96.3h-1.44Z"></path><path class="cls-3" d="M273.53,91.92c0-2.54,1.25-4.55,4-4.55,2.48,0,3.8,1.83,3.8,4.27v.71H275c0,1.66.84,2.81,2.47,2.81a2,2,0,0,0,2.21-1.41h1.45a3.45,3.45,0,0,1-3.66,2.7C274.92,96.45,273.53,94.49,273.53,91.92Zm6.26-.78a2.22,2.22,0,0,0-2.3-2.49,2.33,2.33,0,0,0-2.44,2.49Z"></path><path class="cls-3" d="M88.89,107.36a37.12,37.12,0,0,0-17,4.11v-24H51.59v93.87H71.88v-3.53a37.3,37.3,0,1,0,17-70.5Zm16.19,37.3a16.19,16.19,0,1,1-16.19-16.19A16.19,16.19,0,0,1,105.08,144.66Z"></path></g></g></svg>