<svg width="16" height="17" viewBox="0 0 16 17" fill="none" xmlns="http://www.w3.org/2000/svg">
<path fill-rule="evenodd" clip-rule="evenodd" d="M4.41333 7.7114C5.37333 9.59807 6.92 11.1381 8.80667 12.1047L10.2733 10.6381C10.4533 10.4581 10.72 10.3981 10.9533 10.4781C11.7 10.7247 12.5067 10.8581 13.3333 10.8581C13.7 10.8581 14 11.1581 14 11.5247V13.8514C14 14.2181 13.7 14.5181 13.3333 14.5181C7.07333 14.5181 2 9.44473 2 3.18473C2 2.81807 2.3 2.51807 2.66667 2.51807H5C5.36667 2.51807 5.66667 2.81807 5.66667 3.18473C5.66667 4.01807 5.8 4.81807 6.04667 5.56473C6.12 5.79807 6.06667 6.05807 5.88 6.24473L4.41333 7.7114Z" fill="#C2D1D9"/>
<mask id="mask0_162_330" style="mask-type:luminance" maskUnits="userSpaceOnUse" x="2" y="2" width="12" height="13">
<path fill-rule="evenodd" clip-rule="evenodd" d="M4.41333 7.7114C5.37333 9.59807 6.92 11.1381 8.80667 12.1047L10.2733 10.6381C10.4533 10.4581 10.72 10.3981 10.9533 10.4781C11.7 10.7247 12.5067 10.8581 13.3333 10.8581C13.7 10.8581 14 11.1581 14 11.5247V13.8514C14 14.2181 13.7 14.5181 13.3333 14.5181C7.07333 14.5181 2 9.44473 2 3.18473C2 2.81807 2.3 2.51807 2.66667 2.51807H5C5.36667 2.51807 5.66667 2.81807 5.66667 3.18473C5.66667 4.01807 5.8 4.81807 6.04667 5.56473C6.12 5.79807 6.06667 6.05807 5.88 6.24473L4.41333 7.7114Z" fill="white"/>
</mask>
<g mask="url(#mask0_162_330)">
<rect y="0.518066" width="16" height="16" fill="#FCC93C"/>
</g>
</svg>
