<?xml version="1.0" encoding="UTF-8"?><svg id="b" xmlns="http://www.w3.org/2000/svg" viewBox="0 0 344 120.7"><g id="c"><g><polygon points="82.3 15.6 85.1 18.3 341.3 18.3 341.3 101.3 341.3 101.9 341.3 102.5 316.3 102.5 309.8 95.9 309.7 95.9 144.1 95.9 144.1 95.9 137.6 102.5 85.1 102.5 82.3 105.2 137.5 105.2 144.1 111.8 144.1 111.8 309.7 111.8 309.8 111.8 316.4 105.2 344 105.2 344 103.7 344 102.5 344 101.9 344 101.3 344 15.6 82.3 15.6" fill="#2b3133"/><path d="M157.6,101.3c.1,.2,.1,.5,.2,.8,.1,.3,.2,.6,.3,.9s.2,.7,.3,1,.2,.6,.3,.9c.1-.3,.2-.6,.2-1,.1-.4,.2-.7,.2-1.1,.1-.4,.1-.8,.2-1.1s.1-.7,.2-1.1h1.4c-.2,1-.4,2.1-.7,3.1-.3,1.1-.6,2.1-.9,3h-1.3c-.2-.6-.4-1.2-.6-1.8-.2-.6-.4-1.3-.6-1.9-.2,.6-.4,1.3-.6,1.9-.2,.6-.4,1.2-.6,1.8h-1.3c-.3-1-.6-2-.9-3-.3-1.1-.5-2.1-.7-3.1h1.5c.1,.3,.1,.7,.2,1.1,.1,.4,.1,.8,.2,1.1,.1,.4,.2,.7,.2,1.1,.1,.4,.2,.7,.2,1,.1-.3,.2-.6,.3-.9,.1-.3,.2-.7,.3-1s.2-.6,.3-.9c.1-.3,.2-.6,.2-.8h1.5Zm14.5,2.4c0,.5-.1,1-.2,1.4-.2,.4-.4,.7-.6,1-.3,.3-.6,.5-1,.6s-.8,.2-1.2,.2-.8-.1-1.2-.2c-.4-.1-.7-.3-1-.6s-.5-.6-.7-1-.2-.9-.2-1.4,.1-1,.2-1.4c.2-.4,.4-.7,.7-1s.6-.5,1-.6,.8-.2,1.2-.2,.8,.1,1.2,.2c.4,.1,.7,.3,1,.6s.5,.6,.7,1c.1,.4,.1,.9,.1,1.4Zm-4.7,0c0,.3,0,.6,.1,.8s.2,.5,.3,.6c.1,.2,.3,.3,.5,.4,.2,.1,.4,.1,.7,.1s.5,0,.7-.1,.4-.2,.5-.4,.2-.4,.3-.6c.1-.2,.1-.5,.1-.8s0-.6-.1-.8-.2-.5-.3-.6c-.1-.2-.3-.3-.5-.4-.2-.1-.4-.1-.7-.1s-.5,0-.7,.1-.4,.2-.5,.4-.2,.4-.3,.6c0,.2-.1,.5-.1,.8Zm14.5,3.1c-.4-.7-.8-1.4-1.3-2.1-.5-.7-1-1.3-1.5-1.9v4h-1.4v-6.2h1.1c.2,.2,.4,.4,.6,.7,.2,.3,.5,.6,.7,.9,.2,.3,.5,.7,.7,1s.5,.7,.7,1v-3.6h1.4v6.2h-1Zm7,0v-6.2h4.2v1.2h-2.8v1.2h2.5v1.1h-2.5v1.5h3v1.2h-4.4Zm14,0c-.4-.7-.8-1.4-1.3-2.1-.5-.7-1-1.3-1.5-1.9v4h-1.4v-6.2h1.1c.2,.2,.4,.4,.6,.7,.2,.3,.5,.6,.7,.9,.2,.3,.5,.7,.7,1s.5,.7,.7,1v-3.6h1.4v6.2h-1Zm11.4-1.6c0-.2,0-.4,.1-.6s.2-.4,.3-.5c.1-.2,.2-.3,.4-.4,.1-.1,.3-.2,.5-.3-.1-.2-.3-.4-.4-.6-.1-.2-.2-.4-.2-.7,0-.5,.2-.9,.5-1.2s.7-.4,1.3-.4c.3,0,.5,0,.7,.1s.4,.2,.5,.3,.2,.3,.3,.4c.1,.2,.1,.4,.1,.5,0,.4-.1,.7-.3,1s-.5,.5-.8,.7l1,1c.1-.1,.1-.3,.2-.4,0-.2,.1-.3,.1-.5l1.1,.1c0,.1,0,.2-.1,.4,0,.1-.1,.3-.1,.4s-.1,.3-.2,.4-.1,.3-.2,.4c.2,.2,.4,.4,.6,.7,.2,.3,.3,.5,.5,.8h-1.4c0-.1-.1-.2-.2-.3-.1-.1-.2-.2-.2-.3-.2,.2-.5,.3-.8,.5-.3,.1-.7,.2-1.1,.2s-.8-.1-1-.2c-.3-.1-.5-.2-.7-.4s-.3-.3-.4-.6c-.1-.1-.1-.3-.1-.5Zm1.2-.2c0,.1,0,.2,.1,.3,0,.1,.1,.2,.2,.3s.2,.1,.3,.2c.1,.1,.3,.1,.5,.1s.5,0,.7-.1,.3-.2,.5-.3l-1.4-1.4c-.1,0-.2,.1-.2,.2-.1,.1-.2,.1-.2,.2-.1,.1-.1,.2-.2,.3-.2,0-.3,.1-.3,.2Zm1.8-3c0-.1,0-.3-.1-.4-.1-.1-.2-.2-.4-.2s-.3,.1-.4,.2-.2,.3-.2,.4c0,.2,0,.3,.1,.4,.1,.1,.2,.3,.3,.4,.2-.1,.4-.2,.5-.4,.1,0,.2-.2,.2-.4Zm15,4.9h-1c-.3,0-.7-.1-1-.1v-6c.3-.1,.6-.1,.9-.1h.9c.4,0,.8,0,1.1,.1s.6,.2,.8,.3,.4,.3,.6,.5c.1,.2,.2,.5,.2,.8,0,.5-.2,.9-.7,1.2,.4,.1,.7,.3,.8,.6s.2,.5,.2,.9c0,.6-.2,1.1-.7,1.5-.5,.1-1.2,.3-2.1,.3Zm-.7-3.9h.7c.4,0,.7-.1,.9-.2,.2-.1,.3-.3,.3-.5s-.1-.4-.3-.5-.5-.2-.8-.2h-.8v1.4Zm0,1.1v1.6h.7c.4,0,.7-.1,1-.2,.3-.1,.4-.3,.4-.7,0-.3-.1-.5-.3-.6s-.5-.2-.9-.2h-.9v.1Zm11.4,2.8c-.4,0-.8-.1-1.1-.2-.3-.1-.6-.3-.8-.5-.2-.2-.4-.5-.5-.8s-.1-.6-.1-1v-3.8h1.4v3.7c0,.2,0,.5,.1,.6,.1,.2,.1,.3,.2,.4,.1,.1,.2,.2,.4,.2,.1,0,.3,.1,.5,.1,.3,0,.6-.1,.8-.3s.3-.6,.3-1.1v-3.6h1.4v3.8c0,.4-.1,.7-.2,1s-.3,.6-.5,.8-.5,.4-.8,.5c-.2,.2-.6,.2-1.1,.2Zm10-1.2h.5c.1,0,.2-.1,.3-.1q.1-.1,.2-.2c.1-.1,0-.2,0-.3,0-.2-.1-.4-.3-.5-.2-.1-.5-.3-1-.4-.2-.1-.4-.2-.6-.2-.2-.1-.4-.2-.5-.3-.2-.1-.3-.3-.4-.5s-.2-.4-.2-.7,.1-.5,.2-.8c.1-.2,.3-.4,.5-.6,.2-.2,.4-.3,.7-.4,.3-.1,.6-.1,.9-.1,.4,0,.8,0,1.1,.1,.3,.1,.6,.2,.7,.3l-.4,1.1c-.2-.1-.4-.2-.6-.2-.2-.1-.5-.1-.8-.1s-.6,0-.7,.1-.2,.2-.2,.4c0,.1,0,.2,.1,.3s.1,.1,.2,.2c.1,.1,.2,.1,.3,.2,.1,0,.3,.1,.4,.2,.3,.1,.6,.2,.8,.4,.2,.1,.4,.3,.6,.4,.2,.2,.3,.3,.4,.5s.1,.5,.1,.8c0,.6-.2,1-.6,1.3s-1,.5-1.8,.5h-.7c-.2,0-.4-.1-.6-.1s-.3-.1-.4-.2c-.1-.1-.2-.1-.3-.2l.4-1.1c.2,.1,.4,.2,.7,.3,.3-.1,.6-.1,1-.1Zm8-5.1h1.4v6.2h-1.4v-6.2Zm11.4,6.2c-.4-.7-.8-1.4-1.3-2.1-.5-.7-1-1.3-1.5-1.9v4h-1.4v-6.2h1.1c.2,.2,.4,.4,.6,.7s.5,.6,.7,.9c.2,.3,.5,.7,.7,1s.5,.7,.7,1v-3.6h1.4v6.2h-1Zm7,0v-6.2h4.2v1.2h-2.8v1.2h2.5v1.1h-2.5v1.5h3v1.2h-4.4Zm11.5-1.1h.5c.1,0,.2-.1,.3-.1q.1-.1,.2-.2c.1-.1,0-.2,0-.3,0-.2-.1-.4-.3-.5-.2-.1-.5-.3-1-.4-.2-.1-.4-.2-.6-.2-.2-.1-.4-.2-.5-.3-.2-.1-.3-.3-.4-.5s-.2-.4-.2-.7,.1-.5,.2-.8c.1-.2,.3-.4,.5-.6,.2-.2,.4-.3,.7-.4,.3-.1,.6-.1,.9-.1,.4,0,.8,0,1.1,.1,.3,.1,.6,.2,.7,.3l-.4,1.1c-.2-.1-.4-.2-.6-.2-.2-.1-.5-.1-.8-.1s-.6,0-.7,.1-.2,.2-.2,.4c0,.1,0,.2,.1,.3s.1,.1,.2,.2c.1,.1,.2,.1,.3,.2,.1,0,.3,.1,.4,.2,.3,.1,.6,.2,.8,.4,.2,.1,.4,.3,.6,.4,.2,.2,.3,.3,.4,.5s.1,.5,.1,.8c0,.6-.2,1-.6,1.3s-1,.5-1.8,.5h-.7c-.2,0-.4-.1-.6-.1s-.3-.1-.4-.2c-.1-.1-.2-.1-.3-.2l.4-1.1c.2,.1,.4,.2,.7,.3,.3-.1,.6-.1,1-.1Zm9.6,0h.5c.1,0,.2-.1,.3-.1q.1-.1,.2-.2c.1-.1,0-.2,0-.3,0-.2-.1-.4-.3-.5-.2-.1-.5-.3-1-.4-.2-.1-.4-.2-.6-.2-.2-.1-.4-.2-.5-.3-.2-.1-.3-.3-.4-.5s-.2-.4-.2-.7,.1-.5,.2-.8c.1-.2,.3-.4,.5-.6,.2-.2,.4-.3,.7-.4,.3-.1,.6-.1,.9-.1,.4,0,.8,0,1.1,.1,.3,.1,.6,.2,.7,.3l-.4,1.1c-.2-.1-.4-.2-.6-.2-.2-.1-.5-.1-.8-.1s-.6,0-.7,.1-.2,.2-.2,.4c0,.1,0,.2,.1,.3s.1,.1,.2,.2c.1,.1,.2,.1,.3,.2,.1,0,.3,.1,.4,.2,.3,.1,.6,.2,.8,.4,.2,.1,.4,.3,.6,.4,.2,.2,.3,.3,.4,.5s.1,.5,.1,.8c0,.6-.2,1-.6,1.3s-1,.5-1.8,.5h-.7c-.2,0-.4-.1-.6-.1s-.3-.1-.4-.2c-.1-.1-.2-.1-.3-.2l.4-1.1c.2,.1,.4,.2,.7,.3,.3-.1,.6-.1,1-.1Z" fill="#fff"/><path d="M125.8,36.4c-.7-1.8-1.2-3.4-1.7-4.8l-.1-.4h6.2l.1,.2c.4,1.3,.9,2.7,1.4,4.2s1,3,1.6,4.4l1.5,4.2c.4,1,.7,2,1.1,2.8,.3-.8,.7-1.7,1.1-2.7,.5-1.3,1-2.8,1.5-4.2,.5-1.5,1-3,1.6-4.4,.5-1.5,1-2.9,1.4-4.2l.1-.2h6.1l-.2,.5c-.5,1.4-1.1,3-1.7,4.8-.7,1.8-1.4,3.7-2.1,5.6-.8,2-1.6,4-2.4,6-.9,2-1.7,4-2.6,5.8l-.1,.2h-5.2l-.1-.2c-.9-1.9-1.8-3.8-2.6-5.8-.9-2-1.7-4-2.5-6-1.1-2.1-1.8-4-2.4-5.8Zm34.9,12.8h-8.2l-.8,2.2c-.3,.8-.5,1.6-.8,2.4l-.1,.2h-5.9l.2-.5c.8-2.4,1.6-4.6,2.4-6.6,.8-2,1.5-4,2.2-5.7,.7-1.8,1.4-3.5,2.1-5.1,.7-1.6,1.4-3.2,2.2-4.7l.1-.2h5.2l.1,.2c.7,1.5,1.5,3.1,2.2,4.7s1.4,3.3,2.1,5.1c.7,1.8,1.5,3.7,2.2,5.7s1.5,4.3,2.4,6.6l.2,.5h-6.1l-.1-.2c-.2-.8-.5-1.6-.8-2.4l-.8-2.2Zm-5-9.4c-.3,.7-.6,1.5-.9,2.4-.3,.7-.6,1.5-.9,2.3h5.4c-.3-.8-.6-1.6-.8-2.3-.3-.9-.6-1.7-.9-2.4l-.8-1.9c-.1-.2-.1-.3-.2-.5-.1,.2-.1,.3-.2,.5-.2,.6-.4,1.2-.7,1.9Zm20.4,.2c1.7,2,3.2,4.1,4.7,6.3,1.7,2.5,3.2,5,4.6,7.5l.1,.2h4.7V31.1h-5.7v12.3c-.6-.9-1.2-1.8-1.9-2.7-.9-1.2-1.8-2.5-2.7-3.6-.9-1.2-1.8-2.3-2.6-3.3-.9-1-1.7-1.9-2.4-2.6l-.1-.1h-4.3v22.9h5.6v-14Zm32.7,5c.6,.5,1.2,1,1.7,1.6,.8,.8,1.5,1.6,2.2,2.4s1.4,1.7,2,2.5,1.1,1.6,1.6,2.3l.1,.2h6.8l-.3-.5c-1.5-2.5-3.1-4.7-4.8-6.8-1.6-1.9-3.2-3.6-4.9-5.1,1.6-1.6,3.1-3.2,4.6-4.8,1.5-1.7,3.1-3.4,4.6-5.2l.5-.6h-6.8l-.1,.1c-1.1,1.3-2.3,2.6-3.7,4.1-1.1,1.2-2.2,2.4-3.3,3.6v-7.8h-5.7v22.9h5.7v-8.9h-.2Zm32.7,4.1h-10.7v-4.7h8.9v-4.8h-8.9v-3.7h10v-4.9h-15.7v22.9h16.4v-4.8Zm21.6-18h-5.7v13.7c0,1.7-.3,2.9-1,3.6s-1.6,1-2.7,1c-.6,0-1.1-.1-1.5-.2-.4-.2-.8-.4-1.1-.8-.3-.4-.6-.8-.8-1.4-.2-.6-.3-1.3-.3-2.2v-13.7h-5.7v14.2c0,1.3,.2,2.6,.5,3.7,.4,1.1,.9,2.1,1.7,2.9,.8,.8,1.8,1.5,2.9,1.9,1.2,.5,2.6,.7,4.2,.7s3-.2,4.2-.7c1.2-.4,2.2-1.1,3-1.9s1.4-1.8,1.7-2.9c.4-1.1,.6-2.4,.6-3.7v-14.2h0Zm19.6,17.9h-9.8V31.1h-5.7v22.9h15.5v-5Zm19,.1h-10.7v-4.7h8.9v-4.8h-8.9v-3.7h10v-4.9h-15.7v22.9h16.4v-4.8h0Zm8.6-9.1c1.7,2,3.2,4.1,4.7,6.3,1.7,2.5,3.2,5,4.6,7.5l.1,.2h4.7V31.1h-5.7v12.3c-.6-.9-1.2-1.8-1.9-2.7-.9-1.2-1.8-2.5-2.7-3.6-.9-1.2-1.8-2.3-2.6-3.3-.9-1-1.7-1.9-2.4-2.6l-.1-.1h-4.6v22.9h5.6v-14h.3Zm-159.3,38c-.1-2-.2-4-.4-6-.1-2-.3-3.9-.5-5.7-.2-1.8-.4-3.5-.6-5v-.3h-5.1l-.1,.2c-.4,.7-.8,1.6-1.3,2.6s-1,2.2-1.6,3.4c-.5,1.2-1.1,2.4-1.6,3.7l-1.2,2.8-1.2-2.8c-.5-1.3-1.1-2.5-1.6-3.7s-1.1-2.3-1.6-3.4c-.5-1-1-1.9-1.3-2.6l-.1-.2h-5.3v.3c-.2,1.5-.4,3.2-.6,5-.2,1.8-.3,3.7-.5,5.7-.1,2-.3,4-.4,6-.1,2-.2,3.9-.3,5.6v.4h5.6v-.3c.1-2.2,.1-4.5,.3-7.1,.1-2.1,.2-4.2,.4-6.3l.7,1.7c.5,1.1,.9,2.2,1.4,3.3,.5,1.1,.9,2.1,1.3,3.1,.4,1,.8,1.8,1.1,2.5l.1,.2h3.9l.1-.2c.3-.7,.7-1.6,1.1-2.5,.4-1,.9-2,1.3-3.1,.5-1.1,.9-2.2,1.4-3.3l.7-1.7c.2,2.1,.3,4.2,.4,6.3,.1,2.5,.2,4.9,.3,7.1v.3h5.6v-.4c-.2-1.7-.3-3.6-.4-5.6Zm25.4,5.5l.2,.5h-6.1l-.1-.2c-.2-.8-.5-1.6-.8-2.4l-.8-2.2h-8.2l-.8,2.2c-.3,.8-.5,1.6-.8,2.4l-.1,.2h-5.9l.2-.5c.8-2.4,1.6-4.6,2.4-6.6,.8-2,1.5-4,2.2-5.7,.7-1.8,1.4-3.5,2.1-5.1,.7-1.6,1.4-3.2,2.2-4.7l.1-.2h5.2l.1,.2c.7,1.5,1.5,3.1,2.2,4.7s1.4,3.4,2.1,5.1c.7,1.8,1.5,3.7,2.2,5.7,.7,2,1.5,4.2,2.4,6.6Zm-12.6-13.7c-.3,.7-.6,1.5-.9,2.4-.3,.7-.6,1.5-.9,2.3h5.4c-.3-.8-.6-1.6-.8-2.3-.3-.9-.6-1.7-.9-2.4l-.8-1.9c-.1-.2-.1-.3-.2-.5-.1,.2-.1,.3-.2,.5-.2,.5-.5,1.2-.7,1.9Zm30,6.9c-1.6-1.9-3.2-3.6-4.9-5.1,1.6-1.6,3.1-3.2,4.6-4.8,1.5-1.7,3.1-3.4,4.6-5.2l.5-.6h-6.8l-.1,.1c-1.1,1.3-2.3,2.6-3.7,4.1-1.1,1.2-2.2,2.4-3.3,3.6v-7.8h-5.7v22.9h5.7v-9c.6,.5,1.2,1,1.7,1.6,.8,.8,1.5,1.6,2.2,2.4s1.4,1.7,2,2.5,1.1,1.6,1.6,2.3l.1,.2h6.8l-.3-.5c-1.7-2.4-3.3-4.7-5-6.7Zm13.1-2.3h8.9v-4.8h-8.9v-3.7h10v-4.9h-15.7v22.9h16.4v-4.9h-10.7v-4.6Zm19.8-13.3h-5.7v22.9h15.5v-5h-9.8v-17.9Zm34.6,22.4l.2,.5h-6.1l-.1-.2c-.2-.8-.5-1.6-.8-2.4l-.8-2.2h-8.2l-.8,2.2c-.3,.8-.5,1.6-.8,2.4l-.1,.2h-5.9l.2-.5c.9-2.5,1.6-4.6,2.4-6.6s1.5-4,2.2-5.7c.7-1.8,1.4-3.5,2.1-5.1s1.4-3.2,2.2-4.7l.1-.2h5.2l.1,.2c.7,1.5,1.5,3.1,2.2,4.7s1.4,3.4,2.1,5.1c.7,1.8,1.5,3.7,2.2,5.7,.8,2,1.6,4.2,2.4,6.6Zm-12.6-13.7c-.3,.7-.6,1.5-.9,2.4-.3,.7-.6,1.5-.9,2.3h5.4c-.3-.8-.6-1.6-.8-2.3-.3-.9-.6-1.7-.9-2.4l-.8-1.9c-.1-.2-.1-.3-.2-.5-.1,.2-.1,.3-.2,.5-.2,.5-.4,1.2-.7,1.9Zm37.3,13.7l.2,.5h-6.1l-.1-.2c-.2-.8-.5-1.6-.8-2.4l-.8-2.2h-8.2l-.8,2.2c-.3,.8-.5,1.6-.8,2.4l-.1,.2h-5.9l.2-.5c.9-2.5,1.6-4.6,2.4-6.6s1.5-4,2.2-5.7c.7-1.8,1.4-3.5,2.1-5.1s1.4-3.2,2.2-4.7l.1-.2h5.2l.1,.2c.7,1.5,1.5,3.1,2.2,4.7s1.4,3.4,2.1,5.1c.7,1.8,1.5,3.7,2.2,5.7,.7,2,1.5,4.2,2.4,6.6Zm-12.6-13.7c-.3,.7-.6,1.5-.9,2.4-.3,.7-.6,1.5-.9,2.3h5.4c-.3-.8-.6-1.6-.8-2.3-.3-.9-.6-1.7-.9-2.4l-.8-1.9c-.1-.2-.1-.3-.2-.5-.1,.2-.1,.3-.2,.5-.2,.5-.4,1.2-.7,1.9Zm34,13.7l.2,.5h-6.3l-1.3-2.4c-.4-.7-.8-1.5-1.3-2.2-.4-.7-.9-1.4-1.3-2s-.8-1.1-1.2-1.6h-2v8.1h-5.7v-22.4l.3-.1c1.1-.2,2.2-.4,3.4-.5,1.2-.1,2.2-.1,3.2-.1,3.4,0,6,.6,7.9,1.8,1.9,1.2,2.8,3.2,2.8,5.8,0,1.6-.4,3-1.1,4-.7,.9-1.6,1.7-2.8,2.2,.4,.5,.8,1,1.2,1.6,.5,.7,1,1.5,1.5,2.3s.9,1.6,1.4,2.5c.3,.9,.7,1.7,1.1,2.5Zm-8.3-17.1c-.8-.4-1.9-.6-3.5-.6h-1.5v5.4h1.1c1.8,0,3.1-.2,3.9-.7,.7-.4,1-1.1,1-2.1,.1-.9-.2-1.6-1-2Zm26.2,8.3c-.3-.8-.7-1.5-1.3-2.1-.6-.6-1.3-1.1-2.2-1.5-.9-.4-1.9-.8-3.1-1.3-.6-.2-1.1-.4-1.5-.6s-.8-.4-1.2-.6c-.3-.2-.6-.4-.7-.7-.2-.2-.2-.5-.2-.8,0-.6,.2-1,.6-1.2,.5-.3,1.3-.4,2.4-.4,1,0,1.9,.1,2.6,.4,.7,.2,1.4,.5,2,.8l.3,.2,1.7-4.6-.3-.1c-.7-.4-1.7-.8-2.8-1.1-1.1-.3-2.5-.5-4-.5-1.3,0-2.5,.2-3.5,.5s-1.9,.8-2.7,1.4c-.7,.6-1.3,1.4-1.7,2.2-.4,.9-.6,1.8-.6,2.9s.2,2,.6,2.8,.9,1.4,1.5,1.9,1.3,1,2,1.3,1.5,.6,2.2,.9c1.6,.5,2.8,1.1,3.4,1.5s.9,.9,.9,1.5c0,.3,0,.6-.1,.8-.1,.2-.2,.4-.5,.6-.2,.2-.6,.3-1,.4s-1,.2-1.7,.2c-1.4,0-2.5-.1-3.5-.4-.9-.3-1.7-.6-2.4-.9l-.4-.2-1.6,4.6,.2,.1c.3,.2,.7,.4,1.1,.6,.5,.2,1,.4,1.6,.6s1.3,.3,2.1,.4c.8,.1,1.7,.2,2.7,.2,3,0,5.3-.6,6.8-1.8,1.5-1.2,2.3-2.9,2.3-5.1,.5-1.2,.3-2.1,0-2.9Z" fill="#880038"/><g><path d="M4.9,60.4L60.9,4.9l56,55.5-56,55.5L4.9,60.4ZM60.9,0L0,60.4l60.8,60.3,60.8-60.3L60.9,0Z" fill="#880038"/><path d="M112,60.4l-49.4,49V50.5l-13.2,13.1-9.4-9.3c2-2,26.7-26.4,32.9-32.6l39.1,38.7Z" fill="#880038"/><path d="M9.8,60.4c2.3-2.2,48.8-48.4,51.1-50.7l9.6,9.5L35.1,54.3l14.3,14.2,9.8-9.7v50.6c-8.8-8.8-47.4-47-49.4-49" fill="#c17f8b"/></g></g></g></svg>