<?xml version="1.0" encoding="utf-8"?>
<!-- Generator: Adobe Illustrator 28.3.0, SVG Export Plug-In . SVG Version: 6.00 Build 0)  -->
<svg version="1.1" id="Laag_1" xmlns="http://www.w3.org/2000/svg" xmlns:xlink="http://www.w3.org/1999/xlink" x="0px" y="0px"
	 viewBox="0 0 98.2 43.4" style="enable-background:new 0 0 98.2 43.4;" xml:space="preserve">
<style type="text/css">
	.st0{fill:#FFFFFF;}
	.st1{fill:#DC947C;}
	.st2{fill:#3E6586;}
</style>
<g>
	<g>
		<path class="st2" d="M0.1,16.7l1-2.1c1.4,1.2,3.7,2.1,6.1,2.1c3.2,0,4.6-1.2,4.6-2.9c0-4.5-11.3-1.7-11.3-8.6C0.6,2.4,2.8,0,7.7,0
			c2.2,0,4.4,0.6,6,1.6l-0.9,2.1c-1.6-1-3.5-1.5-5.1-1.5c-3.2,0-4.5,1.3-4.5,2.9c0,4.5,11.3,1.7,11.3,8.5c0,2.8-2.3,5.3-7.2,5.3
			C4.4,19,1.6,18,0.1,16.7z"/>
		<path class="st2" d="M16.8,9.5C16.8,4,21,0,26.6,0c2.9,0,5.4,1,7.1,2.9L32,4.6c-1.4-1.5-3.2-2.2-5.2-2.2c-4.2,0-7.3,3-7.3,7.1
			s3.1,7.1,7.3,7.1c2,0,3.8-0.7,5.2-2.2l1.7,1.7C32,18,29.5,19,26.6,19C21,19,16.8,15,16.8,9.5z"/>
		<path class="st2" d="M98.2,6.7c0,4-2.9,6.5-7.7,6.5h-4.6v5.6h-2.7V0.2h7.2C95.3,0.2,98.2,2.7,98.2,6.7z M95.5,6.7
			c0-2.7-1.8-4.2-5.2-4.2h-4.5v8.3h4.5C93.8,10.9,95.5,9.3,95.5,6.7z"/>
		<path class="st1" d="M69.3,0c-3,0-5.6,1.2-7.4,3.1c-1-0.7-2.4-1.5-4.3-1.5c-2.1,0-3.6,0.9-4.5,1.7c-1.8-2-4.4-3.3-7.6-3.3
			c-5.7,0-9.9,4.1-9.9,9.5c0,5.4,4.2,9.5,9.9,9.5c5.7,0,9.8-4,9.8-9.5c0-1.5-0.3-2.9-0.9-4.1c0.6-0.6,1.6-1.3,3.1-1.3
			c1.3,0,2.2,0.5,2.8,1c-0.7,1.3-1,2.8-1,4.4c0,5.4,4.2,9.5,9.9,9.5c5.7,0,9.8-4,9.8-9.5S75,0,69.3,0z M45.5,16.6
			c-4.2,0-7.2-3-7.2-7.1s3.1-7.1,7.2-7.1c4.1,0,7.2,3,7.2,7.1S49.6,16.6,45.5,16.6z M69.3,16.6c-4.2,0-7.2-3-7.2-7.1
			s3.1-7.1,7.2-7.1c4.1,0,7.2,3,7.2,7.1S73.4,16.6,69.3,16.6z"/>
	</g>
	<g>
		<path class="st2" d="M15,34.6v5.4h-0.6v-5.3c0-2.2-1.1-3.3-3-3.3c-2.2,0-3.6,1.5-3.6,3.7v4.9H7.2v-5.3c0-2.2-1.1-3.3-3-3.3
			c-2.2,0-3.6,1.5-3.6,3.7v4.9H0v-9.1h0.6V33c0.6-1.4,1.8-2.3,3.6-2.3c1.7,0,3,0.8,3.4,2.5c0.5-1.5,1.9-2.5,3.8-2.5
			C13.6,30.7,15,32,15,34.6z"/>
		<path class="st2" d="M25.1,34v5.9h-0.6v-1.8C24,39.2,22.8,40,21.2,40c-2.1,0-3.3-1-3.3-2.6c0-1.3,0.8-2.5,3.3-2.5h3.3V34
			c0-1.8-1-2.8-2.8-2.8c-1.3,0-2.5,0.5-3.3,1.2l-0.3-0.4c0.9-0.8,2.2-1.3,3.6-1.3C23.9,30.7,25.1,31.9,25.1,34z M24.6,37.3v-1.9
			h-3.3c-2,0-2.7,0.8-2.7,2c0,1.3,1,2.1,2.7,2.1C22.9,39.5,24,38.7,24.6,37.3z"/>
		<path class="st2" d="M32.1,34.8l-2.6,2.3v2.8h-0.6V26.9h0.6v9.6l6.2-5.7h0.8l-4,3.7l4.4,5.5h-0.7L32.1,34.8z"/>
		<path class="st2" d="M46.3,35.4h-8c0,2.4,1.7,4,4.1,4c1.2,0,2.3-0.4,3-1.4l0.4,0.4c-0.8,1-2.1,1.5-3.4,1.5c-2.7,0-4.6-1.9-4.6-4.6
			c0-2.7,1.8-4.6,4.3-4.6c2.4,0,4.3,1.9,4.3,4.6V35.4z M38.3,35h7.4c-0.1-2.1-1.7-3.7-3.7-3.7C39.9,31.3,38.4,32.8,38.3,35z"/>
		<path class="st2" d="M49.2,26.9h0.6v13.1h-0.6V26.9z"/>
		<path class="st2" d="M60,34v5.9h-0.6v-1.8c-0.6,1.1-1.7,1.9-3.4,1.9c-2.1,0-3.3-1-3.3-2.6c0-1.3,0.8-2.5,3.3-2.5h3.3V34
			c0-1.8-1-2.8-2.8-2.8c-1.3,0-2.5,0.5-3.3,1.2L53,32.1c0.9-0.8,2.2-1.3,3.6-1.3C58.8,30.7,60,31.9,60,34z M59.4,37.3v-1.9h-3.3
			c-2,0-2.7,0.8-2.7,2c0,1.3,1,2.1,2.7,2.1C57.8,39.5,58.9,38.7,59.4,37.3z"/>
		<path class="st2" d="M70.2,34v5.9h-0.6v-1.8c-0.6,1.1-1.7,1.9-3.4,1.9c-2.1,0-3.3-1-3.3-2.6c0-1.3,0.8-2.5,3.3-2.5h3.3V34
			c0-1.8-1-2.8-2.8-2.8c-1.3,0-2.5,0.5-3.3,1.2l-0.3-0.4c0.9-0.8,2.2-1.3,3.6-1.3C69,30.7,70.2,31.9,70.2,34z M69.6,37.3v-1.9h-3.3
			c-2,0-2.7,0.8-2.7,2c0,1.3,1,2.1,2.7,2.1C68,39.5,69,38.7,69.6,37.3z"/>
		<path class="st2" d="M78.1,30.7v0.6H78c-2.1,0-3.4,1.4-3.4,3.8v4.9H74v-9.1h0.6V33C75.1,31.6,76.3,30.7,78.1,30.7z"/>
		<path class="st2" d="M88.5,26.9v13.1h-0.6v-2.5C87.3,39,85.8,40,84,40c-2.5,0-4.5-1.9-4.5-4.6c0-2.7,1.9-4.6,4.5-4.6
			c1.8,0,3.2,1,3.9,2.5v-6.4H88.5z M87.9,35.4c0-2.4-1.7-4.1-3.9-4.1c-2.2,0-3.9,1.7-3.9,4.1c0,2.4,1.7,4.1,3.9,4.1
			C86.3,39.5,87.9,37.8,87.9,35.4z"/>
		<path class="st2" d="M92.1,27.8c0-0.3,0.3-0.6,0.6-0.6c0.3,0,0.6,0.3,0.6,0.6c0,0.3-0.3,0.6-0.6,0.6
			C92.4,28.4,92.1,28.1,92.1,27.8z M92.4,30.8H93v9.1h-0.6V30.8z"/>
		<path class="st2" d="M93.4,42.8l0.3-0.4c0.4,0.4,0.9,0.5,1.5,0.5c1.1,0,1.7-0.7,1.7-1.9V30.8h0.6V41c0,1.4-0.8,2.4-2.3,2.4
			C94.6,43.4,93.9,43.2,93.4,42.8z M96.7,27.8c0-0.3,0.3-0.6,0.6-0.6c0.3,0,0.6,0.3,0.6,0.6c0,0.3-0.3,0.6-0.6,0.6
			C97,28.4,96.7,28.1,96.7,27.8z"/>
	</g>
</g>
</svg>
