<?xml version="1.0" encoding="UTF-8"?>
<svg xmlns="http://www.w3.org/2000/svg" version="1.1" viewBox="0 0 708.7 165.6">
  <defs>
    <style>
      .cls-1 {
        fill: #511b00;
      }

      .cls-2 {
        fill: #f49600;
      }
    </style>
  </defs>
  <g>
    <g id="Layer_1">
      <g>
        <path class="cls-2" d="M263.9,165.6v-60.2l-15.6,47-1,.9h-7.2l-1-.9-15.6-47.3v60.4h-8.5v-71.3h12.1l.9.7,15.6,47.8,15.7-47.8.9-.7h12.1v71.3h-8.5Z"></path>
        <path class="cls-2" d="M323.3,165.6l-4.6-17.5-.8-.8h-23.3l-.8.8-4.6,17.5h-9.3l18.5-70.4,1.1-.9h13.3l1.1.9,18.4,70.4h-9.1ZM306.9,102.1h-1.3l-9.5,37.2.6.8h19.3l.6-.8-9.6-37.2Z"></path>
        <path class="cls-2" d="M373.6,126.1l7,11.4c2,3.3,4,6.2,4,11.4v16.8h-9.3v-16.3c0-2.6-.8-4.8-2.6-7.8l-7-11.9h-15.7l-.7.8v35.2h-9.3v-71.3h9.3v27.2l.7.8h15.7l11.5-28h9.7l-13.4,31.8Z"></path>
        <path class="cls-2" d="M395.6,165.6v-71.3h41v7.6h-31.1l-.7.7v21.2l.7.8h24.5v7.5h-24.5l-.7.8v24.6l.7.7h31.1v7.6h-41Z"></path>
        <path class="cls-2" d="M446.2,165.6v-71.3h9.3v63.1l.7.7h31.2v7.6h-41.1Z"></path>
        <path class="cls-2" d="M537.1,165.6l-4.6-17.5-.8-.8h-23.3l-.8.8-4.6,17.5h-9.3l18.5-70.4,1.1-.9h13.3l1.1.9,18.4,70.4h-9.1ZM520.7,102.1h-1.3l-9.5,37.2.6.8h19.3l.6-.8-9.6-37.2Z"></path>
        <path class="cls-2" d="M595.8,165.6l-4.6-17.5-.8-.8h-23.3l-.8.8-4.6,17.5h-9.3l18.5-70.4,1.1-.9h13.3l1.1.9,18.4,70.4h-9.1ZM579.4,102.1h-1.3l-9.5,37.2.6.8h19.3l.6-.8-9.6-37.2Z"></path>
        <path class="cls-2" d="M647.7,165.6v-12.5c0-2.6-.8-5-2.6-8l-7.2-12.1h-16l-.7.8v31.9h-9.3v-71.3h27.5c8.1,0,14.9,5.4,14.9,13.5s-.9,7.7-2.5,10.6l-6,11.1,7,11.4c2.1,3.3,4,6.4,4,11.5v13.3h-9.3ZM636.6,101.9h-14.7l-.7.7v22.3l.7.8h16l6-11c.7-1.2,1.1-3.8,1.1-5.5,0-4.8-3.5-7.2-8.5-7.2Z"></path>
        <path class="cls-2" d="M693.7,166.5h-12.7c-2.9,0-5.8-.6-8.5-1.8l-7.7-3.3,1.1-7.7,8.8,3.7c2.2.9,4.2,1.6,7,1.6h9c5,0,8.6-2.6,8.6-8v-6.1c0-2.3-1-3.8-2.1-4.5l-27-15.9c-2.6-1.6-5-5.5-5-10.1v-6.2c0-8.1,6.8-14.6,14.9-14.6h11.4c2.9,0,5.8.6,8.5,1.8l7.7,3.3-1.1,7.7-8.8-3.7c-2.2-.9-4.2-1.6-7-1.6h-7.9c-5,0-8.4,2.7-8.4,8.1v3.6c0,2.3,1,3.8,2.1,4.5l27.1,15.9c2.6,1.6,4.9,5.5,4.9,10.1v8.7c0,8.1-6.8,14.6-14.9,14.6Z"></path>
      </g>
      <path class="cls-2" d="M58.6,57.7v-31.7L82.4,0l24.5,25.9v31.7h-48.2Z"></path>
      <path class="cls-2" d="M117.9,57.7v-18.4l13.8-15,14.2,15v18.4h-28Z"></path>
      <path class="cls-2" d="M19.7,57.7v-18.4l13.8-15,14.2,15v18.4h-28Z"></path>
      <polygon class="cls-2" points="144.1 76.9 21.5 76.9 19.7 65.9 145.8 65.9 144.1 76.9"></polygon>
      <path class="cls-1" d="M34.1,113.7v-4.6c0-2.9-1.8-4.8-4.8-4.8h-10.7c-3,0-4.8,1.9-4.8,4.8v33.8c0,8,4.1,12.4,8.8,12.4h7c1.9,0,3.2-.3,4.9-1l11-4.2,1.1,11.1-8.9,3.8c-1.8.8-4.5,1.5-6.8,1.5h-10.2c-12.2,0-20.6-10.7-20.6-23.3v-35.1c0-8.5,6.4-14.7,14.9-14.7h17.8c8.6,0,14.9,6.2,14.9,14.7v5.7h-13.6Z"></path>
      <path class="cls-1" d="M86.2,165.5h-27.6v-71.3h33.3c8.6,0,14.9,6.2,14.9,14.7v33.3c0,12.6-8.4,23.3-20.6,23.3ZM93.1,110c0-2.9-1.8-4.8-4.8-4.8h-15.2l-.7.7v47.9l.7.7h11.1c4.6,0,8.9-4.1,8.9-12.4v-32.1Z"></path>
      <path class="cls-1" d="M151.5,165.5h-33.6v-71.3h31.1c8.3,0,14.8,5.5,14.8,13.6s-.9,7.6-2.3,10.6l-4.9,10.8,6.5,10.8c1.9,3.3,3.6,6.5,3.6,11.6,0,8.1-7,13.9-15.3,13.9ZM144.3,105.2h-12l-.7.7v17.1l.7.8h12.5l3.9-8.8c.6-1.2.9-3.6.9-4.9,0-3.6-2.4-4.8-5.4-4.8ZM150.6,144.6l-5.6-10.4h-12.7l-.7.7v18.9l.7.7h14.3c2.9,0,5.5-1.3,5.5-4.9s-.7-3.6-1.5-5Z"></path>
    </g>
  </g>
</svg>
