<?xml version="1.0" encoding="UTF-8" standalone="no"?>
<svg
   xmlns:dc="http://purl.org/dc/elements/1.1/"
   xmlns:cc="http://creativecommons.org/ns#"
   xmlns:rdf="http://www.w3.org/1999/02/22-rdf-syntax-ns#"
   xmlns:svg="http://www.w3.org/2000/svg"
   xmlns="http://www.w3.org/2000/svg"
   viewBox="0 0 268.58667 226.70667"
   height="226.70667"
   width="268.58667"
   xml:space="preserve"
   id="svg2"
   version="1.1"><metadata
     id="metadata8"><rdf:RDF><cc:Work
         rdf:about=""><dc:format>image/svg+xml</dc:format><dc:type
           rdf:resource="http://purl.org/dc/dcmitype/StillImage" /></cc:Work></rdf:RDF></metadata><defs
     id="defs6" /><g
     transform="matrix(1.3333333,0,0,-1.3333333,0,226.70667)"
     id="g10"><g
       transform="scale(0.1)"
       id="g12"><path
         id="path14"
         style="fill:#4bbc39;fill-opacity:1;fill-rule:nonzero;stroke:none"
         d="m 1648.27,1134.27 c 21.82,19.22 32.77,47.02 32.77,83.34 0,33.69 -10.95,60.04 -32.77,78.98 -21.85,18.95 -59.94,28.43 -114.15,28.43 h -157.99 v -219.58 h 155.6 c 55.83,0 94.69,9.6 116.54,28.83" /><path
         id="path16"
         style="fill:#4bbc39;fill-opacity:1;fill-rule:nonzero;stroke:none"
         d="M 0,1700.3 V 1559.61 H 480.41 L 661.887,855.066 842.078,1559.61 h 173.082 297.22 372.61 c 111.65,0 197.34,-27.66 257.12,-82.94 33.74,-31.23 57.65,-66.81 72.33,-106.44 V 1700.3 H 0" /><path
         id="path18"
         style="fill:#4bbc39;fill-opacity:1;fill-rule:nonzero;stroke:none"
         d="m 1842.97,1017.78 c 75.15,-18.069 132.2,-47.971 171.47,-89.46 v 244.43 c -10.65,-28.09 -26.11,-53.98 -46.65,-77.57 -28.47,-32.66 -70.03,-58.44 -124.82,-77.4" /><path
         id="path20"
         style="fill:#040606;fill-opacity:1;fill-rule:nonzero;stroke:none"
         d="m 1929.11,425.512 c -30.03,-17.371 -90.32,-44.992 -150.86,-52.871 -80.57,-10.52 -119.07,-0.852 -145.39,-0.852 h -617.7 v 29.922 h -10.81 V 1135.17 L 793.52,401.711 H 513.313 L 317.848,1135.17 V 401.711 H 9.82422 V 0 H 2014.44 v 508.969 c -23.64,-33.129 -51.99,-64.27 -85.33,-83.457" /><path
         id="path22"
         style="fill:#4bbc39;fill-opacity:1;fill-rule:nonzero;stroke:none"
         d="m 1689.34,853.895 c -25.02,20.8 -68.87,31.199 -131.5,31.199 H 1376.13 V 650.488 h 182.47 c 61.63,0 105.06,10.942 130.34,32.813 25.28,21.832 37.92,51.187 37.92,88.054 0,34.219 -12.5,61.719 -37.52,82.54" /><path
         id="path24"
         style="fill:#ffffff;fill-opacity:1;fill-rule:nonzero;stroke:none"
         d="m 1688.94,683.301 c -25.28,-21.871 -68.71,-32.813 -130.34,-32.813 h -182.47 v 234.606 h 181.71 c 62.63,0 106.48,-10.399 131.5,-31.199 25.02,-20.821 37.52,-48.321 37.52,-82.54 0,-36.867 -12.64,-66.222 -37.92,-88.054 z m -312.81,641.719 h 157.99 c 54.21,0 92.3,-9.48 114.15,-28.43 21.82,-18.94 32.77,-45.29 32.77,-78.98 0,-36.32 -10.95,-64.12 -32.77,-83.34 -21.85,-19.23 -60.71,-28.83 -116.54,-28.83 h -155.6 z m 591.66,-229.84 c 20.54,23.59 36,49.48 46.65,77.57 v 197.48 c -14.68,39.63 -38.59,75.21 -72.33,106.44 -59.78,55.28 -145.47,82.94 -257.12,82.94 H 1312.38 1015.16 842.078 L 661.887,855.066 480.41,1559.61 H 9.82422 V 401.711 H 317.848 V 1135.17 L 513.313,401.711 H 793.52 L 959.488,970.602 V 401.711 h 55.672 v -29.922 h 617.7 c 26.32,0 64.82,-9.668 145.39,0.852 60.54,7.879 120.83,35.5 150.86,52.871 33.34,19.187 61.69,50.328 85.33,83.457 V 928.32 c -39.27,41.489 -96.32,71.391 -171.47,89.46 54.79,18.96 96.35,44.74 124.82,77.4" /><path
         id="path26"
         style="fill:#040606;fill-opacity:1;fill-rule:nonzero;stroke:none"
         d="m 2013.92,524.672 c 0,0 -97.24,-234.363 -504.84,-122.961 C 1151.59,499.41 444.473,695.512 148.809,777.145 222.91,697.66 185.684,579.129 90.5195,579.129 42.5117,579.129 18.125,602.648 0,633.25 V 0 h 2014.44 l -0.52,524.672" /><path
         id="path28"
         style="fill:#4bbc39;fill-opacity:1;fill-rule:nonzero;stroke:none"
         d="M 87.9883,321.238 H 185.492 L 223.09,163.57 260.406,321.238 h 97.426 V 62.1289 H 297.133 V 259.711 L 250.352,62.1289 H 195.426 L 148.711,259.711 V 62.1289 H 87.9883 V 321.238" /><path
         id="path30"
         style="fill:#4bbc39;fill-opacity:1;fill-rule:nonzero;stroke:none"
         d="m 519.211,151.199 c -9.188,-3.539 -18.738,-6.64 -28.668,-9.367 -13.527,-3.883 -22.082,-7.703 -25.699,-11.473 -3.696,-3.918 -5.543,-8.3 -5.543,-13.257 0,-5.653 1.82,-10.313 5.465,-13.891 3.668,-3.6016 9.047,-5.4219 16.125,-5.4219 7.422,0 14.308,1.9492 20.711,5.8519 6.371,3.91 10.878,8.629 13.574,14.218 2.676,5.61 4.035,12.891 4.035,21.852 z m -57.789,37.821 -63.656,7.25 c 2.414,12.031 5.882,21.492 10.379,28.339 4.554,6.903 11.043,12.911 19.582,17.981 6.101,3.629 14.503,6.461 25.171,8.48 10.723,1.989 22.274,3.012 34.707,3.012 19.95,0 36.008,-1.211 48.114,-3.66 12.125,-2.402 22.187,-7.442 30.261,-15.082 5.676,-5.309 10.149,-12.828 13.422,-22.559 3.293,-9.722 4.911,-18.992 4.911,-27.801 v -82.921 c 0,-8.8481 0.511,-15.7504 1.578,-20.7699 1.011,-4.9883 3.269,-11.3672 6.777,-19.1602 H 530.16 c -2.523,4.7813 -4.152,8.4805 -4.93,11.0195 -0.734,2.5625 -1.507,6.5235 -2.269,11.9532 -8.746,-9.0821 -17.426,-15.5313 -26.051,-19.4727 -11.75,-5.168 -25.449,-7.75 -41.058,-7.75 -20.723,0 -36.473,5.1602 -47.204,15.543 -10.75,10.3672 -16.113,23.1484 -16.113,38.3481 0,14.261 3.871,25.992 11.641,35.21 7.734,9.161 22.023,15.989 42.84,20.508 24.992,5.403 41.187,9.203 48.609,11.391 7.418,2.16 15.27,5.012 23.586,8.57 0,8.821 -1.699,15 -5.094,18.539 -3.387,3.532 -9.336,5.313 -17.855,5.313 -10.887,0 -19.078,-1.891 -24.539,-5.672 -4.258,-2.957 -7.68,-8.469 -10.301,-16.609" /><path
         id="path32"
         style="fill:#4bbc39;fill-opacity:1;fill-rule:nonzero;stroke:none"
         d="m 624.242,321.238 h 68.063 v -133.75 l 49.742,62.344 h 82.008 l -62.36,-65.75 65.946,-121.9531 H 752.605 L 717.41,137.359 692.305,110.898 V 62.1289 H 624.242 V 321.238" /><path
         id="path34"
         style="fill:#4bbc39;fill-opacity:1;fill-rule:nonzero;stroke:none"
         d="m 961.492,172.59 c -1.304,13.898 -4.758,23.859 -10.383,29.859 -5.621,6.012 -13.011,9.012 -22.187,9.012 -10.582,0 -19.02,-4.52 -25.352,-13.602 -4.043,-5.648 -6.617,-14.039 -7.707,-25.269 z m 67.758,-34.488 H 895.715 c 1.187,-11.52 4.074,-20.133 8.664,-25.813 6.434,-8.098 14.824,-12.18 25.191,-12.18 6.551,0 12.758,1.782 18.645,5.313 3.64,2.207 7.473,6.187 11.648,11.808 l 65.607,-6.519 C 1015.45,91.8594 1003.33,78.3516 989.156,70.1484 974.984,61.9805 954.629,57.8789 928.121,57.8789 c -23.031,0 -41.133,3.4727 -54.344,10.5 -13.175,7.0117 -24.136,18.1719 -32.797,33.4101 -8.679,15.281 -13.015,33.199 -13.015,53.82 0,29.371 8.695,53.09 26.098,71.243 17.398,18.128 41.445,27.23 72.085,27.23 24.868,0 44.528,-4.102 58.918,-12.23 14.403,-8.102 25.364,-19.911 32.884,-35.321 7.52,-15.441 11.3,-35.519 11.3,-60.281 v -8.148" /><path
         id="path36"
         style="fill:#4bbc39;fill-opacity:1;fill-rule:nonzero;stroke:none"
         d="m 1062.14,321.238 h 66.78 V 62.1289 h -66.78 V 321.238" /><path
         id="path38"
         style="fill:#4bbc39;fill-opacity:1;fill-rule:nonzero;stroke:none"
         d="m 1289.92,151.199 c -9.16,-3.539 -18.71,-6.64 -28.61,-9.367 -13.54,-3.883 -22.14,-7.703 -25.72,-11.473 -3.69,-3.918 -5.57,-8.3 -5.57,-13.257 0,-5.653 1.83,-10.313 5.49,-13.891 3.64,-3.6016 9.02,-5.4219 16.12,-5.4219 7.42,0 14.32,1.9492 20.72,5.8519 6.39,3.91 10.89,8.629 13.58,14.218 2.66,5.61 3.99,12.891 3.99,21.852 z m -57.76,37.821 -63.66,7.25 c 2.39,12.031 5.87,21.492 10.38,28.339 4.52,6.903 11.06,12.911 19.57,17.981 6.12,3.629 14.51,6.461 25.22,8.48 10.69,1.989 22.21,3.012 34.66,3.012 19.98,0 36.02,-1.211 48.12,-3.66 12.1,-2.402 22.2,-7.442 30.27,-15.082 5.67,-5.309 10.16,-12.828 13.42,-22.559 3.24,-9.722 4.9,-18.992 4.9,-27.801 v -82.921 c 0,-8.8481 0.53,-15.7504 1.56,-20.7699 1.04,-4.9883 3.32,-11.3672 6.79,-19.1602 h -62.52 c -2.47,4.7813 -4.13,8.4805 -4.88,11.0195 -0.77,2.5625 -1.55,6.5235 -2.29,11.9532 -8.74,-9.0821 -17.43,-15.5313 -26.03,-19.4727 -11.79,-5.168 -25.48,-7.75 -41.08,-7.75 -20.72,0 -36.46,5.1602 -47.2,15.543 -10.75,10.3672 -16.13,23.1484 -16.13,38.3481 0,14.261 3.88,25.992 11.61,35.21 7.75,9.161 22.05,15.989 42.88,20.508 25,5.403 41.2,9.203 48.61,11.391 7.43,2.16 15.28,5.012 23.56,8.57 0,8.821 -1.68,15 -5.07,18.539 -3.39,3.532 -9.31,5.313 -17.82,5.313 -10.92,0 -19.1,-1.891 -24.54,-5.672 -4.28,-2.957 -7.71,-8.469 -10.33,-16.609" /><path
         id="path40"
         style="fill:#4bbc39;fill-opacity:1;fill-rule:nonzero;stroke:none"
         d="m 1513.45,151.199 c -9.16,-3.539 -18.71,-6.64 -28.63,-9.367 -13.55,-3.883 -22.1,-7.703 -25.69,-11.473 -3.71,-3.918 -5.57,-8.3 -5.57,-13.257 0,-5.653 1.83,-10.313 5.5,-13.891 3.64,-3.6016 9.01,-5.4219 16.1,-5.4219 7.42,0 14.32,1.9492 20.69,5.8519 6.37,3.91 10.95,8.629 13.59,14.218 2.67,5.61 4.01,12.891 4.01,21.852 z m -57.74,37.821 -63.66,7.25 c 2.37,12.031 5.87,21.492 10.39,28.339 4.52,6.903 11.04,12.911 19.53,17.981 6.12,3.629 14.52,6.461 25.2,8.48 10.7,1.989 22.27,3.012 34.71,3.012 19.96,0 36,-1.211 48.11,-3.66 12.1,-2.402 22.21,-7.442 30.29,-15.082 5.65,-5.309 10.14,-12.828 13.42,-22.559 3.26,-9.722 4.89,-18.992 4.89,-27.801 v -82.921 c 0,-8.8481 0.53,-15.7504 1.54,-20.7699 1.06,-4.9883 3.29,-11.3672 6.81,-19.1602 h -62.5 c -2.54,4.7813 -4.16,8.4805 -4.93,11.0195 -0.76,2.5625 -1.55,6.5235 -2.3,11.9532 -8.71,-9.0821 -17.37,-15.5313 -26,-19.4727 -11.8,-5.168 -25.48,-7.75 -41.09,-7.75 -20.7,0 -36.41,5.1602 -47.2,15.543 -10.73,10.3672 -16.12,23.1484 -16.12,38.3481 0,14.261 3.87,25.992 11.63,35.21 7.77,9.161 22.01,15.989 42.87,20.508 24.96,5.403 41.17,9.203 48.59,11.391 7.41,2.16 15.3,5.012 23.56,8.57 0,8.821 -1.69,15 -5.08,18.539 -3.35,3.532 -9.31,5.313 -17.83,5.313 -10.92,0 -19.1,-1.891 -24.55,-5.672 -4.23,-2.957 -7.7,-8.469 -10.28,-16.609" /><path
         id="path42"
         style="fill:#4bbc39;fill-opacity:1;fill-rule:nonzero;stroke:none"
         d="m 1619.18,249.832 h 62.36 v -30.773 c 5.97,13.312 12.17,22.472 18.55,27.48 6.39,5.051 14.28,7.543 23.64,7.543 9.82,0 20.56,-3.312 32.24,-9.922 l -20.61,-51.25 c -7.85,3.539 -14.08,5.328 -18.66,5.328 -8.72,0 -15.47,-3.906 -20.29,-11.687 -6.87,-10.961 -10.31,-31.461 -10.31,-61.512 V 62.1289 h -66.92 V 249.832" /><path
         id="path44"
         style="fill:#4bbc39;fill-opacity:1;fill-rule:nonzero;stroke:none"
         d="m 1763.84,114.25 66.1,6.719 c 2.74,-8.469 6.56,-14.559 11.48,-18.188 4.89,-3.699 11.44,-5.4724 19.61,-5.4724 8.96,0 15.89,2.0234 20.78,6.1404 3.84,3.051 5.74,6.891 5.74,11.5 0,5.141 -2.51,9.18 -7.54,11.981 -3.59,2.019 -13.15,4.48 -28.62,7.402 -23.14,4.34 -39.2,8.387 -48.19,12.109 -9.03,3.707 -16.6,9.957 -22.78,18.809 -6.15,8.832 -9.23,18.891 -9.23,30.191 0,12.368 3.33,23.02 10.01,31.957 6.65,8.942 15.78,15.641 27.5,20.043 11.67,4.411 27.29,6.641 46.95,6.641 20.7,0 36.02,-1.73 45.87,-5.16 9.88,-3.402 18.13,-8.692 24.74,-15.871 6.58,-7.199 12.07,-16.949 16.44,-29.18 l -63.18,-6.711 c -1.64,5.981 -4.38,10.43 -8.16,13.262 -5.25,3.769 -11.57,5.668 -18.96,5.668 -7.58,0 -13.02,-1.43 -16.48,-4.34 -3.42,-2.859 -5.14,-6.391 -5.14,-10.52 0,-4.589 2.15,-8.031 6.5,-10.402 4.4,-2.379 13.88,-4.449 28.52,-6.359 22.12,-2.699 38.58,-6.481 49.41,-11.289 10.79,-4.84 19.06,-11.711 24.79,-20.668 5.73,-8.942 8.59,-18.782 8.59,-29.5 0,-10.832 -3.03,-21.332 -9.07,-31.6018 -6.05,-10.25 -15.62,-18.3907 -28.66,-24.4688 -13.02,-6.043 -30.79,-9.0625 -53.28,-9.0625 -31.75,0 -54.33,4.8711 -67.78,14.6719 -13.51,9.7578 -22.17,23.6484 -25.96,41.6992" /></g></g></svg>