<?xml version="1.0" encoding="iso-8859-1"?>
<!-- Generator: Adobe Illustrator 23.0.1, SVG Export Plug-In . SVG Version: 6.00 Build 0)  -->
<svg version="1.1" id="Ebene_1" xmlns="http://www.w3.org/2000/svg" xmlns:xlink="http://www.w3.org/1999/xlink" x="0px" y="0px"
	 viewBox="0 0 155.906 126.537" style="enable-background:new 0 0 155.906 126.537;" xml:space="preserve">
<g>
	<path style="fill:#006EC7;" d="M15.711,71.635V60.404c0-0.046,0-0.104,0-0.173c0-0.069,0-0.134,0-0.196
		c0-0.077,0.008-0.153,0.023-0.23c0.015-0.077,0.031-0.153,0.046-0.23c0.077-0.537,0.234-1.047,0.472-1.53
		c0.238-0.483,0.564-0.948,0.978-1.392c0.399-0.445,0.913-0.79,1.542-1.036c0.629-0.245,1.365-0.391,2.209-0.437
		c0.675,0,1.308,0.092,1.899,0.276c0.591,0.184,1.139,0.452,1.646,0.805c0.506,0.368,0.886,0.825,1.139,1.369
		c0.253,0.545,0.38,1.178,0.38,1.899c0,0.506-0.027,0.936-0.081,1.289c-0.054,0.353-0.142,0.637-0.264,0.852
		c-0.107,0.215-0.249,0.414-0.426,0.598c-0.177,0.184-0.372,0.361-0.587,0.53c-0.015,0.015-0.034,0.031-0.058,0.046
		c-0.023,0.015-0.05,0.031-0.081,0.046c-0.015,0.015-0.035,0.031-0.058,0.046s-0.05,0.031-0.081,0.046
		c0.414,0.154,0.775,0.342,1.082,0.564c0.307,0.223,0.552,0.48,0.736,0.771c0.184,0.292,0.33,0.583,0.437,0.875
		c0.107,0.291,0.184,0.591,0.23,0.897c0,0.031,0,0.061,0,0.092c0,0.031,0.008,0.061,0.023,0.092c0,0.031,0,0.061,0,0.092
		c0,0.031,0,0.061,0,0.092c0,0.031,0,0.062,0,0.092c0,0.031,0.008,0.054,0.023,0.069c0,0.031,0,0.058,0,0.08c0,0.023,0,0.05,0,0.081
		c0,0.031,0,0.061,0,0.092c0,0.031,0,0.061,0,0.092c0,0.016,0,0.031,0,0.046c0,0.015,0,0.023,0,0.023
		c0,0.015,0.004,0.031,0.012,0.046c0.008,0.016,0.011,0.031,0.011,0.046c0,0.66-0.107,1.258-0.322,1.795
		c-0.215,0.537-0.537,1.02-0.967,1.45c-0.43,0.429-0.901,0.748-1.416,0.955c-0.514,0.207-1.078,0.311-1.691,0.311
		c-0.015,0-0.031,0-0.046,0c-0.015,0-0.023,0-0.023,0c-0.015,0-0.031,0-0.046,0c-0.015,0-0.031,0-0.046,0c-0.015,0-0.031,0-0.046,0
		s-0.023,0-0.023,0c-0.015,0-0.031,0-0.046,0c-0.015,0-0.031,0-0.046,0h-3.452v-2.163h2.9c0.399,0.031,0.779-0.004,1.139-0.103
		s0.694-0.249,1.001-0.449c0.307-0.2,0.541-0.46,0.702-0.783c0.161-0.322,0.241-0.713,0.241-1.174c0-0.491-0.084-0.913-0.253-1.266
		c-0.169-0.353-0.414-0.629-0.736-0.829c-0.322-0.215-0.691-0.372-1.105-0.472c-0.414-0.1-0.867-0.15-1.358-0.15l-2.532-0.046
		v-1.979h2.002c0.506,0.031,0.944-0.004,1.312-0.103c0.368-0.1,0.667-0.249,0.897-0.449c0.23-0.199,0.414-0.406,0.552-0.621
		c0.138-0.215,0.23-0.445,0.276-0.691c0-0.015,0-0.031,0-0.046c0-0.015,0.008-0.038,0.023-0.069c0-0.016,0-0.035,0-0.058
		c0-0.023,0-0.042,0-0.057c0-0.016,0-0.031,0-0.046s0.008-0.038,0.023-0.069c0-0.016,0-0.035,0-0.058c0-0.023,0-0.042,0-0.058
		c0-0.399-0.065-0.763-0.196-1.093c-0.13-0.33-0.326-0.618-0.587-0.863c-0.245-0.261-0.548-0.452-0.909-0.575
		c-0.361-0.123-0.763-0.184-1.208-0.184c-0.491,0-0.917,0.069-1.277,0.207c-0.361,0.138-0.648,0.345-0.863,0.621
		c-0.215,0.276-0.384,0.568-0.507,0.875c-0.123,0.307-0.199,0.621-0.23,0.944c-0.015,0.046-0.023,0.088-0.023,0.127
		c0,0.038,0,0.073,0,0.103s0,0.065,0,0.103c0,0.039,0,0.073,0,0.104v11.369H15.711L15.711,71.635L15.711,71.635z M29.018,71.635
		V60.934c0-0.798,0.119-1.534,0.357-2.209c0.238-0.675,0.594-1.297,1.07-1.864c0.491-0.552,1.07-0.97,1.738-1.254
		c0.668-0.284,1.431-0.426,2.29-0.426c0.813,0,1.557,0.138,2.232,0.414c0.675,0.276,1.274,0.691,1.795,1.243
		c0.537,0.552,0.936,1.197,1.197,1.933c0.261,0.736,0.391,1.573,0.391,2.509c0,0.015,0,0.027,0,0.035s0,0.011,0,0.011
		c0,0.016,0,0.027,0,0.035c0,0.008,0,0.019,0,0.035c0,0.015,0,0.031,0,0.046c0,0.016,0,0.031,0,0.046s0,0.035,0,0.058
		c0,0.023,0,0.05,0,0.081c0,0.015,0,0.031,0,0.046s0,0.031,0,0.046v9.919h-2.186v-7.434h-5.984v-2.163h5.984c0,0,0-0.011,0-0.034
		c0-0.023,0-0.042,0-0.058c0-0.015,0-0.031,0-0.046c0-0.015,0.008-0.031,0.023-0.046c0,0,0-0.008,0-0.023c0-0.015,0-0.031,0-0.046
		c0-0.031,0-0.058,0-0.081c0-0.023,0-0.042,0-0.058s0-0.031,0-0.046s0-0.031,0-0.046c0,0,0-0.008,0-0.023c0-0.015,0-0.031,0-0.046
		c0-0.721-0.073-1.35-0.219-1.887c-0.146-0.537-0.364-0.982-0.656-1.335c-0.291-0.353-0.641-0.621-1.047-0.806
		c-0.406-0.184-0.863-0.276-1.369-0.276c-0.476,0-0.898,0.061-1.266,0.184c-0.368,0.123-0.675,0.299-0.92,0.529
		s-0.449,0.476-0.61,0.736c-0.161,0.261-0.288,0.53-0.38,0.806c-0.046,0.138-0.084,0.276-0.115,0.414
		c-0.031,0.138-0.062,0.276-0.092,0.414c-0.015,0.138-0.027,0.264-0.035,0.38c-0.008,0.115-0.012,0.226-0.012,0.334v10.656H29.018
		L29.018,71.635L29.018,71.635z M42.509,55.502h2.37v10.334c0,0.752,0.077,1.385,0.23,1.899c0.153,0.514,0.384,0.925,0.691,1.231
		c0.307,0.292,0.641,0.514,1.001,0.668c0.361,0.153,0.748,0.23,1.162,0.23c0.491,0,0.921-0.077,1.289-0.23
		c0.368-0.154,0.675-0.391,0.92-0.713c0.245-0.307,0.437-0.633,0.575-0.978c0.138-0.345,0.223-0.71,0.253-1.093
		c0-0.016,0-0.031,0-0.046c0-0.015,0.008-0.038,0.023-0.069c0-0.016,0-0.031,0-0.046c0-0.015,0-0.031,0-0.046
		c0-0.031,0-0.065,0-0.104c0-0.038,0-0.073,0-0.103V55.502h2.37v10.702c0,0.982-0.138,1.826-0.414,2.532
		c-0.276,0.706-0.683,1.289-1.22,1.749c-0.537,0.46-1.124,0.798-1.761,1.013c-0.637,0.215-1.316,0.322-2.037,0.322
		c-0.721,0-1.4-0.119-2.037-0.357c-0.637-0.238-1.231-0.602-1.784-1.093c-0.552-0.491-0.963-1.066-1.231-1.726
		c-0.268-0.66-0.403-1.396-0.403-2.21V55.502L42.509,55.502L42.509,55.502z M67.328,57.688v-2.186
		c0.767,0.031,1.484,0.153,2.152,0.368c0.667,0.215,1.277,0.53,1.829,0.944c0.552,0.43,1.028,0.932,1.427,1.507
		c0.399,0.575,0.713,1.224,0.944,1.945c0.169-0.675,0.43-1.277,0.783-1.807c0.353-0.529,0.805-0.986,1.358-1.369
		c0.552-0.399,1.124-0.721,1.715-0.967c0.591-0.245,1.2-0.414,1.829-0.506c0.046,0,0.096-0.004,0.15-0.012
		c0.054-0.008,0.111-0.019,0.173-0.034c0.031,0,0.058,0,0.08,0c0.023,0,0.05-0.008,0.081-0.023c0.016,0,0.039,0,0.069,0
		c0.031,0,0.061,0,0.092,0v2.14c-0.123,0.031-0.249,0.05-0.38,0.058c-0.13,0.008-0.265,0.027-0.403,0.058
		c-0.061,0.015-0.126,0.027-0.196,0.035c-0.069,0.008-0.134,0.019-0.196,0.035c-0.077,0.015-0.146,0.031-0.207,0.046
		c-0.061,0.015-0.13,0.038-0.207,0.069c-0.46,0.153-0.901,0.376-1.323,0.667c-0.422,0.292-0.825,0.66-1.208,1.105
		c-0.384,0.445-0.667,0.997-0.852,1.657c-0.184,0.66-0.276,1.427-0.276,2.301c0,0.767,0.123,1.492,0.368,2.175
		c0.245,0.683,0.606,1.316,1.082,1.899c0.491,0.583,1.013,1.02,1.565,1.312c0.552,0.292,1.143,0.437,1.772,0.437
		c0.015,0,0.027,0,0.035,0s0.019,0,0.034,0c0,0,0.004,0,0.012,0s0.019,0,0.035,0c0.015,0,0.027,0,0.035,0s0.019,0,0.034,0
		c0,0,0.004,0,0.012,0s0.019,0,0.035,0c0.015,0,0.031,0,0.046,0s0.031,0,0.046,0c0.015,0,0.027,0,0.034,0
		c0.008,0,0.019-0.008,0.035-0.023c0.015,0,0.027,0,0.035,0c0.008,0,0.019,0,0.035,0v2.117c-0.015,0-0.035,0-0.058,0
		c-0.023,0-0.05,0-0.08,0c-0.016,0-0.027,0-0.035,0s-0.019,0.008-0.035,0.023c-0.015,0-0.027,0-0.035,0c-0.008,0-0.011,0-0.011,0
		c-0.015,0-0.027,0-0.035,0c-0.008,0-0.019,0.008-0.035,0.023c-0.015,0-0.027,0-0.035,0c-0.008,0-0.019,0-0.035,0
		c-0.015,0-0.034,0-0.057,0c-0.023,0-0.05,0-0.081,0c-0.046,0-0.088,0-0.126,0c-0.039,0-0.073,0-0.104,0
		c-0.046-0.015-0.088-0.023-0.126-0.023c-0.038,0-0.081,0-0.127,0c-0.046,0-0.088-0.004-0.126-0.012
		c-0.039-0.008-0.073-0.012-0.104-0.012c-0.046,0-0.088,0-0.126,0c-0.038,0-0.081,0-0.127,0c-0.583-0.123-1.147-0.326-1.691-0.61
		c-0.545-0.284-1.063-0.656-1.554-1.116c-0.491-0.445-0.871-0.917-1.139-1.415c-0.268-0.499-0.418-1.009-0.449-1.531
		c-0.138,0.66-0.38,1.266-0.725,1.818c-0.345,0.552-0.802,1.058-1.369,1.519c-0.568,0.46-1.174,0.798-1.818,1.013
		c-0.644,0.215-1.335,0.322-2.071,0.322c-0.015,0-0.031,0-0.046,0c-0.015,0-0.031,0-0.046,0c-0.015,0-0.031,0-0.046,0
		c-0.015,0-0.031,0-0.046,0c-0.015,0-0.031,0-0.046,0c-0.015,0-0.031,0-0.046,0s-0.031,0-0.046,0c-0.015,0-0.031,0-0.046,0v-2.163
		c0.015,0.031,0.035,0.046,0.058,0.046s0.042,0,0.058,0c0.031,0,0.058,0,0.081,0c0.023,0,0.042,0,0.058,0
		c0.092,0,0.184-0.004,0.276-0.012c0.092-0.008,0.184-0.019,0.276-0.035c0.092-0.015,0.188-0.034,0.288-0.058
		c0.1-0.023,0.203-0.05,0.311-0.081c0.46-0.138,0.897-0.357,1.312-0.656c0.414-0.299,0.813-0.687,1.197-1.162
		c0.384-0.476,0.671-1.028,0.863-1.657c0.192-0.629,0.288-1.342,0.288-2.14c0-0.721-0.092-1.411-0.276-2.071
		c-0.184-0.66-0.46-1.289-0.829-1.887c-0.368-0.583-0.882-1.043-1.542-1.381c-0.66-0.338-1.465-0.552-2.417-0.644V57.688
		L67.328,57.688z"/>
	<path style="fill:#56595A;" d="M55.471,63.672c0.046-1.074,0.204-2.025,0.472-2.854c0.268-0.829,0.641-1.519,1.116-2.071
		c0.491-0.552,0.993-1.024,1.507-1.415c0.514-0.391,1.055-0.702,1.623-0.932c0.399-0.169,0.782-0.303,1.151-0.403
		c0.368-0.1,0.729-0.18,1.082-0.242c0.353-0.046,0.675-0.088,0.967-0.126c0.292-0.039,0.552-0.065,0.783-0.081l1.45-0.046v2.002
		h-1.266c-0.982,0.077-1.845,0.234-2.589,0.472c-0.744,0.238-1.377,0.579-1.899,1.024c-0.522,0.43-0.944,0.878-1.266,1.346
		c-0.322,0.468-0.552,0.955-0.69,1.461c-0.015,0.046-0.027,0.088-0.035,0.127c-0.008,0.038-0.012,0.073-0.012,0.103
		c-0.015,0.046-0.027,0.088-0.034,0.127c-0.008,0.038-0.012,0.073-0.012,0.103l7.802-0.046v1.979h-7.802
		c0,0.169,0.008,0.326,0.023,0.472c0.015,0.146,0.046,0.303,0.092,0.472c0.046,0.154,0.1,0.311,0.161,0.472
		c0.062,0.161,0.123,0.326,0.184,0.495c0.215,0.445,0.487,0.875,0.817,1.289c0.33,0.414,0.71,0.806,1.139,1.174
		c0.445,0.368,0.909,0.644,1.392,0.829c0.483,0.184,1.001,0.276,1.554,0.276c0.015,0,0.027,0,0.034,0c0.008,0,0.019,0,0.035,0
		c0,0,0.008,0,0.023,0c0.016,0,0.031,0,0.046,0c0,0,0.004,0,0.011,0c0.008,0,0.019,0,0.035,0s0.027,0,0.035,0
		c0.008,0,0.019,0,0.035,0l2.186-0.046v2.002h-1.818c-0.062,0-0.127,0-0.196,0c-0.069,0-0.134,0-0.196,0c-0.077,0-0.146,0-0.207,0
		c-0.062,0-0.13,0-0.207,0c-0.138-0.015-0.276-0.034-0.414-0.058c-0.138-0.023-0.269-0.042-0.391-0.058
		c-0.844-0.169-1.653-0.468-2.428-0.897c-0.775-0.43-1.507-0.974-2.198-1.634c-0.706-0.675-1.231-1.45-1.577-2.324
		s-0.518-1.857-0.518-2.946V63.672L55.471,63.672z M81.716,71.635V60.773c0-0.844,0.134-1.607,0.403-2.29
		c0.268-0.683,0.671-1.277,1.208-1.784c0.537-0.506,1.113-0.886,1.726-1.139c0.614-0.253,1.258-0.38,1.933-0.38
		c0.138,0,0.276,0.008,0.414,0.023c0.138,0.016,0.284,0.039,0.437,0.069c0.153,0.031,0.307,0.069,0.46,0.115
		c0.153,0.046,0.307,0.092,0.46,0.138c0.46,0.169,0.897,0.399,1.312,0.691c0.414,0.291,0.813,0.644,1.197,1.059
		c0.384,0.414,0.672,0.886,0.863,1.415c0.192,0.529,0.288,1.116,0.288,1.761c0,0.706-0.092,1.335-0.276,1.887
		c-0.184,0.552-0.453,1.028-0.806,1.427c-0.353,0.383-0.725,0.71-1.116,0.978c-0.391,0.269-0.794,0.464-1.208,0.587
		c-0.107,0.031-0.219,0.058-0.334,0.081c-0.115,0.023-0.226,0.042-0.334,0.058c-0.107,0.015-0.215,0.027-0.322,0.035
		c-0.107,0.008-0.215,0.011-0.322,0.011l-3.084-0.046v-1.979h2.002c0.015,0.015,0.031,0.027,0.046,0.034
		c0.015,0.008,0.031,0.012,0.046,0.012c0,0,0.008,0,0.023,0c0.015,0,0.031,0,0.046,0c0.015,0,0.031,0,0.046,0
		c0.016,0,0.031,0,0.046,0c0,0,0.008,0,0.023,0s0.031,0,0.046,0c0.46,0,0.859-0.042,1.197-0.127
		c0.338-0.084,0.614-0.219,0.829-0.402c0.215-0.169,0.399-0.353,0.552-0.552c0.153-0.2,0.268-0.407,0.345-0.621
		c0.046-0.123,0.08-0.249,0.103-0.38c0.023-0.13,0.042-0.257,0.058-0.38c0.015-0.123,0.027-0.234,0.035-0.334
		c0.008-0.1,0.012-0.196,0.012-0.288c0-0.077-0.004-0.161-0.012-0.253c-0.008-0.092-0.019-0.192-0.035-0.299
		c-0.015-0.107-0.038-0.215-0.069-0.322c-0.031-0.107-0.062-0.215-0.092-0.322c-0.092-0.23-0.215-0.453-0.368-0.667
		c-0.154-0.215-0.338-0.422-0.552-0.621c-0.215-0.2-0.483-0.349-0.806-0.449c-0.322-0.1-0.706-0.149-1.151-0.149
		c-0.675,0-1.227,0.107-1.657,0.322c-0.43,0.215-0.729,0.537-0.897,0.967c-0.184,0.43-0.319,0.901-0.403,1.416
		c-0.084,0.514-0.127,1.062-0.127,1.646v9.919H81.716L81.716,71.635L81.716,71.635z M93.412,63.672
		c0.046-1.074,0.203-2.025,0.472-2.854c0.268-0.829,0.64-1.519,1.116-2.071c0.491-0.552,0.994-1.024,1.508-1.415
		c0.514-0.391,1.055-0.702,1.623-0.932c0.399-0.169,0.782-0.303,1.151-0.403c0.368-0.1,0.729-0.18,1.082-0.242
		c0.353-0.046,0.675-0.088,0.967-0.126c0.292-0.039,0.552-0.065,0.783-0.081l1.45-0.046v2.002h-1.266
		c-0.982,0.077-1.845,0.234-2.589,0.472c-0.744,0.238-1.377,0.579-1.899,1.024c-0.522,0.43-0.944,0.878-1.266,1.346
		c-0.322,0.468-0.552,0.955-0.69,1.461c-0.016,0.046-0.027,0.088-0.035,0.127c-0.008,0.038-0.012,0.073-0.012,0.103
		c-0.015,0.046-0.027,0.088-0.035,0.127c-0.008,0.038-0.011,0.073-0.011,0.103l7.802-0.046v1.979H95.76
		c0,0.169,0.008,0.326,0.023,0.472c0.015,0.146,0.046,0.303,0.092,0.472c0.046,0.154,0.1,0.311,0.161,0.472
		c0.062,0.161,0.123,0.326,0.184,0.495c0.215,0.445,0.487,0.875,0.817,1.289c0.33,0.414,0.71,0.806,1.139,1.174
		c0.445,0.368,0.909,0.644,1.392,0.829c0.483,0.184,1.001,0.276,1.553,0.276c0.016,0,0.027,0,0.035,0s0.019,0,0.035,0
		c0,0,0.008,0,0.023,0s0.031,0,0.046,0c0,0,0.004,0,0.011,0c0.008,0,0.019,0,0.035,0c0.015,0,0.027,0,0.035,0s0.019,0,0.035,0
		l2.186-0.046v2.002h-1.818c-0.062,0-0.127,0-0.196,0c-0.069,0-0.134,0-0.196,0c-0.077,0-0.146,0-0.207,0c-0.062,0-0.13,0-0.207,0
		c-0.138-0.015-0.276-0.034-0.414-0.058c-0.138-0.023-0.268-0.042-0.391-0.058c-0.844-0.169-1.653-0.468-2.428-0.897
		c-0.775-0.43-1.507-0.974-2.198-1.634c-0.706-0.675-1.231-1.45-1.577-2.324c-0.345-0.874-0.518-1.857-0.518-2.946V63.672
		L93.412,63.672z M106.351,71.635V61.486c0-0.982,0.111-1.853,0.334-2.612c0.223-0.76,0.564-1.408,1.024-1.945
		c0.445-0.537,1.009-0.951,1.692-1.243c0.683-0.292,1.477-0.46,2.382-0.507c0.66,0,1.277,0.107,1.853,0.322
		c0.575,0.215,1.101,0.545,1.577,0.99c0.491,0.43,0.859,0.909,1.105,1.439c0.245,0.529,0.368,1.093,0.368,1.691
		c0,0.015,0,0.035,0,0.058c0,0.023,0,0.05,0,0.081c0,0.015,0,0.034,0,0.057c0,0.023,0,0.05,0,0.081c0,0.368-0.038,0.725-0.115,1.07
		c-0.077,0.345-0.184,0.679-0.322,1.001c-0.153,0.322-0.345,0.598-0.575,0.829c-0.23,0.23-0.499,0.414-0.806,0.552
		c0.307,0.138,0.583,0.311,0.829,0.518c0.245,0.207,0.46,0.464,0.644,0.771c0.169,0.291,0.299,0.606,0.391,0.944
		c0.092,0.338,0.138,0.683,0.138,1.036v5.017h-2.187v-4.718c0-0.384-0.073-0.721-0.219-1.013c-0.146-0.292-0.357-0.53-0.633-0.714
		c-0.291-0.184-0.621-0.326-0.99-0.426c-0.368-0.1-0.775-0.15-1.22-0.15l-2.186-0.046v-2.002h1.818
		c0.031,0.031,0.061,0.05,0.092,0.058c0.031,0.008,0.061,0.011,0.092,0.011c0.031,0,0.062,0,0.092,0c0.031,0,0.061,0,0.092,0
		c0.031,0,0.065,0,0.103,0c0.039,0,0.073,0,0.104,0c0.015,0,0.031,0,0.046,0c0.015,0,0.038-0.008,0.069-0.023
		c0.016,0,0.035,0,0.058,0c0.023,0,0.042,0,0.057,0c0.307-0.046,0.602-0.134,0.886-0.264c0.284-0.131,0.549-0.311,0.794-0.541
		c0.261-0.215,0.457-0.483,0.587-0.805c0.13-0.322,0.196-0.691,0.196-1.105c0-0.399-0.058-0.748-0.173-1.047
		c-0.115-0.299-0.288-0.541-0.518-0.725c-0.23-0.184-0.468-0.334-0.714-0.449c-0.245-0.115-0.506-0.196-0.782-0.242
		c-0.062-0.015-0.123-0.027-0.184-0.035c-0.061-0.008-0.123-0.011-0.184-0.011c-0.031,0-0.062,0-0.092,0
		c-0.031,0-0.054-0.008-0.069-0.023c-0.031,0-0.061,0-0.092,0c-0.031,0-0.062,0-0.092,0c-0.414,0-0.779,0.05-1.093,0.149
		c-0.314,0.1-0.579,0.249-0.794,0.449c-0.23,0.199-0.422,0.406-0.575,0.621c-0.153,0.215-0.276,0.437-0.368,0.667
		c-0.046,0.107-0.084,0.215-0.115,0.322c-0.031,0.107-0.061,0.215-0.092,0.322c-0.015,0.107-0.027,0.207-0.034,0.299
		c-0.008,0.092-0.012,0.177-0.012,0.253v11.185H106.351L106.351,71.635L106.351,71.635z M118.576,57.505v-2.002h10.334v2.002h-3.982
		v14.131h-2.371V57.505H118.576L118.576,57.505L118.576,57.505z M129.904,69.633h5.8c0.353,0.031,0.675,0.011,0.967-0.058
		c0.292-0.069,0.545-0.173,0.76-0.311c0.215-0.138,0.391-0.322,0.529-0.552c0.138-0.23,0.23-0.506,0.276-0.829
		c0-0.276-0.046-0.537-0.138-0.782c-0.092-0.245-0.23-0.483-0.414-0.714c-0.184-0.23-0.414-0.445-0.691-0.645
		c-0.276-0.199-0.591-0.391-0.944-0.575c-0.061-0.031-0.123-0.061-0.184-0.092c-0.062-0.031-0.123-0.061-0.184-0.092
		c-0.061-0.031-0.123-0.062-0.184-0.092c-0.062-0.031-0.123-0.061-0.184-0.092c-0.015,0-0.027,0-0.035,0s-0.011,0-0.011,0
		c-0.015,0-0.027-0.004-0.035-0.011c-0.008-0.008-0.012-0.019-0.012-0.035c-0.644-0.307-1.262-0.629-1.853-0.967
		c-0.591-0.338-1.155-0.691-1.691-1.059c-0.522-0.368-0.917-0.798-1.185-1.289c-0.268-0.491-0.403-1.043-0.403-1.657
		c0-0.015,0-0.027,0-0.035s0-0.019,0-0.035c0,0,0-0.008,0-0.023c0-0.015,0-0.031,0-0.046c0,0,0-0.004,0-0.012
		c0-0.008,0-0.019,0-0.035s0-0.027,0-0.035c0-0.008,0-0.019,0-0.034c0-0.583,0.081-1.097,0.242-1.542
		c0.161-0.445,0.41-0.813,0.748-1.105c0.338-0.307,0.691-0.56,1.059-0.76c0.368-0.199,0.759-0.345,1.174-0.437
		c0.062-0.016,0.123-0.027,0.184-0.035c0.061-0.008,0.123-0.019,0.184-0.035c0.031,0,0.062-0.004,0.092-0.012
		c0.031-0.008,0.069-0.019,0.115-0.034c0.031,0,0.062-0.004,0.092-0.012s0.061-0.012,0.092-0.012l5.616-0.046v2.002h-5.247
		c-0.322,0.031-0.61,0.092-0.863,0.184c-0.253,0.092-0.472,0.23-0.656,0.414c-0.184,0.184-0.322,0.376-0.414,0.575
		c-0.092,0.2-0.154,0.407-0.184,0.622c0,0.015-0.004,0.027-0.011,0.034c-0.008,0.008-0.012,0.012-0.012,0.012
		c0,0.015,0,0.027,0,0.035c0,0.008,0,0.019,0,0.035c0,0.015,0,0.027,0,0.034s0,0.012,0,0.012c0,0.015,0,0.027,0,0.035
		c0,0.008,0,0.019,0,0.035c0,0.138,0.012,0.268,0.035,0.391c0.023,0.123,0.065,0.245,0.126,0.368
		c0.062,0.107,0.138,0.207,0.23,0.299c0.092,0.092,0.192,0.169,0.299,0.23c0.353,0.245,0.694,0.468,1.024,0.668
		c0.33,0.199,0.641,0.376,0.932,0.529c0.307,0.154,0.598,0.303,0.874,0.449c0.276,0.146,0.552,0.288,0.829,0.426
		c0.077,0.046,0.15,0.088,0.219,0.126c0.069,0.038,0.134,0.073,0.196,0.103c0.031,0.016,0.065,0.035,0.103,0.057
		c0.038,0.023,0.081,0.042,0.127,0.058c0.031,0.031,0.065,0.054,0.103,0.069c0.038,0.015,0.073,0.031,0.103,0.046
		c0.046,0.031,0.096,0.065,0.15,0.104c0.054,0.038,0.111,0.073,0.173,0.103c0.046,0.031,0.1,0.065,0.161,0.103
		c0.062,0.039,0.123,0.073,0.184,0.104c0.276,0.184,0.541,0.399,0.794,0.644s0.495,0.522,0.725,0.829
		c0.23,0.307,0.406,0.652,0.529,1.036c0.123,0.384,0.184,0.798,0.184,1.243c0,0.107-0.004,0.223-0.011,0.345
		c-0.008,0.123-0.019,0.245-0.035,0.368c-0.015,0.123-0.031,0.249-0.046,0.38s-0.039,0.257-0.069,0.38
		c-0.092,0.338-0.23,0.66-0.414,0.967c-0.184,0.307-0.422,0.598-0.713,0.875c-0.292,0.276-0.671,0.479-1.139,0.61
		c-0.468,0.13-1.032,0.196-1.692,0.196c-0.015,0-0.031,0-0.046,0c-0.015,0-0.031,0-0.046,0c-0.015,0-0.031,0-0.046,0
		s-0.031,0-0.046,0c-0.016,0-0.035,0-0.058,0c-0.023,0-0.042,0-0.058,0c-0.015,0-0.031,0-0.046,0c-0.015,0-0.031,0-0.046,0h-5.984
		V69.633L129.904,69.633L129.904,69.633z"/>
	<path style="fill-rule:evenodd;clip-rule:evenodd;fill:#56595A;" d="M125.88,73.576c-4.734,22.119-24.389,38.704-47.921,38.704
		c-23.532,0-43.187-16.585-47.921-38.704h1.824c4.703,21.127,23.554,36.922,46.098,36.922s41.394-15.795,46.098-36.922H125.88
		L125.88,73.576z"/>
	<path style="fill-rule:evenodd;clip-rule:evenodd;fill:#56595A;" d="M0,73.567h17.16v0.009h0.177
		c4.904,29.05,30.176,51.18,60.621,51.18s55.717-22.129,60.621-51.18h1.807c-4.923,30.039-30.996,52.962-62.429,52.962
		c-30.81,0-56.47-22.025-62.109-51.188H0V73.567L0,73.567z"/>
	<path style="fill-rule:evenodd;clip-rule:evenodd;fill:#006EC7;" d="M140.107,51.391h15.798v1.782h-15.483h-1.678h-0.13
		c-4.817-29.154-30.137-51.391-60.657-51.391s-55.84,22.237-60.657,51.391h-1.807C20.329,23.029,46.453,0,77.959,0
		C108.841,0,134.549,22.127,140.107,51.391L140.107,51.391z M77.959,14.258c23.607,0,43.314,16.691,47.968,38.915h-1.824
		C119.478,31.94,100.577,16.04,77.959,16.04S36.44,31.94,31.815,53.173h-1.824C34.645,30.949,54.352,14.258,77.959,14.258
		L77.959,14.258z"/>
	<path style="fill:#56595A;" d="M20.905,77.483l1.15,0.134c-0.098,0.252-0.156,0.55-0.174,0.892c-0.02,0.342,0.003,0.638,0.07,0.887
		c0.118,0.44,0.335,0.762,0.647,0.964c0.313,0.204,0.655,0.254,1.028,0.154c0.279-0.075,0.518-0.217,0.718-0.43
		c0.199-0.213,0.359-0.656,0.482-1.332l0.132-0.75c0.113-0.634,0.32-1.113,0.62-1.433c0.302-0.323,0.706-0.551,1.215-0.687
		c0.617-0.165,1.189-0.083,1.713,0.244c0.524,0.329,0.877,0.836,1.06,1.52c0.245,0.916,0.268,1.592,0.067,2.031l-1.073-0.07
		c0.069-0.18,0.112-0.439,0.131-0.775c0.02-0.336-0.007-0.635-0.078-0.899c-0.103-0.384-0.292-0.658-0.571-0.819
		c-0.277-0.163-0.588-0.198-0.93-0.106c-0.212,0.057-0.392,0.149-0.545,0.274c-0.152,0.126-0.268,0.274-0.348,0.447
		c-0.078,0.172-0.164,0.505-0.259,1l-0.14,0.765c-0.115,0.634-0.329,1.118-0.638,1.445c-0.311,0.327-0.751,0.567-1.324,0.721
		c-0.621,0.166-1.216,0.059-1.782-0.325c-0.568-0.383-0.963-0.993-1.187-1.828C20.693,78.769,20.699,78.096,20.905,77.483
		L20.905,77.483z M24.267,86.283c-0.69-0.18-1.222-0.689-1.594-1.524c-0.201-0.451-0.209-0.912-0.032-1.387
		c0.18-0.474,0.511-0.82,0.997-1.036c0.58-0.259,1.184-0.221,1.811,0.107c0.627,0.328,1.116,0.887,1.467,1.675
		c0.095,0.213,0.156,0.477,0.185,0.788c0.925-0.412,1.204-1.03,0.837-1.857c-0.283-0.635-0.67-1.048-1.165-1.236l0.659-0.807
		c0.243,0.124,0.495,0.33,0.759,0.619c0.265,0.291,0.464,0.591,0.602,0.901c0.37,0.83,0.45,1.517,0.24,2.061
		c-0.21,0.544-0.727,0.999-1.551,1.366l-2.052,0.914c-0.502,0.223-0.771,0.522-0.804,0.895l-0.509,0.226
		c-0.184-0.414-0.261-0.749-0.236-1.005C23.906,86.725,24.036,86.492,24.267,86.283L24.267,86.283z M26.378,85.227
		c-0.072-0.353-0.135-0.593-0.192-0.721c-0.228-0.512-0.548-0.873-0.954-1.079c-0.409-0.207-0.793-0.23-1.153-0.07
		c-0.595,0.265-0.736,0.747-0.423,1.45c0.228,0.513,0.675,0.858,1.338,1.037L26.378,85.227L26.378,85.227z M32.138,90.405
		l-0.954-0.102c0.045-0.153,0.043-0.38-0.009-0.68c-0.05-0.301-0.141-0.572-0.275-0.813c-0.293-0.529-0.711-0.846-1.253-0.951
		c-0.543-0.106-1.137,0.02-1.781,0.378c-0.641,0.355-1.042,0.785-1.201,1.289c-0.162,0.503-0.085,1.036,0.227,1.6
		c0.242,0.437,0.655,0.783,1.238,1.039l-0.607,0.837c-0.626-0.335-1.154-0.888-1.581-1.658c-0.414-0.748-0.505-1.503-0.274-2.27
		c0.231-0.765,0.775-1.386,1.631-1.861c0.873-0.484,1.714-0.619,2.524-0.406c0.811,0.215,1.459,0.762,1.946,1.64
		c0.158,0.285,0.268,0.623,0.333,1.021C32.164,89.866,32.177,90.178,32.138,90.405L32.138,90.405z M29.913,97.451l3.226-2.258
		c0.383-0.268,0.619-0.575,0.706-0.916c0.089-0.343,0.015-0.685-0.225-1.027c-0.154-0.221-0.374-0.396-0.659-0.528
		c-0.285-0.132-0.555-0.197-0.81-0.193l-3.814,2.671L27.7,94.29l7.236-5.067l0.637,0.909l-2.669,1.869
		c0.273-0.011,0.567,0.075,0.884,0.256c0.315,0.182,0.572,0.416,0.773,0.704c0.38,0.543,0.501,1.095,0.358,1.653
		c-0.142,0.56-0.522,1.055-1.142,1.489l-3.225,2.258L29.913,97.451L29.913,97.451z M32.946,101.41l-0.191-0.22l3.068-6.225
		l0.799,0.919l-2.225,4.127l4.419-1.603l0.764,0.878L32.946,101.41L32.946,101.41z M41.331,105.504l-3.249-3.137
		c-0.511,0.529-0.757,1.074-0.741,1.636c0.017,0.494,0.225,0.933,0.627,1.322c0.457,0.441,0.968,0.677,1.53,0.706l-0.22,0.9
		c-0.243,0.004-0.535-0.072-0.878-0.229c-0.433-0.19-0.846-0.475-1.239-0.855c-0.566-0.546-0.861-1.204-0.886-1.971
		c-0.03-0.848,0.298-1.631,0.988-2.346c0.719-0.744,1.521-1.121,2.405-1.134c0.792-0.012,1.463,0.25,2.016,0.784
		c0.642,0.62,0.971,1.288,0.986,2.002c0.018,0.689-0.251,1.32-0.806,1.895C41.693,105.254,41.515,105.396,41.331,105.504
		L41.331,105.504z M41.074,101.889c-0.358-0.345-0.769-0.517-1.232-0.521c-0.441-0.003-0.832,0.143-1.178,0.439l2.495,2.409
		c0.312-0.323,0.471-0.689,0.477-1.1C41.642,102.665,41.454,102.256,41.074,101.889L41.074,101.889z M46.251,106.501
		c-0.082-0.282-0.22-0.502-0.411-0.657c-0.306-0.247-0.687-0.322-1.145-0.226c-0.457,0.098-0.846,0.343-1.167,0.74l-2.261,2.792
		l-0.864-0.7l3.943-4.869l0.864,0.7l-0.629,0.778c0.784-0.324,1.486-0.233,2.107,0.27c0.155,0.126,0.357,0.333,0.603,0.622
		L46.251,106.501L46.251,106.501z M43.822,110.665l0.903-0.668c0.298,0.677,0.606,1.12,0.924,1.326
		c0.574,0.373,1.02,0.317,1.334-0.167c0.225-0.347,0.141-0.825-0.254-1.434c-0.301-0.475-0.493-0.81-0.575-1.009
		c-0.084-0.197-0.137-0.397-0.163-0.596c-0.027-0.201-0.018-0.39,0.022-0.572c0.041-0.181,0.115-0.354,0.224-0.521
		c0.281-0.432,0.657-0.666,1.127-0.706c0.471-0.037,0.96,0.109,1.468,0.439c0.382,0.248,0.786,0.682,1.212,1.301l-0.826,0.692
		c-0.179-0.535-0.455-0.924-0.826-1.165c-0.223-0.145-0.445-0.213-0.665-0.208c-0.221,0.007-0.382,0.09-0.486,0.251
		c-0.219,0.337-0.193,0.715,0.077,1.138l0.469,0.736c0.287,0.453,0.448,0.858,0.479,1.218c0.032,0.361-0.069,0.719-0.303,1.079
		c-0.306,0.471-0.71,0.734-1.215,0.785c-0.503,0.052-1.047-0.111-1.633-0.492C44.562,111.734,44.13,111.258,43.822,110.665
		L43.822,110.665z M51.224,109.284l-0.623-0.374l0.452-0.753l0.623,0.374l0.675-1.122l1.172,0.206l-0.895,1.489l1.475,0.887
		l-0.453,0.753l-1.475-0.886l-1.602,2.667c-0.272,0.452-0.388,0.82-0.35,1.101c0.038,0.281,0.225,0.524,0.562,0.727
		c0.243,0.146,0.533,0.237,0.869,0.268l-0.364,0.923c-0.453-0.137-0.917-0.346-1.388-0.629c-0.426-0.256-0.688-0.63-0.792-1.121
		c-0.102-0.492-0.008-0.979,0.281-1.46L51.224,109.284L51.224,109.284z M55.809,116.864c-0.639,0.317-1.374,0.282-2.203-0.104
		c-0.447-0.208-0.757-0.551-0.934-1.026c-0.175-0.476-0.152-0.954,0.073-1.436c0.268-0.575,0.749-0.944,1.437-1.107
		c0.689-0.164,1.424-0.063,2.206,0.301c0.212,0.099,0.431,0.258,0.656,0.473c0.428-0.917,0.233-1.568-0.587-1.95
		c-0.63-0.294-1.193-0.351-1.69-0.169l-0.032-1.042c0.264-0.066,0.59-0.075,0.979-0.03c0.391,0.046,0.738,0.141,1.046,0.285
		c0.823,0.384,1.335,0.85,1.534,1.398c0.198,0.549,0.107,1.231-0.275,2.049l-0.949,2.036c-0.232,0.498-0.239,0.9-0.019,1.203
		l-0.236,0.505c-0.411-0.192-0.689-0.394-0.837-0.604C55.827,117.434,55.773,117.173,55.809,116.864L55.809,116.864z M56.71,114.682
		c-0.286-0.219-0.491-0.359-0.618-0.418c-0.509-0.237-0.986-0.299-1.428-0.188c-0.444,0.112-0.75,0.346-0.916,0.703
		c-0.275,0.59-0.065,1.047,0.632,1.372c0.509,0.237,1.072,0.205,1.69-0.095L56.71,114.682L56.71,114.682z M56.786,108.346
		c0.167,0.078,0.279,0.201,0.341,0.37c0.061,0.167,0.053,0.335-0.024,0.5c-0.078,0.166-0.201,0.281-0.37,0.345
		c-0.17,0.062-0.337,0.057-0.503-0.021c-0.167-0.078-0.28-0.203-0.344-0.374c-0.061-0.172-0.053-0.34,0.025-0.506
		c0.077-0.165,0.2-0.279,0.369-0.339C56.452,108.261,56.62,108.269,56.786,108.346L56.786,108.346z M59.289,109.513
		c0.165,0.077,0.281,0.202,0.342,0.371c0.063,0.168,0.057,0.337-0.02,0.502c-0.078,0.166-0.203,0.28-0.374,0.343
		c-0.17,0.062-0.34,0.055-0.505-0.022c-0.167-0.078-0.28-0.203-0.34-0.372c-0.061-0.172-0.053-0.34,0.025-0.506
		c0.077-0.165,0.2-0.279,0.369-0.339C58.955,109.428,59.123,109.436,59.289,109.513L59.289,109.513z M61.741,119.601l1.004-3.503
		c0.184-0.641,0.217-1.118,0.097-1.431c-0.118-0.312-0.406-0.534-0.859-0.664c-0.244-0.07-0.521-0.068-0.829,0.001
		c-0.307,0.07-0.564,0.191-0.767,0.364l-1.283,4.476l-1.067-0.306l1.727-6.023l0.729,0.209l0.115,0.874
		c0.523-0.492,1.184-0.622,1.982-0.393c1.318,0.378,1.749,1.37,1.289,2.974l-1.069,3.727L61.741,119.601L61.741,119.601z
		 M68.258,121.021l0.088-0.453c-0.454,0.304-1.042,0.387-1.765,0.247c-0.77-0.15-1.34-0.547-1.711-1.191
		c-0.371-0.644-0.467-1.425-0.289-2.344c0.179-0.923,0.607-1.658,1.287-2.203c0.678-0.546,1.397-0.743,2.158-0.596
		c0.637,0.124,1.09,0.367,1.361,0.728l0.555-2.854l1.09,0.212l-1.684,8.665L68.258,121.021L68.258,121.021z M69.175,116.301
		c-0.196-0.467-0.532-0.748-1.01-0.841c-0.586-0.114-1.103,0.013-1.548,0.378c-0.448,0.367-0.736,0.886-0.867,1.56
		c-0.288,1.482,0.24,2.353,1.589,2.615c0.173,0.034,0.389,0.019,0.651-0.044c0.262-0.061,0.437-0.147,0.522-0.259L69.175,116.301
		L69.175,116.301z M73.257,113.036c0.188,0.026,0.341,0.115,0.454,0.268c0.116,0.151,0.158,0.321,0.132,0.507
		c-0.026,0.188-0.114,0.341-0.267,0.454c-0.151,0.116-0.323,0.158-0.511,0.132c-0.186-0.026-0.337-0.114-0.45-0.267
		c-0.114-0.151-0.158-0.323-0.132-0.511c0.027-0.19,0.115-0.341,0.266-0.455C72.897,113.052,73.067,113.009,73.257,113.036
		L73.257,113.036z M71.452,121.501l0.742-5.278l-0.852-0.12l0.13-0.927l1.953,0.274l-0.872,6.205L71.452,121.501L71.452,121.501z
		 M74.054,123.407l0.634-0.867c0.631,0.456,1.221,0.692,1.767,0.711c0.501,0.017,0.901-0.054,1.198-0.218
		c0.295-0.164,0.448-0.374,0.458-0.631c0.018-0.507-0.34-0.773-1.073-0.799c-0.124-0.004-0.352,0.02-0.682,0.07
		c-0.329,0.05-0.586,0.073-0.768,0.067c-0.89-0.031-1.321-0.382-1.298-1.052c0.007-0.206,0.117-0.389,0.331-0.55
		c0.215-0.16,0.477-0.273,0.787-0.336c-0.865-0.444-1.282-1.176-1.246-2.197c0.023-0.655,0.271-1.191,0.742-1.612
		c0.472-0.421,1.043-0.619,1.713-0.596c0.615,0.022,1.093,0.164,1.43,0.43l0.58-0.647l0.7,0.71l-0.684,0.479
		c0.272,0.379,0.397,0.869,0.376,1.464c-0.022,0.632-0.238,1.155-0.646,1.57c-0.408,0.415-0.934,0.643-1.574,0.682l-0.921,0.062
		c-0.11,0.008-0.257,0.045-0.443,0.111c-0.186,0.065-0.281,0.158-0.285,0.274c-0.006,0.16,0.183,0.248,0.564,0.262
		c0.168,0.006,0.43-0.017,0.787-0.065c0.357-0.047,0.622-0.068,0.793-0.062c0.615,0.022,1.09,0.184,1.425,0.491
		c0.335,0.306,0.492,0.721,0.474,1.243c-0.02,0.577-0.294,1.033-0.823,1.37c-0.529,0.337-1.19,0.49-1.98,0.462
		c-0.405-0.014-0.83-0.101-1.274-0.26C74.676,123.813,74.32,123.624,74.054,123.407L74.054,123.407z M76.662,116.294
		c-0.385-0.013-0.705,0.111-0.958,0.376c-0.253,0.265-0.386,0.592-0.4,0.981c-0.015,0.437,0.09,0.802,0.315,1.098
		c0.226,0.294,0.54,0.448,0.941,0.462c0.393,0.014,0.705-0.115,0.939-0.387c0.231-0.27,0.356-0.631,0.372-1.084
		c0.014-0.389-0.095-0.725-0.325-1.006C77.316,116.453,77.022,116.307,76.662,116.294L76.662,116.294z M85.347,118.373l-4.499,0.394
		c0.064,0.732,0.314,1.275,0.748,1.632c0.384,0.311,0.852,0.442,1.409,0.394c0.632-0.055,1.145-0.287,1.537-0.692l0.535,0.757
		c-0.156,0.186-0.406,0.356-0.749,0.513c-0.427,0.202-0.913,0.327-1.458,0.374c-0.784,0.069-1.473-0.14-2.069-0.625
		c-0.66-0.534-1.035-1.294-1.122-2.285c-0.09-1.03,0.152-1.883,0.722-2.559c0.51-0.606,1.148-0.94,1.914-1.007
		c0.889-0.078,1.609,0.112,2.158,0.569c0.531,0.439,0.832,1.056,0.901,1.851C85.397,117.936,85.386,118.163,85.347,118.373
		L85.347,118.373z M82.45,116.195c-0.495,0.043-0.895,0.241-1.201,0.588c-0.292,0.33-0.438,0.722-0.442,1.177l3.455-0.302
		c-0.039-0.448-0.211-0.807-0.517-1.081C83.409,116.276,82.977,116.149,82.45,116.195L82.45,116.195z M90.66,120.55l-0.695-3.577
		c-0.127-0.655-0.314-1.094-0.564-1.318c-0.247-0.225-0.604-0.291-1.066-0.202c-0.249,0.048-0.495,0.175-0.738,0.378
		c-0.242,0.202-0.415,0.426-0.518,0.672l0.888,4.571l-1.09,0.212l-1.196-6.15l0.745-0.145l0.499,0.727
		c0.243-0.676,0.772-1.092,1.588-1.25c1.346-0.262,2.18,0.426,2.498,2.065l0.74,3.806L90.66,120.55L90.66,120.55z M92.023,116.989
		c-0.267-0.931-0.231-1.753,0.106-2.469c0.336-0.713,0.914-1.188,1.73-1.422c0.864-0.247,1.61-0.165,2.244,0.248
		c0.634,0.412,1.09,1.106,1.37,2.081c0.278,0.971,0.254,1.807-0.073,2.507c-0.325,0.7-0.909,1.17-1.749,1.411
		c-0.858,0.246-1.609,0.154-2.252-0.275C92.757,118.642,92.298,117.949,92.023,116.989L92.023,116.989z M93.148,116.666
		c0.433,1.51,1.185,2.111,2.252,1.805c0.499-0.143,0.833-0.457,0.999-0.943c0.168-0.486,0.149-1.079-0.051-1.78
		c-0.428-1.493-1.174-2.085-2.239-1.78c-0.487,0.14-0.818,0.449-0.996,0.93C92.937,115.379,92.948,115.97,93.148,116.666
		L93.148,116.666z M100.539,111.813c-0.287-0.065-0.546-0.051-0.774,0.041c-0.365,0.147-0.615,0.444-0.753,0.892
		c-0.136,0.447-0.11,0.906,0.081,1.38l1.346,3.33l-1.031,0.417l-2.347-5.809l1.031-0.417l0.375,0.927
		c0.097-0.842,0.517-1.413,1.257-1.712c0.185-0.075,0.464-0.151,0.837-0.226L100.539,111.813L100.539,111.813z M104.312,117.773
		l0.115-1.068c0.775,0.079,1.403-0.011,1.886-0.268c0.442-0.235,0.753-0.497,0.929-0.788c0.174-0.289,0.201-0.548,0.081-0.776
		c-0.238-0.448-0.681-0.499-1.329-0.155c-0.109,0.058-0.295,0.193-0.555,0.402c-0.26,0.208-0.471,0.357-0.631,0.442
		c-0.786,0.418-1.335,0.33-1.65-0.262c-0.097-0.181-0.093-0.396,0.012-0.641c0.106-0.247,0.277-0.475,0.513-0.685
		c-0.971,0.048-1.698-0.377-2.178-1.28c-0.307-0.578-0.361-1.167-0.164-1.767c0.198-0.601,0.593-1.057,1.186-1.372
		c0.543-0.289,1.029-0.405,1.453-0.343l0.179-0.85l0.962,0.264l-0.353,0.757c0.425,0.192,0.778,0.554,1.058,1.079
		c0.297,0.559,0.371,1.119,0.225,1.683c-0.146,0.564-0.487,1.023-1.022,1.378l-0.767,0.514c-0.092,0.062-0.2,0.168-0.329,0.317
		c-0.128,0.15-0.165,0.277-0.11,0.38c0.075,0.141,0.283,0.123,0.619-0.056c0.148-0.079,0.364-0.23,0.65-0.45
		c0.286-0.22,0.504-0.37,0.656-0.45c0.543-0.289,1.036-0.386,1.48-0.287c0.443,0.097,0.787,0.378,1.032,0.84
		c0.271,0.509,0.262,1.041-0.028,1.598c-0.29,0.556-0.785,1.019-1.484,1.39c-0.358,0.19-0.769,0.327-1.233,0.411
		C105.053,117.814,104.651,117.828,104.312,117.773L104.312,117.773z M103.014,110.309c-0.34,0.181-0.555,0.449-0.642,0.805
		c-0.087,0.356-0.039,0.706,0.144,1.049c0.205,0.386,0.479,0.65,0.822,0.793c0.342,0.142,0.692,0.119,1.046-0.07
		c0.347-0.185,0.553-0.452,0.619-0.804c0.065-0.349-0.007-0.724-0.22-1.125c-0.183-0.344-0.444-0.58-0.784-0.709
		C103.66,110.12,103.331,110.14,103.014,110.309L103.014,110.309z M111.547,110.688c-0.07,0.71-0.489,1.315-1.256,1.813
		c-0.414,0.269-0.868,0.349-1.365,0.248c-0.496-0.104-0.89-0.377-1.179-0.822c-0.346-0.533-0.404-1.135-0.178-1.806
		c0.226-0.671,0.701-1.241,1.424-1.711c0.196-0.127,0.447-0.228,0.749-0.305c-0.551-0.849-1.206-1.029-1.964-0.536
		c-0.583,0.378-0.931,0.825-1.039,1.344l-0.9-0.525c0.084-0.259,0.249-0.54,0.493-0.846c0.246-0.307,0.511-0.551,0.796-0.736
		c0.762-0.495,1.428-0.682,1.998-0.56c0.57,0.123,1.1,0.562,1.592,1.318l1.223,1.884c0.299,0.461,0.636,0.679,1.01,0.653
		l0.304,0.467c-0.38,0.247-0.699,0.375-0.956,0.39C112.04,110.975,111.79,110.883,111.547,110.688L111.547,110.688z
		 M110.174,108.768c-0.337,0.126-0.565,0.226-0.682,0.302c-0.471,0.306-0.776,0.678-0.916,1.111
		c-0.14,0.437-0.103,0.819,0.111,1.149c0.355,0.546,0.853,0.61,1.498,0.191c0.471-0.306,0.742-0.801,0.815-1.484L110.174,108.768
		L110.174,108.768z M117.094,107.187l-2.438-2.708c-0.446-0.495-0.833-0.776-1.162-0.84c-0.327-0.065-0.668,0.061-1.018,0.376
		c-0.189,0.17-0.334,0.405-0.439,0.704c-0.103,0.297-0.136,0.58-0.098,0.843l3.116,3.461l-0.825,0.743l-4.192-4.656l0.564-0.508
		l0.802,0.366c-0.14-0.704,0.1-1.333,0.717-1.889c1.019-0.918,2.088-0.757,3.205,0.483l2.595,2.881L117.094,107.187L117.094,107.187
		z M113.907,98.426c0.137-0.132,0.3-0.198,0.491-0.193c0.19,0.002,0.35,0.073,0.481,0.207c0.132,0.136,0.198,0.3,0.193,0.49
		c-0.002,0.191-0.074,0.352-0.21,0.484c-0.135,0.13-0.297,0.195-0.488,0.19c-0.189-0.003-0.352-0.074-0.483-0.21
		c-0.133-0.138-0.198-0.3-0.195-0.489C113.698,98.719,113.769,98.559,113.907,98.426L113.907,98.426z M119.466,105.059l-3.702-3.834
		l-0.619,0.598l-0.651-0.673l1.419-1.371l4.353,4.507L119.466,105.059L119.466,105.059z M120.934,103.053l-0.536-0.987
		c0.712-0.201,1.193-0.444,1.442-0.731c0.449-0.517,0.456-0.966,0.02-1.344c-0.312-0.271-0.797-0.254-1.455,0.052
		c-0.512,0.232-0.871,0.375-1.08,0.429c-0.207,0.055-0.412,0.081-0.613,0.078c-0.202-0.001-0.389-0.037-0.563-0.101
		c-0.173-0.066-0.334-0.163-0.485-0.294c-0.389-0.338-0.568-0.743-0.542-1.215c0.029-0.472,0.242-0.936,0.639-1.392
		c0.298-0.344,0.784-0.683,1.457-1.019l0.571,0.914c-0.555,0.103-0.978,0.322-1.269,0.656c-0.174,0.201-0.273,0.411-0.298,0.63
		c-0.024,0.22,0.036,0.391,0.181,0.517c0.303,0.263,0.681,0.291,1.138,0.082l0.794-0.363c0.488-0.221,0.911-0.324,1.272-0.304
		c0.362,0.019,0.703,0.169,1.026,0.45c0.424,0.368,0.628,0.805,0.609,1.312c-0.019,0.505-0.256,1.021-0.714,1.549
		C122.095,102.47,121.564,102.831,120.934,103.053L120.934,103.053z M126.155,96.153c0.201,0.684,0.039,1.402-0.485,2.151
		c-0.283,0.404-0.674,0.649-1.172,0.742c-0.499,0.089-0.966-0.016-1.401-0.321c-0.52-0.364-0.8-0.901-0.841-1.608
		c-0.041-0.707,0.185-1.413,0.68-2.12c0.134-0.191,0.329-0.379,0.58-0.564c-0.829-0.581-1.504-0.502-2.022,0.239
		c-0.399,0.569-0.553,1.114-0.46,1.635l-1.031-0.149c-0.019-0.272,0.028-0.594,0.14-0.97c0.113-0.377,0.268-0.702,0.462-0.98
		c0.521-0.744,1.069-1.168,1.643-1.268c0.575-0.1,1.231,0.109,1.97,0.626l1.84,1.288c0.45,0.315,0.844,0.392,1.181,0.228
		l0.456,0.319c-0.26,0.371-0.507,0.61-0.74,0.72C126.72,96.234,126.454,96.242,126.155,96.153L126.155,96.153z M124.163,94.887
		c-0.265,0.243-0.439,0.421-0.519,0.536c-0.322,0.46-0.466,0.919-0.433,1.374c0.033,0.457,0.211,0.799,0.533,1.024
		c0.533,0.373,1.02,0.246,1.461-0.384c0.322-0.46,0.388-1.02,0.2-1.681L124.163,94.887L124.163,94.887z M123.848,91.238
		l-0.363,0.629l-0.761-0.439l0.363-0.63l-1.134-0.655l0.185-1.175l1.504,0.869l0.861-1.491l0.761,0.439l-0.861,1.49l2.694,1.555
		c0.457,0.264,0.827,0.374,1.107,0.331c0.281-0.043,0.52-0.234,0.717-0.575c0.142-0.245,0.227-0.537,0.253-0.873l0.929,0.347
		c-0.129,0.456-0.33,0.923-0.605,1.399c-0.249,0.431-0.618,0.699-1.107,0.811c-0.491,0.111-0.978,0.025-1.464-0.255L123.848,91.238
		L123.848,91.238z M123.58,85.242c0.086-0.169,0.219-0.285,0.401-0.343c0.181-0.06,0.355-0.045,0.522,0.04
		c0.169,0.086,0.285,0.219,0.343,0.401c0.06,0.181,0.044,0.357-0.042,0.526c-0.085,0.167-0.217,0.281-0.399,0.339
		c-0.18,0.058-0.357,0.044-0.526-0.042c-0.171-0.087-0.285-0.219-0.344-0.399C123.478,85.586,123.493,85.412,123.58,85.242
		L123.58,85.242z M130.996,89.704l-4.748-2.419l-0.391,0.767l-0.835-0.425l0.896-1.758l5.583,2.845L130.996,89.704L130.996,89.704z
		 M129.211,86.41c-0.904-0.347-1.539-0.871-1.908-1.571c-0.368-0.697-0.399-1.445-0.095-2.237c0.322-0.839,0.838-1.385,1.548-1.643
		c0.711-0.258,1.54-0.205,2.486,0.159c0.943,0.362,1.596,0.884,1.959,1.567c0.363,0.681,0.388,1.43,0.074,2.246
		c-0.32,0.833-0.845,1.378-1.574,1.633C130.972,86.819,130.143,86.768,129.211,86.41L129.211,86.41z M129.63,85.317
		c1.467,0.563,2.399,0.324,2.797-0.712c0.186-0.485,0.136-0.94-0.152-1.365c-0.287-0.427-0.772-0.769-1.452-1.03
		c-1.45-0.557-2.372-0.318-2.769,0.717c-0.182,0.473-0.134,0.924,0.143,1.355C128.475,84.711,128.953,85.058,129.63,85.317
		L129.63,85.317z M135.691,77.416l-3.52-0.943c-0.644-0.173-1.121-0.197-1.432-0.071c-0.31,0.124-0.527,0.415-0.649,0.87
		c-0.066,0.245-0.059,0.522,0.016,0.829c0.075,0.306,0.201,0.56,0.377,0.761l4.498,1.205l-0.287,1.072l-6.052-1.621l0.196-0.733
		l0.872-0.13c-0.501-0.514-0.643-1.173-0.428-1.975c0.355-1.325,1.339-1.772,2.951-1.34l3.745,1.003L135.691,77.416L135.691,77.416z
		"/>
</g>
</svg>
