<svg xmlns="http://www.w3.org/2000/svg" viewBox="0 0 720.96 120.62"><title>kuublogo</title><path fill="#7a9e1a" d="M142.95 29.5h12.92v34.87l16.3-16.93h15.3l-17.76 17.3 19.76 29.77h-15.66l-12.93-21.03-5.01 4.82v16.21h-12.92V29.5z"/><path d="M232.22 94.51h-12.24v-6.56h-.27a16.8 16.8 0 0 1-14.44 7.86c-13.75 0-17.2-7.74-17.2-19.39V47.44h12.91v26.58c0 7.74 2.28 11.56 8.29 11.56 7 0 10-3.91 10-13.47V47.44h12.93zm48.76 0h-12.25v-6.56h-.27a16.8 16.8 0 0 1-14.39 7.86c-13.75 0-17.21-7.74-17.21-19.39V47.44h12.93v26.58c0 7.74 2.28 11.56 8.29 11.56 7 0 10-3.91 10-13.47V47.44h12.9zm4.76-65.01h12.93v23.67h.18c3.19-4.82 9-7 14.84-7 9.38 0 19.49 7.56 19.49 24.77s-10.11 24.87-19.49 24.87c-6.92 0-12.65-2.09-15.47-7.28h-.19v6h-12.29zm23.49 26.4c-7.65 0-11 7.2-11 15.12s3.36 15 11 15 11-7.19 11-15-3.37-15.12-11-15.12" fill="#7a9e1a"/><path d="M342.98 47.53h5.28v7.92h.27c3-5.65 7.92-9.29 15.39-9.29 6.19 0 11.74 3 13.47 9.2 2.83-6.19 8.74-9.2 14.94-9.2 10.28 0 15.56 5.37 15.56 16.48v31.87h-5.71v-31.6c0-7.73-2.92-11.92-11.11-11.92-9.92 0-12.75 8.19-12.75 16.93v26.59h-5.73V62.64c.09-6.37-2.55-11.65-9.83-11.65-9.93 0-13.94 7.46-14 17.3v26.22h-5.78zm73.55 14.38c.55-11 8.29-15.75 19-15.75 8.29 0 17.3 2.55 17.3 15.12v24.94c0 2.19 1.09 3.46 3.37 3.46a5.2 5.2 0 0 0 1.82-.37v4.83a15.88 15.88 0 0 1-3.73.37c-5.83 0-6.74-3.28-6.74-8.2h-.18c-4 6.1-8.11 9.56-17.12 9.56-8.65 0-15.75-4.28-15.75-13.75 0-13.2 12.84-13.65 25.22-15.11 4.74-.55 7.37-1.18 7.37-6.37 0-7.74-5.55-9.65-12.29-9.65-7.1 0-12.38 3.28-12.56 10.92zm30.59 6.9h-.14c-.73 1.37-3.28 1.82-4.82 2.1-9.75 1.73-21.85 1.63-21.85 10.83 0 5.74 5.09 9.29 10.47 9.29 8.74 0 16.47-5.56 16.38-14.75zm15.85-39.31h5.73v40.79l26.04-22.76h7.65l-20.03 17.39 21.39 29.59h-7.19l-18.57-25.59-9.29 7.74v17.85h-5.73V29.5z" fill="#a8a8a7"/><path d="M507.98 72.56c.09 8.38 4.46 18.49 15.48 18.49 8.37 0 12.93-4.92 14.75-12h5.77c-2.46 10.65-8.65 16.84-20.48 16.84-14.94 0-21.22-11.47-21.22-24.85 0-12.38 6.28-24.86 21.22-24.86 15.11 0 21.12 13.2 20.66 26.4zm30.41-4.82c-.28-8.65-5.65-16.75-14.93-16.75s-14.58 8.19-15.48 16.75zm12.46-38.24h5.73v65.01h-5.73zm14.51 32.41c.55-11 8.29-15.75 19-15.75 8.29 0 17.3 2.55 17.3 15.12v24.94c0 2.19 1.09 3.46 3.37 3.46a5.25 5.25 0 0 0 1.82-.37v4.83a15.93 15.93 0 0 1-3.73.37c-5.83 0-6.74-3.28-6.74-8.2h-.18c-4 6.1-8.11 9.56-17.12 9.56-8.65 0-15.75-4.28-15.75-13.75 0-13.2 12.84-13.65 25.22-15.11 4.73-.55 7.37-1.18 7.37-6.37 0-7.74-5.55-9.65-12.29-9.65-7.1 0-12.38 3.28-12.56 10.92zm30.62 6.9h-.18c-.73 1.37-3.28 1.82-4.83 2.1-9.74 1.73-21.84 1.63-21.84 10.83 0 5.74 5.09 9.29 10.46 9.29 8.74 0 16.48-5.56 16.39-14.75zm15.75-6.9c.55-11 8.28-15.75 19-15.75 8.28 0 17.3 2.55 17.3 15.12v24.94c0 2.19 1.09 3.46 3.36 3.46a5.26 5.26 0 0 0 1.83-.37v4.83a16 16 0 0 1-3.74.37c-5.82 0-6.73-3.28-6.73-8.2h-.19c-4 6.1-8.1 9.56-17.11 9.56-8.65 0-15.75-4.28-15.75-13.75 0-13.2 12.83-13.65 25.22-15.11 4.73-.55 7.37-1.18 7.37-6.37 0-7.74-5.55-9.65-12.29-9.65-7.1 0-12.38 3.28-12.56 10.92zm30.59 6.9h-.18c-.73 1.37-3.28 1.82-4.83 2.1-9.74 1.73-21.85 1.63-21.85 10.83 0 5.74 5.1 9.29 10.47 9.29 8.74 0 16.48-5.56 16.39-14.75zm15.84-21.28h5.28v11h.18c2.92-7.55 9.29-12 17.76-11.65v5.74c-10.38-.55-17.48 7.1-17.48 16.84v25h-5.74zm55.43 13.75c-.27-7.11-5.74-10.29-12.29-10.29-5.1 0-11.11 2-11.11 8.1 0 5.1 5.83 6.92 9.74 7.92l7.65 1.73c6.55 1 13.38 4.83 13.38 13 0 10.2-10.1 14.11-18.84 14.11-10.93 0-18.39-5.1-19.31-16.57h5.74c.46 7.74 6.19 11.75 13.84 11.75 5.37 0 12.84-2.37 12.84-8.93 0-5.46-5.1-7.28-10.29-8.55l-7.38-1.64c-7.46-2-13.11-4.55-13.11-12.57 0-9.56 9.38-13.2 17.67-13.2 9.37 0 16.84 4.92 17.2 15.12z" fill="#a8a8a7"/><path fill="#7a9e1a" d="M72.374 96.5L96.5 72.374 120.627 96.5 96.5 120.627z"/><path fill="#95c11f" d="M48.249 72.37l24.126-24.126L96.502 72.37 72.375 96.497z"/><path fill="#878787" d="M24.128 48.25l24.126-24.126L72.381 48.25 48.254 72.377z"/><path fill="#a8a8a7" d="M0 72.368l24.127-24.126 24.127 24.126-24.127 24.127z"/><path fill="#d3d800" d="M72.376 48.252l24.126-24.126 24.127 24.126L96.502 72.38z"/><path fill="#646363" d="M-.007 24.12L24.119-.006 48.246 24.12 24.119 48.247z"/></svg>