<svg width="362" height="34" viewBox="0 0 362 34" fill="none" xmlns="http://www.w3.org/2000/svg">
<g clip-path="url(#clip0_103_943)">
<path d="M0 26.641H3.238V11.241H0V26.641Z" fill="#423D85"/>
<path d="M8.09521 26.641H11.3332V11.241H8.09521V26.641Z" fill="#FFFF00"/>
<path d="M16.1899 26.641H19.4279V11.241H16.1899V26.641Z" fill="#FFFF00"/>
<path d="M93.9049 27.617V34.001C94.6485 33.9551 95.3811 33.799 96.0789 33.538C96.8627 33.2528 97.5624 32.7756 98.1139 32.15C98.6254 31.559 99.004 30.865 99.2239 30.115C99.4512 29.3015 99.5603 28.4595 99.5479 27.615V8.836H93.9479V27.617H93.9049ZM99.7799 4.99701C99.9693 4.60826 100.065 4.18037 100.058 3.74799C100.06 3.29965 99.9655 2.85613 99.7799 2.448C99.604 2.04903 99.3527 1.68776 99.0399 1.384C98.7175 1.08411 98.3407 0.848551 97.9299 0.690002C97.4977 0.54221 97.0447 0.464245 96.5879 0.459015C96.1448 0.463728 95.7055 0.541771 95.2879 0.690002C94.9003 0.866377 94.5416 1.10036 94.2239 1.384C93.9111 1.68775 93.6598 2.04902 93.4839 2.448C93.2983 2.85613 93.2035 3.29965 93.2059 3.74799C93.1993 4.18037 93.2945 4.60826 93.4839 4.99701C93.6607 5.38198 93.9123 5.72801 94.2239 6.01501C94.5415 6.29867 94.9003 6.53265 95.2879 6.70901C95.696 6.8946 96.1396 6.98943 96.5879 6.987C97.0497 6.9887 97.5068 6.89404 97.9299 6.70901C98.3317 6.53302 98.7057 6.29922 99.0399 6.01501C99.3413 5.71905 99.5914 5.37502 99.7799 4.99701ZM115.045 18.227C115.134 19.674 114.814 21.117 114.12 22.39C113.809 22.8416 113.384 23.2033 112.889 23.4389C112.393 23.6745 111.845 23.7755 111.298 23.732C110.738 23.7755 110.176 23.675 109.666 23.4401C109.156 23.2052 108.715 22.8437 108.384 22.39C107.69 21.117 107.37 19.674 107.459 18.227C107.362 16.7941 107.684 15.3639 108.384 14.11C108.735 13.69 109.173 13.3521 109.669 13.1202C110.164 12.8884 110.705 12.7682 111.252 12.7682C111.799 12.7682 112.339 12.8884 112.835 13.1202C113.331 13.3521 113.769 13.69 114.12 14.11C114.847 15.3533 115.171 16.792 115.045 18.227ZM120.133 22.205C120.61 20.9176 120.846 19.553 120.827 18.18C120.85 16.822 120.614 15.472 120.133 14.202C119.708 13.0722 119.045 12.0469 118.19 11.195C117.34 10.3473 116.313 9.69839 115.183 9.29501C113.941 8.83304 112.622 8.61308 111.297 8.647C109.959 8.64003 108.63 8.85912 107.365 9.29501C106.235 9.72665 105.198 10.3717 104.312 11.195C103.452 12.0526 102.776 13.0755 102.323 14.202C101.845 15.4731 101.61 16.8223 101.629 18.18C101.61 19.553 101.845 20.9176 102.323 22.205C102.747 23.3599 103.427 24.4038 104.312 25.258C105.181 26.114 106.221 26.7762 107.365 27.201C108.62 27.6786 109.954 27.9141 111.297 27.895C112.625 27.9143 113.944 27.6787 115.183 27.201C116.307 26.7645 117.33 26.1033 118.19 25.258C119.046 24.389 119.708 23.3485 120.133 22.205ZM136.37 27.571H139.839V8.836H134.239V22.163C133.767 22.5902 133.238 22.9484 132.666 23.227C132.133 23.486 131.546 23.6129 130.954 23.597C130.609 23.6265 130.262 23.5749 129.941 23.4464C129.62 23.318 129.333 23.1161 129.104 22.857C128.644 22.2461 128.415 21.4925 128.456 20.729V8.836H122.856V20.724C122.848 21.6956 122.988 22.6627 123.272 23.592C123.528 24.4253 123.954 25.197 124.521 25.859C125.056 26.5048 125.738 27.0124 126.51 27.339C127.9 27.919 129.437 28.0485 130.905 27.709C131.391 27.5825 131.87 27.4279 132.339 27.246C132.775 27.034 133.193 26.7865 133.588 26.506C133.958 26.228 134.328 25.906 134.698 25.581L135.022 26.645C135.102 26.9316 135.281 27.181 135.526 27.3499C135.771 27.5189 136.067 27.5967 136.364 27.57M170.549 8.83499H166.293C165.962 8.82067 165.636 8.91865 165.368 9.11301C165.109 9.2743 164.913 9.51916 164.813 9.80701L162.824 18.226C162.639 18.874 162.5 19.526 162.361 20.126C162.222 20.726 162.13 21.326 162.037 21.926C161.898 21.326 161.713 20.726 161.574 20.126C161.389 19.526 161.204 18.926 161.019 18.276L158.799 9.85699C158.698 9.56915 158.503 9.32428 158.244 9.16299C157.941 8.96832 157.586 8.87131 157.226 8.88501H154.726C154.395 8.87069 154.069 8.96864 153.801 9.16299C153.542 9.32428 153.346 9.56915 153.246 9.85699L150.887 18.276C150.702 18.924 150.471 19.525 150.332 20.126C150.147 20.726 150.008 21.326 149.823 21.926C149.73 21.326 149.638 20.726 149.499 20.126C149.36 19.526 149.221 18.926 149.083 18.276L147.183 9.85699C147.082 9.56915 146.887 9.32428 146.628 9.16299C146.325 8.96838 145.97 8.87137 145.61 8.88501H141.123L146.952 27.62H151.311C151.587 27.6298 151.859 27.5428 152.078 27.3739C152.297 27.205 152.45 26.9649 152.511 26.695L155.24 17.395C155.379 16.979 155.471 16.562 155.61 16.146L155.888 14.897L156.166 16.146C156.268 16.5684 156.391 16.9852 156.536 17.395L159.219 26.739C159.29 27.018 159.434 27.2732 159.635 27.479C159.803 27.6217 160.015 27.7031 160.235 27.71H164.768L170.549 8.83499Z" fill="#E6007E"/>
<path d="M204.416 8.83601H198.816V27.571H204.416V8.83601ZM190.169 27.57H195.769V15.682C195.781 14.7253 195.64 13.7727 195.353 12.86C195.097 12.0267 194.671 11.255 194.104 10.593C193.557 9.9609 192.878 9.45585 192.115 9.11302C190.725 8.53296 189.188 8.40356 187.72 8.74302C187.228 8.84826 186.747 9.00338 186.286 9.206C185.845 9.40758 185.426 9.65567 185.037 9.94602C184.667 10.224 184.297 10.546 183.927 10.871L183.603 9.80702C183.514 9.51611 183.328 9.26495 183.074 9.09629C182.821 8.92763 182.518 8.85189 182.215 8.882H178.789V27.617H184.389V14.248C184.861 13.8208 185.39 13.4626 185.962 13.184C186.495 12.925 187.082 12.7981 187.674 12.814C188.022 12.7922 188.371 12.8518 188.692 12.9883C189.013 13.1247 189.298 13.3342 189.524 13.6C189.984 14.2109 190.213 14.9645 190.172 15.728L190.169 27.57ZM204.74 4.99601C204.929 4.60726 205.025 4.1794 205.018 3.74702C205.02 3.29868 204.926 2.85513 204.74 2.447C204.564 2.04804 204.313 1.68678 204 1.383C203.678 1.08311 203.301 0.847553 202.89 0.689004C202.464 0.519086 202.007 0.440407 201.548 0.458016C201.105 0.462729 200.666 0.540773 200.248 0.689004C199.86 0.865378 199.502 1.09936 199.184 1.383C198.871 1.68678 198.62 2.04804 198.444 2.447C198.258 2.85513 198.164 3.29868 198.166 3.74702C198.159 4.1794 198.255 4.60726 198.444 4.99601C198.621 5.38098 198.872 5.72701 199.184 6.01402C199.502 6.29766 199.86 6.53164 200.248 6.70802C200.656 6.8936 201.1 6.98843 201.548 6.986C202.01 6.98771 202.467 6.89304 202.89 6.70802C203.292 6.53203 203.666 6.29822 204 6.01402C204.301 5.71805 204.552 5.37402 204.74 4.99601ZM219.265 15.963H212.28C212.391 14.9792 212.811 14.0559 213.48 13.326C213.813 13.0108 214.206 12.7663 214.635 12.6073C215.065 12.4483 215.522 12.3781 215.98 12.401C216.508 12.377 217.034 12.4885 217.507 12.725C217.902 12.9066 218.25 13.1753 218.525 13.511C218.8 13.829 218.99 14.2105 219.08 14.621C219.184 15.0612 219.246 15.5102 219.265 15.962M224.215 18.182C224.257 17.8444 224.272 17.504 224.261 17.164C224.288 15.9344 224.085 14.7106 223.661 13.556C223.285 12.5513 222.702 11.637 221.949 10.873C221.204 10.1298 220.303 9.5612 219.312 9.20802C218.212 8.82558 217.054 8.63778 215.889 8.65302C214.571 8.62101 213.262 8.8734 212.05 9.39301C210.954 9.85251 209.963 10.5291 209.136 11.382C208.32 12.2296 207.69 13.2381 207.286 14.343C206.858 15.4818 206.639 16.6884 206.638 17.905C206.6 19.3887 206.851 20.8655 207.378 22.253C207.84 23.4266 208.532 24.4962 209.413 25.399C210.27 26.2369 211.295 26.8844 212.42 27.299C213.606 27.7311 214.858 27.9504 216.12 27.947C216.801 27.9436 217.48 27.8972 218.155 27.808C218.882 27.7213 219.596 27.5505 220.283 27.299C221.01 27.0524 221.709 26.7268 222.365 26.328C223.056 25.8796 223.679 25.3344 224.215 24.709L222.596 22.72C222.484 22.5555 222.331 22.4225 222.153 22.3334C221.975 22.2443 221.777 22.2022 221.578 22.211C221.242 22.2216 220.912 22.3001 220.607 22.442C220.283 22.581 219.959 22.766 219.589 22.951C219.188 23.1564 218.77 23.3267 218.34 23.46C217.799 23.6177 217.238 23.6955 216.675 23.691C215.588 23.7314 214.527 23.3502 213.714 22.627C212.834 21.6994 212.324 20.4818 212.28 19.204H223.058C223.262 19.2029 223.464 19.1716 223.658 19.111C223.738 19.084 223.812 19.0414 223.875 18.9858C223.939 18.9303 223.991 18.8627 224.028 18.787C224.124 18.599 224.186 18.3961 224.213 18.187M239.895 27.577H243.364V8.83601H237.764V22.163C237.293 22.5902 236.763 22.9484 236.191 23.227C235.658 23.486 235.071 23.6129 234.479 23.597C234.134 23.6265 233.788 23.5749 233.466 23.4464C233.145 23.318 232.858 23.1161 232.629 22.857C232.169 22.2462 231.94 21.4925 231.981 20.729V8.83601H226.381V20.724C226.373 21.6956 226.513 22.6627 226.797 23.592C227.054 24.4253 227.479 25.197 228.046 25.859C228.581 26.5048 229.263 27.0124 230.035 27.339C231.425 27.9191 232.962 28.0485 234.43 27.709C234.923 27.6038 235.403 27.4486 235.864 27.246C236.3 27.034 236.718 26.7865 237.113 26.506C237.483 26.228 237.853 25.906 238.223 25.581L238.547 26.645C238.628 26.9316 238.806 27.181 239.051 27.35C239.296 27.5189 239.593 27.5968 239.889 27.57M268.245 27.57L274.074 8.835H269.818C269.487 8.82068 269.161 8.91866 268.893 9.11302C268.634 9.2743 268.439 9.51917 268.338 9.80702L266.349 18.226C266.164 18.874 266.025 19.526 265.886 20.126C265.747 20.726 265.655 21.326 265.562 21.926C265.423 21.326 265.238 20.726 265.099 20.126C264.914 19.526 264.729 18.926 264.544 18.276L262.324 9.857C262.224 9.56916 262.028 9.32429 261.769 9.163C261.466 8.96833 261.111 8.87131 260.751 8.88502H258.251C257.92 8.87069 257.594 8.96865 257.326 9.163C257.067 9.32429 256.872 9.56916 256.771 9.857L254.412 18.276C254.227 18.924 253.996 19.525 253.857 20.126C253.718 20.727 253.533 21.326 253.348 21.926C253.255 21.326 253.163 20.726 253.024 20.126C252.885 19.526 252.746 18.926 252.608 18.276L250.708 9.857C250.608 9.56916 250.412 9.32429 250.153 9.163C249.85 8.96833 249.495 8.87131 249.135 8.88502H244.648L250.477 27.62H254.825C255.102 27.6298 255.373 27.5428 255.592 27.3739C255.811 27.205 255.964 26.9649 256.025 26.695L258.754 17.395C258.893 16.979 258.985 16.562 259.124 16.146L259.402 14.897L259.68 16.146C259.782 16.5684 259.906 16.9852 260.05 17.395L262.733 26.739C262.804 27.018 262.948 27.2732 263.149 27.479C263.317 27.6217 263.529 27.7031 263.749 27.71H268.236L268.245 27.57ZM286.479 15.963H279.489C279.6 14.9792 280.02 14.0559 280.689 13.326C281.022 13.0108 281.415 12.7663 281.844 12.6073C282.274 12.4483 282.731 12.3781 283.189 12.401C283.717 12.377 284.243 12.4885 284.716 12.725C285.111 12.9065 285.459 13.1753 285.734 13.511C286.009 13.8289 286.199 14.2105 286.289 14.621C286.415 15.0567 286.478 15.5084 286.474 15.962M291.516 17.162C291.543 15.9324 291.34 14.7086 290.916 13.554C290.54 12.5493 289.957 11.6351 289.204 10.871C288.459 10.1279 287.558 9.55922 286.567 9.206C285.467 8.82357 284.309 8.63577 283.144 8.65101C281.826 8.619 280.517 8.87138 279.305 9.391C278.209 9.85049 277.218 10.5271 276.391 11.38C275.575 12.2276 274.945 13.2361 274.541 14.341C274.113 15.4798 273.894 16.6864 273.893 17.903C273.855 19.3867 274.106 20.8635 274.633 22.251C275.095 23.4247 275.787 24.4942 276.668 25.397C277.525 26.235 278.55 26.8824 279.675 27.297C280.861 27.729 282.113 27.9484 283.375 27.945C284.056 27.9417 284.735 27.8952 285.41 27.806C286.137 27.7193 286.851 27.5485 287.538 27.297C288.265 27.0504 288.964 26.7248 289.62 26.326C290.311 25.8776 290.934 25.3324 291.47 24.707L289.851 22.718C289.739 22.5535 289.586 22.4204 289.408 22.3314C289.23 22.2423 289.032 22.2002 288.833 22.209C288.497 22.2196 288.167 22.2982 287.862 22.44C287.538 22.579 287.214 22.764 286.844 22.949C286.443 23.1544 286.025 23.3247 285.595 23.458C285.054 23.6157 284.493 23.6935 283.93 23.689C282.843 23.7294 281.782 23.3482 280.969 22.625C280.089 21.6973 279.579 20.4798 279.535 19.202H290.313C290.517 19.2009 290.719 19.1696 290.913 19.109C290.993 19.082 291.067 19.0395 291.13 18.9839C291.194 18.9283 291.246 18.8607 291.283 18.785C291.405 18.5911 291.47 18.3662 291.468 18.137C291.468 17.906 291.514 17.582 291.514 17.166" fill="#960E6D"/>
<path d="M345.411 8.88199H339.811V27.617H345.411V8.88199ZM311.087 27.617H316.687V15.728C316.699 14.7712 316.558 13.8187 316.271 12.906C316.015 12.0727 315.589 11.301 315.022 10.639C314.475 10.0068 313.796 9.50174 313.033 9.159C312.175 8.77571 311.243 8.58619 310.304 8.60397C309.334 8.57698 308.37 8.7666 307.482 9.159C306.699 9.52242 305.967 9.98925 305.308 10.547V9.11298V6.33698C305.323 5.50803 305.214 4.68148 304.984 3.88498C304.768 3.10594 304.371 2.38931 303.824 1.79416C303.277 1.19901 302.596 0.742392 301.838 0.461975C301.142 0.19604 300.408 0.0398633 299.664 -0.00100708V9.06598V27.616H305.264V14.248C305.736 13.8208 306.265 13.4626 306.837 13.184C307.369 12.9252 307.956 12.7983 308.548 12.814C308.896 12.7922 309.245 12.8518 309.566 12.9883C309.887 13.1247 310.172 13.3342 310.398 13.6C310.858 14.2108 311.087 14.9645 311.046 15.728V27.616L311.087 27.617ZM333.06 27.617H336.529V8.88199H330.929V22.2C330.46 22.628 329.932 22.9876 329.362 23.268C328.829 23.5269 328.242 23.6539 327.65 23.638C327.305 23.6675 326.958 23.6159 326.637 23.4874C326.316 23.3589 326.029 23.1571 325.8 22.898C325.34 22.2871 325.111 21.5335 325.152 20.77V8.88199H319.552V20.77C319.544 21.7416 319.684 22.7087 319.968 23.638C320.225 24.4713 320.65 25.243 321.217 25.905C321.752 26.5507 322.434 27.0583 323.206 27.385C324.596 27.965 326.133 28.0944 327.601 27.755C328.094 27.6497 328.574 27.4946 329.035 27.292C329.476 27.0904 329.895 26.8423 330.284 26.552C330.654 26.274 331.024 25.952 331.394 25.627L331.718 26.691C331.799 26.9774 331.977 27.2267 332.222 27.3956C332.466 27.5645 332.763 27.6425 333.059 27.616M345.734 4.996C345.924 4.60727 346.019 4.17936 346.012 3.74698C346.014 3.29866 345.919 2.85518 345.734 2.44699C345.558 2.04803 345.307 1.68677 344.994 1.383C344.672 1.08314 344.295 0.847588 343.884 0.688995C343.458 0.519049 343.001 0.440338 342.542 0.457977C342.099 0.462691 341.66 0.540764 341.242 0.688995C340.854 0.865383 340.496 1.09936 340.178 1.383C339.865 1.68677 339.614 2.04803 339.438 2.44699C339.253 2.8552 339.158 3.29871 339.161 3.74698C339.154 4.17928 339.249 4.60717 339.438 4.996C339.615 5.38097 339.866 5.72697 340.178 6.01398C340.496 6.29762 340.854 6.5316 341.242 6.70798C341.65 6.89356 342.094 6.98842 342.542 6.98599C343.004 6.98767 343.461 6.89297 343.884 6.70798C344.286 6.53191 344.66 6.29811 344.994 6.01398C345.316 5.73621 345.569 5.38783 345.734 4.996ZM360.583 12.996L361.832 11.007C361.474 10.6341 361.071 10.3079 360.632 10.036C360.143 9.73717 359.632 9.47449 359.105 9.25C358.534 9.03179 357.946 8.86154 357.347 8.741C356.708 8.61072 356.056 8.54871 355.404 8.556C354.306 8.52714 353.212 8.68365 352.166 9.01898C351.315 9.29016 350.527 9.73257 349.853 10.319C349.261 10.8466 348.788 11.4943 348.465 12.219C348.148 12.9321 347.99 13.7057 348.002 14.486C347.992 15.2271 348.118 15.9638 348.372 16.66C348.602 17.223 348.931 17.7402 349.343 18.187C349.754 18.5917 350.222 18.9346 350.731 19.205C351.249 19.4833 351.791 19.7155 352.35 19.899C352.905 20.084 353.414 20.269 353.969 20.408C354.444 20.542 354.908 20.7122 355.357 20.917C355.714 21.0569 356.043 21.2602 356.328 21.517C356.448 21.639 356.542 21.7836 356.606 21.9424C356.669 22.1012 356.701 22.271 356.698 22.442C356.696 22.6497 356.649 22.8545 356.559 23.042C356.461 23.2413 356.319 23.4155 356.143 23.551C355.922 23.7198 355.671 23.8454 355.403 23.921C355.042 24.0215 354.668 24.0683 354.293 24.06C353.775 24.0655 353.26 23.9874 352.767 23.829C352.398 23.7115 352.041 23.5563 351.703 23.366C351.379 23.181 351.103 23.042 350.87 22.903C350.6 22.7565 350.298 22.6773 349.991 22.672C349.687 22.6514 349.382 22.7154 349.112 22.857C348.884 22.993 348.693 23.1838 348.557 23.412L347.257 25.494C347.655 25.8499 348.091 26.1601 348.557 26.419C349.095 26.7019 349.651 26.9491 350.222 27.159C350.822 27.344 351.422 27.529 352.072 27.668C352.697 27.7963 353.334 27.8583 353.972 27.853C355.115 27.881 356.256 27.7247 357.349 27.39C358.242 27.1184 359.075 26.677 359.801 26.09C360.449 25.5276 360.969 24.8339 361.328 24.055C361.665 23.2492 361.838 22.3844 361.837 21.511C361.844 20.8452 361.718 20.1847 361.467 19.568C361.253 19.0375 360.921 18.5627 360.496 18.18C360.072 17.8046 359.606 17.4788 359.108 17.209C358.599 16.931 358.044 16.746 357.535 16.515C356.98 16.33 356.471 16.145 355.962 16.006C355.487 15.8719 355.023 15.7018 354.574 15.497C354.217 15.3571 353.888 15.1538 353.603 14.897C353.484 14.7841 353.389 14.6477 353.326 14.4963C353.262 14.345 353.23 14.1821 353.233 14.018C353.222 13.8008 353.268 13.5846 353.365 13.3901C353.462 13.1956 353.608 13.0296 353.788 12.908C354.27 12.6016 354.837 12.4559 355.407 12.492C355.848 12.4745 356.288 12.5372 356.707 12.677C357.058 12.7646 357.4 12.8886 357.725 13.047C358.049 13.186 358.325 13.325 358.604 13.417C358.854 13.522 359.12 13.5845 359.39 13.602C359.599 13.6107 359.806 13.5626 359.99 13.463C360.211 13.3386 360.414 13.1826 360.59 13" fill="#E6007E"/>
<path d="M8.09521 26.641H11.3332V11.241H8.09521V26.641Z" fill="#960E6D"/>
<path d="M16.1899 26.641H19.4279V11.241H16.1899V26.641Z" fill="#E6007E"/>
<path d="M24.2861 26.641H27.5241V11.241H24.2861V26.641Z" fill="#960E6D"/>
<path d="M32.3809 26.641H35.6189V11.241H32.3809V26.641Z" fill="#423D85"/>
<path d="M40.4761 26.641H43.7141V11.241H40.4761V26.641Z" fill="#960E6D"/>
<path d="M48.5708 26.641H51.8088V11.241H48.5708V26.641Z" fill="#E6007E"/>
<path d="M56.667 26.641H59.905V11.241H56.667V26.641Z" fill="#960E6D"/>
<path d="M64.7622 26.641H68.0002V11.241H64.7622V26.641Z" fill="#423D85"/>
<path d="M72.8569 26.641H76.0949V11.241H72.8569V26.641Z" fill="#960E6D"/>
</g>
<defs>
<clipPath id="clip0_103_943">
<rect width="361.833" height="34" fill="white"/>
</clipPath>
</defs>
</svg>
