<svg xmlns="http://www.w3.org/2000/svg" viewBox="0 0 156.9 17.9"><path d="M16.6 4.5c-2.5-1.3-5.1-1.9-7.7-1.9-1.7 0-3.1.2-4 .6-.9.4-1.3 1-1.3 1.7S4 6.2 5 6.5c.7.3 1.9.4 3.5.5 2.3.2 3.9.3 4.6.4 2.1.3 3.7.8 4.7 1.6s1.5 1.8 1.5 3.2c0 1.8-.8 3.2-2.4 4.2-1.6 1-3.9 1.5-6.8 1.5-4.3 0-7.7-1-10.1-2.8l1.5-2c2.6 1.6 5.5 2.4 8.6 2.4 2 0 3.5-.3 4.6-.8 1-.5 1.6-1.3 1.6-2.2 0-1.1-.7-1.8-2.1-2.1-.7-.2-2.6-.4-5.8-.6-2.8-.3-4.7-.7-5.9-1.3-1.3-.7-2-1.8-2-3.3 0-1.6.7-2.8 2.2-3.8C4.2.5 6.3 0 9 0c3.6 0 6.7.8 9.2 2.5l-1.6 2zm21-4l-7.1 7.9L23.3.5h-3.5L29 10.8v6.7h2.8v-6.7L41.1.5zm27.5 0v13.9L52.2.5h-3.5v17h2.8V3.6l12.9 13.9h3.5V.5zm7.3 0v17h17.7v-2.6H75.2v-5h9.9V7.4h-9.9V3.1h14.2V.5zm39.9 16.9H109l-4.6-6.4H96v6.4h-2.8V.5h13.3c1.8 0 3.2.5 4.2 1.4 1 1 1.5 2.3 1.5 3.9 0 1.4-.4 2.6-1.2 3.5-.8.8-1.8 1.3-3.2 1.5l4.5 6.6zm-6.2-8.9c2.2 0 3.2-.9 3.2-2.6 0-1.9-1.2-2.8-3.5-2.8H96v5.4h10.1zm30.2.2c0 2.8-1 5-3 6.7-2 1.7-4.6 2.5-7.8 2.5-3 0-5.5-.8-7.5-2.3-2.3-1.7-3.4-3.9-3.4-6.7 0-2.7 1.1-4.9 3.4-6.7 2-1.5 4.6-2.3 7.6-2.3 3.7 0 6.8 1.4 9.2 4.1l-2.6 1.3c-1.8-1.9-4-2.8-6.8-2.8-2.1 0-3.9.5-5.4 1.6-1.7 1.2-2.5 2.8-2.5 4.8 0 1.9.7 3.4 2.2 4.6 1.4 1.2 3.4 1.8 5.7 1.8 3.7 0 6.2-1.5 7.3-4.4h-7.9V8.5h11.4v.2zm11.5-.3L140.7.5h-3.5l9.2 10.3v6.6h2.8v-6.6l7.7-8.5L155 .5z"/><path d="M37.2 7.6h8.2v2.5h-8.2z"/></svg>