<?xml version="1.0" encoding="UTF-8"?> <!-- Generator: Adobe Illustrator 20.0.0, SVG Export Plug-In . SVG Version: 6.00 Build 0) --> <svg xmlns="http://www.w3.org/2000/svg" xmlns:xlink="http://www.w3.org/1999/xlink" version="1.1" id="Laag_1" x="0px" y="0px" viewBox="0 0 189.1 121.2" style="enable-background:new 0 0 189.1 121.2;" xml:space="preserve"> <style type="text/css"> .st0{fill:url(#SVGID_1_);stroke:#FFFFFF;stroke-width:2;stroke-miterlimit:10;} .st1{fill:url(#SVGID_2_);stroke:#FFFFFF;stroke-width:2;stroke-miterlimit:10;} .st2{fill:url(#SVGID_3_);stroke:#FFFFFF;stroke-width:2;stroke-miterlimit:10;} .st3{fill:url(#SVGID_4_);stroke:#FFFFFF;stroke-width:2;stroke-miterlimit:10;} .st4{fill:url(#SVGID_5_);stroke:#FFFFFF;stroke-width:2;stroke-miterlimit:10;} .st5{fill:url(#SVGID_6_);stroke:#FFFFFF;stroke-width:2;stroke-miterlimit:10;} .st6{fill:url(#SVGID_7_);stroke:#FFFFFF;stroke-width:2;stroke-miterlimit:10;} .st7{fill:url(#SVGID_8_);stroke:#FFFFFF;stroke-width:2;stroke-miterlimit:10;} .st8{fill:url(#SVGID_9_);stroke:#FFFFFF;stroke-width:2;stroke-miterlimit:10;} .st9{fill:url(#SVGID_10_);stroke:#FFFFFF;stroke-width:2;stroke-miterlimit:10;} .st10{fill:url(#SVGID_11_);stroke:#FFFFFF;stroke-width:2;stroke-miterlimit:10;} .st11{fill:url(#SVGID_12_);stroke:#FFFFFF;stroke-width:2;stroke-miterlimit:10;} .st12{fill:url(#SVGID_13_);stroke:#FFFFFF;stroke-width:2;stroke-miterlimit:10;} .st13{fill:url(#SVGID_14_);stroke:#FFFFFF;stroke-width:2;stroke-miterlimit:10;} .st14{fill:url(#SVGID_15_);stroke:#FFFFFF;stroke-width:2;stroke-miterlimit:10;} .st15{fill:url(#SVGID_16_);stroke:#FFFFFF;stroke-width:2;stroke-miterlimit:10;} .st16{fill:url(#SVGID_17_);stroke:#FFFFFF;stroke-width:2;stroke-miterlimit:10;} .st17{fill:url(#SVGID_18_);stroke:#FFFFFF;stroke-width:2;stroke-miterlimit:10;} .st18{fill:url(#SVGID_19_);stroke:#FFFFFF;stroke-width:2;stroke-miterlimit:10;} .st19{fill:url(#SVGID_20_);stroke:#FFFFFF;stroke-width:2;stroke-miterlimit:10;} .st20{fill:url(#SVGID_21_);stroke:#FFFFFF;stroke-width:2;stroke-miterlimit:10;} .st21{fill:url(#SVGID_22_);stroke:#FFFFFF;stroke-width:2;stroke-miterlimit:10;} .st22{fill:url(#SVGID_23_);stroke:#FFFFFF;stroke-width:2;stroke-miterlimit:10;} .st23{fill:url(#SVGID_24_);stroke:#FFFFFF;stroke-width:2;stroke-miterlimit:10;} .st24{fill:url(#SVGID_25_);stroke:#FFFFFF;stroke-width:2;stroke-miterlimit:10;} .st25{fill:url(#SVGID_26_);stroke:#FFFFFF;stroke-width:2;stroke-miterlimit:10;} .st26{fill:url(#SVGID_27_);stroke:#FFFFFF;stroke-width:2;stroke-miterlimit:10;} .st27{fill:url(#SVGID_28_);stroke:#FFFFFF;stroke-width:2;stroke-miterlimit:10;} .st28{fill:url(#SVGID_29_);stroke:#FFFFFF;stroke-width:2;stroke-miterlimit:10;} .st29{fill:url(#SVGID_30_);stroke:#FFFFFF;stroke-width:2;stroke-miterlimit:10;} .st30{fill:url(#SVGID_31_);stroke:#FFFFFF;stroke-width:2;stroke-miterlimit:10;} .st31{fill:url(#SVGID_32_);stroke:#FFFFFF;stroke-width:2;stroke-miterlimit:10;} .st32{fill:url(#SVGID_33_);stroke:#FFFFFF;stroke-width:2;stroke-miterlimit:10;} .st33{fill:url(#SVGID_34_);stroke:#FFFFFF;stroke-width:2;stroke-miterlimit:10;} .st34{fill:url(#SVGID_35_);stroke:#FFFFFF;stroke-width:2;stroke-miterlimit:10;} .st35{fill:url(#SVGID_36_);stroke:#FFFFFF;stroke-width:2;stroke-miterlimit:10;} .st36{fill:url(#SVGID_37_);stroke:#FFFFFF;stroke-width:2;stroke-miterlimit:10;} .st37{fill:url(#SVGID_38_);stroke:#FFFFFF;stroke-width:2;stroke-miterlimit:10;} .st38{fill:url(#SVGID_39_);stroke:#FFFFFF;stroke-width:2;stroke-miterlimit:10;} .st39{fill:url(#SVGID_40_);stroke:#FFFFFF;stroke-width:2;stroke-miterlimit:10;} .st40{fill:url(#SVGID_41_);stroke:#FFFFFF;stroke-width:2;stroke-miterlimit:10;} .st41{fill:url(#SVGID_42_);} .st42{fill:url(#SVGID_43_);} .st43{fill:url(#SVGID_44_);} .st44{fill:url(#SVGID_45_);} .st45{fill:url(#SVGID_46_);} .st46{fill:url(#SVGID_47_);} .st47{fill:url(#SVGID_48_);} .st48{fill:url(#SVGID_49_);} .st49{fill:url(#SVGID_50_);} .st50{fill:url(#SVGID_51_);} .st51{fill:url(#SVGID_52_);} .st52{fill:url(#SVGID_53_);} .st53{fill:url(#SVGID_54_);} .st54{fill:url(#SVGID_55_);} .st55{fill:url(#SVGID_56_);} .st56{fill:url(#SVGID_57_);} .st57{fill:url(#SVGID_58_);} .st58{fill:url(#SVGID_59_);} .st59{fill:url(#SVGID_60_);} .st60{fill:url(#SVGID_61_);} .st61{fill:url(#SVGID_62_);} .st62{fill:url(#SVGID_63_);} .st63{fill:url(#SVGID_64_);} .st64{fill:url(#SVGID_65_);} .st65{fill:url(#SVGID_66_);} .st66{fill:url(#SVGID_67_);} .st67{fill:url(#SVGID_68_);} .st68{fill:url(#SVGID_69_);} .st69{fill:url(#SVGID_70_);} .st70{fill:url(#SVGID_71_);} .st71{fill:url(#SVGID_72_);} .st72{fill:url(#SVGID_73_);} .st73{fill:url(#SVGID_74_);} .st74{fill:url(#SVGID_75_);} .st75{fill:url(#SVGID_76_);} .st76{fill:url(#SVGID_77_);} .st77{fill:url(#SVGID_78_);} .st78{fill:url(#SVGID_79_);} .st79{fill:url(#SVGID_80_);} .st80{fill:url(#SVGID_81_);} .st81{fill:url(#SVGID_82_);} .st82{fill:#FFFFFF;} </style> <g> <radialGradient id="SVGID_1_" cx="82.1612" cy="73.9556" r="2.3851" gradientTransform="matrix(1 0 0 -1 0 124)" gradientUnits="userSpaceOnUse"> <stop offset="0" style="stop-color:#1D71B8"></stop> <stop offset="1" style="stop-color:#2D2E83"></stop> </radialGradient> <polygon class="st0" points="79.6,52.1 84.7,50.1 84.7,48.5 79.6,51 "></polygon> <radialGradient id="SVGID_2_" cx="82.1612" cy="71.7055" r="2.2321" gradientTransform="matrix(1 0 0 -1 0 124)" gradientUnits="userSpaceOnUse"> <stop offset="0" style="stop-color:#1D71B8"></stop> <stop offset="1" style="stop-color:#2D2E83"></stop> </radialGradient> <polygon class="st1" points="79.6,54 84.7,52.5 84.7,51 79.6,53 "></polygon> <radialGradient id="SVGID_3_" cx="82.1612" cy="69.6553" r="2.0986" gradientTransform="matrix(1 0 0 -1 0 124)" gradientUnits="userSpaceOnUse"> <stop offset="0" style="stop-color:#1D71B8"></stop> <stop offset="1" style="stop-color:#2D2E83"></stop> </radialGradient> <polygon class="st2" points="79.6,55.7 84.7,54.7 84.7,53.3 79.6,54.8 "></polygon> <radialGradient id="SVGID_4_" cx="82.1612" cy="82.073" r="3.1991" gradientTransform="matrix(1 0 0 -1 0 124)" gradientUnits="userSpaceOnUse"> <stop offset="0" style="stop-color:#1D71B8"></stop> <stop offset="1" style="stop-color:#2D2E83"></stop> </radialGradient> <polygon class="st3" points="79.6,45.5 84.7,41.8 84.7,39.3 79.6,43.8 "></polygon> <radialGradient id="SVGID_5_" cx="82.1612" cy="65.7301" r="1.9437" gradientTransform="matrix(1 0 0 -1 0 124)" gradientUnits="userSpaceOnUse"> <stop offset="0" style="stop-color:#1D71B8"></stop> <stop offset="1" style="stop-color:#2D2E83"></stop> </radialGradient> <polygon class="st4" points="79.6,59.1 84.7,58.9 84.7,57.6 79.6,58.2 "></polygon> <radialGradient id="SVGID_6_" cx="82.1612" cy="67.6635" r="2.0051" gradientTransform="matrix(1 0 0 -1 0 124)" gradientUnits="userSpaceOnUse"> <stop offset="0" style="stop-color:#1D71B8"></stop> <stop offset="1" style="stop-color:#2D2E83"></stop> </radialGradient> <polygon class="st5" points="79.6,57.4 84.7,56.8 84.7,55.5 79.6,56.5 "></polygon> <radialGradient id="SVGID_7_" cx="82.1612" cy="79.0894" r="2.8637" gradientTransform="matrix(1 0 0 -1 0 124)" gradientUnits="userSpaceOnUse"> <stop offset="0" style="stop-color:#1D71B8"></stop> <stop offset="1" style="stop-color:#2D2E83"></stop> </radialGradient> <polygon class="st6" points="79.6,47.9 84.7,44.9 84.7,42.7 79.6,46.5 "></polygon> <radialGradient id="SVGID_8_" cx="82.1612" cy="76.3642" r="2.5836" gradientTransform="matrix(1 0 0 -1 0 124)" gradientUnits="userSpaceOnUse"> <stop offset="0" style="stop-color:#1D71B8"></stop> <stop offset="1" style="stop-color:#2D2E83"></stop> </radialGradient> <polygon class="st7" points="79.6,50.1 84.7,47.6 84.7,45.8 79.6,48.9 "></polygon> <radialGradient id="SVGID_9_" cx="82.1612" cy="63.855" r="1.9061" gradientTransform="matrix(1 0 0 -1 0 124)" gradientUnits="userSpaceOnUse"> <stop offset="0" style="stop-color:#1D71B8"></stop> <stop offset="1" style="stop-color:#2D2E83"></stop> </radialGradient> <polygon class="st8" points="79.6,60.8 84.7,60.8 84.7,59.6 79.6,59.8 "></polygon> <radialGradient id="SVGID_10_" cx="111.8612" cy="73.9556" r="2.3851" gradientTransform="matrix(1 0 0 -1 0 124)" gradientUnits="userSpaceOnUse"> <stop offset="0" style="stop-color:#1D71B8"></stop> <stop offset="1" style="stop-color:#2D2E83"></stop> </radialGradient> <polygon class="st9" points="109.3,50.1 114.4,52.1 114.4,51 109.3,48.5 "></polygon> <radialGradient id="SVGID_11_" cx="111.8612" cy="71.7055" r="2.232" gradientTransform="matrix(1 0 0 -1 0 124)" gradientUnits="userSpaceOnUse"> <stop offset="0" style="stop-color:#1D71B8"></stop> <stop offset="1" style="stop-color:#2D2E83"></stop> </radialGradient> <polygon class="st10" points="109.3,52.5 114.4,54 114.4,53 109.3,51 "></polygon> <radialGradient id="SVGID_12_" cx="111.8612" cy="69.6553" r="2.0986" gradientTransform="matrix(1 0 0 -1 0 124)" gradientUnits="userSpaceOnUse"> <stop offset="0" style="stop-color:#1D71B8"></stop> <stop offset="1" style="stop-color:#2D2E83"></stop> </radialGradient> <polygon class="st11" points="109.3,54.7 114.4,55.7 114.4,54.8 109.3,53.3 "></polygon> <radialGradient id="SVGID_13_" cx="111.8612" cy="82.073" r="3.1991" gradientTransform="matrix(1 0 0 -1 0 124)" gradientUnits="userSpaceOnUse"> <stop offset="0" style="stop-color:#1D71B8"></stop> <stop offset="1" style="stop-color:#2D2E83"></stop> </radialGradient> <polygon class="st12" points="109.3,41.8 114.4,45.5 114.4,43.8 109.3,39.3 "></polygon> <radialGradient id="SVGID_14_" cx="111.8612" cy="65.7301" r="1.9436" gradientTransform="matrix(1 0 0 -1 0 124)" gradientUnits="userSpaceOnUse"> <stop offset="0" style="stop-color:#1D71B8"></stop> <stop offset="1" style="stop-color:#2D2E83"></stop> </radialGradient> <polygon class="st13" points="109.3,58.9 114.4,59.1 114.4,58.2 109.3,57.6 "></polygon> <radialGradient id="SVGID_15_" cx="111.8612" cy="67.6635" r="2.0051" gradientTransform="matrix(1 0 0 -1 0 124)" gradientUnits="userSpaceOnUse"> <stop offset="0" style="stop-color:#1D71B8"></stop> <stop offset="1" style="stop-color:#2D2E83"></stop> </radialGradient> <polygon class="st14" points="109.3,56.8 114.4,57.4 114.4,56.5 109.3,55.5 "></polygon> <radialGradient id="SVGID_16_" cx="111.8612" cy="79.0894" r="2.8637" gradientTransform="matrix(1 0 0 -1 0 124)" gradientUnits="userSpaceOnUse"> <stop offset="0" style="stop-color:#1D71B8"></stop> <stop offset="1" style="stop-color:#2D2E83"></stop> </radialGradient> <polygon class="st15" points="109.3,44.9 114.4,47.9 114.4,46.5 109.3,42.7 "></polygon> <radialGradient id="SVGID_17_" cx="111.8612" cy="76.3642" r="2.5836" gradientTransform="matrix(1 0 0 -1 0 124)" gradientUnits="userSpaceOnUse"> <stop offset="0" style="stop-color:#1D71B8"></stop> <stop offset="1" style="stop-color:#2D2E83"></stop> </radialGradient> <polygon class="st16" points="109.3,47.6 114.4,50.1 114.4,48.9 109.3,45.8 "></polygon> <radialGradient id="SVGID_18_" cx="111.8612" cy="63.855" r="1.9061" gradientTransform="matrix(1 0 0 -1 0 124)" gradientUnits="userSpaceOnUse"> <stop offset="0" style="stop-color:#1D71B8"></stop> <stop offset="1" style="stop-color:#2D2E83"></stop> </radialGradient> <polygon class="st17" points="109.3,60.8 114.4,60.8 114.4,59.8 109.3,59.6 "></polygon> <radialGradient id="SVGID_19_" cx="101.4682" cy="80.0812" r="3.8392" gradientTransform="matrix(1 0 0 -1 0 124)" gradientUnits="userSpaceOnUse"> <stop offset="0" style="stop-color:#1D71B8"></stop> <stop offset="1" style="stop-color:#2D2E83"></stop> </radialGradient> <polygon class="st18" points="97.3,44.1 105.6,47.2 105.6,45.5 97.3,41.5 "></polygon> <radialGradient id="SVGID_20_" cx="101.4682" cy="76.5976" r="3.5894" gradientTransform="matrix(1 0 0 -1 0 124)" gradientUnits="userSpaceOnUse"> <stop offset="0" style="stop-color:#1D71B8"></stop> <stop offset="1" style="stop-color:#2D2E83"></stop> </radialGradient> <polygon class="st19" points="97.3,47.7 105.6,50.1 105.6,48.5 97.3,45.4 "></polygon> <radialGradient id="SVGID_21_" cx="101.4682" cy="73.3307" r="3.4141" gradientTransform="matrix(1 0 0 -1 0 124)" gradientUnits="userSpaceOnUse"> <stop offset="0" style="stop-color:#1D71B8"></stop> <stop offset="1" style="stop-color:#2D2E83"></stop> </radialGradient> <polygon class="st20" points="97.3,51.2 105.6,52.9 105.6,51.4 97.3,49 "></polygon> <radialGradient id="SVGID_22_" cx="101.4682" cy="92.8156" r="5.0724" gradientTransform="matrix(1 0 0 -1 0 124)" gradientUnits="userSpaceOnUse"> <stop offset="0" style="stop-color:#1D71B8"></stop> <stop offset="1" style="stop-color:#2D2E83"></stop> </radialGradient> <polygon class="st21" points="97.3,31 105.6,36.8 105.6,34.1 97.3,27.1 "></polygon> <radialGradient id="SVGID_23_" cx="101.4682" cy="67.2553" r="3.1576" gradientTransform="matrix(1 0 0 -1 0 124)" gradientUnits="userSpaceOnUse"> <stop offset="0" style="stop-color:#1D71B8"></stop> <stop offset="1" style="stop-color:#2D2E83"></stop> </radialGradient> <polygon class="st22" points="97.3,57.8 105.6,58.1 105.6,56.7 97.3,55.7 "></polygon> <radialGradient id="SVGID_24_" cx="101.4682" cy="70.2638" r="3.2645" gradientTransform="matrix(1 0 0 -1 0 124)" gradientUnits="userSpaceOnUse"> <stop offset="0" style="stop-color:#1D71B8"></stop> <stop offset="1" style="stop-color:#2D2E83"></stop> </radialGradient> <polygon class="st23" points="97.3,54.5 105.6,55.5 105.6,54.1 97.3,52.4 "></polygon> <radialGradient id="SVGID_25_" cx="101.4682" cy="88.0402" r="4.5759" gradientTransform="matrix(1 0 0 -1 0 124)" gradientUnits="userSpaceOnUse"> <stop offset="0" style="stop-color:#1D71B8"></stop> <stop offset="1" style="stop-color:#2D2E83"></stop> </radialGradient> <polygon class="st24" points="97.3,35.8 105.6,40.7 105.6,38.4 97.3,32.5 "></polygon> <radialGradient id="SVGID_26_" cx="101.4682" cy="83.8232" r="4.1463" gradientTransform="matrix(1 0 0 -1 0 124)" gradientUnits="userSpaceOnUse"> <stop offset="0" style="stop-color:#1D71B8"></stop> <stop offset="1" style="stop-color:#2D2E83"></stop> </radialGradient> <polygon class="st25" points="97.3,40.1 105.6,44.1 105.6,42.1 97.3,37.3 "></polygon> <radialGradient id="SVGID_27_" cx="101.4682" cy="64.2052" r="3.0856" gradientTransform="matrix(1 0 0 -1 0 124)" gradientUnits="userSpaceOnUse"> <stop offset="0" style="stop-color:#1D71B8"></stop> <stop offset="1" style="stop-color:#2D2E83"></stop> </radialGradient> <polygon class="st26" points="97.3,60.8 105.6,60.8 105.6,59.3 97.3,59 "></polygon> <radialGradient id="SVGID_28_" cx="92.6682" cy="80.0812" r="3.8392" gradientTransform="matrix(1 0 0 -1 0 124)" gradientUnits="userSpaceOnUse"> <stop offset="0" style="stop-color:#1D71B8"></stop> <stop offset="1" style="stop-color:#2D2E83"></stop> </radialGradient> <polygon class="st27" points="88.5,47.2 96.8,44.1 96.8,41.5 88.5,45.5 "></polygon> <radialGradient id="SVGID_29_" cx="92.6682" cy="76.5976" r="3.5894" gradientTransform="matrix(1 0 0 -1 0 124)" gradientUnits="userSpaceOnUse"> <stop offset="0" style="stop-color:#1D71B8"></stop> <stop offset="1" style="stop-color:#2D2E83"></stop> </radialGradient> <polygon class="st28" points="88.5,50.1 96.8,47.7 96.8,45.4 88.5,48.5 "></polygon> <radialGradient id="SVGID_30_" cx="92.6682" cy="73.3307" r="3.4141" gradientTransform="matrix(1 0 0 -1 0 124)" gradientUnits="userSpaceOnUse"> <stop offset="0" style="stop-color:#1D71B8"></stop> <stop offset="1" style="stop-color:#2D2E83"></stop> </radialGradient> <polygon class="st29" points="88.5,52.9 96.8,51.2 96.8,49 88.5,51.4 "></polygon> <radialGradient id="SVGID_31_" cx="92.6682" cy="92.8156" r="5.0724" gradientTransform="matrix(1 0 0 -1 0 124)" gradientUnits="userSpaceOnUse"> <stop offset="0" style="stop-color:#1D71B8"></stop> <stop offset="1" style="stop-color:#2D2E83"></stop> </radialGradient> <polygon class="st30" points="88.5,36.8 96.8,31 96.8,27.1 88.5,34.1 "></polygon> <radialGradient id="SVGID_32_" cx="92.6682" cy="67.2553" r="3.1576" gradientTransform="matrix(1 0 0 -1 0 124)" gradientUnits="userSpaceOnUse"> <stop offset="0" style="stop-color:#1D71B8"></stop> <stop offset="1" style="stop-color:#2D2E83"></stop> </radialGradient> <polygon class="st31" points="88.5,58.1 96.8,57.8 96.8,55.7 88.5,56.7 "></polygon> <radialGradient id="SVGID_33_" cx="92.6682" cy="70.2638" r="3.2645" gradientTransform="matrix(1 0 0 -1 0 124)" gradientUnits="userSpaceOnUse"> <stop offset="0" style="stop-color:#1D71B8"></stop> <stop offset="1" style="stop-color:#2D2E83"></stop> </radialGradient> <polygon class="st32" points="88.5,55.5 96.8,54.5 96.8,52.4 88.5,54.1 "></polygon> <radialGradient id="SVGID_34_" cx="92.6682" cy="88.0402" r="4.5759" gradientTransform="matrix(1 0 0 -1 0 124)" gradientUnits="userSpaceOnUse"> <stop offset="0" style="stop-color:#1D71B8"></stop> <stop offset="1" style="stop-color:#2D2E83"></stop> </radialGradient> <polygon class="st33" points="88.5,40.7 96.8,35.8 96.8,32.5 88.5,38.4 "></polygon> <radialGradient id="SVGID_35_" cx="92.6682" cy="83.8232" r="4.1463" gradientTransform="matrix(1 0 0 -1 0 124)" gradientUnits="userSpaceOnUse"> <stop offset="0" style="stop-color:#1D71B8"></stop> <stop offset="1" style="stop-color:#2D2E83"></stop> </radialGradient> <polygon class="st34" points="88.5,44.1 96.8,40.1 96.8,37.3 88.5,42.1 "></polygon> <radialGradient id="SVGID_36_" cx="92.6682" cy="64.2052" r="3.0856" gradientTransform="matrix(1 0 0 -1 0 124)" gradientUnits="userSpaceOnUse"> <stop offset="0" style="stop-color:#1D71B8"></stop> <stop offset="1" style="stop-color:#2D2E83"></stop> </radialGradient> <polygon class="st35" points="88.5,60.8 96.8,60.8 96.8,59 88.5,59.3 "></polygon> <radialGradient id="SVGID_37_" cx="112.7892" cy="97.1586" r="20.5122" gradientTransform="matrix(1 0 0 -1 0 124)" gradientUnits="userSpaceOnUse"> <stop offset="0" style="stop-color:#1D71B8"></stop> <stop offset="1" style="stop-color:#2D2E83"></stop> </radialGradient> <path class="st36" d="M117.2,25.9c-0.2-0.1-0.4-0.1-0.6-0.2c-1.9-0.6-2.5-0.8-2.7-1.1l-0.1-0.1c-0.1-0.3-0.1-0.7-0.1-1 c0-0.2,0-0.4-0.1-0.5c0-0.1-0.1-0.2-0.1-0.2l-0.1-0.1l0.1-0.6c0.1-0.9,0.2-1.9,0.3-2.8v-0.1l0.1-0.1c0.4-0.4,1.2-1.4,1.4-2.3 c0.1-0.6,0.2-1,0.2-1.2l0.1-0.2c1.2-3,1.2-3.5,1.1-3.6c-0.2-0.6-2.3-4-5.7-4.2c-0.6,0-1.2,0-1.8,0.2c-2.5,0.7-3.2,1.9-3.2,2.5 c0,0.1,0,0.2,0,0.3h0.1l-0.2,0.1c-0.2,1-0.4,2-0.6,2.9v0.1l-0.1,0.1c-0.1,0.1-0.3,0.6-0.3,1.8c0,1.7,0.2,2.1,0.2,2.2 c0.5,1.1,0.9,2.2,1.3,3.3v0.1l-0.2,1.9l-0.2,0.1c-0.1,0.1-0.2,0.2-0.2,0.3c0,0.2-0.1,0.6-0.1,0.8l-0.1,0.2l-0.2,0.1 c-0.6,0.2-1.1,0.4-1.6,0.6c9,4,9,4.9,9,5.4v0.1v0.1c-0.1,0.4-0.8,5.3-1.4,9.5l3.2,2.8c0.2,0.1,0.2,0.3,0.2,0.6v10 c0.9,0,1.6,0,2.2,0h0.3c0.8-6.2,2.2-17.5,4.4-24.7C121.5,28.6,118.8,26.3,117.2,25.9z"></path> <radialGradient id="SVGID_38_" cx="80.6399" cy="97.3921" r="20.7066" gradientTransform="matrix(1 0 0 -1 0 124)" gradientUnits="userSpaceOnUse"> <stop offset="0" style="stop-color:#1D71B8"></stop> <stop offset="1" style="stop-color:#2D2E83"></stop> </radialGradient> <path class="st37" d="M80.7,30.9v-0.1v-0.1c0-0.6,0-1.4,9-5.4c-0.5-0.2-1.1-0.4-1.7-0.7l-0.2-0.1l-0.1-0.2 c-0.1-0.2-0.1-0.5-0.1-0.8c0-0.2-0.1-0.3-0.2-0.3L87.2,23L87,21.1V21c0.4-1.1,0.9-2.2,1.3-3.3c0,0,0.2-0.5,0.2-2.2 c0-1.2-0.2-1.7-0.3-1.8h0.1v-0.1c-0.2-0.9-0.4-1.9-0.6-2.9l-0.1-0.5h0.1c0-0.1,0-0.2,0-0.3c0-0.5-0.7-1.7-3.2-2.5 c-0.6-0.2-1.2-0.2-1.8-0.2c-3.4,0.3-5.4,3.6-5.7,4.2c0,0.1-0.1,0.7,1.1,3.6l0.1,0.2c0,0.2,0.1,0.6,0.2,1.2c0.2,0.8,1,1.9,1.4,2.3 l0.1,0.1v0.1c0.1,1,0.2,1.9,0.3,2.8l0.1,0.6l-0.2,0.4c0,0-0.1,0.1-0.1,0.2s0,0.3-0.1,0.5c0,0.4-0.1,0.7-0.1,1l-0.1,0.1 c-0.2,0.3-0.8,0.5-2.7,1.1c-0.2,0.1-0.4,0.1-0.6,0.2c-1.6,0.5-4.3,2.7-4.9,3.2c2.2,7.2,3.7,18.6,4.4,24.7h0.3c0.6,0,1.5,0,2.6,0 v-10c0-0.2,0.1-0.4,0.3-0.5l3.2-2.8C81.6,36,80.8,31.2,80.7,30.9z"></path> <radialGradient id="SVGID_39_" cx="86.4061" cy="75.7021" r="9.1371" gradientTransform="matrix(1 0 0 -1 0 124)" gradientUnits="userSpaceOnUse"> <stop offset="0" style="stop-color:#1D71B8"></stop> <stop offset="1" style="stop-color:#2D2E83"></stop> </radialGradient> <path class="st38" d="M85,39.3v21.5h2.8c0,0,0,0,0-0.1v-19h-0.1L85,39.3z"></path> <radialGradient id="SVGID_40_" cx="107.6559" cy="75.7021" r="9.1332" gradientTransform="matrix(1 0 0 -1 0 124)" gradientUnits="userSpaceOnUse"> <stop offset="0" style="stop-color:#1D71B8"></stop> <stop offset="1" style="stop-color:#2D2E83"></stop> </radialGradient> <polygon class="st39" points="106.3,60.8 109,60.8 109,39.3 106.3,41.6 "></polygon> <radialGradient id="SVGID_41_" cx="96.8675" cy="105.4315" r="19.5132" gradientTransform="matrix(1 0 0 -1 0 124)" gradientUnits="userSpaceOnUse"> <stop offset="0" style="stop-color:#1D71B8"></stop> <stop offset="1" style="stop-color:#2D2E83"></stop> </radialGradient> <path class="st40" d="M110.9,39.7c0.5-3.8,1.1-8.1,1.3-9c-0.1-0.3-1.1-1.5-10.6-5.6l-0.2-0.1v-0.2c0-0.2-0.1-0.7-0.1-1 c0-0.1,0-0.3-0.2-0.4l-0.2-0.1v-2.4v-0.1c0.7-1.4,1.4-2.7,2.1-4.1c0,0,0.3-0.6,0.5-2.7c0.2-1.6,0-2.1-0.1-2.3l-0.1-0.1l0.2-0.9 c-0.1-1-0.1-2-0.2-3V7.6V7.5c0.2-1.2-0.1-3.5-2.5-4.4C100,2.8,98.3,2.7,97,2.7h-0.2c-1.3,0-3,0.2-3.8,0.5c-2.4,0.9-2.7,3.2-2.4,4.4 v0.1l-0.4,3.8v0.1c-0.1,0.2-0.3,0.7-0.1,2.3c0.3,2.1,0.5,2.7,0.5,2.7c0.7,1.4,1.4,2.7,2.1,4.1v0.1v2.4l-0.2,0.1 c-0.1,0.1-0.2,0.3-0.2,0.4c0,0.3,0,0.6-0.1,1v0.2L92,25c-9.8,4.2-10.5,5.4-10.6,5.5c0.2,0.9,0.9,5,1.6,9.1l1.2-1.1 c0.3-0.2,0.7-0.2,1,0l2.4,2.1V34c0-0.2,0.1-0.4,0.3-0.6l8.6-7.2c0.3-0.2,0.7-0.2,0.9,0l8.6,7.2c0.2,0.1,0.3,0.3,0.3,0.6v6.7 l2.4-2.1c0.3-0.2,0.7-0.2,1,0L110.9,39.7z"></path> </g> <g> <g> <g> <g> <radialGradient id="SVGID_42_" cx="279.2863" cy="1040.4392" r="8.9328" gradientTransform="matrix(0.6871 0 0 0.6871 -109.7038 -664.7785)" gradientUnits="userSpaceOnUse"> <stop offset="0" style="stop-color:#B2B2B2"></stop> <stop offset="1" style="stop-color:#706F6F"></stop> </radialGradient> <polygon class="st41" points="79.6,52.3 84.7,50.3 84.7,48.7 79.6,51.2 "></polygon> <radialGradient id="SVGID_43_" cx="279.2863" cy="1040.441" r="8.9309" gradientTransform="matrix(0.6871 0 0 0.6871 -109.7038 -664.7781)" gradientUnits="userSpaceOnUse"> <stop offset="0" style="stop-color:#B2B2B2"></stop> <stop offset="1" style="stop-color:#706F6F"></stop> </radialGradient> <polygon class="st42" points="79.6,54.2 84.7,52.7 84.7,51.2 79.6,53.2 "></polygon> <radialGradient id="SVGID_44_" cx="279.2863" cy="1040.4384" r="8.933" gradientTransform="matrix(0.6871 0 0 0.6871 -109.7038 -664.7786)" gradientUnits="userSpaceOnUse"> <stop offset="0" style="stop-color:#B2B2B2"></stop> <stop offset="1" style="stop-color:#706F6F"></stop> </radialGradient> <polygon class="st43" points="79.6,55.9 84.7,54.9 84.7,53.5 79.6,55 "></polygon> <radialGradient id="SVGID_45_" cx="279.2863" cy="1040.4427" r="8.934" gradientTransform="matrix(0.6871 0 0 0.6871 -109.7038 -664.7777)" gradientUnits="userSpaceOnUse"> <stop offset="0" style="stop-color:#B2B2B2"></stop> <stop offset="1" style="stop-color:#706F6F"></stop> </radialGradient> <polygon class="st44" points="79.6,45.7 84.7,42 84.7,39.5 79.6,44 "></polygon> <radialGradient id="SVGID_46_" cx="279.2863" cy="1040.4272" r="8.9442" gradientTransform="matrix(0.6871 0 0 0.6871 -109.7038 -664.781)" gradientUnits="userSpaceOnUse"> <stop offset="0" style="stop-color:#B2B2B2"></stop> <stop offset="1" style="stop-color:#706F6F"></stop> </radialGradient> <polygon class="st45" points="79.6,59.3 84.7,59.1 84.7,57.8 79.6,58.4 "></polygon> <radialGradient id="SVGID_47_" cx="279.2863" cy="1040.4347" r="8.9387" gradientTransform="matrix(0.6871 0 0 0.6871 -109.7038 -664.7794)" gradientUnits="userSpaceOnUse"> <stop offset="0" style="stop-color:#B2B2B2"></stop> <stop offset="1" style="stop-color:#706F6F"></stop> </radialGradient> <polygon class="st46" points="79.6,57.6 84.7,57 84.7,55.7 79.6,56.7 "></polygon> <radialGradient id="SVGID_48_" cx="279.2863" cy="1040.4395" r="8.9312" gradientTransform="matrix(0.6871 0 0 0.6871 -109.7038 -664.7784)" gradientUnits="userSpaceOnUse"> <stop offset="0" style="stop-color:#B2B2B2"></stop> <stop offset="1" style="stop-color:#706F6F"></stop> </radialGradient> <polygon class="st47" points="79.6,48.1 84.7,45.1 84.7,42.9 79.6,46.7 "></polygon> <radialGradient id="SVGID_49_" cx="279.2863" cy="1040.4386" r="8.9306" gradientTransform="matrix(0.6871 0 0 0.6871 -109.7038 -664.7786)" gradientUnits="userSpaceOnUse"> <stop offset="0" style="stop-color:#B2B2B2"></stop> <stop offset="1" style="stop-color:#706F6F"></stop> </radialGradient> <polygon class="st48" points="79.6,50.3 84.7,47.8 84.7,46 79.6,49.1 "></polygon> </g> <radialGradient id="SVGID_50_" cx="279.2863" cy="1016.5128" r="27.4596" gradientTransform="matrix(0.6871 0 0 0.6871 -109.7038 -669.8966)" gradientUnits="userSpaceOnUse"> <stop offset="0" style="stop-color:#B2B2B2"></stop> <stop offset="1" style="stop-color:#706F6F"></stop> </radialGradient> <polygon class="st49" points="84.7,59.8 79.6,60 79.6,61 84.7,61 "></polygon> </g> <g> <g> <radialGradient id="SVGID_51_" cx="692.5823" cy="1040.4392" r="8.9328" gradientTransform="matrix(-0.6871 0 0 0.6871 587.7957 -664.7785)" gradientUnits="userSpaceOnUse"> <stop offset="0" style="stop-color:#B2B2B2"></stop> <stop offset="1" style="stop-color:#706F6F"></stop> </radialGradient> <polygon class="st50" points="114.4,52.3 109.3,50.3 109.3,48.7 114.4,51.2 "></polygon> <radialGradient id="SVGID_52_" cx="692.5823" cy="1040.441" r="8.9309" gradientTransform="matrix(-0.6871 0 0 0.6871 587.7957 -664.7781)" gradientUnits="userSpaceOnUse"> <stop offset="0" style="stop-color:#B2B2B2"></stop> <stop offset="1" style="stop-color:#706F6F"></stop> </radialGradient> <polygon class="st51" points="114.4,54.2 109.3,52.7 109.3,51.2 114.4,53.2 "></polygon> <radialGradient id="SVGID_53_" cx="692.5823" cy="1040.4384" r="8.933" gradientTransform="matrix(-0.6871 0 0 0.6871 587.7957 -664.7786)" gradientUnits="userSpaceOnUse"> <stop offset="0" style="stop-color:#B2B2B2"></stop> <stop offset="1" style="stop-color:#706F6F"></stop> </radialGradient> <polygon class="st52" points="114.4,55.9 109.3,54.9 109.3,53.5 114.4,55 "></polygon> <radialGradient id="SVGID_54_" cx="692.5823" cy="1040.4427" r="8.934" gradientTransform="matrix(-0.6871 0 0 0.6871 587.7957 -664.7777)" gradientUnits="userSpaceOnUse"> <stop offset="0" style="stop-color:#B2B2B2"></stop> <stop offset="1" style="stop-color:#706F6F"></stop> </radialGradient> <polygon class="st53" points="114.4,45.7 109.3,42 109.3,39.5 114.4,44 "></polygon> <radialGradient id="SVGID_55_" cx="692.5823" cy="1040.4272" r="8.9442" gradientTransform="matrix(-0.6871 0 0 0.6871 587.7957 -664.781)" gradientUnits="userSpaceOnUse"> <stop offset="0" style="stop-color:#B2B2B2"></stop> <stop offset="1" style="stop-color:#706F6F"></stop> </radialGradient> <polygon class="st54" points="114.4,59.3 109.3,59.1 109.3,57.8 114.4,58.4 "></polygon> <radialGradient id="SVGID_56_" cx="692.5823" cy="1040.4347" r="8.9387" gradientTransform="matrix(-0.6871 0 0 0.6871 587.7957 -664.7794)" gradientUnits="userSpaceOnUse"> <stop offset="0" style="stop-color:#B2B2B2"></stop> <stop offset="1" style="stop-color:#706F6F"></stop> </radialGradient> <polygon class="st55" points="114.4,57.6 109.3,57 109.3,55.7 114.4,56.7 "></polygon> <radialGradient id="SVGID_57_" cx="692.5823" cy="1040.4395" r="8.9313" gradientTransform="matrix(-0.6871 0 0 0.6871 587.7957 -664.7784)" gradientUnits="userSpaceOnUse"> <stop offset="0" style="stop-color:#B2B2B2"></stop> <stop offset="1" style="stop-color:#706F6F"></stop> </radialGradient> <polygon class="st56" points="114.4,48.1 109.3,45.1 109.3,42.9 114.4,46.7 "></polygon> <radialGradient id="SVGID_58_" cx="692.5823" cy="1040.4386" r="8.9306" gradientTransform="matrix(-0.6871 0 0 0.6871 587.7957 -664.7786)" gradientUnits="userSpaceOnUse"> <stop offset="0" style="stop-color:#B2B2B2"></stop> <stop offset="1" style="stop-color:#706F6F"></stop> </radialGradient> <polygon class="st57" points="114.4,50.3 109.3,47.8 109.3,46 114.4,49.1 "></polygon> </g> <radialGradient id="SVGID_59_" cx="692.5823" cy="1016.5128" r="27.4596" gradientTransform="matrix(-0.6871 0 0 0.6871 587.7957 -669.8966)" gradientUnits="userSpaceOnUse"> <stop offset="0" style="stop-color:#B2B2B2"></stop> <stop offset="1" style="stop-color:#706F6F"></stop> </radialGradient> <polygon class="st58" points="109.3,59.8 114.4,60 114.4,61 109.3,61 "></polygon> </g> <g> <g> <g> <radialGradient id="SVGID_60_" cx="-906.7542" cy="1000.3828" r="13.9898" gradientTransform="matrix(-0.7113 0 0 0.7113 -543.4875 -667.6656)" gradientUnits="userSpaceOnUse"> <stop offset="0" style="stop-color:#DADADA"></stop> <stop offset="1" style="stop-color:#9D9D9C"></stop> </radialGradient> <polygon class="st59" points="105.6,47.4 97.3,44.3 97.3,41.7 105.6,45.7 "></polygon> <radialGradient id="SVGID_61_" cx="-906.7542" cy="1000.3862" r="13.9849" gradientTransform="matrix(-0.7113 0 0 0.7113 -543.4875 -667.6649)" gradientUnits="userSpaceOnUse"> <stop offset="0" style="stop-color:#DADADA"></stop> <stop offset="1" style="stop-color:#9D9D9C"></stop> </radialGradient> <polygon class="st60" points="105.6,50.3 97.3,47.9 97.3,45.6 105.6,48.7 "></polygon> <radialGradient id="SVGID_62_" cx="-906.7542" cy="1000.3865" r="13.9841" gradientTransform="matrix(-0.7113 0 0 0.7113 -543.4875 -667.6648)" gradientUnits="userSpaceOnUse"> <stop offset="0" style="stop-color:#DADADA"></stop> <stop offset="1" style="stop-color:#9D9D9C"></stop> </radialGradient> <polygon class="st61" points="105.6,53.1 97.3,51.4 97.3,49.2 105.6,51.6 "></polygon> <radialGradient id="SVGID_63_" cx="-906.7542" cy="1000.3846" r="13.9891" gradientTransform="matrix(-0.7113 0 0 0.7113 -543.4875 -667.6655)" gradientUnits="userSpaceOnUse"> <stop offset="0" style="stop-color:#DADADA"></stop> <stop offset="1" style="stop-color:#9D9D9C"></stop> </radialGradient> <polygon class="st62" points="105.6,37 97.3,31.2 97.3,27.3 105.6,34.3 "></polygon> <radialGradient id="SVGID_64_" cx="-906.7542" cy="1000.3826" r="13.9912" gradientTransform="matrix(-0.7113 0 0 0.7113 -543.4875 -667.6656)" gradientUnits="userSpaceOnUse"> <stop offset="0" style="stop-color:#DADADA"></stop> <stop offset="1" style="stop-color:#9D9D9C"></stop> </radialGradient> <polygon class="st63" points="105.6,58.3 97.3,58 97.3,55.9 105.6,56.9 "></polygon> <radialGradient id="SVGID_65_" cx="-906.7542" cy="1000.3887" r="13.9852" gradientTransform="matrix(-0.7113 0 0 0.7113 -543.4875 -667.6644)" gradientUnits="userSpaceOnUse"> <stop offset="0" style="stop-color:#DADADA"></stop> <stop offset="1" style="stop-color:#9D9D9C"></stop> </radialGradient> <polygon class="st64" points="105.6,55.7 97.3,54.7 97.3,52.6 105.6,54.3 "></polygon> <radialGradient id="SVGID_66_" cx="-906.7542" cy="1000.3843" r="13.9872" gradientTransform="matrix(-0.7113 0 0 0.7113 -543.4875 -667.6653)" gradientUnits="userSpaceOnUse"> <stop offset="0" style="stop-color:#DADADA"></stop> <stop offset="1" style="stop-color:#9D9D9C"></stop> </radialGradient> <polygon class="st65" points="105.6,40.9 97.3,36 97.3,32.7 105.6,38.6 "></polygon> <radialGradient id="SVGID_67_" cx="-906.7542" cy="1000.3827" r="13.987" gradientTransform="matrix(-0.7113 0 0 0.7113 -543.4875 -667.6656)" gradientUnits="userSpaceOnUse"> <stop offset="0" style="stop-color:#DADADA"></stop> <stop offset="1" style="stop-color:#9D9D9C"></stop> </radialGradient> <polygon class="st66" points="105.6,44.3 97.3,40.3 97.3,37.5 105.6,42.3 "></polygon> </g> <radialGradient id="SVGID_68_" cx="-906.7542" cy="962.9534" r="42.9727" gradientTransform="matrix(-0.7113 0 0 0.7113 -543.4875 -674.7656)" gradientUnits="userSpaceOnUse"> <stop offset="0" style="stop-color:#DADADA"></stop> <stop offset="1" style="stop-color:#9D9D9C"></stop> </radialGradient> <polygon class="st67" points="97.3,59.2 105.6,59.5 105.6,61 97.3,61 "></polygon> </g> <g> <g> <radialGradient id="SVGID_69_" cx="-1370.4125" cy="1000.3828" r="13.9877" gradientTransform="matrix(0.7113 0 0 0.7113 1067.462 -667.6654)" gradientUnits="userSpaceOnUse"> <stop offset="0" style="stop-color:#DADADA"></stop> <stop offset="1" style="stop-color:#9D9D9C"></stop> </radialGradient> <polygon class="st68" points="88.5,47.4 96.8,44.3 96.8,41.7 88.5,45.7 "></polygon> <radialGradient id="SVGID_70_" cx="-1370.4125" cy="1000.3862" r="13.9842" gradientTransform="matrix(0.7113 0 0 0.7113 1067.462 -667.6647)" gradientUnits="userSpaceOnUse"> <stop offset="0" style="stop-color:#DADADA"></stop> <stop offset="1" style="stop-color:#9D9D9C"></stop> </radialGradient> <polygon class="st69" points="88.5,50.3 96.8,47.9 96.8,45.6 88.5,48.7 "></polygon> <radialGradient id="SVGID_71_" cx="-1370.4125" cy="1000.3865" r="13.9837" gradientTransform="matrix(0.7113 0 0 0.7113 1067.462 -667.6647)" gradientUnits="userSpaceOnUse"> <stop offset="0" style="stop-color:#DADADA"></stop> <stop offset="1" style="stop-color:#9D9D9C"></stop> </radialGradient> <polygon class="st70" points="88.5,53.1 96.8,51.4 96.8,49.2 88.5,51.6 "></polygon> <radialGradient id="SVGID_72_" cx="-1370.4125" cy="1000.3846" r="13.9885" gradientTransform="matrix(0.7113 0 0 0.7113 1067.462 -667.6653)" gradientUnits="userSpaceOnUse"> <stop offset="0" style="stop-color:#DADADA"></stop> <stop offset="1" style="stop-color:#9D9D9C"></stop> </radialGradient> <polygon class="st71" points="88.5,37 96.8,31.2 96.8,27.3 88.5,34.3 "></polygon> <radialGradient id="SVGID_73_" cx="-1370.4125" cy="1000.3826" r="13.991" gradientTransform="matrix(0.7113 0 0 0.7113 1067.462 -667.6654)" gradientUnits="userSpaceOnUse"> <stop offset="0" style="stop-color:#DADADA"></stop> <stop offset="1" style="stop-color:#9D9D9C"></stop> </radialGradient> <polygon class="st72" points="88.5,58.3 96.8,58 96.8,55.9 88.5,56.9 "></polygon> <radialGradient id="SVGID_74_" cx="-1370.4125" cy="1000.3887" r="13.985" gradientTransform="matrix(0.7113 0 0 0.7113 1067.462 -667.6643)" gradientUnits="userSpaceOnUse"> <stop offset="0" style="stop-color:#DADADA"></stop> <stop offset="1" style="stop-color:#9D9D9C"></stop> </radialGradient> <polygon class="st73" points="88.5,55.7 96.8,54.7 96.8,52.6 88.5,54.3 "></polygon> <radialGradient id="SVGID_75_" cx="-1370.4125" cy="1000.3843" r="13.986" gradientTransform="matrix(0.7113 0 0 0.7113 1067.462 -667.6651)" gradientUnits="userSpaceOnUse"> <stop offset="0" style="stop-color:#DADADA"></stop> <stop offset="1" style="stop-color:#9D9D9C"></stop> </radialGradient> <polygon class="st74" points="88.5,40.9 96.8,36 96.8,32.7 88.5,38.6 "></polygon> <radialGradient id="SVGID_76_" cx="-1370.4125" cy="1000.3827" r="13.9854" gradientTransform="matrix(0.7113 0 0 0.7113 1067.462 -667.6654)" gradientUnits="userSpaceOnUse"> <stop offset="0" style="stop-color:#DADADA"></stop> <stop offset="1" style="stop-color:#9D9D9C"></stop> </radialGradient> <polygon class="st75" points="88.5,44.3 96.8,40.3 96.8,37.5 88.5,42.3 "></polygon> </g> <radialGradient id="SVGID_77_" cx="-1370.4125" cy="962.9534" r="42.9726" gradientTransform="matrix(0.7113 0 0 0.7113 1067.462 -674.7654)" gradientUnits="userSpaceOnUse"> <stop offset="0" style="stop-color:#DADADA"></stop> <stop offset="1" style="stop-color:#9D9D9C"></stop> </radialGradient> <polygon class="st76" points="96.8,59.2 88.5,59.5 88.5,61 96.8,61 "></polygon> </g> </g> </g> <g> <linearGradient id="SVGID_78_" gradientUnits="userSpaceOnUse" x1="103.8969" y1="696.9593" x2="122.1406" y2="696.9593" gradientTransform="matrix(1 0 0 1 0 -666.1093)"> <stop offset="0" style="stop-color:#118CC5"></stop> <stop offset="1" style="stop-color:#2859A6"></stop> </linearGradient> <path class="st77" d="M117.2,26.1c-0.2-0.1-0.4-0.1-0.6-0.2c-1.9-0.6-2.5-0.8-2.7-1.1l-0.1-0.1c-0.1-0.3-0.1-0.7-0.1-1 c0-0.2,0-0.4-0.1-0.5c0-0.1-0.1-0.2-0.1-0.2l-0.1-0.1l0.1-0.6c0.1-0.9,0.2-1.9,0.3-2.8v-0.1l0.1-0.1c0.4-0.4,1.2-1.4,1.4-2.3 c0.1-0.6,0.2-1,0.2-1.2l0,0l0.1-0.2c1.2-3,1.2-3.5,1.1-3.6c-0.2-0.6-2.3-4-5.7-4.2c-0.6,0-1.2,0-1.8,0.2c-2.5,0.7-3.2,1.9-3.2,2.5 c0,0.1,0,0.2,0,0.3h0.1l-0.2,0.1c-0.2,1-0.4,2-0.6,2.9v0.1l-0.1,0.1c-0.1,0.1-0.3,0.6-0.3,1.8c0,1.7,0.2,2.1,0.2,2.2 c0.5,1.1,0.9,2.2,1.3,3.3v0.1l-0.2,1.9l-0.2,0.1c-0.1,0.1-0.2,0.2-0.2,0.3c0,0.2-0.1,0.6-0.1,0.8l-0.1,0.2l-0.2,0.1 c-0.6,0.2-1.1,0.4-1.6,0.6c9,4,9,4.9,9,5.4v0.1V31c-0.1,0.4-0.8,5.3-1.4,9.5l3.2,2.8c0.2,0.1,0.2,0.3,0.2,0.6v10 c0.9,0,1.6,0,2.2,0h0.3c0.8-6.2,2.2-17.5,4.4-24.7C121.5,28.8,118.8,26.5,117.2,26.1z"></path> <linearGradient id="SVGID_79_" gradientUnits="userSpaceOnUse" x1="71.625" y1="696.7593" x2="89.8693" y2="696.7593" gradientTransform="matrix(1 0 0 1 0 -666.1093)"> <stop offset="0" style="stop-color:#118CC5"></stop> <stop offset="1" style="stop-color:#2859A6"></stop> </linearGradient> <path class="st78" d="M79.1,43.4l3.2-2.8c-0.7-4.4-1.5-9.2-1.6-9.5V31v-0.1c0-0.6,0-1.4,9-5.4c-0.5-0.2-1.1-0.4-1.7-0.7l-0.2-0.1 l-0.1-0.2c-0.1-0.2-0.1-0.5-0.1-0.8c0-0.2-0.1-0.3-0.2-0.3l-0.2-0.2L87,21.3v-0.1c0.4-1.1,0.9-2.2,1.3-3.3c0,0,0.2-0.5,0.2-2.2 c0-1.2-0.2-1.7-0.3-1.8h0.1v-0.1c-0.2-0.9-0.4-1.9-0.6-2.9l-0.1-0.5h0.1c0-0.1,0-0.2,0-0.3c0-0.5-0.7-1.7-3.2-2.5 c-0.6-0.2-1.2-0.2-1.8-0.2c-3.4,0.3-5.4,3.6-5.7,4.2c0,0.1-0.1,0.7,1.1,3.6l0.1,0.2l0,0c0,0.2,0.1,0.6,0.2,1.2 c0.2,0.8,1,1.9,1.4,2.3l0.1,0.1v0.1c0.1,1,0.2,1.9,0.3,2.8l0.1,0.6l-0.2,0.4c0,0-0.1,0.1-0.1,0.2s0,0.3-0.1,0.5 c0,0.4-0.1,0.7-0.1,1l-0.1,0.1c-0.2,0.3-0.8,0.5-2.7,1.1c-0.2,0.1-0.4,0.1-0.6,0.2c-1.6,0.5-4.3,2.7-4.9,3.2 c2.2,7.2,3.7,18.6,4.4,24.7h0.3c0.6,0,1.5,0,2.6,0v-10C78.8,43.7,78.9,43.5,79.1,43.4z"></path> </g> <g> <g> <radialGradient id="SVGID_80_" cx="-178.4082" cy="-878.0157" r="26.7987" gradientTransform="matrix(0.6871 0 0 -0.6871 210.2053 -524.552)" gradientUnits="userSpaceOnUse"> <stop offset="0" style="stop-color:#B2B2B2"></stop> <stop offset="1" style="stop-color:#706F6F"></stop> </radialGradient> <path class="st79" d="M87.7,41.9L85,39.5V61h2.8c0,0,0,0,0-0.1v-19H87.7z"></path> <radialGradient id="SVGID_81_" cx="-3044.0393" cy="-878.0157" r="26.7989" gradientTransform="matrix(-0.6871 0 0 -0.6871 -1985.0641 -524.552)" gradientUnits="userSpaceOnUse"> <stop offset="0" style="stop-color:#B2B2B2"></stop> <stop offset="1" style="stop-color:#706F6F"></stop> </radialGradient> <path class="st80" d="M106.3,61h2.7V39.5l-2.7,2.3V61L106.3,61z"></path> <radialGradient id="SVGID_82_" cx="96.9175" cy="691.2314" r="19.5132" gradientTransform="matrix(1 0 0 1 0 -666.1093)" gradientUnits="userSpaceOnUse"> <stop offset="0" style="stop-color:#1D71B8"></stop> <stop offset="1" style="stop-color:#2D2E83"></stop> </radialGradient> <path class="st81" d="M101.6,25.3l-0.2-0.1V25c0-0.2-0.1-0.7-0.1-1c0-0.1,0-0.3-0.2-0.4l-0.2-0.1v-2.4V21 c0.7-1.4,1.4-2.7,2.1-4.1c0,0,0.3-0.6,0.5-2.7c0.2-1.6,0-2.1-0.1-2.3l-0.1-0.1l0.2-0.9c-0.1-1-0.1-2-0.2-3V7.8V7.7 c0.2-1.2-0.1-3.5-2.5-4.4C100,3,98.3,2.9,97,2.9h-0.2c-1.3,0-3,0.2-3.8,0.5c-2.4,0.9-2.7,3.2-2.4,4.4v0.1l-0.4,3.8v0.1 c-0.1,0.2-0.3,0.7-0.1,2.3c0.3,2.1,0.5,2.7,0.5,2.7c0.7,1.4,1.4,2.7,2.1,4.1V21v2.4l-0.2,0.1c-0.1,0.1-0.2,0.3-0.2,0.4 c0,0.3,0,0.6-0.1,1v0.2L92,25.2c-9.8,4.2-10.5,5.4-10.6,5.5c0.2,0.9,0.9,5,1.6,9.1l1.2-1.1c0.3-0.2,0.7-0.2,1,0l2.4,2.1v-6.6l0,0 c0-0.2,0.1-0.4,0.3-0.6l8.6-7.2c0.3-0.2,0.7-0.2,0.9,0l8.6,7.2c0.2,0.1,0.3,0.3,0.3,0.6l0,0v6.7l2.4-2.1c0.3-0.2,0.7-0.2,1,0 l1.2,1.1c0.5-3.8,1.1-8.1,1.3-9C112.1,30.6,111.1,29.4,101.6,25.3z"></path> </g> </g> </g> <g> <rect y="66.8" class="st82" width="189.1" height="2"></rect> <rect y="102.5" class="st82" width="189.1" height="2"></rect> </g> <g> <path class="st82" d="M25.9,113.9h-1.4v-0.3c0-0.7-0.3-1.2-1-1.2c-0.8,0-0.9,0.6-0.9,1.3c0,0.8,0.1,1.1,0.8,1.3l1,0.4 c1.2,0.5,1.4,1.3,1.4,2.8c0,1.7-0.6,3-2.4,3c-1.3,0-2.3-1-2.3-2.4v-0.5h1.4v0.5c0,0.5,0.3,1,1,1c0.9,0,1-0.6,1-1.5 c0-1.1-0.1-1.2-0.8-1.5l-1-0.4c-1.2-0.5-1.5-1.3-1.5-2.6c0-1.5,0.8-2.8,2.4-2.8c1.4,0,2.3,1.2,2.3,2.3V113.9z"></path> <path class="st82" d="M26.9,111H29c0.8,0,1.3,0.2,1.8,0.7s0.6,1.2,0.6,2.4c0,0.9-0.1,1.5-0.4,2c-0.4,0.7-1,1-2,1h-0.7v3.9h-1.4V111 z M28.3,115.8H29c1.1,0,1.1-0.7,1.1-1.7s0-1.7-1.1-1.7h-0.7V115.8z"></path> <path class="st82" d="M32.4,111h4.1v1.4h-2.7v3h2.4v1.4h-2.4v3h2.7v1.4h-4.1V111z"></path> <path class="st82" d="M41.8,118.8c0,1.2-1,2.3-2.2,2.3c-1.1,0-2.3-0.5-2.3-2.4v-5.6c0-1.3,0.9-2.3,2.2-2.3s2.2,1,2.2,2.4v0.6h-1.4 v-0.5c0-0.6-0.3-1-0.8-1c-0.7,0-0.8,0.5-0.8,1.2v5.2c0,0.6,0.2,1,0.8,1c0.4,0,0.9-0.2,0.9-1v-0.5h1.4 C41.8,118.2,41.8,118.8,41.8,118.8z"></path> <path class="st82" d="M42.9,111h1.4v10.1h-1.4V111z"></path> <path class="st82" d="M47.2,111h1.1l2.1,10.1H49l-0.4-2.2h-1.9l-0.4,2.2H45L47.2,111z M47.7,113.9L47.7,113.9l-0.7,3.7h1.4 L47.7,113.9z"></path> <path class="st82" d="M51.1,111h1.4v8.7h2.7v1.4h-4.1C51.1,121.1,51.1,111,51.1,111z"></path> <path class="st82" d="M56.1,111h1.4v10.1h-1.4V111z"></path> <path class="st82" d="M63.3,113.9h-1.4v-0.3c0-0.7-0.3-1.2-1-1.2c-0.8,0-0.9,0.6-0.9,1.3c0,0.8,0.1,1.1,0.8,1.3l1,0.4 c1.2,0.5,1.4,1.3,1.4,2.8c0,1.7-0.6,3-2.4,3c-1.3,0-2.3-1-2.3-2.4v-0.5h1.4v0.5c0,0.5,0.3,1,1,1c0.9,0,1-0.6,1-1.5 c0-1.1-0.1-1.2-0.8-1.5l-1-0.4c-1.2-0.5-1.5-1.3-1.5-2.6c0-1.5,0.8-2.8,2.4-2.8c1.4,0,2.3,1.2,2.3,2.3V113.9z"></path> <path class="st82" d="M65.2,112.3h-1.6v-1.4h4.5v1.4h-1.6v8.7h-1.4L65.2,112.3L65.2,112.3z"></path> <path class="st82" d="M68.8,111h4.1v1.4h-2.7v3h2.4v1.4h-2.4v3h2.7v1.4h-4.1V111z"></path> <path class="st82" d="M73.7,111H75l2.1,6.1l0,0V111h1.4v10.1h-1.3l-2.1-6.1l0,0v6.1h-1.4V111z"></path> <path class="st82" d="M82.3,111h1.4v10.1h-1.4V111z"></path> <path class="st82" d="M84.9,111h1.3l2.1,6.1l0,0V111h1.4v10.1h-1.3l-2.1-6.1l0,0v6.1h-1.4V111z"></path> <path class="st82" d="M93.4,113.4c0-1.6,1.2-2.5,2.3-2.5c1.1,0,2.3,0.8,2.3,2.5v5.3c0,1.6-1.2,2.5-2.3,2.5c-1.1,0-2.3-0.8-2.3-2.5 V113.4z M94.8,118.7c0,0.7,0.4,1,0.9,1s0.9-0.3,0.9-1v-5.3c0-0.7-0.4-1-0.9-1s-0.9,0.3-0.9,1V118.7z"></path> <path class="st82" d="M99.2,111h1.3l2.1,6.1l0,0V111h1.4v10.1h-1.3l-2.1-6.1l0,0v6.1h-1.4V111z"></path> <path class="st82" d="M105.2,111h2.2c1.6,0,2.4,1,2.4,3c0,1.2-0.3,2-1.2,2.5l1.5,4.6h-1.5l-1.3-4.3h-0.8v4.3h-1.4V111H105.2z M106.6,115.5h0.8c1,0,1.1-0.6,1.1-1.6s-0.2-1.6-1.2-1.6h-0.7C106.6,112.3,106.6,115.5,106.6,115.5z"></path> <path class="st82" d="M110.8,113.4c0-1.6,1.2-2.5,2.3-2.5c1.1,0,2.3,0.8,2.3,2.5v5.3c0,1.6-1.2,2.5-2.3,2.5c-1.1,0-2.3-0.8-2.3-2.5 V113.4z M112.2,118.7c0,0.7,0.4,1,0.9,1s0.9-0.3,0.9-1v-5.3c0-0.7-0.4-1-0.9-1s-0.9,0.3-0.9,1V118.7z"></path> <path class="st82" d="M116.7,111h4.1v1.4H118v3h2.4v1.4H118v3h2.7v1.4h-4.1L116.7,111L116.7,111z"></path> <path class="st82" d="M121.6,111h2.2c1.6,0,2.4,1,2.4,3c0,1.2-0.3,2-1.2,2.5l1.5,4.6H125l-1.3-4.3H123v4.3h-1.4V111z M123,115.5 h0.8c1,0,1.1-0.6,1.1-1.6s-0.2-1.6-1.2-1.6H123V115.5z"></path> <path class="st82" d="M127.4,111h4.1v1.4h-2.7v3h2.4v1.4h-2.4v3h2.7v1.4h-4.1V111z"></path> <path class="st82" d="M132.3,111h1.3l2.1,6.1l0,0V111h1.4v10.1h-1.3l-2.1-6.1l0,0v6.1h-1.4V111z"></path> <path class="st82" d="M138.3,111h2c1.5,0,2.4,1,2.4,2.6v4.7c0,1.9-0.9,2.8-2.5,2.8h-1.9V111z M139.7,119.7h0.6 c0.8,0,1.1-0.4,1.1-1.3v-4.9c0-0.8-0.3-1.2-1.1-1.2h-0.6V119.7z"></path> <path class="st82" d="M146.5,113.4c0-1.6,1.2-2.5,2.3-2.5s2.3,0.8,2.3,2.5v0.5h-1.4v-0.5c0-0.7-0.4-1-0.9-1s-0.9,0.3-0.9,1v5.3 c0,0.7,0.4,1,0.9,1s0.9-0.3,0.9-1v-1.9h-1.1v-1.3h2.5v3.2c0,1.6-1.2,2.5-2.3,2.5s-2.3-0.8-2.3-2.5V113.4z"></path> <path class="st82" d="M152.2,113.4c0-1.6,1.2-2.5,2.3-2.5s2.3,0.8,2.3,2.5v5.3c0,1.6-1.2,2.5-2.3,2.5s-2.3-0.8-2.3-2.5V113.4z M153.6,118.7c0,0.7,0.4,1,0.9,1s0.9-0.3,0.9-1v-5.3c0-0.7-0.4-1-0.9-1s-0.9,0.3-0.9,1V118.7z"></path> <path class="st82" d="M158.1,111h4.1v1.4h-2.7v3h2.4v1.4h-2.4v3h2.7v1.4h-4.1V111z"></path> <path class="st82" d="M163,111h2c1.5,0,2.4,1,2.4,2.6v4.7c0,1.9-0.9,2.8-2.5,2.8H163V111z M164.4,119.7h0.6c0.8,0,1.1-0.4,1.1-1.3 v-4.9c0-0.8-0.3-1.2-1.1-1.2h-0.6V119.7z"></path> </g> <g> <path class="st82" d="M12,92.7c0,3.2-2.6,5.9-5.9,5.9c-2.8,0-6.1-1.4-6.1-6V78.5c0-3.3,2.4-5.9,6.1-5.9c3.4,0,6,2.5,6,6.1v1.4H8.3 v-1.2c0-1.4-0.9-2.7-2.3-2.7c-1.9,0-2.3,1.3-2.3,3v13.1c0,1.5,0.6,2.6,2.3,2.6c1,0,2.3-0.6,2.3-2.6V91H12V92.7z"></path> <path class="st82" d="M27.8,92.7c0,3.3-2.7,6-6,6s-6-2.6-6-6V72.9h3.7v19.5c0,1.8,1,2.7,2.3,2.7s2.3-0.9,2.3-2.7V72.9h3.7V92.7z"></path> <path class="st82" d="M32.1,72.9h6c4.4,0,6.6,2.6,6.6,7.5c0,2.9-0.8,5.1-3.2,6.4l4,11.7h-3.9l-3.6-11h-2.2v10.9h-3.7 C32.1,98.4,32.1,72.9,32.1,72.9z M35.8,84.3h2.1c2.6,0,3-1.4,3-4s-0.4-4-3.2-4h-1.9C35.8,76.3,35.8,84.3,35.8,84.3z"></path> <path class="st82" d="M48.1,78.9c0-4.2,3.2-6.2,6.2-6.2s6.2,2.1,6.2,6.2v13.5c0,4.2-3.2,6.2-6.2,6.2s-6.2-2.1-6.2-6.2V78.9z M51.8,92.4c0,1.8,1.2,2.6,2.5,2.6c1.4,0,2.5-0.8,2.5-2.6V78.9c0-1.8-1.2-2.6-2.5-2.6s-2.5,0.8-2.5,2.6V92.4z"></path> <path class="st82" d="M79.4,98.4h-3.3l-5.3-25.5h3.9l3,17.9h0.1l3-17.9h3.9L79.4,98.4z"></path> <path class="st82" d="M90.5,72.9h3.1l5.8,25.6h-3.7l-1.2-5.6h-5.1l-1.1,5.5h-3.7L90.5,72.9z M92,80.2L92,80.2l-1.9,9.3h3.7L92,80.2 z"></path> <path class="st82" d="M113.9,80.2h-3.7v-0.8c0-1.7-0.7-3.1-2.6-3.1c-2,0-2.5,1.6-2.5,3.3c0,2,0.2,2.7,2.1,3.4l2.8,1.1 c3.3,1.2,3.9,3.3,3.9,7c0,4.3-1.6,7.5-6.4,7.5c-3.6,0-6.3-2.6-6.3-6.1v-1.4h3.7v1.1c0,1.3,0.7,2.6,2.6,2.6c2.5,0,2.7-1.5,2.7-3.8 c0-2.7-0.3-3.2-2.2-3.9l-2.7-1.1c-3.2-1.3-4-3.4-4-6.6c0-3.9,2.1-7,6.4-7c3.7,0,6.2,2.9,6.2,5.8V80.2z"></path> <path class="st82" d="M119.9,76.3h-4.3v-3.4h12.3v3.4h-4.3v22.1h-3.7V76.3z"></path> <path class="st82" d="M130.1,78.9c0-4.2,3.2-6.2,6.2-6.2s6.2,2.1,6.2,6.2v1.3h-3.7v-1.3c0-1.8-1.2-2.6-2.5-2.6s-2.5,0.8-2.5,2.6 v13.5c0,1.8,1.2,2.6,2.5,2.6c1.4,0,2.5-0.8,2.5-2.6v-4.8h-3v-3.2h6.7v8c0,4.2-3.2,6.2-6.2,6.2s-6.2-2.1-6.2-6.2V78.9z"></path> <path class="st82" d="M146.3,78.9c0-4.2,3.2-6.2,6.2-6.2s6.2,2.1,6.2,6.2v13.5c0,4.2-3.2,6.2-6.2,6.2s-6.2-2.1-6.2-6.2V78.9z M150,92.4c0,1.8,1.2,2.6,2.5,2.6s2.5-0.8,2.5-2.6V78.9c0-1.8-1.2-2.6-2.5-2.6c-1.4,0-2.5,0.8-2.5,2.6V92.4z"></path> <path class="st82" d="M162.8,72.9h11.1v3.4h-7.4v7.5h6.4v3.4h-6.4v7.5h7.4v3.7h-11.1V72.9z"></path> <path class="st82" d="M177,72.9h5.5c4.2,0,6.5,2.5,6.5,6.6v12c0,4.7-2.5,7-6.9,7H177V72.9z M180.7,95h1.7c2.1,0,2.9-1,2.9-3.2V79.5 c0-2-0.7-3.2-2.9-3.2h-1.7V95z"></path> </g> </svg> 