<?xml version="1.0" encoding="UTF-8"?>
<svg xmlns="http://www.w3.org/2000/svg" xmlns:xlink="http://www.w3.org/1999/xlink" version="1.1" id="centrum_HUB_logo_definitief.eps" x="0px" y="0px" viewBox="0 0 242 130" style="enable-background:new 0 0 242 130;" xml:space="preserve">
<style type="text/css">
	.st0{fill-rule:evenodd;clip-rule:evenodd;fill:#D6A519;}
	.st1{fill-rule:evenodd;clip-rule:evenodd;fill:#1A1A10;stroke:#1A1A10;stroke-width:1.91;stroke-miterlimit:10;}
</style>
<path class="st0" d="M34.41,38.69c1.81-0.5,3.22-1.04,4.21-1.62l-1.94-5.66c-0.41,0.18-0.82,0.36-1.31,0.59  c-0.49,0.22-1.04,0.4-1.67,0.54c-0.63,0.18-1.36,0.32-2.17,0.45c-0.81,0.14-1.72,0.18-2.76,0.18c-1.63,0-3.03-0.27-4.16-0.81  c-1.13-0.5-2.08-1.22-2.76-2.13c-0.73-0.9-1.22-1.99-1.54-3.26c-0.31-1.22-0.49-2.58-0.49-4.03c0-1.81,0.22-3.34,0.72-4.61  c0.5-1.27,1.13-2.31,1.95-3.12c0.77-0.77,1.72-1.36,2.76-1.72s2.08-0.54,3.16-0.54c1.63,0,3.08,0.18,4.39,0.54  c1.26,0.36,2.4,0.81,3.35,1.31l2.04-5.7c-0.23-0.13-0.63-0.36-1.17-0.63c-0.54-0.27-1.22-0.55-2.04-0.82  c-0.81-0.22-1.76-0.45-2.85-0.68c-1.09-0.18-2.31-0.27-3.62-0.27c-2.31,0-4.43,0.36-6.38,1.09c-1.94,0.72-3.66,1.76-5.06,3.16  c-1.4,1.4-2.53,3.12-3.35,5.16c-0.81,2.04-1.22,4.39-1.22,6.96c0,5.2,1.36,9.23,4.02,12.08c2.67,2.85,6.51,4.25,11.62,4.25  C30.52,39.42,32.6,39.19,34.41,38.69z"></path>
<polygon class="st0" points="65.18,38.78 65.18,32.86 50.03,32.86 50.03,25.3 62.56,25.3 62.56,19.52 50.03,19.52 50.03,13.36   64.15,13.36 64.15,7.44 42.98,7.44 42.98,38.78 "></polygon>
<path class="st0" d="M97.69,38.78V7.44h-7.01v18.5c-1.09-1.63-2.26-3.35-3.48-5.11c-1.22-1.77-2.49-3.44-3.71-5.11  c-1.26-1.63-2.48-3.17-3.71-4.61c-1.23-1.45-2.31-2.67-3.3-3.66h-5.75v31.34h6.97V18.25c2.66,3.12,5.15,6.43,7.51,9.91  c2.35,3.48,4.52,7.06,6.56,10.63H97.69z"></path>
<polygon class="st0" points="102.26,7.44 102.26,13.46 111.71,13.46 111.71,38.78 118.76,38.78 118.76,13.46 128.21,13.46   128.21,7.44 "></polygon>
<path class="st0" d="M137.52,7.26c-1.67,0.13-3.26,0.32-4.79,0.63v30.89h7.06V27.34h3.48c0.59,0.72,1.22,1.54,1.81,2.4  c0.63,0.9,1.22,1.85,1.85,2.85c0.63,0.99,1.22,2.03,1.81,3.07s1.18,2.08,1.77,3.12h7.87c-0.54-1.13-1.13-2.3-1.76-3.53  c-0.63-1.18-1.26-2.3-1.94-3.43c-0.68-1.09-1.4-2.13-2.08-3.17c-0.68-0.99-1.35-1.9-1.99-2.67c1.9-0.77,3.35-1.85,4.39-3.26  c0.99-1.36,1.49-3.12,1.49-5.34c0-3.53-1.27-6.15-3.75-7.82c-2.49-1.67-6.11-2.49-10.81-2.49C140.6,7.08,139.15,7.12,137.52,7.26z   M147.47,14.04c1.13,0.68,1.72,1.76,1.72,3.3c0,1.58-0.59,2.71-1.72,3.39c-1.13,0.68-3.04,1-5.7,1h-1.99v-8.5  c0.36-0.05,0.77-0.05,1.17-0.09c0.41-0.05,0.86-0.05,1.36-0.05C144.58,13.1,146.29,13.41,147.47,14.04z"></path>
<path class="st0" d="M180.38,38.51c1.63-0.59,2.99-1.44,4.02-2.58c1.04-1.08,1.85-2.4,2.35-3.93c0.49-1.54,0.77-3.21,0.77-5.07V7.44  h-7.05v18.9c0,2.53-0.55,4.34-1.58,5.39c-1.09,1.04-2.49,1.58-4.21,1.58c-0.85,0-1.63-0.14-2.3-0.36c-0.73-0.23-1.31-0.63-1.81-1.22  c-0.5-0.55-0.9-1.27-1.18-2.17c-0.31-0.86-0.45-1.94-0.45-3.21V7.44h-7.05v19.49c0,1.85,0.27,3.52,0.77,5.02  c0.5,1.54,1.27,2.84,2.31,3.93c1.04,1.13,2.35,1.99,3.94,2.58c1.58,0.63,3.48,0.95,5.7,0.95C176.81,39.42,178.75,39.1,180.38,38.51z  "></path>
<path class="st0" d="M195.84,7.44c-0.32,2.08-0.59,4.38-0.81,6.96c-0.27,2.58-0.5,5.29-0.68,8.05c-0.23,2.8-0.41,5.61-0.55,8.41  c-0.18,2.8-0.31,5.43-0.45,7.92h6.88c0.09-3.03,0.22-6.38,0.36-9.95c0.13-3.57,0.36-7.19,0.68-10.85c0.54,1.27,1.13,2.67,1.81,4.2  c0.68,1.54,1.31,3.08,1.99,4.61c0.63,1.53,1.27,2.98,1.85,4.39c0.63,1.41,1.13,2.63,1.58,3.62h4.93c0.41-0.99,0.91-2.21,1.54-3.62  c0.59-1.4,1.22-2.85,1.86-4.39c0.68-1.54,1.31-3.08,1.99-4.61c0.68-1.54,1.27-2.94,1.81-4.2c0.31,3.66,0.54,7.28,0.68,10.85  c0.13,3.57,0.27,6.92,0.36,9.95h6.88c-0.13-2.49-0.27-5.11-0.41-7.92c-0.18-2.8-0.36-5.61-0.54-8.41c-0.23-2.76-0.45-5.48-0.68-8.05  c-0.27-2.58-0.54-4.88-0.86-6.96h-6.42c-0.54,0.99-1.18,2.22-1.9,3.66c-0.68,1.49-1.45,3.07-2.22,4.75  c-0.77,1.72-1.54,3.48-2.26,5.25c-0.77,1.77-1.49,3.44-2.12,5.02c-0.68-1.58-1.4-3.25-2.17-5.02c-0.73-1.76-1.49-3.52-2.26-5.25  c-0.77-1.68-1.54-3.26-2.22-4.75c-0.73-1.45-1.36-2.67-1.9-3.66H195.84z"></path>
<path class="st1" d="M58.4,45.07h18.07v76.56H58.4V89.61H30.95v32.02H12.88V45.07h18.07v28.87H58.4V45.07z M122.87,123.14  c-5.36,0-10-0.76-13.92-2.27c-3.92-1.52-7.16-3.63-9.72-6.34c-2.57-2.71-4.46-5.94-5.68-9.68c-1.21-3.72-1.82-7.83-1.82-12.31V45.06  h18.07v46.07c0,3,0.33,5.54,1.01,7.62c0.67,2.07,1.57,3.74,2.72,5.03c1.13,1.27,2.51,2.18,4.13,2.74c1.64,0.56,3.45,0.84,5.43,0.84  c3.99,0,7.22-1.22,9.69-3.65c2.47-2.44,3.71-6.63,3.71-12.58V45.06h18.07v47.48c0,4.49-0.63,8.61-1.88,12.37  c-1.26,3.78-3.19,7.02-5.79,9.73c-2.6,2.71-5.9,4.81-9.9,6.29C133,122.41,128.29,123.14,122.87,123.14z M187.41,88.82v18.47  c1.05,0.11,2.22,0.2,3.51,0.27l4.78,0.11c4.99,0,9.02-0.71,12.07-2.13c2.91-1.35,4.37-3.88,4.37-7.57c0-3.28-1.22-5.61-3.65-6.99  c-2.53-1.44-6.18-2.16-10.95-2.16H187.41z M195.54,122.64L195.54,122.64l-12.39-0.38l-0.01,0c-4.13-0.26-8.43-0.86-12.87-1.81  l-0.43-0.09V46.28l0.44-0.08c3.48-0.65,7.31-1.15,11.49-1.48c4.14-0.33,8-0.49,11.59-0.49c4.82,0,9.26,0.35,13.32,1.04  c4.1,0.7,7.63,1.9,10.58,3.6c2.99,1.72,5.32,3.98,7,6.78c1.68,2.8,2.52,6.26,2.52,10.36c0,5.91-2.69,10.62-8.06,14.16  c4.38,1.83,7.4,4.24,9.08,7.25c1.79,3.2,2.68,6.81,2.68,10.83c0,8.11-2.96,14.21-8.89,18.31  C215.74,120.61,207.05,122.64,195.54,122.64z M187.41,74.76h7.74c5.13,0,8.77-0.65,10.94-1.94c2.08-1.24,3.12-3.25,3.12-6.01  c0-2.83-1.07-4.81-3.2-5.95c-2.24-1.19-5.57-1.79-9.98-1.79l-4.68,0.06h0c-1.21,0-2.52,0.07-3.93,0.22V74.76z"></path>
</svg>
