<?xml version="1.0" encoding="UTF-8"?><svg id="a" xmlns="http://www.w3.org/2000/svg" viewBox="0 0 396.8504 396.8504"><defs><style>.b{fill:#f4b800;}.c{fill:#fff;}.d{fill:#2f3e4a;}</style></defs><path class="d" d="m0,0h363.6689c16.6461,0,33.1815,16.5354,33.1815,36.7454v323.3596c0,20.21-16.5354,36.7454-36.7454,36.7454H36.7454c-20.21,0-36.7454-16.5354-36.7454-36.7454V0Z"/><rect class="c" x="284.0281" y="122.1794" width="17.66" height="71.1959"/><rect class="c" x="308.0453" y="181.3114" width="17.66" height="65.6944" transform="translate(102.7166 531.0339) rotate(-90)"/><rect class="c" x="51.2668" y="122.1796" width="17.66" height="100.809"/><polygon class="c" points="217.3826 178.0494 235.3959 122.1507 214.9578 122.1507 197.3664 178.0494 217.3826 178.0494"/><polygon class="b" points="183.2336 222.9567 202.9107 222.9567 171.1869 122.1507 150.7483 122.1507 183.2336 222.9567"/><path class="c" d="m105.0015,162.5954c2.2322-3.9107,3.5259-8.4228,3.5259-13.2389,0-14.7847-12.0274-26.8141-26.8121-26.8141v16.0917c5.9119,0,10.7224,4.8106,10.7224,10.7224s-4.8106,10.7204-10.7224,10.7204v16.0917h10.9534c8.5047,0,15.4241,6.9183,15.4241,15.4241s-6.9194,15.4221-15.4241,15.4221h-10.9534v16.0917h10.9534c17.3765,0,31.5138-14.1372,31.5138-31.5138,0-13.0017-7.9166-24.187-19.1809-28.9973Z"/><polygon class="b" points="59.6577 259.0495 54.6506 251.2694 51.2494 251.2694 51.2494 268.3739 54.4896 268.3739 54.4896 256.7958 59.4694 264.2556 59.7489 264.2556 64.7774 256.7467 64.7774 268.3739 68.0661 268.3739 68.0661 251.2694 64.6648 251.2694 59.6577 259.0495"/><path class="b" d="m96.234,251.1498l-7.4195,16.9837-.1054.2404h3.3929l1.7243-4.0467h7.6978l1.6556,3.9413.045.1054h3.4889l-7.5249-17.2241h-2.9548Zm4.0644,10.2238h-5.2475l2.6137-6.0978,2.6338,6.0978Z"/><polygon class="b" points="142.4917 251.2694 138.3716 251.2694 130.6442 259.4385 130.6442 251.2694 127.3555 251.2694 127.3555 268.3739 130.6442 268.3739 130.6442 263.4112 133.0649 260.9224 138.6689 268.3058 138.7198 268.3739 142.7439 268.3739 135.3197 258.6611 142.4917 251.2694"/><polygon class="b" points="166.2316 261.2386 174.6352 261.2386 174.6352 258.2614 166.2316 258.2614 166.2316 254.2467 175.7129 254.2467 175.7129 251.2694 162.9429 251.2694 162.9429 268.3739 175.8325 268.3739 175.8325 265.3966 166.2316 265.3966 166.2316 261.2386"/><polygon class="b" points="200.4772 251.2694 197.1885 251.2694 197.1885 268.3739 209.2882 268.3739 209.2882 265.3487 200.4772 265.3487 200.4772 251.2694"/><path class="b" d="m236.2091,251.1498l-7.4195,16.9837-.1054.2404h3.3929l1.7243-4.0467h7.6978l1.6556,3.9413.045.1054h3.4889l-7.5249-17.2241h-2.9548Zm4.0644,10.2238h-5.2475l2.6137-6.0978,2.6338,6.0978Z"/><path class="b" d="m272.9926,251.1498l-7.4195,16.9837-.1054.2404h3.3929l1.7243-4.0467h7.6978l1.6556,3.9413.045.1054h3.4889l-7.5249-17.2241h-2.9548Zm4.0644,10.2238h-5.2475l2.6137-6.0978,2.6338,6.0978Z"/><path class="b" d="m318.1549,256.7804v-.048c0-1.4774-.4974-2.7688-1.4413-3.7382-1.1535-1.1286-2.8683-1.7249-4.9562-1.7249h-7.6421v17.1045h3.2887v-5.8426h3.4261l4.068,5.7698.0509.0728h3.9176l-4.5796-6.4223c2.4964-.8029,3.8678-2.6315,3.8678-5.1711Zm-10.7508-2.4858h4.1142c2.1281,0,3.2994.9255,3.2994,2.606v.0474c0,1.5976-1.2861,2.6303-3.2757,2.6303h-4.1378v-5.2836Z"/><path class="b" d="m346.3299,258.3135c-3.2828-.7781-3.8667-1.3228-3.8667-2.4668v-.048c0-1.086,1.0279-1.8155,2.558-1.8155,1.4685,0,2.9228.5531,4.4469,1.69l.1409.1054,1.7752-2.5024-.1255-.1013c-1.7977-1.4436-3.8216-2.1453-6.189-2.1453-3.4699,0-5.8941,2.0695-5.8941,5.0326v.048c0,3.1715,2.0938,4.2977,5.7106,5.1717,3.1052.7165,3.6511,1.343,3.6511,2.3946v.048c0,1.176-1.0978,1.9357-2.7973,1.9357-1.8747,0-3.4723-.659-5.1788-2.137l-.1315-.1143-1.9931,2.368.1243.1107c1.9979,1.7829,4.4552,2.7256,7.1068,2.7256,3.7411,0,6.1582-2.0316,6.1582-5.1759v-.048c0-2.6557-1.5917-4.126-5.4962-5.0758Z"/></svg>