<svg width="239" height="199" viewBox="0 0 239 199" fill="none" xmlns="http://www.w3.org/2000/svg">
<path d="M212.031 0.3125L208.201 0.958182L3.80691 35.4362L0 36.0796L0.632968 39.8832L26.3319 194.408L26.9694 198.234L30.7968 197.589L235.191 163.108L239 162.467L238.367 158.664L212.668 4.13657L212.031 0.3125Z" fill="white"/>
<path d="M234.547 159.296L30.1526 193.774L4.45361 39.2489L208.848 4.7709L234.547 159.296Z" fill="#159DD9"/>
<path d="M63.7593 52.6013C63.5088 51.1235 62.1085 50.1277 60.6286 50.3778C59.1486 50.6279 58.1513 52.0261 58.4018 53.5039L59.7474 61.4681C59.7474 61.4795 59.7474 61.4908 59.752 61.5045C60.0024 62.9823 61.4027 63.9781 62.8827 63.728C64.3626 63.4779 65.3599 62.0797 65.1094 60.6019C65.1094 60.5905 65.1049 60.5791 65.1026 60.5678L63.757 52.6036L63.7593 52.6013Z" fill="#F4FD02"/>
<path d="M42.6981 92.0561C44.178 91.806 45.1753 90.4078 44.9249 88.93C44.6744 87.4522 43.2741 86.4564 41.7942 86.7065L33.8183 88.0501C33.8069 88.0547 33.7956 88.0547 33.7819 88.057C32.3019 88.3071 31.3047 89.7053 31.5551 91.1831C31.8056 92.6609 33.2058 93.6567 34.6858 93.4066C34.6972 93.4066 34.7086 93.402 34.72 93.3998L42.6958 92.0584L42.6981 92.0561Z" fill="#F4FD02"/>
<path d="M93.4946 66.5562C94.6512 65.6014 94.8129 63.8917 93.8589 62.7367C92.9049 61.5818 91.1904 61.4203 90.0337 62.373L83.7997 67.5179C83.7997 67.5179 83.7792 67.5339 83.7701 67.5407C82.6134 68.4956 82.4518 70.2053 83.4058 71.3602C84.3621 72.5152 86.0743 72.6766 87.2309 71.724C87.24 71.7171 87.2491 71.708 87.2582 71.699L93.4923 66.5562H93.4946Z" fill="#F4FD02"/>
<path d="M49.2758 103.046C50.4325 102.091 50.5941 100.382 49.6401 99.2268C48.6861 98.0719 46.9716 97.9105 45.815 98.8631L39.5809 104.008C39.5809 104.008 39.5604 104.024 39.5513 104.031C38.3947 104.986 38.233 106.695 39.187 107.85C40.1433 109.005 41.8555 109.167 43.0122 108.214C43.0213 108.207 43.0304 108.198 43.0395 108.189L49.2735 103.046H49.2758Z" fill="#F4FD02"/>
<path d="M80.5009 55.6001C81.0245 54.1974 80.3096 52.6332 78.9025 52.1103C77.4977 51.5873 75.9312 52.3012 75.4075 53.7063L72.5842 61.2748C72.5797 61.2862 72.5751 61.2976 72.5705 61.3089C72.0469 62.7117 72.7618 64.2759 74.1689 64.7988C75.5737 65.3217 77.1402 64.6078 77.6639 63.2028C77.6684 63.1914 77.6707 63.1801 77.6753 63.1687L80.4986 55.6001H80.5009Z" fill="#F4FD02"/>
<path d="M60.476 109.278C60.9996 107.875 60.2847 106.311 58.8776 105.788C57.4728 105.265 55.9063 105.979 55.3826 107.384L52.5593 114.953C52.5547 114.964 52.5502 114.976 52.5456 114.987C52.022 116.39 52.7369 117.954 54.144 118.477C55.5488 119 57.1153 118.286 57.639 116.881C57.6435 116.869 57.6458 116.858 57.6504 116.847L60.4737 109.278H60.476Z" fill="#F4FD02"/>
<path d="M48.7478 68.0727C49.704 69.2276 51.4162 69.3891 52.5729 68.4364C53.7295 67.4838 53.8912 65.7719 52.9372 64.6169L47.7846 58.392C47.7846 58.392 47.771 58.3738 47.7642 58.3647C46.8079 57.2098 45.0957 57.0484 43.939 58.001C42.7824 58.9558 42.6207 60.6655 43.5747 61.8205C43.5816 61.8296 43.5907 61.8387 43.5998 61.8478L48.7523 68.075L48.7478 68.0727Z" fill="#F4FD02"/>
<path d="M42.5049 79.2562C43.9097 79.7791 45.4762 79.0652 45.9999 77.6601C46.5236 76.2574 45.8086 74.6932 44.4015 74.1703L36.8218 71.3511C36.8218 71.3511 36.7991 71.342 36.7877 71.3375C35.3829 70.8146 33.8164 71.5285 33.2927 72.9335C32.769 74.3363 33.484 75.9004 34.8911 76.4234C34.9025 76.4279 34.9138 76.4302 34.9252 76.4347L42.5049 79.2562Z" fill="#F4FD02"/>
<path d="M66.5231 104.231C76.9966 104.231 85.4871 95.7528 85.4871 85.2947C85.4871 74.8365 76.9966 66.3585 66.5231 66.3585C56.0496 66.3585 47.5591 74.8365 47.5591 85.2947C47.5591 95.7528 56.0496 104.231 66.5231 104.231Z" fill="#F4FD02"/>
<path d="M135.341 94.4093L136.327 91.6014C136.377 91.4605 136.302 91.3059 136.161 91.2559C136.02 91.2059 135.865 91.2809 135.815 91.4218L134.943 93.9068L133.304 91.8447C133.21 91.7265 133.039 91.7083 132.921 91.8015C132.803 91.8947 132.784 92.0652 132.878 92.1835L134.731 94.5138L125.458 120.964L132.889 119.714L137.215 107.373L145.355 117.615L152.787 116.365L135.339 94.4115L135.341 94.4093Z" fill="#F4FD02"/>
<path d="M87.1675 73.9202L101.619 71.4875L102.174 74.7751L91.6415 76.5484L92.3701 80.8681L102.167 79.2198L102.718 82.48L92.9211 84.1283L93.8159 89.4279L104.702 87.5955L105.257 90.883L90.453 93.3748L87.1675 73.9179V73.9202Z" fill="white"/>
<path d="M110.203 73.4223L104.433 74.3931L103.877 71.1056L119.362 68.4978L119.918 71.7854L114.121 72.7607L116.851 88.93L112.933 89.5894L110.203 73.42V73.4223Z" fill="white"/>
<path d="M125.895 67.3997L127.675 77.9443C128.249 81.341 128.449 81.8662 129.44 82.5937C130.244 83.2121 131.311 83.3963 132.616 83.1757C134.656 82.8324 135.735 81.757 135.763 80.1019C135.774 79.3448 135.742 78.9879 135.385 76.8667L133.568 66.1061L137.486 65.4468L139.212 75.664C139.718 78.6537 139.84 79.8905 139.699 81.2C139.597 82.2504 139.123 83.253 138.42 84.0692C137.238 85.3583 135.656 86.0995 133.206 86.511C130.348 86.993 128.374 86.7383 126.842 85.6266C125.093 84.383 124.481 82.9211 123.725 78.4377L121.972 68.0568L125.89 67.3975L125.895 67.3997Z" fill="white"/>
<path d="M139.638 65.0853L143.666 64.4078L148.834 77.2873L148.889 77.2782L150.168 63.3119L154.85 62.523L160.546 75.5367L160.601 75.5276L161.245 61.4454L165.219 60.7769L163.768 81.0318L159.576 81.7366L153.286 67.8431L153.231 67.8522L151.849 83.037L147.575 83.7555L139.636 65.0807L139.638 65.0853Z" fill="white"/>
<path d="M167.288 60.4314L181.739 57.9987L182.295 61.2862L171.762 63.0596L172.491 67.3793L182.288 65.731L182.839 68.9912L173.042 70.6395L173.937 75.9391L184.822 74.1066L185.378 77.3942L170.574 79.8859L167.288 60.4291V60.4314Z" fill="white"/>
<path d="M78.479 157.916L79.0323 140.094L87.2722 138.707C88.3583 138.525 89.3305 138.839 90.1866 139.65C91.02 140.446 91.4207 141.455 91.3865 142.676C91.3478 143.858 91.0746 144.902 90.5669 145.805C90.0568 146.687 89.3875 147.278 88.561 147.578C89.2303 147.644 89.7814 148.19 90.214 149.213C90.6466 150.236 90.8446 151.468 90.8082 152.909C90.7877 153.851 90.7832 154.478 90.7968 154.794C90.8173 155.269 90.8834 155.606 90.9972 155.806L89.8337 156.001C89.6379 155.794 89.5172 155.367 89.4671 154.717L89.4922 152.202C89.5218 151.081 89.2599 150.12 88.7044 149.315C88.1534 148.531 87.509 148.201 86.7713 148.324L79.8998 149.481L79.6448 157.716L78.479 157.911V157.916ZM86.7918 147.219C87.7618 147.055 88.5701 146.58 89.2167 145.793C89.8793 144.984 90.2185 144.049 90.2413 142.99C90.2618 142.051 89.9498 141.264 89.3055 140.637C88.6406 140.012 87.8825 139.771 87.0286 139.914L80.1571 141.071L79.9225 148.376L86.7941 147.219H86.7918Z" fill="white"/>
<path d="M93.9595 155.31L94.5127 137.488L105.779 135.592L105.738 136.765L95.6352 138.466L95.4144 145.32L104.643 143.768L104.62 144.877L95.3916 146.43L95.1685 153.971L105.271 152.271L105.225 153.414L93.9595 155.31Z" fill="white"/>
<path d="M108.843 150.413C107.27 148.785 106.518 146.759 106.589 144.336C106.648 141.617 107.456 139.248 109.012 137.231C110.567 135.217 112.5 134.014 114.811 133.625C116.596 133.325 118.094 133.571 119.308 134.364C120.517 135.137 121.245 136.331 121.498 137.943L120.334 138.138C120.161 136.992 119.528 136.081 118.436 135.408C117.347 134.753 116.122 134.542 114.765 134.771C112.787 135.105 111.136 136.149 109.815 137.906C108.499 139.682 107.812 141.762 107.755 144.143C107.698 146.284 108.329 148.071 109.649 149.504C110.972 150.954 112.507 151.534 114.253 151.241C115.844 150.972 117.183 150.27 118.267 149.128C119.333 147.992 119.956 146.612 120.143 144.986L121.307 144.791C121.081 146.762 120.325 148.435 119.039 149.806C117.752 151.179 116.15 152.027 114.228 152.35C112.19 152.693 110.394 152.05 108.841 150.418L108.843 150.413Z" fill="white"/>
<path d="M123.438 150.347L123.991 132.525L132.231 131.138C133.317 130.956 134.289 131.27 135.145 132.082C135.978 132.877 136.379 133.887 136.345 135.108C136.306 136.29 136.033 137.333 135.525 138.236C135.015 139.118 134.346 139.709 133.519 140.009C134.189 140.075 134.74 140.621 135.172 141.644C135.605 142.667 135.803 143.899 135.767 145.341C135.746 146.282 135.742 146.91 135.755 147.226C135.776 147.701 135.842 148.037 135.956 148.237L134.792 148.433C134.596 148.226 134.476 147.798 134.426 147.148L134.451 144.634C134.48 143.513 134.218 142.551 133.663 141.746C133.112 140.962 132.468 140.632 131.73 140.755L124.858 141.912L124.601 150.147L123.438 150.343V150.347ZM131.75 139.65C132.72 139.486 133.529 139.011 134.175 138.225C134.838 137.415 135.177 136.481 135.2 135.421C135.22 134.482 134.908 133.698 134.264 133.068C133.599 132.443 132.841 132.202 131.987 132.345L125.116 133.503L124.881 140.807L131.75 139.65Z" fill="white"/>
<path d="M138.918 147.742L139.472 129.919L150.738 128.023L150.697 129.196L140.594 130.897L140.373 137.752L149.601 136.199L149.579 137.308L140.351 138.861L140.127 146.403L150.23 144.702L150.184 145.846L138.918 147.742Z" fill="white"/>
<path d="M150.673 145.764L158.069 126.791L159.524 126.546L165.723 143.231L164.385 143.456L162.345 138.12L154.369 139.464L151.983 145.545L150.673 145.766V145.764ZM161.955 137.047L158.672 128.062L154.765 138.256L161.955 137.045V137.047Z" fill="white"/>
<path d="M171.89 142.192L172.402 125.543L166.491 126.539L166.532 125.366L179.574 123.169L179.533 124.342L173.565 125.347L173.053 141.996L171.89 142.192Z" fill="white"/>
<path d="M180.908 140.673L181.461 122.851L182.625 122.656L182.072 140.478L180.908 140.673Z" fill="white"/>
<path d="M185.706 139.866L186.259 122.044L197.525 120.148L197.484 121.321L187.381 123.022L187.16 129.876L196.389 128.323L196.366 129.433L187.138 130.986L186.915 138.527L197.017 136.826L196.971 137.97L185.706 139.866Z" fill="white"/>
<path d="M73.265 122.856C74.1507 125.277 75.7126 126.245 78.1352 125.836C80.4212 125.452 81.7941 124.131 81.5232 122.526C81.3774 121.655 80.7809 121.114 79.7062 120.875C78.9799 120.718 78.5268 120.682 76.0883 120.507C73.0532 120.264 71.6006 119.782 70.3597 118.565C69.5605 117.806 69.0551 116.801 68.8706 115.714C68.3105 112.4 70.7012 109.817 75.0569 109.083C79.7108 108.298 82.7367 109.969 83.5086 113.725L79.5901 114.553C78.923 112.597 77.7527 111.956 75.5487 112.327C73.561 112.661 72.3838 113.643 72.5819 114.81C72.6684 115.326 73.051 115.764 73.5633 115.985C74.3169 116.306 75.239 116.458 77.3611 116.603C80.7832 116.81 82.2222 117.21 83.5222 118.277C84.5263 119.086 85.1866 120.343 85.4439 121.867C85.8105 124.04 84.8588 126.352 83.1215 127.512C81.9717 128.321 80.4371 128.858 78.668 129.156C73.7955 129.976 70.7855 128.219 69.515 123.849L73.265 122.853V122.856Z" fill="white"/>
<path d="M91.3139 110.065L85.5443 111.036L84.9888 107.748L100.474 105.14L101.029 108.428L95.2324 109.403L97.9623 125.572L94.0439 126.232L91.3139 110.062V110.065Z" fill="white"/>
<path d="M103.115 104.697L111.389 103.303C114.301 102.812 115.703 102.828 116.937 103.346C118.504 104.006 119.665 105.57 119.982 107.446C120.492 110.463 118.971 112.729 115.724 113.725L115.733 113.78C116.985 114.239 117.573 114.56 118.486 115.328C119.207 115.96 119.676 116.412 120.89 117.802L123.9 121.207L119.219 121.996L115.644 118.238C113.939 116.428 113.572 116.071 112.998 115.664C112.616 115.394 112.195 115.212 111.817 115.137C111.209 115.016 111.013 115.021 109.761 115.232L108.943 115.369L110.316 123.494L106.398 124.154L103.112 104.697H103.115ZM108.424 112.27L111.336 111.779L112.693 111.522C115.437 111.033 116.284 110.247 115.972 108.398C115.683 106.686 114.588 106.172 112.215 106.543L110.665 106.804L107.589 107.323L108.424 112.268V112.27Z" fill="white"/>
<path d="M153.055 96.2894L156.892 95.6438L167.006 107.3L167.06 107.291L164.868 94.3024L168.515 93.6885L171.801 113.145L167.855 113.809L157.903 102.433L157.848 102.442L159.991 115.132L156.343 115.746L153.057 96.2894H153.055Z" fill="white"/>
<path d="M179.833 91.781C182.418 91.3468 183.545 91.3786 184.965 91.8401C186.065 92.213 187.101 92.8769 187.928 93.7999C189.342 95.3777 190.175 97.333 190.649 100.134C191.052 102.526 190.96 104.301 190.355 106.025C189.904 107.33 189.189 108.4 188.315 109.192C187.097 110.263 185.785 110.792 183.337 111.204L175.935 112.45L172.65 92.9928L179.836 91.7833L179.833 91.781ZM179.298 108.498L182.265 107.998C184.305 107.655 184.913 107.441 185.664 106.754C186.81 105.752 187.097 103.803 186.58 100.732C186.186 98.3947 185.687 97.1079 184.761 96.0916C184.287 95.6119 183.693 95.2368 183.053 95.0935C182.058 94.8412 181.587 94.8662 178.893 95.3186L177.124 95.6164L179.298 108.498Z" fill="white"/>
<path d="M65.8011 71.2624C69.2961 70.6736 70.8102 70.6145 72.3425 70.9032C73.2737 71.0965 74.1685 71.533 75.0246 72.2082C76.3703 73.2313 77.24 74.6841 77.5155 76.3142C77.9504 78.8947 76.853 81.4183 74.7104 82.8324C78.1007 83.2371 80.4026 85.3083 80.9285 88.4185C81.3452 90.8853 80.6849 93.4521 79.1685 95.114C77.7204 96.7237 76.2018 97.4466 72.3266 98.0991L68.7564 98.6994L59.526 100.254L54.9404 73.0949L65.8056 71.2647L65.8011 71.2624ZM62.2309 82.9802L65.8398 82.3732L67.9664 82.0139L68.1553 81.9821C71.3839 81.4387 72.7 80.202 72.3288 78.0035C72.0852 76.562 71.0583 75.564 69.7901 75.4662C68.9226 75.4162 68.3079 75.4821 64.3188 76.1528L61.1654 76.6825L62.2287 82.9802H62.2309ZM64.2164 94.7412L69.3074 93.884L70.8261 93.6271C74.4281 92.9814 75.669 91.7583 75.2455 89.2551C75.0269 87.966 74.3165 86.993 73.2715 86.5837C72.1376 86.1108 71.0857 86.1336 67.4381 86.7474L62.9937 87.4954L64.2164 94.7412Z" fill="#159DD9"/>
</svg>
