<svg xmlns="http://www.w3.org/2000/svg" xmlns:xlink="http://www.w3.org/1999/xlink" id="Laag_1" x="0px" y="0px" viewBox="0 0 612 517.3" style="enable-background:new 0 0 612 517.3;" xml:space="preserve"><style type="text/css">	.st0{fill:#424241;}	.st1{fill:#1F5F2B;}</style><g>	<path class="st0" d="M202.2,441.8c-0.3-0.6-0.4-1.2-0.4-1.8c0-0.6,0.3-1.2,0.7-1.8l4.3-6.3c0.1-0.1,0.1-0.1,0.2,0l0.7,0.5  c0.1,0.1,0.1,0.1,0,0.2l-4.3,6.3c-0.4,0.6-0.6,1.3-0.4,1.9c0.1,0.7,0.5,1.2,1.2,1.7c0.7,0.5,1.3,0.6,2,0.5c0.7-0.1,1.2-0.5,1.6-1.1  l4.3-6.3c0.1-0.1,0.1-0.1,0.2,0l0.7,0.5c0.1,0.1,0.1,0.1,0,0.2l-4.3,6.3c-0.4,0.6-0.9,1-1.4,1.3s-1.2,0.4-1.8,0.3  c-0.6-0.1-1.3-0.3-1.9-0.8C203,442.9,202.5,442.4,202.2,441.8z"></path>	<path class="st0" d="M223,442l0.7,0.4c0.1,0.1,0.1,0.1,0.1,0.2l-5.4,9.4c-0.1,0.1-0.1,0.1-0.2,0.1l-0.7-0.4c-0.1,0-0.1-0.1-0.1-0.2  l-0.3-10.4c0,0,0-0.1,0-0.1c0,0,0,0-0.1,0l-4.4,7.7c-0.1,0.1-0.1,0.1-0.2,0.1l-0.7-0.4c-0.1-0.1-0.1-0.1-0.1-0.2l5.4-9.4  c0.1-0.1,0.1-0.1,0.2-0.1l0.7,0.4c0.1,0,0.1,0.1,0.1,0.2l0.3,10.4c0,0,0,0.1,0,0.1c0,0,0,0,0.1,0l4.4-7.7  C222.9,442,223,441.9,223,442z"></path>	<path class="st0" d="M223.3,454.6l4.9-9.7c0-0.1,0.1-0.1,0.2-0.1l0.7,0.4c0.1,0,0.1,0.1,0.1,0.2l-4.9,9.7c0,0.1-0.1,0.1-0.2,0.1  l-0.7-0.4C223.3,454.8,223.3,454.7,223.3,454.6z"></path>	<path class="st0" d="M239.8,451.1l-5.4-2.4c0,0-0.1,0-0.1,0l-1.6,3.6c0,0,0,0.1,0,0.1l3.8,1.7c0.1,0,0.1,0.1,0.1,0.2l-0.3,0.6  c0,0.1-0.1,0.1-0.2,0.1l-3.8-1.7c0,0-0.1,0-0.1,0l-1.6,3.7c0,0,0,0.1,0,0.1l5.4,2.4c0.1,0,0.1,0.1,0.1,0.2l-0.3,0.6  c0,0.1-0.1,0.1-0.2,0.1l-6.3-2.8c-0.1,0-0.1-0.1-0.1-0.2l4.4-10c0-0.1,0.1-0.1,0.2-0.1l6.3,2.8c0.1,0,0.1,0.1,0.1,0.2L240,451  C239.9,451.1,239.9,451.2,239.8,451.1z"></path>	<path class="st0" d="M240.6,462.2l3.7-10.2c0-0.1,0.1-0.1,0.2-0.1l0.8,0.3c0.1,0,0.1,0.1,0.1,0.2l-1.8,5.1c0,0,0,0,0,0.1  c0,0,0,0,0.1,0l6.6-3.5c0.1,0,0.1,0,0.2,0l0.9,0.3c0.1,0,0.1,0.1,0.1,0.1c0,0,0,0.1-0.1,0.1l-5.2,2.9c0,0,0,0,0,0.1l1.9,7.4l0,0.1  c0,0.1-0.1,0.1-0.2,0.1l-0.9-0.3c-0.1,0-0.1-0.1-0.1-0.2l-1.7-6.5c0,0,0,0,0,0c0,0,0,0-0.1,0l-2,1c0,0,0,0-0.1,0.1l-1.3,3.6  c0,0.1-0.1,0.1-0.2,0.1l-0.8-0.3C240.6,462.4,240.6,462.3,240.6,462.2z"></path>	<path class="st0" d="M261.9,458.5l-5.7-1.6c0,0-0.1,0-0.1,0l-1.1,3.8c0,0,0,0.1,0,0.1l4,1.1c0.1,0,0.1,0.1,0.1,0.2l-0.2,0.6  c0,0.1-0.1,0.1-0.2,0.1l-4-1.1c0,0-0.1,0-0.1,0l-1.1,3.9c0,0,0,0.1,0,0.1l5.7,1.6c0.1,0,0.1,0.1,0.1,0.2l-0.2,0.6  c0,0.1-0.1,0.1-0.2,0.1l-6.7-1.9c-0.1,0-0.1-0.1-0.1-0.2l3-10.5c0-0.1,0.1-0.1,0.2-0.1l6.7,1.9c0.1,0,0.1,0.1,0.1,0.2l-0.2,0.6  C262,458.5,262,458.5,261.9,458.5z"></path>	<path class="st0" d="M278.3,460.9l0.8,0.1c0.1,0,0.1,0.1,0.1,0.2l-1.9,10.7c0,0.1-0.1,0.1-0.2,0.1l-0.8-0.1c-0.1,0-0.1-0.1-0.2-0.1  l-3.8-9.7c0,0,0,0,0,0c0,0,0,0,0,0l-1.5,8.7c0,0.1-0.1,0.1-0.2,0.1l-0.8-0.1c-0.1,0-0.1-0.1-0.1-0.2l1.9-10.7  c0-0.1,0.1-0.1,0.2-0.1l0.8,0.1c0.1,0,0.1,0.1,0.2,0.1l3.8,9.7c0,0,0,0,0,0c0,0,0,0,0,0l1.5-8.7  C278.1,460.9,278.2,460.9,278.3,460.9z"></path>	<path class="st0" d="M289.2,473.4l-0.4-2.1c0,0,0-0.1-0.1-0.1l-4.8-0.5c0,0-0.1,0-0.1,0l-0.9,1.9c0,0.1-0.1,0.1-0.2,0.1l-0.9-0.1  c-0.1,0-0.2-0.1-0.1-0.2l4.7-10.5c0-0.1,0.1-0.1,0.2-0.1l1.1,0.1c0.1,0,0.2,0.1,0.2,0.1l2.4,11.2l0,0.1c0,0.1-0.1,0.1-0.2,0.1  l-0.9-0.1C289.3,473.6,289.3,473.5,289.2,473.4z M284.4,469.9C284.4,469.9,284.4,469.9,284.4,469.9l4.2,0.5c0,0,0,0,0.1,0  c0,0,0,0,0-0.1l-1.4-6.7c0,0,0,0,0,0c0,0,0,0-0.1,0L284.4,469.9C284.4,469.8,284.4,469.9,284.4,469.9z"></path>	<path class="st0" d="M301.4,463.2l0,0.7c0,0.1-0.1,0.2-0.2,0.2l-3.1-0.2c0,0-0.1,0-0.1,0.1l-0.5,10c0,0.1-0.1,0.2-0.2,0.2l-0.8,0  c-0.1,0-0.2-0.1-0.2-0.2l0.5-10c0,0,0-0.1-0.1-0.1l-3-0.1c-0.1,0-0.2-0.1-0.2-0.2l0-0.7c0-0.1,0.1-0.2,0.2-0.2l7.4,0.4  C301.4,463.1,301.4,463.1,301.4,463.2z"></path>	<path class="st0" d="M307.4,474c-0.6-0.3-1-0.7-1.4-1.2c-0.3-0.5-0.5-1.2-0.5-1.9l-0.1-7.6c0-0.1,0.1-0.2,0.2-0.2l0.8,0  c0.1,0,0.2,0.1,0.2,0.2l0.1,7.6c0,0.8,0.3,1.4,0.8,1.8c0.5,0.5,1.1,0.7,1.9,0.7s1.4-0.3,1.9-0.7c0.5-0.5,0.7-1.1,0.7-1.9l-0.1-7.6  c0-0.1,0.1-0.2,0.2-0.2l0.8,0c0.1,0,0.2,0.1,0.2,0.2l0.1,7.6c0,0.7-0.1,1.3-0.4,1.9c-0.3,0.5-0.7,1-1.3,1.3c-0.6,0.3-1.2,0.5-2,0.5  C308.6,474.4,307.9,474.3,307.4,474z"></path>	<path class="st0" d="M320.3,473.5c-0.6-0.2-1.1-0.6-1.4-1.1c-0.4-0.5-0.6-1.1-0.6-1.8l-0.6-7.6c0-0.1,0-0.2,0.1-0.2l0.8-0.1  c0.1,0,0.2,0,0.2,0.1l0.6,7.6c0.1,0.8,0.4,1.3,0.9,1.8c0.5,0.4,1.2,0.6,2,0.5c0.8-0.1,1.4-0.4,1.9-0.9c0.4-0.5,0.6-1.1,0.6-1.9  l-0.6-7.6c0-0.1,0-0.2,0.1-0.2l0.8-0.1c0.1,0,0.2,0,0.2,0.1l0.6,7.6c0.1,0.7,0,1.3-0.3,1.9c-0.3,0.6-0.7,1-1.2,1.4  c-0.5,0.3-1.2,0.5-2,0.6C321.6,473.8,320.9,473.8,320.3,473.5z"></path>	<path class="st0" d="M337.8,471.6l-3.1-4.5c0,0,0,0-0.1,0l-2.7,0.4c0,0-0.1,0-0.1,0.1l0.7,4.8c0,0.1,0,0.2-0.1,0.2l-0.8,0.1  c-0.1,0-0.2,0-0.2-0.1l-1.6-10.8c0-0.1,0-0.2,0.1-0.2l4.1-0.6c0.9-0.1,1.7,0,2.3,0.5c0.6,0.5,1,1.2,1.2,2.1c0.1,0.7,0,1.4-0.3,2  c-0.3,0.6-0.8,1-1.5,1.2c0,0,0,0.1,0,0.1l3.1,4.5c0,0,0,0,0,0.1c0,0.1,0,0.1-0.1,0.1l-0.8,0.1C337.9,471.7,337.9,471.7,337.8,471.6  z M331.2,462.5l0.6,4c0,0,0,0.1,0.1,0.1l2.9-0.4c0.6-0.1,1.1-0.4,1.4-0.8s0.4-1,0.3-1.6c-0.1-0.6-0.4-1.1-0.8-1.4  c-0.4-0.3-1-0.4-1.6-0.4L331.2,462.5C331.2,462.4,331.2,462.4,331.2,462.5z"></path>	<path class="st0" d="M347.7,458.3l0.8-0.2c0.1,0,0.2,0,0.2,0.1l2.4,10.6c0,0.1,0,0.2-0.1,0.2l-0.8,0.2c-0.1,0-0.2,0-0.2-0.1  l-1.1-4.8c0,0,0-0.1-0.1,0l-5,1.1c0,0-0.1,0,0,0.1l1.1,4.8c0,0.1,0,0.2-0.1,0.2l-0.8,0.2c-0.1,0-0.2,0-0.2-0.1l-2.4-10.6  c0-0.1,0-0.2,0.1-0.2l0.8-0.2c0.1,0,0.2,0,0.2,0.1l1.1,4.7c0,0,0,0.1,0.1,0l5-1.1c0,0,0.1,0,0-0.1l-1.1-4.7  C347.6,458.4,347.6,458.3,347.7,458.3z"></path>	<path class="st0" d="M358.1,466.8c-0.6-0.1-1.2-0.4-1.6-0.8c-0.5-0.4-0.8-1-1-1.7l-2.2-7.3c0-0.1,0-0.2,0.1-0.2l0.8-0.2  c0.1,0,0.2,0,0.2,0.1l2.2,7.3c0.2,0.7,0.6,1.2,1.2,1.6c0.6,0.3,1.3,0.4,2.1,0.1c0.8-0.2,1.3-0.6,1.7-1.2c0.3-0.6,0.4-1.3,0.2-2  l-2.2-7.3c0-0.1,0-0.2,0.1-0.2l0.8-0.2c0.1,0,0.2,0,0.2,0.1l2.2,7.3c0.2,0.7,0.2,1.3,0.1,1.9c-0.1,0.6-0.5,1.1-0.9,1.6  c-0.5,0.5-1.1,0.8-1.8,1C359.4,466.9,358.7,466.9,358.1,466.8z"></path>	<path class="st0" d="M368.7,463.5l-3.7-10.2c0-0.1,0-0.2,0.1-0.2l0.8-0.3c0.1,0,0.2,0,0.2,0.1l3.7,10.2c0,0.1,0,0.2-0.1,0.2  l-0.8,0.3C368.8,463.7,368.8,463.6,368.7,463.5z"></path>	<path class="st0" d="M375.1,460.6c-0.9-0.2-1.5-0.8-1.8-1.6l-0.2-0.5c0-0.1,0-0.2,0.1-0.2l0.7-0.3c0.1,0,0.2,0,0.2,0.1l0.2,0.4  c0.2,0.6,0.7,0.9,1.3,1.1c0.6,0.2,1.3,0.1,2.2-0.3c0.8-0.3,1.3-0.7,1.5-1.2c0.3-0.5,0.3-1,0.1-1.5c-0.1-0.3-0.4-0.6-0.6-0.8  s-0.7-0.3-1.1-0.3c-0.5-0.1-1.1-0.1-1.9-0.1c-0.9,0-1.5,0-2-0.1c-0.5-0.1-0.9-0.2-1.3-0.4c-0.4-0.2-0.7-0.6-0.9-1.2  c-0.3-0.8-0.3-1.6,0.1-2.3c0.4-0.7,1.1-1.3,2.1-1.7c1.1-0.5,2.1-0.6,2.9-0.3c0.8,0.2,1.4,0.8,1.8,1.6l0.1,0.3c0,0.1,0,0.2-0.1,0.2  l-0.7,0.3c-0.1,0-0.2,0-0.2-0.1l-0.1-0.3c-0.2-0.6-0.7-0.9-1.3-1.1c-0.6-0.2-1.3-0.1-2.1,0.2c-0.7,0.3-1.2,0.7-1.4,1.1  c-0.3,0.4-0.3,0.9,0,1.5c0.1,0.4,0.4,0.6,0.6,0.8c0.3,0.2,0.6,0.2,1,0.3c0.4,0,1,0,1.9,0c0.8,0,1.5,0,2.1,0.1s1,0.2,1.5,0.5  c0.4,0.3,0.7,0.7,1,1.2c0.3,0.8,0.3,1.6-0.1,2.4s-1.1,1.3-2.2,1.8C376.9,460.7,375.9,460.8,375.1,460.6z"></path>	<path class="st0" d="M386.5,456c-0.6,0-1.2-0.2-1.7-0.5s-0.9-0.8-1.2-1.4l-0.5-1.1c0-0.1,0-0.2,0.1-0.2l0.7-0.4  c0.1,0,0.2,0,0.2,0.1l0.5,1.1c0.3,0.6,0.8,1,1.4,1.2c0.6,0.2,1.2,0.1,1.9-0.2c0.7-0.3,1.1-0.8,1.3-1.4c0.2-0.6,0.2-1.2-0.1-1.8  l-3.5-7c0-0.1,0-0.2,0.1-0.2l0.7-0.4c0.1,0,0.2,0,0.2,0.1l3.5,7c0.3,0.6,0.4,1.2,0.4,1.8c0,0.6-0.3,1.1-0.6,1.6  c-0.4,0.5-0.9,0.9-1.5,1.2C387.8,455.8,387.1,456,386.5,456z"></path>	<path class="st0" d="M397.5,438.7l-5.1,3c0,0,0,0.1,0,0.1l2,3.4c0,0,0.1,0,0.1,0l3.6-2.1c0.1-0.1,0.2,0,0.2,0.1l0.3,0.6  c0.1,0.1,0,0.2-0.1,0.2l-3.6,2.1c0,0,0,0.1,0,0.1l2,3.5c0,0,0.1,0,0.1,0l5.1-3c0.1-0.1,0.2,0,0.2,0.1l0.3,0.6  c0.1,0.1,0,0.2-0.1,0.2l-6,3.5c-0.1,0.1-0.2,0-0.2-0.1l-5.5-9.4c-0.1-0.1,0-0.2,0.1-0.2l6-3.5c0.1-0.1,0.2,0,0.2,0.1l0.3,0.6  C397.6,438.6,397.6,438.7,397.5,438.7z"></path>	<path class="st0" d="M407,443.9c-0.9-0.1-1.6-0.5-2.1-1.2l-0.3-0.4c-0.1-0.1,0-0.2,0-0.2l0.6-0.4c0.1-0.1,0.2,0,0.2,0l0.2,0.4  c0.3,0.5,0.8,0.8,1.5,0.8c0.6,0,1.3-0.2,2.1-0.7c0.7-0.5,1.1-1,1.3-1.5s0.1-1-0.3-1.5c-0.2-0.3-0.5-0.5-0.8-0.6  c-0.3-0.1-0.7-0.1-1.2-0.1c-0.5,0-1.1,0.1-1.9,0.3c-0.8,0.2-1.5,0.3-2,0.4c-0.5,0.1-1,0-1.4-0.2c-0.4-0.2-0.8-0.5-1.1-1  c-0.5-0.7-0.6-1.5-0.4-2.3c0.2-0.8,0.8-1.4,1.7-2.1c1-0.7,1.9-1,2.8-0.9c0.9,0.1,1.6,0.5,2.1,1.2l0.2,0.3c0.1,0.1,0,0.2,0,0.2  l-0.7,0.5c-0.1,0.1-0.2,0-0.2,0l-0.2-0.2c-0.3-0.5-0.8-0.8-1.5-0.8s-1.3,0.2-2,0.7c-0.6,0.4-1,0.9-1.2,1.4s-0.1,1,0.3,1.5  c0.2,0.3,0.5,0.5,0.8,0.6c0.3,0.1,0.7,0.1,1.1,0.1c0.4-0.1,1-0.2,1.8-0.4c0.8-0.2,1.5-0.3,2.1-0.3c0.5,0,1.1,0,1.5,0.2  c0.5,0.2,0.9,0.5,1.2,1c0.5,0.7,0.6,1.5,0.4,2.3c-0.2,0.8-0.9,1.6-1.8,2.2C408.8,443.7,407.9,444,407,443.9z"></path></g><g>	<g>		<path class="st1" d="M15.4,296.7h13.3v78.1h17.6v12.3H15.4V296.7z"></path>		<path class="st1" d="M49.2,387.1l13.7-90.4h16.2l13.7,90.4H79.9l-2.5-18.5H64.6l-2.5,18.5H49.2z M71.8,326.1l-0.4-2.3h-0.7   l-0.4,2.3l-3.8,28.5h9.1L71.8,326.1z"></path>		<path class="st1" d="M113,340l-1.1-4.2h-0.7v51.3H98.9v-90.4h11.8l12.9,47.1l1.1,4.2h0.7v-51.3h12.2v90.4h-11.8L113,340z"></path>		<path class="st1" d="M168.8,329.1v-13.9c0-2.5-0.5-4.2-1.7-5.7c-0.6-0.6-1.6-1-2.7-1c-2.3,0-3.4,1.7-3.9,3.3   c-0.4,1-0.5,2.1-0.5,3.3v54.4c0,2.6,0.6,4.3,1.8,5.7c0.6,0.6,1.5,1,2.6,1c2.3,0,3.4-1.5,3.9-3.3c0.4-0.9,0.5-2,0.5-3.3v-16.4h-5.3   v-11.2h18.6v45h-7.9l-1.6-4.3c-2.5,3.1-6,5.3-10.3,5.3s-7.3-1.1-9.5-3.1c-2.2-1.8-3.7-4.2-4.7-6.6c-1.1-2.8-1.6-6.1-1.5-9.8v-53.3   c0.1-3.6,0.9-6.9,2.2-9.7c1.1-2.5,2.7-4.9,5.2-6.8c2.5-1.8,5.9-3.1,10.3-3.1c4.4,0,7.7,1.2,10.2,3.1c2.5,1.8,4.2,4.3,5.3,6.8   c1.4,2.8,2.1,6.2,2.2,9.7v13.9H168.8z"></path>		<path class="st1" d="M213.8,320.9c0-3-0.1-6.3-1-8.9c-0.9-2.5-2.2-4.2-4.3-4.2c-3.4,0.1-4.6,3.7-4.6,9c0,3.1,1.4,6.3,3.3,9.7   c2,3.4,4.6,7,7.1,10.8c3.1,4.6,6.1,9.2,8.5,13.8c2.3,4.6,3.9,9.2,3.9,14.1c0,6-1,11.7-3.8,15.9c-2.8,4.2-7.4,6.9-14.6,6.9   c-8.5,0-13.3-3.2-16-8.1s-3.3-11.4-3.3-18.2l13-1.2c0,3.8,0.1,7.6,1.1,10.5c0.9,3,2.3,4.9,5.2,4.9c3.9,0,5.4-4.2,5.4-10   c0-3-1.5-6.4-3.4-10c-1.1-1.7-2.2-3.6-3.4-5.4c-2.6-3.7-5.4-7.9-8.4-12.4c-3-4.6-5.2-9.2-6.5-14c-0.7-2.3-1.1-4.8-1.1-7.3   c0-4.9,1.1-10.2,3.9-14.3c2.8-3.9,7.1-6.8,13.4-6.9c8-0.1,12.7,3.2,15.3,8c2.6,4.9,3.3,10.9,3.3,16L213.8,320.9z"></path>		<path class="st1" d="M252.9,387.1v-90.4h10.5c12.3,0,18.9,2.5,22.5,9.3c3.4,6.9,3.9,18.2,3.9,35.9s-0.5,28.9-3.9,35.8   c-3.6,6.9-10.2,9.3-22.5,9.3H252.9z M266.2,373.8c4.6,0,7.1-0.5,8.5-4.9c0.6-2.1,1.1-5.3,1.2-9.6c0.1-4.3,0.1-10.1,0.1-17.5   s0-13.2-0.1-17.5c-0.1-4.2-0.6-7.4-1.2-9.6c-1.4-4.3-3.9-4.8-8.5-4.8V373.8z"></path>		<path class="st1" d="M298.7,296.7h30.4v13.7H312v23.7h12.3v14.5H312v24.8h17.1v13.7h-30.4V296.7z"></path>		<path class="st1" d="M355.4,296.7h13.3c5.8,0,11.6,1.5,16,5.7c4.4,4.2,7.4,11.1,7.4,21.4s-3,17.1-7.4,21.3s-10.2,5.9-16,5.9v36.2   h-13.3V296.7z M368.7,337.4c4.1,0,6.6-0.7,8.1-2.8c1.5-2,1.8-5.3,1.8-10.3s-0.4-8.6-1.8-10.8s-4.1-3.2-8.1-3.2V337.4z"></path>		<path class="st1" d="M433.2,368.5c-0.1,3.7-0.9,7-2.2,9.8c-1.1,2.5-2.8,4.8-5.3,6.6c-2.5,2-5.8,3.1-10.2,3.1   c-4.4,0-7.9-1.1-10.3-3.1c-2.5-1.8-4.1-4.2-5.2-6.6c-1.4-2.8-2.1-6.1-2.2-9.8v-53.3c0.1-3.6,0.9-6.9,2.2-9.7   c1.1-2.5,2.7-4.9,5.2-6.8c2.5-1.8,5.9-3.1,10.3-3.1c4.4,0,7.7,1.2,10.2,3.1c2.5,1.8,4.2,4.3,5.3,6.8c1.4,2.8,2.1,6.2,2.2,9.7   V368.5z M420,315.2c0-2.5-0.5-4.2-1.7-5.7c-0.6-0.6-1.6-1-2.7-1c-2.3,0-3.4,1.7-3.9,3.3c-0.4,1-0.5,2.1-0.5,3.3v53.3   c0,2.6,0.6,4.3,1.8,5.7c0.6,0.6,1.5,1,2.6,1c2.3,0,3.4-1.5,3.9-3.3c0.4-0.9,0.5-2,0.5-3.3V315.2z"></path>		<path class="st1" d="M442.2,296.7h13.3v78.1h17.6v12.3h-30.9V296.7z"></path>		<path class="st1" d="M478.5,387.1v-90.4H489c12.3,0,18.9,2.5,22.5,9.3c3.4,6.9,3.9,18.2,3.9,35.9s-0.5,28.9-3.9,35.8   c-3.6,6.9-10.2,9.3-22.5,9.3H478.5z M491.8,373.8c4.6,0,7.1-0.5,8.5-4.9c0.6-2.1,1.1-5.3,1.2-9.6c0.1-4.3,0.1-10.1,0.1-17.5   s0-13.2-0.1-17.5c-0.1-4.2-0.6-7.4-1.2-9.6c-1.4-4.3-3.9-4.8-8.5-4.8V373.8z"></path>		<path class="st1" d="M524.3,296.7h30.4v13.7h-17.1v23.7h12.3v14.5h-12.3v24.8h17.1v13.7h-30.4V296.7z"></path>		<path class="st1" d="M585.8,387.1l-6.9-38.1h-3.6v38.1H562v-90.4h13.3c15.9,0,22.6,9,22.6,26.1c0,9-2.3,17.1-7.4,20.5l8.5,43.8   H585.8z M575.3,336.6c1.8,0,4.3-0.2,6.3-2c2-1.7,3.6-5,3.6-11.4c0-6.4-1.6-9.8-3.6-11.6c-2-1.7-4.4-1.8-6.3-1.8V336.6z"></path>	</g></g><path class="st0" d="M610.8,282.9c-10.5-5.3-20.9-10.6-31.4-15.9c-0.5-0.3-1.1-0.4-1.6-0.6c-0.8,0.8-1.5,1.5-2.2,2.2 c-1.5,1.5-2.9,3.1-4.4,4.6c-0.5,0.5-1.1,1-1.8,1.1c-1.5,0.2-3,0.3-4.6-0.3c-0.1-0.7-0.2-1.2-0.1-1.8c0.5-9.7,0.5-19.4-0.1-29.1 c-0.6-10.3-1.9-20.5-3.7-30.7c-3-17.2-7.8-33.9-14.4-50c-14.6-36.2-36.3-67.6-65-94.1c-27.6-25.4-59.1-44-94.8-55.6 c-23-7.5-46.6-11.9-70.8-12.5c-12.3-0.3-24.7-0.2-37,1.2c-8.7,1-17.3,2.2-25.8,4c-16.8,3.5-33.1,8.6-48.8,15.4 c-40.5,17.4-74.4,43.5-101.8,78c-18.1,22.8-31.8,48-41.3,75.5c-6.3,18.2-10.5,36.9-12.5,56.1c-1.2,11.5-1.8,23-1.5,34.5 c0.1,2.4,0.3,4.8,0.3,7.3c0,0.7-0.1,1.3-0.2,2c-4.3,0.9-4.9,0.8-7.7-2.1c-0.9-1-1.8-1.9-2.7-2.9c-0.8-0.9-1.7-1.7-2.4-2.5 c-2.5,0.7-32,15.6-34.6,17.6c204.2,0,407.9,0,611.5,0c0.1,0,0.2,0,0.3-0.1c0.1,0,0.1-0.2,0.2-0.4 C611.6,283.4,611.2,283.1,610.8,282.9z M209.2,262.6c-0.3,0.2-0.4,0.4-0.6,0.4c-0.7,0-1.4,0-2-0.1c-0.8-1.1-0.5-2.3-0.5-3.4 c0-7.2,0-14.4-0.1-21.5c-0.1-4.4-0.3-8.9-0.5-13.3c0-0.6-0.1-1.1-0.4-1.7c-0.1,4.3-0.3,8.7-0.4,13c-0.1,4.4-0.1,8.9-0.2,13.3 c0,4.3,0,8.7,0,13c-1.2,0.7-2.1,0.4-3.2-0.1c0-0.8-0.1-1.7-0.1-2.6c0-26.1,0-52.2,0-78.2c0-0.9-0.7-2.2,0.8-2.8 c1,0.8,0.6,1.8,0.6,2.8c0.1,10.5,0.1,21,0.2,31.5c0,2.5,0.1,5,0.9,7.4c0.2-13.8,0.5-27.7,0.7-41.5c0-0.1,0.1-0.2,0.2-0.4 c1.4-0.6,2.8-0.5,4.5-0.3c0.6,1.8,0.4,3.6,0.2,5.4c-0.7,0.3-1.3,0.6-1.9,0.9c-0.3,2.8-0.3,70,0,72.3c0.6,0.3,1.2,0.6,2,1 C209.2,259.3,209.2,261,209.2,262.6z M194.5,244.4c0-2-0.3-4-0.3-6c0-2.7,0.1-5.4,0.2-8.2c0-8.9,0-17.8,0.1-26.7 c0-7.7,0.2-15.4,0.3-23c0-0.6,0.2-1.2,0.3-1.7c1-0.5,1.8-0.5,2.9,0.1c0.2,2.8,0.4,5.7,0.6,9.1c0.4-3.4-0.1-6.3,0.6-9.5 c0.4,0.4,0.9,0.6,0.9,0.8c0.1,0.8,0.1,1.6,0.1,2.4c0,25.9,0,51.7,0.1,77.6c0,0.9-0.1,1.8-0.1,3c-2-0.1-3.7,0.3-5.4-0.7 c0-1-0.1-2-0.1-3C194.5,253.9,194.5,249.1,194.5,244.4z M197.8,175.6c-0.1-0.5-0.3-1-0.3-1.4c0-3.8,0-7.7,0-11.9 c2.6-1.8,5.1-3.5,7.6-5.3c0.3,0.4,0.5,0.6,0.5,0.9c0,5.6,0,11.1,0,16.7c0,0.2-0.1,0.4-0.3,0.8c-0.3-0.3-0.7-0.5-0.7-0.7 c-0.1-0.9-0.2-1.8-0.2-2.7c-0.1-2.9-0.2-5.9-0.5-8.8c0,3-0.1,6.1-0.1,9.1c0,1-0.1,2-0.1,3.1C201.7,175.9,199.8,175.6,197.8,175.6z  M254.7,206c0.7,1.9,0.2,3.9,0.3,5.9c0.1,1.9,0,3.8,0,5.7c0,0.9,0,1.8-0.1,2.7c-0.1,0.4-0.5,0.7-1,1.3c-0.6-2.5-0.3-4.7-0.3-6.8 c-0.1-2.1-0.1-4.2-0.1-6.3c-2.7-1.1-5.5,0.2-8.4-1.1c2.8-1.3,5.7,0,8.4-1.1c0.1-4.5,0-9,0-13.5c-2.7-0.9-5.5,0.1-8.6-1 c2.9-0.7,7.7-0.7,10.3-0.2C254.7,196.4,255.4,201.2,254.7,206z M243.6,165.2c-0.1-3.2,0-6.5,0-9.7c0-3.2,0-6.5,0-9.7 c0-3.2-0.2-6.4,0.2-9.9c1.4,0.2,2.1,0.7,2.3,1.7c0.2,1,0.3,2,0.5,3.4c0.3-1.2,0.4-2.1,0.6-3.1c1.7,0.2,2.9,1.2,4,2 c0.3,0.2,0.5,0.7,0.5,1c0.1,0.7,0.1,1.4,0.1,2.1c0,9.6,0,19.2,0,28.8c0,0.8,0,1.6-0.2,2.4c0,0.2-0.4,0.5-0.6,0.5 c-0.3-0.1-0.9-0.3-0.9-0.5c-0.2-0.8-0.2-1.6-0.2-2.4c-0.1-4.1-0.1-8.3-0.4-12.4c-0.1,4-0.1,7.9-0.2,11.9c0,1.1-0.1,2.2-0.2,3.4 c-1.8,0.5-3.5,0.4-5.3,0.2C243.4,171.6,243.6,168.4,243.6,165.2z M255,189.3c-2.4,0.6-4.9,0.3-7.4,0.2c-0.1-0.4-0.3-0.8-0.3-1.2 c0-3-0.1-6.1-0.1-9.1c0-0.1,0-0.2,0-0.3c0.1-0.5,0.1-1.1,0.8-1c0.2,0,0.6,0.6,0.6,0.9c0.1,1.4,0.2,2.8,0.3,4.5 c1.4-1.8,0.5-3.9,1.4-5.5c1.5-0.5,3.1-0.5,4.6-0.1C255.5,179.9,255.5,186.3,255,189.3z M250.8,137.9c-0.1-0.1-0.2-0.3-0.2-0.6 c0,0-0.1,0-0.1,0c0,0,0,0,0,0c-0.6,0.2-1.1-0.1-1.6-0.4c-2.2-1.3-4.4-2.6-6.5-3.8c-1-0.6-1.9-1.1-2.9-1.7c-1.2,0.3-2,1.1-2.9,1.7 c-10.1,7-20.2,14.1-30.3,21.1c-0.8,0.5-1.4,1.5-2.6,1.3c0,0,0,0,0,0c0,0,0,0,0,0c-0.3,0.9-0.8,1.3-1.8,1.2c0,0,0,0,0,0.1 c0,0-0.1,0-0.1,0c-0.3,1.2-1.3,1.4-2.2,1.8c0,0,0,0.1,0,0.1c-0.1,0-0.1,0-0.1,0c-0.4,0.3-0.7,0.7-1.3,1.2c0.3-1.1,0.3-1.1,1.3-1.2 c0,0,0.1-0.1,0.1-0.1c0,0,0.1,0,0.1,0c0.2-1.2,1.2-1.6,2.2-1.8c0,0,0-0.1,0-0.1c0,0,0.1,0,0.1,0c0.3-0.8,0.8-1.3,1.8-1.2 c0,0,0,0,0,0c0,0,0,0,0,0c0.1-1.1,1.1-1.3,1.8-1.8c6.8-5,13.7-10,20.6-15c3.5-2.6,7-5.1,10.6-7.7c0.8-0.6,1.6-1.1,2.5-1.8 c0.7,0.4,1.3,0.7,1.9,1.1c2.7,1.9,5.5,3.8,8.2,5.8c0.5,0.3,0.8,0.8,1.2,1.2c0,0,0.1,0,0.1,0c0,0,0,0.1,0,0.1 c0.4,0.2,0.7,0.3,1.1,0.5C251.3,138.5,251,138,250.8,137.9z M242.5,172.2c0,0.4,0,0.8,0,1.2c-0.1,1.6-0.4,2.1-2,2.1 c-1.9,0-3.8-0.1-6.1-0.2c-0.1-1.3-0.2-2.2-0.2-3.1c0-11.1,0-22.2,0-33.3c0-0.6,0-1.2,0.1-1.8c0.1-0.5,0.3-1.1,0.6-1.3 c1.3-1,2.6-2.2,4.3-2.8c1.3,1.1,0.6,2.7,1.2,4.1c0.1-0.9,0.3-1.8,0.4-2.5c1-0.4,1.4,0,1.5,0.7c0.2,0.7,0.2,1.4,0.2,2.1 C242.5,148.9,242.5,160.5,242.5,172.2z M231.9,168.9c-0.8,1-0.5,2.1-0.6,3c-0.1,1-0.1,2-0.2,2.9c-1.2,0.7-2.3,0.7-3.5,0.2 c-0.4-2.2-0.2-4.4-0.3-6.6c-0.1-2.2,0-4.4-0.4-6.7c-0.1,3.5-0.1,6.9-0.2,10.4c0,0.8,0,1.6-0.2,2.4c0,0.2-0.4,0.5-0.6,0.5 c-0.2,0-0.6-0.2-0.7-0.4c-0.2-0.6-0.3-1.2-0.3-1.8c0-9.5,0-19,0-28.5c0-1.4,0.5-2.3,1.6-3c2-1.3,4-2.7,6.2-4.2 c0.2,0.6,0.5,1,0.5,1.5c0,11.6,0.1,23.2,0.1,34.8c0,0.6,0,1.3-1,1.4C231.6,173.1,232.2,171,231.9,168.9z M223.5,187.2 c-2.4,0-4.9,0-7.3,0c-2.3,0-4.6,0.1-7.3-0.1c0.5-0.6,0.6-1.1,0.9-1.1c0.6-0.1,1.2-0.1,1.8-0.2c6.5,0,12.9,0,19.4,0 c0.6,0,1.2,0.1,1.9,0.2c0.1,0.6,0.3,1.2,0.4,1.7c0.1,0.6,0,1.2,0,1.8c0,21.2,0,42.4,0,63.6c0,0.9,0,1.8-0.1,2.7 c-0.1,0.6-0.4,0.9-1,0.9c-0.6,0-1-0.2-1.1-0.8c-0.1-0.9-0.1-1.8-0.1-2.7c0-9.3,0-18.6,0-27.9c0-11.5,0-23,0-34.6 c0-1.1-0.1-2.2-0.1-3.7C228.2,187.2,225.8,187.2,223.5,187.2z M229.2,226.2c-1,1.3-2,1.3-3,0.9c-0.6-0.2-0.8-1-0.6-1.5 c0.3-0.6,0.8-1,1.4-0.8C227.8,225,228.4,225.6,229.2,226.2z M208.4,171c-0.1-1.4,0-2.8-0.1-4.2c-0.6,2.7,0.1,5.6-0.9,8.3 c-0.3-0.2-0.6-0.2-0.6-0.3c-0.3-2.2-0.3-16.6,0-19.1c1.6-1.3,3.1-2.7,5.4-3.3c0.3,0.8,0.6,1.5,0.9,2.3c0.2-3.1,0.2-3.1,1.4-3.9 c0.1,0.5,0.2,1,0.2,1.5c0.3,7,0.1,20.5-0.3,23.3c-1,0.1-1.9,0.1-2.8,0.1c-0.9,0-1.8-0.1-2.7-0.1C208.2,174,208.5,172.5,208.4,171z  M217.2,152.9c0.1,1.2,0,2.4,0.3,3.6c0-1.9,0.1-3.7,0.1-5.6c0-0.9,0.1-1.8,0.3-2.7c0.1-0.6,0.6-1,1.4-0.9c0.1,0.2,0.3,0.5,0.2,0.8 c-0.1,3.9-0.3,7.9-0.4,11.8l0,0c0.3,0.5,0.7,1,1,1.5c0.6-2.3,0.6-10.7,0.1-15.3c0.4-0.3,0.8-0.6,1.5-1c0.4,0.9,0.7,1.6,1,2.3 c0.6-1-0.5-2.3,0.9-3.4c0.1,0.9,0.3,1.5,0.3,2.2c-0.1,4.7-0.3,9.5-0.4,14.2c0,1.2,0,2.4,0,3.6c0.1,3,0.3,6,0.4,9.1 c0,0.6-0.1,1.2-0.2,1.7c-2.3,0.9-2.4,0.9-3.5-1.2c-0.2,0.5-0.3,1.1-0.5,1.6c-1.2,0.3-2.4,0.4-3.8-0.1c-0.1-0.8-0.2-1.5-0.2-2.3 c0-7.8,0.1-15.5,0.1-23.3c0-0.1,0.2-0.3,0.4-0.4c0.1-0.1,0.2,0,0.5-0.1C217.4,150.3,217.1,151.6,217.2,152.9z M227.4,178 c0.3,1.9,0.3,3.6,0,5.6c-1.3,0.4-2.4,0.4-3.5-0.1c-0.2-1.2-0.5-2.5-0.8-4c-0.8,1-0.6,2.1-0.9,3.1c-0.2,0.9-0.5,1.2-1.4,1.2 c-0.9,0-1.3-0.4-1.3-1.3c0-1.4,0-2.8,0-4.1c1.3-1,2.7-0.4,3.9-0.6C224.7,177.8,226,177.7,227.4,178z M218.2,178 c0.3,1.9,0.3,3.7,0,5.5c-2.5,0.8-5,0-7.3,0.3c-0.9-1-0.6-2-0.6-2.9c0-0.9,0.1-1.8,0.1-2.5c0.6-0.7,1.2-0.7,1.9-0.3 c0.2,1.2,0.4,2.4,0.6,3.7c0.1,0,0.3,0,0.4,0.1c0.3-1.3,0.6-2.5,0.8-3.8C215.5,177.7,216.7,177.9,218.2,178z M218.3,263.6 c-1.6,0.4-3,0.1-4.6-0.2c-0.2-1.1-0.4-2.2-0.6-3.4c-1,0.8-0.6,1.8-0.9,2.6c-0.1,0.3-0.5,0.7-0.8,0.7c-0.6,0.1-1-0.3-1-0.9 c0-1.5,0-3,0-4.5c2-0.7,4.4-0.6,7.8,0.2C218.6,259.9,218.5,261.7,218.3,263.6z M227.6,264.3c-0.5,0.1-0.9,0.4-1.2,0.3 c-2.1-0.2-4.2-0.4-6.4-0.6c-0.8-1.8-0.5-3.6-0.3-5.4c0-0.2,0.6-0.6,0.9-0.5c0.3,0,0.8,0.3,0.9,0.6c0.3,0.8,0.4,1.7,0.7,3.2 c0.5-1.7,0.8-2.6,1.1-3.6c1.5-0.3,2.8-0.1,4.3,0.4c0.1,0.8,0.2,1.4,0.2,2.1C227.7,262,227.6,263.1,227.6,264.3z M235.1,260.5 c-0.1,1.5-0.3,3-0.5,4.6c-1.9,0.4-3.7-0.3-5.4-0.3c-0.9-2.4-0.8-4.5,0.3-6.2c0.5,0.8,0.8,1.3,1.2,1.9c0.4-0.5,0.8-1,1.4-1.7 c0.9,0.1,1.8,0.3,2.8,0.4C235,259.8,235.1,260.2,235.1,260.5z M236.7,263.8c-0.1-0.5-0.2-0.9-0.2-1.4c-0.1-0.5-0.1-1-0.2-1.5 c-0.6-5.3-1.1-10.6-1.1-16c0.1-19,0-38,0-57c0-1.2-0.1-2.4-0.1-3.9c-2.3-0.1-4.2-0.2-6.2-0.3c-0.5-1.9-0.4-3.7-0.2-5.5 c1.2-0.8,2.6-0.5,3.9-0.5c1.3,0,2.6-0.4,4,0.1c0.1,0.4,0.2,0.9,0.2,1.4c0,27,0,53.9,0.1,80.9C236.9,261.4,236.9,262.6,236.7,263.8z  M246.2,247.7c0,5,0,9.9,0,14.9c0,0.8,0,1.6-0.1,2.4c0,0.3-0.3,0.7-0.6,0.9c-0.3,0.2-0.8-0.3-0.9-0.9c-0.1-0.9-0.1-1.8-0.1-2.7 c-0.1-7.7-0.2-15.4-0.3-23.1c0-1-0.1-2-0.1-3c-0.8,0.2-0.7,0.8-0.7,1.3c-0.1,3.6-0.2,7.3-0.2,10.9c-0.1,4.5-0.1,9.1-0.1,13.6 c0,0.7,0,1.4,0,2.1c0,0.7,0.1,1.5-0.9,1.7c-0.6,0.1-0.9-0.4-1-1.6c0-1.3,0-2.6-0.1-3.9c-0.2-4.7-0.3-9.5-0.7-14.2 c-0.3,1.4-0.4,2.8-0.4,4.2c-0.1,1.5-0.2,3-0.2,4.5c-0.1,2.7-0.1,5.5-0.1,8.2c0,0.8-0.1,1.6-0.2,2.2c-0.8,0.3-1.3,0.2-1.4-0.4 c-0.1-1.1-0.2-2.2-0.2-3.3c0-15.1,0-30.1-0.1-45.2c0-10,0-20,0-30c0-1.7,0-3.4,0.2-5.2c0.6,1.7,0.8,3.4,0.9,5.2 c0.3,7,0.8,13.9,0.9,20.9c0,4.1,0.4,8.3,0.6,12.4c0.1,0,0.2,0.1,0.3,0.1c0-7,0-13.9,0-20.9c0-7-0.9-13.9-0.5-21 c1.9-0.6,3.6-0.4,5.4-0.1c0.7,2.1,0.8,8.2,0.2,11.6c-0.7,0.2-1.4,0.4-2.1,0.6c-0.4,2.4-0.5,28-0.1,32c0.7,0.2,1.4,0.5,2.1,0.8 c0.8,0.9,0.5,2.1,0.5,3.2C246.2,233.1,246.2,240.4,246.2,247.7z M255.2,266.1c-0.1,0.3-0.5,0.8-0.8,0.7c-0.4,0-1.1-0.3-1.2-0.6 c-0.2-0.9-0.2-1.8-0.2-2.7c-0.1-6-0.2-11.9-0.3-17.9c0-0.8-0.1-1.5-0.2-2.4c-0.9,0.7-0.6,1.4-0.6,2.1c-0.1,6-0.2,11.9-0.3,17.9 c0,1.1,0.2,2.2-0.4,3.2c-1.3,0.3-2.4,0.2-3.7-0.2c-0.1-0.7-0.3-1.4-0.3-2.1c0-13.1,0-26.3,0-39.4c0-0.6,0.1-1.1,0.6-1.8 c0.1,0.3,0.4,0.6,0.4,0.9c0,1.4,0,2.8,0,4.2c-0.1,7.3,0.1,14.6,0.7,21.8c0,0.3,0.1,0.6,0.1,0.8c0.5-9.2,0.1-18.4,1-27.6 c1.7-0.6,3.4-0.4,5.2,0c0.1,0.9,0.2,1.7,0.2,2.5c0,12.9,0,25.9,0,38.8C255.4,264.9,255.4,265.5,255.2,266.1z M255.4,173.2 c0,0.5-0.1,1-0.2,1.6c-0.8,0-1.4,0.1-2,0.1c-0.2-0.3-0.4-0.5-0.4-0.7c-0.1-0.6-0.1-1.2-0.1-1.8c0-9.6,0-19.2,0-28.8 c0-0.7,0.1-1.4,0.1-2.2c2.2,0.4,3.7,1.8,5.4,2.8c0.2,1,0.3,2,0.6,3.5c0.3-1.2,0.5-1.8,0.7-2.8c0.5,0.6,1,0.8,1.1,1.2 c0.2,0.6,0.1,1.2,0.1,1.8c0,8.1,0,16.1,0,24.2c0,0.8-0.1,1.6-0.2,2.3c-0.9,0.7-1.8,0.6-2.8,0.3c-0.1-0.4-0.3-0.9-0.3-1.4 c-0.2-4.4-0.3-8.9-0.4-13.3c-0.1-1.6-0.4-3.2-0.6-4.8c-0.1-0.6-0.5-0.9-1-1c0.1,0.8,0.3,1.6,0.3,2.3 C255.8,162.1,255.6,167.6,255.4,173.2z M269.9,166.4c-0.1,2.6,0.3,5.2-0.6,7.7c-0.1-0.9-0.1-1.8-0.3-3c-0.3,1.4-0.6,2.4-0.9,3.6 c-2,0.3-3.9,0.3-5.9,0c-0.1-0.6-0.3-1.2-0.3-1.7c0-8.2,0-16.4,0-24.5c0-0.5,0.1-1,0.2-1.7c3,0.8,5,3.1,7.7,4.1 c0.5,2.7,0.2,5.4,0.2,8C270.1,161.4,270,163.9,269.9,166.4z M264.1,177.5c0.8,1.9,0.3,4,0.4,5.9c0.1,1.9,0,3.8-0.1,5.9 c-0.9,0.1-1.4,0.2-1.9,0.2c-0.5,0-1-0.1-1.4-0.1c-0.8-2.3-1.3-8.2-0.9-11.8C261.5,177.1,262.7,177.3,264.1,177.5z M259.6,178.4 c-0.2,3.1-0.4,6.2-0.6,9.3c-0.1,1.7-0.2,1.8-2.4,1.5c-0.1-0.4-0.3-0.9-0.3-1.4c0-3.2,0-6.4,0.1-9.6c0-0.3,0.3-0.5,0.4-0.7 c0.9-0.2,1.8-0.4,2.6,0.3C259.5,178.1,259.6,178.3,259.6,178.4z M264.5,266.5c0,0.3-0.2,0.6-0.3,1.1c-0.4-0.3-0.8-0.5-0.8-0.8 c-0.1-0.9-0.1-1.8-0.2-2.7c-0.1-5.6,0-11.1-0.2-16.7c-0.1-3.4-0.3-6.9-0.8-10.3c0,1-0.1,2-0.1,2.9c-0.2,8-0.3,16-0.5,24 c0,1-0.1,2-0.2,3.1c-1.6,0.5-3.1,0-4.7,0c-0.2-0.8-0.4-1.5-0.4-2.1c0-2.3,0-4.7,0-7c0-10.5,0-21,0-31.6c0-1,0.1-2,0.2-3 c0-0.2,0.4-0.4,0.7-0.4c0.2,0,0.6,0.3,0.6,0.5c0.1,1,0.2,2,0.2,3c0.2,8,0.3,16,0.5,24c1.3-9,0.7-18.1,1.2-27 c2.3-0.7,2.3-0.7,4.6,0.1c0.1,0.3,0.2,0.7,0.2,1.1C264.5,238.6,264.5,252.6,264.5,266.5z M264.9,215.2c-0.1-2.2,0-4.4,0-6.7 c-2.7-1.2-5.5-0.1-8.7-1c0.9-0.4,1.3-0.7,1.7-0.7c1.3-0.1,2.6,0,3.9-0.1c0.9,0,1.8-0.1,2.6-0.2c0.6-2.2,0.7-10.3,0.2-13.8 c-1.2-0.7-2.7-0.3-4.1-0.4c-1.2-0.1-2.6,0.3-3.9-0.5c1.9-0.8,6.3-0.9,9.9-0.2c0,2.2,0.1,4.4,0,6.5c-0.1,2.7,0.6,5.4-0.6,8.1 c-0.1,0.2,0,0.4,0.1,0.6c0.8,1.2,0.5,2.5,0.5,3.8c0.1,3,0,6.1,0,9.1c0,0.8-0.1,1.6-1.3,2C264.5,219.6,264.9,217.4,264.9,215.2z  M273.5,268.3c-0.6,0-1,0.1-1.3,0c-0.3-0.2-0.6-0.6-0.6-0.9c-0.1-0.9-0.1-1.8-0.1-2.7c-0.2-9.8-0.3-19.6-0.4-29.4 c0-1.4,0-2.8-0.4-4.2c-0.2,3.3-0.4,6.5-0.5,9.8c-0.1,7.9-0.1,15.8-0.2,23.7c0,1.1-0.1,2.2-0.1,3.3c-1.4,0.6-2.7,0.2-4.1,0 c-0.1-0.7-0.2-1.4-0.2-2.1c0-13.2,0-26.5,0-39.7c0-0.7,0.1-1.4,0.2-2.2c0.4,0.3,0.5,0.3,0.6,0.4c0.1,0.1,0.1,0.2,0.1,0.3 c0,0.3,0.1,0.6,0.1,0.9c0.2,5.3,0.4,10.5,0.6,15.8c0.5-1.7,0.7-3.5,0.7-5.3c0.1-6.4,0.2-12.7,0.3-19.1c0-7.9,0-15.8,0-23.7 c0-1-0.1-2-0.1-3c-0.8-0.2-1.5-0.4-2.1-0.6c-0.6-2.2-0.6-8.9,0-11.8c0.3-0.1,0.7-0.2,1.1-0.2c0.5,0,1,0.1,1.6,0.1 c0.1,0.7,0.3,1.2,0.3,1.8c0,1.6,0.1,3.2,0,4.9c-0.2,5.7,0.3,11.3,0.5,17c0,0.4,0.1,0.8,0.4,1.2c0.1-2.7,0.3-5.4,0.3-8.1 c0.1-2.8,0.1-5.7,0.2-8.5c0.1-2.7-0.2-5.4,0.4-8.3c0.9-0.1,1.6-0.1,2.4-0.2c0.2,0.4,0.4,0.7,0.4,0.9c0.1,1,0.1,2,0.1,3 c0,28,0,56,0,84C273.7,266.2,273.6,267.2,273.5,268.3z M271.5,174.7c-0.1-0.5-0.3-1-0.3-1.5c0-6.7,0-13.3,0-20c0-0.3,0.1-0.6,0.2-1 c1.8,0.1,3.2,1.2,4.4,2.3c0.4,0.4,0.4,1.3,0.6,1.9c0.4-0.3,0.7-0.9,1.1-0.9c0.7,0,1.4,0.4,1.6,1.1c0.1,0.4,0.2,0.8,0.2,1.2 c0,5,0,10.1,0,15.1c0,0.4-0.1,0.8-0.2,1.5C276.4,175,274,175,271.5,174.7z M282.9,265.3c0,1.2-0.1,2.4-0.1,3.5 c-2.7,0.4-5.1,0.3-7.8-0.4c-0.1-0.5-0.2-1.1-0.2-1.6c0-0.7,0-1.4,0-2.1c0-28.1,0-56.1,0-84.2c0-0.9,0-1.8,0-3 c2.8-0.5,5.2-0.3,7.7-0.2c0.2,0.6,0.4,1.1,0.4,1.7c0.1,1,0,2,0,3C282.9,209.7,282.9,237.5,282.9,265.3z M280.3,157.9 c0.7-0.1,0.9-0.1,1-0.1c2.3,1.3,4.5,2.6,6.8,3.9c0.1,0.5,0.3,1,0.3,1.5c0,3.1,0,6.3,0,9.4c0,0.4,0,0.8-0.2,1.2 c-0.1,0.2-0.5,0.4-0.7,0.4c-0.2,0-0.5-0.3-0.6-0.5c-0.1-0.4-0.1-0.8-0.2-1.2c0-1.1,0-2.2-0.1-3.3c-0.5,1.6-0.1,3.4-0.8,5.1 c-1.8,0.2-3.5,0.5-5.4,0.1c-0.1-0.6-0.2-1.1-0.2-1.5C280.2,167.9,280.3,163,280.3,157.9z M309.4,268.1c0,0.9,0,1.8-0.2,2.7 c0,0.2-0.4,0.5-0.6,0.5c-0.3,0-0.9-0.2-1-0.5c-0.2-0.7-0.2-1.4-0.2-2.1c0-3.5,0-7.1-0.1-10.6c-0.1-8.8-0.3-17.6-0.5-26.4 c0-1.1-0.1-2.2-0.1-3.3c-1.3,14.1-0.7,28.2-1,42.3c-1.2,0.6-2.2,0.2-3.1,0.2c-1,0-2-0.1-2.8-0.2c-0.9-1.2-0.7-2.3-0.7-3.4 c-0.1-4.9-0.1-9.7-0.1-14.6c0-4-0.2-8.1-1-12.1c0,1.1,0,2.2,0,3.4c-0.1,7.8-0.1,15.6-0.2,23.4c0,0.9-0.1,1.8-0.2,2.6 c-2.6,0.5-5.5,0.3-8.7-0.5c-0.1-0.8-0.2-1.7-0.2-2.6c0-6.3,0-12.5-0.1-18.8c-0.2-10.3-0.4-20.6-0.9-30.9c-0.1,2-0.1,4.1-0.2,6.1 c-0.2,14.4-0.3,28.7-0.5,43.1c0,1-0.1,2-0.1,3.1c-1.1,0-1.9,0-2.6,0c-0.2-0.3-0.3-0.3-0.3-0.4c0-0.1-0.1-0.2-0.1-0.3 c0-29.8,0-59.7,0-89.5c0-0.3,0-0.6,0-0.9c0-0.2,0.1-0.4,0.2-0.6c0-0.1,0.1-0.2,0.2-0.4c0.4,0,1-0.2,1.3,0c0.3,0.2,0.6,0.8,0.6,1.2 c0.1,0.8,0.1,1.6,0.1,2.4c0.2,5.3,0.4,10.5,0.7,15.8c0,0.4,0.1,0.8,0.4,1.2c0-1.1,0.1-2.2,0.1-3.2c0.1-4.9,0.1-9.7,0.2-14.6 c0-0.8,0-1.6,0.2-2.4c0.1-0.3,0.7-0.5,1.3-0.8c0.6,2.9,0.3,5.5,0.3,8.1c0.1,2.5,0,5.1,0,7.6c0,2.6,0,5.3,0.1,7.9 c0.1,2.5,0.1,5.1,0.2,7.6c0.1,2.6,0.2,5.2,0.4,7.9c0.9-6.3,0.8-12.7,0.8-19.1c0-6.4,0-12.9,0.6-19.4c0.1,0.3,0.3,0.6,0.4,1 c0.1,0.7,0,1.4,0,2.1c0,28.2,0,56.4,0,84.6c0,1,0,2,0.1,3c0,0.2,0.3,0.4,0.5,0.8c0.2-0.4,0.3-0.7,0.4-0.9c0-0.9,0-1.8,0-2.7 c0-28.3,0-56.6,0-84.9c0-0.9,0-1.8,0.1-2.7c0-0.3,0.5-0.7,0.8-0.7c0.3,0,0.7,0.4,0.8,0.6c0.2,0.7,0.2,1.4,0.2,2.1 c0.1,6.3,0.3,12.5,0.4,18.8c0.1,6.8,0.1,13.6,0.1,20.3c0,1.4,0,2.8,0.3,4.2c0.2-4.4,0.4-8.7,0.5-13.1c0.1-10,0.2-20,0.2-30 c0-0.9,0-1.8,0-2.7c1.5-1,2.8-0.6,4.3-0.5c0.1,0.6,0.4,1.1,0.4,1.7c0.1,0.8,0,1.6,0,2.4c0,28.4,0,56.8,0,85.2c0,1-0.3,2.1,0.6,3.4 c0.2-0.6,0.3-1,0.3-1.4c0-1,0-2,0-3c0-27.1,0-54.2,0-81.3c0-2,0.1-4,0.2-6.1c0-0.3,0.4-0.6,0.6-0.9c0.2,0.3,0.7,0.5,0.7,0.8 c0.1,0.8,0.1,1.6,0.1,2.4c0,3.8,0,7.7,0.1,11.5c0.1,3,0.3,6,0.8,9.1c0-1.3,0.1-2.7,0.1-4c0.1-5.8,0.3-11.5,0.4-17.3 c0-0.8,0.1-1.6,0.2-2.4c1.2-0.4,2.2-0.5,3.4,0c0.1,0.6,0.2,1.2,0.2,1.8c0.1,1.7,0.1,3.4,0.1,5.2c0,14.9,0,29.7,0,44.6 C309.5,241.8,309.5,254.9,309.4,268.1z M289.8,163.2c1.5,0.1,2.6,0.9,3.5,1.9c0.3,0.3,0.3,0.9,0.3,1.4c0.1,1.1,0.1,2.2,0.3,3.3 c0.1-1.3,0.2-2.5,0.3-3.8c1.3-0.2,2,0.6,2.8,1.1c0.2,0.2,0.5,0.5,0.5,0.7c0.1,2.1,0.4,4.2-0.3,6.3c-2.5,0.2-5,0.4-7.4,0 C289.3,171.9,289.3,166.1,289.8,163.2z M299,168.6c2.2,0.3,1.7,2,2.1,3.2c0.2-0.6,0.4-1.1,0.6-1.8c2.2,1.1,4.3,2,6.1,3.7 c-0.3,0.3-0.4,0.5-0.5,0.5c-2.7,0-5.4,0-8.1,0C298.5,172.4,298.6,170.6,299,168.6z M318.6,186.5c0,26.8,0,53.6,0,80.4 c0,0.6,0,1.2,0,1.8c-0.1,1.1-0.4,1.6-1.1,1.5c-0.8-0.1-0.8-0.7-0.9-1.4c0-0.9,0-1.8,0-2.7c0-9.1-0.1-18.2-0.2-27.3 c0-1.6,0.1-3.2-0.8-4.8c-0.2,12.1-0.5,24.3-0.7,36.4c0,0.1-0.1,0.2-0.2,0.4c-0.5,0.1-1.2,0.1-2.1,0.2c-0.4-31.2-0.2-62.2-0.2-93.2 c0.9-0.2,1.1,0.3,1.1,0.7c0.1,1.2,0.1,2.4,0.1,3.6c0.3,14.3,0.5,28.5,0.9,42.8c0.1-2.8,0.2-5.6,0.3-8.4c0.1-2.8,0.2-5.7,0.3-8.5 c0.1-2.9,0.1-5.9,0.1-8.8c0-2.8,0-5.7,0-8.5c0-2.9-0.1-5.8,0-8.8c1.6,0,2.1,1.3,3.4,1.6C318.6,184.7,318.6,185.6,318.6,186.5z  M324.9,268.9c-1.9,0.2-3.5,1.1-5.4,0.7c-0.1-0.5-0.3-1-0.4-1.4c-0.1-0.9-0.1-1.8-0.1-2.7c0-25.8,0-51.5,0-77.3 c0-1.3-0.3-2.6,0.5-3.8c1.8,0,3.4,0,5.1,0c0.1,0.4,0.3,0.6,0.4,0.9c0,27.3,0,54.5,0,81.8C325.2,267.6,325,268.1,324.9,268.9z  M316.5,179.4c-0.9-1-1.7-2-2.3-3.2c-0.8-1.4-1.8-2.4-3.2-3.1c-2.4-1.4-4.9-2.9-7.3-4.3c-0.6-0.3-0.9-0.8-0.6-1.5c0,0,0,0,0,0 c-0.6,0.1-1.2,0.4-1.7-0.1c-0.1,0-0.1,0-0.2,0l-0.1-0.2c0,0,0.2,0.1,0.2,0.1c0,0,0.1,0.1,0.1,0.1c0.6,0,1.2,0.1,1.7,0.1c0,0,0,0,0,0 c0,0,0,0,0,0c0,0,0,0,0,0c0.5,0.3,0.9,0.7,1.4,1c2.3,1.2,4.7,2.4,7.1,3.4c1.9,0.9,3.4,2,4.5,3.8c0.5,0.8,1.1,1.4,1.7,2.2 c2.1,2.7,4.7,3.3,7.8,2.2c1.6-0.6,3.2-1.2,4.8-1.8c1.5-0.5,3.1-0.9,4.6-1.3c0.5-0.1,1.1,0,2.1,0c-3.2,1.5-6,2.8-8.8,4.1 c-1,0.4-2.1,0.8-3.1,1.1C321.9,182.9,318.9,182,316.5,179.4z M346.2,208.7c-2.2-0.6-4.4,0.2-6.8-0.6c0.4-0.4,0.6-0.7,0.8-0.7 c2.4-0.2,4.8-0.4,7.1,0.2c0.6,2.9,0.5,8.8-0.1,10.7c-0.8-1.1-0.7-1.1-0.8-4.8C346.5,211.9,346.8,210.3,346.2,208.7z M347.4,206.5 c-0.3-0.4-0.7-0.6-0.8-0.9c-0.1-1.9-0.1-3.8-0.2-5.7c0-1.1,0.1-2.2-0.3-3.4c-2.3-0.7-4.5,0.3-6.4-1c-0.1,0,0-0.2-0.1-0.5 c2.6-0.3,5.1-0.2,7.6,0.3C347.9,197.7,347.9,203.5,347.4,206.5z M344.5,192.6c0,0.3-0.2,0.6-0.4,0.9c-1.8,0.4-3.5,0.2-5.3-0.5 c-0.1-0.4-0.2-0.8-0.2-1.2c0-3.6,0-7.3,0-10.9c0-0.3,0-0.6,0.1-0.9c0.1-0.6,0.6-1,1.3-1c0.6,0.1,0.9,0.4,1,0.9 c0.1,0.9,0.1,1.8,0.1,2.7c0.1,1.7,0.1,3.4,0.2,5.1c0.2,0,0.5,0,0.7,0c0.2-1.9,0.1-3.8,0.2-5.7c0-0.8,0.1-1.6,0.3-2.4 c0-0.2,0.4-0.6,0.6-0.5c0.4,0,0.8,0.2,1,0.4c0.2,0.3,0.4,0.7,0.4,1.1C344.5,184.7,344.5,188.7,344.5,192.6z M338.2,206.3 c-0.9-0.7-0.9-0.7-0.9-4.9c0-1.7,0-3.4,0-5.3c-0.8-0.2-1.5-0.4-2.2-0.4c-1.3-0.1-2.6-0.1-3.9-0.2c-0.3,0-0.5-0.4-1-0.9 c3-0.5,5.5,0,8,0.3C338.8,197.6,338.8,204.2,338.2,206.3z M338,184c0.1,1.5,0,3,0,4.5c0,1.5,0.2,3-0.3,4.6c-1.8,0.3-3.4,0.2-5-0.2 c-0.6-2.2-0.7-8.3-0.2-11.6c1.5-0.9,3.1-1.6,5.1-1.7C338.3,181,338,182.5,338,184z M331.1,267.6c-0.7,0.1-1.4,0.2-2.1,0.3 c-0.2-0.3-0.4-0.5-0.4-0.7c-0.1-1.2-0.2-2.4-0.2-3.6c-0.1-7.2-0.2-14.3-0.3-21.5c0-1.1,0-2.2-0.4-3.3c-0.2,3.2-0.4,6.4-0.5,9.6 c-0.1,5.6-0.1,11.1-0.2,16.7c0,0.9-0.1,1.8-0.2,2.7c0,0.2-0.4,0.3-0.9,0.7c-0.1-1-0.2-1.8-0.2-2.5c0-3.1,0-6.3,0-9.4 c0-23,0-46.1,0-69.1c0-1.1,0.1-2.2,0.3-3.3c0-0.1,0.3-0.4,0.4-0.3c0.2,0,0.6,0.2,0.7,0.4c0.2,1,0.3,2,0.4,3c0.1,2.2,0.2,4.4,0.3,6.7 c0.2-0.2,0.4-0.3,0.4-0.4c0.1-2,0.3-4,0.4-6c0.1-1,0-2,0.1-3c0.1-1.8,0.2-1.8,2.4-2.3c0.6,2,0.6,7.3,0.1,10.5 c-0.7,0.2-1.5,0.3-2.3,0.5c0,9,0,17.9,0,26.9c0.8,0.2,1.4,0.4,2.2,0.6c0.1,0.5,0.3,1,0.3,1.6c0.1,1,0,2,0,3c0,12.8,0,25.7,0,38.5 C331.5,265,331.7,266.2,331.1,267.6z M338,234c0,9.6,0,19.2,0,28.8c0,1.1-0.1,2.2-0.1,3.4c-1.8,0.5-3.5,1.2-5.5,0.9 c-0.1-0.8-0.2-1.4-0.2-2.1c-0.3-15.2-0.2-41.4,0.3-44.5c1-0.1,1.8-0.1,2.5-0.2c0.8,0,1.6,0,2.6,0c0.1,0.8,0.3,1.5,0.3,2.2 C338,226.3,338,230.2,338,234z M337.3,213.8c0-1.6,0-3.2,0-4.8c-2.2-1-4.5,0-6.8-0.8c0.2-0.3,0.3-0.7,0.5-0.7c2.4-0.4,4.8-0.3,7.3,0 c0.5,3.7,0.4,9.1-0.2,10.9C337.4,217.6,337.4,217.6,337.3,213.8z M344.6,223.7c0,12.6,0,25.3,0,37.9c0,0.8,0,1.6-0.1,2.4 c-0.2,1.3-1.2,1.7-2.5,0.9c-0.2-0.1-0.5-0.3-0.7-0.5c-0.7,0.6-0.9,2-2.6,1.3c-0.1-0.8-0.2-1.6-0.2-2.5c0-10.4,0-20.8,0-31.2 c0-3.2,0-6.5,0-9.7c0-1.3,0.4-2,1-1.9c0.9,0.3,0.8,1.1,0.8,1.7c0.1,4.2,0.2,8.5,0.2,12.7c0,1.5,0.1,3,0.7,4.9 c0.6-6.8-0.2-13.1,0.7-19.2c2.2-0.5,2.4-0.4,2.5,1.3C344.6,222.5,344.6,223.1,344.6,223.7z M350.8,262.9c-0.1,0.8-0.7,1.2-1.7,1.1 c-0.1-0.4-0.4-0.8-0.4-1.2c-0.1-1.1,0-2.2-0.1-3.3c-0.2-9.3-0.3-18.6-0.5-27.9c0-0.9-0.1-1.7-0.2-2.7c-0.8,0.5-0.6,1.2-0.6,1.7 c-0.1,2.6-0.1,5.3-0.2,7.9c0,7.6,0,15.2,0,22.7c0,0.9,0,1.8-0.2,2.7c-0.1,0.7-0.7,0.9-1.5,0.7c-0.1-0.3-0.3-0.7-0.3-1.1 c-0.2-3.3,0-41.2,0.3-43.2c1.1-0.2,2.3-0.4,3.5-0.7c0.1-0.4,0.3-0.8,0.3-1.2c0-7.7-0.1-15.4-0.2-23c0-0.4-0.2-0.8-0.3-1.3 c-1.1-0.2-2.2-0.3-3.2-0.5c-0.5-2.4-0.6-10.3-0.1-13.5c2.2,0,3.7,1.3,5.3,2.5c0.1,0.7,0.2,1.4,0.2,2.1c0,25.5,0,50.9,0,76.4 C350.8,261.7,350.9,262.3,350.8,262.9z M357.4,192.2c0,22.1,0,44.3,0,66.4c0,1.2,0,2.4-0.1,3.8c-2,0.7-3.6,1-5.5,1.1 c-0.2-0.7-0.3-1.2-0.4-1.8c-0.1-0.8,0-1.6,0-2.4c0-23.7,0-47.5,0-71.2c0-1,0-2,0.1-3c0-0.4,0.3-0.7,0.5-1.3c1.9,1.3,3.4,2.8,4.8,4.3 c0.3,0.3,0.5,0.9,0.5,1.4C357.4,190.4,357.4,191.3,357.4,192.2z M363.9,198.5c-0.1,19.8-0.1,39.6-0.2,59.5c0,1,0.2,2-0.5,3.1 c-0.2-0.4-0.6-0.6-0.6-0.9c-0.1-1.1-0.1-2.2-0.2-3.3c-0.1-4.4-0.2-8.9-0.3-13.3c0-1-0.1-1.9-0.3-2.9c-1.2,6.9-0.5,13.9-0.9,20.7 c-0.8,0.8-1.6,1.1-2.5,0.8c-0.1-0.2-0.3-0.3-0.4-0.5c-0.1-0.9-0.1-1.8-0.1-2.7c0-21.9,0-43.9,0-65.8c0-1,0.1-2,0.1-3.6 c0.6,0.8,0.9,1.1,1,1.4c0.1,1,0.1,2,0.1,3c0.1,14.6,0.3,29.1,0.4,44.1c0.3-3.8,0.7-7.2,0.7-10.6c0.2-10.4,0.2-20.8,0.3-31.2 c0-1.2-0.1-2.4,0.2-3.6c2.2,0.5,2.8,1.1,3,2.8C363.9,196.5,363.9,197.5,363.9,198.5z M360.4,188.3c0.4-0.7,0.7-0.2,1,0 c1.2,0.7,2.4,1.6,3.6,2.2c0.9,0.4,1.9,0.7,2.8,0.9c0.9,0.2,1.8-0.1,2.5-0.8c0.8-0.9,1.7-1.7,2.4-2.7c1.4-1.7,2.7-3.5,4.1-5.2 c1.3-1.5,2.7-3,4.6-3.8c0,0,0,0,0-0.1c0,0,0.1,0,0.1,0c0.8-0.6,1.7-0.7,2.7-0.8c-0.9,0.5-1.6,1.4-2.7,0.8c0,0,0,0,0,0c0,0,0,0,0,0 c0.2,0.4,0,0.7-0.3,0.9c-1.9,1.4-3.2,3.3-4.6,5.2c-1.3,1.8-2.5,3.7-4,5.3c-2.9,3.3-5.1,3.5-8.7,1 C362.7,190.6,361.4,189.6,360.4,188.3z M389.6,235.9c0,0.6,0,1.2,0,1.8c0,1.6-0.9,2.3-2.5,2.8c-0.5-2.8-0.3-5.5-0.4-8.2 c-0.2-2.7-0.2-5.4-0.7-8.1c-0.2,6.5-0.4,12.9-0.5,19.4c-0.1,3.6,0,7.3,0,10.9c0,0.6,0,1.2-0.1,1.8c-0.1,0.3-0.4,0.7-0.7,0.8 c-0.6,0.2-0.9-0.3-0.9-0.9c-0.1-0.8-0.1-1.6-0.1-2.4c0.1-23.3,0.1-46.5,0.2-69.8c0-0.8,0.1-1.6,0.3-2.4c0.1-0.3,0.6-0.6,0.9-0.6 c0.3,0,0.7,0.4,0.8,0.7c0.2,0.9,0.2,1.8,0.2,2.7c0.1,5.5,0.2,10.9,0.4,16.4c0.1,3,0.2,6.1,0.2,9.1c0.1,0,0.3,0,0.4,0 c0.2-9.7,0.4-19.4,0.6-29.3c0.4-0.1,0.9-0.2,1.4-0.2c0.2,0.3,0.4,0.4,0.4,0.6c0.1,0.9,0.1,1.8,0.1,2.7 C389.6,201.1,389.6,218.5,389.6,235.9z M389.4,256.2c-0.7,0.1-1.2,0.3-1.8,0.4c-0.2-0.4-0.4-0.6-0.4-0.9c-0.4-3.7-0.3-11.1,0.1-13.4 c0.6,0,1.3,0,1.9,0C389.8,243.2,389.9,250.5,389.4,256.2z M377.3,238.8c0-16,0-31.9,0-47.9c0-3.5,0-3.5,2.5-6.1 c0.8-0.8,1.6-1.8,2.7-2.2c0.2,0.3,0.5,0.4,0.5,0.6c0,24.7,0,49.3,0,74.4c-1.9,0.4-3.6,0.7-5.2,1c-0.8-1.1-0.6-2.1-0.6-3.1 C377.3,249.9,377.3,244.4,377.3,238.8z M376.8,256.8c-0.1,2-0.2,2-2.7,2.3c-0.1-0.1-0.1-0.1-0.2-0.2c-0.1-0.1-0.1-0.2-0.1-0.3 c-0.1-0.3-0.1-0.6-0.1-0.9c-0.2-9.5-0.5-19-0.7-29c-0.8,1.4-0.8,2.4-0.8,3.4c-0.1,3.2-0.1,6.5-0.1,9.7c0,4.9,0,9.7,0,14.6 c0,1-0.1,2-0.1,3.4c-0.6-0.4-1-0.6-1-0.8c-0.1-0.8-0.2-1.6-0.2-2.4c0-19.4,0-38.8,0-58.2c0-0.6,0-1.2,0-1.8c0-1.6,1-2.2,2.5-3 c0.7,9.3,0.2,18.4,1.6,27.4c0-1.6,0-3.1,0-4.7c0-7.6,0.1-15.2,0.1-22.7c0-0.9,0-1.8,0.1-2.7c0.1-0.7,0.5-1.4,1.6-1.2 c0.1,0.8,0.2,1.5,0.2,2.3c0,21.2,0,42.4,0,63.7C376.8,256,376.8,256.4,376.8,256.8z M364.5,259.3c-0.1-0.7,0-1.4,0-2.1 c0-19.5,0-39,0-58.5c0-1.2-0.3-2.4,0.4-3.5c1.6,0.2,3.2,0.5,5,0.7c0.1,0.4,0.3,1,0.4,1.5c0.1,0.8,0,1.6,0,2.4c0,18.8,0,37.6,0,56.4 c0,1.2,0,2.4-0.1,3.5c-1.7,1.1-3.5,1-5.3,1.4C364.7,260.4,364.5,259.9,364.5,259.3z M544.5,271.2c0,0.4,0,0.8-0.1,1.2 c-0.2,1.9-0.3,2-2.7,1.8c-0.1-0.5-0.3-1.1-0.3-1.6c0-0.5,0-1,0-1.5c0.7-8.7,0.3-17.4-0.2-26.1c-0.5-8.8-1.6-17.5-3.1-26.2 c-3.1-17.4-8.1-34.2-15-50.5c-9.5-22.3-22.1-42.7-37.9-61.1c-0.6-0.7-1.1-1.6-2.1-1.9c0.4,0.7,0.7,1.4,1.2,1.9 c11.6,14.3,21.4,29.7,29.5,46.2c8.7,17.8,15,36.4,19.2,55.8c2.3,10.9,3.9,21.9,4.7,33c0.7,10.1,1.1,20.2,0.3,30.3 c0,0.5-0.1,1-0.2,1.6c-0.6,0.1-1.2,0.3-1.8,0.4c-0.8,0.1-1.6,0-2.4,0c-53.8,0-107.7,0-161.5,0c-1.8,0-3.6,0-5.5,0 c3.4-1.6,7.2-1.2,10.9-2.1c-0.8-0.5-1.7-0.3-2.5-0.5c-0.8-0.1-1.6-0.1-2.4-0.3c-1-0.2-2-0.4-2.9-0.8c-0.7-0.3-0.9-1.3-0.2-1.7 c1.1-0.7,2.2-1.5,3.4-1.8c3.4-1,6.8-2,10.2-2.8c6-1.3,12.1-2.2,18.3-2.3c1.3,0,2.6,0.1,3.8,0.1c0.3,0.8,0,1.2-0.5,1.4 c-0.9,0.4-1.8,0.8-2.8,1.2c0.3,0.7,0.9,0.4,1.2,0.4c2.7-0.2,5.4-0.4,8.2-0.7c8.5-0.8,16.9-1.6,25.4-2.4c8.7-0.8,17.3-1.6,26-2.5 c0.1,0,0.2-0.1,0.5-0.4c-1.1,0-1.9,0-2.7,0c-10.2-0.2-20.4-0.4-30.7-0.5c-1.8,0-3.6,0-5.3-0.9c0.5-0.9,1.4-1,2.1-1.1 c2.7-0.4,5.4-0.8,8.1-1c3.5-0.3,7.1-0.5,10.6-0.7c1.7-0.1,3.4,0,5.1,0.8c-0.1,0.6-0.1,1.2-0.2,1.7c0.2,0.1,0.3,0.2,0.5,0.3 c0.9,0,1.8,0,2.7,0c8.9-0.3,17.8-0.7,26.7-1c2.4-0.1,4.9-0.1,7.3-0.2c0.1-0.5-0.2-1.1,0.5-1.2c1.5-0.4,2.9-0.8,4.4-1.1 c6.5-1.1,13-2.1,19.5-3.1c0.3,0,0.6-0.2,0.8-0.4c-5-0.5-10-0.3-15.1-1.1c0.7-0.2,1.4-0.4,2.1-0.6c0.7-0.2,1.5-0.4,2.5-0.6 c-2.7,0-5.1,0-7.7,0c-0.9-2.4-0.8-4.8-0.8-7.2c1.7-0.5,3.3-0.2,5-0.2c0.3-0.3,0.6-0.7,0.9-1c0.6-0.1,1.3,0.2,3.6,1.7 c0.5-0.7,0.9-1.5,1.5-2.1c0.5-0.5,1.4-0.6,2.3-0.9c-0.8-0.7-1.4-1.3-2.1-2c-0.9-0.9-1.8-1.9-2.7-2.8c-0.6-0.7-0.4-1.3,0.2-1.9 c-2.3-2.3-4.5-4.6-6.7-6.8c0.1-0.4,0.1-0.7,0.2-0.8c1.1-0.8,2.1-1.9,3.6-0.6c0.2,0.2,0.7,0.2,0.8,0.1c0.8-0.8,1.5,0.1,2.4,0 c0.2-0.3,0.5-0.7,0.8-1.3c0,0.1,0-0.2-0.1-0.3c-1-1-2-2-2.9-3.1c-0.6-0.7-1.7-1.3-0.9-2.6c0.1-0.2-0.4-0.9-0.7-1.3 c-0.8-1.2-1.7-2.3-2.5-3.4c-0.3-0.4-0.4-0.9-0.6-1.4c2.3-1.6,4,0.8,6.1,0.6c0.6-0.8,0.4-1.6-0.3-2.3c-1.2-1.2-2.4-2.5-3.5-3.7 c-0.6-0.7-0.2-1.3,0.2-1.9c-1-2-2.9-3.5-3.9-5.7c1.5-0.5,2.3,0.9,3.6,1c0-0.5-0.1-1,0-1.5c0.1-0.4,0.5-0.8,0.7-1.2 c-1.4-1.4-2.7-2.8-4-4.2c-0.7-0.7-1.4-1.5-0.8-2.7c0.1-0.2,0-0.6-0.1-0.9c-0.9-2-1.8-4-2.7-5.8c-0.8,1.8-1.8,3.8-2.7,5.8 c-0.1,0.2-0.2,0.4-0.1,0.6c1,1.9-0.6,2.7-1.5,3.9c-0.2,0.3-0.6,0.5-1.1,0.9c-0.5-0.4-1-0.6-1.4-1.1c-2.3-2.4-4.7-4.8-7-7.2 c-0.6-0.7-1.1-1.4-1.6-2.2c-0.4-0.6-0.3-1.6,0.9-1.7c0.3,0,0.6-0.1,1.1-0.2c-2-2.4-4-4.7-5.7-7.1c-1.7-2.3-3.3-4.8-4.8-7 c0-0.9,0.7-0.7,0.9-0.9c0.3-0.3,0.5-0.8,0.7-1.2c1,0.6,2.1-0.4,3.2,0.3c0.8,0.6,1.8,1,2.6,1.4c0.5-0.3,0.8-0.6,1.3-0.9 c0.7,0.9,1.4,1.7,2,2.5c1.7-0.6,1.7-0.6,2.6-0.2c0.7,0.3,1.4,0.6,2.2,1c-0.4-3.1-0.4-3.1,0.5-4.6c-2.4-2.3-4.8-4.6-7.2-6.9 c-1.1-1.1-2.1-2.2-3.1-3.4c-0.5-0.6-1-1.3-1.3-2c-0.5-1-0.1-1.8,1.1-1.8c0.5,0,0.9,0.5,1.5-0.2c-1.9-2.5-3.8-4.9-5.6-7.4 c-1.8-2.5-4-4.7-5.6-7.7c4.1,0.2,6.8,2.9,10.6,4.6c-0.2-0.9-0.2-1.3-0.3-1.7c-0.1-0.4-0.4-0.7-0.6-1.1c-1.2-2.3-0.8-4,2.1-4.3 c0.1,0,0.2-0.1,0.4-0.2c-0.5-0.5-0.9-1-1.4-1.5c-3-2.9-6-5.8-8.8-8.7c-1-1-1.8-2.2-2.5-3.4c-1-1.8-0.7-2.5,1.6-3.3 c-1.3-2-2.7-4-3.7-6.1c-1-2.2-1.9-4.5-2.5-6.8c-0.7-2.3-1-4.7-1.6-7.7c-1.2,7.7-2.9,14.6-8,20.5c0.7,0.2,1.2,0.3,1.6,0.5 c0.7,0.4,1,1,0.8,1.8c-0.3,0.8-0.7,1.7-1.2,2.4c-1.2,1.6-2.5,3.2-3.9,4.6c-1.9,2-3.9,3.8-5.9,5.7c-0.7,0.6-1.3,1.2-2.2,2.1 c0.8,0.3,1.4,0.5,2,0.7c1.1,0.5,1.5,1.3,1.2,2.4c-0.2,0.8-0.6,1.5-0.9,2.2c-0.2,0.4-0.3,0.9-0.5,1.4c0.5,0,0.9,0.1,1.1,0 c0.9-0.5,1.8-0.9,2.6-1.5c1.8-1.4,4-1.8,6.1-2.6c0.1,0,0.3,0.2,0.7,0.3c-1.5,2.7-3.7,5-5.6,7.5c-1.9,2.5-3.8,5-5.9,7.7 c0.6,0,0.9,0.1,1.1,0c0.7-0.2,1.5-0.4,1.9,0.4c0.4,0.7-0.1,1.4-0.5,1.9c-0.9,1.2-1.8,2.4-2.9,3.5c-2,2.1-4.2,4.1-6.3,6.2 c-0.6,0.6-1.3,1.2-1.9,1.9c0.9,1.7,0.9,1.7,0.5,4.6c1.6,0.1,2.9-2.2,4.8-0.5c0.8-1,1.5-2,2.4-3c0.3,0.5,0.5,0.8,0.9,1.3 c0.6-0.3,1.4-0.5,1.8-0.9c1.2-1.1,2.6-0.6,4-0.8c0.2,0,0.6,0.3,0.6,0.4c-0.1,0.9,1,0.6,1.2,1.3c-1.4,2.7-3.1,5.1-4.9,7.5 c-1.8,2.3-3.7,4.5-5.5,6.8c2.5,0.8,2.7,1.2,1.4,3c-2.3,3.1-5.1,5.7-7.9,8.4c-1.9-1.3-3.4-2.6-4.3-4.9c0.6-0.2,1.1-0.3,1.5-0.5 c0-0.2,0.1-0.4,0-0.5c-1.8-2.2-3.5-4.4-5.3-6.6c-0.6-0.8-1.2-1.6-2.1-2.7c1.6,0,2.8,0.4,3.9,0.9c1,0.5,1.8,1.3,2.9,1.4 c0.6-0.7-0.1-1.1-0.2-1.6c-0.4-1.3-0.3-1.5,1-2.4c0.2-0.1,0.3-0.3,0.6-0.5c-0.5-0.4-0.9-0.8-1.3-1.2c-1.7-1.6-3.5-3.1-5.1-4.7 c-0.8-0.8-1.5-1.7-2.1-2.6c-0.8-1.1-0.6-1.5,0.8-2.7c-2.9-3.4-4.3-7.4-5.2-12.4c-0.8,2.7-1.3,4.8-2.1,6.8c-0.8,1.9-2,3.7-3.1,5.6 c1.2,1.4,1.3,1.7,0.4,2.9c-1.1,1.6-2.4,3-3.9,4c-0.4-0.2-0.7-0.3-1-0.4c-4.4-3.6-9.5-6.2-14.5-8.7c-13.6-6.6-27.1-13.1-40.7-19.6 c-1.3-0.6-2.9-1-4.3-1.3c-9.3-1.6-18.5-3.2-27.8-4.7c-9-1.5-17.9-3-26.9-4.5c-9-1.5-17.9-3.1-26.9-4.6c-5.7-1-11.4-1.9-17.1-2.8 c-6.1-0.9-11.7,0.5-16.7,3.8c-2.6,1.7-5.1,3.7-7.6,5.6c-8.1,6.3-16.3,12.7-24.4,19.1c-4.6,3.6-9.2,7.3-13.8,10.9 c-4,3.1-7,7-9.2,11.5c-0.5,0.9-1.2,1.9-0.5,3.2c2.3-0.8,3.8-2.6,5.8-3.8c1.9-1.1,3.6-2.6,5.5-3.8c1.9-1.3,3.6-2.8,5.8-3.8 c0.2,0.5,0.4,0.7,0.4,1c0.1,0.7,0.1,1.4,0.1,2.1c0.1,9.5,0.1,19,0.1,28.5c0,2.3-0.2,4.6-0.3,7c-0.1,1.6-0.1,3.2-0.1,4.8 c0.2,8.5,0.3,17,0.5,25.5c0,0.5-0.1,1-0.2,1.7c-0.5-0.2-0.9-0.3-1.2-0.5c-1-1-2-2-3-3c-0.7-0.7-0.5-1.4,0.1-2.1 c-2.3-2.3-4.8-4.4-6.8-6.9c0.6-0.6,1-1,1.6-1.6c0.9-0.2,1.8,0.1,2.6,0.8c0.9-0.6,1.9-0.3,2.7-0.1c0.4-0.4,0.7-0.8,1.2-1.3 c-1-1-2-1.9-2.9-3c-0.7-0.9-2-1.5-1.3-3.1c0.1-0.3-0.4-0.9-0.7-1.3c-1.1-1.4-2.3-2.8-2.9-4.4c0.2-0.9,0.8-1.1,1.4-1 c0.9,0.2,1.7,0.5,2.6,0.8c0.7,0.2,1.3,0.4,1.9,0.5c0.6-0.9,0.5-1.6-0.2-2.3c-1.1-1.1-2.3-2.3-3.4-3.5c-0.7-0.8-0.8-1.5-0.1-2.4 c-1.3-1.8-2.6-3.5-4-5.4c1.6-0.7,2.4,0.6,3.5,0.8c0.6-0.4,0.1-0.9,0.2-1.3c0.2-0.4,0.5-0.8,0.8-1.4c-1-1-2.1-2-3.1-3.1 c-0.7-0.7-1.2-1.6-1.8-2.4c0.6-3.1-2.4-5.2-2.6-8.2c-0.2,0.6-0.4,1.2-0.7,1.7c-0.5,1.2-1,2.4-1.6,3.6c-0.3,0.6-0.7,1.1-0.3,1.9 c0.4,0.7-0.1,1.4-0.6,1.9c-1.4,1.5-2.8,2.9-4.2,4.4c0.2,0.8,0.5,1.7,0.8,2.8c0.9-0.4,2-0.8,3-1.1c0.5,0.5,0.2,0.8,0,1.1 c-1.2,1.5-2.3,3.1-3.4,4.5c0.2,0.6,0.3,1.1,0.5,1.8c-0.6-0.2-0.9-0.2-1.1-0.3c-3.2-2.9-6.5-5.8-9.7-8.8c-0.7-0.6-1.2-1.4-1.7-2.1 c-0.2-0.3-0.1-0.7-0.2-1.2c0.8-0.2,1.4-0.3,2.3-0.6c-4.2-4.3-7.9-8.6-10.9-13.5c1.1-0.5,1.1-0.5,1.6-1.5c1.8-0.1,3.5,0,5,1.1 c0.7,0.6,1.5,0.3,2.5-0.4c0.6,0.7,1.3,1.4,2.1,2.3c1.6-1.2,3.1,0.7,4.8,0.8c-0.4-2.6-0.4-2.6,0.6-4.1c-0.5-0.4-0.9-0.9-1.4-1.4 c-2.7-2.4-5.4-4.8-8.1-7.3c-1.1-1-2.2-2.1-2.5-3.6c0.6-1.5,1.8-0.5,2.7-0.7c0.4-0.7-0.2-1-0.5-1.3c-3.2-3.8-6.4-7.6-9.6-11.4 c-0.4-0.5-0.7-1.1-1.2-1.8c4.1,0.2,7,2.9,11,4.3c-0.4-1-0.5-1.4-0.7-1.9c-0.3-0.7-0.7-1.4-1-2.2c-0.3-0.8,0.1-1.6,0.9-2 c0.6-0.3,1.3-0.5,2.2-0.8c-0.8-0.7-1.5-1.3-2.1-1.9c-2.7-2.4-5.5-4.8-8.1-7.3c-1.1-1-2-2.3-2.8-3.6c-0.9-1.4-0.5-2.1,1.3-2.9 c0.2-0.1,0.3-0.2,0.5-0.4c-2.4-2.4-4.1-5.2-5.3-8.4c-1.2-3.1-1.8-6.4-2.8-9.6c-1.3,6.6-3.2,12.9-8.1,18.1c0.6,0.2,1,0.3,1.3,0.4 c1,0.6,1.3,1.3,0.8,2.2c-0.5,1-1.1,2-1.9,2.7c-2.5,2.5-5.1,4.9-7.7,7.3c-1.1,1-2.3,1.9-3.7,3.1c0.9,0.3,1.4,0.5,1.9,0.7 c1.2,0.6,1.6,1.4,1.2,2.7c-0.2,0.7-0.7,1.2-1,1.9c-0.2,0.3-0.2,0.7-0.4,1.1c1.3,0.3,2.1-0.4,2.9-0.9c2.1-1.4,4.5-2.2,6.9-2.9 c0.2,0,0.4,0.1,0.8,0.2c-0.8,1.9-2.4,3.2-3.6,4.7c-1.3,1.6-2.6,3.1-3.9,4.6c-1.3,1.5-2.6,3.1-3.9,4.6c0.3,0.2,0.3,0.3,0.4,0.3 c0.8,0.2,1.9-0.7,2.4,0.5c0.4,1-0.4,1.7-1.1,2.4c-2.6,2.5-5.3,5-7.9,7.5c-0.9,0.9-2,1.7-2.9,2.5c1,1.6,1,1.6,0.6,4.1 c1.7,0.4,3.1-1.9,4.8-0.5c0.8-0.9,1.5-1.7,2.3-2.5c0.7,0.7,1.3,1,2.1,0.5c0.3-0.2,0.6-0.3,0.8-0.4c1-0.7,2.1-1,3.3-0.6 c0.3,0.1,0.7-0.2,1.1-0.3c0,1.1,0.4,1.6,1.6,1.6c-3.2,5-6.8,9.4-10.9,13.4c0.2,0.8,0.8,0.4,1.2,0.5c0.4,0.1,0.7,0.3,1.1,0.4 c-0.1,1.4-0.9,2.2-1.6,2.9c-1.7,1.7-3.4,3.4-5.2,5.1c-1.8,1.6-3.7,3.2-5.5,4.8c-0.4,0.3-0.7,0.7-1.2,1.3c1.6-0.1,2.8-1.1,4.3-0.4 c0.1,0.5,0.2,1.2,0.4,1.9c2.1-0.1,3.6-1.9,6-1.6c0.1,1,0.2,2,0.3,3.6c1.3-1.8,2.3-3.2,3.3-4.6c0.3,0.4,0.6,0.7,0.8,1 c1.3,0.2,2.2-1.4,3.9-0.9c0,0.7-0.1,1.5-0.1,2.3c1.3,0.9,2.5-0.6,3.9-0.1c-0.1,0.3-0.1,0.7-0.3,1c-0.6,0.7-1.2,1.4-1.9,2 c-4.6,4.6-9.4,8.9-14.4,13c-0.5,0.4-1.1,0.9-1.6,1.3c0.4,0.9,1.1,0.4,1.6,0.5c1,0.3,1.4,0.9,1,1.8c-0.4,0.8-1,1.6-1.6,2.2 c-1.7,1.6-3.4,3.2-5.2,4.7c-2.1,1.7-4.3,3.4-6.4,5.1c-0.4,0.3-0.7,0.6-1.2,1.2c1.1,0.3,1.9,0.1,2.6,0.1c1.2,0,2.4-0.1,3.6,0.1 c2,0.3,2.4,1,2.2,3.1c0,0.3,0,0.6,0,0.9c0.6-0.1,1.2-0.2,1.9-0.3c0,0.9,0,1.6,0,2.6c1.6-0.7,2.4-1.8,3.5-2.7 c0.6-0.5,1.1-1.1,2.1-0.9c0.5,0.1,1-0.4,1.5-0.8c0.7-0.5,1.3-1.3,2.6-1c0.1,0.9,0.3,1.9,0.4,2.7c0.9,0.8,1.8,0.8,2.7,0.5 c2.1-0.6,4.1-0.8,6.2-0.6c1.1,0.1,2.2-0.2,3.3-0.2c0.4,0,0.8,0.1,1.2,0.2c0,1.5-0.4,2.8-1,4.1c-0.5,1.1-0.4,2.5-0.6,3.6 c-1.1,1-2.2,1-3.3,1.1c-7.5,0.8-15.1,1.6-22.6,2.4c-2.5,0.3-5,0.5-7.5,1.1c3.1,0.4,6.1,0.9,9.2,1.3c6.5,0.8,13,1.6,19.6,2.3 c5.4,0.6,10.9,1,16.3,1.4c4.3,0.3,8.7,0.7,13,0.9c5.5,0.3,10.9,0.3,16.4,0.5c2.6,0.1,5.3,0.3,7.9,0.5c0.5,0,1,0.4,1.9,0.9 c-1.2,0.5-1.9,0.9-2.6,1c-3.4,0.6-6.7,1.3-10.1,1.8c-7.8,1.1-15.6,2-23.5,3c-4.1,0.5-8.2,0.9-12.3,1.6c1.1,0,2.2,0.1,3.3,0.1 c12.7,0.4,25.5,0.7,38.2,1.1c3.3,0.1,6.7,0.1,10,0.2c7.1,0.3,14.1,0.6,21.2,1.1c-1.5,0-3.1,0.1-4.6,0.1c-40.7,0-81.4,0-122.1,0 c-1.1,0-2.2,0.2-3.2-0.3c-1.5-5.1-0.8-29.3,1.2-45.4c1.9-15.1,5.2-29.9,9.9-44.3c4.7-14.5,10.7-28.3,18.1-41.7 c7.3-13.3,15.9-25.8,25.9-37.9c-1.3,0.2-1.6,0.9-2,1.4c-7.7,8.9-14.7,18.3-21,28.2c-14.7,23.3-25,48.4-30.9,75.4 c-1.8,8.1-3,16.3-4,24.5c-1.4,12.1-1.5,24.2-1.2,36.4c0,0.9,0,1.8,0,2.7c0,0.2-0.2,0.4-0.3,0.6c-0.2,0.1-0.5,0.3-0.8,0.3 c-0.5,0-1-0.1-1.4-0.2c-0.7-1.2-0.6-2.5-0.7-3.7c-0.2-9.5-0.3-19,0.3-28.5c1.3-19,4.8-37.5,10.6-55.6c10.7-33.7,28.1-63.5,52.1-89.5 c22.4-24.3,48.7-43.1,78.9-56.5c16.7-7.4,34-12.8,52-16.2c9.9-1.8,19.8-3.1,29.8-3.7c6.8-0.4,13.6-0.5,20.3-0.4 c7.7,0.1,15.4,0.8,23,1.6c12,1.4,23.8,3.7,35.4,6.9c34.5,9.6,65.4,26.2,92.5,49.7c33.6,29.3,57.3,65.1,71,107.5 c4,12.2,6.8,24.7,8.7,37.5C544.6,239.2,545.2,255.2,544.5,271.2z M391.4,217.8c0,0.9,0.2,1.8,0.2,2.7c0.2,1.9,0.4,3.8,0.6,6 c0-2.4,0-4.4,0-6.5c0-0.5,0-1,0.1-1.5c0.1-0.6,0.4-1,1-0.9c0.3,0,0.7,0.4,0.8,0.7c0.4,1.4,0.6,2.8,0.2,4.2c0.2-1,0.5-1.9,0.7-2.9 c0,0,0.2,0,0.4-0.1c0.1,0.2,0.3,0.4,0.3,0.6c0,3.1-0.1,6.2-0.1,9.3c0,0.1-0.3,0.2-0.4,0.4c-0.7-0.1-0.7-0.6-0.7-1.1 c-0.1-2.1-0.1-4.2-0.1-6.3c-0.1,0.6-0.4,1.2-0.4,1.8c-0.1,3-0.3,6-0.3,9.1c0,2.7-0.3,3.1-3.1,4.5c-0.5-0.2-0.5-0.6-0.5-1 c0-6,0.1-11.9,0.1-17.9c0-0.9-0.1-1.8-0.1-2.7c0-10.3,0.1-20.6,0.1-30.9c0-0.8,0.1-1.5,0.3-2.3c0.3,6,0.6,12.1,0.8,18.1 C391.5,206.7,391.4,212.3,391.4,217.8z M392.4,185.9c0-1.7,0-3.4,0-5.5c1.2-0.1,2.1-0.1,3.1-0.2c0.2,0.7,0.4,1.3,0.4,1.8 c0,4,0,8.1,0,12.1c0,0.5,0,1-0.1,1.5c-0.5,1.5-0.4,3,0,4.5c0.2,0.6,0.1,1.2,0.1,1.8c0,3.1-0.1,6.3,0.1,9.4c0.1,2.4-1.1,3.7-3.1,4.8 c-0.6-0.9-0.4-1.8-0.4-2.7C392.4,204.2,392.4,195.1,392.4,185.9z M394.9,252.2c0-2.1,0.1-4.2,0.2-6.7c1,2,1.1,6.5,0.3,9.5 c-0.3-0.4-0.5-0.5-0.5-0.7C394.9,253.6,394.9,252.9,394.9,252.2z M395.1,231.8c0.1,0,0.2,0,0.3,0c0.5,0.1,0.6,0.8,0.2,1.5 c0,0.1-0.1,0.2-0.3,0.3c-0.3-0.2-0.4-0.2-0.4-0.3C394.6,232.9,394.6,232.1,395.1,231.8z M392.8,255.5c-0.7,0.1-1.4,0.3-2.1,0.4 c-0.2-0.3-0.4-0.5-0.4-0.6c0-4.2,0-8.4,0-12.8c1.4-0.1,1.9,0.4,1.8,1.4c0,0.8,0.4,1,1,1.1C393.6,248.9,393.5,252.5,392.8,255.5z  M399.7,219.7c0-0.6,0.5-1.3,0.7-1.9c0.7,0,1.3,0,1.9-0.1c0.5-0.1,0.9-0.3,1.6-0.6c0.2,0.6,0.3,1.2,0.5,1.9c0.7-0.1,1.4-0.1,2.2-0.2 c0,0.3,0.1,0.5,0,0.6c-2.1,2.1-4.3,4.2-6.4,6.3c-0.1,0.1-0.4,0-0.7,0C398.8,223.8,399.7,221.8,399.7,219.7z M399.4,198.7 c0-0.3,0.7-1,0.9-0.9c1,0.3,1.7-0.3,2.6-0.6c1.4-0.5,2.1-0.3,3.3,0.9c-1.3,2.7-3.6,5.7-6.3,8C399.3,203.4,399.2,201,399.4,198.7z  M401.4,187.2c0.7,0.2,1.1,0.3,1.6,0.5c-0.2,1.8-0.5,2.3-2.9,4c-0.1-0.1-0.4-0.2-0.4-0.4c0.1-3.7-0.6-7.4-0.4-11 c1.9-0.5,5.5-0.7,7.8-0.3C405.2,182.7,403.1,184.8,401.4,187.2z M399.2,243c0.6,0.5,0.8,0.5,0.8,0.7c0.4,1.2,1.2,1.6,2.3,1.2 c2.4-0.7,4.7-0.2,7-0.4c0.5,1,0.4,1.6-0.5,1.9c-0.1,0-0.2,0.1-0.3,0.1c-3,0.1-6,0.2-8.9,0.3C398.7,245.6,399.3,244.6,399.2,243z  M435.3,200.7c1.1-1.7,2-3.1,3-4.7c0.4,0.5,0.6,0.8,0.8,1.1c1.3,0.1,2.2-1.5,3.8-1c0,0.9,0,1.9,0,3c1.3-0.3,2.5-0.6,3.9-1 c-0.2,0.6-0.2,1-0.4,1.3c-0.6,0.8-1.3,1.6-2,2.3c-3.5,3.5-7,7-10.5,10.5c-0.5,0.5-1.1,0.9-1.7,1.4c-2-1.4-3.6-3-4.9-5.1 c0.4-0.5,0.8-0.9,1-1.2c-1.9-2.4-3.8-4.8-5.6-7.2c-0.4-0.5-0.7-1.2-1.1-1.8c0.3-0.5,0.6-0.9,1-1.4c1.1,1.2,2.6,0.4,3.9,0.8 c1.4,0.5,1.5,0.3,2.3,1.3c0.6,0,1.2-0.1,1.8-0.1c0.6,0.1,1.1,0.3,1.7,0.4c0.1-0.7,0.1-1.4,0.4-1.8c0.2-0.3,0.9-0.5,1.4-0.5 c0.5,0,1,0.3,1,0.9c0,0.6-0.2,1.2-0.3,1.8C434.8,200,435.1,200.2,435.3,200.7z M449.4,245.2c-0.1,1.1-0.2,2.1-0.4,3.2 c-0.9,0.1-1.7,0.3-2.4,0.3c-9.3,0.3-14.4,0-17.4-0.8c2.1-1.4,4.4-1.2,6.5-1.5c2.2-0.4,4.4-0.5,6.6-1c-0.6,0-1.2-0.1-1.7-0.1 c-0.6,0-1.2,0-1.8,0c-1,0-2,0.2-2.8-0.6c0,0,0,0,0,0c0,0-0.1,0-0.1,0c-0.1,0.1-0.3,0.2-0.4,0.3c-0.1,0-0.2,0-0.3,0 c0.1-0.1,0.1-0.3,0.2-0.3c0.1,0,0.3,0,0.4,0c0,0,0,0,0.1-0.1c0,0,0,0,0.1,0.1c0.1-2.3,0.5-2.7,2.6-2.8c1,0,2,0,3.3,0 c-1.4-1.2-2.5-2.3-3.9-3.4c4.3-1.5,8.5-1.2,12.9-1.2c-0.4,2.6-0.8,4.9-1.2,7.3c-0.7,0.1-1.3,0.3-1.8,0.4 C448.2,245.1,448.7,245.2,449.4,245.2z M434.9,236.1c0.3-1.1,0.9-1.5,1.9-1.5c0.6,0.9,0.4,1.8,0,3.1 C436,237,435.4,236.5,434.9,236.1z M423.4,219.1c0.1-0.6,0.3-1.1,0.5-1.7c1,0.1,2.2,0,3.1,0.4c0.8,0.4,1.4,1.3,2.2,2.2 c0.1-0.8,0.2-1.3,0.4-2.1c0.7,0.2,1.3,0.4,1.8,0.5c0.1,0.4,0.2,0.6,0.1,0.8c-1,2.2-2.7,3.9-4.7,5.6c-2.2-1.6-4.1-3.4-5.8-5.9 C422,219,422.6,219,423.4,219.1z M425.4,244.9c1.7,0.5,1.8,0.4,2.5-1.6c0.1-0.2,0.2-0.3,0.3-0.5c2.6,1,3.6,1.5,4.2,2.5 c-0.5,0.1-1,0.3-1.5,0.3c-3.7,0.2-7.4,0.3-11.2,0.4c-0.4,0-0.8-0.1-1.1-0.3c-0.1,0-0.2-0.3-0.3-0.5c0-0.2,0.1-0.4,0.2-0.5 c0.1-0.1,0.4-0.2,0.5-0.2C421.1,244.8,423.3,244.3,425.4,244.9z M470.5,197.5c0-0.5-0.1-0.9-0.1-1.5c1.6-0.3,2.5,1,3.8,1.1 c0.2-0.4,0.5-0.7,0.8-1.1c1.4,1.1,1.7,3.1,3,4.3c0.6-0.1,0.7-0.4,0.6-0.9c-0.1-0.5-0.2-1-0.3-1.5c-0.1-0.7,0.5-1.2,1.1-1.1 c0.7,0.2,1.3,0.4,2,0.7c1,0.4,2,0.9,3,1.4c1.3-0.3,2.2-1.5,3.9-1.3c-1.1,2.1-2.8,3.6-4,5.5c0.1,0.8,0.9,1.5,0,2.4 c-1.2,1.1-2.2,2.3-3.4,3.5c-0.7,0.6-0.9,1.3-0.4,2.3c2,0.6,3.9-2.1,6.2-0.6c-0.6,1.9-1.8,3.4-3.2,4.7c-2.9-1.8-14-12.7-16.4-16.1 c-0.2-0.3-0.2-0.7-0.5-1.4c1.5,0.4,2.6,0.7,3.9,1C470.5,198.5,470.5,198,470.5,197.5z M482.9,218.5c-0.2,0.1-0.5,0.3-0.7,0.4 c-0.1-0.2-0.3-0.5-0.2-0.5c0.2-0.2,0.4-0.3,0.7-0.5C482.7,218.1,482.7,218.3,482.9,218.5z M478.2,235.6c0.1,1-0.8,1.3-1.6,1.5 c-0.4-0.9-0.7-1.8,0-2.6C477.4,234.6,478.2,234.8,478.2,235.6z M469.6,237.4c1.7,0.2,3.3,0.6,5,1c0.6,0.9,1.5,0.8,2.4,1 c0.4,0.1,0.8,0.5,1.1,0.9c0.4,0.5,0.6,1,0.9,1.5c1.2-0.7,2.3-1.3,3.3-1.8c0.9,0.3,1,1.3,1.9,1.1c1.4-0.2,2.8-0.2,4.1,0 c0.5,2.6,0.3,4.7-0.5,7.2c-2.8,0.6-20.3,0.7-23.6,0c-0.6-3.6-1.2-7-1.8-10.7c0.7-0.1,1.3-0.3,1.9-0.3 C466.1,237.3,467.9,237.2,469.6,237.4z M190.9,243c-2.1,0.7-8.9,1.3-11.9,1c-0.1-0.5-0.3-1.1-0.3-1.6c0-0.9,0.4-1.3,1.3-1.4 c0.9-0.1,1.8-0.1,2.7,0.1c1,0.2,1.4-0.4,2-1.2c0.8,0.3,1.3,0.6,1.8,0.8c0.5,0.3,1,0.7,1.4,1c1.3-0.4,0.9-2.7,2.9-2.2 C191.3,240.7,191.3,241.9,190.9,243z M165.9,230.6c-1.3-0.7-2-1.7-2.6-2.9c-0.5-0.9,0-1.8,1.1-1.8c0.5,0,1,0.1,1.5,0.1 c0.3-0.1,0.5-0.5,0.8-0.7c0,0,0,0,0,0c0,0,0,0,0,0.1c0,0,0,0,0-0.1c-0.3,0-0.6,0-0.7-0.1c-0.2-0.1-0.4-0.5-0.3-0.7 c0-0.2,0.4-0.4,0.6-0.4c0.2,0,0.5,0.2,0.6,0.4c0.1,0.2,0,0.5-0.1,0.7c0,0,0,0,0,0c0.8-1,1.7-1.9,3.2-1.6c0.4,0.4,1,0.9,1.6,1.5 C169.9,227.2,168.1,229,165.9,230.6z M167.9,245.1c-0.1,0-0.2,0.1-0.2,0.1c0-0.1,0-0.2,0-0.4c0.1,0,0.2,0.1,0.2,0.1 C167.9,245,167.9,245.1,167.9,245.1z M144.2,247.3c-0.3-1.1-0.5-1.8-0.7-2.6c0.4-0.2,0.7-0.4,0.9-0.4c2.1,0,4.2,0.6,6.3,0 c0.3-0.1,0.8,0.1,1.2,0.2c0.7,0.2,1.4,0.4,2.1,0.5c2.6,0.5,3.1,0.2,3.4-2.6c0-0.2,0.2-0.4,0.2-0.5c0.8-0.4,1.3,0.2,1.9,0.6 c0.9,0.6,1.5,1.5,2.9,1.2c0.7-0.1,1.4,0.7,1.6,1.7c-0.4,0.1-0.7,0.4-1.1,0.4C156.8,246.3,150.7,246.7,144.2,247.3z M152.8,249 c-0.3,0.4-0.4,0.8-0.6,0.8c-2.1,0.4-4.1,0.7-6.2,1c-0.9,0.1-1-0.2-1.1-1.6c0.5-0.1,0.9-0.2,1.4-0.2C148.4,248.9,150.5,249,152.8,249 z M159.7,208.8c-0.1-0.3-0.2-0.6-0.2-0.9c-0.1-0.8,0.5-1.4,1.3-1.1c1.5,0.5,3,1.1,4.4,1.7c0.3,1.1-0.8,2.1,0.1,3 c2,0.3,3.7-2,6.1-0.7c-0.2,0.5-0.3,1-0.5,1.4c-0.9,1.2-1.8,2.4-2.7,3.7c-0.3,0.5-0.8,0.8-0.4,1.6c0.2,0.3-0.1,1-0.4,1.3 c-1.2,1.5-2.6,2.8-4.2,4.3c-5.5-4.7-10.7-9.1-15.3-14.3c-0.2-0.2-0.1-0.5-0.2-1c1.3,0.3,2.4,0.6,3.8,0.9c0-1.1,0-1.9,0-2.8 c1.5-0.4,2.4,0.8,3.7,1c0.3-0.2,0.7-0.5,1.2-0.9c0.9,1.3,1.8,2.6,2.7,3.9C159.8,209.8,159.8,209.4,159.7,208.8z M166.2,206.6 c0.1-0.2,0.7-0.3,1-0.2c0.4,0.1,0.6,0.5,0.3,0.8c-0.3,0.3-0.7,0.5-1.3,0.9C166.2,207.4,166.1,206.9,166.2,206.6z M170.4,241.3 c0.3-0.1,0.6-0.2,0.9-0.2c0.6,0,1.2,0,2.1,0c0.3,1.4,0.2,2.4-0.1,3.6c-0.7,0.1-1.4,0.3-2,0.4c-1.3,0.1-1.8-0.3-2-1.3 C168.9,242.6,169.3,241.7,170.4,241.3z M562.1,271.5c0,0.9,0.1,1.8-0.6,2.7c-0.3,0.1-0.7,0.2-1.1,0.2c-0.6,0-1.2-0.1-1.7-0.1 c-0.8-0.8-0.5-1.6-0.5-2.4c0-7,0.2-14,0.1-20.9c-0.2-13.7-1.8-27.2-4.4-40.6c-4.5-23-12-44.9-22.6-65.7 c-12.5-24.6-28.7-46.6-48.4-66c-18.8-18.4-39.9-33.6-63.4-45.4c-19.7-9.9-40.4-17.1-62-21.5c-8.5-1.8-17.1-3.2-25.8-4 c-12.1-1.1-24.2-1.7-36.4-1c-6.7,0.4-13.3,0.8-20,1.6c-13.3,1.6-26.3,4.3-39.2,8C172.4,34.6,118,77.8,85.5,136.1 c-12.9,23.1-21.9,47.7-27,73.7c-2.2,11.1-3.6,22.3-4.3,33.7c-0.4,7-0.5,13.9-0.4,20.9c0,2.5,0.2,5,0.3,7.6c0,0.7-0.1,1.4-0.1,2.2 c-1.4,0.4-2.3,0.5-3.3,0c-0.6-1.1-0.5-2.4-0.6-3.5c-0.2-9-0.4-18,0.2-27c0.4-6.7,1-13.3,1.9-19.9c1.8-13.5,4.7-26.7,8.7-39.6 c12.9-42,35.2-78.4,66.7-109.1c25-24.3,53.8-42.7,86.3-55.3c15-5.8,30.5-10.1,46.3-13c8.8-1.6,17.6-2.7,26.5-3.4 c10.9-0.8,21.8-1.1,32.8-0.3c5.9,0.5,11.9,0.8,17.8,1.5c13.4,1.6,26.5,4.3,39.5,8c46.9,13.6,86.9,38.5,119.6,74.7 c29.3,32.4,48.9,69.9,59.1,112.3c2.6,11,4.4,22.2,5.6,33.5C562.4,245.8,562.5,258.6,562.1,271.5z"></path><path class="st0" d="M196.3,163.8c-1.5,0-1.8,0.7-1.8,1.5c0,3,0,6.1,0.1,9.1c0,0.3,0.1,0.6,0.3,0.8c0.1,0.1,0.3,0.3,0.5,0.3 c0.3,0,0.6,0,0.8-0.2c0.2-0.2,0.3-0.5,0.3-0.8C196.5,171,196.5,167.4,196.3,163.8z"></path><path class="st0" d="M193.9,162.4c0.1,0,0.2,0.1,0.2,0.1c0.2-0.2,0.4-0.4,0.6-0.6c-0.1,0-0.2-0.1-0.2-0.1c-0.2,0.1-0.3,0.2-0.5,0.3 C194,162.2,194,162.3,193.9,162.4z"></path><path class="st0" d="M399.9,207.4c-0.2,0.6-0.3,0.8-0.4,1.1c0,0.2,0.2,0.3,0.2,0.5c0.2-0.2,0.5-0.3,0.6-0.5 C400.5,208.4,400.3,208.2,399.9,207.4z"></path><path class="st0" d="M196.4,160.5c-0.1,0-0.2,0.1-0.2,0.1c0,0.1,0.1,0.1,0.1,0.2c0.1-0.1,0.2-0.2,0.4-0.3 C196.6,160.6,196.5,160.5,196.4,160.5z"></path><polygon class="st0" points="192.1,163.7 192.2,163.8 192.3,163.6 "></polygon><path class="st0" d="M581.3,421c-3-0.6-5.9-1.2-8.8-1.7c-7.5-1.3-14.9-2.7-22.4-4c-6.9-1.2-13.8-2.3-20.7-3.4 c-6.3-1-12.6-1.8-18.9-2.7c-5.3-0.7-10.6-1.5-15.9-2.1c-3.9-0.5-7.8-1-11.7-1.4c-4.3-0.5-8.6-1-13-1.4c-4.9-0.5-9.8-1.1-14.8-1.6 c-5.3-0.5-10.7-1-16-1.4c-6.2-0.5-12.5-1.1-18.7-1.6c-7.6-0.5-15.1-1-22.7-1.4c-10-0.6-20-1.2-30-1.6c-16.2-0.5-32.4-0.9-48.6-1.2 c-19.2-0.4-38.5,0.3-57.7,0.6c-0.8,0-1.6,0.1-2.4,0.1c-8,0.3-16,0.6-24,1c-5.6,0.2-11.1,0.4-16.7,0.8c-8.9,0.5-17.8,1.2-26.7,1.8 c-2.9,0.2-5.9,0.4-8.8,0.7c-6.3,0.5-12.7,1.1-19,1.7c-4.8,0.4-9.7,0.9-14.5,1.4c-4.5,0.5-9,1-13.6,1.5c-5.8,0.7-11.7,1.3-17.5,2 c-6.8,0.9-13.6,1.8-20.4,2.8c-8.7,1.3-17.4,2.4-26.1,3.9c-11.5,1.9-22.9,4-34.4,6c-2.2,0.4-4.3,0.9-6.6,1.4c0.4,3.8,1.3,7.3,2,11.1 c1.1-0.1,1.9-0.1,2.7-0.1c5-0.5,10-1.3,15.1-1.5c13.1-0.6,26.1,0,39,2.1c10.4,1.7,20.6,4.3,30.5,7.9c2.1,0.8,3.9,1.9,5.6,3.5 c26.5,25.7,57.1,45,91.8,57.6c24.5,8.9,49.8,14,75.8,15.3c16.2,0.8,32.4,0.2,48.5-2.1c11.3-1.6,22.5-3.8,33.5-6.9 c22.8-6.3,44.2-15.6,64.4-27.7c17.2-10.4,33-22.6,47.4-36.7c1.2-1.2,2.5-2,4-2.6c5.8-2.1,11.7-4,17.7-5.5c11.6-2.9,23.4-4.5,35.4-5 c10.9-0.4,21.9-0.1,32.7,1.6c0.8,0.1,1.6,0,2.5,0c0.4-1.9,0.8-3.6,1.1-5.4C580.8,424.8,581.6,423,581.3,421z M111.3,425.6 c-2.3-0.5-4.5-1.1-6.7-1.7c-2.2-0.6-4.5-0.8-6.7-1.6c0.2-0.3,0.2-0.6,0.3-0.6c4.5-0.8,8.9-1.4,13.6-1.9c2.2,2.3,4.1,4.8,6.7,7.6 C115.6,427.1,113.5,426.1,111.3,425.6z M431,482.1c-25.9,14.5-53.6,24.2-82.9,29c-31.8,5.3-63.5,4.6-95-2 c-31.3-6.6-60.4-18.7-87.2-36.1c-12-7.8-31.6-23.5-33.8-26.9c0.5-0.3,1,0.1,1.4,0.3c3.3,1.7,6.6,3.5,9.9,5.3 c1.1,0.6,2.2,1.5,3.2,2.3c16.1,13.2,33.6,24.2,52.5,33c17.2,8,35,14.1,53.6,18.1c9.9,2.1,19.9,3.6,30,4.6c8.2,0.8,16.4,1,24.6,1 c9.4,0,18.8-0.5,28.2-1.6c14.3-1.7,28.3-4.5,42.1-8.6c31.5-9.3,60.2-24.2,85.8-44.7c4.7-3.8,9.8-6.7,15.2-9.4 c0.4-0.2,0.9-0.4,1.4-0.5c0.1,0.2,0.2,0.4,0.3,0.5C465.2,460.2,448.9,472.2,431,482.1z M447.2,451c-25.8,18.8-54.2,32.1-85.3,39.5 c-29.8,7.2-60,8.5-90.4,4.1c-33.8-5-65.1-16.6-93.9-35c-17.6-11.2-42.5-32.5-48.8-41.8c2.3-0.7,13.1-1.9,20.3-2.7 c110.9-11.4,221.8-10.7,332.6,2.1c0.6,0.1,1.1,0.3,1.7,0.5C479.6,423.6,461.1,440.9,447.2,451z M513.5,422.5 c-6.1,1.3-12.2,2.8-18.1,4.7c-0.3,0.1-0.7,0.1-1.2,0.1c1.1-1.9,4.2-5.6,6.4-7.5c4.5,0.4,9,1.1,13.5,1.8 C514.2,422.2,514,422.4,513.5,422.5z"></path><path class="st0" d="M171.8,144.2c6.4-12,28.7-33.2,46.3-44.2c23.5-14.7,49.1-23.2,76.8-25c31.3-2,61,4.1,88.7,18.8 c14.5,7.6,36.5,24.5,40.9,31.5c-1.2-0.8-2-1.4-2.8-2c-7.4-5.5-14.8-10.9-22.7-15.7c-15-9.2-31.1-16-48.2-20.1 c-8.8-2.1-17.6-3.6-26.6-4.4c-6.7-0.6-13.3-1-20-0.9c-23.7,0.4-46.3,5.7-67.7,15.7c-18.8,8.7-35.6,20.4-51.2,33.9 c-4,3.5-7.8,7.1-11.7,10.6C173.2,142.9,172.7,143.3,171.8,144.2z"></path><path class="st0" d="M319.4,111c-1,1-1.7,1.6-2.4,2.2c-3.8,3.3-8.2,4.3-13,2.8c-6.1-1.9-9.8-8.2-8.9-14.5 c0.7-5.3,5.5-11.1,12.8-11.2c0.6,0,1.2,0.1,1.8,0c0.5-0.1,1-0.4,1-1c0-0.3-0.3-0.8-0.5-1c-0.6-0.3-1.3-0.5-2-0.7c-3-0.7-6-0.7-9,0.1 c-7.7,2-13.3,9.2-13.3,17.2c0,8.2,5.4,15.5,13.2,17.6c7.8,2.1,16.1-1.2,20.2-8.1c0.4-0.6,0.7-1.2,0.9-1.9 C320.2,112.3,319.8,111.8,319.4,111z M295.5,118.7c-6.2-3.8-9-11.2-6.8-18.2c1.1-3.5,3.2-6.3,6.1-8.4c2.2-1.5,3.3-2,5.4-1.9 c-6.2,4.7-8.6,10.7-6.4,18.2c0.7,2.4,2.1,4.3,3.9,6c1.9,1.8,4.1,3,6.5,3.7c2.3,0.7,4.7,0.4,7.3,0.4 C307.9,121.9,300.6,121.9,295.5,118.7z"></path><path class="st0" d="M349.6,108.9c-5.2-0.9-7.8-3.4-8.7-8.6c-0.1-0.4-0.2-0.8-0.4-1.1c-0.1-0.1-0.3-0.2-0.5-0.2 c-0.2,0-0.4,0.1-0.5,0.3c-0.1,0.2-0.2,0.5-0.3,0.8c-1.1,5.5-3.5,7.9-8.9,8.8c-0.3,0-0.6,0.1-0.8,0.3c-0.2,0.1-0.3,0.3-0.3,0.5 c0,0.2,0.1,0.4,0.2,0.5c0.3,0.2,0.7,0.3,1.1,0.3c4,0.4,7.9,3.4,8.6,8.4c0.1,0.6,0,1.4,0.7,1.5c1,0.1,0.8-0.9,1-1.5 c0.8-4.7,3.6-7.5,8.3-8.3c0.4-0.1,0.8-0.1,1.2-0.2c0.2-0.1,0.3-0.5,0.6-0.9C350.4,109.2,350,109,349.6,108.9z M340,114.9 c-1.7-1.8-3.5-3.5-5.2-5.2c1.7-1.7,3.4-3.4,5.2-5.2c1.7,1.7,3.4,3.4,5.1,5.1C343.6,111.3,341.8,113,340,114.9z"></path><path class="st0" d="M353.7,94.4c-0.6-0.5-0.9-1.3-1.4-1.9c-0.2-0.1-0.5-0.2-0.7-0.4c0.2,2.2-1.6,2.5-2.9,3.5 c0.8,0.5,1.5,0.9,2.1,1.4c0.5,0.5,0.8,1.3,1.2,1.9c0.5-1.9,2.3-2.3,3.6-3.4C354.8,95.1,354.1,94.9,353.7,94.4z"></path><path class="st0" d="M338.4,128.5c-0.5-0.5-0.8-1.3-1.4-2.2c-0.7,1.7-1.8,2.8-3.6,3.6c0.9,0.6,1.7,0.9,2.2,1.4 c0.5,0.5,0.8,1.3,1.4,2.2c0.5-0.9,0.8-1.6,1.3-2.2c0.5-0.5,1.3-0.8,2.1-1.4C339.7,129.3,338.9,129,338.4,128.5z M337,130.1 c-0.1-0.2-0.2-0.3-0.2-0.5c0,0,0.2-0.1,0.2-0.1c0.1,0.2,0.2,0.3,0.2,0.5C337.2,130,337.1,130.1,337,130.1z"></path><path class="st0" d="M268.5,116.8c-0.5-0.5-0.9-1.2-1.4-2.1c-0.5,0.8-0.9,1.6-1.4,2.1c-0.5,0.5-1.3,0.8-2.2,1.3 c0.9,0.6,1.7,0.9,2.2,1.4c0.5,0.5,0.8,1.3,1.4,2.2c0.8-1.6,1.9-2.8,3.7-3.5C269.7,117.6,269,117.3,268.5,116.8z M266.9,118.4 c0,0-0.2-0.1-0.2-0.2c0-0.1,0.1-0.2,0.2-0.2c0.2,0.1,0.3,0.1,0.5,0.2C267.3,118.3,267.1,118.3,266.9,118.4z"></path><path class="st0" d="M326,88.1c0-0.1-0.3-0.1-0.5-0.1c-1.2,2-1.2,2-3.6,3.3c2.1,0.6,3,1.8,3.8,3.5c0.6-0.9,1-1.6,1.4-2.3 c0.4-0.7,1.8-0.5,1.9-1.8C327.4,90.5,326.5,89.5,326,88.1z M325.6,91.4c-0.1-0.1-0.2-0.2-0.3-0.3c0.1-0.1,0.1-0.1,0.2-0.2 c0.1,0.1,0.1,0.1,0.2,0.2C325.7,91.3,325.7,91.4,325.6,91.4z"></path><path class="st0" d="M414.7,129c-0.5-0.5-0.8-1.2-1.3-2c-0.6,0.9-0.9,1.6-1.4,2.2c-0.5,0.5-1.2,0.8-2.1,1.4c0.9,0.6,1.6,0.9,2.2,1.4 c0.5,0.5,0.9,1.2,1.3,1.9c1.4-2.1,1.4-2.1,3.5-3.3C416,129.8,415.2,129.5,414.7,129z M413.3,130.6c0,0-0.2-0.1-0.1-0.2 c0-0.1,0.2-0.2,0.2-0.2c0.1,0.1,0.3,0.2,0.4,0.3C413.6,130.5,413.4,130.5,413.3,130.6z"></path><path class="st0" d="M393.3,130.2c-0.5-0.5-0.8-1.2-1.4-2.2c-0.7,1.8-1.9,2.7-3.7,3.6c1.9,0.7,2.9,1.8,3.7,3.5 c0.6-0.9,0.9-1.6,1.5-2.2c0.5-0.5,1.3-0.8,2.1-1.3C394.6,131,393.8,130.7,393.3,130.2z M392,131.8c-0.2,0-0.3-0.1-0.5-0.2 c0.2-0.1,0.3-0.2,0.5-0.2c0,0,0.1,0.1,0.2,0.2C392.1,131.6,392,131.8,392,131.8z"></path><path class="st0" d="M383.2,105.6c-0.6,1-0.9,1.7-1.4,2.3c-0.5,0.5-1.2,0.9-2.1,1.4c0.8,0.5,1.5,0.8,2,1.4c0.5,0.5,0.8,1.3,1.3,2.2 c0.5-0.9,0.9-1.7,1.4-2.2c0.5-0.5,1.3-0.8,2.2-1.4C385,108.5,383.9,107.4,383.2,105.6z M383.1,109.5c-0.1,0-0.2-0.1-0.2-0.2 c0.1-0.1,0.2-0.3,0.3-0.4c0.1,0.1,0.1,0.3,0.1,0.4C383.4,109.4,383.2,109.5,383.1,109.5z"></path><path class="st0" d="M237.9,111.9c-0.6-0.5-0.5-1.5-1.4-1.8c-1.1,1.8-1.1,1.8-3.3,3.4c0.7,0.4,1.5,0.7,2,1.3 c0.5,0.5,0.9,1.2,1.4,2.1c0.6-0.9,1-1.5,1.5-2.2c0.4-0.7,1.7-0.2,1.8-1.4C239.2,112.8,238.5,112.4,237.9,111.9z M236.9,113.6 c-0.2-0.1-0.3-0.2-0.5-0.3c0.1-0.1,0.2-0.2,0.2-0.2c0.2,0.1,0.3,0.1,0.5,0.2C237,113.4,236.9,113.5,236.9,113.6z"></path><path class="st0" d="M365.2,126.6c-0.5-0.5-0.8-1.3-1.3-2c-0.6,0.9-0.9,1.7-1.4,2.2c-0.5,0.5-1.3,0.8-2,1.3c2.1,1.3,2.1,1.3,3.4,3.5 c0.6-0.9,1-1.6,1.4-2.2c0.4-0.7,1.7-0.3,1.8-1.4C366.5,127.5,365.7,127.2,365.2,126.6z M363.8,128.3c0,0-0.2-0.1-0.2-0.1 c0-0.2,0.1-0.3,0.2-0.4c0.1,0.1,0.3,0.2,0.4,0.3C364,128.1,363.9,128.2,363.8,128.3z"></path><path class="st0" d="M260.4,96.2c-0.5-0.5-0.8-1.2-1.3-2.1c-0.6,0.9-0.9,1.6-1.4,2.2c-0.5,0.5-1.3,0.8-2.1,1.4 c0.9,0.5,1.6,0.8,2.2,1.4c0.5,0.5,0.9,1.2,1.5,2.1c0.6-1.9,1.9-2.7,3.4-3.5C261.7,97.1,260.9,96.8,260.4,96.2z M258.9,97.8 c0,0-0.1-0.1-0.2-0.2c0.2-0.1,0.3-0.1,0.5-0.2c0,0,0.1,0.1,0.2,0.2C259.2,97.7,259.1,97.7,258.9,97.8z"></path><path class="st0" d="M383.6,146.2c-0.5-0.5-0.8-1.1-1.3-1.7c-0.5,0.7-0.9,1.3-1.4,1.8c-0.5,0.4-1.1,0.8-1.7,1.3 c0.8,0.5,1.4,0.8,1.9,1.3c0.5,0.5,0.7,1.1,1.2,1.8c0.5-0.8,0.8-1.4,1.3-1.9c0.5-0.5,1.1-0.8,1.8-1.3 C384.6,147,384,146.7,383.6,146.2z"></path><path class="st0" d="M483.1,105.2c-1.5-0.8-2.2-2.2-3.5-3.7C481.6,102.7,482,103.2,483.1,105.2C483,105.2,483.1,105.2,483.1,105.2z"></path><path class="st0" d="M130.7,103.3c0.6-1.2,1.5-2.1,2.6-2.9C132.6,101.6,131.8,102.6,130.7,103.3z"></path><polygon class="st0" points="475,96.3 475.3,96.3 475.2,96.4 "></polygon><path class="st0" d="M299.5,202c0,8.2,0,16.5,0,24.7C298.8,218.5,298.8,210.3,299.5,202z"></path><path class="st0" d="M277,239.6c-0.5-16-0.5-32,0-48.1C277.9,207.6,277.9,223.6,277,239.6z"></path><path class="st0" d="M280.5,222.7c-0.9-7-0.9-27.8,0-35.9C280.9,191.7,280.9,217.5,280.5,222.7z"></path><path class="st0" d="M278.4,261.5c-0.5-6.1-0.2-12.1,0.2-18c0.4,2.3,0.5,10.2,0.2,15.4C278.7,259.8,278.5,260.6,278.4,261.5z"></path><path class="st0" d="M322.2,251.1c0.8,4.5,0.8,8.9,0.2,13.4c-0.2-2.2-0.2-4.4-0.2-6.5C322.2,255.7,322.2,253.4,322.2,251.1z"></path><path class="st0" d="M353.4,225.6c-0.6-11-0.7-21.9,0-32.9C353.9,203.7,353.9,214.7,353.4,225.6z"></path><path class="st0" d="M354.7,234c0.4,7.1,0.4,13.6,0,20.3C354.3,250.7,354.3,239.7,354.7,234z"></path><path class="st0" d="M196.6,241c-0.2-2.9-0.5-5.8-0.6-8.7c-0.3-13.9-0.6-27.9-0.1-41.8c0.1-1.5-0.1-3,0.8-4.8 C197.5,204.4,197,222.7,196.6,241z"></path><path class="st0" d="M198.5,243c0.7,8.2,0.4,14.2-0.6,17.1C197.2,254.2,197,248.6,198.5,243z"></path><path class="st0" d="M238.7,144.8c0,7.5,0,15,0,22.6C238.1,159.9,238.1,152.3,238.7,144.8z"></path><path class="st0" d="M367.9,249.9c0-8.3,0-16.6,0-24.8C368.6,229.4,368.6,240.2,367.9,249.9z"></path><path class="st0" d="M366.3,203.2c0,7.1,0,14.2,0,21.3C365.7,217.4,365.7,210.2,366.3,203.2z"></path><path class="st0" d="M380.2,219.6c0.1-1.4,0.1-2.7,0.2-4.1c0-1.4,0-2.8,0.1-4.2c0.1-1.4-0.2-2.8,0.2-4.1c0.7-0.1,0.8,0.3,0.8,0.7 c0.2,1.9,0.5,3.8,0.5,5.7c0.1,7.2,0,14.5-0.1,21.7c-0.1-4.9-0.3-9.9-0.4-14.8c0-0.2-0.1-0.3-0.3-0.7c-0.3,9.3-0.7,18.5-1,27.7 c-0.4-4.3-0.2-8.6-0.7-12.9c-0.4,2.1-0.3,4.3-0.6,6.6c-0.4-0.3-0.7-0.4-0.7-0.5c-0.2-13.3-0.5-26.6,0.5-39.9c1,3,0.7,6.2,0.8,9.3 c0.1,3.2,0.2,6.4,0.3,9.7C380.1,219.6,380.1,219.6,380.2,219.6z"></path><path class="st0" d="M245.3,151.9c0,1,0,1.9,0,2.9C245.3,153.8,245.3,152.9,245.3,151.9z"></path><path class="st0" d="M228.4,145.8c0.1,3.3,0.2,6.6,0.3,9.9c1.4-3.3,1.2-6.7,1.6-10.1c0,0.7,0.1,1.3,0.1,2c0,0.8,0,1.6,0,2.4 c0,0.8,0,1.6-0.1,2.4c-0.2,2-0.3,4-0.6,6c-0.1,1.1-0.3,2.1-0.9,3.2C227.6,159.2,227.5,155.4,228.4,145.8z"></path><path class="st0" d="M336.4,239.7c0,5.9,0,11.7,0,17.6C335.4,251.4,335.8,245.5,336.4,239.7z"></path><path class="st0" d="M334,244.4c-0.9-3.4-0.9-11.8,0-16.3C334,233.7,334,238.8,334,244.4z"></path><path class="st0" d="M255.6,154.2c0-0.8-0.1-1.5-0.1-2.3c-0.1-0.6,0.3-1.1,0.7-1.5l0.1,0c-0.1,0.5-0.3,0.9-0.4,1.4 C255.7,152.6,255.7,153.4,255.6,154.2C255.6,154.2,255.6,154.2,255.6,154.2z"></path><path class="st0" d="M256.2,150.5c0-0.1,0-0.3,0-0.4c0,0.1-0.1,0.1-0.1,0.2C256.1,150.3,256.2,150.4,256.2,150.5 C256.2,150.5,256.2,150.5,256.2,150.5z"></path><path class="st0" d="M219.2,159.9c0,1.5,0,3,0,4.4c0,0,0,0,0,0C219.2,162.9,219.2,161.4,219.2,159.9 C219.2,159.9,219.2,159.9,219.2,159.9z"></path><path class="st0" d="M266.5,156.6c-0.1,1.7-0.2,3.4-0.3,5.1c0,0.5-0.2,1-0.4,1.4c0,0.1-0.3,0.3-0.5,0.2c-0.2,0-0.4-0.2-0.5-0.3 c-0.1-0.3-0.2-0.6-0.2-0.9c0.2-3.7,0.3-7.4,0.5-11.1c0-0.1,0-0.2,0.1-0.3c0.2-0.2,0.4-0.5,0.6-0.5c0.4-0.1,0.8,0.2,0.8,0.6 c0,0.9,0,1.8-0.1,2.7C266.6,154.6,266.5,155.6,266.5,156.6C266.5,156.6,266.5,156.6,266.5,156.6z"></path><path class="st0" d="M210.2,159.9c0,3,0,5.9,0,8.9c-0.1,0-0.1,0-0.2,0c0-3,0-5.9,0-8.9C210.1,159.9,210.1,159.9,210.2,159.9z"></path><path class="st0" d="M213.1,166.8c0.2,0.1,0.4,0.1,0.5,0.2c0.1,0.1,0,0.3,0,0.4c-0.1-0.1-0.1-0.2-0.2-0.2 C213.4,167,213.2,166.9,213.1,166.8L213.1,166.8z"></path><path class="st0" d="M213.1,166.7c0-0.2,0-0.4,0-0.6C213.1,166.3,213.1,166.5,213.1,166.7C213.1,166.8,213.1,166.7,213.1,166.7z"></path><path class="st0" d="M273.6,168c0-1.7,0-3.4,0-5.1c0-1.2,0.1-2.4,0.3-3.6c0,1,0.1,1.9,0.1,2.9c0,1.9,0,3.8,0,5.7 C273.9,168,273.8,168,273.6,168z"></path><path class="st0" d="M283.6,162.5c0.4,2.2,0.5,4.5,0,6.8C283.6,167,283.6,164.7,283.6,162.5z"></path><path class="st0" d="M201.4,167.2c0.1,0.1,0.4,0.2,0.4,0.3c0.4,1.2,0.7,2.5,1.1,3.8c-0.5,0.8-1.1,1.6-1.7,2.5 c-0.3-0.3-0.6-0.5-0.6-0.7C200.5,170.3,200.7,168.6,201.4,167.2z"></path><polygon class="st0" points="201,162 201.2,161.9 201.1,162.2 "></polygon><path class="st0" d="M249.1,412.9c9.1,0,17.6,0,26.1,0c0.7,0,1.4,0.1,2.1,0.2c6.3,1.1,12.6,2,18.9,2.3c4.4,0.2,8.9,0.5,13.3,0.4 c8.4-0.2,16.7-1,25-2.5c0.9-0.2,1.8-0.3,2.7-0.3c8.3,0,16.6,0,24.9,0c0.3,0,0.5,0.1,0.9,0.1c-3.1,2-17.3,5.9-25.8,7.5 c-18.5,3.5-37.2,3.9-55.8,1C267.9,419.5,253.9,415.7,249.1,412.9z"></path><path class="st0" d="M419.2,424.3c-3-0.1-5.2,2.1-5.3,5c0,2.9,2.4,5.2,5.2,5.2c2.7-0.1,4.9-2.4,4.9-5.1 C424.1,426.5,422,424.4,419.2,424.3z M421.6,430.7c-0.6-0.4-1.1-0.9-1.6-1.4c-1.1-1-2.3-1.6-3.8-0.7c-0.2,0.1-0.4,0.1-0.6,0.1 c-0.1,0-0.2-0.1-0.4-0.2c0.1-1.1,0.8-1.9,1.7-2.5c1-0.6,2.1-0.7,3.2-0.4c2,0.4,3.2,2.6,2.8,4.7C422.8,430.8,422.1,431.1,421.6,430.7 z"></path><path class="st0" d="M193,424.3c-2.8,0.1-4.9,2.4-4.9,5.1c0,2.7,2.3,5.1,5,5.1c2.8,0,5.3-2.2,5.1-5.2 C198.2,426.3,196,424.2,193,424.3z M195.9,428.6c-1.3-0.8-2.3-0.3-3.3,0.5c-0.9,0.7-1.4,1.7-2.7,1.9c-1.2-1.1-0.8-2.4-0.2-3.5 c0.8-1.5,2.3-2.2,4.1-2c1.8,0.2,2.9,1.2,3.4,3.4C196.4,428.7,196.1,428.7,195.9,428.6z"></path></svg>