<svg width="165" height="50" viewBox="0 0 165 50" fill="none" xmlns="http://www.w3.org/2000/svg">
<g clip-path="url(#clip0_1_451)">
<path d="M16.2566 38.2543V37.9321L17.2427 37.4732V30.3261L16.2566 29.8672V29.545H19.42C20.2402 29.545 20.7186 29.6915 21.0994 30.0235C21.4997 30.3945 21.7438 30.9998 21.7438 31.615C21.7438 32.3863 21.4021 33.0502 20.7967 33.431C20.5233 33.597 20.3183 33.6751 19.8496 33.763C21.2556 33.8411 22.0953 34.6515 22.0953 35.9696C22.0953 37.4048 21.158 38.2543 19.547 38.2543H16.2468H16.2566ZM18.3265 33.5775H19.1369C19.9082 33.5775 20.5429 32.7573 20.5429 31.7321C20.5429 30.7069 20.0156 30.0625 19.1564 30.0625H18.3265V33.5775ZM18.3265 37.7368H19.2541C20.2207 37.7368 20.8944 37.0045 20.8944 35.9305C20.8944 34.8565 20.2011 34.1047 19.1369 34.1047H18.3265V37.7368Z" fill="#002E51"/>
<path d="M24.6534 34.1633C24.6534 31.3415 26.157 29.4083 28.3343 29.4083C30.5116 29.4083 31.8297 31.1072 31.8297 33.7239C31.8297 36.5358 30.3359 38.4495 28.139 38.4495C25.9422 38.4495 24.6631 36.7506 24.6631 34.1633H24.6534ZM25.8641 33.8606C25.8641 36.321 26.7819 37.8539 28.2464 37.8539C29.711 37.8539 30.619 36.3503 30.619 33.9582C30.619 31.5661 29.6915 29.9844 28.2074 29.9844C26.7233 29.9844 25.8738 31.4196 25.8738 33.8508L25.8641 33.8606Z" fill="#002E51"/>
<path d="M36.282 34.1047V37.6685H38.8401L39.5333 36.243H39.9141L39.7383 38.2543H34.2121V37.9321L35.1982 37.4732V30.3261L34.2121 29.8672V29.545H39.6895V31.5076H39.3087L38.762 30.0723H36.2722V33.5872H38.3616L38.7522 32.4058H39.1135V35.2666H38.7522L38.3616 34.1047H36.2722H36.282Z" fill="#002E51"/>
<path d="M44.298 34.1047V37.4732L45.2841 37.9321V38.2543H42.2281V37.9321L43.2142 37.4732V30.3261L42.2281 29.8672V29.545H45.3622C46.2898 29.545 46.6315 29.6524 47.0611 30.0235C47.4907 30.4043 47.7153 30.9608 47.7153 31.6345C47.7153 32.8061 47.0221 33.6556 45.8797 33.8704L48.2035 37.4634L49.092 37.9321V38.2543H47.2466L44.7178 34.0949H44.298V34.1047ZM44.298 33.5775H45.0693C45.9285 33.5775 46.5046 32.8354 46.5046 31.7516C46.5046 30.6679 45.9969 30.0625 45.1084 30.0625H44.298V33.5775Z" fill="#002E51"/>
<path d="M50.8006 38.2543V37.9321L51.7868 37.4732V30.3261L50.8006 29.8672V29.545H54.257C55.7508 29.545 56.5222 29.8575 57.2154 30.7362C57.8305 31.5173 58.1136 32.4839 58.1136 33.7142C58.1136 35.2959 57.6059 36.614 56.6784 37.4244C56.0047 38.0102 55.2236 38.264 54.0812 38.264H50.8006V38.2543ZM52.8705 37.6685H53.9836C54.9795 37.6685 55.5067 37.4439 56.073 36.78C56.6979 36.0379 56.9713 35.1201 56.9713 33.8411C56.9713 32.7475 56.7662 31.9079 56.3269 31.2439C55.8094 30.4433 55.1748 30.1309 54.1203 30.1309H52.8705V37.6685Z" fill="#002E51"/>
<path d="M62.5952 34.1047V37.6685H65.1533L65.8465 36.243H66.2273L66.0515 38.2543H60.5253V37.9321L61.5114 37.4732V30.3261L60.5253 29.8672V29.545H66.0027V31.5076H65.6219L65.0752 30.0723H62.5854V33.5872H64.6749L65.0654 32.4058H65.4267V35.2666H65.0654L64.6749 34.1047H62.5854H62.5952Z" fill="#002E51"/>
<path d="M70.6112 34.1047V37.4732L71.5973 37.9321V38.2543H68.5413V37.9321L69.5274 37.4732V30.3261L68.5413 29.8672V29.545H71.6755C72.603 29.545 72.9447 29.6524 73.3743 30.0235C73.8039 30.4043 74.0285 30.9608 74.0285 31.6345C74.0285 32.8061 73.3353 33.6556 72.1929 33.8704L74.5167 37.4634L75.4052 37.9321V38.2543H73.5598L71.031 34.0949H70.6112V34.1047ZM70.6112 33.5775H71.3825C72.2417 33.5775 72.8178 32.8354 72.8178 31.7516C72.8178 30.6679 72.3101 30.0625 71.4216 30.0625H70.6112V33.5775Z" fill="#002E51"/>
<path d="M77.1041 38.2543V37.9321L78.0902 37.4732V30.3261L77.1041 29.8672V29.545H80.1601V29.8672L79.174 30.3261V37.4732L80.1601 37.9321V38.2543H77.1041Z" fill="#002E51"/>
<path d="M84.5635 30.3261V38.3324C84.5635 39.299 84.3585 39.9239 83.8801 40.4902C83.3919 41.0369 82.9037 41.2517 82.064 41.2517C81.7516 41.2517 81.5075 41.2224 81.3025 41.1736V39.8751H82.0933L82.4546 40.7245C83.1283 40.6757 83.47 40.0703 83.47 38.9866V30.3261L82.4839 29.8672V29.545H85.5399V29.8672L84.5733 30.3261H84.5635Z" fill="#002E51"/>
<path d="M96.6608 38.2543V37.9321L97.6469 37.4732V30.3261L96.6608 29.8672V29.545H99.7168V29.8672L98.7307 30.3261V37.4732L99.7168 37.9321V38.2543H96.6608ZM99.9219 33.2064L102.626 37.4537L103.505 37.9223V38.2445H101.689L98.8674 33.6165L101.523 30.248L100.742 29.8575V29.5353H103.329V29.8575L102.46 30.3164L99.9219 33.2064Z" fill="#002E51"/>
<path d="M107.108 34.7393L106.219 37.4439L107.098 37.9321V38.2543H104.569V37.9321L105.458 37.4439L108.358 29.4767H109.002L111.55 37.4439L112.419 37.9321V38.2543H109.481V37.9321L110.369 37.4439L109.539 34.7393H107.108ZM107.284 34.2316H109.354L108.719 32.1031C108.553 31.5564 108.504 31.3416 108.397 30.9217L107.284 34.2316Z" fill="#002E51"/>
<path d="M118.649 36.0867L120.992 29.545H123.179V29.8672L122.203 30.3261V37.4732L123.179 37.9321V38.2543H120.143V37.9321L121.109 37.4732V31.0291L118.492 38.3226H118.258L115.681 31.0291V37.4732L116.647 37.9321V38.2543H114.06V37.9321L115.046 37.4732V30.3261L114.06 29.8672V29.545H116.335L118.639 36.0867H118.649Z" fill="#002E51"/>
<path d="M125.386 38.2543V37.9321L126.372 37.4732V30.3261L125.386 29.8672V29.545H128.315C129.34 29.545 129.906 29.7306 130.394 30.1992C130.834 30.6483 131.058 31.2342 131.058 31.9762C131.058 33.5579 129.994 34.5538 128.286 34.5538H127.465V37.4829L128.676 37.9418V38.264H125.395L125.386 38.2543ZM127.456 34.0364H128.002C128.793 34.0364 129.213 33.8411 129.545 33.3724C129.789 33.0209 129.916 32.562 129.916 32.0153C129.916 31.4685 129.789 31.0096 129.545 30.6386C129.252 30.2187 128.92 30.0625 128.266 30.0625H127.465V34.0364H127.456Z" fill="#002E51"/>
<path d="M133.577 37.9028V35.9793H133.997L134.564 37.6001C134.856 37.6489 135.091 37.6684 135.403 37.6684C136.477 37.6684 137.044 37.1803 137.044 36.2722C137.044 35.6278 136.858 35.3349 136.048 34.7491L134.915 33.9289C134.31 33.4993 134.105 33.2845 133.9 32.894C133.704 32.5523 133.636 32.2105 133.636 31.7809C133.636 30.4042 134.525 29.4767 135.843 29.4767C136.038 29.4767 136.389 29.5157 136.712 29.5548C136.975 29.5938 137.17 29.6329 137.327 29.672L137.805 29.7891L137.981 29.8282V31.6833H137.551L136.995 30.1113H136.907C136.604 30.0723 136.536 30.0625 136.331 30.0625C135.179 30.0625 134.622 30.4628 134.622 31.3318C134.622 31.9371 134.798 32.191 135.608 32.7671L136.819 33.6458C137.561 34.1828 137.659 34.2609 137.873 34.6222C138.108 34.9932 138.215 35.4423 138.215 35.9403C138.215 37.3951 137.249 38.3226 135.755 38.3226C135.384 38.3226 134.856 38.2445 134.359 38.1176L133.714 37.9516L133.597 37.9125L133.577 37.9028Z" fill="#002E51"/>
<path d="M19.1369 48.2035C18.7756 48.389 18.4241 48.4866 18.0726 48.4866C17.4282 48.4866 17.106 48.1059 17.106 47.3345V44.8545H16.4128V44.3273H17.106V43.2142H17.6333V44.3273H18.8537V44.8545H17.6333V47.1783C17.6333 47.4224 17.6821 47.6177 17.7797 47.7544C17.8774 47.8911 18.0043 47.9594 18.1703 47.9594C18.4632 47.9594 18.7561 47.8813 19.049 47.7348L19.1467 48.2035H19.1369Z" fill="#002E51"/>
<path d="M23.3451 48.389H22.8081V45.7821C22.8081 45.4208 22.7592 45.1572 22.6518 44.9912C22.5542 44.8252 22.3882 44.7471 22.1734 44.7471C21.8414 44.7471 21.4899 44.9815 21.1092 45.4404V48.3792H20.5722V42.8725H21.1092V44.9131C21.4997 44.4542 21.9 44.2199 22.3296 44.2199C23.0033 44.2199 23.3451 44.6788 23.3451 45.5966V48.3792V48.389Z" fill="#002E51"/>
<path d="M27.6899 46.3776H25.2197C25.2197 46.8365 25.3368 47.2173 25.5712 47.52C25.8055 47.8227 26.0984 47.9691 26.4401 47.9691C26.7819 47.9691 27.1041 47.9008 27.4556 47.7641L27.5532 48.2523C27.231 48.4182 26.8697 48.4964 26.4401 48.4964C25.9031 48.4964 25.4735 48.3011 25.1513 47.9105C24.8291 47.52 24.6631 47.0025 24.6631 46.3386C24.6631 45.6746 24.8096 45.1767 25.1025 44.7959C25.3954 44.4151 25.7762 44.2198 26.2449 44.2198C26.6549 44.2198 27.0064 44.3956 27.2798 44.7569C27.563 45.1181 27.6997 45.5868 27.6997 46.1824V46.3776H27.6899ZM27.1041 45.8797C27.1041 45.5672 27.0162 45.2939 26.8405 45.0791C26.6647 44.8643 26.4694 44.7569 26.2546 44.7569C25.9715 44.7569 25.7469 44.8643 25.5614 45.0693C25.3759 45.2743 25.2783 45.5477 25.2587 45.8797H27.1041Z" fill="#002E51"/>
<path d="M31.9176 48.389H31.3806C31.3415 48.223 31.3122 48.0082 31.3122 47.7348C31.0096 48.2425 30.5897 48.4964 30.0625 48.4964C29.7989 48.4964 29.5645 48.389 29.3595 48.1742C29.1545 47.9594 29.0568 47.686 29.0568 47.3442C29.0568 47.1392 29.0959 46.9635 29.1642 46.817C29.2326 46.6608 29.34 46.5338 29.4767 46.4264C29.6134 46.319 29.7793 46.2409 29.9844 46.1726C30.1797 46.114 30.414 46.0652 30.6874 46.0457L31.2927 45.9871V45.7918C31.2927 45.0986 31.0096 44.7471 30.4335 44.7471C30.2968 44.7471 30.1211 44.7764 29.916 44.8447C29.711 44.9131 29.5255 44.9912 29.379 45.0791L29.2326 44.6397C29.7208 44.3565 30.1797 44.2101 30.5995 44.2101C31.4196 44.2101 31.8297 44.6983 31.8297 45.6844V47.4321C31.8297 47.7836 31.859 48.096 31.9176 48.3792V48.389ZM31.2927 47.1783V46.446C30.8045 46.4948 30.4726 46.5436 30.2968 46.5827C30.1113 46.6217 29.9551 46.7096 29.8282 46.8268C29.6915 46.9439 29.6329 47.1001 29.6329 47.3052C29.6329 47.4907 29.6915 47.6372 29.7989 47.7446C29.916 47.8617 30.0527 47.9105 30.2285 47.9105C30.4237 47.9105 30.6093 47.8422 30.7948 47.7153C30.9803 47.5883 31.1463 47.4126 31.2927 47.1783Z" fill="#002E51"/>
<path d="M36.1062 48.2035C35.745 48.389 35.3935 48.4866 35.042 48.4866C34.3976 48.4866 34.0754 48.1059 34.0754 47.3345V44.8545H33.3822V44.3273H34.0754V43.2142H34.6026V44.3273H35.8231V44.8545H34.6026V47.1783C34.6026 47.4224 34.6514 47.6177 34.7491 47.7544C34.8467 47.8911 34.9736 47.9594 35.1396 47.9594C35.4325 47.9594 35.7254 47.8813 36.0184 47.7348L36.116 48.2035H36.1062Z" fill="#002E51"/>
<path d="M40.4218 46.3776H37.9516C37.9516 46.8365 38.0687 47.2173 38.3031 47.52C38.5374 47.8227 38.8303 47.9691 39.172 47.9691C39.5138 47.9691 39.836 47.9008 40.1875 47.7641L40.2851 48.2523C39.9629 48.4182 39.5919 48.4964 39.172 48.4964C38.635 48.4964 38.2054 48.3011 37.8832 47.9105C37.5513 47.52 37.395 47.0025 37.395 46.3386C37.395 45.6746 37.5415 45.1767 37.8344 44.7959C38.1273 44.4151 38.5081 44.2198 38.9768 44.2198C39.3868 44.2198 39.7383 44.3956 40.0117 44.7569C40.2949 45.1181 40.4316 45.5868 40.4316 46.1824V46.3776H40.4218ZM39.836 45.8797C39.836 45.5672 39.7481 45.2939 39.5723 45.0791C39.3966 44.8643 39.2013 44.7569 38.9865 44.7569C38.7034 44.7569 38.4788 44.8643 38.2933 45.0693C38.1078 45.2743 38.0101 45.5477 37.9906 45.8797H39.836Z" fill="#002E51"/>
<path d="M44.6202 44.4347L44.4054 45.0205C44.1711 44.9033 43.966 44.8447 43.7903 44.8447C43.6341 44.8447 43.4778 44.8935 43.3216 45.0009C43.1654 45.1083 43.0287 45.2548 42.9018 45.4403C42.7748 45.6356 42.7065 45.7332 42.7065 45.7625V48.389H42.1695V44.3273H42.7065V45.1474C42.9897 44.5323 43.3704 44.2296 43.8293 44.2296C44.1027 44.2296 44.3663 44.298 44.6202 44.4347Z" fill="#002E51"/>
<path d="M51.6501 44.6788C51.8942 44.6788 52.0992 44.7764 52.2652 44.9717C52.4409 45.167 52.5288 45.4013 52.5288 45.6747C52.5288 45.9481 52.4409 46.1824 52.2652 46.3777C52.0894 46.5729 51.8844 46.6706 51.6501 46.6706C51.4157 46.6706 51.2009 46.5729 51.035 46.3777C50.8592 46.1824 50.7713 45.9481 50.7713 45.6747C50.7713 45.4013 50.8592 45.167 51.035 44.9717C51.2107 44.7764 51.4157 44.6788 51.6501 44.6788Z" fill="#002E51"/>
<path d="M61.8239 48.389H61.2869V45.7235C61.2869 45.0791 61.1795 44.7569 60.9647 44.7569C60.8573 44.7569 60.7401 44.8643 60.6034 45.0888C60.4765 45.3134 60.4081 45.4306 60.4081 45.4598V48.3987H59.8711V45.7332C59.8711 45.0888 59.7637 44.7666 59.5489 44.7666C59.4415 44.7666 59.3244 44.874 59.1974 45.0986C59.0705 45.3232 59.0022 45.4403 59.0022 45.4696V48.4085H58.4651V44.3468H58.9826V44.9619C59.0803 44.7471 59.2072 44.5713 59.3439 44.4444C59.4806 44.3175 59.6173 44.2491 59.7637 44.2491C59.9102 44.2491 60.0371 44.3175 60.1543 44.4444C60.2714 44.5713 60.3495 44.7471 60.3886 44.9619C60.4862 44.7471 60.6132 44.5713 60.7499 44.4444C60.8866 44.3175 61.033 44.2491 61.1599 44.2491C61.5993 44.2491 61.8141 44.6885 61.8141 45.5672V48.4085L61.8239 48.389Z" fill="#002E51"/>
<path d="M65.7782 48.389H65.2412V47.7836C64.8506 48.2523 64.4503 48.4768 64.0207 48.4768C63.347 48.4768 63.0053 48.018 63.0053 47.0904V44.3175H63.5423V46.9147C63.5423 47.2564 63.5911 47.52 63.6887 47.686C63.7864 47.852 63.9524 47.9398 64.1769 47.9398C64.5089 47.9398 64.8604 47.7055 65.2412 47.2466V44.3077H65.7782V48.3694V48.389Z" fill="#002E51"/>
<path d="M69.9766 48.389H67.2134V48.057L69.2638 44.8545H67.2623V44.3175H69.9766V44.6202L67.9262 47.852H69.9766V48.389Z" fill="#002E51"/>
<path d="M73.3744 48.389H72.8373V44.8545H71.7731V44.3273H73.3744V48.389ZM73.1107 42.7846C73.2084 42.7846 73.2962 42.8237 73.3744 42.9115C73.4427 42.9896 73.4818 43.0873 73.4818 43.2044C73.4818 43.3216 73.4427 43.429 73.3744 43.5071C73.306 43.5852 73.2181 43.6243 73.1107 43.6243C73.0131 43.6243 72.935 43.5852 72.8569 43.4974C72.7885 43.4095 72.7495 43.3118 72.7495 43.2044C72.7495 43.097 72.7885 42.9994 72.8569 42.9115C72.9252 42.8237 73.0131 42.7846 73.1107 42.7846Z" fill="#002E51"/>
<path d="M78.6175 46.3776H76.1472C76.1472 46.8365 76.2644 47.2173 76.4987 47.52C76.7331 47.8227 77.026 47.9691 77.3677 47.9691C77.7094 47.9691 78.0316 47.9008 78.3831 47.7641L78.4808 48.2523C78.1586 48.4182 77.7875 48.4964 77.3677 48.4964C76.8307 48.4964 76.4011 48.3011 76.0789 47.9105C75.7567 47.52 75.5907 47.0025 75.5907 46.3386C75.5907 45.6746 75.7372 45.1767 76.0301 44.7959C76.323 44.4151 76.7038 44.2198 77.1724 44.2198C77.5825 44.2198 77.934 44.3956 78.2074 44.7569C78.4905 45.1181 78.6272 45.5868 78.6272 46.1824V46.3776H78.6175ZM78.0316 45.8797C78.0316 45.5672 77.9438 45.2939 77.768 45.0791C77.5923 44.8643 77.397 44.7569 77.1822 44.7569C76.8991 44.7569 76.6745 44.8643 76.489 45.0693C76.3035 45.2743 76.2058 45.5477 76.1863 45.8797H78.0316Z" fill="#002E51"/>
<path d="M83.1088 48.389H82.4058L80.8826 46.3679L80.5311 46.7096V48.389H79.9941V42.8823H80.5311V46.0359L82.2203 44.3175H82.9037L81.2634 45.9774L83.1185 48.3792L83.1088 48.389Z" fill="#002E51"/>
<path d="M89.8457 44.6788C90.0898 44.6788 90.2949 44.7764 90.4609 44.9717C90.6366 45.167 90.7245 45.4013 90.7245 45.6747C90.7245 45.9481 90.6366 46.1824 90.4609 46.3777C90.2851 46.5729 90.0801 46.6706 89.8457 46.6706C89.6114 46.6706 89.3966 46.5729 89.2306 46.3777C89.0549 46.1824 88.967 45.9481 88.967 45.6747C88.967 45.4013 89.0549 45.167 89.2306 44.9717C89.4064 44.7764 89.6114 44.6788 89.8457 44.6788Z" fill="#002E51"/>
<path d="M99.8926 44.3273L98.5257 48.389H98.0375L96.6803 44.3273H97.2662L98.2816 47.5591L99.297 44.3273H99.8828H99.8926Z" fill="#002E51"/>
<path d="M104.081 46.3776H101.611C101.611 46.8365 101.728 47.2173 101.963 47.52C102.197 47.8227 102.49 47.9691 102.832 47.9691C103.173 47.9691 103.495 47.9008 103.847 47.7641L103.945 48.2523C103.622 48.4182 103.251 48.4964 102.832 48.4964C102.294 48.4964 101.865 48.3011 101.543 47.9105C101.211 47.52 101.055 47.0025 101.055 46.3386C101.055 45.6746 101.201 45.1767 101.494 44.7959C101.787 44.4151 102.168 44.2198 102.636 44.2198C103.046 44.2198 103.398 44.3956 103.671 44.7569C103.954 45.1181 104.091 45.5868 104.091 46.1824V46.3776H104.081ZM103.495 45.8797C103.495 45.5672 103.408 45.2939 103.232 45.0791C103.056 44.8643 102.861 44.7569 102.646 44.7569C102.363 44.7569 102.138 44.8643 101.953 45.0693C101.767 45.2743 101.67 45.5477 101.65 45.8797H103.495Z" fill="#002E51"/>
<path d="M108.28 44.4347L108.065 45.0205C107.831 44.9033 107.625 44.8447 107.45 44.8447C107.294 44.8447 107.137 44.8935 106.981 45.0009C106.825 45.1083 106.688 45.2548 106.561 45.4403C106.434 45.6356 106.366 45.7332 106.366 45.7625V48.389H105.829V44.3273H106.366V45.1474C106.649 44.5323 107.03 44.2296 107.489 44.2296C107.762 44.2296 108.026 44.298 108.28 44.4347Z" fill="#002E51"/>
<path d="M110.691 46.8561C110.359 47.0416 110.184 47.2076 110.184 47.3442C110.184 47.4224 110.223 47.4809 110.301 47.5395C110.379 47.5883 110.486 47.6176 110.613 47.6176L111.824 47.5786C112.107 47.5786 112.332 47.6567 112.498 47.8129C112.654 47.9691 112.742 48.1937 112.742 48.4866C112.742 48.9455 112.556 49.3165 112.195 49.5899C111.834 49.8633 111.404 50 110.926 50C110.525 50 110.203 49.9023 109.949 49.7168C109.695 49.5313 109.568 49.2872 109.568 48.9845C109.568 48.6623 109.764 48.3792 110.154 48.1644C109.832 47.9886 109.666 47.7836 109.666 47.5298C109.666 47.2466 109.871 46.9732 110.291 46.7291C110.096 46.5924 109.949 46.4265 109.842 46.2117C109.734 45.9968 109.686 45.782 109.686 45.5477C109.686 45.1669 109.803 44.8545 110.027 44.6104C110.262 44.3663 110.545 44.2394 110.887 44.2394C111.131 44.2394 111.355 44.298 111.56 44.4151L112.624 44.2296V44.8252H111.941C112.048 45.0302 112.097 45.2743 112.097 45.5477C112.097 45.9187 111.98 46.2312 111.756 46.485C111.531 46.7389 111.238 46.8658 110.887 46.8658C110.808 46.8658 110.74 46.8658 110.672 46.8658L110.691 46.8561ZM110.926 49.5216C111.277 49.5216 111.58 49.4337 111.834 49.2579C112.087 49.0822 112.205 48.8576 112.205 48.594C112.205 48.3304 112.029 48.1839 111.677 48.1839C111.56 48.1839 111.355 48.1839 111.072 48.2034C110.887 48.2034 110.75 48.223 110.642 48.223C110.594 48.223 110.516 48.2718 110.408 48.3597C110.301 48.4573 110.223 48.5452 110.164 48.6428C110.105 48.7405 110.076 48.8381 110.076 48.9357C110.076 49.0919 110.154 49.2286 110.31 49.3458C110.467 49.463 110.672 49.5118 110.926 49.5118V49.5216ZM110.906 46.3874C111.101 46.3874 111.267 46.3093 111.394 46.1531C111.521 45.9968 111.58 45.7918 111.58 45.5477C111.58 45.2841 111.521 45.0791 111.394 44.9326C111.277 44.7861 111.111 44.708 110.906 44.708C110.711 44.708 110.555 44.7861 110.428 44.9424C110.301 45.0986 110.232 45.3036 110.232 45.5477C110.232 45.7918 110.301 45.9968 110.428 46.1531C110.555 46.3093 110.721 46.3874 110.906 46.3874Z" fill="#002E51"/>
<path d="M116.803 48.389H116.266C116.227 48.223 116.198 48.0082 116.198 47.7348C115.895 48.2425 115.476 48.4964 114.948 48.4964C114.685 48.4964 114.45 48.389 114.245 48.1742C114.04 47.9594 113.943 47.686 113.943 47.3442C113.943 47.1392 113.982 46.9635 114.05 46.817C114.118 46.6608 114.226 46.5338 114.362 46.4264C114.499 46.319 114.665 46.2409 114.87 46.1726C115.065 46.114 115.3 46.0652 115.573 46.0457L116.178 45.9871V45.7918C116.178 45.0986 115.895 44.7471 115.319 44.7471C115.183 44.7471 115.017 44.7764 114.802 44.8447C114.597 44.9131 114.411 44.9912 114.265 45.0791L114.118 44.6397C114.607 44.3565 115.065 44.2101 115.485 44.2101C116.305 44.2101 116.715 44.6983 116.715 45.6844V47.4321C116.715 47.7836 116.745 48.096 116.803 48.3792V48.389ZM116.178 47.1783V46.446C115.69 46.4948 115.358 46.5436 115.183 46.5827C115.007 46.6217 114.851 46.7096 114.714 46.8268C114.577 46.9439 114.519 47.1001 114.519 47.3052C114.519 47.4907 114.577 47.6372 114.685 47.7446C114.802 47.8617 114.939 47.9105 115.114 47.9105C115.31 47.9105 115.495 47.8422 115.681 47.7153C115.866 47.5883 116.032 47.4126 116.178 47.1783Z" fill="#002E51"/>
<path d="M120.943 48.389H120.406V47.8032C120.299 48.0082 120.133 48.1644 119.928 48.3011C119.723 48.4281 119.508 48.4964 119.274 48.4964C118.863 48.4964 118.532 48.2914 118.297 47.8715C118.053 47.4517 117.936 46.9342 117.936 46.2898C117.936 45.6942 118.063 45.1963 118.307 44.8057C118.561 44.4152 118.883 44.2199 119.303 44.2199C119.752 44.2199 120.123 44.4249 120.396 44.8448V42.8823H120.933V48.389H120.943ZM120.406 47.1392V45.4501C120.152 44.9815 119.84 44.7471 119.479 44.7471C119.186 44.7471 118.951 44.8936 118.776 45.1963C118.6 45.4892 118.512 45.87 118.512 46.3289C118.512 46.7878 118.59 47.1881 118.756 47.4907C118.922 47.7934 119.137 47.9496 119.42 47.9496C119.557 47.9496 119.693 47.9106 119.83 47.8227C119.967 47.7446 120.094 47.6177 120.221 47.4517C120.348 47.2857 120.406 47.1881 120.406 47.149V47.1392Z" fill="#002E51"/>
<path d="M125.308 46.3776H122.837C122.837 46.8365 122.955 47.2173 123.189 47.52C123.423 47.8227 123.716 47.9691 124.058 47.9691C124.4 47.9691 124.722 47.9008 125.073 47.7641L125.171 48.2523C124.849 48.4182 124.487 48.4964 124.058 48.4964C123.521 48.4964 123.091 48.3011 122.769 47.9105C122.447 47.52 122.281 47.0025 122.281 46.3386C122.281 45.6746 122.427 45.1767 122.72 44.7959C123.013 44.4151 123.394 44.2198 123.863 44.2198C124.273 44.2198 124.624 44.3956 124.897 44.7569C125.181 45.1181 125.317 45.5868 125.317 46.1824V46.3776H125.308ZM124.722 45.8797C124.722 45.5672 124.634 45.2939 124.458 45.0791C124.282 44.8643 124.087 44.7569 123.872 44.7569C123.589 44.7569 123.365 44.8643 123.179 45.0693C122.994 45.2743 122.896 45.5477 122.876 45.8797H124.722Z" fill="#002E51"/>
<path d="M129.496 44.4347L129.281 45.0205C129.047 44.9033 128.842 44.8447 128.666 44.8447C128.51 44.8447 128.354 44.8935 128.198 45.0009C128.041 45.1083 127.905 45.2548 127.778 45.4403C127.651 45.6356 127.583 45.7332 127.583 45.7625V48.389H127.046V44.3273H127.583V45.1474C127.866 44.5323 128.246 44.2296 128.705 44.2296C128.979 44.2296 129.242 44.298 129.496 44.4347Z" fill="#002E51"/>
<path d="M133.792 46.3776H131.322C131.322 46.8365 131.439 47.2173 131.674 47.52C131.908 47.8227 132.201 47.9691 132.542 47.9691C132.884 47.9691 133.206 47.9008 133.558 47.7641L133.656 48.2523C133.333 48.4182 132.962 48.4964 132.542 48.4964C132.005 48.4964 131.576 48.3011 131.254 47.9105C130.931 47.52 130.765 47.0025 130.765 46.3386C130.765 45.6746 130.912 45.1767 131.205 44.7959C131.498 44.4151 131.879 44.2198 132.347 44.2198C132.757 44.2198 133.109 44.3956 133.382 44.7569C133.665 45.1181 133.802 45.5868 133.802 46.1824V46.3776H133.792ZM133.206 45.8797C133.206 45.5672 133.119 45.2939 132.943 45.0791C132.767 44.8643 132.572 44.7569 132.357 44.7569C132.074 44.7569 131.849 44.8643 131.664 45.0693C131.478 45.2743 131.381 45.5477 131.361 45.8797H133.206Z" fill="#002E51"/>
<path d="M137.932 48.389H137.395V45.782C137.395 45.4208 137.346 45.1572 137.239 44.9912C137.131 44.8252 136.975 44.7471 136.76 44.7471C136.428 44.7471 136.077 44.9814 135.696 45.4403V48.3792H135.159V44.3175H135.696V44.9131C136.087 44.4542 136.487 44.2198 136.917 44.2198C137.59 44.2198 137.932 44.6787 137.932 45.5965V48.3792V48.389Z" fill="#002E51"/>
<path d="M136.643 0L142.257 0.195274V5.66296L138.713 5.85823L136.643 3.90549V0Z" fill="#002E51"/>
<path d="M23.1107 15.6415C15.5536 21.2458 7.73287 26.5182 0.0781111 31.9859C-0.400311 32.3277 1.4255 34.8857 1.92345 34.5343C9.57821 29.0666 17.3989 23.7942 24.9561 18.1898C25.4443 17.8285 23.5891 15.29 23.1107 15.6415Z" fill="#002E51"/>
<path d="M154.169 34.8467C151.679 32.1031 149.121 29.4278 146.68 26.6354L148.135 30.3651C153.574 30.1015 159.022 30.1211 164.47 30.0039C165.261 29.9844 164.519 28.5686 164.372 28.2855C163.796 27.1529 162.986 26.1179 162.029 25.2782C157.957 21.6754 154.071 17.8676 150.166 14.089C148.369 12.3413 146.573 10.5936 144.747 8.8752C144.347 8.49442 143.937 8.11363 143.527 7.73285C142.824 7.07868 142.453 6.68813 141.515 6.86388C139.973 7.15679 138.479 7.60592 137.044 8.25033L139.045 9.6563C138.293 8.70922 137.512 7.79143 136.751 6.84435C136.243 6.20971 135.882 5.702 135.462 4.99901C135.042 4.29602 133.724 2.16753 132.728 2.20659C125.239 2.44091 117.741 2.6069 110.252 2.78264C100.957 2.99745 91.652 3.20248 82.357 3.33918C79.3107 3.388 76.2546 3.45634 73.2084 3.39776C72.2222 3.37823 73.5501 5.58483 73.677 5.77034C75.2392 8.14293 76.5183 10.6815 78.0902 13.0443L77.6216 10.6717C60.6034 10.8084 43.7122 8.71898 26.8209 6.93222C25.6102 6.8053 28.0805 10.4276 28.2757 10.662C29.7305 12.478 31.0291 14.4308 32.3472 16.3542L31.4099 13.2884C28.2757 13.2005 25.1513 12.976 22.0172 12.9857C21.031 12.9857 22.3003 15.0654 22.4858 15.3583C22.9252 16.0711 24.175 18.1605 25.2197 18.1507C28.3538 18.1507 31.4782 18.3655 34.6124 18.4534C35.7352 18.4827 33.7922 15.5634 33.6751 15.3876C32.0348 13.0053 30.3847 10.6424 28.5686 8.37725L30.0234 12.107C46.9147 13.8938 63.8059 15.9832 80.8241 15.8465C81.8004 15.8465 80.4921 13.679 80.3554 13.4739C78.7834 11.1111 77.5044 8.56277 75.9422 6.19995L76.4109 8.57253C83.2455 8.68969 90.0996 8.4456 96.9342 8.30891C106.415 8.1234 115.895 7.9086 125.376 7.6645C128.901 7.57663 132.416 7.48876 135.94 7.37159L133.206 4.57917C134.778 7.2349 136.829 9.53914 138.742 11.941C139.055 12.3316 140.08 13.6399 140.744 13.347C142.316 12.644 143.946 12.1949 145.645 11.8824L144.152 11.033C150.723 17.1548 156.971 23.6184 163.708 29.5645L161.267 24.8389C155.829 24.956 150.371 24.9365 144.933 25.2001C143.693 25.2587 146.114 28.6174 146.387 28.9299C148.799 31.7028 151.504 34.5245 153.876 37.1412C154.189 37.4829 155.536 39.1915 155.985 38.3226C156.395 37.5317 154.599 35.3154 154.179 34.8565L154.169 34.8467Z" fill="#002E51"/>
<path d="M72.8764 4.55963L77.6899 12.6635L67.106 12.439L72.8764 4.55963Z" fill="#002E51" stroke="white" stroke-width="1.29" stroke-miterlimit="10"/>
<path d="M25.991 7.5083L30.8045 15.6122L20.2207 15.3876L25.991 7.5083Z" fill="#002E51" stroke="white" stroke-width="1.29" stroke-miterlimit="10"/>
</g>
<defs>
<clipPath id="clip0_1_451">
<rect width="164.821" height="50" fill="white"/>
</clipPath>
</defs>
</svg>
