<svg xmlns="http://www.w3.org/2000/svg" viewBox="0 0 116.85 17.75"><defs><style>.cls-1{fill:#fff;}</style></defs><title>Woordmerk-H&amp;amp;!</title><g id="Layer_2" data-name="Layer 2"><g id="Laag_1" data-name="Laag 1"><polygon class="cls-1" points="70.59 0.69 71.33 0.69 66.92 13.72 66.14 13.72 70.59 0.69"/><polygon class="cls-1" points="1.7 0.69 1.7 6.14 6.55 6.14 6.55 0.69 8.25 0.69 8.25 15.62 6.55 15.62 6.55 7.61 1.7 7.61 1.7 15.63 0 15.63 0 0.69 1.7 0.69"/><path class="cls-1" d="M14.93,13.93a4.46,4.46,0,0,1-4.48-4.81c0-3.13,2.07-5,4.64-5s4.5,2,4.5,4.79a4.58,4.58,0,0,1-4.64,5ZM15,12.65c1.62,0,2.84-1.53,2.84-3.65,0-1.59-.79-3.57-2.8-3.57s-2.86,1.85-2.86,3.63c0,2.05,1.16,3.6,2.8,3.6Z"/><path class="cls-1" d="M21.73,6.89c0-1,0-1.76-.08-2.53h1.51l.1,1.53h0a3.46,3.46,0,0,1,3.09-1.74c1.29,0,3.3.78,3.3,4v5.58H28V8.33c0-1.51-.56-2.78-2.16-2.78a2.46,2.46,0,0,0-2.28,1.74,2.53,2.53,0,0,0-.11.79v5.64h-1.7Z"/><path class="cls-1" d="M40.53,0V11.3c0,.83,0,1.78.08,2.42H39.08L39,12.09h0a3.43,3.43,0,0,1-3.17,1.84c-2.26,0-4-1.91-4-4.75,0-3.13,1.93-5,4.19-5a3.11,3.11,0,0,1,2.82,1.41h0V0Zm-1.7,8.17a3.26,3.26,0,0,0-.07-.73,2.51,2.51,0,0,0-2.46-2c-1.76,0-2.8,1.54-2.8,3.59s.95,3.48,2.76,3.48a2.58,2.58,0,0,0,2.49-2,3.09,3.09,0,0,0,.07-.73Z"/><path class="cls-1" d="M44.31,9.33a3,3,0,0,0,3.19,3.24,6.47,6.47,0,0,0,2.59-.46l.31,1.2a7.62,7.62,0,0,1-3.13.6,4.36,4.36,0,0,1-4.6-4.71c0-2.84,1.68-5.06,4.4-5.06,3.05,0,3.85,2.69,3.85,4.41a4.65,4.65,0,0,1-.05.81Zm5-1.22c0-1.06-.45-2.76-2.34-2.76a2.8,2.8,0,0,0-2.61,2.76Z"/><path class="cls-1" d="M53,7.28c0-1.1,0-2-.08-2.92h1.49l.08,1.83h.06a2.83,2.83,0,0,1,2.61-2,1.77,1.77,0,0,1,.46.06V5.79a5.94,5.94,0,0,0-.6,0,2.38,2.38,0,0,0-2.28,2.16,5,5,0,0,0-.06.81v5H53Z"/><path class="cls-1" d="M59.11,12a4.8,4.8,0,0,0,2.26.66c1.22,0,1.8-.6,1.8-1.39S62.69,10,61.45,9.54C59.75,8.93,59,8,59,6.89c0-1.51,1.23-2.74,3.23-2.74a4.33,4.33,0,0,1,2.28.58L64.06,6a3.8,3.8,0,0,0-1.91-.54c-1,0-1.54.58-1.54,1.28s.54,1.14,1.76,1.6c1.6.6,2.45,1.41,2.45,2.82,0,1.66-1.29,2.82-3.48,2.82a5.34,5.34,0,0,1-2.63-.66Z"/><path class="cls-1" d="M73,9.62l-1.35,4.09H69.93L74.35.7h2l4.44,13H79L77.64,9.62Zm4.27-1.32L76,4.56c-.27-.85-.47-1.62-.66-2.38h-.06c-.17.75-.39,1.57-.64,2.36L73.36,8.31Z"/><rect class="cls-1" x="82.62" width="1.7" height="13.72"/><path class="cls-1" d="M89.19,2.12V4.37h2.43V5.66H89.19v5c0,1.16.33,1.82,1.28,1.82a3.13,3.13,0,0,0,1-.12l.08,1.29a4.69,4.69,0,0,1-1.51.23,2.42,2.42,0,0,1-1.84-.71,3.65,3.65,0,0,1-.65-2.45V5.66H86.08V4.37h1.45V2.65Z"/><rect class="cls-1" x="93.53" y="4.37" width="1.7" height="9.35"/><path class="cls-1" d="M98.05,6.89c0-1,0-1.76-.08-2.53h1.51l.1,1.53h0a3.47,3.47,0,0,1,3.09-1.74c1.29,0,3.3.78,3.3,4v5.58h-1.7V8.33c0-1.51-.56-2.78-2.16-2.78a2.45,2.45,0,0,0-2.28,1.74,2.56,2.56,0,0,0-.12.79v5.64h-1.7Z"/><path class="cls-1" d="M116.77,12.35c0,2.16-.45,3.46-1.33,4.29A5.12,5.12,0,0,1,112,17.75a6,6,0,0,1-3.11-.77l.43-1.31a5.06,5.06,0,0,0,2.74.75c1.74,0,3-.9,3-3.28v-1h0a3.32,3.32,0,0,1-3,1.56c-2.32,0-4-2-4-4.58,0-3.17,2.07-4.95,4.23-4.95a3.13,3.13,0,0,1,2.92,1.6h0l.06-1.39h1.51c-.06.66-.08,1.41-.08,2.55ZM115.07,8a2.5,2.5,0,0,0-2.47-2.57c-1.62,0-2.78,1.37-2.78,3.55,0,1.82.95,3.36,2.77,3.36a2.44,2.44,0,0,0,2.35-1.76,2.76,2.76,0,0,0,.13-.91Z"/><rect class="cls-1" x="93.53" y="1.02" width="1.7" height="1.7"/></g></g></svg>