<?xml version="1.0" encoding="UTF-8"?>
<svg width="100px" height="38px" viewBox="0 0 100 38" version="1.1" xmlns="http://www.w3.org/2000/svg" xmlns:xlink="http://www.w3.org/1999/xlink">
    <title>Combined Shape</title>
    <g id="Symbols" stroke="none" stroke-width="1" fill="none" fill-rule="evenodd">
        <g id="Logo-/-Funda-/-Monochrome" transform="translate(0.000000, -31.000000)" fill="currentColor">
            <path d="M75.6809396,31.5384927 C83.220147,31.5384927 91.3846027,36.7911566 93.8783048,45.7395578 L93.8783048,45.7395578 L93.8783048,45.7405394 L100,68.4249401 L23.8257772,68.4615073 C16.7090477,68.3751204 8.53871104,63.3241895 6.03254207,54.2977457 L6.03254207,54.2977457 L6.03254207,54.2624056 L0,31.5384927 Z M75.6734122,37.1931499 L7.12637403,37.1931499 C7.61687093,39.0384762 8.35040378,41.8069255 9.06316823,44.4987176 L9.23369787,45.142764 C10.2811725,49.098994 11.2369291,52.7121206 11.2457687,52.7410645 C13.0128366,59.0455864 18.8143802,62.808568 24.0141986,62.808568 L24.0141986,62.808568 L92.7861187,62.808568 C92.315183,61.0435277 88.6855433,47.3652012 88.6660188,47.2950119 C86.8396722,40.7757499 80.7765499,37.1931499 75.6734122,37.1931499 L75.6734122,37.1931499 Z M74.7545933,45.2229546 C77.6999417,45.2229546 79.7229427,46.2559155 79.7229427,49.3278024 L79.7229427,49.3278024 L79.7229427,57.8319984 L77.3214524,57.8319984 L77.3214524,56.7256578 L77.2751115,56.7256578 C76.7808877,57.5860904 75.95428,57.9785125 74.3295279,57.9785125 C71.6666939,57.9785125 70.112982,56.3327449 70.112982,54.1701287 C70.112982,52.1793045 71.4340488,50.4844535 73.999026,50.4844535 L73.999026,50.4844535 L77.3214524,50.4844535 L77.3214524,49.180552 C77.3214524,48.0010771 76.5905844,47.5838679 74.8717392,47.5838679 C73.6238298,47.5838679 73.033631,47.8295305 72.6090361,48.5417311 L72.6090361,48.5417311 L70.724587,47.0422322 C71.6417592,45.7142798 72.9644726,45.2229546 74.7545933,45.2229546 Z M32.86918,45.3713583 L32.86918,52.7930193 C32.86918,54.4890974 33.8823271,55.4719932 35.2473824,55.4719932 C36.58962,55.4719932 37.604649,54.4890974 37.604649,52.7930193 L37.604649,52.7930193 L37.604649,45.3713583 L40.0061394,45.3713583 L40.0061394,57.8319248 L37.604649,57.8319248 L37.604649,56.5039724 L37.5566616,56.5039724 C36.8048579,57.4868682 35.7204353,57.9784388 34.470644,57.9784388 C32.5864303,57.9784388 30.4658077,56.480167 30.4658077,53.6536973 L30.4658077,53.6536973 L30.4658077,45.3713583 L32.86918,45.3713583 Z M66.8578793,40.3324038 L66.8578793,57.8321212 L64.4547422,57.8321212 L64.4547422,56.5282196 C63.7008215,57.3896339 62.5954632,57.9783897 61.3708418,57.9783897 C59.9114583,57.9783897 58.8498532,57.2922033 58.1657966,56.3576547 C57.5080859,55.4719441 57.318018,54.661822 57.318018,51.5896898 L57.3187074,51.2822552 C57.3316822,48.4855664 57.5307656,47.6997598 58.1657966,46.8457757 C58.8498532,45.9117179 59.9114583,45.2228319 61.3708418,45.2228319 C62.5954632,45.2228319 63.5606228,45.8128148 64.4547422,46.69828 L64.4547422,46.69828 L64.4547422,40.3324038 L66.8578793,40.3324038 Z M27.4357285,40.3323056 L27.4357285,42.6924826 L25.6773642,42.6924826 C24.9015668,42.6924826 24.640929,42.9621961 24.640929,43.7244618 L24.640929,43.7244618 L24.640929,45.3714566 L27.4357285,45.3714566 L27.4357285,47.2889009 L24.640929,47.2889009 L24.640929,57.8320229 L22.2396738,57.8320229 L22.2396738,47.2889009 L20.0122555,47.2889009 L19.4883924,45.3714566 L22.2396738,45.3714566 L22.2396738,43.7244618 C22.2396738,41.3895628 23.6287228,40.3323056 25.4889428,40.3323056 L25.4889428,40.3323056 L27.4357285,40.3323056 Z M49.8193883,45.2229792 C51.680314,45.2229792 53.7992899,46.7222327 53.7992899,49.549684 L53.7992899,49.549684 L53.7992899,57.8320229 L51.3980347,57.8320229 L51.3980347,50.4101167 C51.3980347,48.7133023 50.3865342,47.730161 49.0426499,47.730161 C47.6738309,47.730161 46.6623304,48.7133023 46.6623304,50.4101167 L46.6623304,50.4101167 L46.6623304,57.8320229 L44.2589581,57.8320229 L44.2589581,45.3714566 L46.6623304,45.3714566 L46.6623304,46.6981818 L46.708436,46.6981818 C47.4621215,45.7143043 48.5465442,45.2229792 49.8193883,45.2229792 Z M77.3214524,52.5474303 L74.4469089,52.5474303 C73.033631,52.5474303 72.3721567,53.1381494 72.3721567,54.0466838 C72.3721567,54.8833111 73.0089316,55.6195626 74.6350951,55.6195626 C76.6388071,55.6195626 77.3214524,55.3989325 77.3214524,53.4571918 L77.3214524,53.4571918 L77.3214524,52.5474303 Z M62.0974756,47.7302593 C59.8383009,47.7302593 59.721155,49.672 59.721155,51.5896898 L59.7215341,51.7661334 C59.7302217,53.6470247 59.9067607,55.4719441 62.0974756,55.4719441 C64.3375963,55.4719441 64.4547422,53.4079856 64.4547422,51.5896898 L64.4543637,51.4258952 C64.445693,49.6721784 64.2697139,47.7302593 62.0974756,47.7302593 Z" id="Combined-Shape"></path>
        </g>
    </g>
</svg>