<svg xmlns="http://www.w3.org/2000/svg" id="Layer_1" data-name="Layer 1" viewBox="0 0 249.4 90"><path d="M96.3,48.1v-8.7c0-6-2.7-7.9-6.7-7.9-3.8,0-5.9,1.6-7,2.6v-2.6c-2.3.1-4.7.5-8,1.6v1.3c.2-.1.7-.3,1.4-.3,1.3,0,1.3,2,1.3,3.5h-.1v10.5c0,2.4-.2,2.9-1.7,3l-.9.1v1.1h10.6v-1.1l-.9-.1c-1.6-.2-1.8-.7-1.8-3v-12.3c.7-.8,1.9-1.7,3.7-1.7,4.6,0,4.6,4.2,4.6,7.7v6.3c0,2.4-.2,2.9-1.8,3l-.9.1v1.1h10.9v-1.1l-.9-.1c-1.6-.2-1.8-.7-1.8-3Z" fill="#fff" stroke-width="0"></path><path d="M101.3,34.4c.2-.1.7-.3,1.4-.3,1.3,0,1.3,2,1.3,3.5v9.1c0,8.7,0,13.4-3.9,14.7,0,.4.1.7.4,1.1,8.8-2.6,8.8-7.1,8.8-14.1v-16.9c-2.3.1-4.7.5-8,1.6v1.3Z" fill="#fff" stroke-width="0"></path><path d="M106.4,21.6c-1.8,0-3.1,1.4-3.1,3.1,0,1.8,1.3,3.1,3.1,3.1,1.7,0,3.1-1.2,3.1-3.1,0-1.7-1.4-3.1-3.1-3.1Z" fill="#fff" stroke-width="0"></path><path d="M215.8,53c4.3,0,6.6-1.3,8-2.3l-.5-1.1c-.6.3-2.5.8-4,.8-4.4,0-8.2-2.9-8.2-9.5,0-4.5,2-7.2,4.8-7.2,2.6,0,4.1,1.8,5.1,2.9h.4c1.1-1.3,1.5-2.1,1.7-3.6-1.1-.9-2.9-1.5-6-1.5-4.9,0-11.6,3.5-11.6,11.7,0,6.5,5.5,9.8,10.3,9.8Z" fill="#fff" stroke-width="0"></path><path d="M248.5,51.1c-1.6-.3-1.8-.7-1.8-3v-7.7c0-3.1,0-8.9-6.9-8.9-3.6,0-5.6,1.4-7,2.6v-13.6c-2.3,0-4.3.2-8,1v1.1c.1,0,.7-.1,1.2-.1,1.5,0,1.5,1.8,1.5,5.6h-.1v20c0,2.4-.2,2.8-1.8,3l-.9.1v1.1h10.8v-1.1l-.9-.1c-1.6-.3-1.8-.7-1.8-3v-12.2c.7-.6,1.9-1.8,3.9-1.8,3.1,0,4.6,2.2,4.6,5.6v8.4c0,2.4-.2,2.8-1.8,3l-.9.1v1.1h10.8v-1.1l-.9-.1Z" fill="#fff" stroke-width="0"></path><path d="M43.2,47v-10.7c.6-.7,1.1-.9,1.8-.9.6,0,3.2,1,3.9,1.2,1.5-.9,2.1-1.7,2.7-3.1-.6-.6-1.7-1.9-3.6-1.9-2.3,0-4.1,2.2-5,3.1,0-1.4-.3-2.3-.4-3.1-3.2.5-4.1.8-7.4,1.9v1.1c.3-.1.7-.3,1.4-.3,1.3,0,1.3,2,1.3,3.5v10.2c0,2.4-.2,2.9-1.8,3l-.9.1v1.1h11.7v-1.1l-1.8-.2c-1.9-.2-1.9-.8-1.9-3.9Z" fill="#fff" stroke-width="0"></path><path d="M148.5,31.5c-2.4,0-4.3.9-5.3,1.3h-.1v-12.2c-2.3,0-4.3.2-8,1v1.1c.1,0,.7-.1,1.2-.1,1.5,0,1.5,1.7,1.5,5.6v25l1.6-.2.8-1.1c1.4.4,3.4,1.1,6.4,1.1,5.9,0,12.1-3.6,12.1-11.6,0-6.8-5-9.9-10.2-9.9ZM147.2,51.2c-2.2,0-3.2-1-4-1.7h-.1v-15.1c.8-.4,1.6-.4,1.9-.4,3.8,0,8,3.4,8,9.2,0,4.3-1.6,8-5.8,8Z" fill="#fff" stroke-width="0"></path><path d="M173.4,52.9c5.6,0,11.3-3.2,11.3-11.1,0-7.1-5.2-10.3-11-10.3-5.5,0-11.2,3.4-11.2,11,0,7.4,5.3,10.4,10.9,10.4ZM173.3,33.3c4.5,0,5.8,4.9,5.8,9.5,0,3.5-1,8.5-5.1,8.5-4.2,0-5.8-5.1-5.8-9.6,0-3.7,1.1-8.4,5.1-8.4Z" fill="#fff" stroke-width="0"></path><path d="M201.1,31.6c-2.3,0-4.1,2.2-5,3.1,0-1.4-.3-2.3-.4-3.1-3.2.5-4.1.8-7.4,1.9v1.1c.3-.1.7-.3,1.4-.3,1.3,0,1.3,2,1.3,3.5v10.2c0,2.4-.2,2.9-1.8,3l-.9.1v1.1h11.7v-1.1l-1.8-.2c-1.9-.2-1.9-.8-1.9-3.9v-10.7c.6-.7,1.1-.9,1.8-.9.6,0,3.2,1,3.9,1.2,1.5-.9,2.1-1.7,2.7-3.1-.6-.6-1.7-1.9-3.6-1.9Z" fill="#fff" stroke-width="0"></path><path d="M52.7,48.1c0,2.8,2.4,4.8,5.8,4.8,3,0,4.9-1.4,6.1-2.3.7,1.2,1.5,2.3,4.3,2.3,1.9,0,3.2-.8,3.8-1.1l-.1-.6h-.4c-2.8,0-2.8-3.3-2.8-6.5v-5.4c0-5-.9-7.9-6.5-7.9-4.5,0-7.5,2.5-9.5,4.7.4,1.1.6,1.5,1.2,2.3h.4c.6-1.3,1.9-4.4,5.3-4.4,3.1,0,3.8,2.4,3.8,5v1.1c-3.6.9-11.4,2.4-11.4,8ZM64.3,49.3c-.4.3-1.2,1.1-2.7,1.1-2,0-3.3-1.6-3.3-3.7,0-3.3,2.8-4.6,5.3-4.6h.5v4.8c0,.9.2,2,.2,2.4Z" fill="#fff" stroke-width="0"></path><path d="M125.2,52.9c4.5,0,7.3-1.9,8.4-2.8l-.3-1.1c-.7.3-2.5,1.3-4.9,1.3-6.1,0-7.4-4.7-7.9-7.4,4.6-1,9.5-2.4,13.3-4.2-.5-2.6-1.7-7.2-8.8-7.2-5,0-10.1,4-10.1,11,0,7.1,5.1,10.4,10.3,10.4ZM124,33.2c2.8,0,4.1,2.6,4.4,5.8-2.7.9-5.5,1.4-8.2,1.9,0-.8,0-7.7,3.8-7.7Z" fill="#fff" stroke-width="0"></path><path d="M15.9,22.5c-8.5,0-15.9,5.6-15.9,15.8,0,9.8,6.9,14.6,15.5,14.7,8.5,0,15.9-5.6,15.9-15.8,0-9.9-7-14.7-15.5-14.7ZM15.9,51.3c-6.8,0-9.5-6.8-9.4-14.1,0-7,2.8-13.1,8.9-13.1,6.8,0,9.5,6.8,9.5,14.1,0,7-2.8,13.1-9,13.1Z" fill="#fff" stroke-width="0"></path><path d="M76.2,85.5c-9.4-5.6-17.1-12.5-21.8-19.8-1.2-1.8-2.2-3.6-3.1-5.4h-4.3c1.2,2.5,2.5,5,4.2,7.5,8.2,12.7,21.8,20.3,25.2,22.2,0,0,11.9-7.7,20.3-18.3l-2.1-3.5c-6.1,8-14.7,14.6-18.4,17.3Z" fill="#fff" stroke-width="0"></path><path d="M45.1,23c.2-3.6.4-7.2.6-9.6,4-.8,11.2-2.4,15.9-3.9,4.8-1.5,13.7-5.3,13.7-5.3,0,0,9,3.7,13.6,5.3,6.9,2.4,19.8,4.6,19.8,4.6l-.3-3.9s-11.9-2.2-18.3-4.3c-6.1-2-14-5.5-14.9-5.9-.9.4-8.8,3.9-14.9,5.9-6.4,2.1-18.3,4.3-18.3,4.3,0,0-.5,6.9-.9,13.3h.3l3.7-.5Z" fill="#fff" stroke-width="0"></path><path d="M117.3,63.2c-.6,0-1.1.3-1.4.4v-3.4c-.7,0-1.2.1-2.2.3v.3h.3c.4,0,.4.5.4,1.5v6.7h.4l.2-.3c.3.1.9.3,1.7.3,1.6,0,3.3-.9,3.3-3.1,0-1.9-1.3-2.7-2.7-2.7ZM117,68.6c-.6,0-.9-.3-1.1-.5v-4.1c.2-.1.4-.1.5-.1,1.1,0,2.2.9,2.2,2.5,0,1.2-.5,2.2-1.6,2.2Z" fill="#fff" stroke-width="0"></path><path d="M193,65.3c1.4-1.3,1.4-1.5,2.1-1.6h.2v-.3h-2.6v.3h.4c.2.1.4.1.4.2s-.1.3-.5.8l-.4.5c-.4.5-.7.5-1.1.5v-5.5c-.7,0-1.2.1-2.2.3v.3h.3c.4,0,.4.5.4,1.5v5.4c0,.6-.1.8-.5.8h-.2v.1h2.9v-.3h-.3c-.4,0-.5-.2-.5-.8v-1.5h.1c.5,0,.5.4,1.1,1.3.7.9.7,1.4,2,1.4h.9v-.3c-.5,0-.6-.1-2.5-3.1Z" fill="#fff" stroke-width="0"></path><path d="M207.5,67.7v-7.5c-.7,0-1.2.1-2.2.3v.3h.3c.4,0,.4.5.4,1.5v5.4c0,.6-.1.8-.5.8h-.1v.3h2.9v-.3h-.3c-.4,0-.5-.2-.5-.8Z" fill="#fff" stroke-width="0"></path><path d="M178.2,67.7v-1.7c0-1.3,0-2.7-1.9-2.7-.9,0-1.5.4-1.8.7-.3-.3-.6-.7-1.6-.7-.9,0-1.4.5-1.7.7v-.7c-.6,0-1.2.1-2.1.4v.3c.1,0,.2-.1.4-.1.4,0,.4.6.4,1h.3v2.7c0,.6-.1.8-.5.8h-.3v.3h2.9v-.3h-.3c-.4,0-.5-.2-.5-.8v-3.3c.2-.2.5-.5,1-.5,1.1.1,1.1,1,1.1,1.6v2.2c0,.6-.1.8-.5.8h-.3v.3h2.9v-.3h-.3c-.4,0-.5-.2-.5-.8v-2.7c0-.2-.1-.4-.1-.6.2-.2.5-.4,1-.4,1.1,0,1.1,1.2,1.1,2.1v1.7c0,.6-.1.8-.5.8h-.3v.3h2.9v-.3h-.3c-.4,0-.5-.2-.5-.8Z" fill="#fff" stroke-width="0"></path><path d="M186.2,66.8v-1.5c0-1.3-.3-2.1-1.8-2.1-1.2,0-2.1.7-2.6,1.3.1.3.1.4.3.6h.1c.1-.4.5-1.2,1.4-1.2.8,0,1,.6,1,1.3v.3c-1,.3-3.1.7-3.1,2.2,0,.8.7,1.3,1.6,1.3s1.4-.4,1.7-.6c.2.3.4.6,1.2.6.5,0,.8-.2,1-.3l.1-.2h-.1c-.8,0-.8-.8-.8-1.7ZM184.8,67.4v.6c-.1.1-.3.3-.7.3-.6,0-.9-.4-.9-1,0-.8.7-1.2,1.4-1.2h.2v1.3Z" fill="#fff" stroke-width="0"></path><path d="M200.4,63.2c-1.3,0-2.7,1.1-2.7,3s1.4,2.8,2.8,2.8c1.2,0,2-.5,2.3-.8l-.2-.3c-.2,0-.7.3-1.3.3-1.6,0-2-1.3-2.1-2,1.3-.2,2.6-.6,3.6-1.1-.2-.6-.5-1.9-2.4-1.9ZM199.2,65.7c0-.2,0-2.1,1-2.1.8,0,1.1.7,1.2,1.6-.7.3-1.5.4-2.2.5Z" fill="#fff" stroke-width="0"></path><path d="M234.2,64.3c0-.4.3-.7.7-.7.9,0,1.2,1,1.2,1.4v-.2h.4c0-.5,0-1-.1-1.5-.3-.1-.8-.3-1.4-.3-2.1,0-2.1,1.5-2.1,1.6,0,1.9,2.7,1.6,2.7,3,0,.4-.3.8-.8.8-.9,0-1.4-.9-1.5-1.6h-.5c0,.7.1,1.2.2,1.7.4.2.9.4,1.6.4,1.6,0,2.3-.8,2.3-1.7,0-1.9-2.7-1.6-2.7-2.9Z" fill="#fff" stroke-width="0"></path><path d="M228.3,64c0-.3-.1-.6-.1-.8-.9.1-1.1.2-2,.5v.3c.1-.1.2-.1.4-.1.4,0,.4.6.4,1h.1v2.8c0,.6-.1.8-.5.8h-.3v.3h3.1v-.3l-.5-.1c-.5-.1-.5-.3-.5-1.1v-2.9c.2-.2.3-.2.5-.2.1,0,.8.3,1,.3.4-.2.5-.4.7-.8-.2-.2-.5-.5-1-.5-.6,0-1.1.5-1.3.8Z" fill="#fff" stroke-width="0"></path><path d="M223.2,66.8v-1.5c0-1.3-.3-2.1-1.8-2.1-1.2,0-2.1.7-2.6,1.3.1.3.1.4.3.6h.1c.1-.4.5-1.2,1.4-1.2.8,0,1,.6,1,1.3v.3c-1,.3-3.1.7-3.1,2.2,0,.8.7,1.3,1.6,1.3s1.4-.4,1.7-.6c.2.3.4.6,1.2.6.5,0,.8-.2,1-.3l.1-.2h-.1c-.8,0-.8-.8-.8-1.7ZM221.8,67.4v.6c-.1.1-.3.3-.7.3-.6,0-.9-.4-.9-1,0-.8.7-1.2,1.4-1.2h.2v1.3Z" fill="#fff" stroke-width="0"></path><path d="M215.4,66.8v-1.5c0-1.3-.3-2.1-1.8-2.1-1.2,0-2.1.7-2.6,1.3.1.3.1.4.3.6h.1c.1-.4.5-1.2,1.4-1.2.8,0,1,.6,1,1.3v.3c-1,.3-3.1.7-3.1,2.2,0,.8.7,1.3,1.6,1.3s1.4-.4,1.7-.6c.2.3.4.6,1.2.6.5,0,.8-.2,1-.3l.1-.2h-.1c-.8,0-.8-.8-.8-1.7ZM214,67.4v.6c-.1.1-.3.3-.7.3-.6,0-.9-.4-.9-1,0-.8.7-1.2,1.4-1.2h.2v1.3Z" fill="#fff" stroke-width="0"></path><path d="M157.2,63.4c-.3,0-.7.1-.9.1v.3c.3,0,.6.1.9.1v3.9c0,.6-.1.8-.5.8h-.2v.3h3.1v-.3h-.5c-.4,0-.5-.2-.5-.8v-3.8c.5,0,1,0,1.5-.1v-.3c-.4,0-1.1-.1-1.5-.1v-.7c0-1.1.1-2.1.8-2.1.4,0,1,.5,1.2.7h.1c.3-.3.4-.5.5-.9-.3-.2-.7-.4-1.3-.4-1.9,0-2.7,1.6-2.7,3.3Z" fill="#fff" stroke-width="0"></path><path d="M141.2,64c0-.3-.1-.6-.1-.8-.9.1-1.1.2-2,.5v.3c.1-.1.2-.1.4-.1.4,0,.4.6.4,1h.1v2.8c0,.6-.1.8-.5.8h-.3v.3h3.1v-.3l-.5-.1c-.5-.1-.5-.3-.5-1.1v-2.9c.2-.2.3-.2.5-.2.1,0,.8.3,1,.3.4-.2.5-.4.7-.8-.2-.2-.5-.5-1-.5-.6,0-1.1.5-1.3.8Z" fill="#fff" stroke-width="0"></path><path d="M147.8,61.4c0-.4-.3-.8-.8-.8-.4,0-.8.3-.8.8s.4.8.8.8.8-.3.8-.8Z" fill="#fff" stroke-width="0"></path><path d="M147.9,67.8v-4.5c-.6,0-1.3.1-2.2.4v.3c.1,0,.2-.1.4-.1.4,0,.4.6.4,1v2.8c0,.6-.1.8-.5.8h-.2v.4h2.9v-.3h-.3c-.4,0-.5-.2-.5-.8Z" fill="#fff" stroke-width="0"></path><path d="M136.1,66.9v-6.7c-.7,0-1.2.1-2.2.3v.3h.3c.4,0,.4.5.4,1.5h.1v.9c-.2-.1-.5-.1-.8-.1-1,0-3.4.4-3.4,3.1,0,1.9,1.3,2.7,2.6,2.7.7,0,1.3-.3,1.6-.5l.3.5c.6-.1,1.3-.3,1.9-.5v-.3h-.3c-.5,0-.5-.2-.5-1.2ZM134.6,68.1c-.1.1-.4.2-.7.2-1,0-2-.9-2-2.5,0-1.2.7-2.1,1.7-2.1.5,0,.8.2,1,.4v4Z" fill="#fff" stroke-width="0"></path><path d="M153.2,61.4c0-.4-.3-.8-.8-.8-.4,0-.8.3-.8.8s.4.8.8.8.8-.3.8-.8Z" fill="#fff" stroke-width="0"></path><path d="M153.2,63.3c-.6,0-1.3.1-2.2.4v.3c.1,0,.2-.1.4-.1.4,0,.4.6.4,1v2.4c0,2.4,0,3.7-1,4,0,.1,0,.2.1.3,2.4-.7,2.4-1.9,2.4-3.8h-.1v-4.5Z" fill="#fff" stroke-width="0"></path><path d="M126.4,68.2c-1.6,0-2-1.3-2.1-2,1.3-.2,2.6-.6,3.6-1.1-.2-.6-.5-1.9-2.4-1.9-1.3,0-2.7,1.1-2.7,3s1.4,2.8,2.8,2.8c1.2,0,2-.5,2.3-.8l-.2-.3c-.2,0-.7.3-1.3.3ZM125.3,63.6c.8,0,1.1.7,1.2,1.6-.7.3-1.4.4-2.2.5,0-.2,0-2.1,1-2.1Z" fill="#fff" stroke-width="0"></path><path d="M163.8,64.3c0-.4.3-.7.7-.7.9,0,1.2,1,1.2,1.4v-.2h.4c0-.5,0-1-.1-1.5-.3-.1-.8-.3-1.4-.3-2.1,0-2.1,1.5-2.1,1.6,0,1.9,2.7,1.6,2.7,3,0,.4-.3.8-.8.8-.9,0-1.4-.9-1.5-1.6h-.5c0,.7.1,1.2.2,1.7.4.2.9.4,1.6.4,1.6,0,2.3-.8,2.3-1.7,0-1.9-2.7-1.6-2.7-2.9Z" fill="#fff" stroke-width="0"></path></svg>