<?xml version="1.0" encoding="UTF-8"?> <!-- Generator: Adobe Illustrator 25.0.0, SVG Export Plug-In . SVG Version: 6.00 Build 0) --> <svg xmlns="http://www.w3.org/2000/svg" xmlns:xlink="http://www.w3.org/1999/xlink" version="1.1" id="Layer_1" x="0px" y="0px" viewBox="0 0 76 26.9" style="enable-background:new 0 0 76 26.9;" xml:space="preserve"> <style type="text/css"> .st0{fill:#60C5F8;} .st1{fill:#53241B;} .st2{fill-rule:evenodd;clip-rule:evenodd;fill:#FFFFFF;} </style> <path id="Path_202" class="st0" d="M76,26.9l-4.6-16.5C69.5,4.3,63.9,0.1,57.5,0H0l4.6,16.6v0c1.8,6,7.3,10.1,13.5,10.3L76,26.9z M8.5,15.4c0,0-2.2-7.9-3.1-11.3h52.1c4.5,0.1,8.5,3,9.9,7.4c0,0.1,2.8,10,3.1,11.3H18.3C13.8,22.7,9.9,19.7,8.5,15.4L8.5,15.4z"></path> <path id="Path_203" class="st1" d="M8.5,15.4c0,0-2.2-7.9-3.1-11.3h52.1c4.5,0.1,8.5,3,9.9,7.4c0,0.1,2.8,10,3.1,11.3H18.3 C13.8,22.7,9.9,19.7,8.5,15.4z"></path> <path id="Path_204" class="st2" d="M16.9,19.2h1.8v-7.7h2.1v-1.4h-2.1V8.9c0-0.6,0.2-0.8,0.8-0.8h1.3V6.4h-1.5 c-1.2-0.1-2.3,0.8-2.5,2c0,0.1,0,0.3,0,0.4v1.2h-2.1l0.4,1.4h1.7L16.9,19.2z M23.2,16.1c-0.1,1.7,1.3,3.1,2.9,3.1c0,0,0.1,0,0.1,0 c0.9,0,1.8-0.4,2.3-1.1h0v1h1.8v-9.1h-1.8v5.4c0,1-0.8,1.8-1.8,1.8c-1,0-1.8-0.8-1.8-1.8c0,0,0,0,0,0v-5.4h-1.8V16.1z M33.6,19.2 h1.8v-5.4c0-1,0.8-1.8,1.8-1.8c1,0,1.8,0.8,1.8,1.8c0,0,0,0,0,0v5.4h1.8v-6c0.1-1.7-1.3-3.1-2.9-3.2c0,0-0.1,0-0.1,0 c-0.9,0-1.8,0.4-2.4,1.1h0v-1h-1.8L33.6,19.2z M49,19.2h1.8V6.4H49V11c-0.6-0.7-1.5-1-2.3-1.1c-1,0-1.9,0.4-2.4,1.2 c-0.5,0.6-0.6,1.2-0.6,3.5s0.1,2.8,0.6,3.5c0.6,0.8,1.5,1.2,2.4,1.2c0.9,0,1.7-0.4,2.3-1.1V19.2z M47.2,11.8c1.7,0,1.8,1.5,1.8,2.8 s-0.1,2.8-1.8,2.8s-1.8-1.4-1.8-2.8S45.5,11.8,47.2,11.8L47.2,11.8z M58.8,19.2h1.8V13c0-2.2-1.5-3-3.8-3c-1.2-0.1-2.3,0.4-3.1,1.3 l1.4,1.1c0.3-0.5,0.8-0.7,1.7-0.7c1.3,0,1.9,0.3,1.9,1.2v1h-2.5c-1.5-0.2-2.8,0.9-2.9,2.4c0,0.1,0,0.2,0,0.3c0,1.6,1.2,2.8,3.2,2.8 c1.2,0,1.9-0.3,2.2-0.9h0L58.8,19.2z M58.8,16c0,1.4-0.5,1.6-2,1.6c-1.2,0-1.7-0.5-1.7-1.1c0-0.7,0.5-1.1,1.6-1.1h2.2V16z"></path> </svg> 