<svg xmlns="http://www.w3.org/2000/svg" id="Laag_1" data-name="Laag 1" viewBox="0 0 512 512"><rect width="512" height="512" style="fill: #63656a; stroke-width: 0px;"></rect><g><path d="M92.45,203.44c10.62,0,21.02.68,29.84,7.69,7.46,6.1,11.3,17.18,11.3,26.45,0,17.18-9.27,28.03-26.22,30.74,18.31.45,29.16,16.5,29.16,33.68,0,13.11-6.78,24.87-18.31,30.97-9.27,4.97-23.51,4.75-33.68,4.75H25.09v-17.18h15.37v-100.37h-15.37v-16.95h67.36v.23ZM66.01,220.4v40.24h14.92c6.1,0,14.92,0,19.89-4.07,4.52-3.84,7.01-10.4,7.01-16.5,0-7.69-2.49-14.69-9.72-18.08-5.65-2.26-15.37-1.58-21.47-1.58h-10.62ZM83.19,320.76c7.01,0,14.47-.23,20.12-4.97,5.43-4.97,7.23-10.4,7.23-17.41s-2.71-13.79-8.59-17.63c-5.88-3.84-12.21-3.39-18.99-3.39h-17.18v43.4h17.41Z" style="fill: #fff; stroke-width: 0px;"></path><path d="M146.71,220.4v-16.95h58.55v16.95h-16.5v100.59h16.5v16.95h-58.55v-16.95h16.28v-100.59h-16.28Z" style="fill: #fff; stroke-width: 0px;"></path><path d="M217.91,337.72v-16.95h15.6v-100.59h-15.6v-16.95h49.96l49.96,105.56h.23v-88.84h-15.82v-16.95h52.9v16.95h-14.69v117.55h-33.23l-51.09-108.5h-.23v91.55h14.92v16.95h-52.9v.23Z" style="fill: #fff; stroke-width: 0px;"></path><path d="M366.42,337.72v-16.95h15.37v-100.59h-15.37v-16.95h56.29v16.95h-15.15v44.98l39.33-44.76h-12.66v-16.95h51.77v16.95h-10.17l-40.69,44.76,43.4,55.61h10.4v16.95h-53.8v-16.95h13.34l-41.14-52.9v52.9h15.15v16.95h-56.06Z" style="fill: #fff; stroke-width: 0px;"></path></g><g style="isolation: isolate;"><path d="M22.76,463.94h13.43v-107.6h-13.43v-2.85h37.73c32.65,0,47.2,21.99,47.2,55.22,0,35.92-15.83,58.07-49.18,58.07H22.76v-2.85ZM39.29,463.94h17.67c21.76,0,47.63-9.65,47.63-55.07,0-33.23-15.26-52.53-46.92-52.53h-18.37v107.6Z" style="fill: #fff; stroke-width: 0px;"></path><path d="M117.03,463.94h13.43v-107.6h-13.43v-2.85h67.7v33.7h-3.11v-30.86h-48.05v51.27h28.83v-20.73h3.11v45.26h-3.11v-21.68h-28.83v53.48h48.48v-31.96h3.11v34.81h-68.12v-2.85Z" style="fill: #fff; stroke-width: 0px;"></path><path d="M200.55,429.76h3.11c.57,17.41,8.06,35.44,26.57,35.44,14.27,0,24.87-11.08,24.87-26.74,0-14.24-7.77-20.41-18.8-25.16l-13.85-6.01c-12.29-5.38-21.34-11.23-21.34-27.37,0-17.09,11.45-28.32,26.43-28.32,16.25,0,23.18,11.39,25.86,20.41h.28v-18.51h3.11v36.39h-3.11v-1.9c0-19.62-10.88-32.91-25.44-32.91-15.4,0-24.03,11.87-24.03,25s6.92,18.83,19.08,23.89l14.27,6.01c12.3,5.22,20.63,12.18,20.63,28.32,0,18.2-12.01,30.38-27.98,30.38-12.72,0-22.89-7.91-26.29-21.84h-.28v19.94h-3.11v-37.03Z" style="fill: #fff; stroke-width: 0px;"></path><path d="M267.26,463.94h14.56v-107.6h-14.56v-2.85h32.22v2.85h-14.56v107.6h14.56v2.85h-32.22v-2.85Z" style="fill: #fff; stroke-width: 0px;"></path><path d="M383.72,353.5v39.08h-3.11v-2.69c0-21.05-11.73-34.81-30.67-34.81-24.87,0-38.87,22.63-38.87,55.38s16.39,54.75,38.3,54.75c20.63,0,30.95-16.46,30.95-33.7v-16.14h-17.52v-2.85h31.94v2.85h-11.31v51.43h-3.11v-20.73h-.28c-4.38,14.4-15.41,22.63-31.23,22.63-17.38,0-40.84-14.08-40.84-58.55,0-36.08,16.11-58.55,42.26-58.55,20.63,0,27.98,14.4,30.1,20.57h.28v-18.67h3.11Z" style="fill: #fff; stroke-width: 0px;"></path><path d="M398.84,463.94h13.43v-107.6h-13.43v-2.85h19.08l55.26,109.81h.28v-106.97h-14.56v-2.85h29.82v2.85h-12.15v110.45h-5.37l-55.54-110.45h-.28v107.6h14.7v2.85h-31.23v-2.85Z" style="fill: #fff; stroke-width: 0px;"></path></g></svg>