<?xml version="1.0" encoding="UTF-8"?>
<!-- Generator: Adobe Illustrator 25.2.0, SVG Export Plug-In . SVG Version: 6.00 Build 0)  -->
<svg width="207px" height="50px" xmlns="http://www.w3.org/2000/svg" xmlns:xlink="http://www.w3.org/1999/xlink" version="1.1" id="Laag_1" x="0px" y="0px" viewBox="0 0 294.4 71.29" style="enable-background:new 0 0 294.4 71.29;" xml:space="preserve">
<style type="text/css">
	.st0{fill:#FFFFFF;}
</style>
<g>
	<g>
		<polygon class="st0" points="21.44,61.28 21.44,50.47 13.65,50.47 8.29,70.79 56.89,70.79 51.43,50.47 43.58,50.47 43.58,61.28       "></polygon>
	</g>
	<polygon class="st0" points="7.38,18.54 13.63,45.92 21.44,45.92 32.59,34.79 43.59,45.92 51.55,45.92 57.79,18.54 46.87,26.95    41.32,10.7 32.59,26.03 23.86,10.7 18.3,26.95  "></polygon>
	<path class="st0" d="M9.41,13.12c0,2.6-2.11,4.71-4.71,4.71c-2.6,0-4.71-2.1-4.71-4.71c0-2.6,2.11-4.71,4.71-4.71   C7.31,8.41,9.41,10.52,9.41,13.12z"></path>
	<path class="st0" d="M27.62,4.71c0,2.6-2.11,4.71-4.71,4.71c-2.6,0-4.71-2.11-4.71-4.71c0-2.6,2.11-4.71,4.71-4.71   C25.51,0,27.62,2.11,27.62,4.71z"></path>
	<path class="st0" d="M55.86,13.12c0,2.6,2.11,4.71,4.71,4.71c2.6,0,4.71-2.1,4.71-4.71c0-2.6-2.11-4.71-4.71-4.71   C57.97,8.41,55.86,10.52,55.86,13.12z"></path>
	<path class="st0" d="M37.65,4.71c0,2.6,2.11,4.71,4.71,4.71c2.6,0,4.71-2.11,4.71-4.71c0-2.6-2.11-4.71-4.71-4.71   C39.76,0,37.65,2.11,37.65,4.71z"></path>
</g>
<g>
	<path class="st0" d="M84.46,24.18l2.83,12.05l2.96-12.05h5.48l-4.7,16h-7.57l-4.48-16H84.46z"></path>
	<path class="st0" d="M104.94,36.91c-1.03,0-1.56-0.47-1.56-1.4v-0.84c0-0.93,0.53-1.4,1.56-1.4h1.4c1.03,0,1.53,0.47,1.53,1.4v0.84   c0,0.94-0.5,1.4-1.53,1.4H104.94z M98.96,28.26h5.08c0-0.93,0.47-1.15,1.59-1.15h0.87c1.03,0,1.4,0.44,1.4,1.4v3.11   c-0.75-0.93-1.93-1.46-3.43-1.46h-1.4c-3.18,0-4.86,1.59-4.86,4.3v1.5c0,2.83,1.53,4.45,4.27,4.45h1.84c1.59,0,2.74-0.56,3.58-1.68   v1.46h5.11V29.22c0-3.8-1.68-5.26-6.2-5.26h-2.43C100.65,23.96,98.99,25.08,98.96,28.26z"></path>
	<path class="st0" d="M122.31,35.6c0.19,1.28,0.75,1.56,2.12,1.56h0.69c1.53,0,2.09-0.34,2.09-1.56c0-1.18-0.5-1.46-2.15-1.62   l-3.27-0.31c-2.86-0.28-4.55-1.96-4.55-4.14v-1.28c0-2.77,2.02-4.3,5.98-4.3h3.14c3.64,0,5.45,1.4,5.45,4.18v0.34h-5.05   c-0.03-0.9-0.65-1.31-1.93-1.31h-0.65c-1.4,0-1.93,0.44-1.93,1.53c0,0.93,0.4,1.25,1.49,1.34l3.61,0.34   c3.3,0.31,4.92,1.52,4.92,3.89v1.37c0,2.93-2.12,4.76-5.73,4.76h-3.39c-4.11,0-6.1-1.46-6.1-4.58V35.6H122.31z"></path>
	<path class="st0" d="M137.57,38.78c-0.78-1.03-0.84-2.18-0.84-3.58v-7.32h-1.84v-3.7h1.84v-3.08h5.08v3.08h6.79v3.7h-6.79v6.54   c0,1.71,0.15,2.24,1.65,2.24c1.31,0,1.59-0.43,1.59-1.71v-1.34h4.24v1.8c0,3.39-1.53,4.98-4.92,4.98h-2.71   C139.75,40.4,138.41,39.87,137.57,38.78z"></path>
	<path class="st0" d="M157.78,30.96c0-2.05,0.19-2.99,1.96-2.99h0.62c1.78,0,1.96,0.96,1.96,2.99v2.46c0,2.02-0.19,2.99-1.96,2.99   h-0.62c-1.78,0-1.96-0.93-1.96-2.99V30.96z M167.18,24.18h-5.08v1.99c-0.68-1.43-2.15-2.21-4.2-2.21c-3.7,0-5.29,2.12-5.29,6.57   v3.21c0,4.14,1.59,6.07,5.17,6.07c2.4,0,3.8-0.62,4.55-2.21v2.34c0,1.96-0.28,2.74-1.84,2.74h-0.75c-1.12,0-1.53-0.35-1.53-1.4   h-4.89v0.9c0,2.71,2.02,4.14,5.95,4.14h1.74c1.96,0,3.74-0.69,4.64-1.56c1.37-1.34,1.53-3.05,1.53-5.6V24.18z"></path>
	<path class="st0" d="M176.68,30.9c0-2.34,0.12-3.11,1.93-3.11h0.62c1.81,0,1.9,0.75,1.9,3.11v2.55c0,2.34-0.09,3.11-1.9,3.11h-0.62   c-1.81,0-1.93-0.75-1.93-3.11V30.9z M171.48,30.53v3.3c0,4.8,1.62,6.57,6.35,6.57h2.15c4.73,0,6.35-1.77,6.35-6.57v-3.3   c0-4.79-1.62-6.57-6.35-6.57h-2.15C173.1,23.96,171.48,25.73,171.48,30.53z"></path>
	<path class="st0" d="M195.08,30.37v-0.72c0-1.9,0.4-2.49,2.05-2.49h0.65c1.68,0,2.06,0.59,2.06,2.65v0.56H195.08z M204.76,35.29   h-5.01c-0.12,1.31-0.65,1.68-1.99,1.68h-0.65c-1.46,0-2.02-0.47-2.02-1.96v-1.96h9.74v-2.52c0-4.79-1.62-6.57-6.35-6.57h-2.15   c-4.73,0-6.35,1.78-6.35,6.57v3.3c0,4.8,1.62,6.57,6.35,6.57h2.15C202.61,40.4,204.51,38.97,204.76,35.29z"></path>
	<path class="st0" d="M216.09,27.98c1.68,0,1.84,0.93,1.84,2.99v2.46c0,2.06-0.15,2.99-1.84,2.99h-0.59c-1.68,0-1.87-0.93-1.87-2.99   v-2.46c0-2.05,0.19-2.99,1.87-2.99H216.09z M223.04,17.55h-5.11v8.62c-0.68-1.43-2.11-2.21-4.17-2.21c-3.7,0-5.32,2.12-5.32,6.57   v3.3c0,4.45,1.62,6.57,5.32,6.57c2.15,0,3.49-0.75,4.39-2.49l-0.06,2.27h4.95V17.55z"></path>
</g>
<g>
	<path class="st0" d="M242.37,34.61c0,4.23-1.87,5.79-6.38,5.79h-2.15c-4.73,0-6.35-1.77-6.35-6.57v-3.3c0-4.79,1.62-6.57,6.35-6.57   h2.15c4.51,0,6.35,1.56,6.35,5.73v0.43h-5.11v-0.16c0-1.65-0.47-2.18-1.93-2.18h-0.68c-1.81,0-1.93,0.78-1.93,3.11v2.55   c0,2.37,0.12,3.11,1.93,3.11h0.68c1.5,0,1.93-0.56,1.93-2.33v-0.38h5.11C242.34,34.11,242.37,34.36,242.37,34.61z"></path>
	<path class="st0" d="M251,30.37v-0.72c0-1.9,0.4-2.49,2.05-2.49h0.66c1.68,0,2.05,0.59,2.05,2.65v0.56H251z M260.68,35.29h-5.01   c-0.12,1.31-0.65,1.68-1.99,1.68h-0.65c-1.46,0-2.02-0.47-2.02-1.96v-1.96h9.74v-2.52c0-4.79-1.62-6.57-6.35-6.57h-2.15   c-4.74,0-6.35,1.78-6.35,6.57v3.3c0,4.8,1.61,6.57,6.35,6.57h2.15C258.53,40.4,260.43,38.97,260.68,35.29z"></path>
	<path class="st0" d="M264.88,24.18h4.92l-0.06,2.27c0.81-1.77,1.96-2.49,3.89-2.49c3.46,0,4.3,1.65,4.3,5.83v1.43h-4.76v-1.03   c0-1.59-0.44-2.05-1.59-2.05c-1.52,0-1.62,0.9-1.62,3.08v8.97h-5.07V24.18z"></path>
	<path class="st0" d="M282.69,38.78c-0.78-1.03-0.84-2.18-0.84-3.58v-7.32h-1.84v-3.7h1.84v-3.08h5.07v3.08h6.79v3.7h-6.79v6.54   c0,1.71,0.16,2.24,1.65,2.24c1.31,0,1.59-0.43,1.59-1.71v-1.34h4.24v1.8c0,3.39-1.53,4.98-4.92,4.98h-2.71   C284.87,40.4,283.53,39.87,282.69,38.78z"></path>
</g>
<g>
	<path class="st0" d="M114.21,65.56c0,2.04-0.12,3.41-1.22,4.48c-0.72,0.7-2.14,1.24-3.71,1.24h-1.39c-3.14,0-4.75-1.15-4.75-3.31   v-0.72h3.91c0,0.85,0.32,1.12,1.22,1.12h0.6c1.24,0,1.47-0.62,1.47-2.19v-1.87c-0.6,1.27-1.72,1.77-3.63,1.77   c-2.86,0-4.13-1.54-4.13-4.85v-2.56c0-3.56,1.27-5.25,4.23-5.25c1.64,0,2.81,0.62,3.36,1.77v-1.6h4.06V65.56z M106.69,60.98   c0,1.64,0.15,2.39,1.57,2.39h0.5c1.42,0,1.57-0.77,1.57-2.39v-1.97c0-1.62-0.15-2.39-1.57-2.39h-0.5c-1.42,0-1.57,0.75-1.57,2.39   V60.98z"></path>
	<path class="st0" d="M123.82,66.56h-1.72c-3.78,0-5.08-1.42-5.08-5.25v-2.64c0-3.83,1.29-5.25,5.08-5.25h1.72   c3.78,0,5.08,1.42,5.08,5.25v2.02h-7.79v1.57c0,1.19,0.45,1.57,1.62,1.57h0.52c1.07,0,1.49-0.3,1.59-1.34h4.01   C128.65,65.42,127.13,66.56,123.82,66.56z M124.92,58.54V58.1c0-1.64-0.3-2.12-1.64-2.12h-0.52c-1.32,0-1.64,0.47-1.64,1.99v0.57   H124.92z"></path>
	<path class="st0" d="M143.06,61.93c0,3.39-1.49,4.63-5.1,4.63h-1.72c-3.78,0-5.08-1.42-5.08-5.25v-2.64c0-3.83,1.29-5.25,5.08-5.25   h1.72c3.61,0,5.08,1.24,5.08,4.58v0.35h-4.08v-0.13c0-1.32-0.37-1.74-1.54-1.74h-0.55c-1.44,0-1.54,0.62-1.54,2.49v2.04   c0,1.89,0.1,2.49,1.54,2.49h0.55c1.19,0,1.54-0.45,1.54-1.87v-0.3h4.08C143.04,61.53,143.06,61.73,143.06,61.93z"></path>
	<path class="st0" d="M152.05,66.56h-1.72c-3.78,0-5.08-1.42-5.08-5.25v-2.64c0-3.83,1.29-5.25,5.08-5.25h1.72   c3.78,0,5.08,1.42,5.08,5.25v2.02h-7.79v1.57c0,1.19,0.45,1.57,1.62,1.57h0.52c1.07,0,1.5-0.3,1.59-1.34h4.01   C156.88,65.42,155.36,66.56,152.05,66.56z M153.14,58.54V58.1c0-1.64-0.3-2.12-1.64-2.12h-0.52c-1.32,0-1.64,0.47-1.64,1.99v0.57   H153.14z"></path>
	<path class="st0" d="M160.04,53.59h3.93l-0.05,1.82c0.65-1.42,1.57-1.99,3.11-1.99c2.76,0,3.43,1.32,3.43,4.65v1.15h-3.81V58.4   c0-1.27-0.35-1.64-1.27-1.64c-1.22,0-1.29,0.72-1.29,2.46v7.17h-4.06V53.59z"></path>
	<path class="st0" d="M173.43,65.27c-0.62-0.82-0.67-1.74-0.67-2.86v-5.85h-1.47v-2.96h1.47v-2.46h4.06v2.46h5.43v2.96h-5.43v5.23   c0,1.37,0.13,1.79,1.32,1.79c1.05,0,1.27-0.35,1.27-1.37v-1.07h3.39v1.44c0,2.71-1.22,3.98-3.93,3.98h-2.17   C175.17,66.56,174.1,66.14,173.43,65.27z"></path>
	<path class="st0" d="M185.33,48.29h4.13v3.19h-4.13V48.29z M185.33,53.59h4.13v12.8h-4.13V53.59z"></path>
	<path class="st0" d="M193.19,56.7h-1.4v-3.11h1.4c-0.02-0.32-0.02-0.65-0.02-0.95c0-2.99,1.14-4.36,3.83-4.36h2.99v2.99h-0.95   c-1.14,0-1.72,0.27-1.72,1.09v1.22h2.66v3.11h-2.66v9.68h-4.13V56.7z"></path>
	<path class="st0" d="M201.93,48.29h4.13v3.19h-4.13V48.29z M201.93,53.59h4.13v12.8h-4.13V53.59z"></path>
	<path class="st0" d="M220.82,61.93c0,3.39-1.49,4.63-5.1,4.63H214c-3.78,0-5.08-1.42-5.08-5.25v-2.64c0-3.83,1.29-5.25,5.08-5.25   h1.72c3.61,0,5.08,1.24,5.08,4.58v0.35h-4.08v-0.13c0-1.32-0.37-1.74-1.54-1.74h-0.55c-1.44,0-1.54,0.62-1.54,2.49v2.04   c0,1.89,0.1,2.49,1.54,2.49h0.55c1.19,0,1.54-0.45,1.54-1.87v-0.3h4.08C220.8,61.53,220.82,61.73,220.82,61.93z"></path>
	<path class="st0" d="M229.81,66.56h-1.72c-3.78,0-5.08-1.42-5.08-5.25v-2.64c0-3.83,1.29-5.25,5.08-5.25h1.72   c3.78,0,5.08,1.42,5.08,5.25v2.02h-7.79v1.57c0,1.19,0.45,1.57,1.62,1.57h0.52c1.07,0,1.5-0.3,1.59-1.34h4.01   C234.64,65.42,233.12,66.56,229.81,66.56z M230.9,58.54V58.1c0-1.64-0.3-2.12-1.64-2.12h-0.52c-1.32,0-1.64,0.47-1.64,1.99v0.57   H230.9z"></path>
	<path class="st0" d="M243.95,66.56h-1.72c-3.78,0-5.08-1.42-5.08-5.25v-2.64c0-3.83,1.29-5.25,5.08-5.25h1.72   c3.78,0,5.08,1.42,5.08,5.25v2.02h-7.79v1.57c0,1.19,0.45,1.57,1.62,1.57h0.52c1.07,0,1.49-0.3,1.59-1.34h4.01   C248.78,65.42,247.26,66.56,243.95,66.56z M245.04,58.54V58.1c0-1.64-0.3-2.12-1.64-2.12h-0.52c-1.32,0-1.64,0.47-1.64,1.99v0.57   H245.04z"></path>
	<path class="st0" d="M251.94,53.59h3.93l-0.05,1.82c0.65-1.42,1.57-1.99,3.11-1.99c2.77,0,3.44,1.32,3.44,4.65v1.15h-3.81V58.4   c0-1.27-0.35-1.64-1.27-1.64c-1.22,0-1.29,0.72-1.29,2.46v7.17h-4.06V53.59z"></path>
	<path class="st0" d="M275.56,66.39h-3.96l0.05-1.82c-0.72,1.4-1.79,1.99-3.51,1.99c-2.96,0-4.26-1.69-4.26-5.25v-2.64   c0-3.56,1.3-5.25,4.26-5.25c1.64,0,2.79,0.62,3.34,1.77v-6.9h4.08V66.39z M269.54,56.63c-1.35,0-1.49,0.75-1.49,2.39v1.97   c0,1.64,0.15,2.39,1.49,2.39h0.47c1.35,0,1.47-0.75,1.47-2.39v-1.97c0-1.64-0.12-2.39-1.47-2.39H269.54z"></path>
</g>
</svg>
