<?xml version="1.0" encoding="UTF-8"?> <svg xmlns="http://www.w3.org/2000/svg" width="129" height="80" viewBox="0 0 129 80" fill="none"><g id="Logo_Brandsbouw_DEF_Vector.eps 1" clip-path="url(#clip0_148_12)"><path id="Vector" d="M27.692 76.2932V58.0581H3.72194V38.0572L0 41.7608V61.7589H23.9697V80H69.1206L72.8371 76.2932H27.692Z" fill="#00633A"></path><path id="Vector_2" d="M27.692 76.2932H72.6739L68.9579 80H23.9697V61.7589H0V41.7608L3.72194 38.0572V58.0581H27.692V76.2932Z" fill="#00633A"></path><path id="Vector_3" d="M72.7353 58.0578H128.276L124.557 61.7734H72.7353V58.0578Z" fill="#00633A"></path><path id="Vector_4" d="M50.2802 32.3599L59.4204 34.7965V38.0745L62.9968 38.066V31.9929L50.2312 28.6358L37.7446 32.0417V35.7456L50.2802 32.3599Z" fill="#00633A"></path><path id="Vector_5" d="M27.6949 0.01511L23.958 3.70206L23.9694 38.0575H27.6949V0.01511Z" fill="#00633A"></path><path id="Vector_6" d="M37.7446 58.0666V61.8228H59.2689V66.7384H62.9937V58.0666H37.7446Z" fill="#00633A"></path><path id="Vector_7" d="M62.8886 58.0587V66.6339H37.8553V58.0587H27.5863V76.3896H72.8409V58.0587H62.8886Z" fill="#00904A"></path><path id="Vector_8" d="M50.2306 18.3016C50.2306 18.3016 38.1166 21.624 37.8556 21.6954V0H27.5895V38.0711H37.8556V32.116C38.0084 32.0744 50.1771 28.7593 50.2315 28.7445C50.2862 28.7589 62.7377 32.0757 62.8918 32.1163V38.0711H72.8438V24.3363L50.2309 18.3013L50.2306 18.3016Z" fill="#00904A"></path><path id="Vector_9" d="M128.267 37.9467H3.61659V58.1626H128.267V37.9467Z" fill="#FFD600"></path><path id="Vector_10" d="M110.558 49.131L116.871 50.0196C117.613 50.1352 117.869 50.5287 117.869 50.9108C117.869 51.5445 117.398 51.99 115.679 51.99C114.813 51.99 114.205 51.8974 113.792 51.7123C113.399 51.5042 113.225 51.2118 113.207 50.7663H106.54C106.56 54.6667 111.204 55.2312 115.458 55.2312C121.675 55.2312 124.452 53.7 124.452 50.4682C124.452 48.2168 122.731 46.996 119.945 46.6022L113.335 45.6766C112.789 45.5954 112.617 45.3578 112.617 44.9879C112.617 44.4294 113.184 44.0328 114.836 44.0328C115.444 44.0328 116.069 44.1111 116.56 44.3195C117.072 44.5018 117.398 44.8346 117.398 45.3788H123.83C123.635 42.5715 121.064 41.0296 114.835 41.0296C110.282 41.0296 106.734 41.9557 106.734 45.399C106.734 47.2538 107.851 48.7381 110.558 49.1316M87.4376 54.7624H98.3219C102.969 54.7624 105.457 52.7918 105.457 48.1271C105.457 43.4623 102.951 41.4951 98.2023 41.4951H87.4373V54.7627L87.4376 54.7624ZM92.9682 44.8342H96.1463C98.6737 44.8342 99.6946 46.0264 99.6946 48.1271C99.6946 50.2277 98.6737 51.4177 96.1463 51.4177H92.9682V44.8346V44.8342ZM67.4571 41.4948V54.7624H72.7555V47.3284H72.7963L78.679 54.7624H84.7388V41.4948H79.4408V48.8533H79.3825L73.7761 41.4948H67.4568H67.4571ZM47.4656 54.7624H53.3454L53.9326 53.2315H59.6991L60.2809 54.7624H66.1661L60.2081 41.4948H53.4235L47.4656 54.7624ZM58.4837 50.0052H55.1509L56.7997 45.5029H56.8377L58.4834 50.0052H58.4837ZM29.0264 54.7624H34.5633V50.6703H38.4829C39.5038 50.6703 39.8553 51.2662 39.9107 52.25L40.0214 53.9339C40.0622 54.3164 40.1144 54.5622 40.2042 54.7621H46.2445C45.892 54.3507 45.6222 53.7954 45.5611 53.1963L45.3251 50.2973C45.2267 49.1458 44.5608 48.4796 43.7402 48.2571V48.2165C45.3457 47.771 45.892 46.4337 45.892 45.1896C45.892 43.7375 45.0287 42.4581 43.9933 41.9749C43.2318 41.6248 42.2631 41.4945 40.6781 41.4945H29.0264V54.7621V54.7624ZM34.5601 44.8342H38.402C39.3295 44.8342 40.0129 45.0804 40.0129 46.0815C40.0129 46.9179 39.5592 47.3284 38.4833 47.3284H34.5601V44.8342ZM9.42175 54.7624H21.4079C25.505 54.7624 26.8749 53.0549 26.8749 50.4478C26.8749 49.4637 26.2902 47.8664 24.487 47.4241V47.3835C25.543 46.996 26.1476 45.9685 26.1476 44.8018C26.1476 42.6813 24.8771 41.4945 22.0099 41.4945H9.42143V54.7621L9.42175 54.7624ZM14.8302 49.441H19.5613C20.6607 49.441 20.9976 49.9126 20.9976 50.4852C20.9976 51.0578 20.6603 51.5301 19.5613 51.5301H14.8302V49.441ZM14.8302 44.7244H19.0143C20.1314 44.7244 20.3873 45.0804 20.3873 45.5576C20.3873 46.0815 20.1314 46.4375 19.0143 46.4375H14.8302V44.7244Z" fill="#00904A"></path><path id="Vector_11" d="M83.5145 69.242H87.7597C91.2725 69.242 91.4693 71.4972 91.4693 71.9159C91.4693 72.5383 91.2406 73.4078 90.4937 74.0226C91.0995 74.4844 91.7211 75.385 91.7211 76.6024C91.7211 77.1385 91.5639 77.9761 90.6468 78.7672C89.9467 79.3742 88.8021 79.4683 88.1526 79.4683H83.5145V69.2426V69.242ZM85.6309 73.3256H88.027C88.9321 73.3256 89.4513 72.9686 89.4513 72.1593C89.4513 71.2703 88.873 70.992 88.1374 70.992H85.6312V73.3256H85.6309ZM85.6309 77.7136H88.1137C88.7467 77.7136 89.7031 77.6868 89.7031 76.2775C89.7031 75.13 88.9002 75.0753 88.5076 75.0753H85.6312V77.7133L85.6309 77.7136Z" fill="#00633A"></path><path id="Vector_12" d="M101.478 78.5122C100.612 79.3927 99.3618 79.7925 98.0552 79.7925C96.7487 79.7925 95.4861 79.3927 94.6249 78.5122C93.6686 77.514 93.1017 75.9753 93.1017 74.4293C93.1017 72.8833 93.6686 71.3439 94.6249 70.3463C95.4864 69.4655 96.7376 69.0698 98.0552 69.0698C99.3728 69.0698 100.612 69.4655 101.478 70.3463C102.438 71.3442 103 72.8833 103 74.4293C103 75.9753 102.438 77.514 101.478 78.5122ZM99.9439 77.2678C100.612 76.6452 100.959 75.5374 100.97 74.4293C100.958 73.3253 100.612 72.2178 99.9439 71.5951C99.4048 71.1094 98.7281 70.906 98.0552 70.906C97.3823 70.906 96.6977 71.1094 96.1628 71.5951C95.4861 72.2178 95.1479 73.3256 95.1318 74.4293C95.1479 75.5374 95.4861 76.6448 96.1628 77.2678C96.6974 77.757 97.3747 77.9522 98.0552 77.9522C98.7357 77.9522 99.4048 77.757 99.9439 77.2678Z" fill="#00633A"></path><path id="Vector_13" d="M112.73 69.242V76.3005C112.73 77.1932 112.501 78.5437 110.794 79.3739C110.161 79.6518 109.413 79.7929 108.697 79.7929C107.981 79.7929 107.27 79.6635 106.703 79.4522C105.003 78.5126 104.578 77.311 104.578 76.3008V69.2423H106.691V76.3203C106.726 76.9663 106.919 77.9648 108.638 77.9648C110.357 77.9648 110.613 76.9666 110.613 76.3203V69.2423H112.73V69.242Z" fill="#00633A"></path><path id="Vector_14" d="M116.109 69.242L117.691 76.9109L119.229 69.242H121.472L123.01 76.9977L124.584 69.242H126.826L123.946 79.4683H122.046L120.343 71.6697L118.647 79.4683H116.746L113.875 69.242H116.109Z" fill="#00633A"></path></g><defs><clipPath id="clip0_148_12"><rect width="128.276" height="80" fill="white"></rect></clipPath></defs></svg> 