<?xml version="1.0" encoding="utf-8"?>
<!-- Generator: Adobe Illustrator 21.0.2, SVG Export Plug-In . SVG Version: 6.00 Build 0)  -->
<svg version="1.1" id="Layer_1" xmlns="http://www.w3.org/2000/svg" xmlns:xlink="http://www.w3.org/1999/xlink" x="0px" y="0px"
	 viewBox="0 0 463.5 195.2" style="enable-background:new 0 0 463.5 195.2;" xml:space="preserve">
<style type="text/css">
	.st0{fill:#6C3E01;}
	.st1{fill:#A37408;}
	.st2{fill:#AC7D13;}
	.st3{fill:#E0AB17;}
	.st4{fill:#F4931F;}
	.st5{fill:#CB5025;}
	.st6{fill:#F8C819;}
	.st7{fill:#CB4E22;}
	.st8{fill:#EA7F25;}
	.st9{fill:#813013;}
</style>
<g>
	<polygon class="st0" points="0,0 22.6,39 45.1,0 0,0 	"/>
	<polygon class="st1" points="45.1,0 22.6,39 67.7,39 45.1,0 	"/>
	<polygon class="st2" points="45.2,78.1 67.7,39 22.6,39 45.2,78.1 	"/>
	<polygon class="st3" points="67.7,39 45.1,78.1 90.3,78.1 67.7,39 	"/>
	<polygon class="st4" points="67.7,117.1 90.3,78.1 45.1,78.1 67.7,117.1 	"/>
	<polygon class="st5" points="90.3,78.1 67.7,117.1 112.8,117.1 90.3,78.1 	"/>
	<polygon class="st6" points="90.3,156.2 112.8,117.1 67.7,117.1 90.3,156.2 	"/>
	<polygon class="st7" points="112.8,117.1 90.3,156.2 135.4,156.2 112.8,117.1 	"/>
	<polygon class="st4" points="180.6,0 203.1,39 225.7,0 180.6,0 	"/>
	<polygon class="st0" points="180.6,0 158,39 203.1,39 180.6,0 	"/>
	<polygon class="st8" points="180.5,78.1 158,39 203.1,39 180.5,78.1 	"/>
	<polygon class="st6" points="158,39 180.6,78.1 135.4,78.1 158,39 	"/>
	<polygon class="st3" points="158,117.1 135.4,78.1 180.6,78.1 158,117.1 	"/>
	<polygon class="st9" points="135.4,78.1 158,117.1 112.8,117.1 135.4,78.1 	"/>
	<polygon class="st4" points="135.4,156.2 112.8,117.1 158,117.1 135.4,156.2 	"/>
	<polygon class="st2" points="90.3,156.2 112.9,195.2 135.4,156.2 90.3,156.2 	"/>
	<polygon class="st5" points="135.4,0 112.8,39 158,39 135.4,0 	"/>
	<polygon class="st6" points="135.4,0 158,39 180.6,0 135.4,0 	"/>
	<path class="st7" d="M288.4,63.4H270L256.5,95l-13.8-31.5h-19.3l31.8,68.3c0.3,0.6,0.9,0.6,1.2,0L288.4,63.4L288.4,63.4z
		 M295.7,131.1h18.1V63.4h-18.1V131.1L295.7,131.1z M387.5,132.3c1.1,0.9,1.4,0.6,1.4-0.2V63.4h-17v33.9l-42.5-35
		c-1.1-0.9-1.4-0.4-1.4,0.2v68.5h17V97.4L387.5,132.3L387.5,132.3z M403.1,131.1h26.2c19.5,0,34.2-12.8,34.2-33.8
		c0-21-14.7-33.8-34.2-33.8h-26.2V131.1L403.1,131.1z M421.2,115.8v-37h6.1c10.9,0,17.7,7.3,17.7,18.5c0,11.2-6.8,18.5-17.7,18.5
		H421.2L421.2,115.8z"/>
</g>
</svg>
