<svg xmlns="http://www.w3.org/2000/svg" width="247.415" height="39.977" viewBox="0 0 247.415 39.977">
  <g id="ZB_LOGO" data-name="ZB LOGO" transform="translate(-196.363 -249.358)">
    <path id="Path_1" data-name="Path 1" d="M227.982,289.207c-2.441,0-3.982,2.406-6.321,2.406-3.309,0-4.5-4.811-9.872-4.811-4.244,0-8.03,3.831-12.037,6.97a19.643,19.643,0,0,0,35.876-1.05h0C232.925,291.267,230.87,289.207,227.982,289.207Z" transform="translate(-1.431 -15.807)" fill="#0a0200"/>
    <path id="Path_2" data-name="Path 2" d="M220.253,273.1l6.208-4.867,8.623,6.29a19.652,19.652,0,1,0-37.833,1.091l13.1-11.421Z" transform="translate(0 -0.315)" fill="#ffc900"/>
    <g id="Zonnen" transform="translate(197.371 254.85)">
      <path id="Path_3" data-name="Path 3" d="M216.1,272.378a9.758,9.758,0,0,1,9.258-7.071,14.956,14.956,0,0,0-26.5,13.213l12.224-10.655Z" transform="translate(-198.107 -258.862)" fill="#ffa900"/>
      <path id="Path_4" data-name="Path 4" d="M238.635,270c-.042,0-.082.006-.124.006a9.758,9.758,0,0,0-9.258,7.071l4.884,4.394,6.208-4.867,7.727,5.636A9.729,9.729,0,0,0,238.635,270Z" transform="translate(-211.256 -263.566)" fill="#f99300"/>
    </g>
    <g id="Group_1" data-name="Group 1" transform="translate(247.943 249.358)">
      <path id="Path_5" data-name="Path 5" d="M285.626,268.689l10.127-14.575v-.126h-9.212v-3.976h15.427v2.777l-9.906,14.385v.127h10.064v3.974h-16.5Z" transform="translate(-285.626 -249.635)" fill="#161615"/>
      <path id="Path_6" data-name="Path 6" d="M336.969,260.147c0,7-4.2,11.2-10.443,11.2-6.278,0-10-4.764-10-10.853,0-6.372,4.1-11.136,10.348-11.136C333.4,249.358,336.969,254.248,336.969,260.147Zm-15.364.253c0,4.2,1.957,7.13,5.174,7.13,3.25,0,5.111-3.092,5.111-7.225,0-3.849-1.8-7.13-5.111-7.13C323.5,253.175,321.605,256.267,321.605,260.4Z" transform="translate(-298.671 -249.358)" fill="#161615"/>
      <path id="Path_7" data-name="Path 7" d="M357.362,271.276V250.013h5.615l4.417,7.792a67.144,67.144,0,0,1,3.47,7.288h.063a87.784,87.784,0,0,1-.378-8.9v-6.183h4.417v21.263h-5.048l-4.543-8.2a72.184,72.184,0,0,1-3.691-7.508h-.127c.158,2.84.221,5.837.221,9.307v6.4Z" transform="translate(-315.91 -249.635)" fill="#161615"/>
      <path id="Path_8" data-name="Path 8" d="M395.031,271.276V250.013h5.615l4.418,7.792a67.14,67.14,0,0,1,3.469,7.288h.064a87.793,87.793,0,0,1-.378-8.9v-6.183h4.416v21.263h-5.047l-4.543-8.2a72.072,72.072,0,0,1-3.691-7.508h-.126c.158,2.84.221,5.837.221,9.307v6.4Z" transform="translate(-331.813 -249.635)" fill="#161615"/>
      <path id="Path_9" data-name="Path 9" d="M445.373,262.285h-7.824v5.047h8.739v3.943H432.754V250.013h13.092v3.944h-8.3v4.416h7.824Z" transform="translate(-347.738 -249.635)" fill="#161615"/>
      <path id="Path_10" data-name="Path 10" d="M461.852,271.276V250.013h5.615l4.417,7.792a67.257,67.257,0,0,1,3.471,7.288h.063a87.624,87.624,0,0,1-.378-8.9v-6.183h4.416v21.263h-5.048l-4.542-8.2a72.09,72.09,0,0,1-3.691-7.508h-.127c.158,2.84.221,5.837.221,9.307v6.4Z" transform="translate(-360.022 -249.635)" fill="#161615"/>
      <path id="Path_11" data-name="Path 11" d="M499.519,250.182a41.953,41.953,0,0,1,6.215-.442c2.934,0,4.732.284,6.31,1.2a4.614,4.614,0,0,1,2.523,4.2c0,1.861-1.1,3.6-3.5,4.511v.064a5.285,5.285,0,0,1,4.227,5.205,5.681,5.681,0,0,1-2.208,4.543c-1.546,1.23-4.133,1.924-8.361,1.924a37.2,37.2,0,0,1-5.205-.316Zm4.764,8.139h1.577c2.555,0,3.88-1.041,3.88-2.618,0-1.609-1.23-2.46-3.407-2.46a12.517,12.517,0,0,0-2.05.126Zm0,9.433a15.182,15.182,0,0,0,1.861.063c2.177,0,4.1-.852,4.1-3.092,0-2.113-1.924-2.965-4.322-2.965h-1.64Z" transform="translate(-375.923 -249.519)" fill="#161615"/>
      <path id="Path_12" data-name="Path 12" d="M545.167,262.285h-7.824v5.047h8.739v3.943H532.548V250.013H545.64v3.944h-8.3v4.416h7.824Z" transform="translate(-389.867 -249.635)" fill="#161615"/>
      <path id="Path_13" data-name="Path 13" d="M561.645,250.182a41.9,41.9,0,0,1,6.4-.442c3.154,0,5.364.474,6.877,1.672a5.392,5.392,0,0,1,1.987,4.48,5.633,5.633,0,0,1-3.754,5.205v.095c1.483.6,2.3,1.987,2.839,3.943.663,2.429,1.294,5.206,1.7,6.025h-4.921a28.414,28.414,0,0,1-1.452-4.953c-.6-2.681-1.514-3.375-3.5-3.407h-1.419v8.36h-4.764Zm4.764,9.148H568.3c2.4,0,3.817-1.2,3.817-3.06,0-1.925-1.325-2.934-3.533-2.934a9.586,9.586,0,0,0-2.176.158Z" transform="translate(-402.151 -249.519)" fill="#161615"/>
      <path id="Path_14" data-name="Path 14" d="M610.846,270.137a23.806,23.806,0,0,1-7.1,1.2c-3.88,0-6.688-.978-8.644-2.839a10.66,10.66,0,0,1-3-7.761c.032-7.066,5.173-11.1,12.146-11.1a15.37,15.37,0,0,1,5.9,1.009l-1.01,3.881a11.145,11.145,0,0,0-4.921-.915c-4.006,0-7.066,2.24-7.066,6.877,0,4.417,2.775,6.972,6.72,6.972a7.351,7.351,0,0,0,2.334-.284v-4.479h-3.281v-3.754h7.918Z" transform="translate(-415.01 -249.473)" fill="#161615"/>
      <path id="Path_15" data-name="Path 15" d="M297.309,303.256c-.095-1.78-.209-3.937-.209-5.509h-.038c-.454,1.476-.966,3.086-1.609,4.846l-2.252,6.19h-1.249l-2.083-6.078c-.606-1.817-1.1-3.444-1.458-4.959h-.038c-.038,1.59-.133,3.71-.246,5.641l-.341,5.472h-1.571l.89-12.76h2.1l2.177,6.172c.53,1.571.947,2.972,1.287,4.3h.038c.34-1.287.8-2.688,1.363-4.3l2.272-6.172h2.1l.8,12.76h-1.628Z" transform="translate(-285.875 -269.091)" fill="#161615"/>
      <path id="Path_16" data-name="Path 16" d="M328.911,304.846l-1.325,4.014h-1.7l4.354-12.76h1.969l4.354,12.76H334.8l-1.363-4.014Zm4.2-1.287-1.268-3.673c-.284-.833-.473-1.59-.663-2.328h-.038c-.189.738-.378,1.534-.644,2.309l-1.249,3.692Z" transform="translate(-302.621 -269.091)" fill="#161615"/>
      <path id="Path_17" data-name="Path 17" d="M362.34,296.1h1.647v6.153h.057c.34-.492.681-.947,1-1.363l3.9-4.79h2.044l-4.619,5.415,4.979,7.345H369.4l-4.184-6.266-1.23,1.4v4.865H362.34Z" transform="translate(-318.012 -269.091)" fill="#161615"/>
      <path id="Path_18" data-name="Path 18" d="M401.407,302.877h-4.941v4.6h5.528v1.383H394.8V296.1h6.909v1.382h-5.243v4.033h4.941Z" transform="translate(-331.715 -269.091)" fill="#161615"/>
      <path id="Path_19" data-name="Path 19" d="M425.656,296.1h1.666v11.377h5.452v1.383h-7.118Z" transform="translate(-344.741 -269.091)" fill="#161615"/>
      <path id="Path_20" data-name="Path 20" d="M457.247,304.846l-1.325,4.014h-1.7l4.353-12.76h1.969l4.354,12.76h-1.761l-1.363-4.014Zm4.2-1.287-1.268-3.673c-.284-.833-.473-1.59-.662-2.328h-.038c-.19.738-.378,1.534-.644,2.309l-1.249,3.692Z" transform="translate(-356.799 -269.091)" fill="#161615"/>
      <path id="Path_21" data-name="Path 21" d="M492.033,304.846l-1.325,4.014h-1.7l4.353-12.76h1.969l4.354,12.76h-1.76l-1.363-4.014Zm4.2-1.287-1.268-3.673c-.284-.833-.473-1.59-.662-2.328h-.038c-.19.738-.378,1.534-.644,2.309l-1.249,3.692Z" transform="translate(-371.485 -269.091)" fill="#161615"/>
      <path id="Path_22" data-name="Path 22" d="M525.463,296.2a19.177,19.177,0,0,1,3.161-.264,5.283,5.283,0,0,1,3.691,1.04,3.26,3.26,0,0,1,1,2.443,3.349,3.349,0,0,1-2.385,3.236v.057a3.2,3.2,0,0,1,1.855,2.575,20.267,20.267,0,0,0,.985,3.5h-1.7a16.07,16.07,0,0,1-.833-3.049c-.378-1.761-1.079-2.423-2.574-2.48h-1.553v5.528h-1.646Zm1.646,5.812h1.685c1.761,0,2.878-.966,2.878-2.423,0-1.647-1.193-2.367-2.934-2.367a7.145,7.145,0,0,0-1.628.133Z" transform="translate(-386.876 -269.022)" fill="#161615"/>
      <path id="Path_23" data-name="Path 23" d="M557.825,296.221a21.133,21.133,0,0,1,3.5-.283,7.4,7.4,0,0,1,5.168,1.59,5.819,5.819,0,0,1,1.818,4.581,6.824,6.824,0,0,1-1.837,4.959,7.938,7.938,0,0,1-5.66,1.836,26.314,26.314,0,0,1-2.991-.151Zm1.647,11.282a13.731,13.731,0,0,0,1.666.076c3.54,0,5.433-1.968,5.433-5.414.019-3.01-1.684-4.922-5.168-4.922a9.35,9.35,0,0,0-1.931.17Z" transform="translate(-400.538 -269.022)" fill="#161615"/>
      <path id="Path_24" data-name="Path 24" d="M596.011,296.1v12.76h-1.665V296.1Z" transform="translate(-415.956 -269.091)" fill="#161615"/>
      <path id="Path_25" data-name="Path 25" d="M618.544,296.1h1.666v8.538c0,3.389-1.666,4.43-3.862,4.43a5.158,5.158,0,0,1-1.761-.3l.227-1.345a3.964,3.964,0,0,0,1.4.246c1.477,0,2.329-.662,2.329-3.161Z" transform="translate(-424.501 -269.091)" fill="#161615"/>
    </g>
  </g>
</svg>
