<?xml version="1.0" encoding="utf-8"?>
<!-- Generator: Adobe Illustrator 24.2.3, SVG Export Plug-In . SVG Version: 6.00 Build 0)  -->
<svg version="1.1" id="Layer_1" xmlns="http://www.w3.org/2000/svg" xmlns:xlink="http://www.w3.org/1999/xlink" x="0px" y="0px"
	 viewBox="0 0 100 100" style="enable-background:new 0 0 100 100;" xml:space="preserve">
<style type="text/css">
	.st0{fill-rule:evenodd;clip-rule:evenodd;fill:#324249;}
</style>
<path class="st0" d="M52.1,98C32.5,98,15.2,86.2,8,68c-0.7-1.7,0.2-3.5,1.8-4.2c1.7-0.6,3.5,0.2,4.2,1.8
	c6.2,15.8,21.2,25.9,38.1,25.9C74.7,91.5,93,73.2,93,50.6S74.7,9.7,52.1,9.7C35.2,9.7,20.2,19.9,14,35.6c-0.7,1.7-2.5,2.5-4.2,1.8
	c-1.7-0.7-2.5-2.5-1.8-4.2c7.2-18.3,24.5-30,44.1-30c26.1,0,47.4,21.3,47.4,47.4S78.2,98,52.1,98z M46.6,35.7
	c-1.3-1.3-1.3-3.3,0-4.6c1.3-1.3,3.3-1.3,4.6,0l17.2,17.2c0.2,0.2,0.4,0.5,0.6,0.8c0,0.1,0.1,0.1,0.1,0.2c0.3,0.8,0.3,1.7,0,2.5
	c-0.2,0.4-0.4,0.8-0.7,1.1L51.2,70.1c-0.6,0.6-1.5,1-2.3,1c-0.8,0-1.7-0.3-2.3-0.9c-1.3-1.3-1.3-3.3,0-4.6l11.7-11.7H3.6
	c-1.8,0-3.2-1.5-3.2-3.2c0-1.8,1.4-3.2,3.2-3.2h54.7L46.6,35.7z"/>
</svg>
