<svg width="161" height="81" viewBox="0 0 161 81" fill="none" xmlns="http://www.w3.org/2000/svg">
  <g clip-path="url(#clip0_98_1230)">
    <path d="M12.5088 80.9634L148.344 81.2194V68.7494H160.853V0H12.4354V12.4334H0V68.4569H12.5088L12.4354 80.9269H12.5088V80.9634Z" fill="#FED301"/>
    <path d="M36.8291 63.7761C34.0779 63.7761 31.6936 63.2275 29.7127 62.167C27.7318 61.1066 26.1545 59.6072 24.9806 57.6691H22.7063V63.1178H12.6553V53.2808H17.5707V17.2605H27.6218V34.5941H27.8419C28.7956 33.0582 30.0795 31.888 31.7302 31.0104C33.381 30.1693 35.3618 29.7305 37.7095 29.7305C40.0572 29.7305 43.5787 30.4253 45.7797 31.8515C47.9806 33.2777 49.7047 35.2524 50.8419 37.8488C52.0157 40.4086 52.6026 43.4072 52.6026 46.7716C52.6026 50.1359 52.0157 53.098 50.8052 55.6578C49.5947 58.2176 47.8339 60.2289 45.5229 61.6551C43.2119 63.0813 40.314 63.8126 36.8658 63.8126L36.8291 63.7761ZM34.9216 55.0361C37.4894 55.0361 39.4336 54.3047 40.6808 52.8054C41.928 51.3061 42.5516 49.2948 42.5516 46.735C42.5516 44.1752 41.928 42.1639 40.6808 40.6646C39.4336 39.1652 37.5261 38.4339 34.9216 38.4339C32.3172 38.4339 30.8865 39.0555 29.566 40.3354C28.2454 41.5788 27.5851 43.3341 27.5851 45.5648V47.9783C27.5851 50.209 28.2454 51.9278 29.566 53.2077C30.8865 54.451 32.6473 55.1093 34.9216 55.1093V55.0361Z" fill="#00000B"/>
    <path d="M57.1514 63.191V30.2424H67.129V63.191H57.1514Z" fill="#00000B"/>
    <path d="M75.0525 63.191V40.116H72.8516V30.2424H80.1881L82.4991 35.7278C83.8197 33.8262 85.4337 32.3269 87.3412 31.2664C89.2487 30.1693 91.7064 29.6573 94.6777 29.6573C99.3364 29.6573 102.931 30.9373 105.426 33.4605C107.92 35.9838 109.167 39.3847 109.167 43.6267V63.2276H99.1163V45.6014C99.1163 43.3341 98.5294 41.6154 97.3555 40.4452C96.1817 39.275 94.4209 38.6899 92.1466 38.6899C89.8723 38.6899 88.1115 39.275 86.9377 40.4452C85.7638 41.6154 85.1769 43.3341 85.1769 45.6014V63.2276H75.1259L75.0525 63.191Z" fill="#00000B"/>
    <path d="M129.013 63.776C125.565 63.776 122.557 63.0812 119.952 61.655C117.348 60.2654 115.294 58.2541 113.826 55.7309C112.359 53.1711 111.589 50.1724 111.589 46.6984C111.589 43.2243 112.323 40.2257 113.79 37.6659C115.257 35.1061 117.311 33.1313 119.916 31.7417C122.557 30.3521 125.565 29.6207 129.013 29.6207C132.461 29.6207 137.12 30.7544 140.018 33.0216C142.879 35.2889 144.64 38.3607 145.3 42.2004H135.212C134.772 40.9936 134.039 40.0428 132.975 39.3846C131.948 38.7264 130.59 38.3607 129.013 38.3607C127.436 38.3607 125.088 39.0921 123.731 40.5182C122.374 41.9444 121.677 44.0289 121.677 46.6618C121.677 49.2948 122.374 51.3792 123.767 52.8054C125.161 54.2316 126.922 54.9629 129.013 54.9629C132.498 54.9629 134.589 53.5368 135.359 50.6478H145.447C144.86 54.707 143.136 57.8884 140.275 60.2289C137.413 62.5693 133.672 63.7395 128.976 63.7395L129.013 63.776Z" fill="#00000B"/>
  </g>
  <defs>
    <clipPath id="clip0_98_1230">
      <rect width="161" height="81" fill="white"/>
    </clipPath>
  </defs>
</svg>
