<?xml version="1.0" encoding="utf-8"?>
<!-- Generator: Adobe Illustrator 16.0.0, SVG Export Plug-In . SVG Version: 6.00 Build 0)  -->
<!DOCTYPE svg PUBLIC "-//W3C//DTD SVG 1.1//EN" "http://www.w3.org/Graphics/SVG/1.1/DTD/svg11.dtd">
<svg version="1.1"
	 id="svg2" xmlns:dc="http://purl.org/dc/elements/1.1/" xmlns:cc="http://creativecommons.org/ns#" xmlns:rdf="http://www.w3.org/1999/02/22-rdf-syntax-ns#" xmlns:svg="http://www.w3.org/2000/svg"
	 xmlns="http://www.w3.org/2000/svg" xmlns:xlink="http://www.w3.org/1999/xlink" x="0px" y="0px" width="980.415px"
	 height="400.768px" viewBox="54.683 198.175 980.415 400.768" enable-background="new 54.683 198.175 980.415 400.768"
	 xml:space="preserve">
<path id="path12" fill="#EF2E31" d="M891.56,322.131H208.69V198.175H891.56V322.131z"/>
<path id="path14" fill="#EF2E31" d="M891.56,598.942H210.512V474.985H891.56V598.942z"/>
<g id="g16">
	<g>
		<defs>
			<rect id="SVGID_1_" width="1122.52" height="793.701"/>
		</defs>
		<clipPath id="SVGID_2_">
			<use xlink:href="#SVGID_1_"  overflow="visible"/>
		</clipPath>
		<g id="g18" clip-path="url(#SVGID_2_)">
		</g>
	</g>
</g>
<g id="g24" transform="translate(250.3945,204.46)">
	<path id="path26" fill="#FFFFFF" d="M93.465,316.628l8.975,20.734l9.008-20.734l5.012,26.106h-2.817l-3.177-16.705h-0.065
		l-7.96,17.722l-7.927-17.722h-0.065l-3.177,16.705h-2.816L93.465,316.628z"/>
</g>
<g id="g28" transform="translate(279.4624,199.4727)">
	<path id="path30" fill="#FFFFFF" d="M103.154,328.265l-4.226,9.893h8.352L103.154,328.265z M97.815,340.713l-2.981,7.01h-3.013
		l11.398-25.876l11.104,25.876h-3.046l-2.915-7.01H97.815z"/>
</g>
<g id="g32" transform="translate(302.5098,203.4033)">
	<path id="path34" fill="#FFFFFF" d="M110.836,319.094h3.702l-11.595,11.497l11.988,13.2h-3.8l-10.122-11.333l-0.688,0.688v10.646
		h-2.75v-24.697h2.75v10.581L110.836,319.094z"/>
</g>
<g id="g36" transform="translate(310.2764,203.4033)">
	<path id="path38" fill="#FFFFFF" d="M113.425,319.094h12.807v2.555h-10.056v7.337h9.761v2.557h-9.761v9.694h10.056v2.555h-12.807
		V319.094z"/>
</g>
<g id="g40" transform="translate(328.1396,186.7959)">
	<path id="path42" fill="#FFFFFF" d="M119.38,357.845h6.813v2.555h-9.564v-24.698h2.751V357.845z"/>
</g>
<g id="g44" transform="translate(344.749,199.4727)">
	<path id="path46" fill="#FFFFFF" d="M124.916,328.265l-4.226,9.893h8.353L124.916,328.265z M119.577,340.713l-2.98,7.01h-3.014
		l11.398-25.876l11.104,25.876h-3.046l-2.916-7.01H119.577z"/>
</g>
<g id="g48" transform="translate(364.6274,199.4727)">
	<path id="path50" fill="#FFFFFF" d="M131.543,328.265l-4.226,9.893h8.353L131.543,328.265z M126.204,340.713l-2.981,7.01h-3.013
		l11.398-25.876l11.104,25.876h-3.046l-2.915-7.01H126.204z"/>
</g>
<g>
	<defs>
		<rect id="SVGID_3_" width="1122.52" height="793.701"/>
	</defs>
	<clipPath id="SVGID_4_">
		<use xlink:href="#SVGID_3_"  overflow="visible"/>
	</clipPath>
	<g id="g54" clip-path="url(#SVGID_4_)">
		<g id="g60" transform="translate(379.7891,194.8291)">
			<path id="path62" fill="#FFFFFF" d="M136.597,339.101h0.852c3.112,0,6.256-0.59,6.256-4.422c0-4.063-2.981-4.456-6.289-4.456
				h-0.818V339.101z M136.597,352.365h-2.751v-24.697h3.569c4.684,0,9.041,1.244,9.041,6.813c0,3.8-2.392,6.485-6.191,6.813
				l7.861,11.07h-3.374l-7.468-10.843h-0.688V352.365z"/>
		</g>
		<g id="g64" transform="translate(402.1479,199.792)">
			<path id="path66" fill="#FFFFFF" d="M144.049,327.521c-0.982-1.703-2.163-2.688-4.259-2.688c-2.194,0-4.095,1.573-4.095,3.834
				c0,2.129,2.194,3.11,3.865,3.865l1.638,0.72c3.21,1.408,5.929,3.015,5.929,6.945c0,4.323-3.472,7.631-7.763,7.631
				c-3.964,0-6.911-2.555-7.698-6.387l2.687-0.753c0.361,2.522,2.294,4.585,4.945,4.585c2.655,0,5.079-2.03,5.079-4.814
				c0-2.883-2.262-3.865-4.554-4.914l-1.507-0.655c-2.883-1.31-5.372-2.784-5.372-6.321c0-3.832,3.243-6.29,6.911-6.29
				c2.752,0,5.077,1.41,6.388,3.832L144.049,327.521z"/>
		</g>
		<g id="g68" transform="translate(421.8779,204.4102)">
			<path id="path70" fill="#FFFFFF" d="M150.626,316.744l-15.361,31.185l-2.129-0.984l15.329-31.183L150.626,316.744z"/>
		</g>
		<g id="g72" transform="translate(431.8066,184.8799)">
			<path id="path74" fill="#FFFFFF" d="M153.936,362.315h-2.751v-22.144h-5.961v-2.555h14.74v2.555h-6.028V362.315z"/>
		</g>
		<g id="g76" transform="translate(445.959,199.4727)">
			<path id="path78" fill="#FFFFFF" d="M158.653,328.265l-4.226,9.893h8.354L158.653,328.265z M153.314,340.713l-2.981,7.01h-3.014
				l11.399-25.876l11.104,25.876h-3.045l-2.916-7.01H153.314z"/>
		</g>
		<g id="g80" transform="translate(457.9766,203.4033)">
			<path id="path82" fill="#FFFFFF" d="M162.659,319.094h3.144l5.046,9.304l5.044-9.304h3.144l-6.683,11.923l7.306,12.774h-3.145
				l-5.666-10.153l-5.667,10.153h-3.146l7.306-12.774L162.659,319.094z"/>
		</g>
		<g id="g84" transform="translate(482.374,199.4727)">
			<path id="path86" fill="#FFFFFF" d="M170.791,328.265l-4.226,9.893h8.354L170.791,328.265z M165.452,340.713l-2.98,7.01h-3.014
				l11.398-25.876l11.104,25.876h-3.046l-2.916-7.01H165.452z"/>
		</g>
		<g id="g88" transform="translate(498.4199,184.8799)">
			<path id="path90" fill="#FFFFFF" d="M176.14,362.315h-2.75v-22.144h-5.962v-2.555h14.74v2.555h-6.028V362.315z"/>
		</g>
		<g id="g92" transform="translate(507.7578,203.4033)">
			<path id="path94" fill="#FFFFFF" d="M179.253,319.094h12.807v2.555h-10.057v7.337h9.763v2.557h-9.763v9.694h10.057v2.555h-12.807
				V319.094z"/>
		</g>
		<g id="g96" transform="translate(525.5723,192.373)">
			<path id="path98" fill="#FFFFFF" d="M185.19,344.831c0,1.835-0.066,3.931,1.082,5.504c1.08,1.507,3.176,2.357,4.979,2.357
				c1.768,0,3.7-0.818,4.848-2.194c1.31-1.572,1.212-3.733,1.212-5.667v-14.707h2.751v15.46c0,2.687-0.196,4.816-2.163,6.847
				c-1.702,1.834-4.16,2.817-6.647,2.817c-2.325,0-4.718-0.885-6.388-2.522c-2.162-2.063-2.423-4.324-2.423-7.142v-15.46h2.75
				V344.831z"/>
		</g>
		<g id="g100" transform="translate(544.1484,194.8291)">
			<path id="path102" fill="#FFFFFF" d="M191.383,339.101h0.852c3.112,0,6.256-0.59,6.256-4.422c0-4.063-2.979-4.456-6.289-4.456
				h-0.818V339.101z M191.383,352.365h-2.751v-24.697h3.569c4.685,0,9.041,1.244,9.041,6.813c0,3.8-2.391,6.485-6.19,6.813
				l7.86,11.07h-3.373l-7.469-10.843h-0.688V352.365z"/>
		</g>
		<g id="g104" transform="translate(566.5068,199.792)">
			<path id="path106" fill="#FFFFFF" d="M198.836,327.521c-0.981-1.703-2.162-2.688-4.258-2.688c-2.194,0-4.096,1.573-4.096,3.834
				c0,2.129,2.195,3.11,3.866,3.865l1.638,0.72c3.211,1.408,5.929,3.015,5.929,6.945c0,4.323-3.473,7.631-7.764,7.631
				c-3.963,0-6.91-2.555-7.697-6.387l2.687-0.753c0.36,2.522,2.292,4.585,4.945,4.585s5.077-2.03,5.077-4.814
				c0-2.883-2.26-3.865-4.553-4.914l-1.507-0.655c-2.883-1.31-5.372-2.784-5.372-6.321c0-3.832,3.243-6.29,6.911-6.29
				c2.752,0,5.078,1.41,6.388,3.832L198.836,327.521z"/>
		</g>
	</g>
</g>
<g id="g108" transform="translate(543.875,336.9956)">
	<path id="path110" fill="none" stroke="#918F90" stroke-width="1.507" d="M191.292,7.378v109.183"/>
</g>
<g>
	<g id="g114">
		<g id="g120" transform="translate(53.6509,273.3906)">
			<path id="path122" fill="#0E2B58" d="M27.884,155.79h13.204c3.56,0,13.945,0,13.945-10.533c0-9.495-9.495-9.495-13.945-9.495
				H27.884V155.79z M27.884,112.32h9.94c3.857,0,11.868,0,11.868-8.752c0-8.308-7.565-8.308-11.868-8.308h-9.94V112.32z
				 M1.032,70.633h33.824c18.545,0,27.149,1.781,35.162,10.683c4.895,5.044,6.528,11.72,6.528,18.099
				c0,8.457-3.857,17.062-12.759,22.105c17.653,6.231,18.099,20.918,18.099,25.519c0,8.752-3.412,18.395-10.088,23.885
				c-10.088,8.455-17.357,9.495-35.902,9.495H1.032V70.633z"/>
		</g>
		<g id="g124" transform="translate(131.8657,270.2754)">
			<path id="path126" fill="#0E2B58" d="M53.955,163.059c10.682,0,19.732-8.752,19.732-20.771c0-12.016-9.05-20.77-19.732-20.77
				c-10.681,0-19.73,8.754-19.73,20.77C34.225,154.307,43.274,163.059,53.955,163.059 M53.955,98.524
				c29.968,0,44.359,23.589,44.359,43.764c0,20.178-14.391,43.766-44.359,43.766c-29.968,0-44.358-23.588-44.358-43.766
				C9.597,122.113,23.987,98.524,53.955,98.524"/>
		</g>
		<g id="g128" transform="translate(215.5322,292.6406)">
			<path id="path130" fill="#0E2B58" d="M81.844,110.873c-1.039-4.895-5.935-14.093-18.693-14.093
				c-12.759,0-17.653,9.198-18.692,14.093H81.844z M103.652,135.352c-4.005,9.199-9.791,16.321-16.764,21.068
				c-6.824,4.896-14.984,7.417-23.44,7.417c-23.589,0-43.618-19.139-43.618-43.617c0-22.994,18.1-44.209,43.172-44.209
				c25.072,0,43.468,19.88,43.468,44.95c0,3.267-0.296,4.601-0.593,6.529H44.161c1.484,9.792,9.644,15.578,19.287,15.578
				c7.565,0,11.572-3.414,14.984-7.717H103.652z"/>
		</g>
		<g id="g132" transform="translate(239.3389,337.2583)">
			<path id="path134" fill="#0E2B58" d="M89.78,6.765h24.626v57.267h0.297L137.55,34.21h29.227L135.77,70.41l30.116,46.14h-27.891
				l-23.292-39.612h-0.297v39.612H89.78V6.765z"/>
		</g>
		<g id="g136" transform="translate(316.6641,316.6738)">
			<path id="path138" fill="#0E2B58" d="M115.555,54.796l12.313,51.183h0.297l13.5-51.183h20.77l13.649,51.183h0.296l12.313-51.183
				h25.369l-25.22,82.339h-22.847l-13.797-53.261h-0.298l-13.796,53.261h-22.848l-25.22-82.339H115.555z"/>
		</g>
		<g id="g140" transform="translate(435.7129,292.6406)">
			<path id="path142" fill="#0E2B58" d="M155.237,110.873c-1.038-4.895-5.935-14.093-18.693-14.093s-17.654,9.198-18.691,14.093
				H155.237z M177.046,135.352c-4.006,9.199-9.791,16.321-16.765,21.068c-6.823,4.896-14.983,7.417-23.439,7.417
				c-23.59,0-43.617-19.139-43.617-43.617c0-22.994,18.1-44.209,43.172-44.209s43.469,19.88,43.469,44.95
				c0,3.267-0.297,4.601-0.595,6.529h-61.716c1.484,9.792,9.645,15.578,19.287,15.578c7.566,0,11.572-3.414,14.982-7.717H177.046z"
				/>
		</g>
		<path id="path144" fill="#0E2B58" d="M649.396,453.808h-24.628V371.47h24.628V453.808z M649.396,362.718h-24.628v-18.693h24.628
			V362.718z"/>
		<g id="g146" transform="translate(513.9268,316.6738)">
			<path id="path148" fill="#0E2B58" d="M181.309,54.796h11.868v18.693h-11.868v63.646h-24.628V73.489h-12.165V54.796h12.165V27.351
				h24.628V54.796z"/>
		</g>
		<g id="g150" transform="translate(604.1572,271.832)">
			<path id="path152" fill="#0E2B58" d="M211.386,159.427c19.88,0,29.523-18.102,29.523-32.194c0-14.243-9.644-32.49-29.82-32.49
				c-19.434,0-29.967,16.616-29.967,32.045C181.122,143.7,192.544,159.427,211.386,159.427 M210.94,70.114
				c33.825,0,58.008,26.408,58.008,56.969c0,30.563-24.034,56.969-58.154,56.969c-34.568,0-57.712-27.445-57.712-55.633
				c0-7.27,1.038-15.43,4.303-23.44C163.171,90.736,180.231,70.114,210.94,70.114"/>
		</g>
		<path id="path154" fill="#0E2B58" d="M879.773,344.024h24.628v109.783h-24.628V344.024z"/>
		<path id="path156" fill="#0E2B58" d="M939.559,453.808h-24.628V371.47h24.628V453.808z M939.559,362.718h-24.628v-18.693h24.628
			V362.718z"/>
		<g id="g158" transform="translate(750.3525,292.6406)">
			<path id="path160" fill="#0E2B58" d="M260.117,110.873c-1.038-4.895-5.934-14.093-18.693-14.093
				c-12.759,0-17.654,9.198-18.691,14.093H260.117z M281.926,135.352c-4.005,9.199-9.791,16.321-16.765,21.068
				c-6.824,4.896-14.983,7.417-23.439,7.417c-23.588,0-43.617-19.139-43.617-43.617c0-22.994,18.1-44.209,43.172-44.209
				c25.071,0,43.469,19.88,43.469,44.95c0,3.267-0.297,4.601-0.595,6.529h-61.716c1.484,9.792,9.645,15.578,19.287,15.578
				c7.566,0,11.571-3.414,14.982-7.717H281.926z"/>
		</g>
	</g>
</g>
</svg>
