<svg xmlns="http://www.w3.org/2000/svg" id="Layer_1" viewBox="0 0 614.477 176.995"><defs><style>      .st0 {        fill: #00aeef;      }      .st1 {        fill: #fff;      }      .st2 {        fill: none;        stroke: #fff;        stroke-miterlimit: 10;        stroke-width: 3px;      }    </style></defs><g><circle class="st0" cx="88.497" cy="88.497" r="88.497"></circle><circle class="st2" cx="88.497" cy="88.497" r="83.073"></circle><g><path class="st1" d="M139.127,108.512h.966c.177,0,.32-.205.32-.458s-.143-.458-.32-.458h-.966c-.177,0-.32.205-.32.458s.143.458.32.458Z"></path><path class="st1" d="M136.602,111.873c-.219.126-.325.353-.237.506l.483.837c.088.153.338.175.556.048.219-.126.325-.353.237-.506l-.483-.837c-.088-.153-.337-.174-.556-.048Z"></path><path class="st1" d="M139.61,103.339c-4.266,0-7.724,3.458-7.724,7.724s3.458,7.724,7.724,7.724,7.724-3.458,7.724-7.724-3.458-7.724-7.724-7.724ZM139.61,115.607c-2.509,0-4.543-2.034-4.543-4.543s2.034-4.543,4.543-4.543,4.543,2.034,4.543,4.543-2.034,4.543-4.543,4.543Z"></path><circle class="st1" cx="139.61" cy="111.063" r="1.611"></circle><path class="st1" d="M142.061,111.921l-.483.837c-.088.153.018.38.237.506.219.127.468.105.556-.048l.483-.837c.088-.153-.018-.379-.237-.506-.219-.127-.469-.105-.557.048Z"></path><path class="st1" d="M141.815,108.863c-.219.127-.325.353-.237.506l.483.837c.088.153.338.174.557.048.219-.127.325-.353.237-.506l-.483-.837c-.088-.153-.338-.174-.556-.048Z"></path><path class="st1" d="M140.093,113.615h-.966c-.177,0-.32.205-.32.458s.143.458.32.458h.966c.177,0,.32-.205.32-.458s-.143-.458-.32-.458Z"></path><path class="st1" d="M136.848,108.911l-.483.837c-.088.153.018.379.237.506.219.126.468.105.556-.048l.483-.837c.088-.153-.018-.379-.237-.506-.219-.126-.468-.105-.556.048Z"></path><path class="st1" d="M55.031,103.339c-4.266,0-7.724,3.458-7.724,7.724s3.458,7.724,7.724,7.724,7.724-3.458,7.724-7.724-3.458-7.724-7.724-7.724ZM55.031,115.607c-2.509,0-4.543-2.034-4.543-4.543s2.034-4.543,4.543-4.543,4.543,2.034,4.543,4.543-2.034,4.543-4.543,4.543Z"></path><path class="st1" d="M52.023,111.873c-.219.126-.325.353-.237.506l.483.837c.088.153.338.175.556.048.219-.126.325-.353.237-.506l-.483-.837c-.088-.153-.338-.174-.556-.048Z"></path><path class="st1" d="M54.548,108.512h.966c.177,0,.32-.205.32-.458s-.143-.458-.32-.458h-.966c-.177,0-.32.205-.32.458s.143.458.32.458Z"></path><circle class="st1" cx="55.031" cy="111.063" r="1.611"></circle><path class="st1" d="M52.269,108.911l-.483.837c-.088.153.018.379.237.506.219.126.468.105.556-.048l.483-.837c.088-.153-.018-.379-.237-.506-.219-.126-.468-.105-.556.048Z"></path><path class="st1" d="M55.514,113.615h-.966c-.177,0-.32.205-.32.458s.143.458.32.458h.966c.177,0,.32-.205.32-.458s-.143-.458-.32-.458Z"></path><path class="st1" d="M57.483,111.921l-.483.837c-.088.153.018.38.237.506.219.127.468.105.556-.048l.483-.837c.088-.153-.018-.379-.237-.506-.219-.127-.469-.105-.557.048Z"></path><path class="st1" d="M57.237,108.863c-.219.127-.325.353-.237.506l.483.837c.088.153.338.174.557.048.219-.127.325-.353.237-.506l-.483-.837c-.088-.153-.337-.174-.556-.048Z"></path><path class="st1" d="M153.596,105.675h-6.973v.003c1.151,1.494,1.843,3.359,1.843,5.386,0,.34.055,1.004.237,1.004h3.409c.283,0,2.199-5.085,2.199-5.085.283-.697.11-1.309-.713-1.309Z"></path><path class="st1" d="M139.61,102.208c2.698,0,5.113,1.216,6.739,3.125l7.247-.003c.158,0,.291.021.408.052-.037-1.713-.163-4.742-.585-5.762-.7-1.686-12.979-7.544-12.979-7.544,0,0-6.41-8.843-8.723-10.421-1.077-.734-6.608-2.405-15.049-2.405v32.818h13.892c.213,0,.194-.665.194-1.004,0-4.883,3.973-8.856,8.856-8.856ZM150.194,99.977h3.005c.208.783.326,2.102.394,3.362-.003,0-2.124-.56-2.313-.749s-1.886-2.613-1.086-2.613ZM121.757,90.535c-1.217-.165-2.191-1.09-2.419-2.296l-1.404-7.416c-.02-.105.009-.214.079-.296s.172-.128.279-.125c7.527.193,12.119,1.732,12.788,2.188,1.617,1.102,5.748,6.507,7.775,9.241.144.194.157.455.035.663-.123.208-.359.322-.598.289l-16.534-2.247Z"></path><path class="st1" d="M22.861,100.487h-1.22c-.145,0-.284.06-.383.166-.099.106-.15.248-.141.393l.675,10.531c.018.276.247.491.524.491h3.604v-11.235h-3.059v-.345Z"></path><path class="st1" d="M59.243,58.98c-.235-.474-.719-.773-1.248-.773h-12.479c-.529,0-1.012.299-1.248.773l-.503,1.011h15.981l-.503-1.011Z"></path><path class="st1" d="M111.919,59.002c-.23-.464-.704-.757-1.222-.757h-12.217c-.518,0-.991.293-1.222.757l-.492.99h15.645l-.492-.99Z"></path><rect class="st1" x="65.898" y="100.833" width="23.321" height="11.235"></rect><polygon class="st1" points="107.582 111.07 91.812 111.07 91.812 100.833 90.136 100.833 90.136 112.068 115.517 112.068 115.517 100.833 107.582 100.833 107.582 111.07"></polygon><path class="st1" d="M22.861,62.062v37.853h3.059v-38.773h-2.14c-.508,0-.92.412-.92.92Z"></path><path class="st1" d="M26.837,112.068h19.072c.225,0,.267-.665.267-1.004,0-4.883,3.972-8.856,8.856-8.856s8.856,3.973,8.856,8.856c0,.34.014,1.004.333,1.004h.761v-11.235H26.837v11.235Z"></path><rect class="st1" x="92.729" y="100.833" width="13.936" height="9.32"></rect><path class="st1" d="M109.363,99.916v-34.37h-58.847v34.37h41.296v-24.653c0-1.307,1.063-2.371,2.37-2.371h11.03c1.307,0,2.37,1.064,2.37,2.371v24.653h1.782ZM78.958,89.47c0,1.074-.871,1.945-1.945,1.945h-21.009c-1.074,0-1.945-.871-1.945-1.945v-10.822c0-1.074.871-1.945,1.945-1.945h21.009c1.074,0,1.945.871,1.945,1.945v10.822Z"></path><path class="st1" d="M106.665,75.263c0-.802-.652-1.454-1.453-1.454h-11.03c-.801,0-1.453.652-1.453,1.454v24.653h13.936v-24.653ZM104.507,89.47c0,1.074-.871,1.945-1.945,1.945h-5.729c-1.074,0-1.945-.871-1.945-1.945v-10.822c0-1.074.871-1.945,1.945-1.945h5.729c1.074,0,1.945.871,1.945,1.945v10.822Z"></path><path class="st1" d="M140.65,75.996v-5.234c0-3.301-9.855-9.619-25.793-9.619H26.837v38.773h22.464v-35.566h61.277v35.566h4.938v-22.034h18.626c3.678,0,6.507-.613,6.507-1.886ZM132.483,72.919c0,1.074-.871,1.945-1.945,1.945h-10.66c-1.074,0-1.945-.871-1.945-1.945v-5.165c0-1.074.871-1.945,1.945-1.945h10.66c1.074,0,1.945.871,1.945,1.945v5.165Z"></path></g></g><g><path class="st0" d="M486.452,56.51v1.869c0,6.917,1.215,10.375,3.646,10.375h.374c2.057-.311,4.471-1.916,7.244-4.813,2.772-2.898,5.25-5.997,7.431-9.301,4.361-6.73,7.976-13.865,10.843-21.406-3.678-1.122-6.575-3.146-8.693-6.076-2.119-2.928-3.178-6.153-3.178-9.674s1.215-6.511,3.646-8.974c2.43-2.461,5.919-3.692,10.469-3.692.622.874,1.884,1.948,3.786,3.225,1.9,1.278,3.443,2.727,4.627,4.346,1.183,1.622,1.776,3.678,1.776,6.169s-.25,5.08-.748,7.758c.561-.187,1.152-.404,1.776-.654.312-.124.623-.264.935-.42.311-.155.638-.312.981-.468.342-.155.685-.327,1.028-.514.342-.187.685-.389,1.028-.608.342-.217.701-.435,1.075-.654.374-.218.748-.451,1.122-.701.374-.248.888-.607,1.542-1.075s1.449-.701,2.383-.701,1.713.327,2.337.981c.622.654.935,1.559.935,2.711s-.561,2.103-1.683,2.851c-5.421,3.552-10.562,5.734-15.423,6.543-1.559,4.736-3.739,9.721-6.543,14.956-4.426,7.915-8.85,14.521-13.273,19.816-2.617,2.991-5.328,5.296-8.132,6.917-2.804,1.62-5.391,2.43-7.758,2.43s-4.3-.607-5.795-1.823c-1.496-1.215-2.68-2.883-3.552-5.001-1.745-4.113-2.743-8.941-2.991-14.488-3.615,6.356-7.51,11.467-11.685,15.33-4.176,3.863-8.413,5.857-12.712,5.982h-.374c-8.912,0-13.367-7.01-13.367-21.032,0-7.291,1.713-15.423,5.141-24.396l-10.095,6.263c-.935.561-1.839.841-2.71.841s-1.604-.389-2.197-1.168c-.592-.778-.888-1.884-.888-3.318s.717-2.554,2.15-3.365l20.938-12.619c1.309-1.183,2.804-1.776,4.486-1.776.996,0,1.947.453,2.851,1.355.903.904,1.355,1.729,1.355,2.477s-.125,1.278-.374,1.589c-.811.873-2.15,3.491-4.019,7.852-4.3,9.908-6.45,19.349-6.45,28.323,0,6.669,1.37,10.001,4.113,10.001h.374c2.866-.311,6.324-2.632,10.376-6.963,4.05-4.331,7.852-10.422,11.404-18.274.435-.872,1.028-1.994,1.776-3.365.748-1.37,1.463-2.897,2.15-4.58.748-2.741,1.589-5.109,2.524-7.104.498-.996,1.075-1.963,1.729-2.897.654-.935,1.884-1.402,3.692-1.402h.561c.935,0,1.76.421,2.477,1.262.715.841,1.075,2.01,1.075,3.505s-.654,3.646-1.963,6.45c-2.306,5.11-3.458,11.436-3.458,18.976l-.094,2.15ZM513.279,17.25c0,4.674,1.65,7.758,4.954,9.254,1.183-3.987,1.776-7.478,1.776-10.469s-.811-4.487-2.431-4.487c-1.309,0-2.353.624-3.131,1.87-.78,1.248-1.168,2.524-1.168,3.833Z"></path><g><path class="st0" d="M558.115,51.555c0,6.263-14.582,23.556-29.632,23.556-6.73,0-10.937-3.271-10.937-10.282,0-11.404,9.254-21.032,21.125-21.032,4.3,0,7.571,2.056,7.571,5.889,0,7.945-7.571,11.778-15.61,11.778-.654,0-1.402-.093-2.056-.187-.094.561-.094,1.215-.094,1.683,0,3.739.748,7.104,3.552,7.104,9.815,0,21.219-12.526,24.304-21.125,0,0,1.776.28,1.776,2.617ZM530.633,57.163c2.991,0,5.048-3.084,5.048-6.543,0-1.122-.28-1.776-1.122-1.776-1.87,0-4.02,4.02-5.141,8.226.374.093.841.093,1.215.093Z"></path><path class="st0" d="M586.623,68.848c0,3.178-6.45,5.982-11.217,5.982-3.833,0-5.795-2.244-5.795-6.356,0-4.861,3.271-11.591,3.271-14.769,0-.561,0-1.589-.654-1.589-2.057,0-12.059,14.395-14.021,22.247-4.674,0-8.413-.841-8.413-4.3,0-4.674,3.646-14.863,3.646-19.069,0-1.122-.187-2.524-.748-3.458,4.207-2.337,11.124-2.337,11.124,2.15,0,2.431-1.589,7.572-2.991,10.843,5.142-9.254,11.03-15.423,16.358-15.423,4.207,0,6.356,2.243,6.356,6.45,0,4.3-3.552,11.124-3.552,15.049,0,1.122.28,2.15,1.402,2.15.841,0,2.524-.561,4.019-2.056.748.374,1.215,1.309,1.215,2.15Z"></path><path class="st0" d="M606.719,48.377c-1.589,0-3.085,1.309-3.085,2.991,0,4.02,7.478,8.787,7.478,13.647,0,7.104-7.291,10.562-14.769,10.562-4.487,0-7.945-1.402-7.945-4.393,0-1.122.561-2.804,1.683-3.833,1.122,1.589,4.767,3.646,6.917,3.646,2.524,0,3.552-2.057,3.552-4.3,0-3.552-7.572-8.506-7.572-13.46,0-6.637,7.759-9.441,14.489-9.441,4.113,0,7.011,1.402,7.011,3.926,0,1.215-1.028,2.897-1.963,3.458-1.309-1.589-4.02-2.804-5.795-2.804Z"></path></g><g><path d="M204.077,49.637c0-2.696.506-5.381,1.517-8.057,1.011-2.675,2.485-5.065,4.424-7.173,1.937-2.106,4.297-3.812,7.078-5.118,2.78-1.306,5.94-1.959,9.479-1.959,4.212,0,7.867.906,10.964,2.717,3.096,1.812,5.403,4.17,6.919,7.078l-7.962,5.561c-.505-1.179-1.148-2.158-1.927-2.938-.78-.779-1.633-1.411-2.559-1.896-.927-.484-1.875-.822-2.844-1.011-.97-.189-1.917-.284-2.844-.284-1.981,0-3.708.401-5.182,1.201-1.476.801-2.697,1.833-3.666,3.096-.97,1.264-1.686,2.697-2.148,4.297-.464,1.602-.695,3.223-.695,4.866,0,1.77.274,3.476.822,5.119.547,1.643,1.337,3.097,2.37,4.36,1.032,1.264,2.275,2.265,3.729,3.001,1.453.738,3.085,1.106,4.897,1.106.926,0,1.885-.115,2.875-.348.99-.231,1.938-.589,2.844-1.074.906-.484,1.738-1.116,2.496-1.896.758-.779,1.369-1.738,1.833-2.875l8.468,4.992c-.674,1.643-1.675,3.118-3.002,4.424-1.327,1.306-2.854,2.401-4.582,3.286-1.728.885-3.561,1.56-5.498,2.022-1.938.463-3.834.695-5.688.695-3.245,0-6.225-.664-8.942-1.991s-5.055-3.086-7.014-5.277c-1.959-2.19-3.476-4.676-4.55-7.457-1.075-2.781-1.612-5.603-1.612-8.468Z"></path><path d="M258.739,73.081c-1.643,0-3.171-.264-4.582-.79-1.412-.526-2.623-1.264-3.634-2.211-1.011-.948-1.812-2.064-2.401-3.349-.59-1.285-.885-2.686-.885-4.203,0-1.643.348-3.138,1.043-4.487.695-1.348,1.674-2.506,2.938-3.476,1.264-.968,2.759-1.727,4.486-2.275,1.727-.547,3.644-.821,5.751-.821,1.39,0,2.738.116,4.044.348,1.306.232,2.443.58,3.413,1.042v-1.517c0-3.833-2.212-5.75-6.635-5.75-1.812,0-3.539.306-5.182.916-1.643.611-3.371,1.528-5.182,2.749l-2.97-6.319c2.19-1.432,4.465-2.506,6.825-3.223,2.359-.716,4.866-1.074,7.52-1.074,5.013,0,8.888,1.18,11.627,3.539,2.738,2.36,4.107,5.814,4.107,10.364v8.531c0,1.011.158,1.717.474,2.117.316.401.874.643,1.674.727v8.531c-.884.21-1.685.348-2.401.411-.717.063-1.37.095-1.959.095-1.896,0-3.329-.369-4.297-1.105-.97-.737-1.58-1.779-1.833-3.128l-.189-1.517c-1.476,1.896-3.234,3.349-5.277,4.36-2.044,1.011-4.202,1.517-6.477,1.517ZM261.709,65.814c1.095,0,2.159-.189,3.191-.569,1.032-.379,1.885-.885,2.559-1.517.969-.758,1.454-1.558,1.454-2.401v-3.16c-.885-.336-1.843-.6-2.875-.79-1.033-.189-1.991-.284-2.875-.284-1.854,0-3.381.422-4.582,1.264-1.201.843-1.801,1.938-1.801,3.286,0,1.223.463,2.223,1.39,3.002.926.78,2.106,1.169,3.539,1.169Z"></path><path d="M338.804,72.449h-10.111v-18.642c0-2.19-.401-3.781-1.201-4.771-.801-.989-1.833-1.485-3.096-1.485-.675,0-1.359.148-2.054.442-.695.295-1.338.706-1.927,1.232-.59.527-1.127,1.148-1.611,1.864-.485.717-.875,1.496-1.169,2.338v19.021h-10.111v-18.642c0-2.19-.401-3.781-1.201-4.771-.801-.989-1.833-1.485-3.097-1.485-1.349,0-2.665.537-3.95,1.611-1.286,1.074-2.223,2.496-2.812,4.266v19.021h-10.111v-33.176h9.1v5.561c1.222-2.022,2.875-3.56,4.961-4.613,2.085-1.053,4.518-1.58,7.299-1.58,1.39,0,2.601.168,3.633.505,1.032.338,1.928.801,2.686,1.39.758.59,1.369,1.275,1.833,2.054.463.78.8,1.612,1.011,2.496,1.264-2.063,2.927-3.654,4.992-4.771,2.063-1.116,4.423-1.674,7.078-1.674,2.106,0,3.801.39,5.087,1.169,1.285.78,2.285,1.791,3.001,3.033.716,1.243,1.19,2.602,1.422,4.076.231,1.475.348,2.907.348,4.297v21.233Z"></path><path d="M366.419,73.081c-2.527,0-4.719-.527-6.572-1.58-1.854-1.053-3.286-2.528-4.297-4.424v18.832h-10.111v-46.636h8.784v5.371c1.222-1.896,2.749-3.37,4.582-4.423,1.833-1.053,4.013-1.58,6.541-1.58,2.232,0,4.286.442,6.162,1.327,1.874.885,3.496,2.096,4.866,3.634,1.369,1.539,2.443,3.349,3.223,5.435.779,2.085,1.169,4.329,1.169,6.73,0,2.486-.359,4.782-1.075,6.888-.717,2.107-1.706,3.929-2.97,5.466-1.264,1.538-2.781,2.749-4.55,3.633-1.769.885-3.687,1.327-5.75,1.327ZM363.007,64.55c1.095,0,2.095-.242,3.001-.727.905-.484,1.695-1.126,2.37-1.927.673-.8,1.19-1.738,1.548-2.812.357-1.074.537-2.201.537-3.381,0-1.222-.2-2.348-.6-3.381-.401-1.032-.948-1.927-1.643-2.686-.695-.758-1.539-1.348-2.528-1.77-.99-.421-2.054-.632-3.191-.632-1.39,0-2.728.411-4.013,1.232-1.286.822-2.265,1.928-2.938,3.318v6.825c.673,1.686,1.695,3.097,3.065,4.234,1.369,1.138,2.833,1.707,4.392,1.707Z"></path><path d="M401.744,73.081c-2.78,0-5.276-.453-7.488-1.358-2.212-.906-4.087-2.138-5.624-3.697-1.539-1.558-2.708-3.359-3.507-5.403-.801-2.043-1.201-4.181-1.201-6.414,0-2.401.4-4.666,1.201-6.793.8-2.127,1.959-3.991,3.476-5.593,1.517-1.601,3.381-2.864,5.593-3.792,2.211-.926,4.729-1.39,7.551-1.39s5.329.464,7.52,1.39c2.19.927,4.044,2.18,5.561,3.76,1.517,1.58,2.664,3.403,3.444,5.466.779,2.064,1.169,4.234,1.169,6.509,0,.591-.022,1.169-.063,1.738-.042.569-.105,1.064-.189,1.485h-24.519c.168,2.233.979,3.929,2.433,5.087,1.454,1.159,3.106,1.738,4.96,1.738,1.475,0,2.896-.357,4.266-1.074,1.369-.716,2.285-1.685,2.749-2.907l8.594,2.401c-1.306,2.613-3.329,4.74-6.066,6.383-2.739,1.643-6.025,2.464-9.858,2.464ZM408.759,52.733c-.211-2.106-.97-3.77-2.275-4.992-1.307-1.221-2.929-1.833-4.866-1.833-1.981,0-3.613.622-4.897,1.864-1.286,1.243-2.033,2.897-2.244,4.96h14.282Z"></path><path d="M445.094,47.93c-2.444.042-4.656.442-6.635,1.201-1.981.758-3.413,1.896-4.297,3.413v19.906h-10.111v-33.176h9.29v6.698c1.137-2.232,2.601-3.981,4.392-5.245,1.791-1.264,3.697-1.917,5.719-1.959h1.011c.21,0,.42.022.632.063v9.1Z"></path></g><g><path d="M203.121,110.843c0-.913.164-1.822.492-2.728s.81-1.719,1.444-2.439c.635-.72,1.409-1.301,2.322-1.744.913-.442,1.947-.663,3.102-.663,1.383,0,2.567.307,3.552.92s1.726,1.412,2.225,2.396l-1.883,1.262c-.214-.457-.471-.841-.77-1.155-.3-.314-.628-.563-.984-.749-.357-.185-.728-.317-1.113-.396-.385-.078-.756-.118-1.112-.118-.799,0-1.498.161-2.097.481-.599.321-1.102.746-1.509,1.273-.406.528-.713,1.12-.92,1.776-.207.656-.31,1.312-.31,1.969,0,.742.121,1.448.364,2.118.242.67.581,1.262,1.016,1.776.435.513.952.923,1.551,1.23.599.307,1.255.46,1.968.46.371,0,.752-.046,1.145-.139.392-.092.77-.242,1.134-.449.364-.207.699-.467,1.005-.781.307-.313.56-.692.76-1.134l1.99,1.134c-.243.571-.585,1.073-1.027,1.508-.442.436-.941.802-1.498,1.102-.557.299-1.145.528-1.765.685-.621.157-1.23.235-1.83.235-1.07,0-2.047-.228-2.931-.685-.885-.457-1.647-1.052-2.29-1.787-.642-.734-1.141-1.569-1.498-2.503-.356-.934-.535-1.886-.535-2.856Z"></path><path d="M221.393,118.76c-.542,0-1.045-.089-1.508-.268-.464-.178-.863-.424-1.198-.738-.335-.313-.599-.685-.792-1.113-.192-.428-.289-.891-.289-1.391,0-.527.114-1.005.342-1.434.228-.428.553-.799.974-1.112.42-.314.92-.557,1.498-.728.578-.171,1.216-.257,1.915-.257.527,0,1.048.046,1.562.139.513.093.977.217,1.391.375v-.771c0-.827-.235-1.473-.706-1.936s-1.148-.696-2.033-.696c-.599,0-1.188.111-1.765.332s-1.173.539-1.787.952l-.728-1.498c1.44-.97,2.938-1.455,4.493-1.455,1.541,0,2.739.392,3.595,1.177.855.785,1.284,1.912,1.284,3.38v4.044c0,.499.207.756.62.77v2.011c-.228.043-.424.071-.588.085s-.324.021-.481.021c-.457,0-.81-.114-1.059-.342-.25-.228-.403-.521-.46-.877l-.064-.706c-.5.656-1.116,1.159-1.851,1.509-.735.349-1.523.524-2.364.524ZM222.034,117.027c.57,0,1.109-.104,1.616-.31.506-.207.902-.496,1.188-.867.299-.257.449-.528.449-.813v-1.477c-.399-.157-.824-.278-1.273-.364-.45-.085-.888-.128-1.316-.128-.842,0-1.53.182-2.065.546-.535.364-.802.845-.802,1.444,0,.556.207,1.023.621,1.401.414.378.941.567,1.583.567Z"></path><path d="M247.603,118.546h-2.354v-6.269c0-1.041-.171-1.804-.514-2.289s-.842-.728-1.498-.728c-.671,0-1.28.246-1.83.738-.549.492-.945,1.13-1.188,1.915v6.633h-2.354v-6.269c0-1.055-.171-1.822-.513-2.3s-.834-.717-1.477-.717c-.67,0-1.284.243-1.84.728s-.956,1.12-1.198,1.904v6.654h-2.354v-11.19h2.14v2.247c.442-.784,1.023-1.387,1.744-1.808.72-.42,1.544-.631,2.471-.631s1.658.243,2.193.727c.535.485.867,1.091.995,1.819.471-.827,1.062-1.458,1.776-1.894.713-.435,1.526-.652,2.439-.652.656,0,1.202.125,1.637.374.435.25.781.582,1.038.995.256.414.435.896.535,1.444.1.549.15,1.13.15,1.744v6.825Z"></path><path d="M256.674,118.76c-.898,0-1.69-.214-2.375-.642-.685-.428-1.227-.984-1.626-1.669v6.654h-2.354v-15.747h2.075v2.011c.428-.67.981-1.205,1.658-1.604s1.444-.599,2.3-.599c.77,0,1.476.157,2.118.471.642.314,1.198.735,1.669,1.262.471.528.837,1.141,1.102,1.84.264.699.396,1.434.396,2.204,0,.813-.122,1.572-.364,2.278-.243.706-.585,1.32-1.027,1.84-.442.521-.967.934-1.573,1.241-.606.307-1.273.46-2,.46ZM255.904,116.748c.499,0,.952-.107,1.358-.321.407-.214.756-.499,1.048-.856.292-.356.517-.763.674-1.219.157-.457.235-.927.235-1.412,0-.514-.089-.999-.267-1.455-.179-.457-.421-.856-.728-1.198-.307-.342-.674-.613-1.102-.813-.428-.2-.892-.299-1.391-.299-.299,0-.613.057-.941.171-.328.114-.635.271-.92.471-.286.2-.535.432-.749.695-.214.264-.364.553-.449.867v2.931c.143.342.328.663.556.963.228.299.481.556.76.77s.581.385.909.514.664.192,1.006.192Z"></path><path d="M268.826,118.76c-.87,0-1.662-.153-2.375-.46s-1.323-.724-1.829-1.251c-.507-.528-.899-1.141-1.177-1.84-.278-.699-.417-1.44-.417-2.225s.139-1.53.417-2.236c.278-.706.67-1.327,1.177-1.861.506-.535,1.116-.956,1.829-1.262s1.512-.46,2.396-.46c.87,0,1.658.157,2.364.471s1.308.731,1.808,1.251c.5.521.881,1.127,1.145,1.819.264.692.396,1.416.396,2.171,0,.171-.007.332-.021.481s-.028.275-.042.375h-8.965c.043.5.161.949.353,1.348.192.4.442.746.749,1.038.306.292.656.517,1.048.674.392.157.802.235,1.23.235.313,0,.624-.039.931-.118.307-.078.588-.192.845-.342s.485-.332.685-.546c.2-.214.356-.449.471-.706l2.011.578c-.385.841-1.023,1.53-1.915,2.064-.892.535-1.93.802-3.113.802ZM272.228,112.106c-.043-.471-.161-.906-.353-1.305s-.438-.738-.738-1.017c-.299-.278-.649-.495-1.048-.652-.399-.157-.82-.235-1.262-.235s-.859.079-1.251.235c-.393.157-.738.375-1.038.652-.299.278-.542.617-.727,1.017-.186.399-.3.834-.343,1.305h6.761Z"></path><path d="M282.777,109.389c-.913.029-1.723.239-2.429.631-.706.393-1.209.952-1.508,1.68v6.847h-2.354v-11.19h2.182v2.503c.385-.771.888-1.387,1.509-1.851.62-.463,1.287-.716,2-.759h.353c.092,0,.174.007.246.021v2.118Z"></path><path d="M301.604,118.546h-2.354v-6.269c0-1.041-.171-1.804-.514-2.289s-.842-.728-1.498-.728c-.671,0-1.28.246-1.83.738-.549.492-.945,1.13-1.188,1.915v6.633h-2.354v-6.269c0-1.055-.171-1.822-.513-2.3s-.834-.717-1.477-.717c-.67,0-1.284.243-1.84.728s-.956,1.12-1.198,1.904v6.654h-2.354v-11.19h2.14v2.247c.442-.784,1.023-1.387,1.744-1.808.72-.42,1.544-.631,2.471-.631s1.658.243,2.193.727c.535.485.867,1.091.995,1.819.471-.827,1.062-1.458,1.776-1.894.713-.435,1.526-.652,2.439-.652.656,0,1.202.125,1.637.374.435.25.781.582,1.038.995.256.414.435.896.535,1.444.1.549.15,1.13.15,1.744v6.825Z"></path><path d="M307.295,118.76c-.542,0-1.045-.089-1.508-.268-.464-.178-.863-.424-1.198-.738-.335-.313-.599-.685-.792-1.113-.192-.428-.289-.891-.289-1.391,0-.527.114-1.005.342-1.434.228-.428.553-.799.974-1.112.42-.314.92-.557,1.498-.728.578-.171,1.216-.257,1.915-.257.527,0,1.048.046,1.562.139.513.093.977.217,1.391.375v-.771c0-.827-.235-1.473-.706-1.936s-1.148-.696-2.033-.696c-.599,0-1.188.111-1.765.332s-1.173.539-1.787.952l-.728-1.498c1.44-.97,2.938-1.455,4.493-1.455,1.541,0,2.739.392,3.595,1.177.855.785,1.284,1.912,1.284,3.38v4.044c0,.499.207.756.62.77v2.011c-.228.043-.424.071-.588.085s-.324.021-.481.021c-.457,0-.81-.114-1.059-.342-.25-.228-.403-.521-.46-.877l-.064-.706c-.5.656-1.116,1.159-1.851,1.509-.735.349-1.523.524-2.364.524ZM307.937,117.027c.57,0,1.109-.104,1.616-.31.506-.207.902-.496,1.188-.867.299-.257.449-.528.449-.813v-1.477c-.399-.157-.824-.278-1.273-.364-.45-.085-.888-.128-1.316-.128-.842,0-1.53.182-2.065.546-.535.364-.802.845-.802,1.444,0,.556.207,1.023.621,1.401.414.378.941.567,1.583.567Z"></path><path d="M324.176,118.546l-3.573-5.156-1.861,1.754v3.402h-2.354v-15.619h2.354v9.906l5.135-5.456h2.568l-4.343,4.686,4.579,6.483h-2.503Z"></path><path d="M332.606,118.76c-.87,0-1.662-.153-2.375-.46s-1.323-.724-1.829-1.251c-.507-.528-.899-1.141-1.177-1.84-.278-.699-.417-1.44-.417-2.225s.139-1.53.417-2.236c.278-.706.67-1.327,1.177-1.861.506-.535,1.116-.956,1.829-1.262s1.512-.46,2.396-.46c.87,0,1.658.157,2.364.471s1.308.731,1.808,1.251c.5.521.881,1.127,1.145,1.819.264.692.396,1.416.396,2.171,0,.171-.007.332-.021.481s-.028.275-.042.375h-8.965c.043.5.161.949.353,1.348.192.4.442.746.749,1.038.306.292.656.517,1.048.674.392.157.802.235,1.23.235.313,0,.624-.039.931-.118.307-.078.588-.192.845-.342s.485-.332.685-.546c.2-.214.356-.449.471-.706l2.011.578c-.385.841-1.023,1.53-1.915,2.064-.892.535-1.93.802-3.113.802ZM336.008,112.106c-.043-.471-.161-.906-.353-1.305s-.438-.738-.738-1.017c-.299-.278-.649-.495-1.048-.652-.399-.157-.82-.235-1.262-.235s-.859.079-1.251.235c-.393.157-.738.375-1.038.652-.299.278-.542.617-.727,1.017-.186.399-.3.834-.343,1.305h6.761Z"></path><path d="M340.287,102.927h2.354v12.388c0,.414.107.738.321.974s.514.353.899.353c.157,0,.338-.028.545-.085.207-.057.403-.121.588-.192l.342,1.84c-.342.157-.749.282-1.22.375-.471.092-.892.139-1.262.139-.813,0-1.444-.221-1.894-.664-.449-.442-.674-1.07-.674-1.883v-13.244Z"></path><path d="M349.679,118.76c-.542,0-1.045-.089-1.508-.268-.464-.178-.863-.424-1.198-.738-.335-.313-.599-.685-.792-1.113-.192-.428-.289-.891-.289-1.391,0-.527.114-1.005.342-1.434.228-.428.553-.799.974-1.112.42-.314.92-.557,1.498-.728.578-.171,1.216-.257,1.915-.257.527,0,1.048.046,1.562.139.513.093.977.217,1.391.375v-.771c0-.827-.235-1.473-.706-1.936s-1.148-.696-2.033-.696c-.599,0-1.188.111-1.765.332s-1.173.539-1.787.952l-.728-1.498c1.44-.97,2.938-1.455,4.493-1.455,1.541,0,2.739.392,3.595,1.177.855.785,1.284,1.912,1.284,3.38v4.044c0,.499.207.756.62.77v2.011c-.228.043-.424.071-.588.085s-.324.021-.481.021c-.457,0-.81-.114-1.059-.342-.25-.228-.403-.521-.46-.877l-.064-.706c-.5.656-1.116,1.159-1.851,1.509-.735.349-1.523.524-2.364.524ZM350.321,117.027c.57,0,1.109-.104,1.616-.31.506-.207.902-.496,1.188-.867.299-.257.449-.528.449-.813v-1.477c-.399-.157-.824-.278-1.273-.364-.45-.085-.888-.128-1.316-.128-.842,0-1.53.182-2.065.546-.535.364-.802.845-.802,1.444,0,.556.207,1.023.621,1.401.414.378.941.567,1.583.567Z"></path><path d="M361.747,118.76c-.542,0-1.045-.089-1.508-.268-.464-.178-.863-.424-1.198-.738-.335-.313-.599-.685-.792-1.113-.192-.428-.289-.891-.289-1.391,0-.527.114-1.005.342-1.434.228-.428.553-.799.974-1.112.42-.314.92-.557,1.498-.728.578-.171,1.216-.257,1.915-.257.527,0,1.048.046,1.562.139.513.093.977.217,1.391.375v-.771c0-.827-.235-1.473-.706-1.936s-1.148-.696-2.033-.696c-.599,0-1.188.111-1.765.332s-1.173.539-1.787.952l-.728-1.498c1.44-.97,2.938-1.455,4.493-1.455,1.541,0,2.739.392,3.595,1.177.855.785,1.284,1.912,1.284,3.38v4.044c0,.499.207.756.62.77v2.011c-.228.043-.424.071-.588.085s-.324.021-.481.021c-.457,0-.81-.114-1.059-.342-.25-.228-.403-.521-.46-.877l-.064-.706c-.5.656-1.116,1.159-1.851,1.509-.735.349-1.523.524-2.364.524ZM362.388,117.027c.57,0,1.109-.104,1.616-.31.506-.207.902-.496,1.188-.867.299-.257.449-.528.449-.813v-1.477c-.399-.157-.824-.278-1.273-.364-.45-.085-.888-.128-1.316-.128-.842,0-1.53.182-2.065.546-.535.364-.802.845-.802,1.444,0,.556.207,1.023.621,1.401.414.378.941.567,1.583.567Z"></path><path d="M377.13,109.389c-.913.029-1.723.239-2.429.631-.706.393-1.209.952-1.508,1.68v6.847h-2.354v-11.19h2.182v2.503c.385-.771.888-1.387,1.509-1.851.62-.463,1.287-.716,2-.759h.353c.092,0,.174.007.246.021v2.118Z"></path><path d="M386.18,118.546l-4.279-11.19h2.417l3.209,9.2,3.23-9.2h2.226l-4.279,11.19h-2.525Z"></path><path d="M397.349,118.76c-.542,0-1.045-.089-1.508-.268-.464-.178-.863-.424-1.198-.738-.335-.313-.599-.685-.792-1.113-.192-.428-.289-.891-.289-1.391,0-.527.114-1.005.342-1.434.228-.428.553-.799.974-1.112.42-.314.92-.557,1.498-.728.578-.171,1.216-.257,1.915-.257.527,0,1.048.046,1.562.139.513.093.977.217,1.391.375v-.771c0-.827-.235-1.473-.706-1.936s-1.148-.696-2.033-.696c-.599,0-1.188.111-1.765.332s-1.173.539-1.787.952l-.728-1.498c1.44-.97,2.938-1.455,4.493-1.455,1.541,0,2.739.392,3.595,1.177.855.785,1.284,1.912,1.284,3.38v4.044c0,.499.207.756.62.77v2.011c-.228.043-.424.071-.588.085s-.324.021-.481.021c-.457,0-.81-.114-1.059-.342-.25-.228-.403-.521-.46-.877l-.064-.706c-.5.656-1.116,1.159-1.851,1.509-.735.349-1.523.524-2.364.524ZM397.991,117.027c.57,0,1.109-.104,1.616-.31.506-.207.902-.496,1.188-.867.299-.257.449-.528.449-.813v-1.477c-.399-.157-.824-.278-1.273-.364-.45-.085-.888-.128-1.316-.128-.842,0-1.53.182-2.065.546-.535.364-.802.845-.802,1.444,0,.556.207,1.023.621,1.401.414.378.941.567,1.583.567Z"></path><path d="M416.477,118.546h-2.354v-6.269c0-1.055-.168-1.822-.503-2.3-.335-.478-.831-.717-1.487-.717-.342,0-.685.064-1.027.192-.342.128-.663.311-.962.546-.3.235-.567.513-.803.834-.235.321-.417.674-.545,1.059v6.654h-2.354v-11.19h2.14v2.247c.428-.756,1.048-1.351,1.861-1.787.813-.435,1.712-.652,2.696-.652.67,0,1.22.121,1.647.364.428.243.767.574,1.017.995.249.421.424.906.524,1.455.1.549.15,1.13.15,1.744v6.825Z"></path><path d="M433.786,106.928c-.143-.157-.35-.325-.621-.503s-.588-.346-.952-.503c-.364-.157-.764-.285-1.198-.385-.436-.1-.881-.149-1.337-.149-1.013,0-1.758.186-2.236.556-.478.371-.717.885-.717,1.541,0,.371.075.674.225.909s.381.442.695.621c.314.179.706.335,1.177.471.471.136,1.02.282,1.647.438.771.186,1.466.393,2.086.621.62.229,1.145.506,1.572.834.428.328.76.731.995,1.209s.353,1.059.353,1.744c0,.77-.146,1.434-.438,1.99-.293.556-.692,1.009-1.198,1.358-.507.35-1.095.606-1.765.771-.671.164-1.391.246-2.161.246-1.155,0-2.271-.175-3.349-.524-1.077-.349-2.05-.859-2.92-1.53l1.091-2.054c.185.186.453.392.802.62.35.229.756.439,1.22.631.463.192.966.357,1.508.492.542.136,1.105.203,1.69.203.941,0,1.669-.164,2.182-.492.514-.328.771-.813.771-1.455,0-.385-.097-.706-.289-.963s-.467-.481-.824-.674c-.356-.192-.792-.367-1.305-.524-.513-.157-1.099-.321-1.754-.492-.756-.2-1.416-.41-1.979-.631-.563-.221-1.031-.488-1.401-.802-.371-.313-.653-.681-.845-1.102s-.289-.931-.289-1.53c0-.742.143-1.401.428-1.979.285-.578.674-1.062,1.166-1.455.492-.392,1.073-.688,1.744-.888.67-.199,1.398-.299,2.183-.299,1.027,0,1.975.164,2.845.492s1.633.735,2.29,1.219l-1.091,1.969Z"></path><path d="M440.547,118.76c-.542,0-1.045-.089-1.508-.268-.464-.178-.863-.424-1.198-.738-.335-.313-.599-.685-.792-1.113-.192-.428-.289-.891-.289-1.391,0-.527.114-1.005.342-1.434.228-.428.553-.799.974-1.112.42-.314.92-.557,1.498-.728.578-.171,1.216-.257,1.915-.257.527,0,1.048.046,1.562.139.513.093.977.217,1.391.375v-.771c0-.827-.235-1.473-.706-1.936s-1.148-.696-2.033-.696c-.599,0-1.188.111-1.765.332s-1.173.539-1.787.952l-.728-1.498c1.44-.97,2.938-1.455,4.493-1.455,1.541,0,2.739.392,3.595,1.177.855.785,1.284,1.912,1.284,3.38v4.044c0,.499.207.756.62.77v2.011c-.228.043-.424.071-.588.085s-.324.021-.481.021c-.457,0-.81-.114-1.059-.342-.25-.228-.403-.521-.46-.877l-.064-.706c-.5.656-1.116,1.159-1.851,1.509-.735.349-1.523.524-2.364.524ZM441.188,117.027c.57,0,1.109-.104,1.616-.31.506-.207.902-.496,1.188-.867.299-.257.449-.528.449-.813v-1.477c-.399-.157-.824-.278-1.273-.364-.45-.085-.888-.128-1.316-.128-.842,0-1.53.182-2.065.546-.535.364-.802.845-.802,1.444,0,.556.207,1.023.621,1.401.414.378.941.567,1.583.567Z"></path><path d="M449.661,102.927h2.354v12.388c0,.414.107.738.321.974s.514.353.899.353c.157,0,.338-.028.545-.085.207-.057.403-.121.588-.192l.342,1.84c-.342.157-.749.282-1.22.375-.471.092-.892.139-1.262.139-.813,0-1.444-.221-1.894-.664-.449-.442-.674-1.07-.674-1.883v-13.244Z"></path><path d="M456.101,102.927h2.354v12.388c0,.414.107.738.321.974s.514.353.899.353c.157,0,.338-.028.545-.085.207-.057.403-.121.588-.192l.342,1.84c-.342.157-.749.282-1.22.375-.471.092-.892.139-1.262.139-.813,0-1.444-.221-1.894-.664-.449-.442-.674-1.07-.674-1.883v-13.244Z"></path><path d="M465.494,118.76c-.542,0-1.045-.089-1.508-.268-.464-.178-.863-.424-1.198-.738-.335-.313-.599-.685-.792-1.113-.192-.428-.289-.891-.289-1.391,0-.527.114-1.005.342-1.434.228-.428.553-.799.974-1.112.42-.314.92-.557,1.498-.728.578-.171,1.216-.257,1.915-.257.527,0,1.048.046,1.562.139.513.093.977.217,1.391.375v-.771c0-.827-.235-1.473-.706-1.936s-1.148-.696-2.033-.696c-.599,0-1.188.111-1.765.332s-1.173.539-1.787.952l-.728-1.498c1.44-.97,2.938-1.455,4.493-1.455,1.541,0,2.739.392,3.595,1.177.855.785,1.284,1.912,1.284,3.38v4.044c0,.499.207.756.62.77v2.011c-.228.043-.424.071-.588.085s-.324.021-.481.021c-.457,0-.81-.114-1.059-.342-.25-.228-.403-.521-.46-.877l-.064-.706c-.5.656-1.116,1.159-1.851,1.509-.735.349-1.523.524-2.364.524ZM466.135,117.027c.57,0,1.109-.104,1.616-.31.506-.207.902-.496,1.188-.867.299-.257.449-.528.449-.813v-1.477c-.399-.157-.824-.278-1.273-.364-.45-.085-.888-.128-1.316-.128-.842,0-1.53.182-2.065.546-.535.364-.802.845-.802,1.444,0,.556.207,1.023.621,1.401.414.378.941.567,1.583.567Z"></path><path d="M484.621,118.546h-2.354v-6.269c0-1.055-.168-1.822-.503-2.3-.335-.478-.831-.717-1.487-.717-.342,0-.685.064-1.027.192-.342.128-.663.311-.962.546-.3.235-.567.513-.803.834-.235.321-.417.674-.545,1.059v6.654h-2.354v-11.19h2.14v2.247c.428-.756,1.048-1.351,1.861-1.787.813-.435,1.712-.652,2.696-.652.67,0,1.22.121,1.647.364.428.243.767.574,1.017.995.249.421.424.906.524,1.455.1.549.15,1.13.15,1.744v6.825Z"></path><path d="M491.917,118.76c-.756,0-1.455-.153-2.097-.46-.642-.307-1.198-.724-1.669-1.251s-.838-1.145-1.102-1.851c-.264-.706-.396-1.465-.396-2.278,0-.784.125-1.522.375-2.214.25-.692.599-1.302,1.048-1.83.449-.527.977-.945,1.583-1.251.606-.307,1.273-.46,2.001-.46.898,0,1.69.217,2.375.652.685.436,1.22.988,1.605,1.658v-6.547h2.354v12.837c0,.271.046.463.139.578.092.114.26.178.502.192v2.011c-.243.043-.438.071-.588.085-.149.014-.274.021-.375.021-.471,0-.855-.121-1.155-.364-.299-.242-.463-.556-.492-.941l-.042-.834c-.414.699-.977,1.249-1.69,1.647-.713.399-1.505.599-2.375.599ZM492.494,116.748c.343,0,.685-.057,1.027-.171s.656-.271.941-.471c.285-.2.531-.435.738-.706.207-.271.353-.563.439-.877v-2.931c-.128-.356-.311-.685-.546-.984-.235-.299-.502-.556-.802-.77-.299-.214-.617-.378-.952-.492-.335-.114-.674-.171-1.016-.171-.471,0-.902.107-1.294.321-.393.214-.731.5-1.017.856-.285.356-.51.763-.674,1.219-.164.457-.246.927-.246,1.412,0,.514.089.999.268,1.455.178.457.424.856.738,1.198.313.342.674.613,1.081.813.406.2.845.299,1.315.299Z"></path><path d="M511.344,118.76c-.87,0-1.662-.153-2.375-.46s-1.323-.724-1.829-1.251c-.507-.528-.899-1.141-1.177-1.84-.278-.699-.417-1.44-.417-2.225s.139-1.53.417-2.236c.278-.706.67-1.327,1.177-1.861.506-.535,1.116-.956,1.829-1.262s1.512-.46,2.396-.46c.87,0,1.658.157,2.364.471s1.308.731,1.808,1.251c.5.521.881,1.127,1.145,1.819.264.692.396,1.416.396,2.171,0,.171-.007.332-.021.481s-.028.275-.042.375h-8.965c.043.5.161.949.353,1.348.192.4.442.746.749,1.038.306.292.656.517,1.048.674.392.157.802.235,1.23.235.313,0,.624-.039.931-.118.307-.078.588-.192.845-.342s.485-.332.685-.546c.2-.214.356-.449.471-.706l2.011.578c-.385.841-1.023,1.53-1.915,2.064-.892.535-1.93.802-3.113.802ZM514.746,112.106c-.043-.471-.161-.906-.353-1.305s-.438-.738-.738-1.017c-.299-.278-.649-.495-1.048-.652-.399-.157-.82-.235-1.262-.235s-.859.079-1.251.235c-.393.157-.738.375-1.038.652-.299.278-.542.617-.727,1.017-.186.399-.3.834-.343,1.305h6.761Z"></path><path d="M529.038,118.546h-2.354v-6.269c0-1.055-.168-1.822-.503-2.3-.335-.478-.831-.717-1.487-.717-.342,0-.685.064-1.027.192-.342.128-.663.311-.962.546-.3.235-.567.513-.803.834-.235.321-.417.674-.545,1.059v6.654h-2.354v-11.19h2.14v2.247c.428-.756,1.048-1.351,1.861-1.787.813-.435,1.712-.652,2.696-.652.67,0,1.22.121,1.647.364.428.243.767.574,1.017.995.249.421.424.906.524,1.455.1.549.15,1.13.15,1.744v6.825Z"></path><path d="M547.908,105.473h-5.049v13.073h-2.418v-13.073h-5.071v-2.118h12.538v2.118Z"></path><path d="M561.923,107.356h2.247l-4.708,11.19h-1.947l-2.075-5.199-2.076,5.199h-1.947l-4.729-11.19h2.247l3.616,8.922,1.626-4.151-1.947-4.75h1.926l1.284,3.509,1.262-3.509h1.926l-1.926,4.75,1.626,4.151,3.595-8.922Z"></path><path d="M570.395,118.76c-.87,0-1.662-.153-2.375-.46s-1.323-.724-1.829-1.251c-.507-.528-.899-1.141-1.177-1.84-.278-.699-.417-1.44-.417-2.225s.139-1.53.417-2.236c.278-.706.67-1.327,1.177-1.861.506-.535,1.116-.956,1.829-1.262s1.512-.46,2.396-.46c.87,0,1.658.157,2.364.471s1.308.731,1.808,1.251c.5.521.881,1.127,1.145,1.819.264.692.396,1.416.396,2.171,0,.171-.007.332-.021.481s-.028.275-.042.375h-8.965c.043.5.161.949.353,1.348.192.4.442.746.749,1.038.306.292.656.517,1.048.674.392.157.802.235,1.23.235.313,0,.624-.039.931-.118.307-.078.588-.192.845-.342s.485-.332.685-.546c.2-.214.356-.449.471-.706l2.011.578c-.385.841-1.023,1.53-1.915,2.064-.892.535-1.93.802-3.113.802ZM573.797,112.106c-.043-.471-.161-.906-.353-1.305s-.438-.738-.738-1.017c-.299-.278-.649-.495-1.048-.652-.399-.157-.82-.235-1.262-.235s-.859.079-1.251.235c-.393.157-.738.375-1.038.652-.299.278-.542.617-.727,1.017-.186.399-.3.834-.343,1.305h6.761Z"></path><path d="M588.089,118.546h-2.354v-6.269c0-1.055-.168-1.822-.503-2.3-.335-.478-.831-.717-1.487-.717-.342,0-.685.064-1.027.192-.342.128-.663.311-.962.546-.3.235-.567.513-.803.834-.235.321-.417.674-.545,1.059v6.654h-2.354v-11.19h2.14v2.247c.428-.756,1.048-1.351,1.861-1.787.813-.435,1.712-.652,2.696-.652.67,0,1.22.121,1.647.364.428.243.767.574,1.017.995.249.421.424.906.524,1.455.1.549.15,1.13.15,1.744v6.825Z"></path><path d="M596.947,117.968c-.299.143-.713.303-1.241.481-.528.178-1.091.268-1.69.268-.371,0-.72-.05-1.048-.15s-.617-.25-.867-.449-.446-.46-.588-.781c-.143-.321-.214-.709-.214-1.166v-6.996h-1.476v-1.819h1.476v-3.68h2.354v3.68h2.439v1.819h-2.439v6.248c.028.399.153.688.375.866.221.179.496.268.824.268s.642-.057.941-.171c.299-.114.521-.207.663-.278l.492,1.861Z"></path><path d="M603.366,118.76c-.87,0-1.662-.153-2.375-.46s-1.323-.724-1.829-1.251c-.507-.528-.899-1.141-1.177-1.84-.278-.699-.417-1.44-.417-2.225s.139-1.53.417-2.236c.278-.706.67-1.327,1.177-1.861.506-.535,1.116-.956,1.829-1.262s1.512-.46,2.396-.46c.87,0,1.658.157,2.364.471s1.308.731,1.808,1.251c.5.521.881,1.127,1.145,1.819.264.692.396,1.416.396,2.171,0,.171-.007.332-.021.481s-.028.275-.042.375h-8.965c.043.5.161.949.353,1.348.192.4.442.746.749,1.038.306.292.656.517,1.048.674.392.157.802.235,1.23.235.313,0,.624-.039.931-.118.307-.078.588-.192.845-.342s.485-.332.685-.546c.2-.214.356-.449.471-.706l2.011.578c-.385.841-1.023,1.53-1.915,2.064-.892.535-1.93.802-3.113.802ZM606.768,112.106c-.043-.471-.161-.906-.353-1.305s-.438-.738-.738-1.017c-.299-.278-.649-.495-1.048-.652-.399-.157-.82-.235-1.262-.235s-.859.079-1.251.235c-.393.157-.738.375-1.038.652-.299.278-.542.617-.727,1.017-.186.399-.3.834-.343,1.305h6.761Z"></path></g><g><path d="M251.724,136.91l5.39,13.222,5.369-13.222h1.549l-6.282,15.067h-1.294l-6.282-15.067h1.549Z"></path><path d="M269.253,152.191c-.806,0-1.542-.152-2.207-.457-.665-.304-1.241-.718-1.729-1.241s-.867-1.132-1.135-1.825c-.269-.693-.403-1.422-.403-2.186,0-.778.138-1.514.414-2.207s.658-1.302,1.146-1.825c.488-.523,1.064-.94,1.729-1.252.665-.312,1.393-.467,2.186-.467s1.524.155,2.197.467c.672.312,1.252.729,1.74,1.252.488.523.87,1.132,1.146,1.825s.414,1.429.414,2.207c0,.764-.134,1.492-.403,2.186-.269.693-.647,1.302-1.136,1.825-.488.523-1.068.938-1.74,1.241-.672.305-1.411.457-2.218.457ZM265.242,146.503c0,.622.106,1.198.318,1.729.212.53.499.997.859,1.4s.785.718,1.273.944,1.008.34,1.56.34,1.072-.117,1.56-.351.916-.552,1.284-.955c.368-.403.658-.873.87-1.411.212-.537.318-1.117.318-1.74,0-.608-.106-1.185-.318-1.729-.212-.545-.502-1.019-.87-1.422-.368-.403-.796-.722-1.284-.955s-1.008-.351-1.56-.351-1.068.117-1.549.351c-.481.233-.906.556-1.273.966-.368.41-.658.888-.87,1.433s-.318,1.128-.318,1.751Z"></path><path d="M281.88,152.191c-.806,0-1.542-.152-2.207-.457-.665-.304-1.241-.718-1.729-1.241s-.867-1.132-1.135-1.825c-.269-.693-.403-1.422-.403-2.186,0-.778.138-1.514.414-2.207s.658-1.302,1.146-1.825c.488-.523,1.064-.94,1.729-1.252.665-.312,1.393-.467,2.186-.467s1.524.155,2.197.467c.672.312,1.252.729,1.74,1.252.488.523.87,1.132,1.146,1.825s.414,1.429.414,2.207c0,.764-.134,1.492-.403,2.186-.269.693-.647,1.302-1.136,1.825-.488.523-1.068.938-1.74,1.241-.672.305-1.411.457-2.218.457ZM277.869,146.503c0,.622.106,1.198.318,1.729.212.53.499.997.859,1.4s.785.718,1.273.944,1.008.34,1.56.34,1.072-.117,1.56-.351.916-.552,1.284-.955c.368-.403.658-.873.87-1.411.212-.537.318-1.117.318-1.74,0-.608-.106-1.185-.318-1.729-.212-.545-.502-1.019-.87-1.422-.368-.403-.796-.722-1.284-.955s-1.008-.351-1.56-.351-1.068.117-1.549.351c-.481.233-.906.556-1.273.966-.368.41-.658.888-.87,1.433s-.318,1.128-.318,1.751Z"></path><path d="M295.313,142.195c-.976.028-1.825.297-2.546.807-.722.509-1.231,1.21-1.528,2.101v6.876h-1.443v-11.057h1.358v2.653c.41-.85.962-1.514,1.655-1.995s1.436-.722,2.229-.722c.113,0,.205.007.276.021v1.315Z"></path><path d="M306.582,152.126c-.764,0-1.461-.159-2.09-.478s-1.174-.738-1.634-1.263c-.46-.522-.817-1.124-1.072-1.804-.255-.679-.382-1.379-.382-2.101,0-.765.124-1.496.371-2.196.248-.701.598-1.312,1.051-1.836.453-.523.994-.94,1.623-1.252s1.327-.467,2.091-.467c.947,0,1.768.236,2.461.711.693.474,1.288,1.071,1.783,1.793v-2.313h1.294v11.1c0,.764-.145,1.439-.435,2.026s-.679,1.079-1.167,1.475c-.488.396-1.061.693-1.719.892-.658.198-1.354.297-2.09.297-1.273,0-2.299-.227-3.077-.679-.778-.453-1.408-1.062-1.889-1.825l.891-.7c.438.707,1.019,1.228,1.74,1.56.722.332,1.5.499,2.334.499.538,0,1.047-.074,1.528-.223.48-.148.902-.368,1.263-.658s.647-.658.859-1.104.318-.966.318-1.56v-2.187c-.424.708-1.005,1.267-1.74,1.677-.736.411-1.507.615-2.313.615ZM306.985,150.917c.425,0,.842-.078,1.252-.233.41-.156.781-.364,1.114-.626s.612-.556.838-.881c.226-.325.375-.658.446-.998v-3.416c-.156-.396-.368-.765-.637-1.104-.269-.34-.573-.63-.913-.87-.339-.241-.704-.432-1.093-.573-.39-.142-.782-.213-1.178-.213-.623,0-1.178.132-1.666.394-.488.262-.902.604-1.242,1.028-.339.425-.598.906-.774,1.443-.177.538-.266,1.083-.266,1.635,0,.594.106,1.16.318,1.697.212.538.506,1.008.881,1.411.375.403.81.722,1.305.955.495.233,1.033.351,1.613.351Z"></path><path d="M320.037,152.191c-.807,0-1.546-.152-2.218-.457-.672-.304-1.256-.722-1.751-1.252s-.88-1.143-1.156-1.836c-.276-.692-.414-1.436-.414-2.228,0-.778.138-1.511.414-2.197.276-.686.658-1.287,1.146-1.804.488-.516,1.071-.926,1.75-1.23s1.415-.456,2.207-.456c.807,0,1.546.151,2.218.456s1.249.718,1.729,1.241.856,1.125,1.125,1.804c.269.68.403,1.401.403,2.165v.34c0,.113-.007.19-.021.233h-9.465c.042.594.18,1.143.414,1.645.234.502.534.938.902,1.305.368.368.789.655,1.263.859.474.206.979.309,1.517.309.354,0,.708-.05,1.061-.149.354-.099.679-.233.977-.402.297-.17.565-.379.806-.627.241-.247.425-.52.552-.816l1.252.339c-.17.411-.411.782-.722,1.114-.312.333-.672.623-1.083.87-.41.248-.863.439-1.358.573-.496.135-1.012.202-1.549.202ZM324.111,145.867c-.042-.595-.181-1.136-.414-1.624s-.53-.909-.891-1.263-.778-.629-1.252-.827-.979-.298-1.517-.298-1.047.1-1.528.298c-.481.198-.902.474-1.263.827-.36.354-.651.778-.87,1.273-.22.495-.351,1.033-.393,1.613h8.128Z"></path><path d="M327.782,136.486h1.443v12.988c0,.41.113.732.339.966.226.233.544.35.955.35.155,0,.339-.021.552-.063.212-.042.41-.099.594-.17l.254,1.167c-.269.114-.598.206-.987.276s-.725.106-1.008.106c-.665,0-1.188-.188-1.57-.562-.382-.375-.573-.902-.573-1.581v-13.477Z"></path><path d="M336.95,152.191c-1.203,0-2.098-.4-2.685-1.199-.587-.8-.881-1.991-.881-3.576v-6.494h1.443v6.239c0,2.505.856,3.757,2.568,3.757.424,0,.841-.071,1.252-.213.41-.141.789-.346,1.135-.615.347-.269.658-.587.934-.955.276-.367.499-.785.668-1.252v-6.961h1.443v9.189c0,.396.17.594.509.594v1.273c-.169.028-.308.043-.414.043h-.223c-.34-.015-.616-.135-.828-.361-.212-.226-.318-.53-.318-.912v-1.273c-.481.863-1.136,1.531-1.963,2.006-.828.474-1.708.711-2.642.711Z"></path><path d="M353.991,151.978l-4.075-5.666-2.377,2.207v3.459h-1.443v-15.492h1.443v10.526l6.218-6.069h1.634l-4.52,4.521,4.69,6.515h-1.57Z"></path><path d="M357.578,153.697l.361-1.782h-.488v-2.016h1.401v2.016l-.531,1.782h-.743Z"></path><path d="M370.269,151.978l-4.499-11.057h1.485l3.799,9.72,3.82-9.72h1.401l-4.499,11.057h-1.507Z"></path><path d="M383.787,142.195c-.976.028-1.825.297-2.546.807-.722.509-1.231,1.21-1.528,2.101v6.876h-1.443v-11.057h1.358v2.653c.41-.85.962-1.514,1.655-1.995s1.436-.722,2.229-.722c.113,0,.205.007.276.021v1.315Z"></path><path d="M385.718,138.608v-2.122h1.443v2.122h-1.443ZM385.718,151.978v-11.057h1.443v11.057h-1.443Z"></path><path d="M388.689,155.82c-.467,0-.905-.064-1.316-.191-.41-.127-.778-.34-1.104-.637l.7-.977c.227.198.474.333.743.403.269.071.538.106.807.106.254,0,.499-.05.732-.148.233-.1.442-.237.626-.414.184-.177.332-.386.445-.626s.17-.502.17-.785v-11.63h1.443v11.545c0,.495-.092.948-.276,1.358-.184.41-.428.764-.732,1.061-.304.298-.651.527-1.04.69-.389.162-.789.244-1.199.244ZM390.493,138.608v-2.122h1.443v2.122h-1.443Z"></path><path d="M404.414,151.978h-1.443v-6.176c0-1.259-.216-2.199-.647-2.822-.432-.622-1.064-.934-1.899-.934-.41,0-.817.081-1.22.244-.403.163-.782.386-1.135.668-.354.283-.662.616-.923.998s-.456.799-.583,1.252v6.77h-1.443v-15.492h1.443v6.939c.438-.834,1.047-1.492,1.825-1.974.778-.48,1.62-.721,2.525-.721.637,0,1.174.116,1.613.35s.799.56,1.083.977c.283.417.488.92.615,1.507.127.587.191,1.234.191,1.941v6.473Z"></path><path d="M412.266,152.191c-.807,0-1.546-.152-2.218-.457-.672-.304-1.256-.722-1.751-1.252s-.88-1.143-1.156-1.836c-.276-.692-.414-1.436-.414-2.228,0-.778.138-1.511.414-2.197.276-.686.658-1.287,1.146-1.804.488-.516,1.071-.926,1.75-1.23s1.415-.456,2.207-.456c.807,0,1.546.151,2.218.456s1.249.718,1.729,1.241.856,1.125,1.125,1.804c.269.68.403,1.401.403,2.165v.34c0,.113-.007.19-.021.233h-9.465c.042.594.18,1.143.414,1.645.234.502.534.938.902,1.305.368.368.789.655,1.263.859.474.206.979.309,1.517.309.354,0,.708-.05,1.061-.149.354-.099.679-.233.977-.402.297-.17.565-.379.806-.627.241-.247.425-.52.552-.816l1.252.339c-.17.411-.411.782-.722,1.114-.312.333-.672.623-1.083.87-.41.248-.863.439-1.358.573-.496.135-1.012.202-1.549.202ZM416.341,145.867c-.042-.595-.181-1.136-.414-1.624s-.53-.909-.891-1.263-.778-.629-1.252-.827-.979-.298-1.517-.298-1.047.1-1.528.298c-.481.198-.902.474-1.263.827-.36.354-.651.778-.87,1.273-.22.495-.351,1.033-.393,1.613h8.128Z"></path><path d="M419.948,138.608v-2.122h1.443v2.122h-1.443ZM419.948,151.978v-11.057h1.443v11.057h-1.443Z"></path><path d="M429.116,152.191c-.764,0-1.472-.159-2.123-.478s-1.209-.739-1.676-1.263-.832-1.129-1.093-1.814c-.262-.687-.393-1.404-.393-2.154,0-.778.127-1.518.382-2.218.254-.7.605-1.312,1.05-1.836.446-.523.977-.937,1.592-1.241s1.291-.456,2.027-.456c.934,0,1.761.243,2.483.731s1.287,1.079,1.698,1.772v-6.749h1.443v13.625c0,.396.17.594.509.594v1.273c-.212.043-.382.063-.509.063-.339,0-.637-.109-.891-.328-.255-.22-.382-.484-.382-.796v-1.083c-.439.722-1.033,1.295-1.783,1.72-.75.424-1.528.637-2.334.637ZM429.435,150.917c.354,0,.732-.071,1.135-.213.403-.141.782-.336,1.135-.583.354-.248.654-.538.902-.87s.4-.69.457-1.072v-3.416c-.142-.383-.347-.739-.616-1.072-.269-.332-.577-.626-.923-.881-.347-.255-.718-.452-1.114-.594-.396-.142-.785-.213-1.167-.213-.594,0-1.132.128-1.613.383-.481.254-.895.591-1.241,1.008-.347.417-.612.895-.796,1.433-.184.538-.276,1.09-.276,1.655,0,.594.106,1.16.318,1.697.212.538.502,1.009.87,1.411.368.403.803.726,1.305.966.502.241,1.043.361,1.624.361Z"></path><path d="M447.961,152.191c-.807,0-1.546-.152-2.218-.457-.672-.304-1.256-.722-1.751-1.252s-.88-1.143-1.156-1.836c-.276-.692-.414-1.436-.414-2.228,0-.778.138-1.511.414-2.197.276-.686.658-1.287,1.146-1.804.488-.516,1.071-.926,1.75-1.23s1.415-.456,2.207-.456c.807,0,1.546.151,2.218.456s1.249.718,1.729,1.241.856,1.125,1.125,1.804c.269.68.403,1.401.403,2.165v.34c0,.113-.007.19-.021.233h-9.465c.042.594.18,1.143.414,1.645.234.502.534.938.902,1.305.368.368.789.655,1.263.859.474.206.979.309,1.517.309.354,0,.708-.05,1.061-.149.354-.099.679-.233.977-.402.297-.17.565-.379.806-.627.241-.247.425-.52.552-.816l1.252.339c-.17.411-.411.782-.722,1.114-.312.333-.672.623-1.083.87-.41.248-.863.439-1.358.573-.496.135-1.012.202-1.549.202ZM452.036,145.867c-.042-.595-.181-1.136-.414-1.624s-.53-.909-.891-1.263-.778-.629-1.252-.827-.979-.298-1.517-.298-1.047.1-1.528.298c-.481.198-.902.474-1.263.827-.36.354-.651.778-.87,1.273-.22.495-.351,1.033-.393,1.613h8.128Z"></path><path d="M464.938,151.978h-1.443v-6.176c0-1.315-.195-2.271-.583-2.864-.39-.595-.987-.892-1.793-.892-.424,0-.849.078-1.273.233-.424.156-.817.375-1.178.658s-.683.619-.965,1.008c-.283.39-.488.81-.616,1.263v6.77h-1.443v-11.057h1.315v2.504c.453-.806,1.1-1.457,1.942-1.952s1.758-.742,2.749-.742c.608,0,1.125.113,1.549.339.424.227.764.545,1.019.955.254.411.438.913.552,1.507.113.595.169,1.252.169,1.974v6.473Z"></path><path d="M478.839,152.191c-.877,0-1.68-.22-2.409-.658-.729-.438-1.298-1.005-1.708-1.698v2.144h-1.294v-15.492h1.443v6.749c.495-.75,1.089-1.354,1.783-1.814.693-.46,1.5-.689,2.419-.689.778,0,1.475.162,2.09.487.615.326,1.139.761,1.57,1.306s.764,1.16.998,1.847c.233.686.35,1.39.35,2.111,0,.778-.135,1.514-.403,2.207s-.637,1.298-1.104,1.814-1.022.927-1.666,1.23c-.644.305-1.333.457-2.069.457ZM478.499,150.917c.608,0,1.164-.124,1.666-.372.502-.247.934-.58,1.294-.997.361-.417.644-.892.849-1.422s.308-1.079.308-1.645c0-.58-.095-1.139-.287-1.677-.191-.537-.46-1.015-.806-1.433-.347-.417-.764-.75-1.252-.997-.488-.248-1.022-.372-1.602-.372-.438,0-.849.075-1.231.224-.382.148-.736.35-1.061.604-.326.255-.615.549-.87.881-.254.332-.467.683-.637,1.051v3.438c.057.382.208.739.457,1.071.247.333.544.619.891.86.347.24.722.432,1.125.572.403.142.789.213,1.156.213Z"></path><path d="M491.296,152.191c-.807,0-1.546-.152-2.218-.457-.672-.304-1.256-.722-1.751-1.252s-.88-1.143-1.156-1.836c-.276-.692-.414-1.436-.414-2.228,0-.778.138-1.511.414-2.197.276-.686.658-1.287,1.146-1.804.488-.516,1.071-.926,1.75-1.23s1.415-.456,2.207-.456c.807,0,1.546.151,2.218.456s1.249.718,1.729,1.241.856,1.125,1.125,1.804c.269.68.403,1.401.403,2.165v.34c0,.113-.007.19-.021.233h-9.465c.042.594.18,1.143.414,1.645.234.502.534.938.902,1.305.368.368.789.655,1.263.859.474.206.979.309,1.517.309.354,0,.708-.05,1.061-.149.354-.099.679-.233.977-.402.297-.17.565-.379.806-.627.241-.247.425-.52.552-.816l1.252.339c-.17.411-.411.782-.722,1.114-.312.333-.672.623-1.083.87-.41.248-.863.439-1.358.573-.496.135-1.012.202-1.549.202ZM495.37,145.867c-.042-.595-.181-1.136-.414-1.624s-.53-.909-.891-1.263-.778-.629-1.252-.827-.979-.298-1.517-.298-1.047.1-1.528.298c-.481.198-.902.474-1.263.827-.36.354-.651.778-.87,1.273-.22.495-.351,1.033-.393,1.613h8.128Z"></path><path d="M499.042,136.486h1.443v12.988c0,.41.113.732.339.966.226.233.544.35.955.35.155,0,.339-.021.552-.063.212-.042.41-.099.594-.17l.254,1.167c-.269.114-.598.206-.987.276s-.725.106-1.008.106c-.665,0-1.188-.188-1.57-.562-.382-.375-.573-.902-.573-1.581v-13.477Z"></path><path d="M509.525,152.191c-.807,0-1.546-.152-2.218-.457-.672-.304-1.256-.722-1.751-1.252s-.88-1.143-1.156-1.836c-.276-.692-.414-1.436-.414-2.228,0-.778.138-1.511.414-2.197.276-.686.658-1.287,1.146-1.804.488-.516,1.071-.926,1.75-1.23s1.415-.456,2.207-.456c.807,0,1.546.151,2.218.456s1.249.718,1.729,1.241.856,1.125,1.125,1.804c.269.68.403,1.401.403,2.165v.34c0,.113-.007.19-.021.233h-9.465c.042.594.18,1.143.414,1.645.234.502.534.938.902,1.305.368.368.789.655,1.263.859.474.206.979.309,1.517.309.354,0,.708-.05,1.061-.149.354-.099.679-.233.977-.402.297-.17.565-.379.806-.627.241-.247.425-.52.552-.816l1.252.339c-.17.411-.411.782-.722,1.114-.312.333-.672.623-1.083.87-.41.248-.863.439-1.358.573-.496.135-1.012.202-1.549.202ZM513.6,145.867c-.042-.595-.181-1.136-.414-1.624s-.53-.909-.891-1.263-.778-.629-1.252-.827-.979-.298-1.517-.298-1.047.1-1.528.298c-.481.198-.902.474-1.263.827-.36.354-.651.778-.87,1.273-.22.495-.351,1.033-.393,1.613h8.128Z"></path><path d="M520.221,151.978l-4.499-11.057h1.485l3.799,9.72,3.82-9.72h1.401l-4.499,11.057h-1.507Z"></path><path d="M528.221,138.608v-2.122h1.443v2.122h-1.443ZM528.221,151.978v-11.057h1.443v11.057h-1.443Z"></path><path d="M542.143,151.978h-1.443v-6.176c0-1.315-.195-2.271-.583-2.864-.39-.595-.987-.892-1.793-.892-.424,0-.849.078-1.273.233-.424.156-.817.375-1.178.658s-.683.619-.965,1.008c-.283.39-.488.81-.616,1.263v6.77h-1.443v-11.057h1.315v2.504c.453-.806,1.1-1.457,1.942-1.952s1.758-.742,2.749-.742c.608,0,1.125.113,1.549.339.424.227.764.545,1.019.955.254.411.438.913.552,1.507.113.595.169,1.252.169,1.974v6.473Z"></path><path d="M549.655,152.126c-.764,0-1.461-.159-2.09-.478s-1.174-.738-1.634-1.263c-.46-.522-.817-1.124-1.072-1.804-.255-.679-.382-1.379-.382-2.101,0-.765.124-1.496.371-2.196.248-.701.598-1.312,1.051-1.836.453-.523.994-.94,1.623-1.252s1.327-.467,2.091-.467c.947,0,1.768.236,2.461.711.693.474,1.288,1.071,1.783,1.793v-2.313h1.294v11.1c0,.764-.145,1.439-.435,2.026s-.679,1.079-1.167,1.475c-.488.396-1.061.693-1.719.892-.658.198-1.354.297-2.09.297-1.273,0-2.299-.227-3.077-.679-.778-.453-1.408-1.062-1.889-1.825l.891-.7c.438.707,1.019,1.228,1.74,1.56.722.332,1.5.499,2.334.499.538,0,1.047-.074,1.528-.223.48-.148.902-.368,1.263-.658s.647-.658.859-1.104.318-.966.318-1.56v-2.187c-.424.708-1.005,1.267-1.74,1.677-.736.411-1.507.615-2.313.615ZM550.058,150.917c.425,0,.842-.078,1.252-.233.41-.156.781-.364,1.114-.626s.612-.556.838-.881c.226-.325.375-.658.446-.998v-3.416c-.156-.396-.368-.765-.637-1.104-.269-.34-.573-.63-.913-.87-.339-.241-.704-.432-1.093-.573-.39-.142-.782-.213-1.178-.213-.623,0-1.178.132-1.666.394-.488.262-.902.604-1.242,1.028-.339.425-.598.906-.774,1.443-.177.538-.266,1.083-.266,1.635,0,.594.106,1.16.318,1.697.212.538.506,1.008.881,1.411.375.403.81.722,1.305.955.495.233,1.033.351,1.613.351Z"></path></g></g></svg>