<?xml version="1.0" encoding="UTF-8"?>
<svg width="142px" height="40px" xmlns="http://www.w3.org/2000/svg" id="Laag_1" version="1.1" viewBox="0 0 138.3372 39.9732">
  <defs>
    <style>
      .st0 {
        fill: #fff;
      }
    </style>
  </defs>
  <path class="st0" d="M57.3852,35.9643c-.057.055-.121.083-.195.083h-.668c-.074,0-.139-.028-.195-.083-.056-.056-.083-.121-.083-.196v-4.926c0-.287-.033-.528-.098-.724-.065-.194-.153-.347-.264-.458-.112-.112-.246-.191-.404-.237-.157-.046-.325-.07-.501-.07-.25,0-.517.037-.8.111-.283.075-.56.163-.828.265.083.306.125.668.125,1.086v4.953c0,.075-.023.14-.07.196-.047.055-.107.083-.181.083h-.737c-.074,0-.133-.028-.174-.083-.042-.056-.063-.121-.063-.196v-4.953c0-.307-.02-.555-.062-.745-.043-.191-.109-.339-.202-.445-.093-.107-.207-.179-.341-.216-.135-.037-.29-.056-.466-.056-.251,0-.523.053-.815.16-.291.107-.587.235-.883.383v5.872c0,.075-.023.14-.07.196-.046.055-.107.083-.181.083h-.737c-.075,0-.132-.028-.174-.083-.042-.056-.063-.121-.063-.196v-7.097c0-.074.026-.139.077-.195.051-.055.113-.083.187-.083h.697c.073,0,.137.028.188.083.051.056.076.121.076.195v.265c.279-.177.589-.33.932-.46.344-.13.71-.194,1.1-.194.296,0,.559.044.786.132.227.088.43.234.605.438.39-.185.782-.327,1.177-.424.394-.098.772-.146,1.134-.146.315,0,.609.041.883.125.274.083.513.225.717.424.203.2.364.464.481.794.115.329.173.735.173,1.217v4.926c0,.075-.027.14-.083.196"></path>
  <path class="st0" d="M63.4659,32.3457h-1.029c-.419,0-.766.025-1.044.076-.279.051-.496.13-.654.237-.158.107-.27.246-.334.417-.066.172-.098.384-.098.633v.168c0,.501.112.837.334,1.009.223.171.539.257.947.257.325,0,.636-.046.932-.139.297-.093.612-.232.946-.417v-2.241ZM64.6909,35.7687c0,.075-.028.14-.083.196-.057.055-.121.083-.195.083h-.64c-.075,0-.14-.028-.196-.083-.055-.056-.083-.121-.083-.196v-.306c-.334.195-.677.357-1.03.487-.352.13-.723.195-1.113.195-.297,0-.583-.035-.856-.104-.274-.07-.515-.193-.723-.369-.209-.176-.376-.408-.501-.696-.126-.287-.189-.649-.189-1.086v-.166c0-.371.059-.699.174-.981.117-.283.307-.52.571-.71.264-.191.61-.332,1.037-.424.427-.094.951-.14,1.573-.14h1.029v-.557c0-.584-.111-.992-.334-1.224-.223-.232-.608-.348-1.155-.348-.454,0-.853.012-1.197.035-.343.023-.654.048-.932.076h-.07c-.065,0-.122-.014-.174-.041-.05-.028-.076-.089-.076-.181v-.488c0-.148.097-.236.292-.264.288-.046.6-.088.939-.125.339-.037.745-.056,1.218-.056.964,0,1.659.232,2.081.696.423.464.633,1.104.633,1.92v4.857Z"></path>
  <path class="st0" d="M72.0522,35.8666c0,.121-.05.181-.153.181h-1.001c-.075,0-.133-.012-.175-.035-.042-.023-.09-.071-.146-.146l-2.769-3.423v3.325c0,.075-.028.14-.084.196-.056.055-.12.083-.195.083h-.667c-.075,0-.139-.028-.196-.083-.054-.056-.083-.121-.083-.196v-9.908c0-.074.029-.14.083-.195.057-.056.121-.084.196-.084h.667c.075,0,.139.028.195.084.056.055.084.121.084.195v5.789l2.784-3.132c.045-.045.085-.078.117-.096.032-.019.087-.028.16-.028h.974c.14,0,.209.051.209.153,0,.056-.023.107-.069.153l-3.061,3.312,3.088,3.73c.029.027.042.069.042.125"></path>
  <path class="st0" d="M77.6617,31.5521c0-.788-.15-1.349-.452-1.683-.302-.335-.759-.502-1.371-.502-.603,0-1.064.176-1.385.529-.319.353-.48.904-.48,1.656v.125h3.688v-.125ZM78.8867,32.3041c0,.204-.088.306-.264.306h-4.649v.195c0,.826.163,1.41.487,1.753.325.343.808.515,1.447.515.409,0,.843-.014,1.302-.041.459-.029.851-.065,1.176-.112h.07c.055,0,.106.014.153.042.046.028.07.079.07.153v.473c0,.093-.02.165-.057.216-.037.051-.111.085-.222.104-.4.075-.796.133-1.19.174-.394.042-.828.063-1.302.063-.398,0-.788-.054-1.168-.16-.381-.107-.717-.288-1.009-.543-.292-.255-.529-.596-.71-1.023-.18-.426-.272-.965-.272-1.614v-1.253c0-1.002.264-1.795.792-2.38.528-.584,1.291-.876,2.291-.876.51,0,.954.076,1.333.229.379.154.697.371.951.654.255.284.447.627.577,1.03.129.404.194.851.194,1.343v.752Z"></path>
  <path class="st0" d="M81.8642,35.9643c-.047.055-.107.083-.181.083h-.723c-.075,0-.135-.028-.181-.083-.047-.056-.07-.121-.07-.196v-9.921c0-.075.023-.137.07-.189.046-.051.106-.077.181-.077h.723c.074,0,.134.026.181.077.046.052.07.114.07.189v9.921c0,.075-.024.14-.07.196"></path>
  <path class="st0" d="M88.0708,32.3457h-1.029c-.418,0-.766.025-1.044.076-.279.051-.496.13-.654.237-.158.107-.269.246-.334.417-.066.172-.098.384-.098.633v.168c0,.501.112.837.334,1.009.223.171.539.257.947.257.325,0,.635-.046.932-.139s.612-.232.946-.417v-2.241ZM89.2958,35.7687c0,.075-.028.14-.083.196-.056.055-.121.083-.195.083h-.64c-.075,0-.14-.028-.196-.083-.055-.056-.083-.121-.083-.196v-.306c-.334.195-.677.357-1.029.487-.353.13-.724.195-1.114.195-.297,0-.583-.035-.856-.104-.274-.07-.515-.193-.724-.369-.207-.176-.375-.408-.5-.696-.125-.287-.189-.649-.189-1.086v-.166c0-.371.059-.699.174-.981.117-.283.308-.52.571-.71.264-.191.61-.332,1.037-.424.427-.094.951-.14,1.573-.14h1.029v-.557c0-.584-.111-.992-.334-1.224-.222-.232-.607-.348-1.155-.348-.454,0-.853.012-1.197.035-.343.023-.653.048-.931.076h-.07c-.066,0-.124-.014-.174-.041-.051-.028-.077-.089-.077-.181v-.488c0-.148.097-.236.292-.264.288-.046.601-.088.94-.125.338-.037.744-.056,1.217-.056.965,0,1.659.232,2.082.696.422.464.632,1.104.632,1.92v4.857Z"></path>
  <path class="st0" d="M95.294,32.3457h-1.03c-.418,0-.765.025-1.044.076-.279.051-.496.13-.654.237-.158.107-.269.246-.334.417-.065.172-.097.384-.097.633v.168c0,.501.111.837.333,1.009.224.171.539.257.947.257.325,0,.636-.046.933-.139s.612-.232.946-.417v-2.241ZM96.518,35.7687c0,.075-.028.14-.083.196-.056.055-.12.083-.195.083h-.639c-.075,0-.14-.028-.196-.083-.055-.056-.083-.121-.083-.196v-.306c-.334.195-.677.357-1.03.487-.352.13-.724.195-1.113.195-.298,0-.583-.035-.856-.104-.274-.07-.515-.193-.724-.369-.208-.176-.376-.408-.501-.696-.125-.287-.188-.649-.188-1.086v-.166c0-.371.058-.699.174-.981.116-.283.307-.52.571-.71.264-.191.61-.332,1.037-.424.426-.094.951-.14,1.572-.14h1.03v-.557c0-.584-.111-.992-.334-1.224s-.608-.348-1.155-.348c-.455,0-.854.012-1.197.035-.343.023-.654.048-.932.076h-.07c-.066,0-.123-.014-.174-.041-.051-.028-.077-.089-.077-.181v-.488c0-.148.097-.236.292-.264.288-.046.601-.088.94-.125.338-.037.744-.056,1.218-.056.965,0,1.658.232,2.081.696.422.464.632,1.104.632,1.92v4.857Z"></path>
  <path class="st0" d="M101.5561,29.3676c-.325,0-.638.044-.939.132-.302.087-.628.238-.981.451v5.819c0,.074-.028.139-.083.195-.056.055-.121.083-.196.083h-.682c-.074,0-.137-.028-.188-.083-.051-.056-.076-.121-.076-.196v-7.098c0-.074.025-.138.076-.194.051-.055.114-.083.188-.083h.654c.075,0,.137.028.188.085.052.056.078.122.078.198v.296c.352-.245.688-.419,1.008-.522.32-.103.637-.155.953-.155.195,0,.292.085.292.254v.578c0,.16-.097.24-.292.24"></path>
  <path class="st0" d="M108.0146,34.1269c0,.352-.062.657-.187.911-.126.256-.303.464-.53.627-.227.163-.501.283-.821.362-.32.079-.674.118-1.065.118-.129,0-.285-.002-.466-.007s-.371-.016-.571-.034c-.2-.019-.401-.04-.605-.063-.204-.023-.389-.058-.557-.105-.195-.046-.292-.139-.292-.278v-.487c0-.065.023-.116.07-.153.046-.037.107-.056.181-.056h.055c.167.019.351.037.55.056.2.019.401.035.606.049.204.013.394.025.57.034.177.01.33.014.459.014.455,0,.798-.07,1.03-.208.232-.139.348-.399.348-.78,0-.213-.075-.398-.223-.556-.148-.158-.421-.358-.821-.599l-1.405-.835c-.427-.26-.77-.545-1.03-.856-.26-.31-.39-.689-.39-1.134,0-.362.065-.661.195-.898.129-.236.306-.426.529-.57.223-.144.487-.244.793-.3.307-.055.64-.083,1.003-.083.388,0,.766.016,1.134.048.366.033.711.077,1.036.133.176.028.264.12.264.278v.459c0,.158-.078.237-.236.237h-.042c-.241-.019-.563-.042-.967-.07-.404-.028-.801-.041-1.189-.041-.39,0-.704.046-.94.139-.237.093-.355.315-.355.668,0,.214.079.396.237.549.157.154.399.323.723.508l1.378.821c.575.344.974.678,1.197,1.003.223.324.334.69.334,1.099"></path>
  <path class="st0" d="M74.3593,22.1241c-.097.097-.209.145-.339.145h-2.707c-.128,0-.241-.049-.338-.146-.096-.097-.144-.212-.144-.341v-.586c-.662.471-1.29.8-1.886.987-.597.186-1.281.28-2.054.28-.871,0-1.584-.142-2.139-.423-.557-.282-.992-.673-1.306-1.173-.314-.499-.532-1.083-.653-1.752-.121-.669-.182-1.381-.182-2.139v-8.048c0-.129.054-.246.158-.351.106-.105.222-.157.351-.157h2.925c.128,0,.241.052.338.157.096.104.145.221.145.349v8.031c0,.418.024.772.072,1.061.049.289.137.523.266.699.129.177.31.302.544.374.233.072.535.109.907.109.354,0,.716-.073,1.087-.217.371-.145.765-.33,1.184-.555v-9.502c0-.128.049-.245.146-.349.097-.105.208-.157.338-.157h2.924c.129,0,.246.052.35.157.106.105.158.222.158.351v12.858c0,.129-.049.242-.145.338"></path>
  <path class="st0" d="M84.8979,11.3431c-.065.098-.154.146-.267.146h-.192c-.597,0-1.152.081-1.668.241-.516.161-.999.363-1.451.604v9.429c0,.129-.047.245-.145.35-.096.104-.209.156-.338.156h-2.924c-.13,0-.246-.052-.351-.157-.104-.104-.157-.221-.157-.35v-12.859c0-.129.049-.241.145-.338.097-.097.21-.145.338-.145h2.877c.128,0,.241.049.338.147.096.096.145.21.145.34v.488c.451-.373.963-.661,1.534-.864.573-.203,1.149-.304,1.729-.304.129,0,.242.048.339.146.096.097.144.21.144.341v2.312c0,.114-.032.22-.096.317"></path>
  <path class="st0" d="M108.2448,16.3473h-1.378c-.419,0-.765.037-1.039.109-.274.073-.492.182-.653.326-.161.145-.273.331-.338.556-.064.226-.096.484-.096.774v.217c0,.516.124.846.374.991.249.146.632.217,1.148.217.371,0,.721-.052,1.052-.157.33-.104.64-.229.93-.374v-2.659ZM112.0878,21.7863c0,.129-.048.241-.145.338-.097.097-.209.145-.338.145h-2.707c-.129,0-.242-.048-.338-.145-.097-.097-.146-.209-.146-.338v-.387c-.468.338-.963.604-1.486.797-.524.194-1.149.291-1.873.291-.532,0-1.044-.069-1.535-.206-.493-.137-.931-.366-1.317-.688-.387-.323-.698-.75-.931-1.282-.234-.531-.351-1.192-.351-1.982v-.217c0-1.418.472-2.454,1.415-3.106.942-.652,2.453-.979,4.531-.979h1.305v-.87c0-.693-.161-1.144-.482-1.354-.324-.209-.767-.314-1.331-.314-.386,0-.776.004-1.171.012-.395.008-.774.021-1.136.037-.363.016-.689.036-.98.06-.289.024-.53.045-.724.06h-.121c-.129,0-.234-.032-.314-.096-.082-.065-.122-.177-.122-.339v-1.958c0-.273.154-.45.46-.531.451-.113,1.059-.226,1.824-.339.766-.112,1.552-.169,2.357-.169.871,0,1.656.093,2.357.278.7.186,1.293.475,1.776.87s.858.903,1.125,1.523c.265.62.398,1.374.398,2.26v8.629Z"></path>
  <path class="st0" d="M123.8593,21.9433c-.081.072-.209.133-.387.181-.338.081-.777.161-1.318.241-.54.081-1.171.122-1.897.122-1.708,0-3.073-.524-4.096-1.571-1.024-1.047-1.535-2.562-1.535-4.544v-2.031c0-1.982.511-3.496,1.535-4.544,1.023-1.047,2.388-1.571,4.096-1.571.726,0,1.357.04,1.897.121.541.081.98.161,1.318.242.178.048.306.109.387.181.081.072.121.197.121.375v2.151c0,.129-.045.23-.133.302-.089.072-.197.108-.326.108h-.049c-.451-.048-.882-.088-1.293-.12-.411-.032-.963-.048-1.656-.048-.274,0-.531.044-.773.132-.242.089-.452.242-.629.459-.177.218-.318.508-.423.871-.105.362-.157.81-.157,1.341v2.031c0,.531.052.978.157,1.341.105.363.246.652.423.87.177.217.387.37.629.46.242.088.499.132.773.132.693,0,1.245-.016,1.656-.048.411-.032.842-.073,1.293-.121h.049c.129,0,.237.037.326.109.088.072.133.173.133.302v2.151c0,.178-.04.302-.121.375"></path>
  <path class="st0" d="M56.2318,16.3076c0,.435-.032.832-.096,1.194-.066.361-.178.674-.339.939-.162.266-.378.471-.653.615-.274.144-.628.217-1.063.217-.403,0-.778-.016-1.123-.048-.348-.032-.634-.065-.858-.097v-7.517c.289-.032.619-.061.99-.085.371-.024.701-.036.991-.036.435,0,.789.072,1.063.216.275.145.491.35.653.615.161.265.273.579.339.94.064.362.096.751.096,1.168v1.879ZM58.6518,9.8936c-1-1.113-2.522-1.67-4.567-1.67-.243,0-.548.017-.912.052-.357.035-.723.07-1.07.122v-4.219c0-.017,0-.043-.009-.061-.026-.217-.209-.382-.435-.382-.035,0-.061,0-.087.009-.035.008-.07.017-.105.034l-2.974,1.105c-.078.035-.148.096-.2.165-.07.087-.104.191-.113.305v14.952c0,1.043.052,1.191.139,1.287.087.096.287.182.617.27.688.174,1.487.321,2.392.443.896.122,1.818.183,2.757.183,1.958,0,3.463-.539,4.506-1.618,1.036-1.078,1.557-2.601,1.557-4.575v-1.879c0-1.905-.496-3.41-1.496-4.523"></path>
  <path class="st0" d="M95.0253,16.3086c0,.434-.033.831-.097,1.193-.065.361-.178.674-.339.939-.161.266-.378.471-.652.615-.274.144-.629.217-1.063.217-.403,0-.779-.016-1.124-.048-.347-.032-.633-.065-.858-.097v-7.517c.289-.032.619-.061.99-.085.371-.024.701-.036.992-.036.434,0,.789.073,1.063.217.274.144.491.349.652.614.161.265.274.579.339.94.064.362.097.751.097,1.168v1.88ZM97.4423,9.8946c-1-1.112-2.522-1.668-4.568-1.668-.243,0-.544.016-.907.048-.363.033-.721.073-1.075.121l.007-4.221c0-.018,0-.044-.009-.061-.026-.218-.209-.383-.435-.383-.035,0-.061,0-.087.009-.035.008-.07.017-.104.035l-2.975,1.104c-.078.035-.148.096-.2.165-.07.087-.105.192-.113.305v15.809c0,.193.044.338.133.435.088.097.293.186.616.266.693.177,1.49.326,2.394.447.902.121,1.82.182,2.755.182,1.965,0,3.467-.541,4.507-1.62,1.04-1.08,1.559-2.602,1.559-4.568v-1.886c0-1.901-.499-3.408-1.498-4.519"></path>
  <path class="st0" d="M138.1562,11.5739c-.121-.668-.338-1.248-.653-1.74-.314-.491-.749-.883-1.305-1.172-.556-.291-1.269-.435-2.139-.435-.725,0-1.37.081-1.934.243-.562.162-1.148.445-1.758.848v-5.144c0-.017,0-.043-.008-.061-.026-.217-.208-.382-.434-.382-.036,0-.061,0-.088.008-.035.009-.07.018-.104.035l-2.975,1.105c-.079.035-.147.096-.2.165-.069.087-.105.191-.113.304v16.414c0,.129.053.246.157.35.106.106.222.157.351.157h2.924c.13,0,.242-.051.339-.156.096-.105.145-.221.145-.35v-9.502c.419-.225.813-.41,1.184-.554.371-.145.733-.217,1.088-.217.37,0,.672.036.906.108.234.073.415.198.545.374.128.176.217.41.264.699.049.289.073.643.073,1.062v8.03c0,.129.049.245.145.35.097.105.209.156.339.156h2.924c.129,0,.246-.051.35-.157.106-.104.158-.221.158-.35v-8.049c0-.757-.06-1.47-.181-2.139"></path>
  <path class="st0" d="M130.3657,9.3198c-.001.001-.003.001-.004.002"></path>
  <path class="st0" d="M39.6614.0002H.3124C.1404.0002.0004.1402.0004.3122v39.349c0,.172.14.312.312.312h39.349c.172,0,.312-.14.312-.312V.3122C39.9734.1402,39.8334.0002,39.6614.0002ZM36.5185,33.2392c-1.127,2.006-2.616,3.777-4.218,5.41-.402.408-.815.805-1.23,1.199-.0438.0407-.0867.0835-.1301.1248h-5.3333c.0641-.0895.1286-.1797.2065-.2558l.644-.571,2.597-2.241c.859-.75,1.692-1.532,2.475-2.36.781-.828,1.517-1.706,2.113-2.676.6-.965,1.073-2.011,1.337-3.115l.155-.837c.027-.282.038-.566.057-.849.036-.283-.018-.565-.027-.848-.014-.14-.007-.284-.04-.422l-.088-.415c-.239-1.106-.809-2.129-1.597-2.941-.127-.133-.259-.261-.397-.384-2.463-2.211-5.957-2.833-9.156-3.024-2.431-.145-4.868-.033-7.301-.088-1.33-.03-3.882.11-4.242-1.617-.226-1.086,1.88-1.783,2.883-2.156,3.157-1.172,6.043-2.343,8.79-3.81.542-.289,1.327-.738,1.657-1.271.594-.959-1.915-1.161-2.768-1.113-1.785.101-3.219.315-5.037.756-1.067.259-2.629.637-3.703.857-1.031.212-2.062.424-3.093.635-.753.155-1.948.206-2.392.952-.334.561-.073,1.273.192,1.87.9561,2.145,1.911,4.29,2.866,6.436,1.641,3.686,3,7.54,4.241,11.381.327,1.011.569,2.3-.2451,2.983-.753.632-1.939.269-2.678-.38-1.488-1.303-1.931-3.398-2.342-5.332-.915-4.3-2.082-8.546-3.493-12.71-.3409-1.006-.777-2.1021-1.7289-2.573-.702-.347-1.531-.27-2.299-.422-.768-.152-1.594-.7321-1.51-1.511.132-1.225,2.179-1.337,2.523-2.52.147-.509-.083-1.04-.193-1.559-.111-.518-.021-1.186.473-1.379.456-.178.954.181,1.212.597.258.415.394.911.727,1.269.426.459,1.107.605,1.73.537.764-.084,1.485-.248,2.232-.425,2.4-.567,4.817-1.043,7.245-1.471,1.102-.195,2.205-.371,3.323-.523,2.316-.317,4.3-.474,5.688.262,1.428.757,1.9189,2.121,1.73,3.187-.279,1.579-1.631,2.495-2.923,3.312-1.332.842-2.847,1.339-4.232,2.054-.241.125-.443.35-.405.612.037.256.235.484.48.587.251.11.533.147.814.176,1.144.113,2.267.327,3.39.551,1.122.23,2.234.505,3.332.833,2.186.664,4.35,1.523,6.223,2.87.461.344.9109.707,1.31,1.125.408.407.77.863,1.072,1.356.623.979.937,2.1411.948,3.299-.008,2.314-.74,4.572-1.864,6.568Z"></path>
</svg>
