<svg xmlns="http://www.w3.org/2000/svg" xmlns:xlink="http://www.w3.org/1999/xlink" width="467.7mm" height="120.1mm" viewBox="0 0 1325.8 340.4"><defs><style>      .st0 {        clip-path: url(#clippath-4);      }      .st1 {        fill: #d34d1c;      }      .st2 {        fill: #fff;      }      .st3 {        fill: none;      }      .st4 {        clip-path: url(#clippath-1);      }      .st5 {        fill: #6a9a31;      }      .st6 {        clip-path: url(#clippath-5);      }      .st7 {        clip-path: url(#clippath-3);      }      .st8 {        fill: #df9a14;      }      .st9 {        display: none;      }      .st10 {        fill: #2b2567;      }      .st11 {        clip-path: url(#clippath-2);      }      .st12 {        fill: #d00269;      }      .st13 {        fill: #0089ac;      }      .st14 {        clip-path: url(#clippath);      }    </style><clipPath id="clippath"><rect class="st3" x="0" y="94.6" width="1143.5" height="206.8"></rect></clipPath><clipPath id="clippath-1"><rect class="st3" x="0" y="94.6" width="1143.5" height="206.8"></rect></clipPath><clipPath id="clippath-2"><rect class="st3" x="0" y="94" width="1143.5" height="206.8"></rect></clipPath><clipPath id="clippath-3"><rect class="st3" x="0" y="94" width="1143.5" height="206.8"></rect></clipPath><clipPath id="clippath-4"><rect class="st3" x=".1" y="94.7" width="1143.4" height="223.9"></rect></clipPath><clipPath id="clippath-5"><rect class="st3" x=".1" y="94.7" width="1143.4" height="223.9"></rect></clipPath></defs><g id="LOGO_-_Nieuwbouw" class="st9"><g class="st14"><g class="st4"><path class="st5" d="M124.3,285c-27.6,1.4-58.5-.4-82.4-5.1-8.2-1.5-15-7.3-18-15.1C13.4,236.9,3.4,196,.1,167.6c-.9-8.3,2.5-16.5,9.2-21.6,11.5-8.7,23.5-16.7,36-23.9l.5.7c1.1,1.5,2.1,2.8,2.9,4,1.9,2.7,3.6,5.4,5.2,8.1.8,1.3,1.6,2.7,2.4,4.3,3.9,7.3,7.1,15,9.5,22.9,3,10.1,4.6,20.4,6.2,31.4.9,6.2,1.9,12.5,3.1,18.9,1.6,8.9,4.2,17.6,7.8,26,3.6,8.2,8.3,15.9,14,22.9,2.5,3.1,5.2,6,8,8.8,1.9,1.9,3.9,3.7,6.1,5.6,1.7,1.4,3.3,2.7,5,3.9,2.7,2,5.5,3.8,8.4,5.5"></path><path class="st5" d="M1133.9,198.7c-3.2,1.6-6.1,3.6-8.8,5.9-.3.3-.5.7-.4,1.1.5,3.3,1.5,6.6,2.9,9.7.2.4.6.7,1,.8,3.2.6,6.4.8,9.6.7.4,0,.8-.3,1.1-.6,1.8-2.9,3.3-6.1,4.2-9.5.1-.4,0-.8-.3-1.1-2.5-2.6-5.2-4.9-8.2-6.9-.3-.2-.8-.2-1.1,0"></path><path class="st5" d="M247.5,279.7l6,1v4.6h-19.3v-4.6l6-1v-28.5l-6-1v-4.7h12.5l.5,5.9c1.3-2.1,3-3.8,5-4.9,2-1.2,4.3-1.8,6.8-1.8,4.3,0,7.6,1.3,10,3.8,2.4,2.5,3.5,6.4,3.5,11.7v19.5l6,1v4.6h-19.3v-4.6l6-1v-19.3c0-3.5-.7-6-2.1-7.5-1.4-1.5-3.5-2.2-6.4-2.2s-3.9.5-5.5,1.5c-1.6,1-2.9,2.4-3.9,4.1v23.4Z"></path><path class="st5" d="M296.7,245.5v34.2l6,1v4.6h-19.3v-4.6l6-1v-28.5l-6-1v-4.7h13.3ZM289.1,227.9h7.6v7.8h-7.6v-7.8Z"></path><path class="st5" d="M325.9,286.1c-3.7,0-6.9-.8-9.6-2.5-2.7-1.7-4.8-4-6.3-7-1.5-3-2.2-6.5-2.2-10.4v-1.6c0-3.8.8-7.2,2.4-10.2,1.5-3,3.6-5.4,6.2-7.1,2.6-1.7,5.4-2.6,8.5-2.6s6.6.7,9,2.2c2.4,1.5,4.2,3.5,5.5,6.2,1.2,2.7,1.8,5.8,1.8,9.4v4.5h-25.9v.2c0,2.5.4,4.8,1.3,6.8.9,2,2.1,3.5,3.7,4.7,1.6,1.1,3.5,1.7,5.7,1.7s4.6-.3,6.5-1c1.9-.7,3.5-1.7,4.8-2.9l2.8,4.7c-1.4,1.4-3.3,2.5-5.7,3.5-2.3.9-5.2,1.4-8.5,1.4M315.4,261.3v.2h18.5v-1c0-1.9-.3-3.7-1-5.2-.7-1.5-1.7-2.7-3-3.6-1.3-.9-3-1.3-5-1.3s-3.1.5-4.4,1.4c-2.8,2-4.4,5.1-5,9.4"></path><path class="st5" d="M364.3,286.1c-4.3,0-7.7-1.4-10.1-4.2-2.4-2.8-3.6-7.1-3.6-13v-17.8l-4.6-1v-4.7h11.8v23.6c0,4.2.6,7.2,1.9,8.8,1.3,1.6,3.2,2.4,5.9,2.4s4.7-.5,6.4-1.6c1.7-1,3-2.5,3.8-4.4v-23l-5.3-1v-4.7h12.6v34.2l4.6,1v4.6h-11.1l-.5-5.9c-1.3,2.1-2.9,3.8-4.8,4.9-2,1.2-4.3,1.7-6.8,1.7"></path><polygon class="st5" points="423.8 255 423.6 255 421.7 261.4 413 285.4 406.8 285.4 396.3 250.7 391.8 250.2 391.8 245.5 408.3 245.5 408.3 250.2 403.4 251 408.9 270.8 410.2 275.6 410.4 275.6 412 270.8 420.7 245.5 426.8 245.5 435 270.8 436.8 276.4 437 276.4 438.8 270.8 444.3 250.9 439.3 250.2 439.3 245.5 455.4 245.5 455.4 250.2 451 250.8 440.7 285.4 433.8 285.4 425.7 261.4 423.8 255"></polygon><path class="st5" d="M481,286.1c-5.1,0-9-2-11.6-5.9l-.7,5.1h-6.3v-51.8l-6-1v-4.7h13.3v22.3c1.3-1.8,2.8-3.1,4.7-4.1,1.9-.9,4-1.4,6.5-1.4s6.1.9,8.4,2.7c2.3,1.8,4.1,4.3,5.3,7.5,1.2,3.2,1.8,7,1.8,11.2v.8c0,3.8-.6,7.2-1.8,10.1-1.3,2.9-3,5.1-5.4,6.7-2.3,1.6-5.1,2.4-8.3,2.4M479.2,280.2c3.4,0,6-1.2,7.6-3.6,1.7-2.4,2.5-5.7,2.5-9.7v-.8c0-3.1-.4-5.8-1.1-8.1-.7-2.3-1.9-4.2-3.4-5.5-1.5-1.3-3.4-2-5.7-2s-4.1.5-5.7,1.6c-1.5,1.1-2.8,2.5-3.7,4.3v17.6c.9,1.8,2.1,3.3,3.7,4.4,1.6,1.1,3.5,1.6,5.7,1.6"></path><path class="st5" d="M520,286.1c-3.7,0-6.8-.9-9.5-2.6-2.7-1.7-4.7-4.1-6.2-7.2-1.4-3-2.2-6.5-2.2-10.5v-.8c0-3.9.7-7.4,2.2-10.5,1.4-3.1,3.5-5.5,6.2-7.2,2.7-1.7,5.8-2.6,9.5-2.6s6.8.9,9.5,2.6c2.7,1.7,4.7,4.1,6.2,7.2,1.4,3,2.2,6.5,2.2,10.5v.8c0,3.9-.7,7.4-2.2,10.5-1.5,3-3.5,5.4-6.2,7.2-2.7,1.7-5.8,2.6-9.5,2.6M520,280.5c2.3,0,4.2-.6,5.8-1.9,1.5-1.3,2.7-3,3.5-5.2.8-2.2,1.2-4.7,1.2-7.5v-.8c0-2.8-.4-5.3-1.2-7.5-.8-2.2-2-3.9-3.6-5.2-1.6-1.3-3.5-1.9-5.9-1.9s-4.2.6-5.8,1.9c-1.6,1.3-2.8,3-3.5,5.2-.8,2.2-1.2,4.7-1.2,7.5v.8c0,2.8.4,5.3,1.2,7.5.8,2.2,2,3.9,3.6,5.2,1.6,1.3,3.5,1.9,5.9,1.9"></path><path class="st5" d="M561,286.1c-4.3,0-7.7-1.4-10.1-4.2-2.4-2.8-3.6-7.1-3.6-13v-17.8l-4.6-1v-4.7h11.8v23.6c0,4.2.6,7.2,1.9,8.8,1.3,1.6,3.2,2.4,5.9,2.4s4.7-.5,6.4-1.6c1.7-1,3-2.5,3.8-4.4v-23l-5.3-1v-4.7h12.6v34.2l4.6,1v4.6h-11.1l-.5-5.9c-1.3,2.1-2.9,3.8-4.8,4.9-2,1.2-4.3,1.7-6.8,1.7"></path><polygon class="st5" points="620.5 255 620.2 255 618.4 261.4 609.7 285.4 603.5 285.4 593 250.7 588.5 250.2 588.5 245.5 605 245.5 605 250.2 600.1 251 605.6 270.8 606.8 275.6 607 275.6 608.7 270.8 617.3 245.5 623.4 245.5 631.7 270.8 633.5 276.4 633.7 276.4 635.4 270.8 641 250.9 636 250.2 636 245.5 652.1 245.5 652.1 250.2 647.6 250.8 637.3 285.4 630.4 285.4 622.4 261.4 620.5 255"></polygon><path class="st10" d="M233.7,142.9c0-.6.2-1.2.6-1.6.5-.4,1.1-.7,1.8-.6h59.6c.6,0,1.2.2,1.7.6.5.4.8,1.1.7,1.7v11.1c0,.3-.1.6-.3.9l-37.2,44.3h35.3c.6,0,1.2.2,1.6.6.5.5.7,1.1.7,1.8v12.8c0,.6-.2,1.2-.6,1.7-.4.5-1,.8-1.7.8h-59.7c-.6,0-1.3-.2-1.7-.7-.5-.5-.7-1.2-.7-1.8v-11c0-.5.1-.9.4-1.3l37.1-43.8h-35.2c-1.2.1-2.3-.7-2.4-1.9,0-.2,0-.4,0-.6v-12.8Z"></path><path class="st10" d="M331.4,142.7c0-.2.2-.5.3-.7.4-.5,1-.9,1.6-1.1.3-.1.6-.2.9-.2h13.1c.5,0,1.1.2,1.5.5.3.3.6.6.9.9l1.3,2.9,27,69.5c.3.5.2,1.2-.2,1.7-.5.5-1.3.7-2,.6h-14.8c-.6,0-1.3-.1-1.8-.4-.5-.4-.8-.9-1-1.5-.7-1.7-1.4-3.5-2-5.2-.7-1.7-1.3-3.5-2-5.2h-27.2c-.7,1.7-1.3,3.5-2,5.2-.7,1.7-1.3,3.5-2,5.2-.3,1.2-1.4,2-2.6,1.9h-15.1c-.6,0-1.2-.2-1.6-.5-.4-.3-.5-.8-.2-1.5l27.9-72.2ZM340.8,164.7c-.7,1.8-1.3,3.6-2,5.7-.7,2-1.3,4-2,6.1-.7,2.1-1.3,4.1-2,6.1-.7,2-1.3,3.9-2,5.6h15.8l-7.8-23.5Z"></path><path class="st10" d="M409.6,142.7c0-.2.2-.5.3-.7.4-.5,1-.9,1.6-1.1.3-.1.6-.2.9-.2h13.1c.5,0,1.1.2,1.5.5.3.3.6.6.9.9l1.3,2.9,27,69.5c.3.5.2,1.2-.2,1.6-.5.5-1.3.7-2,.6h-14.7c-.6,0-1.3-.1-1.8-.4-.5-.4-.8-.9-1-1.5-.7-1.7-1.4-3.5-2-5.2-.6-1.7-1.3-3.5-2-5.2h-27.2c-.7,1.7-1.3,3.5-2,5.2-.7,1.7-1.3,3.5-2,5.2-.3,1.2-1.4,2-2.6,1.9h-15.1c-.6,0-1.2-.2-1.6-.5-.4-.3-.5-.8-.2-1.5l27.9-72.2ZM419,164.7c-.7,1.8-1.3,3.6-2,5.7-.7,2-1.3,4-2,6.1-.7,2.1-1.3,4.1-2,6.1-.7,2-1.3,3.9-2,5.6h15.8l-7.8-23.5Z"></path><path class="st10" d="M451.8,142.9c0-.6.2-1.2.7-1.6.5-.4,1.1-.6,1.7-.6h55.3c.6,0,1.2.2,1.6.6.5.4.8,1,.8,1.7v12.8c0,.6-.2,1.3-.6,1.8-.4.6-1.1.9-1.8.8h-17.7v56.2c0,.6-.2,1.2-.7,1.7-.4.5-1.1.8-1.7.7h-15.1c-.6,0-1.2-.3-1.6-.7-.5-.4-.8-1.1-.8-1.7v-56.3h-17.7c-.6,0-1.3-.2-1.7-.7-.5-.5-.8-1.3-.7-2v-12.7Z"></path><path class="st10" d="M576.8,215.8c-.4-.6-.7-1.2-1-1.9-.3-.7-.6-1.3-.9-2l-26.3-69c0-.2,0-.3,0-.5,0-.1,0-.3,0-.4,0-1,.6-1.4,1.9-1.4h16.5c1.2,0,2.4.8,2.7,2l15.7,46.7c1.4-3.9,2.7-7.8,4-11.7,1.3-3.9,2.5-7.8,3.8-11.7,1.3-3.9,2.5-7.8,3.8-11.7,1.3-3.9,2.6-7.8,4-11.7.4-1.2,1.5-2.1,2.8-2h16.2c.6,0,1.2.1,1.7.4.3.3.5.7.5,1.2,0,.2,0,.4,0,.6v.2l-26.5,69c-.2.5-.4,1-.6,1.6-.2.6-.5,1.1-.8,1.6-.3.5-.6.9-1.1,1.3-.4.3-.9.5-1.4.5h-12.6c-.9.1-1.7-.3-2.1-1.1"></path><path class="st10" d="M642.4,142.7c0-.2.2-.5.3-.7.2-.3.4-.5.7-.7.3-.2.6-.4.9-.5.3-.1.6-.2.9-.2h13.1c.5,0,1.1.2,1.5.5.3.3.7.6.9.9l1.3,2.9,27,69.5c.3.5.2,1.2-.2,1.7-.5.5-1.3.7-2,.6h-14.7c-.6,0-1.3-.1-1.8-.4-.5-.4-.8-.9-1-1.5-.7-1.7-1.3-3.5-2-5.2l-2-5.2h-27.2c-.7,1.7-1.3,3.5-2,5.2-.7,1.7-1.3,3.5-2,5.2-.3,1.2-1.4,2-2.6,1.9h-15.1c-.6,0-1.2-.2-1.6-.5-.4-.4-.5-1-.2-1.5l27.9-72.2ZM651.7,164.7c-.7,1.8-1.3,3.6-2,5.7-.7,2-1.3,4-2,6.1-.7,2.1-1.3,4.1-2,6.1-.7,2-1.3,3.9-2,5.6h15.8l-7.8-23.5Z"></path><path class="st10" d="M705,192.2c.6.5,1.3,1.1,2.2,1.9,1,.9,2,1.7,3.1,2.4,1.6,1.1,3.4,2,5.2,2.7,1.7.7,3.5,1,5.4,1,1.5,0,3-.2,4.4-.6,1-.3,2-.8,2.8-1.6.7-.6,1.2-1.4,1.5-2.3.3-.9.4-1.8.4-2.7,0-1.1-.4-2.1-1.2-2.8-.9-.9-1.9-1.6-3-2.2-1.2-.6-2.4-1.2-3.6-1.7-1.3-.5-2.4-.8-3.3-1.2-3.7-1.3-7.3-2.8-10.8-4.7-2.8-1.5-5.4-3.3-7.7-5.5-2-1.9-3.5-4.2-4.6-6.7-1.1-2.6-1.6-5.4-1.5-8.2,0-3,.6-6,1.9-8.7,1.3-2.6,3.2-4.9,5.5-6.7,2.6-1.9,5.5-3.4,8.6-4.3,3.7-1.1,7.4-1.6,11.2-1.5,3,0,6.1.3,9,1,3,.7,5.8,1.9,8.5,3.4,1.2.7,2.3,1.4,3.3,2.1,1,.7,2,1.4,2.8,2.1.7.6,1.3,1.2,1.9,2,.4.4.6,1,.7,1.6,0,.4-.1.9-.3,1.2-.3.5-.6.9-1,1.3l-7.9,8.4c-.4.5-1.1.8-1.7.9-.5,0-.9-.1-1.3-.4-.4-.3-.8-.6-1.3-1l-.5-.4c-.7-.6-1.5-1.2-2.3-1.8-.9-.6-1.8-1.2-2.7-1.7-1-.5-2-.9-3-1.2-1-.3-2.1-.5-3.2-.5-1.1,0-2.2.1-3.3.3-.9.2-1.8.5-2.6.9-.7.4-1.3.9-1.8,1.6-.9,1.5-.9,3.4,0,4.9.6.8,1.3,1.5,2.2,1.9,1.1.7,2.3,1.3,3.6,1.7,1.4.5,3.1,1.1,5,1.7,3.6,1.2,7,2.5,10,3.8,2.8,1.2,5.5,2.8,7.9,4.7,2.2,1.7,4,3.9,5.2,6.4,1.3,2.8,2,6,1.9,9.1,0,3.5-.7,7-2.3,10.2-1.5,3-3.7,5.7-6.3,7.8-2.8,2.2-6,3.9-9.5,5-3.8,1.2-7.7,1.8-11.7,1.8-3.9,0-7.9-.7-11.6-2.1-3.8-1.4-7.4-3.3-10.6-5.7-1.2-.9-2.4-1.9-3.5-2.9-.9-1-1.7-1.7-2.2-2.3l-.2-.2c0,0,0,0-.1-.1,0,0,0,0,0,0,0,0,0,0-.1-.1h-.1c-.6-.6-1-1.3-1.2-2.1.1-.8.5-1.5,1.2-2l8.9-8.5c.5-.4,1.1-.7,1.7-.8.4,0,.7.1,1,.3.4.3.8.6,1.2.9"></path><path class="st10" d="M758.2,142.9c0-.6.2-1.2.7-1.6.5-.4,1.1-.6,1.7-.6h55.3c.6,0,1.2.2,1.6.6.5.4.8,1,.8,1.7v12.8c0,.6-.2,1.3-.6,1.8-.4.6-1.1.9-1.8.8h-17.7v56.2c0,.6-.2,1.2-.7,1.7-.4.5-1.1.8-1.7.7h-15.1c-.6,0-1.2-.3-1.6-.7-.5-.4-.8-1.1-.8-1.7v-56.3h-17.7c-.6,0-1.3-.2-1.7-.7-.5-.5-.8-1.3-.7-2v-12.7Z"></path><path class="st10" d="M873.9,162.2c-1.7-1.2-3.6-2.2-5.6-2.9-2.1-.7-4.2-1-6.4-1-5.3,0-10.3,2.1-13.9,6-1.7,1.9-3.1,4.1-4,6.5-1,2.5-1.5,5.2-1.4,7.9,0,2.7.5,5.4,1.4,7.9.9,2.4,2.3,4.6,4,6.5,1.7,1.8,3.8,3.3,6.1,4.3,2.5,1.1,5.1,1.6,7.8,1.6,1.2,0,2.4,0,3.6-.3,1.2-.2,2.4-.4,3.8-.7v-13.5c0-.6.2-1.2.6-1.6.4-.5,1.1-.7,1.7-.6h14c.6,0,1.2.2,1.6.6.6.4.9,1,.9,1.6v24.9c0,1-.6,1.8-1.5,2.3-1.7,1.1-3.5,2.1-5.3,2.8-2,.8-4,1.5-6.1,2-4.2,1-8.5,1.5-12.8,1.5-3.5,0-7-.5-10.5-1.4-3.3-.9-6.4-2.3-9.4-4-5.8-3.4-10.6-8.2-14.1-14-1.7-2.9-3.1-6.1-4-9.3-2.8-10.2-1.4-21.2,4-30.3,1.7-2.9,3.8-5.6,6.1-8,2.4-2.4,5-4.4,7.9-6.1,2.9-1.7,6.1-3,9.4-3.9,7.2-2,14.9-1.9,22.1.3,3.7,1.2,7.1,2.8,10.3,5,.6.3,1,.8,1.3,1.4.3.6.2,1.4-.2,1.9l-8.3,12c-.3.5-.8.8-1.3,1.1-.7.1-1.3,0-1.8-.5"></path><path class="st10" d="M898.9,178.9c0-7,1.8-13.8,5.3-19.8,1.7-2.9,3.8-5.6,6.1-8,2.4-2.4,5-4.4,7.9-6.1,2.9-1.7,6.1-3,9.4-3.9,6.8-1.9,14.1-1.9,20.9,0,3.3.9,6.5,2.2,9.4,3.9,2.9,1.7,5.6,3.8,8,6.1,2.4,2.4,4.5,5.1,6.1,8,1.7,3,3.1,6.1,4,9.4,1.9,6.8,1.9,14.1,0,20.9-.9,3.3-2.3,6.4-4,9.3-1.7,2.9-3.8,5.6-6.1,7.9-2.4,2.4-5.1,4.4-8,6.1-2.9,1.7-6.1,3.1-9.4,4-6.8,1.8-14,1.8-20.9,0-3.3-.9-6.4-2.3-9.4-4-2.9-1.7-5.6-3.8-7.9-6.1-2.4-2.4-4.4-5-6.1-7.9-1.7-2.9-3.1-6.1-4-9.3-.9-3.4-1.4-6.9-1.3-10.5M918.8,178.9c0,2.7.5,5.4,1.4,8,.9,2.4,2.3,4.6,4,6.4,1.7,1.8,3.8,3.3,6.1,4.3,5,2.1,10.6,2.1,15.6,0,2.3-1,4.4-2.5,6.2-4.3,1.7-1.9,3.1-4.1,4-6.4,1.9-5.1,1.9-10.8,0-15.9-.9-2.4-2.3-4.6-4-6.5-1.7-1.9-3.8-3.3-6.2-4.4-7.4-3.3-16.2-1.6-21.8,4.4-1.7,1.9-3.1,4.1-4,6.5-1,2.5-1.4,5.2-1.4,7.8h0Z"></path><path class="st10" d="M989.6,143c0-.6.2-1.2.6-1.7.4-.4,1-.7,1.7-.7h51c.7,0,1.3.2,1.8.7.4.5.6,1.1.6,1.8v12.7c0,.6-.2,1.2-.6,1.7-.4.5-1.1.8-1.8.8h-33.3v12.7h25.7c.6,0,1.1.1,1.6.5.5.4.7,1,.6,1.5v11.1c0,.5-.2,1-.6,1.4-.4.5-1,.7-1.6.7h-25.7v13.2h34.5c1.1-.2,2.2.6,2.3,1.8,0,.2,0,.4,0,.6v12.9c0,.4-.1.7-.4.9-.1,1-.8,1.4-2.1,1.4h-51.9c-.6,0-1.2-.2-1.6-.5-.4-.4-.7-1.1-.6-1.7v-71.7Z"></path><path class="st10" d="M1124.6,178.9c0,3.5-.5,7-1.4,10.3-.9,3.2-2.3,6.3-4,9.1-3.4,5.7-8.2,10.3-14,13.5-3,1.6-6.1,2.9-9.4,3.7-3.4.9-6.9,1.3-10.4,1.3h-25.3c-.6,0-1.1-.1-1.7-.4-.5-.3-.7-.8-.7-1.7v-71.7c0-.6.2-1.3.6-1.8.5-.5,1.1-.7,1.8-.7h25.3c3.5,0,7,.4,10.4,1.3,6.5,1.7,12.4,5.1,17.3,9.7,2.4,2.3,4.5,4.9,6.1,7.7,1.7,2.9,3,6,4,9.2.9,3.4,1.4,6.8,1.4,10.3M1077.6,159v39.5h4.3c.8,0,1.6,0,2.3,0l2.3-.2c2.5-.2,4.9-.8,7.2-1.9,2.2-1,4.1-2.4,5.8-4.1,1.7-1.7,3-3.8,3.9-6,1-2.4,1.4-4.9,1.4-7.5,0-2.7-.5-5.4-1.6-7.9-2.1-4.8-6-8.5-10.9-10.4-2.5-1-5.2-1.5-7.9-1.5h-6.8Z"></path><path class="st10" d="M193.6,187.2c-7.1,25.7-17,50.7-29.3,74.4-1.6,3-3.2,6.1-4.8,9.1-2.4,4.3-5.9,7.8-10.2,10.1l-3.6-2.9c-1.9-1.5-3.5-2.9-5.1-4.3-3-2.7-5.8-5.7-8.4-8.8-1.2-1.5-2.4-3-3.6-4.7-1.5-2.1-2.9-4.2-4.2-6.5-8-13.4-11.2-29-13.3-42.5-.3-2.3-.7-4.5-1-6.8-2.1-13.6-4.2-27.8-9.1-41.4-4.9-13.6-11.9-26.5-20.7-38-.9-1.2-1.9-2.4-3-3.8l-.6-.7c-2.3-2.8-4.8-5.6-7.2-8.1-.8-.8-1.6-1.6-2.4-2.4,9.7-5.1,19.3-9.7,28.3-13.4,7.8-3.2,16.8-2.3,23.8,2.5,25.9,18,49.2,39.5,69.3,63.9,5.5,6.8,7.4,15.8,5.2,24.3"></path></g></g></g><g id="LOGO_-_Zakelijk" class="st9"><g class="st11"><g class="st7"><path class="st13" d="M124.3,284.3c-27.6,1.4-58.5-.4-82.4-5.1-8.2-1.5-15-7.3-18-15.1C13.4,236.3,3.4,195.4.1,166.9c-.9-8.3,2.5-16.5,9.2-21.6,11.5-8.7,23.5-16.7,36-23.9l.5.7c1.1,1.5,2.1,2.8,2.9,4,1.9,2.7,3.6,5.4,5.2,8.1.8,1.3,1.6,2.7,2.4,4.3,3.9,7.3,7.1,15,9.5,22.9,3,10.1,4.6,20.4,6.2,31.4.9,6.2,1.9,12.5,3.1,18.9,1.6,8.9,4.2,17.6,7.8,26,3.6,8.2,8.3,15.9,14,22.9,2.5,3.1,5.2,6,8,8.8,1.9,1.9,3.9,3.7,6.1,5.6,1.7,1.4,3.3,2.7,5,3.9,2.7,2,5.5,3.8,8.4,5.5"></path><path class="st13" d="M1133.9,198c-3.2,1.6-6.1,3.6-8.8,5.9-.3.3-.5.7-.4,1.1.5,3.3,1.5,6.6,2.9,9.7.2.4.6.7,1,.8,3.2.6,6.4.8,9.6.7.4,0,.8-.3,1.1-.6,1.8-2.9,3.3-6.1,4.2-9.5.1-.4,0-.8-.3-1.1-2.5-2.6-5.2-4.9-8.2-6.9-.3-.2-.8-.2-1.1,0"></path><polygon class="st13" points="260.5 279.2 261.5 272.4 266.9 272.4 266.9 284.7 234.8 284.7 234.8 279.6 256.5 250.4 241.6 250.4 240.7 257.1 235.2 257.1 235.2 244.8 265.5 244.8 265.5 249.8 243.5 279.2 260.5 279.2"></polygon><path class="st13" d="M285.2,285.5c-4.2,0-7.3-1-9.5-3-2.2-2-3.2-4.9-3.2-8.6s.7-4.8,2.1-6.6c1.4-1.9,3.4-3.4,6-4.4,2.6-1,5.8-1.5,9.4-1.5h7.1v-3.9c0-2.4-.7-4.3-2.2-5.6-1.5-1.3-3.5-2-6.2-2s-3.1.2-4.3.6c-1.2.4-2.3,1-3.4,1.7l-.8,5.6h-5.6v-9.1c3.6-2.9,8.3-4.4,14.2-4.4s8.6,1.2,11.4,3.5c2.8,2.3,4.1,5.6,4.1,9.9v19.2c0,.5,0,1,0,1.5,0,.5,0,1,0,1.5l3.9.4v4.6h-10.4c-.4-2-.7-3.8-.8-5.5-1.4,1.8-3.2,3.3-5.3,4.5-2.1,1.2-4.3,1.8-6.7,1.8M286.2,279.4c2.4,0,4.6-.6,6.6-1.7,2-1.2,3.4-2.5,4.3-4.2v-7.2h-7.4c-3.3,0-5.8.8-7.5,2.4-1.7,1.6-2.5,3.4-2.5,5.3,0,3.6,2.2,5.4,6.5,5.4"></path><polygon class="st13" points="354.1 249.5 349 250.5 337.7 261.7 351.5 279.2 357.2 280.1 357.2 284.7 339.2 284.7 339.2 280.1 343.3 279.6 343.2 279.4 333.1 266.4 326.9 272.7 326.9 279 332.9 280.1 332.9 284.7 313.6 284.7 313.6 280.1 319.6 279 319.6 232.9 313.6 231.9 313.6 227.2 326.9 227.2 326.9 264.3 341 250.2 341.2 250 336.9 249.5 336.9 244.8 354.1 244.8 354.1 249.5"></polygon><path class="st13" d="M378.1,285.5c-3.7,0-6.9-.8-9.6-2.5-2.7-1.7-4.8-4-6.3-7-1.5-3-2.2-6.5-2.2-10.4v-1.6c0-3.8.8-7.2,2.4-10.2,1.5-3,3.6-5.4,6.2-7.1,2.6-1.7,5.4-2.6,8.5-2.6s6.6.7,9,2.2c2.4,1.5,4.2,3.5,5.5,6.2,1.2,2.7,1.8,5.8,1.8,9.4v4.5h-25.9v.2c0,2.5.4,4.8,1.3,6.8.9,2,2.1,3.5,3.7,4.7,1.6,1.1,3.5,1.7,5.7,1.7s4.6-.3,6.5-1c1.9-.7,3.5-1.7,4.8-2.9l2.8,4.7c-1.4,1.4-3.3,2.5-5.7,3.5-2.3.9-5.2,1.4-8.5,1.4M367.6,260.6v.2h18.5v-1c0-1.9-.3-3.7-1-5.2-.7-1.5-1.7-2.7-3-3.6-1.3-.9-3-1.3-5-1.3s-3.1.5-4.4,1.4c-2.8,2-4.4,5.1-5,9.4"></path><polygon class="st13" points="411.8 227.2 411.8 279 417.8 280.1 417.8 284.7 398.6 284.7 398.6 280.1 404.6 279 404.6 232.9 398.6 231.9 398.6 227.2 411.8 227.2"></polygon><path class="st13" d="M436,244.8v34.2l6,1v4.6h-19.3v-4.6l6-1v-28.5l-6-1v-4.7h13.3ZM428.4,227.2h7.6v7.8h-7.6v-7.8Z"></path><path class="st13" d="M446.3,300.8c-.8,0-1.5,0-2.1-.2-.6-.1-1.3-.3-2-.5l.5-5.5c.3.1.9.2,1.8.3.8,0,1.5.1,1.9.1,1.4,0,2.6-.6,3.4-1.9.8-1.3,1.3-3,1.3-5.2v-37.4l-6-1v-4.7h13.3v43.2c0,4.1-1.1,7.3-3.2,9.5-2.1,2.2-5,3.3-8.8,3.3M450.7,227.2h7.6v7.8h-7.6v-7.8Z"></path><polygon class="st13" points="506.4 249.5 501.3 250.5 490.1 261.7 503.9 279.2 509.6 280.1 509.6 284.7 491.6 284.7 491.6 280.1 495.6 279.6 495.5 279.4 485.4 266.4 479.3 272.7 479.3 279 485.3 280.1 485.3 284.7 466 284.7 466 280.1 472 279 472 232.9 466 231.9 466 227.2 479.3 227.2 479.3 264.3 493.4 250.2 493.5 250 489.3 249.5 489.3 244.8 506.4 244.8 506.4 249.5"></polygon><path class="st10" d="M233.7,142.3c0-.6.2-1.2.6-1.6.5-.4,1.1-.7,1.8-.6h59.6c.6,0,1.2.2,1.7.6.5.4.8,1.1.7,1.7v11.1c0,.3-.1.6-.3.9l-37.2,44.3h35.3c.6,0,1.2.2,1.6.6.5.5.7,1.1.7,1.8v12.8c0,.6-.2,1.2-.6,1.7-.4.5-1,.8-1.7.8h-59.7c-.6,0-1.3-.2-1.7-.7-.5-.5-.7-1.2-.7-1.8v-11c0-.5.1-.9.4-1.3l37.1-43.8h-35.2c-1.2.1-2.3-.7-2.4-1.9,0-.2,0-.4,0-.6v-12.8Z"></path><path class="st10" d="M331.4,142c0-.2.2-.5.3-.7.4-.5,1-.9,1.6-1.1.3-.1.6-.2.9-.2h13.1c.5,0,1.1.2,1.5.5.3.3.6.6.9.9l1.3,2.9,27,69.5c.3.5.2,1.2-.2,1.7-.5.5-1.3.7-2,.6h-14.8c-.6,0-1.3-.1-1.8-.4-.5-.4-.8-.9-1-1.5-.7-1.7-1.4-3.5-2-5.2-.7-1.7-1.3-3.5-2-5.2h-27.2c-.7,1.7-1.3,3.5-2,5.2-.7,1.7-1.3,3.5-2,5.2-.3,1.2-1.4,2-2.6,1.9h-15.1c-.6,0-1.2-.2-1.6-.5-.4-.3-.5-.8-.2-1.5l27.9-72.2ZM340.8,164c-.7,1.8-1.3,3.6-2,5.7-.7,2-1.3,4-2,6.1-.7,2.1-1.3,4.1-2,6.1-.7,2-1.3,3.9-2,5.6h15.8l-7.8-23.5Z"></path><path class="st10" d="M409.6,142c0-.2.2-.5.3-.7.4-.5,1-.9,1.6-1.1.3-.1.6-.2.9-.2h13.1c.5,0,1.1.2,1.5.5.3.3.6.6.9.9l1.3,2.9,27,69.5c.3.5.2,1.2-.2,1.6-.5.5-1.3.7-2,.6h-14.7c-.6,0-1.3-.1-1.8-.4-.5-.4-.8-.9-1-1.5-.7-1.7-1.4-3.5-2-5.2-.6-1.7-1.3-3.5-2-5.2h-27.2c-.7,1.7-1.3,3.5-2,5.2-.7,1.7-1.3,3.5-2,5.2-.3,1.2-1.4,2-2.6,1.9h-15.1c-.6,0-1.2-.2-1.6-.5-.4-.3-.5-.8-.2-1.5l27.9-72.2ZM419,164c-.7,1.8-1.3,3.6-2,5.7-.7,2-1.3,4-2,6.1-.7,2.1-1.3,4.1-2,6.1-.7,2-1.3,3.9-2,5.6h15.8l-7.8-23.5Z"></path><path class="st10" d="M451.8,142.3c0-.6.2-1.2.7-1.6.5-.4,1.1-.6,1.7-.6h55.3c.6,0,1.2.2,1.6.6.5.4.8,1,.8,1.7v12.8c0,.6-.2,1.3-.6,1.8-.4.6-1.1.9-1.8.8h-17.7v56.2c0,.6-.2,1.2-.7,1.7-.4.5-1.1.8-1.7.7h-15.1c-.6,0-1.2-.3-1.6-.7-.5-.4-.8-1.1-.8-1.7v-56.3h-17.7c-.6,0-1.3-.2-1.7-.7-.5-.5-.8-1.3-.7-2v-12.7Z"></path><path class="st10" d="M576.8,215.2c-.4-.6-.7-1.2-1-1.9-.3-.7-.6-1.3-.9-2l-26.3-69c0-.2,0-.3,0-.5,0-.1,0-.3,0-.4,0-1,.6-1.4,1.9-1.4h16.5c1.2,0,2.4.8,2.7,2l15.7,46.7c1.4-3.9,2.7-7.8,4-11.7,1.3-3.9,2.5-7.8,3.8-11.7,1.3-3.9,2.5-7.8,3.8-11.7,1.3-3.9,2.6-7.8,4-11.7.4-1.2,1.5-2.1,2.8-2h16.2c.6,0,1.2.1,1.7.4.3.3.5.7.5,1.2,0,.2,0,.4,0,.6v.2l-26.5,69c-.2.5-.4,1-.6,1.6-.2.6-.5,1.1-.8,1.6-.3.5-.6.9-1.1,1.3-.4.3-.9.5-1.4.5h-12.6c-.9.1-1.7-.3-2.1-1.1"></path><path class="st10" d="M642.4,142c0-.2.2-.5.3-.7.2-.3.4-.5.7-.7.3-.2.6-.4.9-.5.3-.1.6-.2.9-.2h13.1c.5,0,1.1.2,1.5.5.3.3.7.6.9.9l1.3,2.9,27,69.5c.3.5.2,1.2-.2,1.7-.5.5-1.3.7-2,.6h-14.7c-.6,0-1.3-.1-1.8-.4-.5-.4-.8-.9-1-1.5-.7-1.7-1.3-3.5-2-5.2l-2-5.2h-27.2c-.7,1.7-1.3,3.5-2,5.2-.7,1.7-1.3,3.5-2,5.2-.3,1.2-1.4,2-2.6,1.9h-15.1c-.6,0-1.2-.2-1.6-.5-.4-.4-.5-1-.2-1.5l27.9-72.2ZM651.7,164c-.7,1.8-1.3,3.6-2,5.7-.7,2-1.3,4-2,6.1-.7,2.1-1.3,4.1-2,6.1-.7,2-1.3,3.9-2,5.6h15.8l-7.8-23.5Z"></path><path class="st10" d="M705,191.6c.6.5,1.3,1.1,2.2,1.9,1,.9,2,1.7,3.1,2.4,1.6,1.1,3.4,2,5.2,2.7,1.7.7,3.5,1,5.4,1,1.5,0,3-.2,4.4-.6,1-.3,2-.8,2.8-1.6.7-.6,1.2-1.4,1.5-2.3.3-.9.4-1.8.4-2.7,0-1.1-.4-2.1-1.2-2.8-.9-.9-1.9-1.6-3-2.2-1.2-.6-2.4-1.2-3.6-1.7-1.3-.5-2.4-.8-3.3-1.2-3.7-1.3-7.3-2.8-10.8-4.7-2.8-1.5-5.4-3.3-7.7-5.5-2-1.9-3.5-4.2-4.6-6.7-1.1-2.6-1.6-5.4-1.5-8.2,0-3,.6-6,1.9-8.7,1.3-2.6,3.2-4.9,5.5-6.7,2.6-1.9,5.5-3.4,8.6-4.3,3.7-1.1,7.4-1.6,11.2-1.5,3,0,6.1.3,9,1,3,.7,5.8,1.9,8.5,3.4,1.2.7,2.3,1.4,3.3,2.1,1,.7,2,1.4,2.8,2.1.7.6,1.3,1.2,1.9,2,.4.4.6,1,.7,1.6,0,.4-.1.9-.3,1.2-.3.5-.6.9-1,1.3l-7.9,8.4c-.4.5-1.1.8-1.7.9-.5,0-.9-.1-1.3-.4-.4-.3-.8-.6-1.3-1l-.5-.4c-.7-.6-1.5-1.2-2.3-1.8-.9-.6-1.8-1.2-2.7-1.7-1-.5-2-.9-3-1.2-1-.3-2.1-.5-3.2-.5-1.1,0-2.2.1-3.3.3-.9.2-1.8.5-2.6.9-.7.4-1.3.9-1.8,1.6-.9,1.5-.9,3.4,0,4.9.6.8,1.3,1.5,2.2,1.9,1.1.7,2.3,1.3,3.6,1.7,1.4.5,3.1,1.1,5,1.7,3.6,1.2,7,2.5,10,3.8,2.8,1.2,5.5,2.8,7.9,4.7,2.2,1.7,4,3.9,5.2,6.4,1.3,2.8,2,6,1.9,9.1,0,3.5-.7,7-2.3,10.2-1.5,3-3.7,5.7-6.3,7.8-2.8,2.2-6,3.9-9.5,5-3.8,1.2-7.7,1.8-11.7,1.8-3.9,0-7.9-.7-11.6-2.1-3.8-1.4-7.4-3.3-10.6-5.7-1.2-.9-2.4-1.9-3.5-2.9-.9-1-1.7-1.7-2.2-2.3l-.2-.2c0,0,0,0-.1-.1,0,0,0,0,0,0,0,0,0,0-.1-.1h-.1c-.6-.6-1-1.3-1.2-2.1.1-.8.5-1.5,1.2-2l8.9-8.5c.5-.4,1.1-.7,1.7-.8.4,0,.7.1,1,.3.4.3.8.6,1.2.9"></path><path class="st10" d="M758.2,142.3c0-.6.2-1.2.7-1.6.5-.4,1.1-.6,1.7-.6h55.3c.6,0,1.2.2,1.6.6.5.4.8,1,.8,1.7v12.8c0,.6-.2,1.3-.6,1.8-.4.6-1.1.9-1.8.8h-17.7v56.2c0,.6-.2,1.2-.7,1.7-.4.5-1.1.8-1.7.7h-15.1c-.6,0-1.2-.3-1.6-.7-.5-.4-.8-1.1-.8-1.7v-56.3h-17.7c-.6,0-1.3-.2-1.7-.7-.5-.5-.8-1.3-.7-2v-12.7Z"></path><path class="st10" d="M873.9,161.5c-1.7-1.2-3.6-2.2-5.6-2.9-2.1-.7-4.2-1-6.4-1-5.3,0-10.3,2.1-13.9,6-1.7,1.9-3.1,4.1-4,6.5-1,2.5-1.5,5.2-1.4,7.9,0,2.7.5,5.4,1.4,7.9.9,2.4,2.3,4.6,4,6.5,1.7,1.8,3.8,3.3,6.1,4.3,2.5,1.1,5.1,1.6,7.8,1.6,1.2,0,2.4,0,3.6-.3,1.2-.2,2.4-.4,3.8-.7v-13.5c0-.6.2-1.2.6-1.6.4-.5,1.1-.7,1.7-.6h14c.6,0,1.2.2,1.6.6.6.4.9,1,.9,1.6v24.9c0,1-.6,1.8-1.5,2.3-1.7,1.1-3.5,2.1-5.3,2.8-2,.8-4,1.5-6.1,2-4.2,1-8.5,1.5-12.8,1.5-3.5,0-7-.5-10.5-1.4-3.3-.9-6.4-2.3-9.4-4-5.8-3.4-10.6-8.2-14.1-14-1.7-2.9-3.1-6.1-4-9.3-2.8-10.2-1.4-21.2,4-30.3,1.7-2.9,3.8-5.6,6.1-8,2.4-2.4,5-4.4,7.9-6.1,2.9-1.7,6.1-3,9.4-3.9,7.2-2,14.9-1.9,22.1.3,3.7,1.2,7.1,2.8,10.3,5,.6.3,1,.8,1.3,1.4.3.6.2,1.4-.2,1.9l-8.3,12c-.3.5-.8.8-1.3,1.1-.7.1-1.3,0-1.8-.5"></path><path class="st10" d="M898.9,178.2c0-7,1.8-13.8,5.3-19.8,1.7-2.9,3.8-5.6,6.1-8,2.4-2.4,5-4.4,7.9-6.1,2.9-1.7,6.1-3,9.4-3.9,6.8-1.9,14.1-1.9,20.9,0,3.3.9,6.5,2.2,9.4,3.9,2.9,1.7,5.6,3.8,8,6.1,2.4,2.4,4.5,5.1,6.1,8,1.7,3,3.1,6.1,4,9.4,1.9,6.8,1.9,14.1,0,20.9-.9,3.3-2.3,6.4-4,9.3-1.7,2.9-3.8,5.6-6.1,7.9-2.4,2.4-5.1,4.4-8,6.1-2.9,1.7-6.1,3.1-9.4,4-6.8,1.8-14,1.8-20.9,0-3.3-.9-6.4-2.3-9.4-4-2.9-1.7-5.6-3.8-7.9-6.1-2.4-2.4-4.4-5-6.1-7.9-1.7-2.9-3.1-6.1-4-9.3-.9-3.4-1.4-6.9-1.3-10.5M918.8,178.2c0,2.7.5,5.4,1.4,8,.9,2.4,2.3,4.6,4,6.4,1.7,1.8,3.8,3.3,6.1,4.3,5,2.1,10.6,2.1,15.6,0,2.3-1,4.4-2.5,6.2-4.3,1.7-1.9,3.1-4.1,4-6.4,1.9-5.1,1.9-10.8,0-15.9-.9-2.4-2.3-4.6-4-6.5-1.7-1.9-3.8-3.3-6.2-4.4-7.4-3.3-16.2-1.6-21.8,4.4-1.7,1.9-3.1,4.1-4,6.5-1,2.5-1.4,5.2-1.4,7.8h0Z"></path><path class="st10" d="M989.6,142.4c0-.6.2-1.2.6-1.7.4-.4,1-.7,1.7-.7h51c.7,0,1.3.2,1.8.7.4.5.6,1.1.6,1.8v12.7c0,.6-.2,1.2-.6,1.7-.4.5-1.1.8-1.8.8h-33.3v12.7h25.7c.6,0,1.1.1,1.6.5.5.4.7,1,.6,1.5v11.1c0,.5-.2,1-.6,1.4-.4.5-1,.7-1.6.7h-25.7v13.2h34.5c1.1-.2,2.2.6,2.3,1.8,0,.2,0,.4,0,.6v12.9c0,.4-.1.7-.4.9-.1,1-.8,1.4-2.1,1.4h-51.9c-.6,0-1.2-.2-1.6-.5-.4-.4-.7-1.1-.6-1.7v-71.7Z"></path><path class="st10" d="M1124.6,178.2c0,3.5-.5,7-1.4,10.3-.9,3.2-2.3,6.3-4,9.1-3.4,5.7-8.2,10.3-14,13.5-3,1.6-6.1,2.9-9.4,3.7-3.4.9-6.9,1.3-10.4,1.3h-25.3c-.6,0-1.1-.1-1.7-.4-.5-.3-.7-.8-.7-1.7v-71.7c0-.6.2-1.3.6-1.8.5-.5,1.1-.7,1.8-.7h25.3c3.5,0,7,.4,10.4,1.3,6.5,1.7,12.4,5.1,17.3,9.7,2.4,2.3,4.5,4.9,6.1,7.7,1.7,2.9,3,6,4,9.2.9,3.4,1.4,6.8,1.4,10.3M1077.6,158.4v39.5h4.3c.8,0,1.6,0,2.3,0l2.3-.2c2.5-.2,4.9-.8,7.2-1.9,2.2-1,4.1-2.4,5.8-4.1,1.7-1.7,3-3.8,3.9-6,1-2.4,1.4-4.9,1.4-7.5,0-2.7-.5-5.4-1.6-7.9-2.1-4.8-6-8.5-10.9-10.4-2.5-1-5.2-1.5-7.9-1.5h-6.8Z"></path><path class="st10" d="M193.6,186.5c-7.1,25.7-17,50.7-29.3,74.4-1.6,3-3.2,6.1-4.8,9.1-2.4,4.3-5.9,7.8-10.2,10.1l-3.6-2.9c-1.9-1.5-3.5-2.9-5.1-4.3-3-2.7-5.8-5.7-8.4-8.8-1.2-1.5-2.4-3-3.6-4.7-1.5-2.1-2.9-4.2-4.2-6.5-8-13.4-11.2-29-13.3-42.5-.3-2.3-.7-4.5-1-6.8-2.1-13.6-4.2-27.8-9.1-41.4-4.9-13.6-11.9-26.5-20.7-38-.9-1.2-1.9-2.4-3-3.8l-.6-.7c-2.3-2.8-4.8-5.6-7.2-8.1-.8-.8-1.6-1.6-2.4-2.4,9.7-5.1,19.3-9.7,28.3-13.4,7.8-3.2,16.8-2.3,23.8,2.5,25.9,18,49.2,39.5,69.3,63.9,5.5,6.8,7.4,15.8,5.2,24.3"></path></g></g></g><g id="LOGO_-_Wonen"><g id="WONEN"><g id="GOUDGEEL"><path class="st8" d="M124.3,283.8c-27.6,1.4-58.5-.4-82.4-5.1-8.2-1.6-15-7.3-18-15.1C13.4,235.8,3.4,194.9.2,166.4c-.9-8.3,2.5-16.5,9.2-21.6,11.5-8.7,23.5-16.7,36-23.9l.5.7c1.1,1.5,2,2.8,2.9,4,1.9,2.7,3.6,5.4,5.2,8.1.8,1.3,1.6,2.7,2.4,4.3,3.9,7.3,7.1,15,9.5,22.9,3,10.1,4.6,20.4,6.2,31.4.9,6.2,1.9,12.6,3.1,18.9,1.6,8.9,4.2,17.6,7.8,26,3.6,8.2,8.3,15.9,13.9,22.9,2.5,3.1,5.2,6,8,8.8,1.9,1.9,3.9,3.7,6.1,5.6,1.7,1.4,3.3,2.7,5,3.9,2.7,2,5.5,3.8,8.4,5.5h0Z"></path><path class="st8" d="M1133.9,197.5c-3.2,1.6-6.1,3.6-8.8,5.9-.3.3-.5.7-.4,1.1.5,3.3,1.5,6.6,2.9,9.7.2.4.6.7,1,.8,3.2.6,6.4.8,9.6.7.4,0,.8-.3,1.1-.6,1.8-2.9,3.3-6.1,4.2-9.5.1-.4,0-.8-.3-1.1-2.5-2.6-5.2-4.9-8.2-6.9-.3-.2-.8-.2-1.1,0h0Z"></path><g><path class="st8" d="M265.4,253.9h-.2s-1.9,6.4-1.9,6.4l-8.7,23.9h-6.2l-10.5-34.7-4.5-.5v-4.7h16.5v4.7l-4.9.8,5.5,19.9,1.2,4.7h.2l1.6-4.7,8.7-25.4h6.1l8.2,25.3,1.8,5.6h.2l1.7-5.6,5.6-19.8-5-.8v-4.7h16.1v4.7l-4.4.6-10.3,34.6h-6.9l-8.1-23.9-1.9-6.4h0Z"></path><path class="st8" d="M319.4,285c-3.7,0-6.8-.9-9.5-2.6-2.7-1.7-4.7-4.1-6.2-7.2s-2.2-6.5-2.2-10.5v-.8c0-3.9.7-7.4,2.2-10.5,1.5-3.1,3.5-5.5,6.2-7.2,2.7-1.7,5.8-2.6,9.5-2.6s6.8.9,9.5,2.6c2.6,1.7,4.7,4.1,6.1,7.2,1.5,3.1,2.2,6.6,2.2,10.5v.8c0,3.9-.7,7.4-2.2,10.5-1.5,3.1-3.5,5.4-6.1,7.2s-5.8,2.6-9.5,2.6h0ZM319.4,279.3c2.3,0,4.2-.6,5.8-1.9,1.5-1.2,2.7-3,3.5-5.2s1.2-4.7,1.2-7.5v-.8c0-2.8-.4-5.3-1.2-7.5-.8-2.2-2-3.9-3.6-5.2-1.6-1.3-3.5-1.9-5.9-1.9s-4.2.6-5.8,1.9c-1.6,1.3-2.8,3-3.5,5.2-.8,2.2-1.2,4.7-1.2,7.5v.8c0,2.8.4,5.3,1.2,7.5s2,3.9,3.6,5.2c1.6,1.3,3.5,1.9,5.9,1.9h0Z"></path><path class="st8" d="M356.1,278.5l6,1v4.6h-19.3v-4.6l6-1v-28.5l-6-1v-4.7h12.5l.5,5.9c1.3-2.1,3-3.8,5-4.9s4.3-1.8,6.8-1.8c4.3,0,7.6,1.3,10,3.8s3.5,6.4,3.5,11.7v19.5l6,1v4.6h-19.3v-4.6l6-1v-19.4c0-3.5-.7-6-2.1-7.5-1.4-1.5-3.5-2.2-6.4-2.2s-3.9.5-5.5,1.5-2.9,2.4-3.9,4.1v23.4h0Z"></path><path class="st8" d="M410.5,285c-3.7,0-6.9-.9-9.6-2.5-2.7-1.7-4.8-4-6.3-7-1.5-3-2.2-6.5-2.2-10.4v-1.6c0-3.8.8-7.2,2.4-10.2,1.5-3,3.6-5.4,6.2-7.1s5.4-2.6,8.5-2.6,6.6.7,9,2.2c2.4,1.5,4.2,3.5,5.5,6.2,1.2,2.7,1.8,5.8,1.8,9.4v4.5h-25.9v.2c0,2.5.4,4.8,1.2,6.8.9,2,2.1,3.6,3.7,4.7s3.5,1.7,5.7,1.7,4.6-.4,6.5-1.1c1.9-.7,3.5-1.7,4.8-2.9l2.8,4.7c-1.4,1.4-3.3,2.5-5.7,3.5-2.4.9-5.2,1.4-8.5,1.4h0ZM400,260.1v.2h18.5v-1c0-1.9-.3-3.7-1-5.2-.7-1.5-1.7-2.7-3-3.6s-3-1.3-5-1.3-3.1.5-4.4,1.4c-2.8,2-4.4,5.1-5,9.4h0Z"></path><path class="st8" d="M444.6,278.5l6,1v4.6h-19.3v-4.6l6-1v-28.5l-6-1v-4.7h12.5l.5,5.9c1.3-2.1,3-3.8,5-4.9s4.3-1.8,6.8-1.8c4.3,0,7.6,1.3,10,3.8s3.5,6.4,3.5,11.7v19.5l6,1v4.6h-19.3v-4.6l6-1v-19.4c0-3.5-.7-6-2.1-7.5-1.4-1.5-3.5-2.2-6.4-2.2s-3.9.5-5.5,1.5-2.9,2.4-3.9,4.1v23.4h0Z"></path></g></g></g><g id="BASIS"><g id="BLAUW"><path class="st10" d="M233.7,141.8c0-.6.2-1.2.6-1.6.5-.4,1.1-.7,1.8-.6h59.6c.6,0,1.2.2,1.7.6.5.4.8,1,.7,1.7v11.1c0,.3-.1.6-.3.9l-37.2,44.3h35.3c.6,0,1.2.2,1.6.6.5.4.7,1.1.7,1.8v12.8c0,.6-.2,1.2-.6,1.7-.4.5-1,.8-1.7.8h-59.7c-.6,0-1.3-.2-1.7-.7-.5-.5-.7-1.2-.7-1.8v-11c0-.5.1-.9.4-1.3l37.1-43.8h-35.2c-1.2.2-2.3-.7-2.4-1.9,0-.2,0-.4,0-.6v-12.8s0,0,0,0Z"></path><path class="st10" d="M331.4,141.5c0-.2.2-.5.3-.7.4-.5,1-.9,1.6-1.2.3-.1.6-.2.9-.2h13.1c.5,0,1.1.2,1.5.5.3.3.6.6.9,1l1.3,2.9,27,69.5c.3.5.2,1.2-.1,1.7-.5.5-1.3.7-2,.6h-14.8c-.6,0-1.3-.1-1.8-.4-.5-.4-.8-.9-1-1.5-.7-1.7-1.4-3.5-2-5.2s-1.3-3.5-2-5.2h-27.2c-.7,1.7-1.3,3.5-2,5.2s-1.3,3.5-2,5.2c-.3,1.2-1.4,2-2.6,1.9h-15.1c-.6,0-1.1-.2-1.6-.5-.4-.3-.5-.8-.2-1.5l27.9-72.2h0ZM340.8,163.5c-.7,1.8-1.3,3.6-2,5.7s-1.3,4.1-2,6.1c-.6,2.1-1.3,4.1-2,6.1s-1.3,3.9-2,5.6h15.8l-7.8-23.5Z"></path><path class="st10" d="M409.6,141.5c0-.2.2-.5.3-.7.4-.5,1-.9,1.6-1.2.3-.1.6-.2.9-.2h13.1c.5,0,1.1.2,1.5.5.3.3.6.6.9,1l1.3,2.9,27,69.5c.3.5.2,1.2-.1,1.6-.5.5-1.3.7-2,.6h-14.7c-.6,0-1.3-.1-1.8-.4-.5-.4-.8-.9-1-1.5-.7-1.7-1.4-3.5-2-5.2s-1.3-3.5-2-5.2h-27.2c-.7,1.7-1.3,3.5-2,5.2-.7,1.7-1.3,3.5-2,5.2-.3,1.2-1.4,2-2.6,1.9h-15.1c-.6,0-1.1-.2-1.6-.5-.4-.3-.5-.8-.2-1.5l27.9-72.2ZM419,163.5c-.7,1.8-1.3,3.6-2,5.7s-1.3,4.1-2,6.1c-.6,2.1-1.3,4.1-2,6.1s-1.3,3.9-2,5.6h15.8l-7.8-23.5Z"></path><path class="st10" d="M451.8,141.8c0-.6.2-1.2.7-1.6.5-.4,1.1-.6,1.7-.6h55.3c.6,0,1.2.2,1.6.6.5.4.8,1,.8,1.7v12.8c0,.6-.2,1.3-.6,1.8-.4.6-1.1.9-1.8.8h-17.7v56.2c0,.6-.2,1.2-.7,1.7-.4.5-1.1.8-1.7.7h-15.1c-.6,0-1.2-.3-1.6-.7-.5-.4-.8-1.1-.8-1.7v-56.3h-17.7c-.6,0-1.3-.2-1.7-.7-.5-.5-.8-1.3-.7-2v-12.7Z"></path><path class="st10" d="M576.8,214.7c-.4-.6-.7-1.2-1-1.9-.3-.7-.6-1.3-.8-2l-26.3-69c0-.2,0-.3,0-.5,0-.1,0-.3,0-.4,0-1,.6-1.4,1.9-1.4h16.5c1.2,0,2.4.8,2.7,2l15.7,46.7c1.4-3.9,2.7-7.8,4-11.7s2.5-7.8,3.8-11.7c1.2-3.9,2.5-7.8,3.8-11.7,1.3-3.9,2.6-7.8,4-11.7.3-1.2,1.5-2.1,2.8-2h16.2c.6,0,1.2,0,1.7.4.3.3.5.7.5,1.2,0,.2,0,.4,0,.6v.2l-26.5,69c-.2.5-.4,1-.6,1.6-.2.6-.5,1.1-.8,1.6-.3.5-.6.9-1.1,1.3-.4.3-.9.5-1.4.5h-12.6c-.9.1-1.7-.3-2.1-1.1h0Z"></path><path class="st10" d="M642.4,141.5c0-.2.2-.5.3-.7.2-.2.4-.5.7-.7.3-.2.6-.4.9-.5.3-.1.6-.2.9-.2h13.2c.5,0,1.1.2,1.5.5.3.3.7.6.9,1l1.3,2.9,27,69.5c.3.5.2,1.2-.2,1.7-.5.5-1.3.7-2,.6h-14.7c-.6,0-1.3-.1-1.8-.4-.5-.4-.8-.9-1-1.5-.7-1.7-1.3-3.5-2-5.2l-2-5.2h-27.2c-.7,1.7-1.3,3.5-2,5.2-.7,1.7-1.3,3.5-2,5.2-.3,1.2-1.4,2-2.6,1.9h-15.2c-.6,0-1.2-.2-1.6-.5-.4-.4-.5-1-.2-1.5l27.9-72.2h0ZM651.7,163.5c-.7,1.8-1.3,3.6-2,5.7s-1.3,4.1-2,6.1c-.7,2.1-1.3,4.1-2,6.1s-1.3,3.9-2,5.6h15.8l-7.8-23.5Z"></path><path class="st10" d="M705,191.1c.6.5,1.3,1.1,2.2,1.9,1,.9,2,1.7,3.1,2.4,1.6,1.1,3.4,2,5.2,2.7,1.7.7,3.5,1,5.4,1,1.5,0,3-.2,4.4-.6,1-.3,2-.8,2.8-1.6.7-.6,1.2-1.4,1.5-2.3.3-.9.4-1.8.4-2.7,0-1.1-.4-2.1-1.2-2.8-.9-.9-1.9-1.6-3-2.2-1.2-.7-2.4-1.2-3.6-1.7-1.3-.5-2.4-.8-3.3-1.2-3.7-1.3-7.3-2.8-10.8-4.7-2.8-1.5-5.4-3.3-7.7-5.5-2-1.9-3.5-4.2-4.6-6.7-1.1-2.6-1.6-5.4-1.5-8.2,0-3,.6-6,1.9-8.7,1.3-2.6,3.2-4.9,5.5-6.7,2.6-2,5.5-3.4,8.6-4.3,3.7-1,7.5-1.6,11.2-1.5,3,0,6,.3,9,1,3,.7,5.8,1.9,8.5,3.4,1.2.7,2.3,1.4,3.3,2.1s2,1.5,2.8,2.1c.7.6,1.3,1.2,1.9,2,.4.5.6,1,.7,1.6,0,.4-.1.9-.3,1.2-.3.5-.6.9-1,1.3l-7.9,8.4c-.4.5-1.1.8-1.7.9-.5,0-.9-.1-1.3-.4-.4-.3-.8-.6-1.3-1l-.5-.4c-.7-.6-1.5-1.2-2.3-1.8-.8-.6-1.8-1.2-2.7-1.7-1-.5-2-.9-3-1.2-1-.3-2.1-.5-3.2-.5s-2.2.1-3.3.3c-.9.2-1.8.5-2.6.9-.7.4-1.3.9-1.8,1.6-.9,1.5-.9,3.4,0,4.9.6.8,1.3,1.4,2.2,1.9,1.1.7,2.3,1.3,3.6,1.7,1.4.5,3.1,1.1,5,1.7,3.6,1.2,7,2.5,10,3.8,2.8,1.2,5.5,2.8,7.9,4.7,2.2,1.7,4,3.9,5.2,6.4,1.3,2.8,2,6,1.9,9.1,0,3.5-.7,7-2.3,10.2-1.5,3-3.7,5.7-6.3,7.8-2.8,2.2-6,3.9-9.5,5-3.8,1.2-7.7,1.8-11.7,1.8-4,0-7.9-.7-11.6-2.1-3.8-1.4-7.4-3.3-10.6-5.7-1.2-.9-2.4-1.9-3.5-2.9-.9-1-1.7-1.7-2.2-2.3l-.2-.2s0,0,0-.1c0,0,0,0,0,0,0,0,0,0-.1-.1h0c-.6-.6-1-1.3-1.2-2.1,0-.8.5-1.5,1.2-2l8.9-8.5c.5-.4,1.1-.7,1.7-.8.4,0,.7.1,1,.3.4.3.8.6,1.2.9h0Z"></path><path class="st10" d="M758.2,141.8c0-.6.2-1.2.7-1.6.5-.4,1.1-.6,1.7-.6h55.3c.6,0,1.2.2,1.6.6.5.4.8,1,.8,1.7v12.8c0,.6-.2,1.3-.6,1.8-.4.6-1.1.9-1.8.8h-17.7v56.2c0,.6-.2,1.2-.7,1.7-.4.5-1.1.8-1.7.7h-15.1c-.6,0-1.2-.3-1.6-.7-.5-.4-.8-1.1-.8-1.7v-56.3h-17.7c-.6,0-1.3-.2-1.7-.7-.5-.5-.8-1.3-.7-2v-12.7h0Z"></path><path class="st10" d="M873.9,161c-1.7-1.2-3.6-2.2-5.6-2.9-2-.7-4.2-1-6.4-1-5.3,0-10.3,2.1-13.9,6-1.7,1.9-3.1,4.1-4,6.5-1,2.5-1.5,5.2-1.4,7.9,0,2.7.5,5.4,1.4,7.9.9,2.4,2.3,4.6,4,6.4,1.7,1.8,3.8,3.3,6.1,4.3,2.5,1.1,5.1,1.6,7.8,1.6,1.2,0,2.4,0,3.6-.3,1.2-.2,2.4-.4,3.8-.7v-13.5c0-.6.2-1.2.6-1.6.4-.5,1.1-.7,1.7-.6h14c.6,0,1.2.2,1.6.6.5.4.9,1,.9,1.6v24.9c0,1-.6,1.8-1.5,2.3-1.7,1.1-3.5,2.1-5.3,2.8-2,.8-4,1.5-6.1,2-4.2,1-8.5,1.5-12.8,1.5-3.5,0-7-.4-10.5-1.4-3.3-.9-6.4-2.3-9.4-4-5.8-3.4-10.7-8.2-14.1-14-1.7-2.9-3.1-6.1-4-9.3-2.8-10.2-1.4-21.2,4-30.3,1.7-2.9,3.8-5.6,6.1-8,2.4-2.4,5-4.5,7.9-6.1,2.9-1.7,6.1-3,9.4-4,7.2-2,14.9-1.9,22.1.3,3.7,1.2,7.1,2.8,10.3,5,.6.3,1,.8,1.3,1.4.3.6.2,1.4-.2,1.9l-8.3,12c-.3.5-.8.8-1.3,1.1-.7.2-1.3,0-1.8-.5h0Z"></path><path class="st10" d="M898.9,177.7c0-7,1.8-13.8,5.3-19.8,1.7-2.9,3.8-5.6,6.1-8,2.4-2.4,5-4.5,7.9-6.1,3-1.7,6.1-3,9.4-4,6.8-1.9,14-1.9,20.9,0,3.3.9,6.5,2.2,9.4,4,2.9,1.7,5.6,3.8,8,6.1s4.5,5.1,6.1,8c1.7,2.9,3.1,6.1,4,9.4,1.9,6.8,1.9,14.1,0,20.9-.9,3.3-2.3,6.4-4,9.3-1.7,2.9-3.8,5.6-6.1,7.9-2.4,2.4-5.1,4.4-8,6.1-3,1.7-6.1,3.1-9.4,4-6.8,1.8-14,1.8-20.9,0-3.3-.9-6.4-2.3-9.4-4-2.9-1.7-5.6-3.8-7.9-6.1-2.4-2.4-4.4-5-6.1-7.9-1.7-2.9-3.1-6.1-4-9.3-.9-3.4-1.4-6.9-1.3-10.4ZM918.8,177.7c0,2.7.5,5.4,1.4,8,.9,2.4,2.3,4.6,4,6.4,1.7,1.8,3.8,3.3,6.1,4.3,5,2.1,10.6,2.1,15.6,0,2.3-1,4.4-2.5,6.2-4.3,1.7-1.9,3.1-4.1,4-6.4,1.9-5.1,1.9-10.8,0-15.9-.9-2.4-2.3-4.6-4-6.5-1.7-1.9-3.8-3.3-6.2-4.4-7.4-3.3-16.2-1.6-21.8,4.4-1.7,1.9-3.1,4.1-4,6.5-1,2.5-1.5,5.2-1.4,7.8h0Z"></path><path class="st10" d="M989.6,141.9c0-.6.2-1.2.6-1.7.4-.5,1-.7,1.7-.7h51c.7,0,1.3.2,1.8.7.4.5.7,1.1.6,1.8v12.7c0,.6-.2,1.2-.6,1.7-.4.5-1.1.8-1.8.8h-33.3v12.7h25.7c.6,0,1.1.1,1.6.5.5.4.7.9.6,1.5v11.1c0,.5-.2,1-.6,1.4-.4.5-1,.7-1.6.7h-25.7v13.2h34.5c1.1-.2,2.2.6,2.3,1.8,0,.2,0,.4,0,.6v12.9c0,.3-.2.7-.4.9-.1,1-.8,1.4-2.1,1.4h-51.9c-.6,0-1.2-.2-1.6-.5-.4-.4-.7-1.1-.6-1.7v-71.7h0Z"></path><path class="st10" d="M1124.6,177.7c0,3.5-.4,7-1.4,10.3-.9,3.2-2.3,6.3-4,9.1-3.4,5.7-8.2,10.3-14,13.5-3,1.6-6.1,2.9-9.4,3.7-3.4.9-6.9,1.3-10.4,1.3h-25.3c-.6,0-1.2-.1-1.7-.4-.5-.3-.7-.8-.7-1.7v-71.7c0-.6.2-1.3.6-1.8.5-.5,1.1-.7,1.8-.7h25.3c3.5,0,7,.4,10.4,1.3,6.5,1.7,12.4,5,17.3,9.7,2.4,2.3,4.4,4.9,6.1,7.7,1.7,2.9,3,6,3.9,9.2.9,3.4,1.4,6.8,1.4,10.3h0ZM1077.6,157.9v39.5h4.3c.8,0,1.6,0,2.3,0l2.3-.2c2.5-.2,4.9-.8,7.2-1.9,2.2-1,4.2-2.4,5.8-4.1,1.7-1.7,3-3.8,3.9-6,1-2.4,1.4-4.9,1.4-7.5,0-2.7-.5-5.4-1.6-7.9-2.1-4.8-6-8.5-10.9-10.4-2.5-1-5.2-1.5-7.9-1.5h-6.8Z"></path><path class="st10" d="M193.6,186c-7.1,25.7-16.9,50.7-29.3,74.4-1.6,3-3.2,6.1-4.8,9.1-2.4,4.3-5.9,7.8-10.2,10.1l-3.6-2.9c-1.9-1.5-3.5-2.9-5.1-4.3-3-2.7-5.8-5.7-8.4-8.8-1.2-1.5-2.4-3-3.6-4.6-1.5-2.1-2.9-4.2-4.2-6.4-8-13.4-11.2-29-13.3-42.5-.3-2.3-.7-4.5-1-6.8-2.1-13.6-4.2-27.7-9.1-41.4-4.9-13.6-11.9-26.5-20.7-38-.9-1.2-1.9-2.4-3-3.8l-.6-.7c-2.3-2.8-4.8-5.6-7.2-8.1-.8-.8-1.6-1.6-2.4-2.4,9.7-5.1,19.3-9.7,28.3-13.4,7.8-3.2,16.8-2.3,23.8,2.5,25.9,18,49.2,39.5,69.3,63.9,5.5,6.8,7.4,15.8,5.2,24.3h0Z"></path></g></g></g><g id="LOGO_-_Ontwikkeling" class="st9"><g><g class="st0"><path class="st1" d="M124.3,285c-27.6,1.4-58.5-.4-82.4-5.1-8.2-1.5-15-7.3-18-15.1C13.4,236.9,3.4,196,.1,167.6c-.9-8.3,2.5-16.5,9.2-21.6,11.5-8.7,23.5-16.7,36-23.9l.5.7c1.1,1.5,2,2.8,2.9,4,1.9,2.7,3.6,5.4,5.2,8.1.8,1.3,1.6,2.7,2.4,4.3,3.9,7.3,7.1,15,9.5,22.9,3,10.1,4.6,20.4,6.2,31.4.9,6.2,1.9,12.5,3.1,18.9,1.6,8.9,4.2,17.6,7.8,26,3.6,8.2,8.3,15.9,14,22.9,2.5,3.1,5.2,6,8,8.8,1.9,1.9,3.9,3.7,6.1,5.6,1.7,1.4,3.4,2.7,5,3.9,2.7,2,5.5,3.8,8.4,5.5h0Z"></path><path class="st1" d="M1133.9,198.7c-3.2,1.6-6.1,3.6-8.8,5.9-.3.3-.5.7-.4,1.1.5,3.3,1.5,6.6,2.9,9.7.2.4.6.7,1,.8,3.2.6,6.4.8,9.6.7.4,0,.8-.3,1.1-.6,1.8-2.9,3.3-6.1,4.2-9.5.1-.4,0-.8-.3-1.1-2.5-2.6-5.2-4.9-8.2-6.9-.3-.2-.8-.2-1.1,0h0Z"></path></g><path class="st1" d="M252.3,280.5c2.3,0,4.2-.6,5.8-1.9,1.5-1.3,2.7-3,3.5-5.2.8-2.2,1.2-4.7,1.2-7.5v-.8c0-2.8-.4-5.3-1.2-7.5-.8-2.2-2-3.9-3.6-5.2-1.6-1.3-3.5-1.9-5.9-1.9s-4.2.6-5.8,1.9c-1.6,1.3-2.8,3-3.5,5.2-.8,2.2-1.2,4.7-1.2,7.5v.8c0,2.8.4,5.3,1.2,7.5.8,2.2,2,3.9,3.6,5.2,1.6,1.3,3.5,1.9,5.9,1.9h0ZM252.3,286.1c-3.7,0-6.8-.9-9.5-2.6-2.7-1.7-4.7-4.1-6.2-7.2-1.4-3-2.2-6.5-2.2-10.5v-.8c0-3.9.7-7.4,2.2-10.5,1.4-3.1,3.5-5.5,6.2-7.2,2.7-1.7,5.8-2.6,9.5-2.6s6.8.9,9.5,2.6c2.7,1.7,4.7,4.1,6.2,7.2,1.4,3,2.2,6.5,2.2,10.5v.8c0,3.9-.7,7.4-2.2,10.5-1.5,3-3.5,5.4-6.2,7.2-2.7,1.7-5.8,2.6-9.5,2.6h0Z"></path><path class="st1" d="M288.9,279.7l6,1v4.6h-19.3v-4.6l6-1v-28.5l-6-1v-4.7h12.5l.5,5.9c1.3-2.1,3-3.8,5-4.9,2-1.2,4.3-1.8,6.8-1.8,4.3,0,7.6,1.3,10,3.8,2.4,2.5,3.5,6.4,3.5,11.7v19.5l6,1v4.6h-19.3v-4.6l6-1v-19.3c0-3.5-.7-6-2.1-7.5-1.4-1.5-3.5-2.2-6.4-2.2s-3.9.5-5.5,1.5c-1.6,1-2.9,2.4-3.9,4.1v23.4h0Z"></path><path class="st1" d="M339.2,286c-2.9,0-5.3-.9-7-2.6-1.7-1.7-2.6-4.5-2.6-8.3v-24.2h-6.3v-5.4h6.3v-9.6h7.3v9.6h8.7v5.4h-8.7v24.2c0,1.9.4,3.3,1.1,4.2.8.9,1.8,1.4,3.1,1.4s1.8,0,2.9-.2c1.1-.2,1.9-.3,2.5-.4l1,4.8c-1.1.3-2.4.6-3.9.8-1.5.2-3,.4-4.3.4h0Z"></path><polygon class="st1" points="383.2 255 383 255 381.1 261.4 372.4 285.4 366.2 285.4 355.7 250.7 351.2 250.2 351.2 245.5 367.7 245.5 367.7 250.2 362.8 251 368.3 270.8 369.6 275.6 369.8 275.6 371.4 270.8 380.1 245.5 386.2 245.5 394.4 270.8 396.2 276.4 396.4 276.4 398.1 270.8 403.7 251 398.7 250.2 398.7 245.5 414.8 245.5 414.8 250.2 410.4 250.8 400.1 285.4 393.2 285.4 385.1 261.4 383.2 255 383.2 255"></polygon><path class="st1" d="M424.6,235.7v-7.8h7.6v7.8h-7.6ZM432.2,245.5v34.2l6,1v4.6h-19.3v-4.6l6-1v-28.5l-6-1v-4.7h13.3Z"></path><polygon class="st1" points="483.3 250.2 478.2 251.1 467 262.4 480.8 279.8 486.5 280.7 486.5 285.4 468.5 285.4 468.5 280.7 472.5 280.2 472.4 280.1 462.3 267.1 456.1 273.3 456.1 279.7 462.2 280.7 462.2 285.4 442.9 285.4 442.9 280.7 448.9 279.7 448.9 233.6 442.9 232.6 442.9 227.9 456.1 227.9 456.1 264.9 470.3 250.9 470.4 250.7 466.2 250.2 466.2 245.5 483.3 245.5 483.3 250.2 483.3 250.2"></polygon><polygon class="st1" points="530.8 250.2 525.6 251.1 514.4 262.4 528.2 279.8 533.9 280.7 533.9 285.4 515.9 285.4 515.9 280.7 520 280.2 519.9 280.1 509.8 267.1 503.6 273.3 503.6 279.7 509.6 280.7 509.6 285.4 490.3 285.4 490.3 280.7 496.3 279.7 496.3 233.6 490.3 232.6 490.3 227.9 503.6 227.9 503.6 264.9 517.7 250.9 517.9 250.7 513.6 250.2 513.6 245.5 530.8 245.5 530.8 250.2 530.8 250.2"></polygon><path class="st1" d="M544.3,261.3v.2h18.5v-1c0-1.9-.3-3.7-1-5.2-.7-1.5-1.7-2.7-3-3.6-1.3-.9-3-1.3-5-1.3s-3.1.5-4.4,1.4c-2.8,2-4.4,5.1-5,9.4h0ZM554.8,286.1c-3.7,0-6.9-.8-9.6-2.5-2.7-1.7-4.8-4-6.3-7-1.5-3-2.2-6.5-2.2-10.4v-1.6c0-3.8.8-7.2,2.4-10.2,1.5-3,3.6-5.4,6.2-7.1,2.6-1.7,5.4-2.6,8.5-2.6s6.6.7,9,2.2c2.4,1.5,4.2,3.5,5.5,6.2,1.2,2.7,1.8,5.8,1.8,9.4v4.5h-25.9v.2c0,2.5.4,4.8,1.3,6.8.9,2,2.1,3.5,3.7,4.7,1.6,1.1,3.5,1.7,5.7,1.7s4.6-.4,6.5-1c1.9-.7,3.5-1.7,4.8-2.9l2.8,4.7c-1.4,1.4-3.3,2.5-5.7,3.5-2.3.9-5.2,1.4-8.5,1.4h0Z"></path><polygon class="st1" points="588.5 227.9 588.5 279.7 594.5 280.7 594.5 285.4 575.2 285.4 575.2 280.7 581.2 279.7 581.2 233.6 575.2 232.6 575.2 227.9 588.5 227.9 588.5 227.9"></polygon><path class="st1" d="M605.1,235.7v-7.8h7.6v7.8h-7.6ZM612.7,245.5v34.2l6,1v4.6h-19.3v-4.6l6-1v-28.5l-6-1v-4.7h13.3Z"></path><path class="st1" d="M637,279.7l6,1v4.6h-19.3v-4.6l6-1v-28.5l-6-1v-4.7h12.5l.5,5.9c1.3-2.1,3-3.8,5-4.9,2-1.2,4.3-1.8,6.8-1.8,4.3,0,7.6,1.3,10,3.8,2.4,2.5,3.5,6.4,3.5,11.7v19.5l6,1v4.6h-19.3v-4.6l6-1v-19.3c0-3.5-.7-6-2.1-7.5-1.4-1.5-3.5-2.2-6.4-2.2s-3.9.5-5.5,1.5c-1.6,1-2.9,2.4-3.8,4.1v23.4h0Z"></path><path class="st1" d="M700,274.5v-18.3c-.9-1.7-2.1-3-3.6-4-1.5-1-3.3-1.5-5.4-1.5s-4.2.7-5.7,2c-1.5,1.3-2.7,3.2-3.5,5.5-.8,2.3-1.1,5-1.1,8.1v.8c0,4,.8,7.2,2.5,9.7,1.7,2.4,4.3,3.6,7.7,3.6s4-.5,5.5-1.5c1.5-1,2.7-2.4,3.6-4.2h0ZM712.2,245.5v4.6l-4.9,1.1v33.6c0,3.5-.6,6.4-1.9,8.9-1.3,2.5-3.2,4.4-5.6,5.7-2.5,1.3-5.5,2-9,2s-4-.3-6.2-.8c-2.2-.5-4.2-1.2-5.9-2.2l1.9-5.6c1.4.7,2.9,1.3,4.8,1.8,1.8.5,3.6.7,5.4.7,3.2,0,5.6-.9,7.1-2.7,1.5-1.8,2.3-4.4,2.3-7.8v-3.8c-2.7,3.4-6.3,5.1-10.9,5.1s-6-.8-8.4-2.4c-2.4-1.6-4.2-3.8-5.4-6.7-1.3-2.9-1.9-6.2-1.9-10v-.8c0-4.3.6-8.1,1.9-11.2,1.3-3.2,3.1-5.7,5.4-7.5,2.4-1.8,5.2-2.7,8.5-2.7,4.9,0,8.7,1.9,11.4,5.7l.7-5h11.1Z"></path><path class="st10" d="M233.7,142.9c0-.6.2-1.2.6-1.6.5-.4,1.1-.7,1.8-.6h59.6c.6,0,1.2.2,1.7.6.5.4.8,1.1.7,1.7v11.1c0,.3-.1.6-.3.9l-37.2,44.3h35.3c.6,0,1.2.2,1.6.6.5.5.7,1.1.7,1.8v12.8c0,.6-.2,1.2-.6,1.7-.4.5-1,.8-1.7.8h-59.7c-.6,0-1.3-.2-1.7-.7-.5-.5-.7-1.2-.7-1.8v-11c0-.5.1-.9.4-1.3l37.1-43.8h-35.2c-1.2.1-2.3-.7-2.4-1.9,0-.2,0-.4,0-.6v-12.8h0Z"></path><path class="st10" d="M340.8,164.7c-.7,1.8-1.3,3.6-2,5.6-.7,2-1.3,4-2,6.1-.6,2.1-1.3,4.1-2,6.1-.7,2-1.3,3.9-2,5.6h15.8l-7.8-23.5h0ZM331.4,142.7c0-.2.2-.5.3-.7.4-.5,1-.9,1.6-1.1.3-.1.6-.2.9-.2h13.1c.5,0,1.1.2,1.5.5.3.3.6.6.9,1l1.3,2.9,27,69.5c.3.5.2,1.2-.1,1.7-.5.5-1.3.7-2,.6h-14.8c-.6,0-1.3-.1-1.8-.4-.5-.4-.8-.9-1-1.5-.7-1.7-1.4-3.5-2-5.2-.6-1.7-1.3-3.5-2-5.2h-27.2c-.7,1.7-1.3,3.5-2,5.2-.7,1.7-1.3,3.5-2,5.2-.3,1.2-1.4,2-2.6,1.9h-15.1c-.6,0-1.2-.2-1.6-.5-.4-.3-.5-.9-.2-1.5l27.9-72.2h0Z"></path><path class="st10" d="M419,164.7c-.7,1.8-1.3,3.6-2,5.6-.7,2-1.3,4-2,6.1-.7,2.1-1.3,4.1-2,6.1-.7,2-1.3,3.9-2,5.6h15.8l-7.8-23.5h0ZM409.6,142.7c0-.2.2-.5.3-.7.4-.5,1-.9,1.6-1.1.3-.1.6-.2.9-.2h13.2c.5,0,1.1.2,1.5.5.3.3.6.6.9,1l1.3,2.9,27,69.5c.3.5.2,1.2-.1,1.6-.5.5-1.3.7-2,.6h-14.7c-.6,0-1.3-.1-1.8-.4-.5-.4-.8-.9-1-1.5-.7-1.7-1.4-3.5-2-5.2-.6-1.7-1.3-3.5-2-5.2h-27.2c-.7,1.7-1.3,3.5-2,5.2-.7,1.7-1.3,3.5-2,5.2-.3,1.2-1.4,2-2.6,1.9h-15.1c-.6,0-1.2-.2-1.6-.5-.4-.3-.5-.9-.2-1.5l27.9-72.2h0Z"></path><path class="st10" d="M451.8,142.9c0-.6.2-1.2.7-1.6.5-.4,1.1-.6,1.7-.6h55.3c.6,0,1.2.2,1.6.6.5.4.8,1,.8,1.7v12.8c0,.6-.2,1.3-.6,1.8-.4.6-1.1.9-1.8.8h-17.7v56.2c0,.6-.2,1.2-.7,1.7-.4.5-1.1.8-1.7.7h-15.1c-.6,0-1.2-.3-1.6-.7-.5-.4-.8-1.1-.8-1.7v-56.3h-17.7c-.6,0-1.3-.2-1.7-.7-.5-.5-.8-1.3-.7-2v-12.7h0Z"></path><path class="st10" d="M576.8,215.9c-.4-.6-.7-1.2-1-1.9-.3-.7-.6-1.3-.8-2l-26.3-69c0-.2,0-.3,0-.5,0-.1,0-.3,0-.4,0-1,.6-1.4,1.9-1.4h16.5c1.2,0,2.4.8,2.7,2l15.7,46.7c1.4-3.9,2.7-7.8,4-11.7,1.3-3.9,2.5-7.8,3.8-11.7,1.3-3.9,2.5-7.8,3.8-11.7s2.6-7.8,4-11.7c.4-1.2,1.5-2.1,2.8-2h16.2c.6,0,1.2.1,1.7.4.3.3.5.7.5,1.2,0,.2,0,.4,0,.6v.2l-26.5,69c-.2.5-.4,1-.6,1.6-.2.6-.5,1.1-.8,1.6-.3.5-.6.9-1.1,1.3-.4.3-.9.5-1.4.5h-12.6c-.9.1-1.7-.3-2.1-1.1h0Z"></path><path class="st10" d="M651.7,164.7c-.7,1.8-1.3,3.6-2,5.6-.7,2-1.3,4-2,6.1-.7,2.1-1.3,4.1-2,6.1-.7,2-1.3,3.9-2,5.6h15.8l-7.8-23.5h0ZM642.4,142.7c0-.2.2-.5.3-.7.2-.3.4-.5.7-.7.3-.2.6-.4.9-.5.3-.1.6-.2.9-.2h13.1c.5,0,1.1.2,1.5.5.3.3.7.6.9.9l1.3,2.9,27,69.5c.3.5.2,1.2-.2,1.7-.5.5-1.3.7-2,.6h-14.7c-.6,0-1.3-.1-1.8-.4-.5-.4-.8-.9-1-1.5-.7-1.7-1.3-3.5-2-5.2l-2-5.2h-27.2c-.7,1.7-1.3,3.5-2,5.2-.7,1.7-1.3,3.5-2,5.2-.3,1.2-1.4,2-2.6,1.9h-15.1c-.6,0-1.1-.2-1.6-.5-.4-.4-.5-1-.2-1.5l27.9-72.2h0Z"></path><path class="st10" d="M705,192.3c.6.5,1.3,1.1,2.2,1.9,1,.9,2,1.7,3.1,2.4,1.6,1.1,3.4,2,5.2,2.7,1.7.7,3.5,1,5.4,1,1.5,0,3-.2,4.4-.6,1-.3,2-.8,2.8-1.6.7-.6,1.2-1.4,1.5-2.3.3-.9.4-1.8.4-2.7,0-1.1-.4-2.1-1.2-2.8-.9-.9-1.9-1.6-3-2.2-1.2-.6-2.4-1.2-3.6-1.7-1.3-.5-2.4-.8-3.3-1.1-3.7-1.3-7.3-2.8-10.8-4.7-2.8-1.5-5.4-3.3-7.7-5.5-2-1.9-3.5-4.2-4.6-6.7-1.1-2.6-1.6-5.4-1.5-8.2,0-3,.6-6,1.9-8.7,1.3-2.6,3.2-4.9,5.5-6.7,2.6-1.9,5.5-3.4,8.6-4.3,3.7-1.1,7.4-1.6,11.2-1.5,3,0,6.1.3,9,1,3,.7,5.8,1.9,8.4,3.4,1.2.7,2.3,1.4,3.3,2.1,1,.7,2,1.5,2.7,2.1.7.6,1.3,1.2,1.9,2,.4.4.6,1,.7,1.6,0,.4-.1.9-.3,1.2-.3.5-.6.9-1,1.3l-7.9,8.4c-.4.5-1.1.8-1.7.9-.5,0-.9-.1-1.3-.4-.4-.3-.8-.6-1.3-1l-.5-.4c-.7-.6-1.5-1.2-2.3-1.8-.9-.6-1.8-1.2-2.7-1.7-1-.5-2-.9-3-1.2-1-.3-2.1-.5-3.2-.5-1.1,0-2.2.1-3.3.3-.9.2-1.8.5-2.6.9-.7.4-1.3.9-1.8,1.6-.9,1.5-.9,3.4,0,4.9.6.8,1.3,1.5,2.2,2,1.1.7,2.3,1.3,3.6,1.7,1.4.5,3.1,1.1,5,1.7,3.6,1.2,7,2.5,10,3.8,2.8,1.2,5.5,2.8,7.9,4.7,2.2,1.7,4,3.9,5.2,6.4,1.3,2.8,2,6,1.9,9.1,0,3.5-.7,7-2.3,10.2-1.5,3-3.7,5.7-6.3,7.8-2.8,2.2-6,3.9-9.5,5-3.8,1.2-7.7,1.8-11.7,1.8-3.9,0-7.9-.7-11.6-2.1-3.8-1.4-7.4-3.3-10.6-5.7-1.2-.9-2.4-1.9-3.5-2.9-.9-1-1.7-1.7-2.2-2.3l-.2-.2s0,0,0-.1c0,0,0,0-.1,0,0,0,0,0-.1-.1h0c-.6-.6-1-1.3-1.2-2.1.1-.8.5-1.5,1.2-2l8.9-8.5c.5-.4,1.1-.7,1.7-.8.4,0,.7.1,1,.3.4.3.8.6,1.2.9h0Z"></path><path class="st10" d="M758.2,142.9c0-.6.2-1.2.7-1.6.5-.4,1.1-.6,1.7-.6h55.3c.6,0,1.2.2,1.6.6.5.4.8,1,.8,1.7v12.8c0,.6-.2,1.3-.6,1.8-.4.6-1.1.9-1.8.8h-17.7v56.2c0,.6-.2,1.2-.7,1.7-.4.5-1.1.8-1.7.7h-15.1c-.6,0-1.2-.3-1.6-.7-.5-.4-.8-1.1-.8-1.7v-56.3h-17.7c-.6,0-1.3-.2-1.7-.7-.5-.5-.8-1.3-.7-2v-12.7h0Z"></path><path class="st10" d="M873.9,162.2c-1.7-1.2-3.6-2.2-5.6-2.9-2.1-.7-4.2-1-6.4-1-5.3,0-10.3,2.1-13.9,6-1.7,1.9-3.1,4.1-4,6.5-1,2.5-1.5,5.2-1.4,7.9,0,2.7.5,5.4,1.4,7.9.9,2.4,2.3,4.6,4,6.4,1.7,1.8,3.8,3.3,6.1,4.3,2.5,1.1,5.1,1.6,7.8,1.6,1.2,0,2.4,0,3.6-.3,1.2-.2,2.4-.4,3.8-.7v-13.5c0-.6.2-1.2.6-1.6.4-.5,1.1-.7,1.7-.6h14c.6,0,1.2.2,1.6.6.6.4.9,1,.9,1.6v24.9c0,1-.6,1.8-1.5,2.3-1.7,1.1-3.5,2.1-5.3,2.8-2,.8-4,1.5-6.1,2-4.2,1-8.5,1.5-12.8,1.5-3.5,0-7-.5-10.5-1.4-3.3-.9-6.4-2.3-9.4-4-5.8-3.4-10.6-8.2-14.1-14-1.7-2.9-3.1-6.1-4-9.3-2.8-10.2-1.4-21.2,4-30.3,1.7-2.9,3.8-5.6,6.1-8,2.4-2.4,5-4.4,7.9-6.1,2.9-1.7,6.1-3,9.4-3.9,7.2-2,14.9-1.9,22.1.3,3.7,1.2,7.1,2.8,10.3,5,.6.3,1,.8,1.3,1.4.3.6.2,1.4-.2,1.9l-8.3,12c-.3.5-.8.8-1.3,1.1-.7.1-1.3,0-1.8-.5h0Z"></path><path class="st10" d="M918.8,178.9c0,2.7.5,5.4,1.4,8,.9,2.4,2.3,4.6,4,6.4,1.7,1.8,3.8,3.3,6.1,4.3,5,2.1,10.6,2.1,15.6,0,2.3-1,4.4-2.5,6.2-4.3,1.7-1.9,3.1-4.1,4-6.4,1.9-5.1,1.9-10.8,0-15.9-.9-2.4-2.3-4.6-4-6.5-1.7-1.9-3.8-3.3-6.2-4.4-7.4-3.3-16.2-1.6-21.8,4.4-1.7,1.9-3.1,4.1-4,6.5-1,2.5-1.4,5.2-1.4,7.8h0ZM898.9,178.9c0-7,1.8-13.8,5.4-19.9,1.7-2.9,3.8-5.6,6.1-8,2.4-2.4,5-4.4,7.9-6.1,2.9-1.7,6.1-3,9.4-3.9,6.8-1.9,14.1-1.9,20.9,0,3.3.9,6.5,2.2,9.4,3.9,2.9,1.7,5.6,3.8,8,6.1,2.4,2.4,4.5,5.1,6.1,8,1.7,3,3.1,6.1,4,9.4,1.9,6.8,1.9,14.1,0,20.9-.9,3.3-2.3,6.4-4,9.3-1.7,2.9-3.8,5.6-6.1,7.9-2.4,2.4-5.1,4.4-8,6.1-2.9,1.7-6.1,3.1-9.4,4-6.8,1.8-14,1.8-20.9,0-3.3-.9-6.4-2.3-9.4-4-2.9-1.7-5.6-3.8-7.9-6.1-2.4-2.4-4.4-5-6.1-7.9-1.7-2.9-3.1-6.1-4-9.3-.9-3.4-1.4-6.9-1.4-10.5h0Z"></path><path class="st10" d="M989.6,143c0-.6.2-1.2.6-1.7.4-.4,1-.7,1.7-.7h51c.6,0,1.3.2,1.7.7.4.5.7,1.1.6,1.8v12.7c0,.6-.2,1.2-.6,1.7-.4.5-1.1.8-1.8.8h-33.3v12.7h25.7c.6,0,1.1.1,1.6.5.5.4.7,1,.6,1.5v11.1c0,.5-.2,1-.6,1.4-.4.5-1,.7-1.6.7h-25.7v13.1h34.5c1.1-.2,2.2.6,2.3,1.8,0,.2,0,.4,0,.6v12.9c0,.4-.1.7-.4.9-.1,1-.8,1.4-2.1,1.4h-51.9c-.6,0-1.2-.2-1.6-.5-.4-.4-.7-1-.6-1.7v-71.7h0Z"></path><g class="st6"><path class="st10" d="M1077.6,159v39.5h4.3c.8,0,1.5,0,2.3,0l2.3-.2c2.5-.2,4.9-.8,7.2-1.9,2.2-1,4.1-2.4,5.8-4.1,1.7-1.7,3-3.8,3.9-6,1-2.4,1.4-4.9,1.4-7.5,0-2.7-.5-5.4-1.6-7.9-2.1-4.8-6-8.5-10.9-10.4-2.5-1-5.2-1.5-7.9-1.5h-6.8ZM1124.6,178.9c0,3.5-.4,7-1.4,10.4-.9,3.2-2.3,6.3-4,9.1-3.4,5.7-8.2,10.3-14,13.5-3,1.6-6.1,2.9-9.4,3.7-3.4.9-6.9,1.3-10.4,1.3h-25.3c-.6,0-1.2-.1-1.7-.4-.5-.3-.7-.8-.7-1.7v-71.7c0-.6.2-1.3.6-1.8.5-.5,1.1-.7,1.8-.7h25.3c3.5,0,7,.4,10.4,1.3,6.5,1.7,12.4,5.1,17.3,9.7,2.4,2.3,4.5,4.9,6.1,7.7,1.7,2.9,3,6,3.9,9.2,1,3.4,1.4,6.8,1.4,10.3h0Z"></path><path class="st10" d="M193.6,187.2c-7.1,25.7-17,50.7-29.3,74.4-1.5,3-3.2,6.1-4.8,9.1-2.4,4.3-5.9,7.8-10.2,10.1l-3.7-2.9c-1.9-1.5-3.5-2.9-5.1-4.3-3-2.7-5.8-5.7-8.4-8.8-1.2-1.5-2.4-3-3.6-4.6-1.5-2.1-2.9-4.2-4.2-6.4-8-13.4-11.2-29-13.3-42.5-.3-2.3-.7-4.5-1-6.8-2.1-13.6-4.2-27.7-9.1-41.4-4.9-13.6-11.9-26.5-20.7-38-.9-1.2-1.9-2.4-3-3.8l-.6-.7c-2.3-2.8-4.8-5.6-7.2-8.1-.8-.8-1.6-1.6-2.4-2.4,9.7-5.1,19.4-9.7,28.3-13.4,7.8-3.2,16.8-2.3,23.8,2.5,25.9,18,49.2,39.5,69.3,63.9,5.5,6.8,7.4,15.8,5.2,24.3h0Z"></path></g></g></g><g id="EMBLEEM"><g id="Embleem"><path id="SHAPE" class="st12" d="M1313.2,66.7c-12.7-16-29.1-33.6-45.7-48.9-18.5-16.8-41.5-20.4-60.4-13.2-17.8,6.8-36.9,15.5-55.5,26.2-20.4,11.6-33.9,36.2-32.7,57.6.8,20.1,3,39.7,6.2,58.6,3,20.2,19.5,40.2,43,47.9,21.3,7,43.1,12.1,62.4,15,20.6,2.8,40.9-5.1,54.8-25,12.4-18.4,25-39.9,34.2-59,9.6-20.9,7-41.7-6.3-59.2h0Z"></path><path id="TXT" class="st2" d="M1245.9,95.3c.6-2,2.4-3.4,4.5-3.4h25.2c2.3,0,4.3-1.7,4.6-4l2.3-16.6c.4-2.8-1.8-5.3-4.6-5.3h-37.3c-.6,0-1-.4-1.1-1-.5-5.1-2.6-9.4-6.3-12.7-5.3-4.7-13.6-7.1-25.1-7.1s-8.5.3-12.7,1c-4.2.7-8.2,1.7-12,2.9-3.8,1.2-7.3,2.7-10.6,4.5-1.7.9-3.2,1.8-4.6,2.8-2.1,1.5-2.6,4.4-1.1,6.5l9.4,13.2c1.6,2.2,4.8,2.6,6.8.8,2.3-2,4.5-3.6,6.6-4.7,3.2-1.7,6.4-2.5,9.7-2.5s4.9.6,6.3,1.8c1.4,1.2,2,3,1.6,5.5-.1.9-.5,1.7-1,2.5-.6.7-1.7,1.7-3.5,2.8-1.8,1.1-4.3,2.5-7.7,4.3-3.4,1.7-8,4.1-13.8,7-4.5,2.3-8.4,4.6-11.5,7-3.2,2.4-5.9,5.1-8.1,8.2-2.2,3-4,6.5-5.3,10.3-.8,2.3-1.5,4.8-2.1,7.6-.6,2.9,1.6,5.6,4.6,5.6l-1.1,8.1c-.1.8-.2,1.5-.3,2-.1.5-.3,1-.5,1.3s-.5.6-.8.8c-.3.2-.7.2-1.2.2s-.6,0-.9,0c-.3,0-.5-.1-.8-.2-.2,0-.4-.2-.5-.2-.1,0-.2-.1-.3-.2l-1.5,3.7c.9.7,2,1,3.4,1s2.7-.2,3.7-.6c.9-.4,1.7-1,2.3-1.7.6-.7,1-1.6,1.3-2.6.3-1,.5-2.2.7-3.4l1.1-8.1h6.6l-8.3,16.1h4.8l1.4-3.2h4.4l.5,3.2h4.4l.3-.5-3.6-15.6h11.7l-8,15.6v.5h4.5l1.4-3.2h4.4l.5,3.2h4.8l-3.7-16.1h7.2l-2.3,16.1h4.5l.7-5h1.7l2.4,5h5.1l-2.8-6c.8-.5,1.5-1.2,2-2,.5-.8.9-1.7,1-2.7,0-.7,0-1.4-.1-2.1-.2-.7-.5-1.3-.9-1.8-.4-.5-.9-1-1.6-1.3-.2,0-.3-.2-.5-.2h15.3c5.4,0,10.7-1.3,15.5-3.8,0,0,0,0,0,0,1.9-.9,3.9-1.4,6-1.4,3.1,0,5.4,1,7.1,3,1.6,2,2.2,4.6,1.7,7.9-.5,3.4-1.9,6.1-4.3,8.1-2.4,2-5.4,3-9.1,3s-6.7-.9-10-2.6c-2-1.1-3.9-2.4-5.6-4-1.8-1.7-4.7-1.6-6.4.1l-12.1,12c-1.6,1.6-1.8,4.1-.6,5.9,2.6,3.8,6.2,6.8,10.7,9,5.8,2.9,12.6,4.3,20.4,4.3s11.8-.9,17.1-2.7c5.3-1.8,10-4.3,14.1-7.5,4.1-3.2,7.4-7,10.1-11.5,2.6-4.5,4.3-9.4,5.1-14.8.7-5.1.5-9.8-.7-14-1.1-4.2-3.1-7.9-5.8-10.9-2.7-3-6.1-5.4-10.2-7.1-4-1.7-8.7-2.5-13.9-2.5s-2.3,0-3.2.1c-.9,0-1.6.2-2.1.3h0c-.8.1-1.4-.6-1.2-1.4l1.8-6.5ZM1169.4,142.2l2.3-5.5.7,5.5h-3ZM1184.9,142.2l2.3-5.5.7,5.5h-3ZM1204.7,137.6c0,.6-.3,1-.5,1.3-.3.3-.6.5-.8.5h-2.8l.5-3.5h2.7c.3,0,.5.2.8.5.2.3.3.7.2,1.3ZM1219,99.3l-2.3,7c-.1.3-.4.5-.7.5h-10.2c-.8,0-1-1-.4-1.4,2.2-1.4,4.4-2.6,6.7-3.8,2-1.1,4-2.1,5.9-3.3.6-.4,1.3.2,1.1.9Z"></path></g></g></svg>