<?xml version="1.0" encoding="UTF-8"?>
<svg xmlns="http://www.w3.org/2000/svg" id="Laag_1" version="1.1" viewBox="0 0 454.02 121.13">
  <defs>
    <style>
      .st0, .st1 {
        fill: #ffc33e;
      }

      .st2 {
        fill: none;
        stroke-linecap: round;
        stroke-linejoin: round;
      }

      .st2, .st1 {
        stroke: #ffc33e;
      }

      .st1 {
        stroke-miterlimit: 10;
      }
    </style>
  </defs>
  <g>
    <path class="st1" d="M57.32,100.28H14.46c-1.03,0-1.87-.84-1.87-1.87V19.47c0-2.24-1.83-4.06-4.06-4.06h0c-2.24,0-4.06,1.83-4.06,4.06v85.83c0,2.24,1.83,4.06,4.06,4.06h0c.08,0,.16-.02.24-.02.08,0,.16.02.24.02h48.54c2.65,0,4.79-2.3,4.52-5.01-.24-2.36-2.36-4.08-4.73-4.08Z"></path>
    <path class="st1" d="M26.63,90.92h30.78c2.33,0,4.41-1.69,4.65-4,.27-2.65-1.83-4.91-4.44-4.91h-25.73c-.96,0-1.74-.78-1.74-1.74V19.58c0-2.08-1.51-3.94-3.58-4.15-2.38-.24-4.4,1.64-4.4,3.97v69.28c0,1.24,1.01,2.25,2.25,2.25h2.21Z"></path>
  </g>
  <rect class="st2" x="77.81" y="6.24" width="1" height="110.96"></rect>
  <g>
    <path class="st0" d="M105.8,61.76h17.8v6.97h-26.44V16.08h8.64v45.68Z"></path>
    <path class="st0" d="M139.44,23.05v15.45h18.18v7.05h-18.18v16.14h20.45v7.05h-29.09V16.01h29.09v7.05h-20.45Z"></path>
    <path class="st0" d="M179.13,23.05v15.45h18.18v7.05h-18.18v16.14h20.45v7.05h-29.09V16.01h29.09v7.05h-20.45Z"></path>
    <path class="st0" d="M248.3,31.24c-1.36-2.63-3.26-4.61-5.68-5.95-2.42-1.34-5.23-2.01-8.41-2.01-3.48,0-6.59.78-9.32,2.35-2.73,1.57-4.86,3.79-6.4,6.67-1.54,2.88-2.31,6.21-2.31,10s.77,7.13,2.31,10.04c1.54,2.9,3.67,5.14,6.4,6.7,2.73,1.57,5.83,2.35,9.32,2.35,4.7,0,8.51-1.31,11.44-3.94,2.93-2.63,4.72-6.19,5.38-10.68h-19.77v-6.89h29.01v6.74c-.56,4.09-2.01,7.85-4.36,11.29-2.35,3.44-5.4,6.17-9.17,8.22-3.76,2.05-7.94,3.07-12.54,3.07-4.95,0-9.47-1.15-13.56-3.45-4.09-2.3-7.34-5.49-9.73-9.58-2.4-4.09-3.6-8.71-3.6-13.86s1.2-9.77,3.6-13.86c2.4-4.09,5.66-7.28,9.77-9.58,4.12-2.3,8.62-3.45,13.52-3.45,5.61,0,10.59,1.38,14.96,4.13,4.37,2.75,7.54,6.65,9.51,11.7h-10.38Z"></path>
    <path class="st0" d="M276.55,67.41c-2.83-1.24-5.05-2.99-6.67-5.27-1.62-2.27-2.42-4.92-2.42-7.95h9.24c.2,2.27,1.1,4.14,2.69,5.61,1.59,1.47,3.83,2.2,6.71,2.2s5.3-.72,6.97-2.16c1.67-1.44,2.5-3.3,2.5-5.57,0-1.77-.52-3.21-1.55-4.32-1.04-1.11-2.32-1.97-3.86-2.58-1.54-.61-3.67-1.26-6.4-1.97-3.44-.91-6.23-1.83-8.37-2.77-2.15-.93-3.98-2.39-5.49-4.36-1.52-1.97-2.27-4.59-2.27-7.88,0-3.03.76-5.68,2.27-7.95,1.51-2.27,3.64-4.02,6.36-5.23s5.88-1.82,9.47-1.82c5.1,0,9.28,1.28,12.54,3.83,3.26,2.55,5.06,6.05,5.42,10.49h-9.55c-.15-1.92-1.06-3.56-2.73-4.92-1.67-1.36-3.86-2.05-6.59-2.05-2.48,0-4.5.63-6.06,1.89-1.57,1.26-2.35,3.08-2.35,5.45,0,1.62.49,2.94,1.48,3.98.98,1.04,2.23,1.86,3.75,2.46,1.51.61,3.58,1.26,6.21,1.97,3.48.96,6.33,1.92,8.52,2.88,2.2.96,4.06,2.44,5.61,4.43,1.54,2,2.31,4.66,2.31,7.99,0,2.68-.72,5.2-2.16,7.58-1.44,2.37-3.54,4.28-6.29,5.72-2.75,1.44-6,2.16-9.73,2.16-3.54,0-6.72-.62-9.55-1.86Z"></path>
    <path class="st0" d="M348.52,16.08v7.05h-14.01v45.6h-8.64V23.13h-14.09v-7.05h36.74Z"></path>
    <path class="st0" d="M384.58,68.73l-12.12-21.06h-6.59v21.06h-8.64V16.08h18.18c4.04,0,7.46.71,10.26,2.12,2.8,1.41,4.9,3.31,6.29,5.68,1.39,2.37,2.08,5.03,2.08,7.95,0,3.44-1,6.55-2.99,9.36-2,2.8-5.06,4.71-9.2,5.72l13.03,21.82h-10.3ZM365.87,40.78h9.54c3.23,0,5.67-.81,7.31-2.42,1.64-1.62,2.46-3.79,2.46-6.52s-.81-4.86-2.42-6.4c-1.62-1.54-4.07-2.31-7.35-2.31h-9.54v17.65Z"></path>
    <path class="st0" d="M436.85,57.98h-22.04l-3.79,10.76h-9.01l18.86-52.73h10l18.86,52.73h-9.09l-3.79-10.76ZM434.43,50.93l-8.56-24.47-8.64,24.47h17.2Z"></path>
  </g>
  <g>
    <path class="st0" d="M119.55,109.37h-4.4l-13.25-20.05v20.05h-4.4v-26.89h4.4l13.25,20.01v-20.01h4.4v26.89Z"></path>
    <path class="st0" d="M148.48,82.51l-10.08,26.85h-5.1l-10.12-26.85h4.71l7.96,22.33,8-22.33h4.64Z"></path>
    <path class="st0" d="M180.43,82.51v26.85h-4.4v-18.39l-8.19,18.39h-3.05l-8.23-18.39v18.39h-4.4v-26.85h4.75l9.43,21.06,9.39-21.06h4.71Z"></path>
    <path class="st0" d="M224.55,82.51v26.85h-4.4v-18.39l-8.19,18.39h-3.05l-8.23-18.39v18.39h-4.4v-26.85h4.75l9.43,21.06,9.39-21.06h4.71Z"></path>
    <path class="st0" d="M246.53,103.88h-11.24l-1.93,5.49h-4.6l9.62-26.89h5.1l9.62,26.89h-4.64l-1.93-5.49ZM245.3,100.29l-4.37-12.48-4.4,12.48h8.77Z"></path>
    <path class="st0" d="M272.07,109.37l-10.39-12.02v12.02h-4.4v-26.85h4.4v12.25l10.43-12.25h5.52l-11.67,13.44,11.86,13.41h-5.76Z"></path>
    <path class="st0" d="M286.13,86.07v7.88h9.27v3.59h-9.27v8.23h10.43v3.59h-14.84v-26.89h14.84v3.59h-10.43Z"></path>
    <path class="st0" d="M306.38,105.81h9.08v3.55h-13.48v-26.85h4.4v23.3Z"></path>
    <path class="st0" d="M335.31,103.88h-11.24l-1.93,5.49h-4.6l9.62-26.89h5.1l9.62,26.89h-4.64l-1.93-5.49ZM334.08,100.29l-4.37-12.48-4.4,12.48h8.77Z"></path>
    <path class="st0" d="M362.24,103.88h-11.24l-1.93,5.49h-4.6l9.62-26.89h5.1l9.62,26.89h-4.64l-1.93-5.49ZM361.01,100.29l-4.37-12.48-4.4,12.48h8.77Z"></path>
    <path class="st0" d="M386.93,109.37l-6.18-10.74h-3.36v10.74h-4.4v-26.85h9.27c2.06,0,3.81.36,5.23,1.08,1.43.72,2.5,1.69,3.21,2.9.71,1.21,1.06,2.56,1.06,4.06,0,1.75-.51,3.34-1.53,4.77-1.02,1.43-2.58,2.4-4.69,2.92l6.64,11.13h-5.25ZM377.39,95.11h4.87c1.65,0,2.89-.41,3.73-1.24.84-.82,1.25-1.93,1.25-3.32s-.41-2.48-1.24-3.26c-.82-.79-2.07-1.18-3.75-1.18h-4.87v9Z"></path>
    <path class="st0" d="M413.68,84.16c2.15,1.1,3.81,2.67,4.98,4.71,1.17,2.05,1.76,4.44,1.76,7.17s-.59,5.1-1.76,7.11c-1.17,2.01-2.83,3.55-4.98,4.62-2.15,1.07-4.66,1.6-7.51,1.6h-8.77v-26.85h8.77c2.86,0,5.36.55,7.51,1.64ZM413.39,103.22c1.67-1.7,2.51-4.1,2.51-7.19s-.84-5.55-2.51-7.3c-1.67-1.75-4.08-2.63-7.22-2.63h-4.37v19.67h4.37c3.14,0,5.55-.85,7.22-2.55Z"></path>
    <path class="st0" d="M429.2,82.51v26.85h-4.4v-26.85h4.4Z"></path>
    <path class="st0" d="M449.63,82.51v19.36c0,2.4-.73,4.29-2.18,5.68-1.46,1.39-3.37,2.09-5.74,2.09s-4.28-.7-5.74-2.09c-1.46-1.39-2.18-3.28-2.18-5.68h4.44c.03,1.19.33,2.12.91,2.82s1.44,1.04,2.57,1.04,2-.35,2.59-1.06.89-1.64.89-2.8v-19.36h4.44Z"></path>
  </g>
</svg>
