<?xml version="1.0" encoding="utf-8"?>
<!-- Generator: Adobe Illustrator 16.0.0, SVG Export Plug-In . SVG Version: 6.00 Build 0)  -->
<!DOCTYPE svg PUBLIC "-//W3C//DTD SVG 1.1//EN" "http://www.w3.org/Graphics/SVG/1.1/DTD/svg11.dtd">
<svg version="1.1" xmlns="http://www.w3.org/2000/svg" xmlns:xlink="http://www.w3.org/1999/xlink" x="0px" y="0px"
	 width="131.269px" height="90.14px" viewBox="0 0 131.269 90.14" enable-background="new 0 0 131.269 90.14" xml:space="preserve">
<g id="Layer_1" display="none">
	
		<image display="inline" overflow="visible" width="175" height="102" xlink:href="logo_dark.png"  transform="matrix(0.7501 0 0 0.7501 0 0)">
	</image>
</g>
<g id="Layer_3">
	<g enable-background="new    ">
		<path fill="#1C2A4F" d="M14.197,18.394l-0.129-14.95h5.198v30.071h-5.842l-3.78-16.324l0.129,16.324H4.574V3.444h6.143
			L14.197,18.394z"/>
		<path fill="#1C2A4F" d="M22.531,7.955v-4.94h5.842v4.94H22.531z M22.617,33.515V9.458h5.67v24.057H22.617z"/>
		<path fill="#1C2A4F" d="M37.308,9.458v24.186c0,3.121-1.562,4.683-4.683,4.683h-2.535v-4.554h0.73
			c0.543,0,0.816-0.272,0.816-0.816V9.458H37.308z M31.552,7.955v-4.94h5.842v4.94H31.552z"/>
		<path fill="#1C2A4F" d="M48.82,9.458h5.885l-3.093,11.771l2.964,12.286h-6.014L46.2,22.131v11.384h-5.67v-30.5h5.67v17.785
			L48.82,9.458z"/>
		<path fill="#1C2A4F" d="M56.51,29.864v-5.413c0-1.317,0.229-2.313,0.687-2.986c0.458-0.672,1.289-1.209,2.492-1.611l4.64-1.589
			v-3.351c0-0.629-0.315-0.945-0.945-0.945H63.04c-0.687,0-1.031,0.315-1.031,0.945v2.921h-5.241v-3.394
			c0-3.494,1.747-5.241,5.241-5.241h2.664c3.494,0,5.241,1.747,5.241,5.241v19.073h-5.499v-1.589
			c-1.461,1.231-2.85,1.847-4.167,1.847h-0.086c-1.175,0-2.077-0.336-2.707-1.01C56.825,32.091,56.51,31.124,56.51,29.864z
			 M62.997,28.875c0.516,0,0.959-0.071,1.332-0.215v-5.885l-1.589,0.73c-0.544,0.258-0.816,0.702-0.816,1.332v3.093
			C61.923,28.561,62.281,28.875,62.997,28.875z"/>
		<path fill="#1C2A4F" d="M86.753,14.442v19.073h-5.67V15.129c0-0.629-0.344-0.945-1.031-0.945c-0.43,0-0.874,0.086-1.332,0.258
			v19.073h-5.67V9.458h5.584v1.589c1.432-1.231,2.82-1.847,4.167-1.847h0.343c1.69,0,2.792,0.688,3.308,2.062
			c1.432-1.375,2.892-2.062,4.382-2.062h0.343c2.406,0,3.609,1.304,3.609,3.909v20.405h-5.67V15.129
			c0-0.629-0.344-0.945-1.031-0.945C87.655,14.184,87.21,14.27,86.753,14.442z"/>
		<path fill="#1C2A4F" d="M97.922,38.241V9.458h5.584v1.675c1.432-1.289,2.835-1.933,4.21-1.933h0.086
			c1.26,0,2.233,0.358,2.921,1.074s1.031,1.747,1.031,3.093v16.238c0,1.347-0.344,2.377-1.031,3.093
			c-0.688,0.716-1.661,1.074-2.921,1.074h-0.086c-1.347,0-2.721-0.559-4.124-1.675v6.143H97.922z M103.592,14.442v14.09
			c0.458,0.172,0.916,0.258,1.375,0.258c0.745,0,1.117-0.314,1.117-0.945V15.129c0-0.629-0.372-0.945-1.117-0.945
			C104.508,14.184,104.05,14.27,103.592,14.442z"/>
	</g>
	<g enable-background="new    ">
		<path fill="#1C2A4F" d="M11.963,58.989l2.148-21.178h5.584l-4.038,30.071H7.753L3.715,37.811h6.1L11.963,58.989z"/>
		<path fill="#1C2A4F" d="M21.113,64.23v-5.413c0-1.317,0.229-2.313,0.687-2.986c0.458-0.672,1.289-1.209,2.492-1.611l4.64-1.589
			V49.28c0-0.629-0.315-0.945-0.945-0.945h-0.344c-0.687,0-1.031,0.315-1.031,0.945v2.921h-5.241v-3.394
			c0-3.494,1.747-5.241,5.241-5.241h2.664c3.494,0,5.241,1.747,5.241,5.241v19.073h-5.499v-1.589
			c-1.461,1.231-2.85,1.847-4.167,1.847h-0.086c-1.175,0-2.077-0.336-2.707-1.01C21.428,66.457,21.113,65.49,21.113,64.23z
			 M27.6,63.242c0.516,0,0.959-0.071,1.332-0.215v-5.885l-1.589,0.73c-0.544,0.258-0.816,0.702-0.816,1.332v3.093
			C26.526,62.927,26.884,63.242,27.6,63.242z"/>
		<path fill="#1C2A4F" d="M45.212,52.417v-3.093c0-0.629-0.315-0.945-0.945-0.945H43.88c-0.63,0-0.945,0.315-0.945,0.945v1.675
			c0,0.573,0.272,1.031,0.816,1.375l4.382,2.706c0.917,0.602,1.575,1.21,1.976,1.826c0.401,0.616,0.602,1.454,0.602,2.513v3.479
			c0,3.495-1.747,5.241-5.241,5.241h-2.707c-3.495,0-5.241-1.747-5.241-5.241v-3.78h5.456v3.265c0,0.63,0.315,0.945,0.945,0.945
			h0.473c0.63,0,0.945-0.314,0.945-0.945v-1.804c0-0.573-0.272-1.031-0.816-1.375l-4.382-2.706
			c-0.917-0.602-1.575-1.209-1.976-1.826c-0.401-0.616-0.601-1.454-0.601-2.513v-3.351c0-3.494,1.746-5.241,5.241-5.241h2.621
			c3.494,0,5.241,1.747,5.241,5.241v3.608H45.212z"/>
		<path fill="#1C2A4F" d="M60.162,48.55v19.331h-5.67V48.55h-1.546v-4.726h1.546v-3.866h5.67v3.866h2.234v4.726H60.162z"/>
		<path fill="#1C2A4F" d="M78.419,43.825v23.928c0,3.351-1.69,5.026-5.069,5.026h-4.167c-3.036,0-4.553-1.504-4.553-4.511v-1.503
			h5.069v0.859c0,0.63,0.315,0.945,0.945,0.945h1.246c0.629,0,0.945-0.315,0.945-0.945v-3.608c-1.403,1.117-2.807,1.675-4.209,1.675
			h-0.086c-1.261,0-2.234-0.358-2.921-1.074s-1.031-1.747-1.031-3.093v-13.79c0-1.346,0.343-2.377,1.031-3.093
			s1.661-1.074,2.921-1.074h0.086c1.403,0,2.806,0.559,4.209,1.675v-1.417H78.419z M72.749,60.665V48.808
			c-0.458-0.172-0.917-0.258-1.375-0.258c-0.745,0-1.117,0.315-1.117,0.945v10.482c0,0.63,0.372,0.945,1.117,0.945
			C71.832,60.922,72.291,60.836,72.749,60.665z"/>
		<path fill="#1C2A4F" d="M90.104,68.139h-3.351c-3.495,0-5.241-1.747-5.241-5.241v-14.09c0-3.494,1.746-5.241,5.241-5.241h3.351
			c3.494,0,5.241,1.747,5.241,5.241v14.09C95.345,66.393,93.597,68.139,90.104,68.139z M88.729,48.55h-0.602
			c-0.63,0-0.945,0.315-0.945,0.945v12.716c0,0.63,0.314,0.945,0.945,0.945h0.602c0.629,0,0.945-0.314,0.945-0.945V49.495
			C89.674,48.866,89.358,48.55,88.729,48.55z"/>
		<path fill="#1C2A4F" d="M111.755,58.13h-7.818v4.167c0,0.63,0.315,0.945,0.945,0.945h0.516c0.629,0,0.945-0.314,0.945-0.945V60.02
			h5.413v2.878c0,3.495-1.747,5.241-5.241,5.241h-2.921c-3.495,0-5.241-1.747-5.241-5.241v-14.09c0-3.494,1.746-5.241,5.241-5.241
			h2.921c3.494,0,5.241,1.747,5.241,5.241V58.13z M103.937,49.323v4.425h2.32v-4.425c0-0.629-0.315-0.945-0.945-0.945h-0.43
			C104.251,48.378,103.937,48.694,103.937,49.323z"/>
		<path fill="#1C2A4F" d="M128.594,37.381v30.5h-5.585v-1.675c-1.432,1.289-2.835,1.933-4.209,1.933h-0.086
			c-1.261,0-2.234-0.358-2.921-1.074c-0.688-0.715-1.031-1.746-1.031-3.093V47.734c0-1.346,0.343-2.377,1.031-3.093
			s1.661-1.074,2.921-1.074h0.086c1.346,0,2.72,0.559,4.124,1.675v-7.861H128.594z M122.923,62.898v-14.09
			c-0.458-0.172-0.917-0.258-1.375-0.258c-0.745,0-1.117,0.315-1.117,0.945v12.716c0,0.63,0.372,0.945,1.117,0.945
			C122.007,63.156,122.465,63.07,122.923,62.898z"/>
	</g>
</g>
<g id="Layer_2">
	<g>
		<path fill="#1C2A4F" d="M25.5,77.208h1.86v4.321h4.534v-4.321h1.86v10.349h-1.86v-4.321H27.36v4.321H25.5V77.208z"/>
		<path fill="#1C2A4F" d="M35.645,84.635V80.24h1.765v4.167c0,0.959,0.483,1.648,1.399,1.648c1.003,0,1.648-0.542,1.648-1.816V80.24
			h1.772v7.317h-1.772V86.7c-0.586,0.725-1.436,1.003-2.161,1.003C36.377,87.704,35.645,86.166,35.645,84.635z"/>
		<path fill="#1C2A4F" d="M44.053,80.24h1.743v1.23c0.315-0.886,1.143-1.384,1.963-1.384c0.483,0,0.989,0.168,1.34,0.527
			l-0.813,1.465c-0.242-0.161-0.513-0.249-0.798-0.249c-0.835,0-1.707,0.776-1.707,2.637v3.091h-1.729V80.24z"/>
		<path fill="#1C2A4F" d="M48.748,83.924c0-1.904,1.113-3.838,3.589-3.838c2.563,0,3.391,2.058,3.391,3.691
			c0,0.3-0.029,0.601-0.066,0.703h-5.024c0.154,0.959,0.681,1.604,1.831,1.604c0.659,0,1.245-0.205,1.758-0.776l1.23,1.077
			c-0.798,0.886-1.772,1.318-3.003,1.318C49.935,87.704,48.748,85.895,48.748,83.924z M53.97,83.192
			c0-0.161-0.015-0.315-0.059-0.461c-0.183-0.754-0.813-1.143-1.589-1.143c-1.055,0-1.516,0.688-1.685,1.604H53.97z"/>
		<path fill="#1C2A4F" d="M56.922,80.24h1.787v0.85c0.586-0.718,1.428-1.003,2.146-1.003c1.919,0,2.673,1.545,2.673,3.076v4.395
			h-1.787V83.39c0-0.959-0.483-1.655-1.399-1.655c-1.003,0-1.633,0.542-1.633,1.816v4.006h-1.787V80.24z"/>
		<path fill="#1C2A4F" d="M68.415,77.208h1.875v1.648h-1.875V77.208z M68.458,80.24h1.787v7.317h-1.787V80.24z"/>
		<path fill="#1C2A4F" d="M72.077,80.24h1.787v0.85c0.586-0.718,1.428-1.003,2.146-1.003c1.919,0,2.673,1.545,2.673,3.076v4.395
			h-1.787V83.39c0-0.959-0.483-1.655-1.399-1.655c-1.003,0-1.633,0.542-1.633,1.816v4.006h-1.787V80.24z"/>
		<path fill="#1C2A4F" d="M85.942,78.871h-3.245v-1.663h8.342v1.663h-3.237v8.687h-1.86V78.871z"/>
		<path fill="#1C2A4F" d="M90.066,80.24h1.904l1.245,4.585L94.6,80.24h1.531l1.377,4.57l1.26-4.57h1.904l-2.263,7.317h-1.604
			l-1.443-4.797l-1.436,4.797h-1.611L90.066,80.24z"/>
		<path fill="#1C2A4F" d="M100.65,83.924c0-1.904,1.113-3.838,3.589-3.838c2.563,0,3.391,2.058,3.391,3.691
			c0,0.3-0.029,0.601-0.066,0.703h-5.024c0.154,0.959,0.681,1.604,1.831,1.604c0.659,0,1.245-0.205,1.758-0.776l1.23,1.077
			c-0.798,0.886-1.772,1.318-3.003,1.318C101.836,87.704,100.65,85.895,100.65,83.924z M105.872,83.192
			c0-0.161-0.015-0.315-0.059-0.461c-0.183-0.754-0.813-1.143-1.589-1.143c-1.055,0-1.516,0.688-1.685,1.604H105.872z"/>
		<path fill="#1C2A4F" d="M108.824,80.24h1.787v0.85c0.586-0.718,1.428-1.003,2.146-1.003c1.919,0,2.673,1.545,2.673,3.076v4.395
			h-1.787V83.39c0-0.959-0.483-1.655-1.399-1.655c-1.003,0-1.633,0.542-1.633,1.816v4.006h-1.787V80.24z"/>
		<path fill="#1C2A4F" d="M117.342,85.536v-3.801h-1.179V80.24h1.208v-1.816l1.758-1.274v3.091h1.831v1.494h-1.831v3.486
			c0,0.703,0.344,0.908,0.813,0.908c0.374,0,0.776-0.146,1.018-0.264v1.619c-0.271,0.103-0.798,0.22-1.333,0.22
			C118.199,87.704,117.342,86.869,117.342,85.536z"/>
		<path fill="#1C2A4F" d="M121.59,83.924c0-1.904,1.113-3.838,3.589-3.838c2.563,0,3.391,2.058,3.391,3.691
			c0,0.3-0.029,0.601-0.066,0.703h-5.024c0.154,0.959,0.681,1.604,1.831,1.604c0.659,0,1.245-0.205,1.758-0.776l1.23,1.077
			c-0.798,0.886-1.772,1.318-3.003,1.318C122.777,87.704,121.59,85.895,121.59,83.924z M126.813,83.192
			c0-0.161-0.015-0.315-0.059-0.461c-0.183-0.754-0.813-1.143-1.589-1.143c-1.055,0-1.516,0.688-1.685,1.604H126.813z"/>
	</g>
</g>
</svg>
