<svg id="Layer_1" data-name="Layer 1" xmlns="http://www.w3.org/2000/svg" viewBox="0 0 367 312.15"><defs><style>.cls-1{fill:#fff;}.cls-2{fill:#d31245;}</style></defs><polygon class="cls-1" points="43.83 312.15 367 267.37 367 0 0 0 43.83 312.15"/><path class="cls-2" d="M193.25,145.2q2.06,14.66-7.19,23.28Q179,175,167.64,176.64l-20.24,2.84L133.73,82.27l18.92-2.66q11.85-1.67,20.38,3,10.17,5.63,12,18.94a22,22,0,0,1-2.35,13.71,20.67,20.67,0,0,1-9.23,9.24Q190.65,126.69,193.25,145.2Zm-26-39.79q-.81-5.7-4.39-8.44t-9-2l3.61,25.74a10.73,10.73,0,0,0,8-5A15,15,0,0,0,167.28,105.41Zm7.81,41.08q-1-6.78-5.84-9.62a14.8,14.8,0,0,0-9.73-1.62l3.72,26.46Q177,159.77,175.09,146.49Z"/><path class="cls-2" d="M105.38,142.87l5.86,41.69L129.32,182,115.66,84.81,96.85,87.45Q84.94,89.13,78,96c-5.5,5.49-7.58,13-6.33,21.94l10,70.8,18.08-2.54-5.86-41.68ZM91.8,130l-2-14.59a11.81,11.81,0,0,1,2-8.33,11.5,11.5,0,0,1,7.86-4.36c.11,0,0,0,.11,0l3.61,25.67Z"/><polygon class="cls-2" points="38.6 145.18 31.77 96.59 49.86 94.04 47.32 75.95 11.14 81.04 13.68 99.13 20.51 147.73 38.6 145.18"/><polygon class="cls-2" points="41.14 163.28 47.98 211.88 66.07 209.33 68.61 227.42 32.42 232.51 29.88 214.42 23.05 165.82 41.14 163.28"/><path class="cls-2" d="M99.72,223l-3.32.47L95.06,214q0-.37-.12-1.23c0,.28-.13.7-.25,1.25l-1.22,5.41-1.82.26L89,214.79c-.12-.2-.3-.57-.55-1.08.1.51.18.89.21,1.15L90,224.41l-3.32.46L84.17,206.8l3.15-.44,4.11,7a11.76,11.76,0,0,1,.52,1.06c0-.28.12-.67.23-1.2l2-7.87,3-.43Z"/><path class="cls-2" d="M114.13,221l-3.43.48-.94-2.8-3.32.47-.14,3-3.37.48,2-18.72,2.25-.31Zm-5.21-4.8-1.75-5.2c-.09-.28-.19-.64-.33-1.09,0,.24,0,.62,0,1.14l-.27,5.49Z"/><polygon class="cls-2" points="127.67 219.12 124.03 219.63 120.08 212.1 119.85 212.74 120.88 220.07 117.47 220.55 114.93 202.47 118.34 202 119.2 208.09 121.57 201.55 125.11 201.05 121.93 208.89 127.67 219.12"/><polygon class="cls-2" points="138.53 217.59 130.73 218.68 128.19 200.61 135.92 199.53 136.34 202.48 132.01 203.09 132.65 207.63 136.66 207.06 137.07 210 133.06 210.56 133.72 215.26 138.11 214.64 138.53 217.59"/><polygon class="cls-2" points="149.96 215.98 142.36 217.05 139.83 198.98 143.23 198.5 145.35 213.62 149.55 213.03 149.96 215.98"/><path class="cls-2" d="M163.71,214.05l-3.42.48-.94-2.8-3.33.47-.13,3-3.37.47,2-18.7,2.26-.32Zm-5.2-4.8-1.75-5.2c-.09-.28-.2-.64-.33-1.09,0,.23,0,.61,0,1.14l-.27,5.49Z"/><path class="cls-2" d="M177.58,212.1l-3.43.48-.94-2.79-3.32.46-.13,2.95-3.37.47,2-18.71,2.26-.31Zm-5.21-4.79-1.75-5.21L170.3,201c0,.24,0,.62,0,1.14l-.28,5.49Z"/><path class="cls-2" d="M190.33,210.31l-3.45.48-3.63-7.34,1.11,7.7-3.43.48-2.54-18.07,3.43-.48a5.09,5.09,0,0,1,6.17,4.81q.48,3.47-1.72,4.88Zm-5.87-11.92c-.24-1.77-1-2.56-2.26-2.39l.76,5.45C184.23,201.27,184.73,200.26,184.46,198.39Z"/><path class="cls-2" d="M201.61,204.2a4.56,4.56,0,0,1-.86,3.59,4.74,4.74,0,0,1-3.23,1.8,4.62,4.62,0,0,1-2.71-.45,5.65,5.65,0,0,1-2.11-1.77l2.24-2.43c.71,1.18,1.44,1.72,2.21,1.61s1.11-.68,1-1.73a4.75,4.75,0,0,0-1.73-2.45c-1.84-1.7-2.83-2.61-3-2.76a7.07,7.07,0,0,1-1.91-3.67,4.42,4.42,0,0,1,.74-3.26,4.75,4.75,0,0,1,7.64.19l-2.07,2.3c-.71-.92-1.35-1.35-1.92-1.26-.77.11-1.09.58-1,1.42a4.82,4.82,0,0,0,1.78,2.55c1,.9,2,1.8,3,2.7A6.72,6.72,0,0,1,201.61,204.2Z"/><polygon class="cls-2" points="226.43 118.78 219.59 70.19 201.5 72.73 198.97 54.64 235.15 49.55 237.69 67.65 244.52 116.24 226.43 118.78"/><polygon class="cls-2" points="228.97 136.88 235.8 185.48 217.71 188.02 220.25 206.11 256.44 201.03 253.89 182.94 247.06 134.34 228.97 136.88"/><path class="cls-2" d="M64.89,275.15a5.31,5.31,0,0,1-.35,1s.47-.11.9-.17l10.08-1.42.8,5.71-20.15,2.83L64,253a8,8,0,0,1,.4-1s-.57.13-1.15.21l-9.35,1.31-.81-5.71,19.48-2.73Z"/><path class="cls-2" d="M81.6,279.51l-4.92-35,6.72-1,4.92,35Z"/><path class="cls-2" d="M94.31,277.72l-4.92-35,15.26-2.14.8,5.71-8.54,1.19,1.23,8.78,7.92-1.11.8,5.71L99,262l1.28,9.12,8.68-1.22.8,5.71Z"/><path class="cls-2" d="M121.71,244l4.12,29.31-6.71.95L115,244.92l-4.94.7-.81-5.71,16.6-2.33.81,5.7Z"/><path class="cls-2" d="M161,268.36l-2.59-18.43c-.11-.76-.23-2.36-.23-2.36s-.31,1.61-.49,2.42L155.2,260.5l-3.6.51-5.16-9.55-1.07-2.1s.3,1.43.41,2.24l2.6,18.52-6.57.93-4.92-35,6.23-.88,8.09,13.64c.32.59,1,2.06,1,2.06s.27-1.56.46-2.32l3.91-15.28,6-.84,4.92,35Z"/><path class="cls-2" d="M173.52,266.59l-4.92-35,15.26-2.14.8,5.7-8.54,1.2,1.23,8.78,7.92-1.11.8,5.71-7.91,1.11,1.28,9.11,8.68-1.21.8,5.7Z"/><path class="cls-2" d="M194.83,263.6l-4.93-35,15.25-2.15.81,5.71-8.54,1.2,1.24,8.78,7.91-1.11.8,5.71-7.91,1.11,1.28,9.11,8.68-1.22.8,5.71Z"/><path class="cls-2" d="M227.87,259l-7.13-14.21,2.1,14.92-6.72.94-4.92-35,6.81-1c4.94-.69,11,1.1,12.12,9.31.7,5-.94,7.91-3.41,9.48l8,14.58Zm-9.16-28.65,1.48,10.55c2.69-.38,3.48-2.44,3-5.95S221.4,229.92,218.71,230.3Z"/><path class="cls-2" d="M243.33,248.12l-3.79.53-3-12-2-14.35,6.38-.89,2,14.34Zm-3.89,9.2-.95-6.76,6.38-.9.95,6.77Z"/></svg>