<?xml version="1.0" encoding="UTF-8"?>
<svg id="Layer_1" xmlns="http://www.w3.org/2000/svg" version="1.1" viewBox="0 0 400 400">
  <!-- Generator: Adobe Illustrator 29.2.0, SVG Export Plug-In . SVG Version: 2.1.0 Build 108)  -->
  <defs>
    <style>
      .st0 {
        fill: #fff;
      }

      .st0, .st1 {
        fill-rule: evenodd;
      }

      .st1, .st2 {
        fill: #5f695d;
      }
    </style>
  </defs>
  <path class="st1" d="M205.3,337.31c-18.08.06-31.22-2.94-44.2-7.1-9.63-3.09-18.83-7.15-27.81-11.68-9.44-4.77-18.5-10.15-26.36-17.4-5.87-5.42-10.68-11.58-14.42-18.6-4.82-9.05-8.05-18.62-10.13-28.67-2.06-9.92-3.05-19.9-2.8-29.99.29-11.41,1.98-22.62,5.08-33.63,3.26-11.56,7.99-22.47,14.08-32.8,2.08-3.52,4.46-6.87,6.85-10.2,2.47-3.44,4.07-7.39,6.2-11.05,7.34-12.61,16.8-23.26,29.12-31.18,9.23-5.93,19.28-9.9,30.02-12.32,8.99-2.02,18.05-2.79,27.21-2.49,11.13.36,21.94,2.55,32.47,6.18,9.11,3.14,17.56,7.53,25.57,12.85,9.27,6.17,17.4,13.66,24.82,21.89,3.49,3.86,6.69,8,9.64,12.33,3.86,5.66,7.51,11.43,10.66,17.51,5.19,10.01,9.48,20.42,12.62,31.24,3.89,13.4,6.75,27.03,6.06,41.12-.47,9.61-2.73,18.73-7.47,27.24-4.37,7.83-10.12,14.57-16.08,21.15-5.21,5.76-10.52,11.44-16.08,16.86-7.69,7.51-15.4,15.03-24.32,21.13-6.99,4.77-14.18,9.15-22.21,12.04-11.02,3.96-19.57,5.65-28.49,5.56"/>
  <path class="st0" d="M214,218.27c.34,3.13.65,5.45-.6,7.53-1.26,2.1-3.02,2.52-4.35.27-1.73-2.91-1.96-6.1-.29-9.23.18-.35.46-.95.68-.94,5.04.16,3.52-3.96,4.3-6.55.39-1.31.8-2.71,2.28-3.04,1.75-.4,2.72.95,3.45,2.22,1.51,2.62,1.47,5.39.17,8.07-1.08,2.23-2.89,3-5.63,1.66"/>
  <path class="st0" d="M238.18,205.06c-1.08,1.55-1.31,4.34-3.68,3.67-2.13-.61-2.31-3.04-2.27-5.11.02-.93-.03-1.94.32-2.76.67-1.6,1.49-3.37,3.33-3.78,2.03-.45,1.64,2.16,3.03,2.85,1.29-.61.8-3.47,3.06-2.85,1.86.51,2.76,2.11,3.09,3.89.44,2.37,1.03,4.8-.19,7.1-.54,1.03-1.17,2.34-2.57,2.27-1.35-.07-2.02-1.19-2.41-2.4-.31-.98-.15-2.2-1.7-2.88"/>
  <path class="st0" d="M246.68,215.01c.21-.97.45-2.42.82-3.83.62-2.32,2.25-4.56-.1-6.95-.7-.71-.4-2.07.05-3.08.5-1.13,1.1-2.27,2.6-2,1.35.25,1.74,1.69,1.46,2.51-1.35,3.9.74,6.59,2.57,9.66,1.83,3.07.33,7.94-2.34,10.28-1.36,1.19-2.42.84-3.39-.39-1.32-1.66-1.44-3.69-1.68-6.2"/>
  <path class="st0" d="M213.48,146.85c.17,3.29-.4,6.44-2.36,9.14-.74,1.02-1.75,2.17-3.33,1.81-1.58-.35-1.98-1.72-2.23-3.04-.72-3.64-.14-7.21.9-10.7.63-2.11,1.76-4.41,4.22-4.08,2.35.31,2.27,2.98,2.73,4.87.16.63.05,1.33.07,2"/>
  <path class="st0" d="M198.69,168.29c-.13-1.56.23-3.11.87-4.62,1.29-3.08,4.32-3.68,6.68-1.31,3.12,3.14,2.76,9.96-.71,12.81-2.12,1.74-3.9.74-5.08-1.12-1.06-1.67-1.89-3.57-1.76-5.77"/>
  <path class="st0" d="M218.28,153.51c-.01-.4-.06-.8-.02-1.2.26-2.97.42-6.15,4.13-6.86,2.48-.48,4.78,2.72,5.05,6.6.03.53.03,1.07-.02,1.6-.34,3.86-2.57,6.79-5.1,6.7-2.43-.09-3.95-2.66-4.04-6.84"/>
  <path class="st0" d="M207.91,232.59c.03,4.65-1.71,7.4-4.18,7.15-2.31-.24-3.87-3.57-3.08-7.32.56-2.64.95-6.74,4.02-6.44,2.69.26,2.78,4.38,3.24,6.61"/>
  <path class="st0" d="M183.02,168.68c-.09.53-.11.8-.18,1.05-.6,2.32-.89,5.57-3.89,5.29-3.16-.29-3.17-3.62-3.07-6.12.11-2.8.32-5.64,1.44-8.3.36-.86.51-1.92,1.65-2.07,1.31-.17,1.94.89,2.44,1.78,1.48,2.68,1.21,5.72,1.61,8.37"/>
  <path class="st0" d="M244.65,184.1c0,3.44-.65,6.24-3.34,8.11-1.13.79-2.41.62-3.31-.34-2.27-2.42-2.18-5.29-1.39-8.27.65-2.48,1.16-5.63,4.42-5.14,2.81.43,3.39,3.39,3.62,5.64"/>
  <path class="st0" d="M236.83,174.06c-.02.2.03,1.16-.2,2.05-.51,2.06-1.05,4.7-3.49,4.7-2.69,0-3.97-2.38-4.4-4.92-.17-1.03-.25-2.17.02-3.16.67-2.44.56-6.11,4.13-5.81,3.3.28,4.04,3.38,3.95,7.14"/>
  <path class="st0" d="M238.34,155.13c-.05.59-.08.99-.12,1.39-.4,4.2-2.83,8.07-4.84,7.31-3.84-1.46-2.75-4.94-2.37-7.91.21-1.69-.31-3.58.93-5.04.94-1.11,2.02-2.47,3.61-2.18,1.42.25,1.96,1.65,2.18,3.06.19,1.19.43,2.37.61,3.38"/>
  <path class="st0" d="M206.2,217.11c.03,4.23-1.99,7.87-4.05,7.43-3.68-.79-3.86-3.9-3.94-6.92,0-.13.02-.27.05-.4.64-2.76.59-6.88,4.18-6.65,3.3.21,3.32,4.23,3.77,6.54"/>
  <path class="st0" d="M225.52,182.92c0,3.17-.24,7.33-3.65,7.48-3.23.14-3.03-4.31-3.82-7.01-.11-.38-.05-.8-.07-1.2-.15-2.77.4-5.59,3.51-5.84,3.35-.27,3.81,2.7,4,5.36.02.4.02.8.03,1.21"/>
  <path class="st0" d="M218.48,168.52c-.24,1.17-.34,2.39-.76,3.49-.48,1.26-1.26,2.56-2.85,2.43-1.37-.11-2.58-.93-3.12-2.25-1.13-2.77-1.75-5.61-.66-8.6.48-1.32,1.02-2.57,2.52-2.83,1.57-.27,2.41.9,3.18,2.02,1.17,1.72,1.7,3.63,1.69,5.74"/>
  <path class="st0" d="M166.92,200.33c.39-2.74.75-5.55,3.4-7.3.68-.45,1.91-.81,2.2-.1,1.07,2.65,3.16,5.04,2.4,8.22-.19.78-.38,1.57-.68,2.3-.7,1.68-1.64,3.18-3.78,3-2.18-.18-2.66-2-3.17-3.66-.23-.76-.24-1.58-.36-2.46"/>
  <path class="st0" d="M256.03,173.6c.15,3.39-2.36,8.13-4.18,7.78-4.05-.77-3.21-4.22-3.36-7.05,0-.13,0-.27,0-.4.05-2.82.68-6.02,3.78-6.11,3.55-.12,2.78,3.85,3.76,5.78"/>
  <path class="st0" d="M190.84,232.97c.63-2.73,0-6.89,3.85-6.87,3.03.01,4.05,3.65,4.1,6.53.05,2.92-1.05,6.32-4.14,6.46-3.36.16-3.4-3.44-3.81-6.12"/>
  <path class="st0" d="M261.59,185.86c.05,3.59-2.63,7.91-4.76,7.35-3.8-1-2.68-4.31-2.8-6.98-.01-.26-.03-.55.05-.8.79-2.43.62-5.58,3.84-6.36,1.7-.42,3.63,3.33,3.67,6.78"/>
  <path class="st0" d="M238.65,166.67c.54-2.52.32-6.24,3.8-6.52,3.49-.28,3.29,3.63,4.17,5.95.87,2.32.02,4.48-1.78,6.19-1.02.97-2.14.93-3.32.31-2.35-1.23-2.86-3.36-2.88-5.93"/>
  <path class="st0" d="M182.19,156.1c-.21-4.66,1.68-8.37,3.97-7.91,3.87.78,3.46,4.39,3.52,7.13.07,2.79-.6,6.42-3.99,6.41-3.35-.01-3.3-3.6-3.5-5.64"/>
  <path class="st0" d="M188.44,179.92c.18,4.46-2.86,9.77-4.86,8.95-3.24-1.34-2.16-4.71-2.43-7.37-.06-.53-.09-1.12.1-1.59.73-1.83.14-5.01,3.07-4.83,2.91.18,3.96,2.78,4.12,4.84"/>
  <path class="st0" d="M255.21,205.13c.22-3.17.32-5.9,1.97-8.16,1.03-1.4,2.69-2.08,3.38-.06,1.2,3.47,2.72,7.11.72,10.85-.72,1.35-1.13,3.34-3.23,2.93-1.81-.35-2.32-2.04-2.61-3.68-.14-.79-.21-1.58-.24-1.88"/>
  <path class="st0" d="M240.61,230.75c-.15,2.91-.14,6.24-3.83,6.45-2.85.16-3.92-2.3-3.88-5.02.04-3.12.54-6.28,4.32-6.53,3.44-.23,3.19,2.81,3.39,5.1"/>
  <path class="st0" d="M215.73,234.16c.06-1.35-.03-2.31.16-3.21.31-1.48.96-2.88,2.67-3.1,1.94-.25,3.06,1.09,3.55,2.64.74,2.29,1.04,4.7.24,7.08-.52,1.56-1.22,3.03-3.21,3.04-1.92,0-2.35-1.6-2.81-2.93-.42-1.24-.46-2.61-.6-3.52"/>
  <path class="st0" d="M231.55,222.65c-.02,3.49-.85,6.1-3.41,7.87-.77.53-1.52.25-2.14-.41-2.05-2.2-1.24-4.76-.89-7.26.04-.26.08-.54.19-.78.86-1.73,1.15-4.66,3.37-4.42,2.73.29,2.54,3.33,2.89,5.01"/>
  <path class="st0" d="M233.5,192.05c-.14.82-.11,1.81-.47,2.64-.95,2.25-2.28,4.78-5.07,4.04-2.44-.65-2.17-3.31-1.91-5.46.09-.79.29-1.57.54-2.32.65-2.01,1.18-4.63,3.92-4.11,2.38.45,2.73,2.95,3,5.21"/>
  <path class="st0" d="M206.47,183.63c.04-2.85.06-5.64,3.16-5.55,3.11.08,4.1,2.9,4.06,5.54-.03,2.57-.89,5.77-3.92,5.56-3-.21-3.28-3.4-3.3-5.54"/>
  <path class="st0" d="M244.23,217.94c.02,1.02.09,1.43.03,1.82-.34,2.3-.86,5.19-3.39,5.28-2.35.07-2.03-3.01-2.67-4.81-.18-.48-.09-1.06-.11-1.6-.07-2.46-.08-5.78,2.67-5.91,3.09-.15,3.11,3.36,3.46,5.22"/>
  <path class="st0" d="M217.58,200.67c.54-2.11-.03-5.3,3.09-5.19,2.92.11,4,2.89,4.04,5.57.04,2.42-.43,5.39-3.42,5.36-3.34-.03-3-3.44-3.7-5.75"/>
  <path class="st0" d="M245.47,192.46c.52-2.58-.31-6.5,3.12-6.93,2.95-.37,3.01,3.22,3.09,5.48.1,2.6-.64,5.48-3.67,5.75-2.52.23-2.13-2.51-2.54-4.29"/>
  <path class="st0" d="M191.11,205.23c.52-2.58-.31-6.5,3.12-6.93,2.95-.37,3.01,3.22,3.09,5.47.1,2.59-.64,5.48-3.67,5.75-2.52.23-2.13-2.51-2.54-4.29"/>
  <path class="st0" d="M221.35,170.32c.07-.84.08-1.24.15-1.63.37-2.22.41-4.98,3.35-5.12,2.25-.11,2.98,2.2,3.04,4.04.1,2.86-.55,6.18-3.61,6.82-3.09.65-2.41-2.66-2.93-4.11"/>
  <path class="st0" d="M198.42,188.45c.07-.84.08-1.24.15-1.63.37-2.22.41-4.99,3.35-5.12,2.25-.11,2.98,2.2,3.04,4.04.09,2.86-.55,6.18-3.61,6.82-3.1.65-2.42-2.66-2.93-4.1"/>
  <path class="st0" d="M230.19,240.54c-.29,1.76-.43,4.64-3.12,4.8-2.82.17-2.85-2.73-2.83-4.78.02-2.25.34-5.03,3.26-5.03,2.5,0,2.73,2.44,2.69,5.01"/>
  <path class="st0" d="M161.38,188.8c.02-2.08-.13-4.39,2.15-4.78,2.09-.37,2.57,1.88,3.28,3.42,1.03,2.24.91,4.4-.57,6.41-.5.68-1.32,1.13-2.09.63-2.11-1.36-2.56-3.57-2.77-5.67"/>
  <path class="st0" d="M231.27,209.97c-.42,2.12-.89,4.98-3.79,4.95-2.44-.02-2.57-2.76-2.6-4.72-.03-2.15.38-4.82,2.9-5,2.48-.18,3.4,2.12,3.49,4.77"/>
  <path class="st0" d="M173.87,212.12c-.39,2.24,1.32,5.57-1.52,6.4-2.36.69-2.72-2.74-3.82-4.47-.14-.22-.21-.5-.23-.76-.19-1.9-1.55-4.6.87-5.32,2.69-.8,3.44,2.26,4.7,4.15"/>
  <path class="st0" d="M243.41,229.48c.14-1.11.05-3.88,3.05-3.99,2.21-.08,2.4,2.1,2.27,3.91-.17,2.4-1.04,4.83-3.6,4.98-1.89.11-1.95-2.12-1.72-4.9"/>
  <path class="st0" d="M212.9,191.77c.17-1.86.54-3.67,2.77-3.81,2.12-.13,3.31,1.29,3.25,3.25-.07,2.04-.81,4.39-3.09,4.58-2.42.2-2.55-2.23-2.92-4.02"/>
  <path class="st0" d="M209.7,241.81c.07-1.79.56-3.52,2.55-3.53,2.49,0,2.86,2.14,2.94,4.06.07,1.82-.36,3.86-2.66,3.72-2.4-.15-2.48-2.44-2.83-4.25"/>
  <path class="st0" d="M179.99,210.61c-.1,1.5-.03,3.36-1.77,3.67-1.95.36-2.13-1.54-2.5-2.95-.03-.13-.05-.26-.09-.39-.44-1.81-1.16-3.66.39-5.3.53-.56,1.29-.51,1.82-.04,1.47,1.33,1.96,3.13,2.15,5.01"/>
  <path class="st0" d="M188.38,232.66c-.01,2.13.04,4.46-2.28,4.7-2.22.23-2.08-2.1-2.07-3.6.01-1.89-.68-4.75,1.84-5.07,2.32-.3,2.24,2.4,2.51,3.97"/>
  <path class="st0" d="M236.4,214.98c-.37,1.88-.36,4.37-2.89,4.54-1.65.11-1.55-1.97-1.5-3.18.07-1.77-.27-4.25,2.1-4.61,1.65-.25,2.14,1.64,2.29,3.25"/>
  <path class="st0" d="M262.35,194.44c.21-1.63.24-3.48,2.37-3.67,1.77-.16,2.33,1.34,2.23,2.71-.12,1.69-.33,3.9-2.38,4.17-2.01.26-1.77-1.91-2.22-3.21"/>
  <path class="st0" d="M194.71,179.06c.44-1.59.73-3.41,2.86-3.3,1.77.09,2.12,1.65,1.83,2.99-.36,1.66-.87,3.82-2.95,3.79-2.03-.03-1.49-2.14-1.75-3.49"/>
  <path class="st0" d="M256.52,217.85c.6-1.51.33-3.82,2.83-3.57,1.88.18,2.1,1.8,1.87,3.32-.24,1.59-.74,3.35-2.66,3.39-1.94.04-2.06-1.63-2.04-3.14"/>
  <path class="st0" d="M206.95,210.91c.59-1.51.33-3.81,2.83-3.58,1.88.18,2.11,1.8,1.87,3.33-.24,1.59-.74,3.35-2.66,3.39-1.95.04-2.07-1.63-2.04-3.14"/>
  <path class="st0" d="M173.5,225.72c.03-1.67-.24-3.46,1.49-3.59,2.05-.15,1.78,1.98,2.07,3.27.32,1.38-.01,2.98-1.73,3-1.79.02-1.74-1.68-1.84-2.68"/>
  <path class="st0" d="M159.25,205.87c1.16,1.5,1.51,4.28,3.85,3.49,2.11-.71,2.17-3.15,2.03-5.21-.06-.93-.06-1.94-.44-2.75-.74-1.57-1.65-3.3-3.5-3.62-2.05-.35-1.54,2.23-2.89,2.99-1.31-.55-.95-3.43-3.19-2.7-1.83.59-2.66,2.23-2.91,4.03-.33,2.38-.81,4.84.51,7.08.59,1.01,1.28,2.28,2.68,2.15,1.34-.13,1.96-1.28,2.29-2.51.27-.99.05-2.21,1.57-2.95"/>
  <path class="st0" d="M150.43,216.81c-.25-.96-.56-2.39-.99-3.78-.72-2.3-2.46-4.46-.22-6.96.66-.74.3-2.08-.2-3.07-.55-1.1-1.2-2.22-2.69-1.88-1.35.31-1.67,1.77-1.35,2.57,1.53,3.83-.43,6.61-2.13,9.77-1.69,3.15.04,7.95,2.81,10.16,1.41,1.13,2.46.72,3.37-.54,1.25-1.72,1.27-3.75,1.39-6.26"/>
  <path class="st0" d="M196.38,168.6c.06-1.57-.38-3.09-1.08-4.58-1.43-3.01-4.48-3.48-6.73-1-2.98,3.27-2.31,10.08,1.3,12.77,2.2,1.64,3.93.56,5.02-1.35.99-1.71,1.72-3.65,1.49-5.84"/>
  <path class="st0" d="M175.99,154.09c0-.4.02-.8-.03-1.2-.4-2.95-.7-6.12-4.44-6.66-2.5-.36-4.65,2.94-4.74,6.82-.01.53.02,1.07.09,1.59.52,3.85,2.88,6.67,5.39,6.46,2.43-.2,3.83-2.83,3.73-7.01"/>
  <path class="st0" d="M151.04,185.85c.16,3.43.94,6.2,3.7,7.95,1.16.74,2.44.51,3.29-.49,2.15-2.51,1.94-5.39,1.01-8.33-.76-2.44-1.41-5.57-4.65-4.93-2.79.55-3.23,3.54-3.36,5.8"/>
  <path class="st0" d="M158.39,175.46c.02.2.02,1.16.29,2.04.61,2.03,1.26,4.64,3.71,4.54,2.68-.12,3.86-2.56,4.17-5.12.13-1.04.15-2.18-.16-3.15-.78-2.41-.84-6.07-4.39-5.61-3.28.42-3.89,3.57-3.61,7.31"/>
  <path class="st0" d="M181.1,202.86c.04,3.98,2.86,8.53,4.83,7.94,3.91-1.17,3.37-4.58,3.23-7.66,0-.13,0-.27-.04-.4-.54-2.55-.43-5.99-4.1-5.81-3.81.18-3.38,3.8-3.92,5.93"/>
  <path class="st0" d="M156.24,155.07c.08.58.13.98.18,1.38.6,4.18,3.19,7.93,5.17,7.08,3.77-1.63,2.52-5.06,2.01-8.01-.29-1.68.14-3.59-1.16-4.99-.99-1.07-2.12-2.37-3.7-2.02-1.41.32-1.88,1.74-2.04,3.15-.14,1.2-.32,2.39-.46,3.4"/>
  <path class="st0" d="M180.17,219.84c.16,4.23,2.35,7.77,4.38,7.23,3.65-.96,3.68-4.07,3.63-7.09,0-.13-.03-.27-.07-.39-.77-2.73-.9-6.85-4.48-6.45-3.28.36-3.12,4.38-3.46,6.7"/>
  <path class="st0" d="M170.1,183.79c.14,3.17.57,7.32,3.99,7.31,3.23-.01,2.82-4.45,3.49-7.18.09-.38.01-.8.02-1.2.03-2.77-.65-5.57-3.78-5.67-3.36-.11-3.68,2.87-3.75,5.54,0,.4.02.8.03,1.21"/>
  <path class="st0" d="M193.78,150.86c.13,2.44.07,4.19,1.08,5.77.74,1.16,1.37,2.49,3.03,2.07,1.4-.36,2.36-1.49,2.5-2.88.41-3.91.33-7.79-1.66-11.37-.47-.85-1.03-1.7-2.11-1.59-1.07.11-1.48,1.04-1.75,1.98-.63,2.2-1.41,4.37-1.1,6.02"/>
  <path class="st0" d="M139.19,175.88c.01,3.4,2.73,8.01,4.54,7.58,4.01-.95,3.01-4.36,3.03-7.2,0-.13,0-.26-.02-.4-.18-2.82-.95-5.98-4.06-5.94-3.56.05-2.6,3.98-3.5,5.95"/>
  <path class="st0" d="M134.2,188.37c.12,3.58,2.99,7.79,5.09,7.13,3.75-1.17,2.49-4.43,2.48-7.1,0-.26,0-.55-.09-.79-.9-2.4-.88-5.55-4.13-6.18-1.72-.34-3.48,3.49-3.36,6.94"/>
  <path class="st0" d="M156.24,168.16c-.66-2.49-.61-6.22-4.1-6.34-3.49-.12-3.12,3.77-3.89,6.13-.77,2.36.18,4.47,2.05,6.11,1.06.92,2.19.83,3.33.16,2.29-1.33,2.71-3.49,2.6-6.06"/>
  <path class="st0" d="M141.46,207.34c-.36-3.16-.58-5.88-2.35-8.07-1.09-1.35-2.79-1.95-3.38.09-1.04,3.53-2.39,7.23-.22,10.87.78,1.31,1.28,3.28,3.36,2.78,1.79-.43,2.22-2.14,2.44-3.79.1-.79.14-1.59.16-1.89"/>
  <path class="st0" d="M206.26,201.11c-.58-2.82.19-6.67-3.45-6.57-3.5.09-3.66,3.88-3.65,6.61.01,2.78.58,6.82,3.61,6.76,3.7-.07,2.73-4.43,3.49-6.79"/>
  <path class="st0" d="M157.21,232.27c.29,2.9.42,6.22,4.13,6.26,2.86.03,3.8-2.47,3.64-5.19-.18-3.11-.83-6.24-4.61-6.32-3.45-.07-3.06,2.96-3.16,5.25"/>
  <path class="st0" d="M182.22,234.53c-.12-1.35-.08-2.31-.31-3.2-.38-1.46-1.09-2.83-2.81-2.97-1.95-.16-3,1.23-3.43,2.8-.63,2.32-.82,4.75.09,7.09.6,1.54,1.35,2.97,3.35,2.88,1.92-.08,2.28-1.71,2.67-3.05.37-1.26.34-2.63.44-3.54"/>
  <path class="st0" d="M165.52,225.39c.19,3.48,1.12,6.05,3.77,7.7.8.5,1.53.18,2.12-.51,1.95-2.3,1.02-4.82.56-7.29-.05-.26-.1-.54-.23-.77-.93-1.69-1.36-4.6-3.56-4.26-2.72.41-2.38,3.44-2.66,5.13"/>
  <path class="st0" d="M188.61,189.18c.55,2.79.65,6.51,3.7,6.42,3.21-.11,3.03-3.81,2.85-6.41-.17-2.5-.55-5.95-3.51-5.86-3.11.1-2.48,3.71-3.05,5.85"/>
  <path class="st0" d="M153.01,219.63c.02,1.02-.02,1.43.05,1.82.45,2.28,1.1,5.15,3.62,5.11,2.35-.03,1.89-3.1,2.45-4.93.15-.49.04-1.06.03-1.6-.04-2.46-.18-5.77-2.93-5.78-3.09,0-2.95,3.5-3.22,5.37"/>
  <path class="st0" d="M150.6,194.23c-.64-2.56.01-6.51-3.43-6.78-2.96-.24-2.85,3.35-2.84,5.61.02,2.6.89,5.45,3.93,5.58,2.53.11,2.02-2.6,2.34-4.41"/>
  <path class="st0" d="M173.69,171.02c-.11-.83-.14-1.24-.22-1.62-.48-2.2-.64-4.96-3.58-4.96-2.25,0-2.88,2.34-2.86,4.17.04,2.86.83,6.15,3.92,6.65,3.12.51,2.29-2.77,2.74-4.24"/>
  <path class="st0" d="M207.95,200.75c.04.37.03.52.08.64.75,1.86.29,5.04,3.02,4.96,2.59-.07,2.35-3.07,2.81-5.06.06-.26.02-.54.01-.8-.09-2.22.24-5.38-2.69-5.24-2.75.13-2.88,3.36-3.23,5.5"/>
  <path class="st0" d="M168.06,241.56c.38,1.74.64,4.62,3.34,4.65,2.82.04,2.72-2.85,2.61-4.9-.12-2.25-.57-5.01-3.49-4.87-2.5.12-2.62,2.56-2.46,5.12"/>
  <path class="st0" d="M190.43,217.66c1.04,2.03.39,5.71,3.34,5.67,2.46-.04,1.8-3.42,2.33-5.4.07-.25.05-.54,0-.8-.38-1.87.12-4.85-2.4-4.82-2.81.03-2.62,3.17-3.27,5.35"/>
  <path class="st0" d="M154.35,231.12c-.2-1.1-.23-3.88-3.23-3.85-2.21.02-2.3,2.21-2.09,4.01.28,2.39,1.26,4.78,3.83,4.81,1.89.02,1.85-2.21,1.49-4.97"/>
  <path class="st0" d="M182.99,193.24c-.25-1.85-.7-3.64-2.94-3.68-2.12-.04-3.25,1.44-3.1,3.4.16,2.04,1.01,4.35,3.3,4.43,2.42.09,2.45-2.34,2.74-4.15"/>
  <path class="st0" d="M188.59,241.9c-.15-1.78-.72-3.49-2.71-3.41-2.49.1-2.76,2.27-2.75,4.19,0,1.83.53,3.84,2.82,3.59,2.39-.26,2.37-2.55,2.64-4.38"/>
  <path class="st0" d="M209.48,232.38c.11,2.12.17,4.46,2.49,4.59,2.23.13,1.98-2.19,1.9-3.69-.1-1.89.47-4.78-2.07-4.98-2.33-.19-2.13,2.5-2.32,4.09"/>
  <path class="st0" d="M160.69,216.32c.46,1.85.56,4.34,3.1,4.4,1.65.04,1.45-2.04,1.35-3.25-.15-1.76.08-4.26-2.3-4.51-1.65-.17-2.06,1.73-2.14,3.36"/>
  <path class="st0" d="M133.84,196.98c-.29-1.62-.4-3.46-2.54-3.55-1.77-.07-2.27,1.45-2.1,2.81.2,1.68.51,3.88,2.57,4.05,2.02.17,1.68-1.99,2.07-3.31"/>
  <path class="st0" d="M140.72,220.1c-.66-1.48-.5-3.8-2.99-3.44-1.87.26-2.02,1.89-1.72,3.41.31,1.58.9,3.31,2.82,3.26,1.95-.05,1.99-1.72,1.89-3.23"/>
  <path class="st0" d="M222.58,223c-.1-1.66.08-3.47-1.66-3.52-2.05-.05-1.68,2.07-1.92,3.37-.25,1.39.15,2.97,1.86,2.91,1.79-.06,1.66-1.76,1.71-2.76"/>
  <path class="st0" d="M183.58,271.32c-1.59-14.47,3.9-15.94,8.52-21.02,1.23-1.35,7.59-4.94,4.9-8.01-2.36-2.12-6.24,4.38-7.68,5.67-.1.09-.17.22-.27.3-1.2.96-5.1,6.61-6.66,6-1.59-.62-.54-2.88-.72-4.41-.14-1.19,0-2.44-.32-3.57-.58-2-2.34-2-3.98-1.8-1.62.19-1.78,1.52-1.61,2.75,1.41,10.1,1.59,26.84.05,36.82-.28,1.79-1.4,4.48,2.14,4.28,2.58-.14,5.7-.04,5.47-4.15-.11-2.01.18-10.83.14-12.84"/>
  <path class="st0" d="M215.91,270.58c.93-14.52-4.62-15.75-9.48-20.61-1.28-1.29-7.81-4.59-5.26-7.77,2.26-2.22,6.43,4.09,7.93,5.31.1.08.18.21.28.29,1.25.9,5.4,6.37,6.93,5.69,1.56-.69.4-2.9.51-4.44.08-1.19-.12-2.44.15-3.58.48-2.03,2.24-2.11,3.89-1.99,1.62.12,1.85,1.44,1.73,2.68-.95,10.15-.36,26.89,1.62,36.78.36,1.78,1.6,4.41-1.94,4.37-2.58-.03-5.69.22-5.66-3.89.02-2.01-.67-10.81-.72-12.82"/>
  <path class="st2" d="M81.01,133.9c-.57-.35-.97-.74-.57-1.4l3.85-6.28c1.08-1.76,2.78-2.21,4.52-1.14,1.4.86,1.72,1.82,2.17,3.32,2.33-.76,4.01-.82,6.13.48,2.46,1.51,3,4.29,1.51,6.74l-3.28,5.35c-.53.87-.98,1.12-1.74.65l-12.59-7.71ZM82.85,132.47l2.04,1.25c1.33-1.98,3.19-3.68,4.29-4.47-.2-.82-.49-1.67-1.21-2.12-1.21-.74-2.04.33-2.64,1.3l-2.47,4.03ZM93.97,139.28l2.41-3.93c1.42-2.31.71-3.74-.75-4.64-3.54-2.17-7.09,1.38-9,4.06l7.34,4.5Z"/>
  <path class="st2" d="M100.28,122.26c2.16,1.93,4.42,1.31,5.69-.29l2.93-3.71c.42-.53.93-.7,1.44-.29.51.4.46.94.05,1.46l-2.96,3.75c-2.04,2.58-5.43,3.42-8.87.7-2.93-2.31-3.3-5.94-1-8.85,1.91-2.42,5.14-3.01,7.6-1.07.82.65,1.02.84.28,1.78l-5.15,6.52ZM103.51,115.45c-1.43-1-3.23-.81-4.48.77-1.48,1.88-1.06,3.67,0,4.91l4.49-5.68Z"/>
  <path class="st2" d="M121.26,106.63c.51.55.45,1.1.02,1.51l-2.95,2.89c-2.91,2.86-5.78,2.96-8.12.57-3.16-3.22-3.06-7.53,1.29-11.8l-2.18-2.22c-.52-.53-.71-1.12-.12-1.69.59-.57,1.17-.38,1.69.16l10.38,10.57ZM112.93,101.27c-2.33,2.5-3.95,5.83-1.22,8.6,1.78,1.81,3.42,1.46,5.16-.25l2.17-2.13-6.1-6.22Z"/>
  <path class="st2" d="M135.36,89.87c1.27,2.6,3.6,2.88,5.38,1.88l4.12-2.33c.59-.33,1.12-.29,1.44.27.32.56.08,1.04-.51,1.37l-4.16,2.35c-2.86,1.62-6.32,1.11-8.48-2.7-1.84-3.25-.81-6.75,2.41-8.57,2.69-1.52,5.9-.85,7.44,1.88.52.91.63,1.16-.41,1.75l-7.24,4.09ZM140.92,84.78c-.94-1.47-2.69-1.97-4.44-.98-2.08,1.18-2.36,3-1.86,4.54l6.3-3.57Z"/>
  <path class="st2" d="M147.64,77.38c-.21-.56,0-1.06.57-1.27.56-.21,1.05.04,1.25.6l.3.82.06.03c.27-1.72,1.46-2.74,2.96-3.28,2.76-1.01,5.04.22,5.97,2.77l2.38,6.5c.26.7.19,1.31-.58,1.59-.77.28-1.22-.14-1.47-.84l-2.07-5.65c-.76-2.08-1.89-3.05-3.87-2.32-1.8.66-2.6,2.6-1.92,4.47l2.06,5.63c.26.7.19,1.31-.58,1.59-.77.28-1.22-.14-1.47-.84l-3.59-9.79Z"/>
  <path class="st2" d="M178.93,64.91c-.04-.67.05-1.23.82-1.28l7.35-.48c2.06-.14,3.41,1,3.54,3.03.11,1.64-.49,2.45-1.45,3.69,1.97,1.47,2.98,2.8,3.14,5.28.19,2.88-1.77,4.93-4.63,5.12l-6.26.41c-1.02.07-1.48-.15-1.54-1.05l-.97-14.73ZM181.17,65.58l.16,2.38c2.39-.06,4.85.48,6.12.92.56-.64,1.08-1.37,1.03-2.21-.09-1.42-1.44-1.48-2.59-1.4l-4.72.31ZM182.03,78.6l4.6-.3c2.71-.18,3.46-1.58,3.35-3.29-.27-4.15-5.22-4.99-8.51-5l.57,8.6Z"/>
  <path class="st2" d="M197.7,73.75c.29-3.42,3.13-6.2,6.51-5.91,3.37.29,5.72,3.52,5.42,6.94-.32,3.67-3.16,6.25-6.54,5.96-3.37-.29-5.71-3.32-5.39-6.99M207.45,74.62c.21-2.41-1.12-4.7-3.4-4.89-2.26-.19-3.96,1.83-4.16,4.24-.21,2.41,1.12,4.69,3.38,4.89,2.28.2,3.98-1.83,4.19-4.24"/>
  <path class="st2" d="M224.88,71.36c.68.15,1.1.57.95,1.25-.15.68-.71.89-1.39.74l-4.98-1.09c-.54-.12-1.1-.21-1.24.44-.18.8.72,1.02,1.54,1.36l3.64,1.51c1.91.8,2.35,2.4,1.96,4.2-.61,2.8-2.7,4.05-5.4,3.46l-5.13-1.12c-.71-.15-1.1-.57-.95-1.25.15-.68.68-.89,1.39-.74l4.99,1.09c1.95.43,2.84-.63,3.07-1.7.22-1,.02-1.83-1.27-2.34l-3.7-1.47c-1.88-.74-2.62-1.9-2.33-3.19.42-1.92,2.08-2.63,3.9-2.23l4.96,1.09Z"/>
  <path class="st2" d="M240.85,88.38c-.25.7-.69,1.13-1.47.85-.77-.28-.85-.89-.6-1.59l2.03-5.67c.75-2.09.5-3.55-1.49-4.26-1.8-.65-3.66.33-4.33,2.2l-2.02,5.65c-.25.7-.69,1.13-1.47.85-.77-.28-.85-.88-.6-1.59l4.95-13.83c.25-.7.69-1.13,1.47-.85.77.28.85.89.59,1.59l-1.58,4.41c1.35-.73,2.71-.7,4.02-.23,2.77.99,3.73,3.4,2.82,5.95l-2.33,6.52Z"/>
  <path class="st2" d="M256.54,96.04c-.27.53-.78.72-1.31.45-.54-.27-.69-.79-.42-1.32l.39-.78-.02-.07c-1.44.98-2.99.81-4.42.09-2.63-1.32-3.29-3.82-2.07-6.25l3.1-6.19c.34-.67.83-1.03,1.56-.67.73.37.73.98.4,1.65l-2.7,5.38c-.99,1.98-.93,3.46.96,4.41,1.71.86,3.67.12,4.57-1.66l2.69-5.36c.33-.67.82-1.03,1.56-.67.73.37.73.98.4,1.65l-4.67,9.32Z"/>
  <path class="st2" d="M264.96,100.86c-.4.63-.92.95-1.61.52-.7-.44-.64-1.05-.24-1.68l5.41-8.66c.4-.63.92-.95,1.61-.52.7.44.64,1.05.24,1.68l-5.41,8.65ZM272.6,88.76c-.39.63-1.08,1.03-1.76.61-.68-.42-.62-1.21-.23-1.85.4-.63,1.08-1.03,1.76-.6.67.42.62,1.21.23,1.84"/>
  <path class="st2" d="M283.95,100.26c.56.42.76.98.34,1.53-.42.56-1.01.52-1.57.1l-4.08-3.06c-.44-.33-.91-.65-1.31-.11-.49.66.23,1.23.84,1.87l2.69,2.89c1.41,1.52,1.15,3.16.04,4.63-1.72,2.29-4.13,2.56-6.34.91l-4.2-3.15c-.58-.43-.76-.98-.34-1.53.42-.56.99-.53,1.57-.1l4.08,3.06c1.59,1.19,2.84.61,3.5-.27.61-.82.78-1.66-.18-2.66l-2.76-2.88c-1.4-1.45-1.59-2.81-.8-3.87,1.18-1.57,2.98-1.53,4.48-.41l4.06,3.05Z"/>
  <path class="st2" d="M284.81,118.11c-2.14,2.36-4.62,2.06-6.73.15-1.51-1.37-2.12-2.26-1.53-2.9.38-.42.93-.43,1.37-.03.46.38.73.9,1.36,1.47,1.18,1.07,2.67,1.21,4.56-.88l7.29-8.04c.5-.55,1.07-.77,1.68-.22.61.55.44,1.14-.06,1.7l-7.94,8.76ZM295.56,106.36c-.5.55-1.25.82-1.84.28-.59-.53-.4-1.3.1-1.85.5-.55,1.25-.82,1.84-.28.59.54.4,1.3-.1,1.86"/>
  <path class="st2" d="M295.12,118.93c-2.24,1.83-1.98,4.17-.59,5.67l3.21,3.47c.46.49.54,1.03.07,1.46-.47.44-1,.31-1.45-.18l-3.25-3.51c-2.23-2.41-2.54-5.9.68-8.87,2.74-2.54,6.38-2.34,8.9.38,2.1,2.27,2.18,5.55-.12,7.68-.77.71-.99.88-1.8,0l-5.65-6.11ZM301.35,123.17c1.21-1.26,1.3-3.07-.07-4.55-1.62-1.76-3.46-1.61-4.85-.77l4.92,5.32Z"/>
  <path class="st2" d="M315.35,133.44c.41.57.43,1.16-.13,1.57-.57.41-1.12.19-1.52-.38l-2.98-4.14c-.32-.44-.67-.9-1.22-.5-.67.48-.15,1.24.24,2.04l1.7,3.56c.89,1.88.15,3.36-1.35,4.43-2.33,1.67-4.71,1.21-6.32-1.04l-3.06-4.27c-.42-.59-.43-1.16.13-1.57.57-.41,1.1-.21,1.53.38l2.98,4.14c1.16,1.62,2.53,1.43,3.42.79.83-.6,1.24-1.35.62-2.59l-1.77-3.57c-.9-1.81-.68-3.16.39-3.93,1.6-1.15,3.3-.56,4.39.95l2.96,4.12Z"/>
</svg>