<svg width="218" height="71" viewBox="0 0 218 71" fill="none" xmlns="http://www.w3.org/2000/svg">
<g clip-path="url(#clip0_1_262)">
<path d="M85.6432 29.2882L87.3609 27.7776C88.9268 29.7332 90.8549 30.8575 93.3906 30.8575C95.9264 30.8575 97.9129 29.2531 97.9129 26.829V26.7705C97.9129 24.1941 95.5174 22.7654 92.1169 22.7654H90.7848L90.3174 21.3719L96.8496 13.9942H86.7299V11.8863H99.9462V13.6077L93.4374 20.8449C97.0482 21.1377 100.273 22.8942 100.273 26.6885V26.747C100.273 30.4476 97.2001 33.0005 93.3556 33.0005C89.8967 33.0005 87.3259 31.4898 85.6315 29.3L85.6432 29.2882Z" fill="white"/>
<path d="M106.7 30.8926C105.041 29.2297 104.094 27.0984 104.094 22.8591V22.8006C104.094 16.4886 107.285 11.535 112.695 11.535C115.184 11.535 117.019 12.425 118.818 13.9005L117.463 15.704C115.92 14.4041 114.471 13.6546 112.578 13.6546C108.582 13.6546 106.49 17.8587 106.49 22.543V22.8357C107.846 20.8449 109.715 19.6387 112.403 19.6387C116.247 19.6387 119.554 22.1331 119.554 26.0093V26.0679C119.554 30.0729 116.329 32.9771 112.134 32.9771C109.855 32.9771 107.997 32.1808 106.689 30.8692L106.7 30.8926ZM117.171 26.1732V26.1147C117.171 23.5618 115.102 21.6647 112.111 21.6647C109.119 21.6647 106.934 23.8897 106.934 26.1967V26.2552C106.934 28.8901 109.119 30.9043 112.169 30.9043C115.219 30.9043 117.171 28.7964 117.171 26.1615V26.1732Z" fill="white"/>
<path d="M123.259 22.3205V22.2619C123.259 16.4534 126.718 11.535 132.046 11.535C137.375 11.535 140.74 16.3949 140.74 22.2033V22.2619C140.74 28.0704 137.305 32.9888 131.988 32.9888C126.671 32.9888 123.259 28.1289 123.259 22.3205ZM138.31 22.3205V22.2619C138.31 17.7299 135.821 13.6663 131.976 13.6663C128.132 13.6663 125.678 17.6362 125.678 22.2033V22.2619C125.678 26.7939 128.167 30.8575 132.035 30.8575C135.903 30.8575 138.31 26.8525 138.31 22.3205Z" fill="white"/>
<path d="M85.1992 42.3807H87.7116L92.8532 55.0985L98.0299 42.3807H100.484L93.8231 57.827H91.8132L85.1875 42.3807H85.1992Z" fill="white"/>
<path d="M102.167 53.2599V53.2013C102.167 49.9692 104.831 48.2478 108.699 48.2478C110.65 48.2478 112.041 48.5171 113.396 48.9035V48.3649C113.396 45.6129 111.714 44.1842 108.839 44.1842C107.039 44.1842 105.614 44.6643 104.2 45.3084L103.522 43.4464C105.205 42.6735 106.864 42.1699 109.084 42.1699C111.305 42.1699 112.894 42.732 114.027 43.8563C115.067 44.8985 115.593 46.3741 115.593 48.3297V57.6982H113.408V55.3912C112.345 56.7848 110.568 58.0261 107.881 58.0261C105.041 58.0261 102.178 56.3983 102.178 53.2482L102.167 53.2599ZM113.443 52.0654V50.5782C112.321 50.2503 110.814 49.9224 108.944 49.9224C106.069 49.9224 104.48 51.1637 104.48 53.0959V53.1545C104.48 55.0868 106.256 56.211 108.325 56.211C111.129 56.211 113.443 54.4895 113.443 52.0654Z" fill="white"/>
<path d="M119.181 55.7425L120.337 54.1148C121.997 55.3561 123.831 56.0705 125.631 56.0705C127.431 56.0705 128.798 55.1219 128.798 53.6346V53.5761C128.798 52.0303 126.998 51.4448 124.988 50.8826C122.593 50.2034 119.928 49.372 119.928 46.5614V46.5029C119.928 43.868 122.114 42.1114 125.128 42.1114C126.986 42.1114 129.066 42.7672 130.632 43.7977L129.592 45.5192C128.178 44.6058 126.542 44.0319 125.07 44.0319C123.27 44.0319 122.114 44.9805 122.114 46.2569V46.3155C122.114 47.7676 124.007 48.3297 126.052 48.9504C128.412 49.6647 130.96 50.5782 130.96 53.3419V53.4004C130.96 56.3047 128.564 57.991 125.514 57.991C123.329 57.991 120.898 57.1361 119.181 55.7425Z" fill="white"/>
<path d="M135.68 53.6346V44.3832H133.554V42.369H135.68V37.7433H137.959V42.369H142.809V44.3832H137.959V53.3302C137.959 55.1921 138.999 55.8831 140.53 55.8831C141.301 55.8831 141.944 55.7308 142.75 55.3444V57.3001C141.956 57.7099 141.091 57.9558 140.004 57.9558C137.55 57.9558 135.68 56.7379 135.68 53.6229V53.6346Z" fill="white"/>
<path d="M146.209 60.3682L147.249 58.5882C148.99 59.8647 150.942 60.5439 153.139 60.5439C156.516 60.5439 158.701 58.6819 158.701 55.0868V53.2833C157.369 55.0633 155.511 56.5155 152.695 56.5155C149.025 56.5155 145.508 53.7635 145.508 49.3486V49.29C145.508 44.8165 149.06 42.0528 152.695 42.0528C155.557 42.0528 157.427 43.4698 158.666 45.1327V42.3807H160.944V55.0399C160.944 57.4055 160.232 59.2206 158.993 60.4619C157.637 61.8204 155.593 62.5113 153.162 62.5113C150.615 62.5113 148.254 61.7969 146.209 60.38V60.3682ZM158.748 49.3134V49.2549C158.748 46.1164 156.025 44.0671 153.127 44.0671C150.229 44.0671 147.833 46.0813 147.833 49.2197V49.2783C147.833 52.3582 150.287 54.4895 153.127 54.4895C155.966 54.4895 158.748 52.3816 158.748 49.3017V49.3134Z" fill="white"/>
<path d="M165.081 50.1097V50.0512C165.081 45.7183 168.447 42.0528 173.063 42.0528C177.678 42.0528 181.02 45.6714 181.02 49.9926V50.0512C181.02 54.3841 177.62 58.0495 173.004 58.0495C168.388 58.0495 165.081 54.431 165.081 50.1097ZM178.683 50.1097V50.0512C178.683 46.7605 176.229 44.0671 173.004 44.0671C169.779 44.0671 167.418 46.7605 167.418 49.9926V50.0512C167.418 53.3419 169.849 56.0119 173.063 56.0119C176.276 56.0119 178.683 53.3419 178.683 50.1097Z" fill="white"/>
<path d="M184.187 50.0863V50.0278C184.187 45.6129 187.295 42.0528 191.526 42.0528C196.048 42.0528 198.654 45.6714 198.654 50.1449C198.654 50.4376 198.654 50.6133 198.619 50.8826H186.489C186.816 54.1968 189.153 56.0705 191.876 56.0705C193.98 56.0705 195.452 55.2156 196.702 53.904L198.116 55.1804C196.574 56.9019 194.716 58.0495 191.818 58.0495C187.623 58.0495 184.187 54.8174 184.187 50.0746V50.0863ZM196.34 49.1963C196.106 46.4092 194.505 43.9851 191.456 43.9851C188.791 43.9851 186.781 46.2101 186.489 49.1963H196.34Z" fill="white"/>
<path d="M201.762 50.0863V50.0278C201.762 45.0156 205.396 42.0529 209.065 42.0529C211.905 42.0529 213.74 43.5987 214.92 45.3084V36.057H217.199V57.6982H214.92V54.6184C213.681 56.4569 211.87 58.0261 209.065 58.0261C205.396 58.0261 201.762 55.1219 201.762 50.0863ZM215.013 50.0512V49.9927C215.013 46.4678 212.326 44.0905 209.486 44.0905C206.647 44.0905 204.099 46.2804 204.099 49.9927V50.0512C204.099 53.6698 206.611 55.9768 209.486 55.9768C212.361 55.9768 215.013 53.5761 215.013 50.0512Z" fill="white"/>
<path d="M68.8043 30.3774C67.3319 36.6074 60.6712 41.9123 51.3695 44.8634C50.236 39.699 48.1326 34.2185 45.0827 28.8667C42.0328 23.5149 38.3986 18.9244 34.5541 15.3526C27.3792 8.65417 19.5031 5.46888 13.4384 7.30745C24.2007 -1.11249 39.3334 -2.61144 51.8369 4.69598C53.1925 5.48059 54.4662 6.34718 55.6581 7.28403C55.6581 7.28403 55.6659 7.28403 55.6815 7.28403C63.0667 13.0574 67.6241 21.4422 68.8043 30.3657V30.3774Z" fill="url(#paint0_linear_1_262)"/>
<path d="M64.7611 52.1448C60.7881 59.1243 54.8051 64.1833 47.9807 67.0173C39.7658 70.4485 30.3239 70.6358 21.7 67.0407C17.1076 62.6141 15.8807 54.1239 18.0191 44.486C22.9971 46.067 28.723 46.9687 34.8345 46.9687C40.9461 46.9687 46.672 46.067 51.65 44.486C60.94 41.535 67.6007 36.2301 69.0848 30C70.078 37.4128 68.7459 45.1887 64.7728 52.1565L64.7611 52.1448Z" fill="url(#paint1_linear_1_262)"/>
<path d="M34.5542 15.3409C30.7096 18.9126 27.0755 23.4915 24.0255 28.8549C20.9756 34.2184 18.8722 39.699 17.7387 44.8516C15.6003 54.4895 16.8273 62.9797 21.4197 67.3946C20.0174 66.8091 18.6268 66.1181 17.283 65.3335C4.77951 58.0378 -1.5073 44.0085 0.303956 30.3656C0.876546 25.9624 2.30218 21.5944 4.62759 17.5073C6.94132 13.4321 9.96787 10.0008 13.4385 7.29569C19.5032 5.45712 27.3793 8.64241 34.5542 15.3409Z" fill="url(#paint2_linear_1_262)"/>
</g>
<defs>
<linearGradient id="paint0_linear_1_262" x1="36.9379" y1="9.27484" x2="65.36" y2="52.185" gradientUnits="userSpaceOnUse">
<stop stop-color="white"/>
<stop offset="1" stop-color="#1D1D1B"/>
</linearGradient>
<linearGradient id="paint1_linear_1_262" x1="67.9279" y1="46.2543" x2="3.09106" y2="62.9449" gradientUnits="userSpaceOnUse">
<stop stop-color="white"/>
<stop offset="1" stop-color="#1D1D1B"/>
</linearGradient>
<linearGradient id="paint2_linear_1_262" x1="-1.08662" y1="66.9496" x2="37.1309" y2="0.902482" gradientUnits="userSpaceOnUse">
<stop stop-color="white"/>
<stop offset="1" stop-color="#1D1D1B"/>
</linearGradient>
<clipPath id="clip0_1_262">
<rect width="217.199" height="70.0412" fill="white"/>
</clipPath>
</defs>
</svg>
