<?xml version="1.0" encoding="utf-8"?>
<!-- Generator: Adobe Illustrator 27.0.0, SVG Export Plug-In . SVG Version: 6.00 Build 0)  -->
<svg version="1.1" xmlns="http://www.w3.org/2000/svg" xmlns:xlink="http://www.w3.org/1999/xlink" x="0px" y="0px"
	 viewBox="0 0 443 112" style="enable-background:new 0 0 443 112;" xml:space="preserve">
<style type="text/css">
	.st0{fill:#3F476B;}
	.st1{fill:#BA3F33;}
</style>
<g id="Laag_1">
	<g>
		<polygon class="st0" points="51.9,4.9 1.5,45.6 1.5,64 51.9,23.5 102.4,64 102.4,45.6 		"/>
		<g>
			<path class="st1" d="M51.8,33.6l-41,33.2v35.8v2.4h26.6V77.3h5.4c-0.7-1.4-1.2-3-1.2-4.8c0-5.7,4.6-10.4,10.4-10.4
				s10.4,4.6,10.4,10.4c0,1.7-0.4,3.3-1.2,4.8h5.1v4.2v1.9v11.4v10.3c0,0,11.5,0,12.6,0c8,0,14.2,0,14.2,0l0-38.3
				C93,66.8,64.7,43.1,51.8,33.6z"/>
		</g>
	</g>
	<g>
		<path class="st1" d="M132.8,61.6h-12.5l-2,4.5h-4.9l10.7-23.9h4.9l10.7,23.9h-4.9L132.8,61.6z M126.6,47.2l-4.4,10.2h8.9
			L126.6,47.2z"/>
		<path class="st1" d="M159.4,61.6h-12.5l-2,4.5H140l10.7-23.9h4.9l10.7,23.9h-4.9L159.4,61.6z M153.2,47.2l-4.4,10.2h8.9
			L153.2,47.2z"/>
		<path class="st0" d="M200.2,66.1h-3.8l-3-7.5l-2.5-7.5l-2.5,7.6l-2.9,7.4h-3.8l-8.8-23.9h5.1l5.6,17.2l5.8-17.2h2.9l6,17.2
			l5.5-17.2h5.1L200.2,66.1z"/>
		<path class="st0" d="M234.5,54.3c-0.1,6.2-3.9,12.4-12.3,12.4s-12.3-6-12.3-12.3c0-7.5,5.5-12.6,12.4-12.6
			C230.5,41.8,234.6,48.1,234.5,54.3z M222.2,62.5c5.6,0,7.7-4.2,7.8-8.2c0.1-4-2.2-8.4-7.7-8.5c-5.1,0-8.1,3.8-8,8.6
			C214.5,58.3,216.6,62.5,222.2,62.5z"/>
		<path class="st0" d="M261.9,54.3c-0.1,6.2-3.9,12.4-12.3,12.4c-8.4,0-12.3-6-12.3-12.3c0-7.5,5.5-12.6,12.4-12.6
			C257.9,41.8,262,48.1,261.9,54.3z M249.6,62.5c5.6,0,7.7-4.2,7.8-8.2c0.1-4-2.2-8.4-7.7-8.5c-5.1,0-8.1,3.8-8,8.6
			C241.9,58.3,244,62.5,249.6,62.5z"/>
		<path class="st0" d="M282.5,58.3V42.2h4.5v23.9h-3.7l-12.7-15.9v15.9h-4.5V42.2h3.7L282.5,58.3z"/>
		<path class="st0" d="M306.9,48c-0.8-1.4-3.1-2.7-5.7-2.7c-3.3,0-4.9,1.4-4.9,3.2c0,2.1,2.5,2.7,5.3,3c5,0.6,9.6,1.9,9.6,7.6
			c0,5.3-4.7,7.6-10,7.6c-4.9,0-8.6-1.5-10.4-5.9l3.8-1.9c1.1,2.6,3.8,3.8,6.7,3.8c2.8,0,5.5-1,5.5-3.6c0-2.3-2.4-3.2-5.5-3.5
			c-4.9-0.6-9.4-1.9-9.4-7.2c0-4.9,4.8-6.9,9.3-7c3.7,0,7.6,1.1,9.4,4.7L306.9,48z"/>
		<path class="st0" d="M333.2,66.1h-17.9c0-8,0-15.9,0-23.9h17.9v4.4h-13.4v5.5h12.9v4.2h-12.9v5.4h13.4V66.1z"/>
		<path class="st0" d="M359.2,66.1H354l-6.9-8h-4.6v8H338V42.2c3.8,0,7.6,0,11.4,0c5.6,0,8.6,3.8,8.6,7.9c0,3.3-1.5,6.6-6,7.5
			l7.2,8.2V66.1z M342.5,46.4V54h6.9c2.9,0,4.1-1.9,4.1-3.8c0-1.9-1.3-3.8-4.1-3.8H342.5z"/>
		<path class="st0" d="M374.2,66.2h-4.7l-9.9-24h5.1l7.2,18.6l7.2-18.6h5.1L374.2,66.2z"/>
		<path class="st0" d="M387.1,66.1V42.2h4.5v23.9H387.1z"/>
		<path class="st0" d="M417.7,63.1c-2.5,2.4-5.6,3.5-9.1,3.5c-8.9,0-12.6-6.1-12.7-12.3c0-6.2,4-12.6,12.7-12.6
			c3.2,0,6.3,1.2,8.8,3.7l-3,2.9c-1.6-1.5-3.7-2.3-5.8-2.3c-5.8,0-8.3,4.3-8.2,8.3c0,4,2.3,8.1,8.2,8.1c2.1,0,4.4-0.9,6-2.4
			L417.7,63.1z"/>
		<path class="st0" d="M439.1,66.1h-17.9c0-8,0-15.9,0-23.9h17.9v4.4h-13.4v5.5h12.9v4.2h-12.9v5.4h13.4V66.1z"/>
	</g>
	<g>
		<path class="st1" d="M154.4,90.5h-1.6l-1.2-3.1l-1.1-3.1l-1,3.2l-1.2,3.1h-1.6l-3.7-10h2.1l2.3,7.2l2.4-7.2h1.2l2.5,7.2l2.3-7.2
			h2.1L154.4,90.5z"/>
		<path class="st1" d="M171.3,85.6c0,2.6-1.6,5.1-5.1,5.1s-5.1-2.5-5.1-5.1c0-3.1,2.3-5.2,5.2-5.2C169.6,80.4,171.3,83,171.3,85.6z
			 M166.2,89.1c2.3,0,3.2-1.8,3.3-3.4c0-1.7-0.9-3.5-3.2-3.6c-2.1,0-3.4,1.6-3.3,3.6C163,87.3,163.9,89.1,166.2,89.1z"/>
		<path class="st1" d="M182.5,87.3v-6.7h1.9v10h-1.5l-5.3-6.6v6.6h-1.9v-10h1.5L182.5,87.3z"/>
		<path class="st1" d="M189.3,90.5v-10h1.9v10H189.3z"/>
		<path class="st1" d="M202.8,87.3v-6.7h1.9v10h-1.5l-5.3-6.6v6.6H196v-10h1.5L202.8,87.3z"/>
		<path class="st1" d="M216.9,83c-0.7-0.6-1.7-1-2.5-1c-2.1,0-3.4,1.6-3.4,3.7c0,1.6,1,3.3,3.4,3.3c0.8,0,1.5-0.2,2.2-0.8v-1.8H214
			v-1.7h4.3V89c-1,1.1-2.2,1.8-4,1.8c-3.7,0-5.3-2.5-5.3-5.1c0-2.8,1.7-5.4,5.3-5.4c1.3,0,2.7,0.5,3.7,1.5L216.9,83z"/>
		<path class="st1" d="M230.9,83.5c0,0.8-0.4,1.5-1.3,1.9c1.2,0.4,1.6,1.6,1.6,2.2c0,2.2-1.7,2.9-3.7,2.9c-1.6,0-3.1,0-4.7,0v-10
			c1.6,0,3.1,0,4.7,0C229.5,80.6,230.9,81.5,230.9,83.5z M224.6,84.6h2.9c1.2,0,1.6-0.5,1.6-1.1c0-0.5-0.4-1.2-1.6-1.2h-2.9V84.6z
			 M224.6,88.8h2.9c0.8,0,1.9-0.3,1.9-1.2c0-0.9-1.1-1.4-1.9-1.4h-2.9V88.8z"/>
		<path class="st1" d="M243.1,90.5h-7.5c0-3.3,0-6.6,0-10h7.5v1.8h-5.6v2.3h5.4v1.7h-5.4v2.2h5.6V90.5z"/>
		<path class="st1" d="M254.4,90.6v-4h-4.9v4h-1.9v-10h1.9v4.2h4.9v-4.2h1.9v10H254.4z"/>
		<path class="st1" d="M268.6,90.5h-7.5c0-3.3,0-6.6,0-10h7.5v1.8H263v2.3h5.4v1.7H263v2.2h5.6V90.5z"/>
		<path class="st1" d="M280.7,90.5h-7.5c0-3.3,0-6.6,0-10h7.5v1.8h-5.6v2.3h5.4v1.7h-5.4v2.2h5.6V90.5z"/>
		<path class="st1" d="M294,90.5h-2.1l-2.9-3.3h-1.9v3.3h-1.9v-10c1.6,0,3.2,0,4.7,0c2.3,0,3.6,1.6,3.6,3.3c0,1.4-0.6,2.7-2.5,3.1
			l3,3.4V90.5z M287.1,82.3v3.2h2.9c1.2,0,1.7-0.8,1.7-1.6s-0.5-1.6-1.7-1.6H287.1z"/>
		<path class="st1" d="M311.5,87.6c0,0.6,0.3,1.1,0.9,1.1v1.9c-0.7,0-1.6-0.2-1.9-1.3c-0.7,1.1-1.8,1.4-2.8,1.4
			c-2.2,0-3.9-0.7-4-3.2c0-0.8,0.6-1.8,1.5-2.1c-0.9-0.3-1.3-1.2-1.3-2c0-2.1,2-3,3.8-3c1.7,0,3.6,0.7,3.6,2.8h-1.8
			c0-0.9-0.9-1.2-1.9-1.2c-1.5,0-1.9,0.8-1.9,1.4c0,1,1.3,1.3,1.9,1.3c1.6,0,3.1,0,4.7,0v1.5h-0.8V87.6z M305.5,87.5
			c0,1.1,1,1.5,2.1,1.5c0.7,0,2.1-0.4,2.1-1.4v-1.4c-0.7,0-1.4,0-2.2,0C306.2,86.2,305.5,86.9,305.5,87.5z"/>
		<path class="st1" d="M327.3,90.6h-1.9l-4.1-10h2.1l3,7.7l3-7.7h2.1L327.3,90.6z"/>
		<path class="st1" d="M342.8,90.5h-7.5c0-3.3,0-6.6,0-10h7.5v1.8h-5.6v2.3h5.4v1.7h-5.4v2.2h5.6V90.5z"/>
		<path class="st1" d="M356.1,90.5H354l-2.9-3.3h-1.9v3.3h-1.9v-10c1.6,0,3.2,0,4.7,0c2.3,0,3.6,1.6,3.6,3.3c0,1.4-0.6,2.7-2.5,3.1
			l3,3.4V90.5z M349.2,82.3v3.2h2.9c1.2,0,1.7-0.8,1.7-1.6s-0.5-1.6-1.7-1.6H349.2z"/>
		<path class="st1" d="M367,90.6v-4h-4.9v4h-1.9v-10h1.9v4.2h4.9v-4.2h1.9v10H367z"/>
		<path class="st1" d="M382.4,80.6v5.7c0,2.9-1.8,4.5-4.3,4.5c-2.4,0-4.4-1.5-4.4-4.5v-5.7h1.9v5.7c0,1.8,1,2.7,2.6,2.7
			c1.6,0,2.4-1,2.4-2.7v-5.7H382.4z"/>
		<path class="st1" d="M395.8,80.6v5.7c0,2.9-1.8,4.5-4.3,4.5c-2.4,0-4.4-1.5-4.4-4.5v-5.7h1.9v5.7c0,1.8,1,2.7,2.6,2.7
			c1.6,0,2.4-1,2.4-2.7v-5.7H395.8z"/>
		<path class="st1" d="M409.4,90.5h-2.1l-2.9-3.3h-1.9v3.3h-1.9v-10c1.6,0,3.2,0,4.7,0c2.3,0,3.6,1.6,3.6,3.3c0,1.4-0.6,2.7-2.5,3.1
			l3,3.4V90.5z M402.5,82.3v3.2h2.9c1.2,0,1.7-0.8,1.7-1.6s-0.5-1.6-1.7-1.6H402.5z"/>
	</g>
</g>
<g id="Laag_2">
</g>
</svg>
