<svg xmlns="http://www.w3.org/2000/svg" width="24.665" height="33.429"><g data-name="Laag 1"><g data-name="Group 598" fill="#fff" stroke="rgba(0,0,0,0)" stroke-miterlimit="10"><path data-name="Path 2114" d="M22.461.57L15.422.555c-.059 0-.118 0-.176.006a2.492 2.492 0 00-2.325 2.474l.126.039a3.15 3.15 0 01-.394 6.234 3.01 3.01 0 01-.213.007 3.15 3.15 0 01-.574-6.245l.124-.038a2.49 2.49 0 00-2.483-2.5l-7.04-.03h-.12a1.711 1.711 0 00-1.6 1.7L.674 23.337a.95.95 0 00.945.953l5.223.019h.065a.952.952 0 00.884-.945l.025-7.255a1.955 1.955 0 00-1.946-1.962h-.194a3.193 3.193 0 01-.206-6.38c.076 0 .152-.008.229-.007a3.19 3.19 0 013.182 3.2l-.049 12.4a.948.948 0 00.941.954l5.212.019h.065a.954.954 0 00.886-.946l.03-12.4a3.2 3.2 0 012.984-3.175c.075-.005.152-.008.227-.007a3.193 3.193 0 01.2 6.379c-.075 0-.15.008-.226.008h-.335a1.959 1.959 0 00-1.824 1.944l-.025 7.255a.954.954 0 00.947.953l5.218.019h.067a.95.95 0 00.883-.944l.075-21.136A1.709 1.709 0 0022.461.57z"/><path data-name="Path 2115" d="M19.747 30.902h-.024l-1.358-4.282-2.961-.011-.021 6.289 1.793.006.017-4.851h.024l1.59 4.855 1.747.007 1.706-4.845h.024l-.016 4.851 1.8.007.021-6.29-2.865-.01z"/><path data-name="Path 2116" d="M11.236 31.165h-.025l-1.344-4.577-1.92-.007 2.15 6.3 1.612.006h.545l2.35-6.282-1.815-.003z"/><path data-name="Path 2117" d="M5.372 30.925h-.025l-2.335-4.36-2.487-.009-.021 5.655v.632l1.712.007.017-4.6h.031l2.394 4.607 2.427.009.022-6.29-1.719-.005z"/></g></g></svg>