<?xml version="1.0" encoding="UTF-8"?>
<svg id="svg53" width="223.24pt" height="126.09pt" version="1.2" viewBox="0 0 223.24 126.09" xmlns="http://www.w3.org/2000/svg">
 <g id="surface11126" transform="translate(-35.413 -89.699)">
  <path id="path2" d="m256.19 135.61c6.4219 32.434-37.242 66.398-97.523 75.863-35.207 5.5234-68.289 1.4766-91.008-9.3047-16.184-7.6836-27.105-18.785-29.781-32.281-6.418-32.43 37.242-66.398 97.527-75.863 60.285-9.4648 114.36 9.1523 120.79 41.586" fill="#fff"/>
  <path id="path4" d="m64.539 176.39-0.01953 3.7852h0.8125c1.0273 0 1.4766-0.1211 1.8047-0.46485 0.28906-0.32031 0.46094-0.82422 0.46094-1.4062 0-0.86718-0.28906-1.4492-0.85938-1.7109-0.27344-0.1211-0.77344-0.20313-1.3555-0.20313zm-2.3711-2.2695 4.4492 0.0195c2.1172 0 3.5078 1.6484 3.5078 4.1016 0 2.0938-1.1836 3.8242-2.6641 3.8633 0.24219 0.22266 0.34375 0.34375 0.5 0.58204 0.6875 1.0078 2.8711 5.4336 2.8711 5.4336h-2.8398c-0.46094-0.92578-0.65234-1.3086-1.1172-2.293-1.1836-2.5156-1.5625-3.1797-1.9766-3.4219-0.11719-0.0586-0.1875-0.0977-0.37891-0.1211v5.8359h-2.3516z" fill="#1e3057"/>
  <path id="path6" d="m73.203 174.14h6.8086l-0.30859 2.293h-4.0938v3.2383h3.4219v2.293h-3.3867v3.7422h4.5234v2.4141h-6.9648z" fill="#1e3057"/>
  <path id="path8" d="m91.426 175.53-1.2734 1.75c-0.77344-0.74219-1.582-1.0859-2.4922-1.0859-0.70312 0-1.3047 0.24219-1.7188 0.70313-0.80859 0.90625-1.0117 2.4141-1.0117 4.5078 0 1.9922 0.28906 3.2773 0.89062 3.9844 0.44922 0.5 1.1016 0.78125 1.875 0.78125 0.53516 0 0.96094-0.0977 1.3594-0.33984v-3.1797h-1.8242l-0.30859-2.293h4.625v6.6797c-1.2227 0.84375-2.5625 1.2461-3.9727 1.2461-1.7852 0-3.1094-0.6836-4.0742-2.1328-0.875-1.3086-1.2695-2.7969-1.2695-4.8867 0-2.957 0.82422-5.0508 2.4922-6.3594 0.875-0.68359 1.7695-0.98438 2.9023-0.98438 1.4453 0 2.7539 0.54297 3.8008 1.6094" fill="#1e3057"/>
  <path id="path10" d="m94.504 174.14h2.5078v13.98h-2.5078z" fill="#1e3057"/>
  <path id="path12" d="m104.92 176.14c-0.8086 0-1.5312 0.48047-1.8555 1.2266-0.41407 0.90234-0.60157 2.1328-0.60157 3.8203 0 2.4141 0.35938 3.9024 1.0625 4.5274 0.37891 0.32031 0.85938 0.48437 1.4297 0.48437 1.6641 0 2.3711-1.4883 2.3711-5.0508 0-1.4297-0.10157-2.4531-0.3086-3.2383-0.1914-0.70313-0.82812-1.7695-2.0976-1.7695m0.0352-2.1758c3.1797 0 5.1406 2.7188 5.1406 7.1016 0 3.1602-0.94922 5.5117-2.668 6.6406-0.72266 0.46094-1.3906 0.64454-2.3867 0.64454-1.8086 0-2.9766-0.58594-3.8867-1.9727-0.91016-1.3672-1.375-3.1367-1.375-5.1914 0-3.0156 0.99609-5.4297 2.6992-6.5391 0.70312-0.44141 1.582-0.68359 2.4766-0.68359" fill="#1e3057"/>
  <path id="path14" d="m113.57 174.14h3.1094l1.5664 7c0.22266 1.0039 0.3086 1.4062 0.41016 2.1328 0.12109-0.72656 0.24219-1.3672 0.42969-2.1953l1.6172-6.9375h3.1445l1.0664 13.98h-2.3711l-0.44922-7.4648c-0.0508-0.88282-0.10156-1.4883-0.10156-2.2305-0.13672 0.80468-0.22266 1.207-0.42969 2.0508l-1.8906 7.6445h-2.1172l-1.6992-7.3438c-0.15625-0.68359-0.48047-2.4336-0.48047-2.4336 0 0.82421-0.0352 1.6094-0.0859 2.4726l-0.4141 7.3047h-2.4219z" fill="#1e3057"/>
  <path id="path16" d="m130.41 182.47h2.3398s-0.39454-1.4688-0.65235-2.8164c-0.12109-0.64453-0.48047-2.4766-0.48047-2.4766s-0.34375 1.6523-0.57031 2.6992c-0.22266 1.0039-0.37891 1.668-0.63672 2.5938m-0.0156-8.3711h2.5976l3.7617 14.023h-2.5781l-0.83985-3.3203h-3.5078l-0.84375 3.3203h-2.5117z" fill="#1e3057"/>
  <path id="path18" d="m138.8 174.14h2.457v6.375l3.4062-6.375h2.957l-3.8164 6.4766 4.2461 7.5039h-3.1641l-3.6289-7.3047v7.3047h-2.457z" fill="#1e3057"/>
  <path id="path20" d="m150.36 174.14h6.8086l-0.30859 2.293h-4.0898v3.2383h3.418v2.293h-3.3867v3.7422h4.5234v2.4141h-6.9648z" fill="#1e3057"/>
  <path id="path22" d="m160.17 174.14h2.4609v11.645h4.2812l-0.42969 2.3359h-6.3125z" fill="#1e3057"/>
  <path id="path24" d="m172.22 182.47h2.3398s-0.39453-1.4688-0.65234-2.8164c-0.1211-0.64453-0.48438-2.4766-0.48438-2.4766s-0.34375 1.6523-0.56641 2.6992c-0.22265 1.0039-0.375 1.668-0.63671 2.5938m-0.0156-8.3711h2.5938l3.7656 14.023h-2.5781l-0.83984-3.3203h-3.5078l-0.84375 3.3203h-2.5117z" fill="#1e3057"/>
  <path id="path26" d="m183.14 182.47h2.3398s-0.39844-1.4688-0.65625-2.8164c-0.1211-0.64453-0.48047-2.4766-0.48047-2.4766s-0.34375 1.6523-0.56641 2.6992c-0.22656 1.0039-0.3789 1.668-0.63672 2.5938m-0.0195-8.3711h2.5977l3.7656 14.023h-2.5781l-0.84375-3.3203h-3.5078l-0.83985 3.3203h-2.5117z" fill="#1e3057"/>
  <path id="path28" d="m193.78 176.39-0.0156 3.7852h0.80469c1.0352 0 1.4805-0.1211 1.8086-0.46485 0.29296-0.32031 0.46484-0.82422 0.46484-1.4062 0-0.86718-0.29297-1.4492-0.86328-1.7109-0.27344-0.1211-0.76953-0.20313-1.3555-0.20313zm-2.3711-2.2695 4.4531 0.0195c2.1133 0 3.5078 1.6484 3.5078 4.1016 0 2.0938-1.1875 3.8242-2.668 3.8633 0.24219 0.22266 0.34375 0.34375 0.5 0.58204 0.6875 1.0078 2.8711 5.4336 2.8711 5.4336h-2.8359c-0.46484-0.92578-0.65234-1.3086-1.1172-2.293-1.1875-2.5156-1.5664-3.1797-1.9805-3.4219-0.11718-0.0586-0.1875-0.0977-0.375-0.1211v5.8359h-2.3555z" fill="#1e3057"/>
  <path id="path30" d="m210.27 175.13-1.1367 2.0117c-1.082-0.76562-1.8906-1.0664-2.7852-1.0664-0.97657 0-1.668 0.66406-1.668 1.6094 0 0.72657 0.32812 1.0859 1.3242 1.4102l1.4453 0.46094c1.9609 0.625 3.0234 2.0938 3.0234 4.1641 0 2.8359-1.957 4.707-4.9336 4.707-1.3555 0-2.8711-0.46094-4.0742-1.2656l0.89453-2.1953c1.1172 0.6836 2.082 1.1289 3.2852 1.1289 1.375 0 2.0977-0.66406 2.0977-1.9102 0-0.90625-0.5-1.4922-1.5664-1.8125l-1.3203-0.42187c-1.1875-0.38281-1.9297-0.92578-2.3594-1.7695-0.32422-0.625-0.49609-1.3477-0.49609-2.1328 0-2.5547 1.7539-4.3242 4.2812-4.3242 1.4609 0 2.9375 0.51953 3.9883 1.4062" fill="#1e3057"/>
  <path id="path32" d="m246.7 137.75c2.0234 9.7305-1.6445 17.68-13.117 30.66h-186.36c-4.6562-27.879 34.84-58.699 89.191-66.828 55.047-8.2344 104.43 7.9609 110.29 36.168" fill="#1e3057"/>
  <path id="path34" d="m72.008 194.42h122.24s-31.789 11.434-63.012 11.434c-31.215 0-50.828-6.7774-59.23-11.434" fill="#fdd100"/>
  <path id="path36" d="m104.54 147.42h4.7695c5.5352 0 7.75-0.49219 9.6133-1.9609 1.6602-1.3633 2.6289-3.375 2.6289-5.5547 0-5.8789-5.6016-9.2539-15.285-9.2539-0.34375 0-0.96484 0.0547-1.7266 0.0547zm0-28.969v8.7148h2.6953c8.1602 0 10.723-1.0352 10.723-4.4141 0-3.1562-2.2148-4.3008-8.1602-4.3008zm-9.8906 32.672v-36.32h19.297c4.7031 0 7.3984 0.4375 9.8203 1.5274 2.7656 1.1953 4.4258 3.4844 4.4258 5.8242 0 4.1914-3.8047 6.4258-11.828 6.9688 4.1523 0.71094 5.6055 1.0898 8.1602 2.2891 4.7031 2.1211 7.332 5.5508 7.332 9.5273 0 3.3203-2.0039 6.3711-5.2539 8.0586-3.1836 1.6328-5.4648 2.0156-12.52 2.0703l-4.4258 0.0547z" fill="#fff"/>
  <path id="path38" d="m167.81 149.98h-8.0195l-0.48828-5.2031c-2.3477 3.8125-6.3594 5.75-11.688 5.75-4.6367 0-8.6484-1.6328-10.168-4.2383-0.76172-1.2109-0.96875-2.3594-0.96875-5.3867v-21.004h9.0625v19.551c0 5.0234 1.1719 6.5391 5.1172 6.5391 2.2148 0 4.4297-0.91015 5.7422-2.3633 2.0078-2.1758 2.5586-4.418 2.5586-10.469v-13.258h8.8516z" fill="#fff"/>
  <path id="path40" d="m175.41 119.89h8.9219v30.082h-8.9219z" fill="#fff"/>
  <path id="path42" d="m191.59 119.89h8.8555v31.098c0 7.5078-0.48829 9.0781-3.4609 11.102-2.2812 1.6328-5.7422 2.5508-9.4062 2.5508-3.875 0-7.332-0.91797-9.8906-2.6797l3.5274-4.2461c1.8008 2.2227 3.3906 3.0703 5.6016 3.0703 3.2539 0 4.7734-2.0273 4.7734-6.4023z" fill="#fff"/>
  <path id="path44" d="m232.86 122.62-2.7656 3.6914c-2.4883-2.3008-5.3242-3.4492-8.5039-3.4492-3.3906 0-5.6016 1.4531-5.6016 3.5703 0 2.2383 1.1719 2.9648 8.0898 4.9024 5.2539 1.4531 7.5391 2.543 9.0586 4.2969 0.96875 1.0898 1.4531 2.543 1.4531 4.1172 0 6.293-6.7773 10.773-16.391 10.773-5.3242 0-9.6133-1.1524-13.555-3.5117l2.6953-4.8438c2.6289 3.2109 6.1562 4.8438 10.582 4.8438 4.3594 0 7.332-1.9375 7.332-4.7227 0-2.2969-1.7969-3.75-5.8789-4.9023l-4.4258-1.2109c-6.1562-1.7539-8.5742-3.75-8.5742-7.3242 0-5.4453 6.1523-9.5 14.52-9.5 4.6367 0 8.3672 1.0274 11.965 3.2695" fill="#fff"/>
  <path id="path46" d="m179.83 110.68c2.9766 0 5.0508 1.5234 5.0508 3.7031 0 2.2305-2.1484 3.8125-5.1211 3.8125-2.9727 0-4.9766-1.5234-4.9766-3.7578 0-2.1758 2.0742-3.7578 5.0469-3.7578" fill="#fff"/>
  <path id="path48" d="m195.49 110.61c3.043 0 5.1172 1.5234 5.1172 3.7578 0 2.1211-2.1445 3.7539-5.0469 3.7539-3.1836 0-5.1875-1.4688-5.1875-3.7539 0-2.2344 2.0742-3.7578 5.1172-3.7578" fill="#fff"/>
  <path id="path50" d="m166.59 93.395c-9.957 0-20.328 0.78906-30.898 2.4492-39.629 6.2188-73.625 23.504-88.711 45.102-6.6016 9.4453-9.1211 19.328-7.2891 28.578 2.4766 12.508 12.422 23.219 28.762 30.973 23.41 11.113 56.188 14.445 89.93 9.1484 39.629-6.2188 73.625-23.5 88.711-45.098 6.6016-9.4492 9.1211-19.332 7.2891-28.582-5.1094-25.816-41.969-42.57-87.793-42.57m-39.184 122.39c-22.816 4e-3 -43.934-4.082-60.535-11.961-17.438-8.2734-28.086-19.891-30.801-33.586-2.0312-10.258 0.69531-21.121 7.8867-31.41 15.641-22.391 50.574-40.262 91.164-46.633 29.449-4.625 58.383-2.793 81.477 5.1602 23.461 8.0742 38.164 21.531 41.402 37.887 2.0312 10.262-0.69531 21.121-7.8828 31.41-15.645 22.395-50.574 40.258-91.164 46.633-10.684 1.6758-21.289 2.5-31.547 2.5" fill="#fdd100"/>
 </g>
</svg>
