<?xml version="1.0" encoding="utf-8"?>
<!-- Generator: Adobe Illustrator 27.0.0, SVG Export Plug-In . SVG Version: 6.00 Build 0)  -->
<svg version="1.1" id="Layer_1" xmlns="http://www.w3.org/2000/svg" xmlns:xlink="http://www.w3.org/1999/xlink" x="0px" y="0px"
	 viewBox="0 0 265.6 78.8" style="enable-background:new 0 0 265.6 78.8;" xml:space="preserve">
<style type="text/css">
	.st0{fill:#00AEEF;}
	.st1{fill:#ED145B;}
</style>
<polygon class="st0" points="65.5,9.8 44.9,9.8 0,75.3 20.6,75.3 "/>
<g>
	<path class="st0" d="M89,68.9l0.1,0.9c0.2-0.3,0.5-0.6,0.9-0.8s0.8-0.3,1.2-0.3s0.9,0.1,1.2,0.3s0.6,0.5,0.8,1
		c0.2-0.4,0.5-0.7,0.9-1c0.4-0.2,0.8-0.3,1.3-0.3c0.7,0,1.3,0.2,1.7,0.7s0.6,1.2,0.6,2.2V76h-1.3v-4.2c0-0.7-0.1-1.2-0.4-1.5
		s-0.6-0.4-1.1-0.4c-0.4,0-0.8,0.2-1.1,0.5c-0.3,0.3-0.4,0.7-0.5,1.2V76h-1.3v-4.2c0-0.7-0.1-1.2-0.4-1.5s-0.6-0.5-1.1-0.5
		c-0.4,0-0.7,0.1-1,0.2c-0.2,0.2-0.4,0.4-0.6,0.7V76h-1.3v-7.1L89,68.9L89,68.9z"/>
	<path class="st0" d="M101.8,75c0.5,0,0.9-0.1,1.3-0.4s0.6-0.5,0.7-0.8v-1.2h-1.4c-0.5,0-0.9,0.1-1.2,0.4c-0.3,0.3-0.5,0.6-0.5,0.9
		c0,0.3,0.1,0.6,0.3,0.8C101.1,74.9,101.4,75,101.8,75 M103.9,76c0-0.2-0.1-0.4-0.1-0.6c0-0.2,0-0.3,0-0.5c-0.2,0.3-0.6,0.6-0.9,0.8
		c-0.4,0.2-0.8,0.3-1.2,0.3c-0.7,0-1.3-0.2-1.7-0.6c-0.4-0.4-0.6-0.9-0.6-1.6s0.3-1.2,0.8-1.6c0.6-0.4,1.3-0.6,2.2-0.6h1.4v-0.7
		c0-0.4-0.1-0.7-0.4-1c-0.2-0.2-0.6-0.4-1.1-0.4c-0.4,0-0.8,0.1-1,0.3c-0.3,0.2-0.4,0.5-0.4,0.8h-1.2l0,0c0-0.5,0.2-1,0.7-1.4
		s1.2-0.6,2-0.6s1.4,0.2,1.9,0.6s0.7,1,0.7,1.8v3.4c0,0.2,0,0.5,0,0.7c0,0.2,0.1,0.5,0.1,0.7L103.9,76L103.9,76z"/>
</g>
<polygon class="st0" points="108.9,72.7 108.2,72.7 108.2,76 107,76 107,65.8 108.2,65.8 108.2,71.7 108.9,71.7 111,68.9 
	112.5,68.9 110,72.2 112.8,76 111.3,76 "/>
<path class="st0" d="M116.4,69.8c-0.4,0-0.8,0.2-1.1,0.5c-0.3,0.3-0.5,0.8-0.5,1.3v0h3.2v-0.1c0-0.5-0.1-0.9-0.4-1.3
	C117.3,70,116.9,69.8,116.4,69.8 M116.6,76.1c-1,0-1.8-0.3-2.4-1c-0.6-0.7-0.9-1.5-0.9-2.6v-0.3c0-1,0.3-1.9,0.9-2.5
	c0.6-0.7,1.3-1,2.1-1c0.9,0,1.6,0.3,2.1,0.9c0.5,0.6,0.7,1.4,0.7,2.3v0.7h-4.5l0,0c0,0.7,0.2,1.3,0.5,1.7s0.8,0.7,1.4,0.7
	c0.4,0,0.8-0.1,1.1-0.2c0.3-0.1,0.6-0.3,0.9-0.5l0.5,0.8c-0.2,0.2-0.6,0.4-1,0.6C117.7,76,117.2,76.1,116.6,76.1"/>
<rect x="120.8" y="65.8" class="st0" width="1.3" height="10.2"/>
<g>
	<path class="st0" d="M126.3,75c0.5,0,0.9-0.1,1.3-0.4c0.4-0.2,0.6-0.5,0.7-0.8v-1.2h-1.4c-0.5,0-0.9,0.1-1.2,0.4
		c-0.3,0.3-0.5,0.6-0.5,0.9c0,0.3,0.1,0.6,0.3,0.8C125.6,74.9,125.9,75,126.3,75 M128.4,76c0-0.2-0.1-0.4-0.1-0.6c0-0.2,0-0.3,0-0.5
		c-0.2,0.3-0.5,0.6-0.9,0.8c-0.4,0.2-0.8,0.3-1.2,0.3c-0.7,0-1.3-0.2-1.7-0.6c-0.4-0.4-0.6-0.9-0.6-1.6s0.3-1.2,0.8-1.6
		c0.6-0.4,1.3-0.6,2.2-0.6h1.4v-0.7c0-0.4-0.1-0.7-0.4-1c-0.2-0.2-0.6-0.4-1.1-0.4c-0.4,0-0.8,0.1-1,0.3c-0.3,0.2-0.4,0.5-0.4,0.8
		h-1.2l0,0c0-0.5,0.2-1,0.7-1.4s1.2-0.6,2-0.6s1.4,0.2,1.9,0.6s0.7,1,0.7,1.8v3.4c0,0.2,0,0.5,0,0.7c0,0.2,0.1,0.5,0.1,0.7L128.4,76
		L128.4,76z"/>
	<path class="st0" d="M133.6,75c0.5,0,0.9-0.1,1.3-0.4s0.6-0.5,0.7-0.8v-1.2h-1.4c-0.5,0-0.9,0.1-1.2,0.4c-0.3,0.3-0.5,0.6-0.5,0.9
		c0,0.3,0.1,0.6,0.3,0.8C133,74.9,133.2,75,133.6,75 M135.8,76c0-0.2-0.1-0.4-0.1-0.6c0-0.2,0-0.3,0-0.5c-0.2,0.3-0.6,0.6-0.9,0.8
		c-0.4,0.2-0.8,0.3-1.2,0.3c-0.7,0-1.3-0.2-1.7-0.6c-0.4-0.4-0.6-0.9-0.6-1.6s0.3-1.2,0.8-1.6c0.6-0.4,1.3-0.6,2.2-0.6h1.4v-0.7
		c0-0.4-0.1-0.7-0.4-1c-0.2-0.2-0.6-0.4-1.1-0.4c-0.4,0-0.8,0.1-1,0.3c-0.3,0.2-0.4,0.5-0.4,0.8h-1.2l0,0c0-0.5,0.2-1,0.7-1.4
		s1.2-0.6,2-0.6s1.4,0.2,1.9,0.6s0.7,1,0.7,1.8v3.4c0,0.2,0,0.5,0,0.7c0,0.2,0.1,0.5,0.1,0.7L135.8,76L135.8,76z"/>
	<path class="st0" d="M142.1,70l-0.7,0c-0.3,0-0.6,0.1-0.9,0.2c-0.2,0.2-0.4,0.4-0.5,0.7V76h-1.3v-7.1h1.1l0.1,1
		c0.2-0.4,0.4-0.7,0.7-0.9c0.3-0.2,0.6-0.3,1-0.3c0.1,0,0.2,0,0.3,0c0.1,0,0.2,0,0.2,0.1L142.1,70L142.1,70z"/>
	<path class="st0" d="M147.6,74.1c0-0.3-0.1-0.5-0.3-0.7c-0.2-0.2-0.6-0.3-1.2-0.5c-0.8-0.2-1.5-0.4-1.9-0.8s-0.7-0.8-0.7-1.3
		c0-0.6,0.2-1.1,0.7-1.5s1.1-0.6,1.9-0.6s1.4,0.2,1.9,0.7c0.5,0.4,0.7,0.9,0.7,1.5v0h-1.2c0-0.3-0.1-0.6-0.4-0.8
		c-0.3-0.2-0.6-0.4-1-0.4c-0.4,0-0.8,0.1-1,0.3c-0.2,0.2-0.3,0.4-0.3,0.7s0.1,0.5,0.3,0.7c0.2,0.2,0.6,0.3,1.2,0.4
		c0.9,0.2,1.5,0.4,2,0.8c0.4,0.3,0.7,0.8,0.7,1.3c0,0.6-0.2,1.1-0.8,1.5s-1.2,0.6-2,0.6c-0.9,0-1.6-0.2-2.1-0.7s-0.8-1-0.7-1.6v0
		h1.2c0,0.5,0.2,0.8,0.5,1c0.3,0.2,0.7,0.3,1.1,0.3c0.5,0,0.8-0.1,1.1-0.3C147.5,74.6,147.6,74.4,147.6,74.1"/>
	<path class="st0" d="M155.4,68.6c0,0.2,0.1,0.5,0.2,0.7s0.3,0.5,0.5,0.8l0.9-0.6c0.2-0.2,0.4-0.3,0.5-0.5s0.1-0.4,0.1-0.6
		c0-0.3-0.1-0.5-0.3-0.7s-0.5-0.3-0.8-0.3s-0.6,0.1-0.8,0.4C155.5,67.9,155.4,68.2,155.4,68.6 M156.4,75.1c0.3,0,0.6-0.1,0.9-0.2
		c0.3-0.1,0.6-0.3,0.9-0.5l-2.4-2.8l-0.3,0.2c-0.4,0.3-0.7,0.6-0.8,0.8c-0.1,0.3-0.2,0.5-0.2,0.7c0,0.5,0.1,0.9,0.5,1.2
		C155.3,75,155.8,75.1,156.4,75.1 M153.3,73.4c0-0.5,0.1-1,0.5-1.4c0.3-0.4,0.8-0.8,1.4-1.2c-0.3-0.4-0.6-0.8-0.8-1.2
		c-0.2-0.3-0.2-0.7-0.2-1c0-0.7,0.2-1.3,0.6-1.7c0.4-0.4,1-0.6,1.8-0.6c0.7,0,1.2,0.2,1.7,0.6s0.6,0.9,0.6,1.4
		c0,0.4-0.1,0.8-0.3,1.1c-0.2,0.3-0.6,0.6-1,1l-0.7,0.5l2.2,2.7c0.2-0.3,0.3-0.6,0.4-0.9c0.1-0.3,0.1-0.7,0.1-1.1h1.1
		c0,0.6-0.1,1.1-0.2,1.6s-0.4,0.9-0.7,1.3l1.2,1.5v0h-1.5l-0.6-0.7c-0.4,0.3-0.7,0.5-1.2,0.6c-0.4,0.1-0.9,0.2-1.3,0.2
		c-0.9,0-1.7-0.2-2.3-0.8S153.3,74.2,153.3,73.4"/>
	<path class="st0" d="M166.8,69.8c0.2-0.3,0.5-0.6,0.9-0.8s0.8-0.3,1.2-0.3c0.8,0,1.3,0.2,1.8,0.7s0.6,1.2,0.6,2.1V76h-1.3v-4.4
		c0-0.6-0.1-1-0.4-1.3c-0.2-0.3-0.6-0.4-1.1-0.4c-0.4,0-0.7,0.1-1,0.2c-0.3,0.2-0.5,0.4-0.7,0.6V76h-1.3V65.8h1.3V69.8L166.8,69.8z"
		/>
	<path class="st0" d="M175.3,73.3l0.2,0.9h0l1.7-5.3h1.4l-3,8.2c-0.2,0.5-0.4,0.9-0.8,1.2c-0.3,0.3-0.8,0.5-1.4,0.5
		c-0.1,0-0.2,0-0.4,0c-0.2,0-0.3-0.1-0.4-0.1l0.1-1c0,0,0.1,0,0.2,0s0.3,0,0.3,0c0.3,0,0.5-0.1,0.7-0.4c0.2-0.2,0.3-0.5,0.4-0.8
		l0.3-0.7l-2.6-6.9h1.4L175.3,73.3L175.3,73.3z"/>
	<path class="st0" d="M184.6,72.6c0-0.8-0.2-1.5-0.5-2c-0.3-0.5-0.8-0.8-1.4-0.8c-0.4,0-0.7,0.1-0.9,0.2c-0.3,0.2-0.5,0.4-0.6,0.7
		v3.4c0.2,0.3,0.4,0.5,0.6,0.7c0.3,0.2,0.6,0.2,1,0.2c0.6,0,1.1-0.2,1.4-0.7c0.3-0.4,0.5-1,0.5-1.7L184.6,72.6L184.6,72.6z
		 M185.9,72.7c0,1-0.2,1.8-0.7,2.5c-0.5,0.6-1.2,0.9-2,0.9c-0.4,0-0.8-0.1-1.1-0.2c-0.3-0.2-0.6-0.4-0.8-0.7v3.5h-1.3v-9.8h1
		l0.2,0.9c0.2-0.3,0.5-0.6,0.9-0.8c0.3-0.2,0.8-0.3,1.2-0.3c0.9,0,1.6,0.3,2,1c0.5,0.7,0.7,1.6,0.7,2.8V72.7L185.9,72.7z"/>
	<path class="st0" d="M188.4,72.5c0,0.8,0.2,1.4,0.5,1.9c0.3,0.5,0.8,0.7,1.4,0.7s1.1-0.2,1.4-0.7c0.3-0.5,0.5-1.1,0.5-1.9v-0.1
		c0-0.7-0.2-1.4-0.5-1.8c-0.3-0.5-0.8-0.7-1.4-0.7s-1.1,0.2-1.4,0.7c-0.3,0.5-0.5,1.1-0.5,1.8V72.5z M187.1,72.4
		c0-1.1,0.3-1.9,0.9-2.6c0.6-0.7,1.3-1,2.3-1s1.8,0.3,2.3,1c0.6,0.7,0.9,1.5,0.9,2.6v0.1c0,1.1-0.3,1.9-0.9,2.6s-1.3,1-2.3,1
		s-1.8-0.3-2.3-1c-0.6-0.7-0.9-1.5-0.9-2.6V72.4L187.1,72.4z"/>
	<path class="st0" d="M196.8,67.2v1.7h1.3v1h-1.3v4.3c0,0.3,0.1,0.6,0.2,0.7s0.3,0.2,0.5,0.2c0.1,0,0.2,0,0.2,0c0.1,0,0.2,0,0.2-0.1
		l0.2,0.9c-0.1,0.1-0.2,0.1-0.4,0.2c-0.2,0.1-0.4,0.1-0.6,0.1c-0.5,0-0.9-0.2-1.2-0.5c-0.3-0.3-0.5-0.8-0.5-1.5v-4.3h-1.1v-1h1.1
		v-1.7H196.8L196.8,67.2z"/>
	<path class="st0" d="M200.8,69.8c0.2-0.3,0.5-0.6,0.9-0.8s0.8-0.3,1.2-0.3c0.8,0,1.3,0.2,1.8,0.7s0.6,1.2,0.6,2.1V76H204v-4.4
		c0-0.6-0.1-1-0.4-1.3c-0.2-0.3-0.6-0.4-1.1-0.4c-0.4,0-0.7,0.1-1,0.2s-0.5,0.4-0.7,0.6V76h-1.3V65.8h1.3V69.8L200.8,69.8z"/>
	<path class="st0" d="M209.9,69.8c-0.4,0-0.8,0.2-1.1,0.5c-0.3,0.3-0.5,0.8-0.5,1.3v0h3.2v-0.1c0-0.5-0.1-0.9-0.4-1.3
		C210.8,70,210.4,69.8,209.9,69.8 M210.1,76.1c-1,0-1.8-0.3-2.4-1c-0.6-0.7-0.9-1.5-0.9-2.6v-0.3c0-1,0.3-1.9,0.9-2.5
		c0.6-0.7,1.3-1,2.1-1c0.9,0,1.6,0.3,2.1,0.9c0.5,0.6,0.7,1.4,0.7,2.3v0.7h-4.5l0,0c0,0.7,0.2,1.3,0.5,1.7s0.8,0.7,1.4,0.7
		c0.4,0,0.8-0.1,1.1-0.2c0.3-0.1,0.6-0.3,0.9-0.5l0.5,0.8c-0.2,0.2-0.6,0.4-1,0.6C211.2,76,210.7,76.1,210.1,76.1"/>
	<path class="st0" d="M216.9,69.8c-0.4,0-0.8,0.2-1.1,0.5c-0.3,0.3-0.5,0.8-0.5,1.3v0h3.2v-0.1c0-0.5-0.1-0.9-0.4-1.3
		C217.8,70,217.4,69.8,216.9,69.8 M217.1,76.1c-1,0-1.8-0.3-2.4-1c-0.6-0.7-0.9-1.5-0.9-2.6v-0.3c0-1,0.3-1.9,0.9-2.5
		c0.6-0.7,1.3-1,2.1-1c0.9,0,1.6,0.3,2.1,0.9c0.5,0.6,0.7,1.4,0.7,2.3v0.7h-4.5l0,0c0,0.7,0.2,1.3,0.5,1.7s0.8,0.7,1.4,0.7
		c0.4,0,0.8-0.1,1.1-0.2c0.3-0.1,0.6-0.3,0.9-0.5l0.5,0.8c-0.2,0.2-0.6,0.4-1,0.6C218.2,76,217.7,76.1,217.1,76.1"/>
</g>
<polygon class="st0" points="223.1,72.7 222.5,72.7 222.5,76 221.2,76 221.2,65.8 222.5,65.8 222.5,71.7 223.1,71.7 225.3,68.9 
	226.8,68.9 224.2,72.2 227,76 225.5,76 "/>
<g>
	<path class="st0" d="M230.3,75c0.5,0,0.9-0.1,1.3-0.4c0.4-0.2,0.6-0.5,0.7-0.8v-1.2h-1.4c-0.5,0-0.9,0.1-1.2,0.4
		c-0.3,0.3-0.5,0.6-0.5,0.9c0,0.3,0.1,0.6,0.3,0.8C229.6,74.9,229.9,75,230.3,75 M232.4,76c0-0.2-0.1-0.4-0.1-0.6c0-0.2,0-0.3,0-0.5
		c-0.2,0.3-0.5,0.6-0.9,0.8c-0.4,0.2-0.8,0.3-1.2,0.3c-0.7,0-1.3-0.2-1.7-0.6c-0.4-0.4-0.6-0.9-0.6-1.6s0.3-1.2,0.8-1.6
		c0.5-0.4,1.3-0.6,2.2-0.6h1.4v-0.7c0-0.4-0.1-0.7-0.4-1c-0.2-0.2-0.6-0.4-1.1-0.4c-0.4,0-0.8,0.1-1,0.3c-0.3,0.2-0.4,0.5-0.4,0.8
		h-1.2l0,0c0-0.5,0.2-1,0.7-1.4s1.2-0.6,2-0.6s1.5,0.2,1.9,0.6s0.7,1,0.7,1.8v3.4c0,0.2,0,0.5,0,0.7c0,0.2,0.1,0.5,0.1,0.7L232.4,76
		L232.4,76z"/>
	<path class="st0" d="M236.4,72.7c0,0.7,0.1,1.3,0.4,1.7s0.8,0.6,1.4,0.6c0.4,0,0.7-0.1,1-0.3c0.3-0.2,0.5-0.4,0.6-0.7v-3.3
		c-0.2-0.3-0.4-0.5-0.6-0.7c-0.3-0.2-0.6-0.3-1-0.3c-0.6,0-1.1,0.2-1.4,0.8s-0.4,1.2-0.4,2C236.4,72.6,236.4,72.7,236.4,72.7z
		 M235.1,72.6c0-1.1,0.2-2.1,0.7-2.8c0.5-0.7,1.2-1.1,2-1.1c0.4,0,0.8,0.1,1.1,0.2s0.6,0.4,0.8,0.7v-3.9h1.3V76h-1l-0.2-0.9
		c-0.2,0.3-0.5,0.6-0.9,0.8s-0.7,0.3-1.2,0.3c-0.9,0-1.5-0.3-2-0.9c-0.5-0.6-0.7-1.4-0.7-2.5L235.1,72.6L235.1,72.6z"/>
</g>
<polygon class="st0" points="245.4,73.9 245.5,74.4 245.5,74.4 245.7,73.9 247.3,68.9 248.6,68.9 246,76 245,76 242.4,68.9 
	243.7,68.9 "/>
<path class="st0" d="M251.2,76h-1.3v-7.1h1.3V76z M251.2,67.1h-1.3v-1.3h1.3V67.1z"/>
<g>
	<path class="st0" d="M255.9,69.8c-0.5,0-0.8,0.2-1.1,0.5c-0.3,0.3-0.5,0.8-0.5,1.3v0h3.2v-0.1c0-0.5-0.1-0.9-0.4-1.3
		C256.8,70,256.4,69.8,255.9,69.8 M256.1,76.1c-1,0-1.8-0.3-2.4-1c-0.6-0.7-0.9-1.5-0.9-2.6v-0.3c0-1,0.3-1.9,0.9-2.5
		c0.6-0.7,1.3-1,2.1-1c0.9,0,1.6,0.3,2.1,0.9s0.7,1.4,0.7,2.3v0.7h-4.5l0,0c0,0.7,0.2,1.3,0.5,1.7s0.8,0.7,1.4,0.7
		c0.4,0,0.8-0.1,1.1-0.2c0.3-0.1,0.6-0.3,0.9-0.5l0.5,0.8c-0.2,0.2-0.6,0.4-1,0.6C257.2,76,256.7,76.1,256.1,76.1"/>
	<path class="st0" d="M264.3,74.1c0-0.3-0.1-0.5-0.3-0.7c-0.2-0.2-0.6-0.3-1.2-0.5c-0.8-0.2-1.5-0.4-1.9-0.8s-0.7-0.8-0.7-1.3
		c0-0.6,0.2-1.1,0.7-1.5c0.5-0.4,1.1-0.6,1.9-0.6s1.5,0.2,2,0.7c0.5,0.4,0.7,0.9,0.7,1.5v0h-1.2c0-0.3-0.1-0.6-0.4-0.8
		s-0.6-0.4-1-0.4c-0.5,0-0.8,0.1-1,0.3c-0.2,0.2-0.3,0.4-0.3,0.7s0.1,0.5,0.3,0.7s0.6,0.3,1.2,0.4c0.9,0.2,1.5,0.4,2,0.8
		c0.5,0.3,0.7,0.8,0.7,1.3c0,0.6-0.3,1.1-0.8,1.5c-0.5,0.4-1.2,0.6-2,0.6c-0.9,0-1.6-0.2-2.1-0.7c-0.5-0.5-0.8-1-0.7-1.6v0h1.2
		c0,0.5,0.2,0.8,0.5,1s0.7,0.3,1.1,0.3c0.5,0,0.8-0.1,1.1-0.3C264.1,74.6,264.3,74.4,264.3,74.1"/>
	<path class="st1" d="M23.8,9.8H0v23.8C1.4,21.2,11.3,11.3,23.8,9.8"/>
	<path class="st1" d="M41.7,75.3h23.8V51.5C64.1,64,54.2,73.9,41.7,75.3"/>
	<path class="st1" d="M122.5,44.9h9.2V11h-9.2V44.9z M191.9,38c-0.5,0.1-0.9,0.2-1.2,0.3c-0.4,0.1-0.8,0.1-1.2,0.1
		c-0.9,0-1.6-0.3-2.2-0.8c-0.6-0.6-0.8-1.5-0.8-2.8V17.4h5.7V11h-5.7V1.3l-9.1,2.8V11h-5v6.4h5v17.3c0,3.8,0.9,6.5,2.6,8.3
		c1.7,1.7,4.1,2.6,7.3,2.6c1,0,2-0.1,2.8-0.2c0.9-0.2,1.8-0.4,2.7-0.7L191.9,38L191.9,38z M159.2,35.5c-0.6,1-1.4,1.7-2.3,2.2
		c-1,0.5-2.2,0.8-3.6,0.8c-2.3,0-3.9-0.8-4.9-2.6c-1-1.7-1.5-4-1.5-7v-0.7c0-3.2,0.5-5.8,1.5-7.8c1-2,2.7-3,4.9-3
		c1.4,0,2.5,0.3,3.5,0.8c1,0.6,1.8,1.4,2.3,2.4L159.2,35.5L159.2,35.5z M159.8,15.3c-1-1.6-2.3-2.8-3.7-3.7c-1.4-0.9-3.1-1.3-5-1.3
		c-4.2,0-7.5,1.6-9.8,4.9c-2.3,3.3-3.5,7.6-3.5,13v0.7c0,5,1.2,9.1,3.5,12.1c2.3,3.1,5.6,4.6,9.7,4.6c1.8,0,3.3-0.3,4.7-1
		c1.4-0.7,2.5-1.6,3.6-2.9v3.1c0,2.2-0.6,3.8-1.8,4.9c-1.2,1-3,1.6-5.5,1.6c-1.7,0-3.4-0.2-4.9-0.5c-1.5-0.3-2.9-0.8-4.4-1.5
		l-1.5,6.8c1.6,0.8,3.4,1.5,5.3,1.9c1.9,0.5,3.8,0.7,5.5,0.7c5.2,0,9.2-1.2,12.1-3.6c2.9-2.4,4.3-5.8,4.3-10.2V11h-7.9L159.8,15.3
		L159.8,15.3z M115.7,16.2V11H88.5v7.1h15.7L88,39.6V45h28.2v-7H99.4L115.7,16.2L115.7,16.2z"/>
</g>
<polygon class="st1" points="122.5,2.8 122.5,6.9 131.6,6.9 131.6,0 "/>
</svg>
