<?xml version="1.0" encoding="UTF-8"?>
<svg xmlns="http://www.w3.org/2000/svg" id="Laag_1" version="1.1" viewBox="0 0 527.65 187.43">
  <defs>
    <style>
      .st0 {
        fill: #56af31;
      }

      .st1 {
        fill: #0070ba;
      }
    </style>
  </defs>
  <path class="st1" d="M0,48.92h52.13c18.95,0,28.19,8.02,28.19,22.72,0,8.51-3.52,16.04-16.53,19.08v.24c13.49,1.82,18.83,11.18,18.83,20.53,0,15.07-11.79,25.15-33.66,25.15H0V48.92ZM32.56,67.63v16.64h4.62c8.02,0,10.57-3.64,10.57-8.75,0-5.83-3.77-7.9-10.69-7.9h-4.5ZM32.56,117.93h4.86c8.51,0,11.91-2.79,11.91-9.23,0-5.35-4.13-7.9-12.27-7.9h-4.5v17.13Z"></path>
  <path class="st1" d="M174.85,107.24c0,21.14-15.19,31.71-41.68,31.71s-41.68-10.57-41.68-31.71v-58.32h34.75v56.86c0,6.93,3.28,9.6,6.93,9.6s6.93-2.67,6.93-9.6v-56.86h34.75v58.32Z"></path>
  <path class="st1" d="M186.62,48.92h34.75v64.16h31.96v23.57h-66.71V48.92Z"></path>
  <path class="st1" d="M265.36,72.49h-32.4v-23.57h88.78v23.57h-21.63v64.16h-34.75v-64.16Z"></path>
  <path class="st0" d="M495.78,64.11c-1.85.61-14.02,4.29-15.46,4.91-2.87,1.23-5.31-3.02-.44-4.47,2.27-.67,14.47-6.35,17.24-8.21,19.9-13.37,8.73-35.05,1.93-36.6-2.63-.6-17.8-5.51-22.07-8.56-15.64-11.17-33.37,4.1-26.99,24.02.66,2.04,5.91,19.29,7.18,22.75,1.35,3.66-1.05,5.96-2.75,2.46-1.2-2.45-8.51-21.22-9.48-23.68-5.68-14.29-27.35-22.38-34.21-5.28-2.57,6.38-6.78,16.16-10.97,21.41-5.66,7.07-5.6,28.01,19.16,28.01,4.13,0,19.84-3.61,21.86-3.84,2.02-.22,4.6,2.52-1.3,4.37-.39.13-.87.32-1.39.56-46,17.12-108.2,88.73-108.2,88.73-2.7,2.72-2.01,6.43.71,9.13,2.71,2.7,6.45,3.36,9.14.65,0,0,.82-.93,2.22-2.52l5.86,5.39,4.45,4.1,3.97-4.32-4.45-4.1,3.01-3.27,4.45,4.09,3.98-4.32-4.45-4.1,3.01-3.27,4.45,4.1,3.98-4.32-4.45-4.1-6.15-5.66c7.15-7.89,14.61-15.94,19.31-20.53,12.46-12.2,39.06-42.73,57.84-50.6,1.07-.3,2.17-.59,3.3-.83,6.09-1.3,7.92,1.69,3.08,3.75-4.83,2.07-12.25,5.59-17.52,11.51-12.44,13.99-6.42,28.57,3.95,31.54,3.7,1.06,20.91,5.98,23.54,7.52,14.65,8.56,32.9-7.7,24.67-27.47-.67-1.62-8.8-17.62-10.71-22.1-1.6-3.76.59-5.55,2.88-1.65,1.2,2.01,9.26,18.69,10.1,20.65,7.03,16.48,33.39,18.64,35.93,2.86.7-4.32,6.39-19.24,9.97-25.22,6.62-11.02-6.4-31.34-30.16-23.51Z"></path>
  <g>
    <path class="st1" d="M391.48,85.37c-8.87-3.77-21.14-6.2-27.82-8.14-3.65-1.09-5.71-2.43-5.71-5.59,0-2.67,2.43-5.1,8.02-5.1,4.5,0,7.53,1.82,7.66,7.29h31.11c0-7.88-2.45-13.72-6.71-17.94h0s0,0,0,0c-.42-.41-.85-.81-1.3-1.19-.01,0-.02-.02-.03-.03-1.82-1.53-3.9-2.81-6.22-3.87-.04-.02-.08-.04-.12-.05-.55-.25-1.12-.49-1.7-.72-.02,0-.04-.02-.06-.02-1.23-.47-2.51-.9-3.84-1.26,0,0,0,0-.01,0-.62-.17-1.26-.33-1.9-.48-.12-.03-.23-.05-.35-.08-.55-.12-1.11-.24-1.68-.35-.13-.03-.27-.05-.41-.08-.61-.11-1.23-.22-1.86-.31-.07-.01-.14-.02-.21-.03-.72-.11-1.45-.2-2.19-.29-.06,0-.11-.01-.17-.02-.65-.07-1.3-.13-1.97-.19-.21-.02-.43-.03-.64-.05-.52-.04-1.04-.07-1.57-.1-.25-.01-.5-.03-.75-.04-.53-.02-1.06-.04-1.59-.06-.23,0-.46-.02-.69-.02-.76-.02-1.52-.03-2.29-.03-25.64,0-40.34,10.33-40.34,28.55,0,11.3,4.74,19.44,18.23,23.45l24.67,7.29c3.28.97,5.83,2.67,5.83,5.95,0,3.89-3.28,7.17-8.38,7.17-3.28,0-5.47-1.09-6.81-2.8-1.33-1.82-1.82-4.25-1.82-6.68h-33.29c0,21.11,16.61,28.31,35.81,29.28,13.24-12.86,29.44-27.36,45.76-38.95-2.09-6.33-6.8-11.25-14.62-14.52Z"></path>
    <path class="st1" d="M378.89,137.66c-.08.08-.17.17-.25.25,17.24-2.9,28.56-11.97,28.75-29.03-11.29,10.67-21.88,22.3-28.49,28.77Z"></path>
  </g>
  <g>
    <path class="st1" d="M.7,7.65h3.74v3.19c.9-1.11,1.71-1.91,2.44-2.41,1.25-.85,2.66-1.28,4.24-1.28,1.79,0,3.23.44,4.33,1.32.62.5,1.18,1.25,1.68,2.23.84-1.2,1.83-2.1,2.96-2.68,1.13-.58,2.41-.87,3.82-.87,3.02,0,5.08,1.09,6.17,3.28.59,1.18.88,2.76.88,4.75v14.97h-3.93v-15.62c0-1.5-.37-2.53-1.12-3.09-.75-.56-1.66-.84-2.74-.84-1.48,0-2.76.5-3.83,1.49-1.07.99-1.61,2.65-1.61,4.98v13.08h-3.84v-14.68c0-1.53-.18-2.64-.55-3.34-.57-1.05-1.64-1.57-3.21-1.57-1.43,0-2.73.55-3.9,1.66-1.17,1.11-1.75,3.11-1.75,6v11.93H.7V7.65Z"></path>
    <path class="st1" d="M60.68,16.53c.87-.11,1.45-.48,1.74-1.09.17-.34.25-.82.25-1.45,0-1.29-.46-2.23-1.37-2.81-.92-.58-2.22-.87-3.93-.87-1.97,0-3.37.53-4.19,1.6-.46.59-.76,1.47-.9,2.64h-3.53c.07-2.78.97-4.71,2.69-5.8,1.73-1.09,3.73-1.63,6.01-1.63,2.64,0,4.79.5,6.44,1.51,1.64,1.01,2.45,2.58,2.45,4.7v12.96c0,.39.08.71.24.94.16.24.5.36,1.02.36.17,0,.36-.01.57-.03.21-.02.43-.05.67-.09v2.79c-.59.17-1.04.27-1.34.31-.31.04-.73.06-1.26.06-1.3,0-2.25-.46-2.83-1.39-.31-.49-.52-1.18-.65-2.08-.77,1.01-1.88,1.88-3.32,2.62-1.44.74-3.03,1.11-4.77,1.11-2.09,0-3.79-.63-5.11-1.9-1.32-1.27-1.98-2.85-1.98-4.75,0-2.08.65-3.7,1.95-4.84,1.3-1.15,3.01-1.85,5.12-2.12l6.03-.75ZM52.73,26.74c.8.63,1.74.94,2.83.94,1.33,0,2.62-.31,3.86-.92,2.1-1.02,3.15-2.69,3.15-5.01v-3.04c-.46.29-1.05.54-1.78.74-.73.2-1.44.34-2.14.42l-2.28.29c-1.37.18-2.4.47-3.09.86-1.17.66-1.75,1.7-1.75,3.14,0,1.09.4,1.95,1.2,2.58Z"></path>
    <path class="st1" d="M84.79-.71h3.63v17.91l9.69-9.55h4.83l-8.64,8.36,9.13,14.13h-4.83l-7.07-11.44-3.1,3v8.44h-3.63V-.71Z"></path>
    <path class="st1" d="M131.67,8.27c1.49.75,2.62,1.72,3.4,2.91.75,1.13,1.25,2.46,1.5,3.97.22,1.04.33,2.69.33,4.96h-16.36c.07,2.29.6,4.12,1.6,5.51,1,1.38,2.55,2.07,4.65,2.07,1.96,0,3.52-.65,4.69-1.96.65-.76,1.12-1.64,1.39-2.64h3.72c-.1.83-.42,1.75-.98,2.76-.55,1.02-1.17,1.84-1.85,2.49-1.14,1.12-2.55,1.88-4.23,2.27-.9.22-1.92.34-3.06.34-2.78,0-5.14-1.02-7.07-3.05-1.93-2.04-2.9-4.89-2.9-8.56s.97-6.54,2.92-8.8c1.95-2.25,4.49-3.38,7.64-3.38,1.59,0,3.12.37,4.61,1.12ZM133.03,17.1c-.15-1.64-.51-2.95-1.06-3.93-1.03-1.82-2.74-2.73-5.14-2.73-1.72,0-3.16.63-4.33,1.88-1.17,1.25-1.78,2.85-1.85,4.78h12.39Z"></path>
    <path class="st1" d="M153.94-.71h3.78v30.84h-3.78V-.71Z"></path>
    <path class="st1" d="M187.62,16.53c.87-.11,1.45-.48,1.74-1.09.17-.34.25-.82.25-1.45,0-1.29-.46-2.23-1.37-2.81-.91-.58-2.22-.87-3.93-.87-1.97,0-3.37.53-4.19,1.6-.46.59-.76,1.47-.9,2.64h-3.53c.07-2.78.97-4.71,2.69-5.8,1.73-1.09,3.73-1.63,6.01-1.63,2.64,0,4.79.5,6.44,1.51,1.64,1.01,2.45,2.58,2.45,4.7v12.96c0,.39.08.71.24.94.16.24.5.36,1.02.36.17,0,.36-.01.57-.03.21-.02.43-.05.67-.09v2.79c-.59.17-1.04.27-1.34.31-.31.04-.73.06-1.26.06-1.3,0-2.25-.46-2.83-1.39-.31-.49-.52-1.18-.65-2.08-.77,1.01-1.88,1.88-3.32,2.62-1.44.74-3.03,1.11-4.77,1.11-2.09,0-3.79-.63-5.11-1.9-1.32-1.27-1.98-2.85-1.98-4.75,0-2.08.65-3.7,1.95-4.84,1.3-1.15,3.01-1.85,5.12-2.12l6.03-.75ZM179.67,26.74c.8.63,1.74.94,2.83.94,1.33,0,2.62-.31,3.86-.92,2.1-1.02,3.15-2.69,3.15-5.01v-3.04c-.46.29-1.05.54-1.78.74-.73.2-1.44.34-2.14.42l-2.28.29c-1.37.18-2.4.47-3.09.86-1.17.66-1.75,1.7-1.75,3.14,0,1.09.4,1.95,1.2,2.58Z"></path>
    <path class="st1" d="M224.04,16.53c.87-.11,1.45-.48,1.74-1.09.17-.34.25-.82.25-1.45,0-1.29-.46-2.23-1.37-2.81-.92-.58-2.22-.87-3.93-.87-1.97,0-3.37.53-4.19,1.6-.46.59-.76,1.47-.9,2.64h-3.53c.07-2.78.97-4.71,2.69-5.8,1.73-1.09,3.73-1.63,6.01-1.63,2.64,0,4.79.5,6.44,1.51,1.64,1.01,2.45,2.58,2.45,4.7v12.96c0,.39.08.71.24.94.16.24.5.36,1.02.36.17,0,.36-.01.57-.03.21-.02.43-.05.67-.09v2.79c-.59.17-1.04.27-1.34.31-.31.04-.73.06-1.26.06-1.3,0-2.25-.46-2.83-1.39-.31-.49-.52-1.18-.65-2.08-.77,1.01-1.88,1.88-3.32,2.62-1.44.74-3.03,1.11-4.77,1.11-2.09,0-3.79-.63-5.11-1.9-1.32-1.27-1.98-2.85-1.98-4.75,0-2.08.65-3.7,1.95-4.84,1.3-1.15,3.01-1.85,5.12-2.12l6.03-.75ZM216.08,26.74c.8.63,1.74.94,2.83.94,1.33,0,2.62-.31,3.86-.92,2.1-1.02,3.15-2.69,3.15-5.01v-3.04c-.46.29-1.05.54-1.78.74-.73.2-1.44.34-2.14.42l-2.28.29c-1.37.18-2.4.47-3.09.86-1.17.66-1.75,1.7-1.75,3.14,0,1.09.4,1.95,1.2,2.58Z"></path>
    <path class="st1" d="M248.24,7.65h3.59v3.88c.29-.76,1.01-1.68,2.16-2.76,1.15-1.08,2.47-1.63,3.97-1.63.07,0,.19,0,.36.02.17.01.46.04.86.08v3.99c-.22-.04-.43-.07-.62-.08-.19-.01-.4-.02-.62-.02-1.9,0-3.37.61-4.39,1.84-1.02,1.22-1.53,2.63-1.53,4.23v12.93h-3.78V7.65Z"></path>
    <path class="st1" d="M287.16,8.34c.67.42,1.43,1.15,2.28,2.2V-.81h3.63v30.95h-3.4v-3.13c-.88,1.39-1.92,2.39-3.12,3-1.2.62-2.57.92-4.12.92-2.5,0-4.66-1.05-6.48-3.16-1.83-2.11-2.74-4.91-2.74-8.41,0-3.28.83-6.11,2.5-8.51,1.67-2.4,4.05-3.6,7.14-3.6,1.71,0,3.15.36,4.31,1.09ZM278.72,25.2c1.02,1.62,2.65,2.44,4.89,2.44,1.74,0,3.17-.75,4.29-2.26,1.12-1.5,1.68-3.66,1.68-6.48s-.58-4.94-1.73-6.31c-1.16-1.37-2.58-2.05-4.28-2.05-1.89,0-3.43.73-4.61,2.18-1.18,1.46-1.76,3.6-1.76,6.42,0,2.41.51,4.42,1.52,6.05Z"></path>
    <path class="st1" d="M310.98-.71h3.84V3.58h-3.84V-.71ZM310.98,7.76h3.84v22.38h-3.84V7.76Z"></path>
    <path class="st1" d="M329.26,35.83c1.69-.06,2.71-.21,3.05-.45.34-.24.51-1.01.51-2.3V7.76h3.78v25.72c0,1.64-.27,2.86-.8,3.67-.88,1.37-2.55,2.06-5.02,2.06-.18,0-.37,0-.58-.02-.2-.01-.52-.04-.96-.08v-3.28ZM336.61,3.66h-3.78V-.71h3.78V3.66Z"></path>
  </g>
</svg>
