<?xml version="1.0" encoding="UTF-8"?>
<svg id="Layer_1" data-name="Layer 1" xmlns="http://www.w3.org/2000/svg" version="1.1" viewBox="0 0 329 299">
  <defs>
    <style>
      .cls-1 {
        fill: #3c3c3b;
      }

      .cls-1, .cls-2 {
        stroke-width: 0px;
      }

      .cls-2 {
        fill: #f8d51d;
      }
    </style>
  </defs>
  <path class="cls-2" d="M0,0h329v237l-164.5,62L0,237V0Z"/>
  <g>
    <polygon class="cls-1" points="45.8 181.2 157 190.9 157 83.8 45.8 125.9 45.8 181.2"/>
    <polygon class="cls-1" points="212 100.1 280.2 125.9 280.2 181.2 243.3 184.4 243.3 165.1 260.9 163.5 260.9 139.2 231.2 127.9 231.2 140.8 248.9 147.5 248.9 152.5 231.2 154.1 231.2 185.5 163 191.4 163 81.6 199.9 95.5 199.9 116.1 182.3 109.4 182.3 170.4 212 167.8 212 155.7 194.3 157.3 194.3 126.9 212 133.5 212 100.1"/>
    <g>
      <path class="cls-1" d="M56.3,211.3c0,3.7-2.6,5.9-6.5,5.9h-4v-11.9h4c3.9,0,6.5,2.3,6.5,6ZM49.8,215.6c2.9,0,4.4-1.6,4.4-4.3s-1.6-4.4-4.4-4.4h-2v8.7h2Z"/>
      <path class="cls-1" d="M63.8,212.4h-2.2v4.8h-2v-11.9h4.2c2.9,0,4.3,1.6,4.3,3.5s-1.1,3.5-4.3,3.5ZM63.8,210.8c1.6,0,2.3-.7,2.3-1.9s-.7-2-2.3-2h-2.2v3.9h2.2Z"/>
      <path class="cls-1" d="M82,217.2h-4.9v-11.9h4.7c2.6,0,4,1.4,4,3.1s-.9,2.3-2.1,2.7c1.3.2,2.4,1.5,2.4,2.9s-1.5,3.2-4,3.2ZM81.6,206.9h-2.5v3.4h2.5c1.3,0,2.1-.6,2.1-1.7s-.8-1.7-2.1-1.7ZM81.7,211.9h-2.6v3.7h2.7c1.4,0,2.2-.7,2.2-1.8s-.9-1.9-2.3-1.9Z"/>
      <path class="cls-1" d="M89.4,205.3h2v7.6c0,1.8,1.1,2.7,2.8,2.7s2.8-.9,2.8-2.7v-7.6h2v7.5c0,3-2.3,4.5-4.8,4.5s-4.8-1.4-4.8-4.5v-7.5Z"/>
      <path class="cls-1" d="M106.8,217.3c-2.5,0-4.3-1.3-4.3-3.4h2.2c0,1,.8,1.8,2.2,1.8s2.2-.7,2.2-1.7c0-2.9-6.5-1-6.5-5.4s1.7-3.4,4.2-3.4,4,1.2,4.2,3.2h-2.2c0-.8-.8-1.5-2.1-1.6-1.2,0-2.1.5-2.1,1.7,0,2.7,6.5,1,6.5,5.4s-1.5,3.5-4.2,3.5Z"/>
      <path class="cls-1" d="M114.7,205.3h2v11.9h-2v-11.9Z"/>
      <path class="cls-1" d="M130.6,205.3v11.9h-2l-6-8.9v8.9h-2v-11.9h2l6,8.9v-8.9h2Z"/>
      <path class="cls-1" d="M141.3,206.9h-4.8v3.5h4.2v1.6h-4.2v3.6h4.8v1.6h-6.8v-11.9h6.8v1.6Z"/>
      <path class="cls-1" d="M149,217.3c-2.4,0-4.3-1.3-4.3-3.4h2.2c0,1,.8,1.8,2.2,1.8s2.2-.7,2.2-1.7c0-2.9-6.5-1-6.5-5.4s1.7-3.4,4.2-3.4,4,1.2,4.2,3.2h-2.2c0-.8-.8-1.5-2.1-1.6-1.2,0-2.1.5-2.1,1.7,0,2.7,6.5,1,6.5,5.4s-1.5,3.5-4.2,3.5Z"/>
      <path class="cls-1" d="M160.9,217.3c-2.5,0-4.3-1.3-4.3-3.4h2.2c0,1,.8,1.8,2.2,1.8s2.2-.7,2.2-1.7c0-2.9-6.5-1-6.5-5.4s1.7-3.4,4.2-3.4,4,1.2,4.2,3.2h-2.2c0-.8-.8-1.5-2.1-1.6-1.2,0-2.1.5-2.1,1.7,0,2.7,6.5,1,6.5,5.4s-1.5,3.5-4.2,3.5Z"/>
      <path class="cls-1" d="M180.1,208c0-.9-.5-1.3-1.2-1.3s-1.3.5-1.3,1.1.4,1.2,1.2,2.1l3.1,3.1,1.2-2h2.1l-1.5,2.6c-.1.2-.3.5-.4.7l2.9,2.9h-2.5l-1.5-1.5c-1.1,1.1-2.5,1.7-4.1,1.7-2.6,0-4.3-1.4-4.3-3.6s.9-3,2.8-3.7c-.7-.8-.9-1.4-.9-2.3,0-1.6,1.3-2.7,3.3-2.7s3.2,1.3,3.1,2.9h-2ZM180.9,214.4l-3.1-3.2c-1.4.5-2,1.4-2,2.4s.9,2.1,2.3,2.1,2-.4,2.8-1.3Z"/>
      <path class="cls-1" d="M198.6,217.3c-2.4,0-4.3-1.3-4.3-3.4h2.2c0,1,.8,1.8,2.2,1.8s2.2-.7,2.2-1.7c0-2.9-6.5-1-6.5-5.4s1.7-3.4,4.2-3.4,4,1.2,4.2,3.2h-2.2c0-.8-.8-1.5-2.1-1.6-1.2,0-2.1.5-2.1,1.7,0,2.7,6.5,1,6.5,5.4s-1.5,3.5-4.2,3.5Z"/>
      <path class="cls-1" d="M205.8,205.3h8.5v1.6h-3.3v10.3h-2v-10.3h-3.3v-1.6Z"/>
      <path class="cls-1" d="M223.2,217.3c-3.5,0-6.3-2.5-6.3-6.1s2.8-6.1,6.3-6.1,6.3,2.5,6.3,6.1-2.8,6.1-6.3,6.1ZM223.2,215.6c2.4,0,4.2-1.7,4.2-4.4s-1.8-4.4-4.2-4.4-4.2,1.7-4.2,4.4,1.8,4.4,4.2,4.4Z"/>
      <path class="cls-1" d="M236.9,205.3c2.9,0,4.3,1.6,4.3,3.6s-.8,2.9-2.8,3.4l3,4.9h-2.4l-2.8-4.8h-1.5v4.8h-2v-11.9h4.2ZM236.9,206.9h-2.2v4h2.2c1.6,0,2.3-.8,2.3-2s-.7-2-2.3-2Z"/>
      <path class="cls-1" d="M252.4,214.8h-5.1l-.9,2.4h-2.1l4.4-11.9h2.3l4.4,11.9h-2.1l-.9-2.4ZM249.9,207.7l-2,5.5h4l-2-5.5Z"/>
      <path class="cls-1" d="M269.8,208.7h-2.4c-.7-1.2-1.8-1.8-3.3-1.8-2.4,0-4.2,1.7-4.2,4.3s1.8,4.3,4.2,4.3,3.6-1.3,3.9-3.3h-4.6v-1.6h6.8v1.5c-.4,2.8-2.8,5.1-6.1,5.1s-6.3-2.5-6.3-6.1,2.8-6.1,6.3-6.1,4.8,1.2,5.7,3.6Z"/>
      <path class="cls-1" d="M280.2,206.9h-4.8v3.5h4.2v1.6h-4.2v3.6h4.8v1.6h-6.8v-11.9h6.8v1.6Z"/>
    </g>
  </g>
</svg>