<?xml version="1.0" encoding="UTF-8"?>
<svg id="Laag_1" xmlns="http://www.w3.org/2000/svg" version="1.1" viewBox="0 0 284.7958 60.2831">
  <!-- Generator: Adobe Illustrator 29.5.1, SVG Export Plug-In . SVG Version: 2.1.0 Build 141)  -->
  <g fill="white">
    <path d="M89.0399,40.4102l-2.9365-19.4326-8.8784,19.3789h-1.5859l-8.8789-19.375-2.9438,19.4287h-6.5625l4.6641-29.7793h6.4551l8.0532,18.2568,8.0928-18.2568h6.4702l4.6138,29.7793h-6.563Z"/>
    <path d="M123.111,17.4043v22.9717h-4.8691l-.5337-2.0557c-1.9727,1.7285-4.5464,2.7402-7.4443,2.7402-6.9106,0-12.0508-5.2168-12.0508-12.1699,0-6.9277,5.1401-12.1016,12.0508-12.1016,2.9487,0,5.5615,1.0391,7.5474,2.8096l.6636-2.1953,4.6362.001ZM117.0236,28.8906c0-3.6094-2.645-6.2969-6.2534-6.2969s-6.2612,2.6953-6.2612,6.2969c0,3.5996,2.6528,6.2949,6.2612,6.2949s6.2534-2.6875,6.2534-6.2949Z"/>
    <path d="M142.9184,40.4102l-7.3521-10.9893v10.9893h-6.2109V9.4417h6.2109v18.2038l6.8955-10.208h7.1548l-7.771,10.9404,8.5986,12.0322h-7.5259Z"/>
    <path d="M174.5717,28.8438c0,.6064-.0425,1.2129-.1201,1.8203h-17.3862c.54,3.1357,2.6011,4.8613,5.6138,4.8613,2.1582,0,3.9297-1.0205,4.873-2.6641h6.5283c-1.6709,5.0078-6.0679,8.1992-11.4009,8.1992-6.7832,0-11.9155-5.252-11.9155-12.1367,0-6.918,5.0972-12.1357,11.9155-12.1357,7.0542,0,11.8926,5.4385,11.8926,12.0557h-.0005ZM157.2294,26.4219h11.1318c-.8779-2.8086-2.8945-4.332-5.6821-4.332-2.7651,0-4.7285,1.6133-5.4497,4.332Z"/>
    <path d="M178.9877,9.4417h6.2109v30.9685h-6.2109V9.4417Z"/>
    <path d="M214.5434,17.4043v22.9717h-4.8691l-.5337-2.0557c-1.9727,1.7285-4.5464,2.7402-7.4443,2.7402-6.9106,0-12.0508-5.2168-12.0508-12.1699,0-6.9277,5.1401-12.1016,12.0508-12.1016,2.9487,0,5.5615,1.0391,7.5474,2.8096l.6636-2.1953,4.6362.001ZM208.456,28.8906c0-3.6094-2.645-6.2969-6.2534-6.2969s-6.2612,2.6953-6.2612,6.2969c0,3.5996,2.6528,6.2949,6.2612,6.2949s6.2534-2.6875,6.2534-6.2949Z"/>
    <path d="M243.8954,17.4043v22.9717h-4.8691l-.5337-2.0557c-1.9727,1.7285-4.5464,2.7402-7.4443,2.7402-6.9106,0-12.0508-5.2168-12.0508-12.1699,0-6.9277,5.1401-12.1016,12.0508-12.1016,2.9487,0,5.5615,1.0391,7.5474,2.8096l.6636-2.1953,4.6362.001ZM237.808,28.8906c0-3.6094-2.645-6.2969-6.2534-6.2969s-6.2612,2.6953-6.2612,6.2969c0,3.5996,2.6528,6.2949,6.2612,6.2949s6.2534-2.6875,6.2534-6.2949Z"/>
    <path d="M263.6493,17.3106v5.8594h-2.6953c-3.5005,0-4.8848,1.5508-4.8848,5.3066v11.9336h-6.2109v-22.9727h3.9829l1.104,2.8154c1.6357-2.0322,3.7114-2.9424,6.6621-2.9424h2.042Z"/>
    <path d="M275.1625,41.0586c-5.7661,0-9.6182-3.291-9.6494-8.2139h6.0562c.0312,2.0459,1.5977,3.0674,3.8252,3.0674,1.7246,0,3.2676-.7812,3.2676-2.3164,0-1.5703-1.9922-2.0469-4.4204-2.4521-3.6704-.6104-8.3384-1.5928-8.3384-7.0078,0-4.3467,3.6973-7.3486,9.2432-7.3486s9.1846,3.0869,9.208,7.6777h-5.8936c-.0234-1.8262-1.3037-2.7266-3.4692-2.7266-1.9336,0-3.0747.8857-3.0747,2.2012,0,1.5312,1.9609,1.8867,4.3467,2.3203,3.748.6719,8.5322,1.4648,8.5322,7.0625,0,4.6865-3.833,7.7383-9.6338,7.7383l.0005-.002Z"/>
  </g>
  <path d="M49.9011,24.9505C49.9011,11.1707,38.7303,0,24.9505,0S0,11.1707,0,24.9505s11.1707,24.9506,24.9505,24.9506c.5297,0,1.0541-.0221,1.5756-.0546l-5.6028-12.7175c-5.1125-1.6902-8.8055-6.4994-8.8055-12.1785,0-7.0873,5.7454-12.8326,12.8326-12.8326s12.8327,5.7454,12.8327,12.8326c0,3.327-1.2748,6.3478-3.3538,8.6243l-2.6461-6.0062-9.4634,4.2142,12.556,28.5002,6.8535-10.1384-2.187-4.9641c6.2727-4.5311,10.3586-11.9007,10.3586-20.2301Z" fill="#98012e"/>
</svg>