<?xml version="1.0" encoding="utf-8"?>
<!-- Generator: Adobe Illustrator 26.4.0, SVG Export Plug-In . SVG Version: 6.00 Build 0)  -->
<svg version="1.1" id="Laag_1" xmlns="http://www.w3.org/2000/svg" xmlns:xlink="http://www.w3.org/1999/xlink" x="0px" y="0px"
	 viewBox="0 0 381.6 73" style="enable-background:new 0 0 381.6 73;" xml:space="preserve">
<style type="text/css">
	.st0{clip-path:url(#SVGID_00000158741293618708293830000016715291514291946652_);}
	.st1{clip-path:url(#SVGID_00000139266975948120921570000010896628949435305150_);}
	.st2{clip-path:url(#SVGID_00000024710143538147815690000003771875284693394564_);}
	.st3{clip-path:url(#SVGID_00000060000220908978401480000014510202443060137652_);}
	.st4{clip-path:url(#SVGID_00000098935171857044844950000010463436166674318994_);}
	.st5{fill:#253350;}
	.st6{clip-path:url(#SVGID_00000084529959994861538710000001863673602311931294_);}
	.st7{clip-path:url(#SVGID_00000075150401097979936040000016667918850708033436_);}
	.st8{clip-path:url(#SVGID_00000171711183238772694870000012879602937984422057_);}
	.st9{clip-path:url(#SVGID_00000075156282106300042740000001403932802794320023_);}
	.st10{clip-path:url(#SVGID_00000156580362940333202600000007813017804790510261_);}
	.st11{clip-path:url(#SVGID_00000160176758543263876380000011128748469041883558_);}
	.st12{clip-path:url(#SVGID_00000086669483424405071430000018265090474188633789_);}
	.st13{clip-path:url(#SVGID_00000155828696079191860020000003170477654046680740_);}
	.st14{clip-path:url(#SVGID_00000133513921145173246440000016042955290320829624_);}
	.st15{clip-path:url(#SVGID_00000005974324981534298540000015096066790400276380_);}
	.st16{fill:#F8B147;}
	.st17{fill:none;stroke:#253350;stroke-width:0.95;stroke-miterlimit:10;}
	.st18{clip-path:url(#SVGID_00000106868332222391981590000015953901843848562096_);}
	.st19{clip-path:url(#SVGID_00000124844899992658543860000017425334483524066211_);}
	.st20{clip-path:url(#SVGID_00000174582698035512228810000008104172944335889048_);}
	.st21{clip-path:url(#SVGID_00000031175776324749469820000005904878812478960512_);}
	.st22{clip-path:url(#SVGID_00000114786064409438767370000015742850077978813855_);}
</style>
<g id="Laag_2_00000065061676758026369420000018241691120355439024_">
	<g id="Laag_1-2">
		<g>
			<defs>
				<path id="SVGID_1_" d="M370.3,14.5c3.1-0.1,6,1,8.2,3.2c2.1,2.3,3.3,5.4,3.1,8.6v19.4h-10.2V29.1c0.1-1.5-0.4-3-1.4-4.1
					c-1-1-2.4-1.6-3.9-1.5c-1.6,0-3.1,0.6-4.2,1.6c-1.1,1.1-1.8,2.6-1.9,4.2v16.2h-10.3V14.9H360v5c1-1.7,2.5-3.1,4.3-4
					C366.1,15,368.2,14.5,370.3,14.5z M326.5,39.2c1.4,0,2.8-0.4,4-1.1c1.1-0.6,1.9-1.7,2.2-2.9v-2.7h-6.1c-2.9,0-4.3,1.1-4.3,3.2
					c0,1,0.4,1.9,1.1,2.5C324.2,38.9,325.3,39.2,326.5,39.2z M329.1,14.5c4.3,0,7.6,1,10,2.9c2.5,2,3.8,5.1,3.7,8.2v20h-10.1v-3.5
					c-2.1,2.6-5.2,3.9-9.4,3.9c-2.8,0.2-5.6-0.8-7.8-2.6c-1.9-1.8-3-4.3-2.9-6.9c-0.1-2.6,1-5.2,3.1-6.8c2.1-1.6,5-2.5,8.9-2.5h8.1
					v-0.3c0.1-1.3-0.5-2.6-1.5-3.4c-1.3-0.9-2.8-1.3-4.4-1.2c-1.5,0-3,0.2-4.4,0.6c-1.7,0.4-3.4,1-4.9,1.8l-2.8-6.8
					c2.3-1.1,4.8-1.9,7.3-2.5C324.2,14.8,326.7,14.5,329.1,14.5z M296.9,14.5c3-0.1,6,1,8.1,3.2c2.1,2.3,3.2,5.4,3.1,8.6v19.4h-10.3
					V29.1c0.1-1.5-0.4-3-1.4-4.1c-1-1-2.3-1.6-3.7-1.5c-1.7,0-3.2,0.7-4.3,2c-1.1,1.4-1.7,3.2-1.6,5v15.1h-10.3V29.1
					c0.1-1.5-0.4-3-1.4-4.1c-1-1-2.3-1.6-3.8-1.5c-1.7,0-3.3,0.7-4.3,2c-1.1,1.4-1.7,3.2-1.6,5v15.1h-10.2V14.9h10.2v5
					c1-1.7,2.4-3.1,4.2-4.1c1.8-1,3.9-1.4,6-1.4c2.3-0.1,4.6,0.6,6.5,1.8c1.8,1.2,3.2,3,3.9,5c0.9-2.1,2.4-3.9,4.3-5.1
					C292.3,15,294.6,14.4,296.9,14.5L296.9,14.5z M240,27.5c0.1-1.6-0.5-3.1-1.6-4.3c-2.3-2.1-5.9-2.1-8.2,0
					c-1.2,1.2-1.9,2.7-2.2,4.3L240,27.5z M234.2,14.5c5.1,0,9,1.5,11.7,4.4c2.7,2.9,4.1,7,4.1,12.1c0,0.8,0,1.4-0.1,1.8h-21.7
					c0.4,1.6,1.3,3,2.6,4c1.3,1,2.9,1.4,4.5,1.4c1.3,0,2.7-0.3,3.9-0.8c1.3-0.6,2.4-1.3,3.4-2.3l5.4,5.3c-1.6,1.8-3.6,3.2-5.9,4.1
					c-2.5,1-5.1,1.4-7.8,1.4c-3,0.1-6-0.6-8.8-1.9c-2.4-1.2-4.4-3.1-5.7-5.4c-1.4-2.5-2.1-5.3-2-8.2c-0.1-2.9,0.6-5.8,2-8.3
					c1.3-2.4,3.3-4.3,5.7-5.6C228.3,15.1,231.2,14.5,234.2,14.5L234.2,14.5z M215.8,44c-1.3,0.7-2.6,1.2-4,1.5
					c-1.5,0.4-3,0.5-4.6,0.5c-2.7,0.1-5.4-0.8-7.4-2.6c-2-1.9-3-4.5-2.9-7.2V23.1h-4.3v-6.7h4.3V7.9h10.2v8.5h8.1v6.7h-8.1v11.6
					c0,2.2,0.9,3.2,2.7,3.2c1.4-0.1,2.7-0.4,4-1L215.8,44z M180.2,27.6c0.1-1.6-0.5-3.1-1.6-4.3c-2.3-2.1-5.9-2.1-8.2,0
					c-1.2,1.2-1.9,2.7-2.2,4.3L180.2,27.6z M174.4,14.6c5.1,0,9,1.5,11.7,4.4s4.1,7,4.1,12.1c0,0.8,0,1.4-0.1,1.8h-21.7
					c0.4,1.6,1.3,3,2.6,4c1.3,1,2.9,1.4,4.5,1.4c1.3,0,2.7-0.3,3.9-0.8c1.3-0.6,2.4-1.3,3.4-2.3l5.4,5.3c-1.6,1.8-3.6,3.2-5.9,4.1
					c-2.5,1-5.1,1.4-7.8,1.4c-3,0.1-6-0.6-8.8-1.9c-2.4-1.2-4.4-3.1-5.7-5.4c-1.4-2.5-2.1-5.3-2-8.2c-0.1-2.9,0.6-5.8,2-8.3
					c1.3-2.4,3.3-4.3,5.7-5.6C168.5,15.2,171.5,14.5,174.4,14.6L174.4,14.6z M138.4,22.7c-1.8-0.1-3.6,0.7-4.8,2.1
					c-1.3,1.5-1.9,3.5-1.8,5.5c-0.1,2,0.6,4,1.8,5.6c1.2,1.4,3,2.2,4.8,2.1c1.9,0.1,3.7-0.7,4.9-2.1c1.3-1.6,1.9-3.5,1.8-5.6
					c0.1-2-0.6-4-1.9-5.5C142.1,23.4,140.3,22.6,138.4,22.7L138.4,22.7z M138.4,14.6c3.1-0.1,6.2,0.6,8.9,2c2.5,1.2,4.6,3.1,6,5.5
					c1.5,2.5,2.2,5.3,2.1,8.2c0.1,2.9-0.7,5.7-2.1,8.2c-1.4,2.4-3.5,4.3-6,5.5c-5.7,2.6-12.2,2.6-17.9,0c-2.5-1.2-4.6-3.1-6-5.5
					c-1.4-2.5-2.2-5.4-2.1-8.3c-0.1-2.9,0.7-5.7,2.1-8.2c1.4-2.4,3.5-4.3,6-5.5C132.3,15.2,135.3,14.5,138.4,14.6L138.4,14.6z
					 M113.8,23.9c-4.2-1.7-7.6-2.5-10.1-2.3c-0.7,0-1.5,0.3-2.1,0.7c-0.5,0.3-0.7,0.9-0.7,1.5c0.1,0.7,0.5,1.2,1.4,1.5
					c1.3,0.5,2.7,0.8,4.1,1c1.9,0.4,3.8,0.8,5.7,1.4c1.5,0.5,2.9,1.4,4.1,2.5c1.2,1.3,1.9,3,2,4.8c0.4,2.9-0.8,5.7-3,7.6
					c-2.6,2.1-5.9,3.3-9.3,3.4c-2.6,0.2-5.2,0.1-7.7-0.4c-2.4-0.5-4.7-1.4-6.7-2.7l2.6-6.8c1.8,1,3.8,1.8,5.8,2.3
					c1.8,0.5,3.7,0.7,5.6,0.5c0.8,0,1.6-0.3,2.3-0.7c0.5-0.3,0.8-0.9,0.8-1.5c-0.1-0.8-0.7-1.4-1.4-1.6c-1.4-0.4-2.8-0.8-4.2-1
					c-1.9-0.4-3.7-0.8-5.6-1.4c-1.5-0.5-2.8-1.4-3.9-2.5c-1.2-1.3-1.9-3-2-4.7c-0.4-2.9,0.7-5.7,2.9-7.6c2.6-2.1,5.7-3.3,9-3.4
					c4.6-0.4,9.1,0.5,13.2,2.5L113.8,23.9z"/>
			</defs>
			<clipPath id="SVGID_00000020370623742685525810000002972598987039950779_">
				<use xlink:href="#SVGID_1_"  style="overflow:visible;"/>
			</clipPath>
			<g style="clip-path:url(#SVGID_00000020370623742685525810000002972598987039950779_);">
				<g>
					<defs>
						<rect id="SVGID_00000127748007459006135170000013141412912340537787_" x="-100.2" y="-33.3" width="2454.4" height="7717.9"/>
					</defs>
					<clipPath id="SVGID_00000082358890152905168750000009223165151422622388_">
						<use xlink:href="#SVGID_00000127748007459006135170000013141412912340537787_"  style="overflow:visible;"/>
					</clipPath>
					<g style="clip-path:url(#SVGID_00000082358890152905168750000009223165151422622388_);">
						<g>
							<g>
								<defs>
									<rect id="SVGID_00000145767918940406386590000004192260761908535231_" x="89.2" y="7.4" width="294.8" height="40.8"/>
								</defs>
								<clipPath id="SVGID_00000127035233845849102590000005109474113087984063_">
									<use xlink:href="#SVGID_00000145767918940406386590000004192260761908535231_"  style="overflow:visible;"/>
								</clipPath>
								<g style="clip-path:url(#SVGID_00000127035233845849102590000005109474113087984063_);">
									<g>
										<defs>
											<rect id="SVGID_00000047772076767193221580000015930718003447381183_" x="91.5" y="7.9" width="290" height="38.4"/>
										</defs>
										<clipPath id="SVGID_00000141417078053614017100000011573605355846015373_">
											<use xlink:href="#SVGID_00000047772076767193221580000015930718003447381183_"  style="overflow:visible;"/>
										</clipPath>
										<g style="clip-path:url(#SVGID_00000141417078053614017100000011573605355846015373_);">
											<g>
												<defs>
													<rect id="SVGID_00000145753816673682173530000000994361463838345106_" x="89.2" y="7.4" width="292.4" height="40.8"/>
												</defs>
												<clipPath id="SVGID_00000117644404488167239950000006145368152266680963_">
													<use xlink:href="#SVGID_00000145753816673682173530000000994361463838345106_"  style="overflow:visible;"/>
												</clipPath>
												<g style="clip-path:url(#SVGID_00000117644404488167239950000006145368152266680963_);">
													<rect x="79.6" y="-4.1" class="st5" width="314" height="62.3"/>
												</g>
											</g>
										</g>
									</g>
								</g>
							</g>
						</g>
					</g>
				</g>
			</g>
		</g>
		<g>
			<defs>
				<path id="SVGID_00000122720333566378116130000014816694327141894529_" d="M342.1,63.2c-0.2-0.2-0.3-0.3-0.5-0.4
					c-0.5-0.3-1-0.5-1.6-0.7c-0.3-0.1-0.7-0.1-1-0.1c-0.7-0.1-1.4,0.1-1.9,0.5c-0.4,0.3-0.6,0.9-0.6,1.4c0,0.3,0.1,0.6,0.2,0.8
					c0.1,0.2,0.3,0.4,0.5,0.5c0.3,0.2,0.6,0.3,0.9,0.4c0.4,0.1,0.8,0.2,1.3,0.3c0.5,0.1,1.1,0.3,1.6,0.5c0.4,0.1,0.8,0.4,1.2,0.6
					c0.3,0.2,0.6,0.6,0.8,0.9c0.2,0.4,0.3,0.9,0.3,1.3c0,0.5-0.1,1-0.3,1.5c-0.2,0.4-0.5,0.7-0.9,1c-0.4,0.3-0.8,0.5-1.3,0.6
					c-0.5,0.1-1.1,0.2-1.6,0.2c-0.8,0-1.7-0.1-2.5-0.4c-0.8-0.3-1.5-0.7-2.1-1.2l0.7-1.3c0.2,0.2,0.4,0.4,0.7,0.6
					c0.3,0.2,0.6,0.4,0.9,0.5c0.4,0.2,0.7,0.3,1.1,0.4c0.4,0.1,0.8,0.1,1.2,0.1c0.6,0,1.3-0.1,1.9-0.4c0.7-0.5,0.9-1.5,0.5-2.2
					c-0.2-0.2-0.4-0.4-0.6-0.6c-0.3-0.2-0.7-0.3-1-0.4l-1.4-0.4c-0.5-0.1-1-0.3-1.5-0.5c-0.4-0.1-0.8-0.3-1.1-0.6
					c-0.3-0.2-0.5-0.5-0.6-0.8c-0.2-0.4-0.2-0.8-0.2-1.2c0-0.5,0.1-1,0.3-1.5c0.2-0.4,0.5-0.8,0.8-1.1c0.4-0.3,0.8-0.5,1.3-0.7
					c0.5-0.2,1.1-0.2,1.6-0.2c1.4,0,2.7,0.5,3.7,1.3L342.1,63.2z M311.4,66.9h3.4c0.3,0,0.6-0.1,0.8-0.2c0.2-0.1,0.4-0.3,0.6-0.5
					c0.2-0.2,0.3-0.5,0.4-0.8c0.1-0.3,0.1-0.6,0.1-0.9c0-0.3,0-0.6-0.2-0.9c-0.1-0.3-0.3-0.5-0.4-0.8c-0.2-0.2-0.4-0.4-0.6-0.5
					c-0.2-0.1-0.5-0.2-0.8-0.2h-3.3L311.4,66.9z M309.9,72.5V60.7h4.9c0.5,0,0.9,0.1,1.4,0.3c0.4,0.2,0.8,0.5,1.1,0.9
					c0.3,0.4,0.5,0.8,0.7,1.2c0.2,0.4,0.3,0.9,0.3,1.4c0,0.4-0.1,0.8-0.2,1.2c-0.1,0.4-0.3,0.7-0.5,1c-0.2,0.3-0.4,0.6-0.7,0.8
					c-0.3,0.2-0.6,0.4-1,0.5l2.7,4.5h-1.6l-2.6-4.2h-3v4.2L309.9,72.5z M288.3,62.4l-2.1,5.4h4.1L288.3,62.4z M283.1,72.5l4.6-11.8
					h1.2l4.6,11.8H292l-1.3-3.4h-4.7l-1.3,3.4L283.1,72.5z M262.6,62.4l-2.1,5.4h4.1L262.6,62.4z M257.4,72.5l4.6-11.8h1.2l4.6,11.8
					h-1.5L265,69h-4.7l-1.3,3.4L257.4,72.5z M234.3,72.5V60.7h1.4v10.5h6.3v1.3L234.3,72.5z M217.3,71.1v1.3h-7.6V60.7h7.5V62H211
					v3.8h5.3v1.2H211v4.1L217.3,71.1z M184.4,72.5V60.7h1.4v6.5l5.8-6.5h1.5l-4.5,5.2l4.8,6.6h-1.5l-4-5.7l-2,2.1v3.6H184.4z
					 M162.7,62.4l-2.1,5.4h4.2L162.7,62.4z M157.5,72.5l4.6-11.8h1.2l4.6,11.8h-1.5l-1.3-3.4h-4.7l-1.3,3.4L157.5,72.5z M139.6,72.5
					v-9.1l-3.7,7h-0.8l-3.8-7v9.1h-1.4V60.7h1.5l4.1,7.7l4.1-7.7h1.5v11.8L139.6,72.5z"/>
			</defs>
			<clipPath id="SVGID_00000147934032580098900470000002136053545813287076_">
				<use xlink:href="#SVGID_00000122720333566378116130000014816694327141894529_"  style="overflow:visible;"/>
			</clipPath>
			<g style="clip-path:url(#SVGID_00000147934032580098900470000002136053545813287076_);">
				<g>
					<defs>
						<rect id="SVGID_00000090288864071206130300000013474419614698872463_" x="-100.2" y="-33.3" width="2454.4" height="7717.9"/>
					</defs>
					<clipPath id="SVGID_00000119103749178872122650000017183604525291534987_">
						<use xlink:href="#SVGID_00000090288864071206130300000013474419614698872463_"  style="overflow:visible;"/>
					</clipPath>
					<g style="clip-path:url(#SVGID_00000119103749178872122650000017183604525291534987_);">
						<g>
							<g>
								<defs>
									<rect id="SVGID_00000164482896207424382350000018228435202725745543_" x="127.5" y="60.1" width="218.1" height="14.4"/>
								</defs>
								<clipPath id="SVGID_00000170978460744995817510000000575757043000488366_">
									<use xlink:href="#SVGID_00000164482896207424382350000018228435202725745543_"  style="overflow:visible;"/>
								</clipPath>
								<g style="clip-path:url(#SVGID_00000170978460744995817510000000575757043000488366_);">
									<g>
										<defs>
											<rect id="SVGID_00000023254993784512222970000015567367900659032471_" x="129.9" y="60.6" width="213.3" height="12"/>
										</defs>
										<clipPath id="SVGID_00000148623599683256336880000004225798549958780599_">
											<use xlink:href="#SVGID_00000023254993784512222970000015567367900659032471_"  style="overflow:visible;"/>
										</clipPath>
										<g style="clip-path:url(#SVGID_00000148623599683256336880000004225798549958780599_);">
											<g>
												<defs>
													
														<rect id="SVGID_00000032646372295468415040000011873711383990609850_" x="129.9" y="60.1" width="215.7" height="14.4"/>
												</defs>
												<clipPath id="SVGID_00000024723574430317360600000014116501234073584019_">
													<use xlink:href="#SVGID_00000032646372295468415040000011873711383990609850_"  style="overflow:visible;"/>
												</clipPath>
												<g style="clip-path:url(#SVGID_00000024723574430317360600000014116501234073584019_);">
													<rect x="117.9" y="48.6" class="st5" width="237.3" height="36"/>
												</g>
											</g>
										</g>
									</g>
								</g>
							</g>
						</g>
					</g>
				</g>
			</g>
		</g>
		<g>
			<defs>
				<polygon id="SVGID_00000015343142748740294460000004389788095285899953_" points="0.5,72.6 0.5,36.6 36.4,0.7 72.4,36.5 
					72.4,72.6 				"/>
			</defs>
			<clipPath id="SVGID_00000179623665134328366530000009254476986992009646_">
				<use xlink:href="#SVGID_00000015343142748740294460000004389788095285899953_"  style="overflow:visible;"/>
			</clipPath>
			<g style="clip-path:url(#SVGID_00000179623665134328366530000009254476986992009646_);">
				<g>
					<defs>
						<rect id="SVGID_00000129902344383366960920000017723031911251605679_" x="-100.2" y="-33.3" width="2454.4" height="7717.9"/>
					</defs>
					<clipPath id="SVGID_00000124145106432442901930000008968388783858266765_">
						<use xlink:href="#SVGID_00000129902344383366960920000017723031911251605679_"  style="overflow:visible;"/>
					</clipPath>
					<g style="clip-path:url(#SVGID_00000124145106432442901930000008968388783858266765_);">
						<g>
							<g>
								<defs>
									<rect id="SVGID_00000059292177424406864390000012816659121272915362_" x="-1.9" y="0.2" width="76.7" height="74.3"/>
								</defs>
								<clipPath id="SVGID_00000163051119640757943770000017448849501521324201_">
									<use xlink:href="#SVGID_00000059292177424406864390000012816659121272915362_"  style="overflow:visible;"/>
								</clipPath>
								<g style="clip-path:url(#SVGID_00000163051119640757943770000017448849501521324201_);">
									<g>
										<defs>
											<rect id="SVGID_00000152949235186616608260000001089396110892654982_" x="0.5" y="0.7" width="71.9" height="71.9"/>
										</defs>
										<clipPath id="SVGID_00000164483303875910613490000017081702366590559128_">
											<use xlink:href="#SVGID_00000152949235186616608260000001089396110892654982_"  style="overflow:visible;"/>
										</clipPath>
										<g style="clip-path:url(#SVGID_00000164483303875910613490000017081702366590559128_);">
											<g>
												<defs>
													<rect id="SVGID_00000140704376865253717530000003049415161610572450_" x="0.5" y="0.2" width="71.9" height="74.3"/>
												</defs>
												<clipPath id="SVGID_00000137810898377861317640000007269690583870716310_">
													<use xlink:href="#SVGID_00000140704376865253717530000003049415161610572450_"  style="overflow:visible;"/>
												</clipPath>
												<g style="clip-path:url(#SVGID_00000137810898377861317640000007269690583870716310_);">
													<rect x="-11.5" y="-11.3" class="st16" width="95.9" height="95.8"/>
												</g>
											</g>
										</g>
									</g>
								</g>
							</g>
						</g>
					</g>
				</g>
			</g>
		</g>
		<polygon class="st17" points="0.5,72.6 72.4,72.6 72.4,36.5 36.4,0.7 0.5,36.6 		"/>
		<g>
			<defs>
				<polygon id="SVGID_00000101078820470951651500000005708127498626818974_" points="36.4,72.6 0.5,35.9 36.4,0.7 				"/>
			</defs>
			<clipPath id="SVGID_00000139269669733713607240000014219741700245744824_">
				<use xlink:href="#SVGID_00000101078820470951651500000005708127498626818974_"  style="overflow:visible;"/>
			</clipPath>
			<g style="clip-path:url(#SVGID_00000139269669733713607240000014219741700245744824_);">
				<g>
					<defs>
						<rect id="SVGID_00000149366707419828506320000004741936704238361269_" x="-100.2" y="-33.3" width="2454.4" height="7717.9"/>
					</defs>
					<clipPath id="SVGID_00000052085815280066644870000014330344455500685472_">
						<use xlink:href="#SVGID_00000149366707419828506320000004741936704238361269_"  style="overflow:visible;"/>
					</clipPath>
					<g style="clip-path:url(#SVGID_00000052085815280066644870000014330344455500685472_);">
						<g>
							<g>
								<defs>
									<rect id="SVGID_00000151542806504963253430000013109693361791528878_" x="0.5" y="0.2" width="35.9" height="74.3"/>
								</defs>
								<clipPath id="SVGID_00000095303957550685255110000006983446395668413587_">
									<use xlink:href="#SVGID_00000151542806504963253430000013109693361791528878_"  style="overflow:visible;"/>
								</clipPath>
								<g style="clip-path:url(#SVGID_00000095303957550685255110000006983446395668413587_);">
									<g>
										<defs>
											<rect id="SVGID_00000183932975197154671720000008347572422354173581_" x="0.5" y="0.7" width="35.9" height="71.9"/>
										</defs>
										<clipPath id="SVGID_00000082362349918313295050000000520199500265233040_">
											<use xlink:href="#SVGID_00000183932975197154671720000008347572422354173581_"  style="overflow:visible;"/>
										</clipPath>
										<g style="clip-path:url(#SVGID_00000082362349918313295050000000520199500265233040_);">
											<g>
												<defs>
													<rect id="SVGID_00000013897534515495218520000003075864953928632972_" x="0.5" y="0.2" width="35.9" height="74.3"/>
												</defs>
												<clipPath id="SVGID_00000075160397421832094350000006233779795605449109_">
													<use xlink:href="#SVGID_00000013897534515495218520000003075864953928632972_"  style="overflow:visible;"/>
												</clipPath>
												<g style="clip-path:url(#SVGID_00000075160397421832094350000006233779795605449109_);">
													<rect x="-11.5" y="-11.3" class="st5" width="59.9" height="95.9"/>
												</g>
											</g>
										</g>
									</g>
								</g>
							</g>
						</g>
					</g>
				</g>
			</g>
		</g>
	</g>
</g>
</svg>
