<?xml version="1.0" encoding="UTF-8"?> <svg xmlns="http://www.w3.org/2000/svg" xmlns:xlink="http://www.w3.org/1999/xlink" id="Group_24" data-name="Group 24" width="141.215" height="141.215" viewBox="0 0 141.215 141.215"><defs><clipPath id="clip-path"><path id="Path_8" data-name="Path 8" d="M0,57.121H141.215V-84.094H0Z" transform="translate(0 84.094)" fill="none"></path></clipPath></defs><g id="Group_8" data-name="Group 8" clip-path="url(#clip-path)"><g id="Group_1" data-name="Group 1" transform="translate(0 -0.001)"><path id="Path_1" data-name="Path 1" d="M28.561,0A70.607,70.607,0,0,1,99.168,70.606v70.609l-20.49-20.873A70.607,70.607,0,1,1,28.561,0" transform="translate(42.047)" fill="#ff6d20"></path></g><g id="Group_2" data-name="Group 2" transform="translate(14.706 57.016)"><path id="Path_2" data-name="Path 2" d="M7.491,1.358Q6.3,2.658,4.6,4.733T1.1,9.245Q-.7,11.684-2.455,14.265t-3.086,4.892H7.889v3.862H-11.029V20.167q.723-1.335,1.679-2.907t2.039-3.231q1.083-1.66,2.257-3.357T-2.725,7.4q1.154-1.569,2.257-3T1.607,1.863H-10.414V-2H7.491Z" transform="translate(11.029 1.999)" fill="#fff"></path></g><g id="Group_3" data-name="Group 3" transform="translate(36.295 62.683)"><path id="Path_3" data-name="Path 3" d="M3.081,0A10.682,10.682,0,0,1,6.727.542,5.813,5.813,0,0,1,9.093,2.057a5.7,5.7,0,0,1,1.263,2.366,11.533,11.533,0,0,1,.38,3.05V18.917q-1.013.219-3.051.524a31.105,31.105,0,0,1-4.6.307,13.812,13.812,0,0,1-3.1-.326,6.481,6.481,0,0,1-2.4-1.046A4.927,4.927,0,0,1-3.977,16.5a6.513,6.513,0,0,1-.559-2.851A5.5,5.5,0,0,1-3.9,10.9,5.2,5.2,0,0,1-2.19,9.08,7.413,7.413,0,0,1,.319,8.069,14.112,14.112,0,0,1,3.3,7.762a13.393,13.393,0,0,1,1.516.091,14.192,14.192,0,0,1,1.7.307V7.437a5.7,5.7,0,0,0-.18-1.444A3.006,3.006,0,0,0,5.7,4.784a2.971,2.971,0,0,0-1.192-.813,5.145,5.145,0,0,0-1.859-.289A16.481,16.481,0,0,0-.131,3.9,12.153,12.153,0,0,0-2.19,4.4L-2.731.866A17.121,17.121,0,0,1-.313.289,18.918,18.918,0,0,1,3.081,0m.361,16.282a16.234,16.234,0,0,0,3.068-.217V11.227a8.479,8.479,0,0,0-1.046-.217A9.756,9.756,0,0,0,3.948,10.9a10.089,10.089,0,0,0-1.463.107,4.539,4.539,0,0,0-1.335.4,2.427,2.427,0,0,0-.957.811,2.276,2.276,0,0,0-.361,1.318,2.308,2.308,0,0,0,.976,2.148,5.019,5.019,0,0,0,2.635.6" transform="translate(4.536)" fill="#fff"></path></g><g id="Group_4" data-name="Group 4" transform="translate(55.861 62.755)"><path id="Path_4" data-name="Path 4" d="M6.732,7.024q0,4.514-2.292,6.606t-7.023,2.094a19.4,19.4,0,0,1-3.375-.289,18.945,18.945,0,0,1-2.977-.757l.794-3.72a13.474,13.474,0,0,0,2.544.759,15.635,15.635,0,0,0,3.086.289,5.3,5.3,0,0,0,3.755-1.083,4.277,4.277,0,0,0,1.12-3.212V6.989a11.349,11.349,0,0,1-1.716.648,8.286,8.286,0,0,1-2.437.326,9.091,9.091,0,0,1-3.3-.578,6.908,6.908,0,0,1-2.563-1.7,7.748,7.748,0,0,1-1.661-2.8,11.6,11.6,0,0,1-.6-3.881,11.019,11.019,0,0,1,.631-3.79A8.1,8.1,0,0,1-7.437-7.742,8.414,8.414,0,0,1-4.5-9.654a10.6,10.6,0,0,1,3.934-.687,23.965,23.965,0,0,1,4.044.326Q5.4-9.69,6.732-9.33ZM-5.434-.991A5.772,5.772,0,0,0-4.225,3.071,4.1,4.1,0,0,0-1.1,4.352,6.513,6.513,0,0,0,.865,4.064a5.636,5.636,0,0,0,1.5-.685V-6.407q-.471-.108-1.155-.2A13.656,13.656,0,0,0-.524-6.7,4.408,4.408,0,0,0-4.171-5.124,6.4,6.4,0,0,0-5.434-.991" transform="translate(9.911 10.341)" fill="#fff"></path></g><g id="Group_5" data-name="Group 5" transform="translate(77.017 62.683)"><path id="Path_5" data-name="Path 5" d="M0,4.045A11.867,11.867,0,0,1,.741-.324,9.151,9.151,0,0,1,2.707-3.446,8.15,8.15,0,0,1,5.523-5.324a8.719,8.719,0,0,1,3.249-.631,7.783,7.783,0,0,1,6.084,2.418q2.184,2.421,2.183,7.221c0,.24-.007.512-.017.813s-.032.571-.055.811H4.512A4.985,4.985,0,0,0,6.119,8.829a6.109,6.109,0,0,0,4.134,1.244,13.549,13.549,0,0,0,2.905-.289,11.881,11.881,0,0,0,2.076-.613l.578,3.573a6.9,6.9,0,0,1-.992.38,14.134,14.134,0,0,1-1.444.361q-.811.164-1.751.27a16.652,16.652,0,0,1-1.913.109,11.573,11.573,0,0,1-4.332-.741,8.056,8.056,0,0,1-3.033-2.059,8.422,8.422,0,0,1-1.768-3.1A12.7,12.7,0,0,1,0,4.045M12.672,2.1A5.754,5.754,0,0,0,12.42.381a4.176,4.176,0,0,0-.741-1.409,3.531,3.531,0,0,0-1.192-.939,3.794,3.794,0,0,0-1.678-.343,3.9,3.9,0,0,0-1.77.38,4.013,4.013,0,0,0-1.281.992A4.542,4.542,0,0,0,4.945.472a7.568,7.568,0,0,0-.4,1.624Z" transform="translate(0 5.955)" fill="#fff"></path></g><g id="Group_6" data-name="Group 6" transform="translate(98.677 62.755)"><path id="Path_6" data-name="Path 6" d="M4.352,1.752a13.815,13.815,0,0,0-1.5-.38,11.131,11.131,0,0,0-2.22-.2A8.83,8.83,0,0,0-.9,1.319a9.433,9.433,0,0,0-1.137.252V16.7H-6.407V-1.28a24.194,24.194,0,0,1,3.159-.885A19.8,19.8,0,0,1,.958-2.58q.433,0,1.011.054c.385.037.771.086,1.155.144s.759.133,1.12.217.648.163.865.235Z" transform="translate(6.407 2.58)" fill="#fff"></path></g><g id="Group_7" data-name="Group 7" transform="translate(111.783 62.683)"><path id="Path_7" data-name="Path 7" d="M2.5,6.557a5.747,5.747,0,0,0,2.527-.415,1.475,1.475,0,0,0,.794-1.426A1.853,1.853,0,0,0,4.97,3.163a12.532,12.532,0,0,0-2.8-1.335A21.883,21.883,0,0,1-.012.906,7.406,7.406,0,0,1-1.726-.231,4.628,4.628,0,0,1-2.863-1.8,5.44,5.44,0,0,1-3.28-4.058a4.921,4.921,0,0,1,1.914-4.1,8.221,8.221,0,0,1,5.2-1.5,15.97,15.97,0,0,1,3.177.307,15.433,15.433,0,0,1,2.275.6L8.49-5.213a10.685,10.685,0,0,0-1.842-.594,11.073,11.073,0,0,0-2.6-.272,4.519,4.519,0,0,0-2.165.452,1.483,1.483,0,0,0-.831,1.39,1.987,1.987,0,0,0,.163.83,1.756,1.756,0,0,0,.559.668,5.76,5.76,0,0,0,1.048.615,16.456,16.456,0,0,0,1.589.631A24.181,24.181,0,0,1,7.046-.357,7.13,7.13,0,0,1,8.833.906,4.346,4.346,0,0,1,9.862,2.513a6.425,6.425,0,0,1,.324,2.166,4.665,4.665,0,0,1-2,4.1,9.973,9.973,0,0,1-5.723,1.39,15.732,15.732,0,0,1-4.007-.415,20.84,20.84,0,0,1-2.129-.668l.757-3.646A19.863,19.863,0,0,0-.59,6.2,11.954,11.954,0,0,0,2.5,6.557" transform="translate(3.676 9.653)" fill="#fff"></path></g></g></svg> 