<svg width="449" height="90" viewBox="0 0 449 90" fill="none" xmlns="http://www.w3.org/2000/svg">
<path d="M104.85 79.7299C104.691 79.0469 104.413 78.3971 104.03 77.8099C103.665 77.2467 103.176 76.7746 102.6 76.4299C101.959 76.0617 101.229 75.8783 100.49 75.8999C99.7403 75.8652 98.9942 76.0225 98.3222 76.3567C97.6502 76.6909 97.0747 77.1911 96.65 77.8099C96.2525 78.3918 95.9676 79.0431 95.81 79.7299C95.4635 81.1592 95.4635 82.6506 95.81 84.0799C95.9658 84.7674 96.2508 85.419 96.65 85.9999C97.0747 86.6187 97.6502 87.119 98.3222 87.4532C98.9942 87.7874 99.7403 87.9446 100.49 87.9099C101.229 87.9316 101.959 87.7482 102.6 87.3799C103.176 87.0353 103.665 86.5632 104.03 85.9999C104.415 85.4135 104.692 84.7634 104.85 84.0799C105.197 82.6506 105.197 81.1592 104.85 79.7299ZM95.55 69.4499V77.5299H95.6C95.7713 77.0402 96.0362 76.5885 96.38 76.1999C96.7115 75.8075 97.103 75.47 97.54 75.1999C97.9807 74.9323 98.4595 74.7334 98.96 74.6099C100.408 74.255 101.934 74.3995 103.29 75.0199C104.07 75.403 104.753 75.9567 105.29 76.6399C105.83 77.3517 106.23 78.1592 106.47 79.0199C106.976 80.8896 106.976 82.8603 106.47 84.7299C106.23 85.5906 105.83 86.3981 105.29 87.1099C104.756 87.793 104.071 88.3439 103.29 88.7199C102.415 89.1305 101.456 89.3324 100.49 89.3099C99.413 89.327 98.3517 89.0505 97.42 88.5099C96.5318 88.0004 95.844 87.2032 95.47 86.2499H95.41V88.9199H93.83V69.4199L95.55 69.4499Z" fill="#93B4E4"/>
<path d="M118.79 88.9499V86.4099H118.74C118.314 87.3231 117.615 88.0813 116.74 88.5799C115.866 89.086 114.87 89.3452 113.86 89.3299C113.084 89.3495 112.312 89.2275 111.58 88.9699C110.99 88.7493 110.464 88.3849 110.05 87.9099C109.639 87.4302 109.345 86.8621 109.19 86.2499C108.992 85.52 108.898 84.766 108.91 84.0099V74.8999H110.63V84.0799C110.594 85.1158 110.908 86.1337 111.52 86.9699C111.898 87.3371 112.351 87.617 112.849 87.7898C113.347 87.9626 113.876 88.0241 114.4 87.9699C115.071 87.9928 115.735 87.8302 116.32 87.4999C116.845 87.1785 117.292 86.7447 117.63 86.2299C117.985 85.6708 118.242 85.0553 118.39 84.4099C118.559 83.7261 118.643 83.0242 118.64 82.3199V74.8999H120.36V88.9899L118.79 88.9499Z" fill="#93B4E4"/>
<path d="M131.2 77.5999C131.01 77.2088 130.733 76.8666 130.39 76.5999C130.042 76.3425 129.648 76.1526 129.23 76.0399C128.775 75.9263 128.309 75.8691 127.84 75.8699C127.447 75.8707 127.055 75.9109 126.67 75.9899C126.293 76.066 125.931 76.2046 125.6 76.3999C125.277 76.5818 125.002 76.8391 124.8 77.1499C124.59 77.4957 124.485 77.8955 124.5 78.2999C124.486 78.6559 124.587 79.0069 124.79 79.2999C124.987 79.5651 125.231 79.7922 125.51 79.9699C125.825 80.1584 126.16 80.3094 126.51 80.4199C126.86 80.5299 127.17 80.6299 127.51 80.6999L129.8 81.2199C130.3 81.3001 130.789 81.4342 131.26 81.6199C131.727 81.7996 132.163 82.0528 132.55 82.3699C132.927 82.6889 133.236 83.0799 133.46 83.5199C133.711 84.0187 133.834 84.5718 133.82 85.1299C133.837 85.8163 133.656 86.493 133.3 87.0799C132.962 87.6117 132.507 88.0596 131.97 88.3899C131.413 88.7357 130.801 88.9826 130.16 89.1199C129.503 89.2611 128.832 89.3348 128.16 89.3399C126.733 89.3951 125.328 88.9806 124.16 88.1599C123.613 87.6947 123.173 87.1172 122.869 86.4667C122.566 85.8162 122.406 85.1078 122.4 84.3899H124.12C124.122 84.8967 124.237 85.3966 124.457 85.8533C124.677 86.3099 124.995 86.7119 125.39 87.0299C126.227 87.6403 127.244 87.9535 128.28 87.9199C128.714 87.9157 129.146 87.8688 129.57 87.7799C130.009 87.6911 130.431 87.5324 130.82 87.3099C131.188 87.1026 131.509 86.8197 131.76 86.4799C132.011 86.1161 132.141 85.682 132.13 85.2399C132.132 84.8896 132.043 84.5447 131.87 84.2399C131.692 83.9541 131.453 83.7115 131.17 83.5299C130.861 83.3243 130.524 83.1627 130.17 83.0499C129.799 82.9202 129.422 82.8101 129.04 82.7199L126.83 82.2299C126.3 82.0929 125.779 81.9226 125.27 81.7199C124.823 81.5483 124.404 81.3088 124.03 81.0099C123.678 80.744 123.391 80.4022 123.19 80.0099C122.976 79.536 122.874 79.0195 122.89 78.4999C122.872 77.8566 123.039 77.2216 123.37 76.6699C123.68 76.1678 124.105 75.7463 124.61 75.4399C125.139 75.1208 125.717 74.8911 126.32 74.7599C126.933 74.6132 127.56 74.5394 128.19 74.5399C128.866 74.5329 129.54 74.6238 130.19 74.8099C130.78 74.9771 131.329 75.2667 131.8 75.6599C132.273 76.0427 132.653 76.5283 132.91 77.0799C133.203 77.7069 133.363 78.3879 133.38 79.0799H131.65C131.651 78.6015 131.541 78.1293 131.33 77.6999" fill="#93B4E4"/>
<path d="M135.7 88.95H137.42V74.9H135.7V88.95ZM135.7 72.21H137.42V69.45H135.7V72.21Z" fill="#93B4E4"/>
<path d="M141.93 74.9V77.33C142.264 76.4656 142.881 75.7397 143.68 75.27C144.507 74.7534 145.465 74.4828 146.44 74.49C147.28 74.4634 148.117 74.5923 148.91 74.87C149.526 75.0894 150.076 75.4609 150.51 75.95C150.926 76.4441 151.217 77.0304 151.36 77.66C151.527 78.4015 151.608 79.1599 151.6 79.92V88.99H149.93V80.2C149.935 79.6359 149.881 79.0729 149.77 78.52C149.674 78.031 149.477 77.5676 149.19 77.16C148.907 76.7704 148.528 76.4604 148.09 76.26C147.539 76.0327 146.946 75.9237 146.35 75.94C145.717 75.927 145.089 76.0533 144.51 76.31C143.986 76.5399 143.519 76.8811 143.14 77.31C142.754 77.7588 142.458 78.2784 142.27 78.84C142.053 79.4572 141.938 80.1057 141.93 80.76V88.98H140.21V74.9H141.93Z" fill="#93B4E4"/>
<path d="M164.09 79.04C163.894 78.4587 163.596 77.9169 163.21 77.44C162.826 76.9737 162.349 76.5923 161.81 76.32C161.227 76.0289 160.582 75.8847 159.93 75.9C159.276 75.8875 158.628 76.0315 158.04 76.32C157.504 76.5925 157.03 76.974 156.65 77.44C156.257 77.9222 155.946 78.4662 155.73 79.05C155.511 79.6539 155.363 80.2816 155.29 80.92H164.4C164.388 80.2792 164.273 79.6445 164.06 79.04M155.55 84.3C155.706 84.9423 155.988 85.5473 156.38 86.08C156.766 86.6166 157.26 87.0663 157.83 87.4C158.471 87.7587 159.196 87.9383 159.93 87.92C161.002 87.9797 162.056 87.6212 162.87 86.92C163.617 86.2165 164.133 85.303 164.35 84.3H166.07C165.81 85.7161 165.11 87.0142 164.07 88.01C162.909 88.9546 161.434 89.4261 159.94 89.33C158.948 89.353 157.963 89.1513 157.06 88.74C156.272 88.3746 155.585 87.8219 155.06 87.13C154.536 86.4153 154.153 85.6077 153.93 84.75C153.678 83.8212 153.553 82.8624 153.56 81.9C153.557 80.974 153.682 80.0521 153.93 79.16C154.156 78.3006 154.539 77.4903 155.06 76.77C155.587 76.0596 156.272 75.4811 157.06 75.08C157.953 74.6326 158.942 74.4128 159.94 74.44C160.946 74.4121 161.942 74.6464 162.83 75.12C163.612 75.5551 164.28 76.1683 164.78 76.91C165.295 77.682 165.661 78.5434 165.86 79.45C166.079 80.4036 166.17 81.3823 166.13 82.36H155.32C155.321 83.012 155.409 83.6609 155.58 84.29" fill="#93B4E4"/>
<path d="M176.05 77.5999C175.861 77.2113 175.588 76.8697 175.25 76.5999C174.898 76.3424 174.501 76.1525 174.08 76.0399C173.626 75.9256 173.159 75.8685 172.69 75.8699C172.3 75.8708 171.912 75.911 171.53 75.9899C171.15 76.0677 170.786 76.2062 170.45 76.3999C170.13 76.5821 169.859 76.8395 169.66 77.1499C169.45 77.4957 169.345 77.8955 169.36 78.2999C169.342 78.6549 169.44 79.006 169.64 79.2999C169.841 79.5653 170.088 79.7923 170.37 79.9699C170.67 80.1537 170.988 80.3046 171.32 80.4199C171.67 80.5299 171.99 80.6299 172.32 80.6999L174.62 81.2199C175.119 81.3017 175.609 81.4358 176.08 81.6199C176.544 81.7997 176.976 82.0529 177.36 82.3699C177.74 82.6885 178.053 83.0794 178.28 83.5199C178.537 84.0841 178.655 84.7014 178.625 85.3205C178.596 85.9396 178.419 86.5427 178.11 87.0799C177.775 87.6113 177.324 88.0593 176.79 88.3899C176.23 88.7358 175.614 88.9828 174.97 89.1199C174.313 89.2618 173.642 89.3355 172.97 89.3399C171.543 89.3981 170.137 88.9833 168.97 88.1599C168.423 87.6947 167.983 87.1172 167.679 86.4667C167.376 85.8162 167.215 85.1078 167.21 84.3899H168.93C168.93 84.897 169.044 85.3977 169.264 85.8547C169.484 86.3117 169.804 86.7133 170.2 87.0299C171.033 87.6416 172.047 87.9551 173.08 87.9199C173.517 87.9163 173.952 87.8694 174.38 87.7799C174.816 87.6911 175.235 87.5324 175.62 87.3099C175.99 87.1051 176.311 86.8218 176.56 86.4799C176.817 86.119 176.947 85.6828 176.93 85.2399C176.932 84.8896 176.843 84.5447 176.67 84.2399C176.495 83.9519 176.255 83.7088 175.97 83.5299C175.66 83.3258 175.323 83.1643 174.97 83.0499C174.596 82.9202 174.215 82.8101 173.83 82.7199L171.62 82.2299C171.09 82.0915 170.569 81.9212 170.06 81.7199C169.613 81.5483 169.194 81.3088 168.82 81.0099C168.474 80.7412 168.19 80.3999 167.99 80.0099C167.772 79.5375 167.669 79.0199 167.69 78.4999C167.674 77.8581 167.837 77.2245 168.16 76.6699C168.474 76.1674 168.902 75.746 169.41 75.4399C169.936 75.1225 170.51 74.8928 171.11 74.7599C171.726 74.6134 172.357 74.5396 172.99 74.5399C173.666 74.5329 174.34 74.6238 174.99 74.8099C175.579 74.9793 176.128 75.2687 176.6 75.6599C177.068 76.0457 177.443 76.5307 177.7 77.0799C177.993 77.7069 178.153 78.3879 178.17 79.0799H176.45C176.443 78.6013 176.33 78.1301 176.12 77.6999" fill="#93B4E4"/>
<path d="M188.64 77.5999C188.451 77.2113 188.178 76.8697 187.84 76.5999C187.49 76.3445 187.097 76.1547 186.68 76.0399C185.841 75.8318 184.966 75.8146 184.12 75.9899C183.74 76.0677 183.376 76.2062 183.04 76.3999C182.72 76.5821 182.449 76.8395 182.25 77.1499C182.04 77.4957 181.935 77.8955 181.95 78.2999C181.935 78.6559 182.037 79.0069 182.24 79.2999C182.437 79.5651 182.681 79.7922 182.96 79.9699C183.275 80.1584 183.61 80.3094 183.96 80.4199C184.3 80.5299 184.62 80.6299 184.91 80.6999L187.21 81.2199C187.71 81.3001 188.199 81.4342 188.67 81.6199C189.134 81.7997 189.566 82.0529 189.95 82.3699C190.333 82.6858 190.646 83.0773 190.87 83.5199C191.127 84.0841 191.245 84.7014 191.215 85.3205C191.186 85.9396 191.009 86.5427 190.7 87.0799C190.369 87.6142 189.917 88.063 189.38 88.3899C188.821 88.7375 188.205 88.9845 187.56 89.1199C186.903 89.2618 186.232 89.3355 185.56 89.3399C184.133 89.3966 182.728 88.9819 181.56 88.1599C181.013 87.6947 180.573 87.1172 180.269 86.4667C179.966 85.8162 179.805 85.1078 179.8 84.3899H181.52C181.52 84.897 181.634 85.3977 181.854 85.8547C182.074 86.3117 182.394 86.7133 182.79 87.0299C183.623 87.6402 184.637 87.9536 185.67 87.9199C186.107 87.9163 186.542 87.8694 186.97 87.7799C187.407 87.6933 187.826 87.5345 188.21 87.3099C188.582 87.1037 188.906 86.8208 189.16 86.4799C189.408 86.1149 189.534 85.6809 189.52 85.2399C189.527 84.889 189.437 84.5428 189.26 84.2399C189.089 83.9523 188.853 83.7091 188.57 83.5299C188.259 83.3265 187.923 83.1651 187.57 83.0499C187.19 82.9199 186.82 82.8099 186.44 82.7199L184.22 82.2299C183.693 82.0915 183.176 81.9212 182.67 81.7199C182.22 81.5483 181.798 81.3089 181.42 81.0099C181.074 80.7412 180.79 80.3999 180.59 80.0099C180.376 79.536 180.274 79.0195 180.29 78.4999C180.272 77.8566 180.439 77.2216 180.77 76.6699C181.08 76.1678 181.505 75.7463 182.01 75.4399C182.539 75.1208 183.117 74.8911 183.72 74.7599C184.333 74.6132 184.96 74.5394 185.59 74.5399C186.266 74.5329 186.94 74.6238 187.59 74.8099C188.18 74.9771 188.729 75.2667 189.2 75.6599C189.67 76.0453 190.05 76.5303 190.31 77.0799C190.595 77.7094 190.751 78.3893 190.77 79.0799H188.93C188.923 78.6013 188.81 78.1301 188.6 77.6999" fill="#93B4E4"/>
<path d="M207 76.8001C206.258 76.1629 205.296 75.8401 204.32 75.9001C203.567 75.8831 202.823 76.0623 202.16 76.4201C201.554 76.7567 201.029 77.2207 200.62 77.7801C200.2 78.3643 199.885 79.0175 199.69 79.7101C199.277 81.1443 199.277 82.6659 199.69 84.1001C199.885 84.7928 200.2 85.4459 200.62 86.0301C201.029 86.5925 201.554 87.0598 202.16 87.4001C202.825 87.7498 203.568 87.9253 204.32 87.9101C204.839 87.9171 205.353 87.8149 205.83 87.6101C206.296 87.4169 206.721 87.1351 207.08 86.7801C207.457 86.417 207.762 85.9862 207.98 85.5101C208.225 85.0054 208.375 84.4594 208.42 83.9001H210.14C210 85.4121 209.335 86.8273 208.26 87.9001C207.187 88.8789 205.771 89.3962 204.32 89.3401C203.338 89.357 202.365 89.1554 201.47 88.7501C200.663 88.378 199.95 87.8316 199.38 87.1501C198.801 86.4542 198.363 85.6528 198.09 84.7901C197.516 82.9095 197.516 80.9007 198.09 79.0201C198.363 78.1574 198.801 77.356 199.38 76.6601C199.953 75.9797 200.666 75.4306 201.47 75.0501C202.362 74.6368 203.337 74.4316 204.32 74.4501C205.698 74.4083 207.051 74.8309 208.16 75.6501C208.705 76.0941 209.152 76.6456 209.473 77.2702C209.795 77.8948 209.985 78.579 210.03 79.2801H208.31C208.138 78.3387 207.68 77.473 207 76.8001Z" fill="#93B4E4"/>
<path d="M221.79 79.0401C221.594 78.4566 221.293 77.9141 220.9 77.4401C220.522 76.9719 220.048 76.5901 219.51 76.3201C218.937 76.0303 218.302 75.8828 217.66 75.8901C217.005 75.8795 216.356 76.027 215.77 76.3201C215.232 76.5901 214.758 76.9719 214.38 77.4401C213.983 77.9198 213.672 78.4645 213.46 79.0501C213.232 79.6519 213.08 80.2803 213.01 80.9201H222.14C222.116 80.2797 221.998 79.6464 221.79 79.0401ZM213.27 84.3001C213.431 84.9408 213.713 85.5449 214.1 86.0801C214.488 86.6144 214.982 87.0636 215.55 87.4001C216.35 87.8093 217.249 87.9824 218.143 87.8992C219.038 87.816 219.89 87.4798 220.6 86.9301C221.342 86.2225 221.857 85.3106 222.08 84.3101H223.8C223.544 85.7276 222.843 87.0269 221.8 88.0201C220.639 88.9648 219.164 89.4362 217.67 89.3401C216.674 89.3643 215.686 89.1626 214.78 88.7501C213.992 88.3848 213.305 87.832 212.78 87.1401C212.256 86.4254 211.873 85.6178 211.65 84.7601C211.398 83.8313 211.273 82.8725 211.28 81.9101C211.278 80.9842 211.403 80.0623 211.65 79.1701C211.876 78.3107 212.259 77.5004 212.78 76.7801C213.307 76.0697 213.992 75.4912 214.78 75.0901C215.676 74.6416 216.669 74.4217 217.67 74.4501C218.676 74.4184 219.673 74.653 220.56 75.1301C221.34 75.5679 222.007 76.1806 222.51 76.9201C223.025 77.6921 223.391 78.5536 223.59 79.4601C223.81 80.4136 223.901 81.3924 223.86 82.3701H213.01C213.016 83.0217 213.103 83.6701 213.27 84.3001Z" fill="#93B4E4"/>
<path d="M227.32 74.9V77.33H227.38C227.714 76.4657 228.331 75.7397 229.13 75.27C229.956 74.7508 230.914 74.4801 231.89 74.49C232.73 74.4644 233.567 74.5932 234.36 74.87C234.958 75.0839 235.496 75.437 235.93 75.9C236.346 76.3925 236.634 76.9797 236.77 77.61C236.946 78.3502 237.03 79.1093 237.02 79.87V88.94H235.33V80.15C235.333 79.5856 235.276 79.0225 235.16 78.47C235.063 77.983 234.869 77.5205 234.59 77.11C234.305 76.7178 233.923 76.4074 233.48 76.21C232.933 75.9818 232.343 75.8727 231.75 75.89C231.117 75.876 230.488 76.0024 229.91 76.26C229.385 76.4873 228.917 76.829 228.54 77.26C228.15 77.7081 227.851 78.2278 227.66 78.79C227.451 79.4094 227.337 80.0566 227.32 80.71V88.93H225.6V74.9H227.32Z" fill="#93B4E4"/>
<path d="M245.35 74.8999V76.3399H242.48V85.8499C242.458 86.3057 242.54 86.7606 242.72 87.1799C242.87 87.4999 243.26 87.6699 243.88 87.7099C244.371 87.7082 244.862 87.6815 245.35 87.6299V89.0699C245.1 89.0699 244.84 89.0699 244.59 89.0699C244.34 89.0699 244.08 89.0699 243.82 89.0699C243.39 89.1735 242.941 89.1634 242.516 89.0408C242.091 88.9182 241.705 88.6872 241.397 88.3705C241.088 88.0538 240.867 87.6623 240.755 87.2344C240.644 86.8066 240.645 86.357 240.76 85.9299V76.2999H238.3V74.8999H240.76V70.6599H242.48V74.8999H245.35Z" fill="#93B4E4"/>
<path d="M257.09 79.04C256.89 78.4582 256.589 77.9165 256.2 77.44C255.82 76.974 255.346 76.5925 254.81 76.32C254.227 76.0289 253.582 75.8848 252.93 75.9C252.275 75.8906 251.627 76.038 251.04 76.33C250.504 76.6025 250.03 76.9839 249.65 77.45C249.257 77.9322 248.946 78.4762 248.73 79.06C248.511 79.6646 248.36 80.2919 248.28 80.93H257.41C257.389 80.2901 257.274 79.6567 257.07 79.05M248.54 84.31C248.705 84.9512 248.99 85.5553 249.38 86.09C249.764 86.624 250.255 87.0734 250.82 87.41C251.631 87.8249 252.544 87.9974 253.45 87.907C254.356 87.8165 255.217 87.4669 255.93 86.9C256.669 86.1914 257.18 85.2796 257.4 84.28H259.12C258.86 85.6964 258.161 86.9947 257.12 87.99C255.953 88.9318 254.476 89.4027 252.98 89.31C251.985 89.3321 250.997 89.1305 250.09 88.72C249.304 88.3519 248.618 87.7996 248.09 87.11C247.574 86.3908 247.191 85.5847 246.96 84.73C246.713 83.8002 246.588 82.8421 246.59 81.88C246.593 80.9544 246.717 80.0332 246.96 79.14C247.195 78.2837 247.577 77.4749 248.09 76.75C248.619 76.0418 249.303 75.4638 250.09 75.06C250.987 74.6138 251.979 74.394 252.98 74.42C253.986 74.3874 254.984 74.622 255.87 75.1C256.65 75.5378 257.317 76.1505 257.82 76.89C258.339 77.6598 258.706 78.5221 258.9 79.43C259.118 80.3839 259.212 81.362 259.18 82.34H248.3C248.306 82.9916 248.393 83.64 248.56 84.27" fill="#93B4E4"/>
<path d="M262.51 74.9V78.21H262.56C262.934 77.1395 263.633 76.2128 264.56 75.56C265.535 74.926 266.69 74.6275 267.85 74.71V76.43C267.125 76.3874 266.4 76.4964 265.72 76.75C265.101 76.9768 264.538 77.335 264.07 77.8C263.597 78.2551 263.228 78.8079 262.99 79.42C262.726 80.0743 262.593 80.7743 262.6 81.48V88.99H260.93V74.9H262.51Z" fill="#93B4E4"/>
<path d="M277.09 77.5999C276.901 77.2113 276.628 76.8697 276.29 76.5999C275.942 76.3425 275.548 76.1526 275.13 76.0399C274.672 75.9256 274.202 75.8685 273.73 75.8699C273.34 75.8713 272.952 75.9114 272.57 75.9899C272.193 76.066 271.831 76.2046 271.5 76.3999C271.177 76.5818 270.902 76.8391 270.7 77.1499C270.491 77.4926 270.387 77.8888 270.4 78.2899C270.386 78.6458 270.488 78.9966 270.69 79.2899C270.887 79.5552 271.131 79.7822 271.41 79.9599C271.725 80.1483 272.06 80.2994 272.41 80.4099C272.75 80.5199 273.07 80.6199 273.36 80.6899L275.66 81.2099C276.16 81.2901 276.649 81.4242 277.12 81.6099C277.584 81.7896 278.016 82.0429 278.4 82.3599C278.783 82.6758 279.096 83.0673 279.32 83.5099C279.567 84.0096 279.688 84.5626 279.67 85.1199C279.69 85.8053 279.513 86.482 279.16 87.0699C278.822 87.6017 278.367 88.0497 277.83 88.3799C277.273 88.7257 276.661 88.9726 276.02 89.1099C275.363 89.2511 274.692 89.3248 274.02 89.3299C272.593 89.3866 271.188 88.9719 270.02 88.1499C269.473 87.6847 269.033 87.1072 268.729 86.4567C268.426 85.8061 268.266 85.0978 268.26 84.3799H269.93C269.932 84.8867 270.047 85.3866 270.267 85.8432C270.487 86.2999 270.805 86.7019 271.2 87.0199C272.034 87.6288 273.048 87.9421 274.08 87.9099C274.517 87.9063 274.952 87.8594 275.38 87.7699C275.817 87.6833 276.236 87.5245 276.62 87.2999C276.993 87.0952 277.317 86.8121 277.57 86.4699C277.818 86.105 277.944 85.6709 277.93 85.2299C277.935 84.8805 277.849 84.5357 277.68 84.2299C277.5 83.9432 277.262 83.6979 276.98 83.5099C276.667 83.3138 276.331 83.156 275.98 83.0399C275.609 82.9102 275.232 82.8001 274.85 82.7099L272.64 82.2199C272.11 82.083 271.589 81.9126 271.08 81.7099C270.632 81.5405 270.213 81.3008 269.84 80.9999C269.488 80.734 269.201 80.3922 269 79.9999C268.786 79.526 268.684 79.0095 268.7 78.4899C268.682 77.8466 268.849 77.2116 269.18 76.6599C269.49 76.1578 269.915 75.7363 270.42 75.4299C270.949 75.1108 271.527 74.8811 272.13 74.7499C272.743 74.6032 273.37 74.5294 274 74.5299C274.676 74.5228 275.35 74.6138 276 74.7999C276.59 74.9671 277.139 75.2567 277.61 75.6499C278.083 76.0326 278.463 76.5183 278.72 77.0699C279.01 77.6976 279.167 78.3786 279.18 79.0699H277.46C277.453 78.5913 277.34 78.1201 277.13 77.6899" fill="#93B4E4"/>
<path d="M59.2 1H48.05V57.03H59.2V1Z" fill="#3D4975"/>
<path d="M89.93 38.1601C89.1837 38.4064 88.4221 38.6034 87.65 38.7501C86.8367 38.9101 85.9867 39.0401 85.1 39.1401C84.2134 39.2401 83.3234 39.3701 82.43 39.5301C81.5946 39.6894 80.7697 39.8998 79.96 40.1601C79.2026 40.4012 78.4873 40.7588 77.84 41.2201C77.2395 41.6712 76.7446 42.248 76.39 42.9101C75.9934 43.714 75.8043 44.6044 75.84 45.5001C75.8105 46.3696 75.9996 47.2326 76.39 48.0101C76.7357 48.669 77.2498 49.2246 77.88 49.6201C78.5546 50.0309 79.3012 50.3092 80.08 50.4401C80.9338 50.602 81.801 50.6824 82.67 50.6801C84.4379 50.778 86.1996 50.398 87.77 49.5801C88.871 48.9471 89.7905 48.0414 90.44 46.9501C90.9918 45.9956 91.3518 44.9426 91.5 43.8501C91.613 43.018 91.6764 42.1798 91.69 41.3401V37.1801C91.1766 37.6284 90.5779 37.9685 89.93 38.1801M67.93 22.4501C69.0562 20.7426 70.5621 19.3189 72.33 18.2901C74.1889 17.2093 76.2177 16.4519 78.33 16.0501C80.5394 15.608 82.7868 15.3836 85.04 15.3801C87.1139 15.3857 89.1852 15.5293 91.24 15.8101C93.2265 16.0712 95.1599 16.6414 96.97 17.5001C98.6486 18.2975 100.105 19.4961 101.21 20.9901C102.385 22.7371 102.964 24.8172 102.86 26.9201V48.0301C102.854 49.7882 102.958 51.5449 103.17 53.2901C103.274 54.6091 103.648 55.8925 104.27 57.0601H92.93C92.7191 56.4283 92.5487 55.7837 92.42 55.1301C92.2904 54.4691 92.1969 53.8014 92.14 53.1301C90.4147 54.9298 88.2555 56.2555 85.87 56.9801C83.4778 57.7091 80.9908 58.0798 78.49 58.0801C76.6594 58.0926 74.8357 57.8537 73.07 57.3701C71.4733 56.9403 69.98 56.192 68.68 55.1701C67.4116 54.1677 66.4032 52.8746 65.74 51.4001C64.9929 49.6967 64.631 47.8495 64.68 45.9901C64.6043 44.0224 65.0202 42.0668 65.89 40.3001C66.6405 38.8792 67.7165 37.6559 69.03 36.7301C70.3666 35.8144 71.852 35.1377 73.42 34.7301C75.0656 34.2838 76.7349 33.9299 78.42 33.6701C80.0867 33.4101 81.7367 33.2001 83.37 33.0401C84.8223 32.9109 86.263 32.6735 87.68 32.3301C88.7699 32.1036 89.7951 31.6355 90.68 30.9601C91.049 30.6369 91.3331 30.2281 91.5075 29.7696C91.6818 29.3111 91.7411 28.8168 91.68 28.3301C91.7292 27.3422 91.5261 26.358 91.09 25.4701C90.7281 24.7897 90.1891 24.2196 89.53 23.8201C88.8281 23.4121 88.0539 23.1438 87.25 23.0301C86.3261 22.8974 85.3935 22.8338 84.46 22.8401C82.6264 22.7382 80.809 23.2329 79.28 24.2501C78.6002 24.8336 78.053 25.5557 77.6752 26.3681C77.2975 27.1804 77.098 28.0643 77.09 28.9601H65.93C66.0035 26.6505 66.694 24.4026 67.93 22.4501Z" fill="#3D4975"/>
<path d="M129.28 23.7599C127.701 23.7031 126.142 24.1287 124.81 24.9799C123.608 25.7902 122.604 26.8598 121.87 28.1099C121.099 29.4227 120.555 30.8562 120.26 32.3499C119.952 33.8607 119.795 35.3982 119.79 36.9399C119.796 38.4453 119.953 39.9462 120.26 41.4199C120.543 42.867 121.06 44.2585 121.79 45.5399C122.493 46.7515 123.473 47.7795 124.65 48.5399C125.97 49.3546 127.5 49.7648 129.05 49.7199C130.176 49.7921 131.304 49.6303 132.364 49.2448C133.425 48.8592 134.394 48.2583 135.21 47.4799C136.728 45.8186 137.677 43.717 137.92 41.4799H148.67C147.937 46.8799 145.843 50.9899 142.39 53.8099C138.937 56.6299 134.517 58.0432 129.13 58.0499C126.271 58.0828 123.432 57.5633 120.77 56.5199C118.336 55.5646 116.131 54.1062 114.3 52.2399C112.488 50.356 111.07 48.1291 110.13 45.6899C109.115 43.0208 108.61 40.1852 108.64 37.3299C108.613 34.357 109.079 31.4002 110.02 28.5799C110.852 25.9939 112.215 23.6098 114.02 21.5799C115.832 19.597 118.054 18.031 120.53 16.9899C123.317 15.8479 126.308 15.2865 129.32 15.3399C131.669 15.3347 134.007 15.651 136.27 16.2799C138.426 16.8687 140.458 17.8409 142.27 19.1499C144.118 20.4769 145.635 22.2119 146.703 24.2202C147.771 26.2286 148.362 28.4561 148.43 30.7299H137.53C136.79 26.0699 134.05 23.7299 129.28 23.7299" fill="#3D4975"/>
<path d="M177.93 25.9599C176.597 24.4866 174.57 23.7533 171.85 23.7599C170.323 23.7061 168.805 24.0145 167.42 24.6599C166.326 25.1941 165.361 25.9582 164.59 26.8999C163.917 27.7356 163.411 28.693 163.1 29.7199C162.834 30.589 162.663 31.4842 162.59 32.3899H180.72C180.407 30.0285 179.441 27.8014 177.93 25.9599ZM165.31 47.2999C166.977 48.9266 169.383 49.7399 172.53 49.7399C174.595 49.7901 176.624 49.1997 178.34 48.0499C179.719 47.2378 180.777 45.9778 181.34 44.4799H191.15C189.57 49.3533 187.163 52.8266 183.93 54.8999C180.393 57.072 176.299 58.1634 172.15 58.04C169.202 58.0831 166.273 57.5638 163.52 56.5099C161.056 55.5522 158.833 54.0637 157.01 52.1499C155.191 50.2041 153.789 47.9071 152.89 45.3999C151.895 42.633 151.404 39.7101 151.44 36.7699C151.411 33.8757 151.916 31.001 152.93 28.29C153.863 25.7599 155.306 23.4487 157.17 21.4999C159.028 19.5712 161.255 18.0373 163.72 16.9899C166.386 15.865 169.256 15.3032 172.15 15.3399C175.267 15.2709 178.355 15.9571 181.15 17.3399C183.644 18.6208 185.807 20.4623 187.47 22.7199C189.147 25.0276 190.36 27.6394 191.04 30.4099C191.773 33.35 192.036 36.3876 191.82 39.4099H162.56C162.72 43.0199 163.63 45.6299 165.31 47.2499" fill="#3D4975"/>
<path d="M194.62 23.9V16.44H201.29V13.3C201.231 11.6705 201.5 10.0458 202.08 8.52217C202.661 6.99852 203.542 5.60695 204.67 4.42998C206.923 2.12998 210.323 0.97998 214.87 0.97998C215.87 0.97998 216.87 0.979976 217.87 1.09998C218.87 1.21998 219.87 1.23998 220.78 1.28998V9.60997C219.425 9.45577 218.063 9.379 216.7 9.37999C216.113 9.32125 215.52 9.38514 214.959 9.56761C214.397 9.75008 213.88 10.0471 213.44 10.44C212.679 11.4667 212.323 12.7375 212.44 14.01V16.44H220.13V23.9H212.44V57.02H201.29V23.9H194.62Z" fill="#3D4975"/>
<path d="M231.93 41.5401C232.214 43.0117 232.76 44.4205 233.54 45.7001C234.279 46.9154 235.31 47.9262 236.54 48.6401C237.984 49.4194 239.61 49.7991 241.25 49.7401C242.899 49.794 244.533 49.4147 245.99 48.6401C247.244 47.9335 248.3 46.9224 249.06 45.7001C249.833 44.4179 250.374 43.0098 250.66 41.5401C250.978 39.977 251.136 38.3853 251.13 36.7901C251.135 35.1817 250.977 33.5769 250.66 32.0001C250.385 30.5274 249.843 29.1175 249.06 27.8401C248.286 26.6291 247.233 25.6209 245.99 24.9001C244.542 24.098 242.904 23.7039 241.25 23.7601C239.714 23.6851 238.186 24.0242 236.826 24.742C235.467 25.4598 234.325 26.5298 233.52 27.8401C232.737 29.1163 232.198 30.5269 231.93 32.0001C231.613 33.5769 231.455 35.1817 231.46 36.7901C231.454 38.3853 231.612 39.977 231.93 41.5401ZM221.8 27.9601C222.705 25.4467 224.14 23.1578 226.009 21.2493C227.878 19.3407 230.136 17.8573 232.63 16.9001C235.386 15.8445 238.319 15.3252 241.27 15.3701C244.227 15.3302 247.165 15.8493 249.93 16.9001C252.421 17.8551 254.68 19.3275 256.56 21.2201C258.433 23.1461 259.878 25.4464 260.8 27.9701C261.824 30.7998 262.329 33.7911 262.29 36.8001C262.33 39.7962 261.825 42.7747 260.8 45.5901C259.868 48.097 258.424 50.3823 256.56 52.3001C254.683 54.1839 252.421 55.6404 249.93 56.5701C247.157 57.599 244.217 58.1042 241.26 58.0601C238.312 58.1077 235.382 57.6023 232.62 56.5701C230.144 55.6325 227.897 54.1767 226.03 52.3001C224.163 50.3848 222.718 48.0989 221.79 45.5901C220.764 42.7747 220.26 39.7962 220.3 36.8001C220.261 33.7911 220.766 30.7998 221.79 27.9701" fill="#3D4975"/>
<path d="M278.54 16.4599V23.9899H278.7C279.228 22.7268 279.942 21.5503 280.82 20.4999C281.7 19.4411 282.731 18.5178 283.88 17.7599C285.023 17.0033 286.265 16.4077 287.57 15.9899C288.889 15.5685 290.265 15.3559 291.65 15.3599C292.474 15.3747 293.292 15.506 294.08 15.7499V26.1099C293.56 26.0099 292.93 25.9199 292.2 25.8399C291.496 25.7615 290.788 25.7214 290.08 25.7199C288.3 25.6605 286.53 26.0023 284.9 26.7199C283.548 27.3509 282.376 28.31 281.49 29.5099C280.597 30.7417 279.967 32.1442 279.64 33.6299C279.265 35.3038 279.081 37.0146 279.09 38.7299V57.0199H267.93V16.4599H278.54Z" fill="#3D4975"/>
<path d="M359.2 16.46H348.06V57.03H359.2V16.46Z" fill="#3D4975"/>
<path d="M387.77 24.86H368.23V16.46H402.44V24.86L381.33 48.64H403.94V57.03H366.66V48.64L387.77 24.86Z" fill="#3D4975"/>
<path d="M412.89 16.46V24.86H432.43L411.31 48.64V57.03H448.6V48.64H425.99L447.1 24.86V16.46H412.89Z" fill="#3D4975"/>
<path d="M324.73 15.4C319.55 15.4 314.38 17.28 311.55 21.4H311.38V1H299.93V33.8C303.335 34.1322 306.742 33.1878 309.49 31.15C311.4 29.73 311.09 29.87 313.59 27.15C314.511 26.1435 315.623 25.3293 316.86 24.7543C318.098 24.1794 319.437 23.855 320.8 23.8C327.6 23.72 330.59 30 330.59 36.8C330.59 43.28 327.83 49.23 321.59 49.71V57.95C322.638 58.0786 323.694 58.1454 324.75 58.15C333.09 58.15 342.07 51.64 342.07 36.72C342.07 21.8 333.07 15.37 324.75 15.37" fill="#3D4975"/>
<path d="M311.17 46.0601H299.82V57.1401H311.17V46.0601Z" fill="#3D4975"/>
<path d="M24.93 58.1599C19.76 58.1599 14.58 56.2799 11.75 52.1599H11.58V72.5699H0.0800171V39.7599C3.48356 39.4267 6.88976 40.3674 9.64003 42.3999C11.55 43.8299 11.24 43.6899 13.74 46.3999C14.6606 47.4073 15.7719 48.222 17.0095 48.7971C18.2471 49.3721 19.5864 49.696 20.95 49.7499C27.75 49.8299 30.74 43.5499 30.74 36.7499C30.74 30.2699 27.97 24.3199 21.74 23.8399V15.5999C22.7885 15.4713 23.8437 15.4045 24.9 15.3999C33.24 15.3999 42.22 21.9099 42.22 36.8299C42.22 51.7499 33.22 58.1799 24.9 58.1799" fill="#3D4975"/>
<path d="M11.35 16.4199H0V27.5099H11.35V16.4199Z" fill="#3D4975"/>
<path d="M403.81 68.0801H348.03V79.2301H403.81V68.0801Z" fill="#93B4E4"/>
</svg>
