<svg id="Group_155" data-name="Group 155" xmlns="http://www.w3.org/2000/svg" width="267.304" height="94.02" viewBox="0 0 267.304 94.02">
  <g id="Group_127" data-name="Group 127" transform="translate(0 62.499)">
    <path id="Path_1002" data-name="Path 1002" d="M1048.407,340.9a2.781,2.781,0,0,0-.626-.518,5.329,5.329,0,0,0-1.458-.737l-.361-.072a13.383,13.383,0,0,1-1.745-.326c-2.619-.554-4.11-.971-4.488-1.582-.173-.28-.166-.691.023-1.415.42-1.6,2.826-3.3,6.456-3.3a4.639,4.639,0,0,1,1.582.158l.364.122.939-2.035-.554-.092a10.319,10.319,0,0,0-1.686-.186h0c-3.683-.088-6.8,1.126-8.319,3.259a4.542,4.542,0,0,0-.84,3.829,3.438,3.438,0,0,0,1.995,2.223,6.024,6.024,0,0,0,1.746.582l1.487.257c2.558.439,2.558.439,3.366.879,1.125.564,1.535,1.778,1.218,3.6-.541,2.7-3.489,5.355-8.891,5.17a9.907,9.907,0,0,1-1.467-.174l-.323-.054-.925,2,.581.074a2.879,2.879,0,0,1,.655.149l.126.126h.577l.361.09h.5l.258,0c5.584,0,9.852-2.808,10.656-7.03C1050.194,343.21,1049.272,341.687,1048.407,340.9Z" transform="translate(-885.382 -328.474)" fill="#312783"/>
    <path id="Path_1003" data-name="Path 1003" d="M1064.657,348.856l-.715,1.609c-.024.048-.048.1-.073.158a1.283,1.283,0,0,1-.209.364l-.106.15a3.9,3.9,0,0,1-1.094,1.333l-.041.031a.676.676,0,0,1-.584.2.56.56,0,0,1-.358-.371,3.973,3.973,0,0,1-.107-.815c-.014-.17-.031-.375-.052-.586V337.842H1059.2v12.093a6.629,6.629,0,0,0,.091,1.2c.113,1.692.5,2.746,1.214,3.318a2.263,2.263,0,0,0,1.466.474,3.9,3.9,0,0,0,.611-.051,3.837,3.837,0,0,0,2.361-1.794,7.127,7.127,0,0,0,.674-1.151l.648-1.57,2.789-6.215V354.7h2.033V337.08l-1.394.8Z" transform="translate(-893.104 -330.519)" fill="#312783"/>
    <path id="Path_1004" data-name="Path 1004" d="M1085.787,349.647l-.253.682L1085,351.4c-.518.949-.8,1.178-1.076,1.233-.448.1-.625.017-.717-.057-.315-.251-.475-1.034-.475-2.327V337.8H1080.7v12.454c0,1.906.444,3.23,1.32,3.936a2.9,2.9,0,0,0,2.545.461l.045-.012a4.226,4.226,0,0,0,2.426-2.492c1.4-3.129,2.77-6.248,3.609-8.16v7.985c0,4.562-2.18,7.365-6.134,7.892a7.56,7.56,0,0,1-1.974,0l-.357-.045-.62,2.015.515.058a13.794,13.794,0,0,0,1.531.107,6.082,6.082,0,0,0,1.2-.108c5.079-.684,7.876-4.367,7.876-10.37V336.942l-1.383.594Z" transform="translate(-900.231 -330.473)" fill="#312783"/>
    <path id="Path_1005" data-name="Path 1005" d="M1112.305,335.29c0,6.542-1.785,11.577-4.769,13.467a3.526,3.526,0,0,1-3.139.435,3.085,3.085,0,0,1-1.831-2.1c-.854-2.718.531-6.951,4.784-9.448a10.26,10.26,0,0,1,4.169-1.389l.3-.035.468-2.024-.569.03a10.794,10.794,0,0,0-5.063,1.587c-4.618,2.487-7.274,7.516-6.181,11.69a5.28,5.28,0,0,0,2.956,3.706,4.861,4.861,0,0,0,1.931.4,5.982,5.982,0,0,0,2.964-.839,9.183,9.183,0,0,0,3.891-4.746v5.247h2.215v-24h-2.124Z" transform="translate(-906.705 -327.266)" fill="#312783"/>
    <path id="Path_1006" data-name="Path 1006" d="M1125.871,348.935a10.538,10.538,0,0,0,7.6-2.748,6.436,6.436,0,0,0,2.055-4.552,3.855,3.855,0,0,0-1.436-3.143,4.528,4.528,0,0,0-3.982-.618c-2.686.7-5.187,3.184-6.523,6.48a12.192,12.192,0,0,0-.756,2.639c-.416,2.636.146,4.856,1.584,6.251a5.907,5.907,0,0,0,4.226,1.549,9.5,9.5,0,0,0,1.76-.172,22.408,22.408,0,0,0,2.754-.826,6.465,6.465,0,0,0,.78-.294l.358-.179-.759-1.823-1.644.578-.542.18-.057.023a4.068,4.068,0,0,1-1.078.327,4.57,4.57,0,0,1-4.249-.758,4.722,4.722,0,0,1-1.057-4.191v1.277Zm.288-5.006a8,8,0,0,1,4.438-3.958,2.589,2.589,0,0,1,2.248.249,1.813,1.813,0,0,1,.65,1.506c0,2.55-2.526,5.179-7.346,5.267h-1.136A10.668,10.668,0,0,1,1126.159,343.929Z" transform="translate(-914.153 -330.718)" fill="#312783"/>
    <path id="Path_1007" data-name="Path 1007" d="M1152.667,342.457v-1.574a3.658,3.658,0,0,0-1.2-2.812,2.289,2.289,0,0,0-1.983-.273c-1.027.342-1.618,1.147-2.263,3.081l-1.513,4.811v-7.734h-2.123V355.5l1.4-.4,4.221-13.583c.345-.951.5-1.328.759-1.522l.046-.04a.308.308,0,0,1,.241-.112.126.126,0,0,1,.093.047l.054.065a4.1,4.1,0,0,1,.236,1.234V343.4Z" transform="translate(-921.075 -330.723)" fill="#312783"/>
    <path id="Path_1008" data-name="Path 1008" d="M1176.286,352.077l-.543.18-.056.023a4.115,4.115,0,0,1-1.078.327,4.571,4.571,0,0,1-4.249-.758,4.722,4.722,0,0,1-1.058-4.194v1.28h.965a10.526,10.526,0,0,0,7.6-2.748,6.439,6.439,0,0,0,2.054-4.552,3.858,3.858,0,0,0-1.436-3.143,4.528,4.528,0,0,0-3.984-.618c-2.685.7-5.186,3.184-6.522,6.48a12.166,12.166,0,0,0-.755,2.639c-.011.074-.015.145-.025.219-.2-1.529-1.175-2.513-3.012-3.085a1.889,1.889,0,0,0-.438-.118,2.1,2.1,0,0,1-.3-.069l-.068-.017c-2.087-.334-3.417-.56-3.573-.638a.932.932,0,0,0-.214-.186.848.848,0,0,1-.218-.644,2.005,2.005,0,0,1,.836-1.461,7.628,7.628,0,0,1,4.908-1.1,2.081,2.081,0,0,1,.356.045,2.06,2.06,0,0,0,.369.046h.341l.443-1.919-.409-.1a4.771,4.771,0,0,0-1.189-.1h-.723c-4.168,0-6.468,2.007-6.836,3.851a3.076,3.076,0,0,0,.219,2.492,2.826,2.826,0,0,0,2.031,1.11l.767.118c2.762.423,2.928.449,3.618.832a2.048,2.048,0,0,1,1.02,1.55,3.688,3.688,0,0,1-1.2,3.091,8.021,8.021,0,0,1-5.854,1.964,6.59,6.59,0,0,1-1.362-.172l-.38-.076-.609,1.979.44.11a8.926,8.926,0,0,0,1.5.221c.2.017.405.035.635.061l.047,0c5.3,0,8.209-2.855,8.738-5.677.015-.071.024-.139.037-.21a6.061,6.061,0,0,0,1.7,4.138,5.907,5.907,0,0,0,4.226,1.549,9.505,9.505,0,0,0,1.76-.172,22.487,22.487,0,0,0,2.755-.826,6.535,6.535,0,0,0,.779-.294l.359-.179-.759-1.823Zm-5.731-8.148a8,8,0,0,1,4.438-3.958,2.587,2.587,0,0,1,2.247.249,1.814,1.814,0,0,1,.65,1.506c0,2.55-2.525,5.179-7.346,5.267h-1.136A10.642,10.642,0,0,1,1170.555,343.929Z" transform="translate(-925.097 -330.718)" fill="#312783"/>
    <path id="Path_1009" data-name="Path 1009" d="M1200.59,352.077l-.542.18-.057.023a4.105,4.105,0,0,1-1.078.327,4.568,4.568,0,0,1-4.248-.758,4.72,4.72,0,0,1-1.058-4.191v1.277h.964a10.494,10.494,0,0,0,7.6-2.748,6.436,6.436,0,0,0,2.055-4.552,3.858,3.858,0,0,0-1.435-3.143,4.527,4.527,0,0,0-3.983-.618c-2.686.7-5.187,3.184-6.523,6.48a12.177,12.177,0,0,0-.755,2.639c-.417,2.636.145,4.856,1.583,6.251a5.908,5.908,0,0,0,4.226,1.549,9.5,9.5,0,0,0,1.76-.172,22.477,22.477,0,0,0,2.754-.826,6.549,6.549,0,0,0,.779-.294l.359-.179-.759-1.823Zm-5.731-8.148a8,8,0,0,1,4.437-3.958,2.59,2.59,0,0,1,2.248.249,1.812,1.812,0,0,1,.651,1.506c0,2.55-2.526,5.179-7.346,5.267h-1.136A10.633,10.633,0,0,1,1194.859,343.929Z" transform="translate(-936.924 -330.718)" fill="#312783"/>
    <path id="Path_1010" data-name="Path 1010" d="M820.951,339.518a5.478,5.478,0,0,0,1.672-3.956,4.516,4.516,0,0,0-1.9-3.6,4.96,4.96,0,0,0-4.425-.623,6.544,6.544,0,0,0-2.183,1.237,7.468,7.468,0,0,0-1.225,1.469v-2.456h-2.134v20.5h.429v.228h1.772v-.44a9.527,9.527,0,0,0,1.26.489,8.166,8.166,0,0,0,2.473.287,7.927,7.927,0,0,0,7.849-5.237,5.986,5.986,0,0,0,.293-1.23,6.184,6.184,0,0,0-1.137-5.044A4.611,4.611,0,0,0,820.951,339.518Zm-7.994,2.9c0-4.393,1.082-6.7,1.984-7.85a3.9,3.9,0,0,1,2.952-1.548c.051,0,.1,0,.154,0a2.666,2.666,0,0,1,2.112,1.174,2.592,2.592,0,0,1,.33,2.2,5.87,5.87,0,0,1-3.454,3.351,3.652,3.652,0,0,1-.361.149,4.635,4.635,0,0,0-.445.187l-.4.2.737,1.353h.255a1.27,1.27,0,0,0,.567-.165,4.912,4.912,0,0,1,1.782-.3,3.5,3.5,0,0,1,2.965,1.4,4.312,4.312,0,0,1,.318,3.944,5.662,5.662,0,0,1-2.115,2.863,6.293,6.293,0,0,1-4.054,1.134,5.867,5.867,0,0,1-1.878-.314l-.136-.022a2.417,2.417,0,0,1-.4-.112l-.326-.109-.588.981Z" transform="translate(-810.756 -328.529)" fill="#312783"/>
    <path id="Path_1011" data-name="Path 1011" d="M839.455,348.782l-.683,1.641a2.864,2.864,0,0,1-.305.6,4.466,4.466,0,0,1-1.1,1.415.746.746,0,0,1-.646.2.592.592,0,0,1-.38-.39,3.06,3.06,0,0,1-.134-1.027l-.022-13.24h-2.134v12.869c.082,1.692.455,2.75,1.17,3.331a2.228,2.228,0,0,0,1.463.478,4.012,4.012,0,0,0,.641-.055,4.084,4.084,0,0,0,2.356-1.876c.064-.107.135-.213.206-.319a4.543,4.543,0,0,0,.411-.706l.11-.166,3.443-7.524v10.467h2V337l-1.372.915Z" transform="translate(-818.477 -330.493)" fill="#312783"/>
    <path id="Path_1012" data-name="Path 1012" d="M860.485,349.7l-.354.713a7.747,7.747,0,0,1-.452.965c-.525,1.05-.839,1.214-1.025,1.246-.521.082-.711-.019-.808-.1-.3-.253-.441-1-.441-2.294v-12.31h-2.067v12.378c0,1.927.442,3.249,1.312,3.929a2.877,2.877,0,0,0,2.577.38,3.9,3.9,0,0,0,2.436-2.455c1.364-3.017,2.714-6.085,3.543-7.983v7.873c0,4.454-2.213,7.308-6.054,7.829a10.243,10.243,0,0,1-2,0l-.354-.035-.575,1.953.485.074a8.977,8.977,0,0,0,2.738,0c5.047-.648,7.826-4.3,7.826-10.293V337.01l-1.366.759Z" transform="translate(-825.533 -330.496)" fill="#312783"/>
    <path id="Path_1013" data-name="Path 1013" d="M884.53,336.067h-5.112v-4.833h-2.134v4.833h-2.667l-.46,2.067h3.127v14.433h2.134V338.134h4.767Z" transform="translate(-831.771 -328.581)" fill="#312783"/>
    <path id="Path_1014" data-name="Path 1014" d="M890.321,349.071a1.36,1.36,0,0,0,.643-.072,10.217,10.217,0,0,0,7.413-2.658,6.4,6.4,0,0,0,2.06-4.553,3.806,3.806,0,0,0-1.44-3.111,4.443,4.443,0,0,0-3.94-.59c-2.7.771-5.088,3.174-6.387,6.423a10.956,10.956,0,0,0-.765,2.577c-.447,2.608.084,4.812,1.493,6.2a5.854,5.854,0,0,0,4.227,1.566,9.369,9.369,0,0,0,1.687-.16,13.384,13.384,0,0,0,2.774-.83l.08-.041a1.708,1.708,0,0,1,.267-.13,2.46,2.46,0,0,0,.4-.2l.29-.193-.705-1.764-.659.33-.978.326c-.006,0-.192.064-.439.125l-.056.018a4.9,4.9,0,0,1-.56.168c-.182.047-.369.1-.52.148a4.5,4.5,0,0,1-4.186-.709,4.049,4.049,0,0,1-1.159-2.874h.343C890.244,349.065,890.282,349.068,890.321,349.071Zm.863-4.989a7.827,7.827,0,0,1,4.37-3.96,2.5,2.5,0,0,1,2.178.227,1.8,1.8,0,0,1,.639,1.5c-.061,2.545-2.587,5.155-7.291,5.22h-1.043A10.065,10.065,0,0,1,891.184,344.082Z" transform="translate(-836.277 -330.785)" fill="#312783"/>
    <path id="Path_1015" data-name="Path 1015" d="M919.954,342.053c-.085-1.949-.483-3.13-1.254-3.716a2.385,2.385,0,0,0-2.084-.31c-1.2.256-2.259,1.41-3.253,3.529-1.2,2.6-2.385,5.2-3.142,6.857V338.219h-2.067v17.619l1.379-1.072.043-.095s2.551-5.5,5.1-11.077c1.122-2.444,1.631-3.115,2.13-3.447a.675.675,0,0,1,.555-.117.592.592,0,0,1,.368.354,3.4,3.4,0,0,1,.223,1.218v13.117h2.067V343.145c0-.18-.017-.378-.035-.576C919.97,342.4,919.954,342.227,919.954,342.053Z" transform="translate(-843.04 -330.8)" fill="#312783"/>
    <path id="Path_1016" data-name="Path 1016" d="M939.374,338.494a5.614,5.614,0,0,0-5.057.517,9.658,9.658,0,0,0-3.713,4.6v-5.263h-2.067V362.1H930.6v-6.808l.419-.041a15.031,15.031,0,0,0,1.865-.277,12.908,12.908,0,0,0,8.2-5.786,9.175,9.175,0,0,0,1.253-7.086A5.139,5.139,0,0,0,939.374,338.494Zm-8.77,15.049c0-7.138,2.57-11.318,4.777-12.733a3.576,3.576,0,0,1,1.981-.641,3,3,0,0,1,.988.167,3.061,3.061,0,0,1,1.887,1.99c.851,2.733-.732,7.117-4.779,9.439a9.744,9.744,0,0,1-4.179,1.417l-.3.026-.378,1.361Z" transform="translate(-849.796 -330.86)" fill="#312783"/>
    <rect id="Rectangle_180" data-name="Rectangle 180" width="2.133" height="23.749" transform="translate(94.046 0.236)" fill="#312783"/>
    <path id="Path_1017" data-name="Path 1017" d="M971.111,338.129a7.724,7.724,0,0,1-1.147-.063l-1.068,0c-6.534,0-11.76,3.817-12.707,9.285a7.068,7.068,0,0,0,1.573,6.3,4.742,4.742,0,0,0,3.4,1.4,5.534,5.534,0,0,0,.956-.085c2.383-.372,4.082-2.489,5.747-7.256v7.127h2.066V340.062h1.162l.6-1.933Zm-2.974,2.575-.925,2.759c0,.013-.405,1.282-.869,2.54-1.931,5.592-3.051,6.733-4.558,6.965a2.943,2.943,0,0,1-2.617-.794c-.926-.944-1.254-2.536-.925-4.479.8-4.458,4.985-7.4,10.753-7.621Z" transform="translate(-858.914 -330.844)" fill="#312783"/>
    <path id="Path_1018" data-name="Path 1018" d="M981.292,349.071a1.346,1.346,0,0,0,.642-.072,10.2,10.2,0,0,0,7.414-2.658,6.405,6.405,0,0,0,2.059-4.553,3.807,3.807,0,0,0-1.44-3.111,4.444,4.444,0,0,0-3.941-.59c-2.7.771-5.088,3.174-6.387,6.423a10.988,10.988,0,0,0-.766,2.577c-.446,2.609.085,4.812,1.494,6.2a5.852,5.852,0,0,0,4.226,1.566,9.38,9.38,0,0,0,1.688-.16,13.366,13.366,0,0,0,2.773-.83l.078-.041a1.781,1.781,0,0,1,.268-.131,2.361,2.361,0,0,0,.4-.205l.29-.193-.7-1.764-.659.329-.977.326c-.006,0-.193.064-.439.125l-.056.018a4.881,4.881,0,0,1-.561.168c-.181.047-.369.1-.52.148a4.493,4.493,0,0,1-4.186-.709,4.047,4.047,0,0,1-1.159-2.874h.344C981.216,349.065,981.254,349.068,981.292,349.071Zm.863-4.989a7.823,7.823,0,0,1,4.37-3.96,2.5,2.5,0,0,1,2.178.227,1.8,1.8,0,0,1,.639,1.5c-.061,2.545-2.586,5.155-7.29,5.22h-1.044A10.062,10.062,0,0,1,982.155,344.082Z" transform="translate(-866.43 -330.785)" fill="#312783"/>
    <path id="Path_1019" data-name="Path 1019" d="M1008.832,336.067h-5.207v-4.833h-2.066v4.833h-2.735l-.459,2.067h3.194v14.433h2.066V338.134h4.749Z" transform="translate(-872.941 -328.581)" fill="#312783"/>
    <path id="Path_1020" data-name="Path 1020" d="M1019.03,344.082c-.13-.032-.243-.064-.356-.1s-.244-.069-.416-.112c-.79-.132-1.412-.233-1.9-.314-1-.163-1.534-.251-1.688-.3a1.191,1.191,0,0,0-.177-.176.746.746,0,0,1-.211-.592,1.93,1.93,0,0,1,.8-1.471,7.782,7.782,0,0,1,4.854-1.062,2.033,2.033,0,0,1,.275.029,3.038,3.038,0,0,0,.4.038h.322l.559-1.9-.46-.092a6.127,6.127,0,0,0-1.159-.076h-.806c-4.061,0-6.306,1.922-6.729,3.827a3.135,3.135,0,0,0,.283,2.5,2.851,2.851,0,0,0,2.018,1.108c3.424.527,3.541.585,4.3.963a2.077,2.077,0,0,1,1.045,1.589,3.575,3.575,0,0,1-1.218,3.03,7.479,7.479,0,0,1-5.805,1.955,9.6,9.6,0,0,1-1.348-.13l-.348-.049-.67,1.9.431.13a4.233,4.233,0,0,0,1.262.206,5.144,5.144,0,0,0,1.058-.122c5.234-.09,8.106-2.9,8.629-5.645C1022.529,346.466,1021.66,344.932,1019.03,344.082Z" transform="translate(-876.992 -330.811)" fill="#312783"/>
  </g>
  <g id="Group_131" data-name="Group 131" transform="translate(107.061)">
    <path id="Path_1021" data-name="Path 1021" d="M1013.393,304.209a24.241,24.241,0,0,0,18.44-11.026h-18.46Z" transform="translate(-984.977 -253.47)" fill="#95c11f"/>
    <g id="Group_128" data-name="Group 128">
      <path id="Path_1022" data-name="Path 1022" d="M997.489,233.78a26.591,26.591,0,1,0,26.591,26.591A26.606,26.606,0,0,0,997.489,233.78Zm-.089,51.63a25.039,25.039,0,1,1,25.039-25.039A25.068,25.068,0,0,1,997.4,285.41Z" transform="translate(-970.898 -233.78)" fill="#312783"/>
      <path id="Path_1023" data-name="Path 1023" d="M991.322,259a6.006,6.006,0,0,1-4.451-2.077,4.507,4.507,0,0,0-3.286-1.659l-7.432,2.929A24.216,24.216,0,0,0,996.7,291.649V256.076c-.327.241-.654.523-1,.822A6.545,6.545,0,0,1,991.322,259Zm-5.513,16.938-.795-.636a3.067,3.067,0,0,1-1.873.814,3.19,3.19,0,0,1-1.957-.89,3.191,3.191,0,0,1,1.957-.889,3.068,3.068,0,0,1,1.873.814l.795-.636Zm5.692,5.425-.789-.552a3.073,3.073,0,0,1-1.879.819,3.189,3.189,0,0,1-1.957-.889,3.189,3.189,0,0,1,1.957-.889,2.63,2.63,0,0,1,1.877.81l.791-.632Zm1.778-9.249-.789-.552a3.074,3.074,0,0,1-1.879.818,3.19,3.19,0,0,1-1.956-.889,3.189,3.189,0,0,1,1.956-.889,2.627,2.627,0,0,1,1.877.81l.791-.633Z" transform="translate(-972.024 -240.903)" fill="#312783"/>
    </g>
    <g id="Group_129" data-name="Group 129" transform="translate(4.497 2.436)">
      <path id="Path_1024" data-name="Path 1024" d="M977.624,251.454a5.293,5.293,0,0,0,3.588-1.5,4.673,4.673,0,0,1,3.476-1.4,5.275,5.275,0,0,1,3.838,1.877,5.205,5.205,0,0,0,3.9,1.859c1.653,0,2.77-.97,3.85-1.909a11.345,11.345,0,0,1,1.528-1.183V237.424A24.271,24.271,0,0,0,977.624,251.454Z" transform="translate(-977.624 -237.424)" fill="#009fe3"/>
      <path id="Path_1025" data-name="Path 1025" d="M1013.272,237.425l.066,36.468H1032.3a24.208,24.208,0,0,0-19.03-36.468Zm5.2,20.33-2.935-1.779a4.893,4.893,0,0,0,5.87,0Zm.622-12.807a4.892,4.892,0,0,0,5.87,0l-2.935,1.778Zm8.716,7.648-2.935-1.778a4.893,4.893,0,0,0,5.87,0Z" transform="translate(-989.44 -237.424)" fill="#009fe3"/>
    </g>
    <g id="Group_130" data-name="Group 130" transform="translate(25.257 2.49)">
      <path id="Path_1026" data-name="Path 1026" d="M1010.1,237.5h-1.423v4.358h2.4V237.5Z" transform="translate(-1008.677 -237.504)" fill="#ea5b0c"/>
      <path id="Path_1027" data-name="Path 1027" d="M1010.1,246.949h-1.423V251.4h2.4v-4.447h-.978Z" transform="translate(-1008.677 -240.635)" fill="#ea5b0c"/>
      <path id="Path_1028" data-name="Path 1028" d="M1010.1,256.394h-1.423v4.447h2.4v-4.447h-.978Z" transform="translate(-1008.677 -243.766)" fill="#ea5b0c"/>
      <path id="Path_1029" data-name="Path 1029" d="M1010.1,265.839h-1.423V270.2h2.4v-4.358h-.978Z" transform="translate(-1008.677 -246.896)" fill="#ea5b0c"/>
      <path id="Path_1030" data-name="Path 1030" d="M1010.1,275.284h-1.423v4.358h2.4v-4.358h-.978Z" transform="translate(-1008.677 -250.027)" fill="#ea5b0c"/>
      <path id="Path_1031" data-name="Path 1031" d="M1010.1,284.729h-1.423v4.447h2.4v-4.447h-.978Z" transform="translate(-1008.677 -253.158)" fill="#ea5b0c"/>
      <path id="Path_1032" data-name="Path 1032" d="M1009.923,293.642h-1.245V298h2.4v-4.358h-1.156Z" transform="translate(-1008.677 -256.112)" fill="#ea5b0c"/>
      <path id="Path_1033" data-name="Path 1033" d="M1009.923,303.087h-1.245v4.447h2.4v-4.447h-1.156Z" transform="translate(-1008.677 -259.243)" fill="#ea5b0c"/>
    </g>
  </g>
</svg>
