<?xml version="1.0" encoding="utf-8"?>
<!-- Generator: Adobe Illustrator 24.1.2, SVG Export Plug-In . SVG Version: 6.00 Build 0)  -->
<svg version="1.1" id="Laag_1" xmlns="http://www.w3.org/2000/svg" xmlns:xlink="http://www.w3.org/1999/xlink" x="0px" y="0px"
	 viewBox="0 0 612 792" style="enable-background:new 0 0 612 792;" xml:space="preserve">
<style type="text/css">
	.st0{fill:#A07A37;}
</style>
<g>
	<path class="st0" d="M303.75,303.2c3.21-0.48,6.6,0.33,9.24,2.23c2.83,2,4.78,5.21,5.23,8.65c0.47,3.33-0.45,6.83-2.51,9.49
		c-2.09,2.74-5.33,4.57-8.76,4.92c-3.14,0.35-6.39-0.53-8.93-2.42c-2.84-2.08-4.74-5.38-5.09-8.88c-0.36-3.22,0.57-6.56,2.55-9.12
		C297.48,305.44,300.5,303.66,303.75,303.2L303.75,303.2z M303.73,307.39L303.73,307.39c-2.37,0.52-4.47,2.09-5.65,4.21
		c-1.23,2.17-1.43,4.88-0.56,7.21c0.73,1.98,2.21,3.66,4.08,4.64c2.11,1.12,4.69,1.29,6.93,0.47c2.2-0.79,4.05-2.52,4.97-4.67
		c0.99-2.24,0.94-4.91-0.11-7.12C311.78,308.55,307.54,306.46,303.73,307.39L303.73,307.39z M298.06,173h0.57
		c0.77,0.27,1.39,0.83,2.05,1.29c7.7,5.57,15.41,11.15,23.12,16.72c0.51,0.34,0.89,0.9,0.84,1.54c-0.02,18.68-0.07,37.37-0.1,56.05
		c5.71-1.91,11.42-3.83,17.13-5.75c0.62-0.2,1.34-0.13,1.88,0.24c5.64,3.63,11.29,7.25,16.94,10.87c0.66,0.39,1.06,1.18,1.03,1.94
		c-0.01,7.37,0,14.75,0,22.13c2.39,1.49,4.77,2.97,7.16,4.46c0-3.58,0-7.17,0-10.76c3.92-1.28,7.84-2.57,11.77-3.83
		c0.74-0.34,1.28,0.42,1.85,0.76c2.36,1.74,4.73,3.45,7.09,5.19c0.31,0.19,0.45,0.53,0.42,0.89c0,10.19,0,20.38,0,30.57
		c16.46,2.67,32.92,5.34,49.39,8.01c4.85,0.82,9.72,1.49,14.54,2.49c-37.67,7.35-75.34,14.66-113,22
		c9.02,13.41,18.08,26.79,27.08,40.21c-13.43-8.99-26.8-18.06-40.21-27.08c-7.33,37.67-14.66,75.34-22,113.01
		c-7.35-37.69-14.68-75.38-22.02-113.07c-13.41,9.04-26.8,18.09-40.23,27.11c9-13.41,18.05-26.78,27.06-40.18
		c-37.65-7.34-75.3-14.64-112.95-22c19.35-3.15,38.71-6.31,58.06-9.46c0.01-2.13-0.02-4.27,0.01-6.39
		c-0.03-0.51,0.31-0.94,0.73-1.17c1.35-0.85,2.72-1.68,4.07-2.54c0-4.26,0-8.51,0-12.77c-0.05-0.55,0.17-1.11,0.68-1.37
		c3.2-2.06,6.42-4.11,9.61-6.17c0.4-0.28,0.9-0.48,1.38-0.27c3.17,1.05,6.32,2.13,9.49,3.18c0.01-10.55,0-21.1,0.01-31.65
		c-0.08-0.91,0.85-1.32,1.45-1.8c4.17-3.06,8.38-6.08,12.52-9.18c0.92,0,1.77,0.38,2.64,0.66c5.81,1.89,11.62,3.79,17.43,5.68
		c0-10.38,0-20.76,0-31.14c-0.07-0.72,0.29-1.41,0.93-1.74c6.77-4.14,13.53-8.28,20.3-12.43c0-7.53-0.01-15.06,0.01-22.59
		C296.72,173.85,297.33,173.19,298.06,173L298.06,173z M304.6,194.02L304.6,194.02c0,1.71,0,3.43,0,5.14
		c1.82,1.16,3.63,2.32,5.45,3.48c0.01-1.67-0.02-3.34,0.02-5C308.29,196.38,306.43,195.23,304.6,194.02L304.6,194.02z
		 M313.23,198.71L313.23,198.71c0,1.71,0,3.43,0,5.14c1.81,1.16,3.63,2.31,5.45,3.47c0-1.72-0.01-3.43,0.01-5.15
		C316.87,201.01,315.05,199.87,313.23,198.71L313.23,198.71z M304.6,208.31L304.6,208.31c0,1.72,0,3.43,0,5.15
		c1.82,1.16,3.63,2.32,5.45,3.47c0-1.68,0-3.37,0-5.05C308.24,210.69,306.42,209.5,304.6,208.31L304.6,208.31z M289.08,214.53
		L289.08,214.53c-0.19,1.43-0.02,2.95-0.08,4.41c1.59-1.01,3.18-2,4.75-3.03c-0.01-1.48,0-2.97-0.01-4.45
		C292.19,212.5,290.6,213.48,289.08,214.53L289.08,214.53z M313.23,213.97L313.23,213.97c-0.01,1.72-0.01,3.44,0,5.16
		c1.82,1.14,3.62,2.31,5.44,3.46c-0.01-1.73,0.03-3.46-0.02-5.19C316.83,216.29,315.04,215.1,313.23,213.97L313.23,213.97z
		 M281.51,218.52L281.51,218.52c-0.01,1.49,0,2.99,0,4.48c1.57-0.98,3.11-2,4.7-2.96c0.06-1.5,0.02-3.01,0.03-4.52
		C284.65,216.52,283.09,217.53,281.51,218.52L281.51,218.52z M304.6,223.58L304.6,223.58c0,1.72-0.01,3.44,0.01,5.16
		c1.82,1.13,3.62,2.3,5.44,3.44c0-1.68,0-3.37,0-5.05C308.24,225.95,306.42,224.77,304.6,223.58L304.6,223.58z M289,226.99
		L289,226.99c0,1.46,0,2.92,0,4.38c1.58-1,3.16-2,4.74-3.01c0-1.49,0-2.99,0-4.48C292.16,224.91,290.58,225.95,289,226.99
		L289,226.99z M281.5,231.82L281.5,231.82c0.02,1.49,0,2.97,0.01,4.46c1.58-1,3.15-2,4.73-3.01c0-1.49,0-2.97,0-4.46
		C284.65,229.81,283.07,230.8,281.5,231.82L281.5,231.82z M313.23,229.23L313.23,229.23c0,1.72-0.02,3.44,0.01,5.16
		c1.82,1.13,3.62,2.3,5.43,3.44c0-1.71,0.01-3.43-0.01-5.14C316.84,231.55,315.04,230.38,313.23,229.23L313.23,229.23z
		 M289.01,240.22L289.01,240.22c-0.02,1.46-0.01,2.93,0,4.39c1.43-0.85,2.81-1.78,4.23-2.65c0.21-0.17,0.6-0.28,0.51-0.63
		c0.01-1.4,0-2.8,0-4.2C292.16,238.16,290.59,239.21,289.01,240.22L289.01,240.22z M304.6,237.38L304.6,237.38
		c0,1.71,0.01,3.42-0.01,5.13c1.81,1.16,3.64,2.31,5.46,3.47c-0.01-1.69,0.01-3.37-0.01-5.06
		C308.22,239.76,306.42,238.56,304.6,237.38L304.6,237.38z M281.5,245.07L281.5,245.07c0,1.49,0,2.98,0,4.48
		c1.58-1.01,3.16-2.01,4.73-3.02c0-1.49,0-2.98,0-4.47C284.65,243.06,283.08,244.07,281.5,245.07L281.5,245.07z M313.23,243.02
		L313.23,243.02c-0.01,1.72,0,3.44,0,5.16c1.82,1.14,3.62,2.32,5.45,3.44c-0.01-1.71,0-3.42,0-5.13
		C316.86,245.33,315.04,244.18,313.23,243.02L313.23,243.02z M261.76,244.92L261.76,244.92c0,0.9,0,1.8,0,2.7
		c1.14,0.3,2.27,0.6,3.4,0.9c0-0.9,0-1.8,0-2.7C264.03,245.51,262.9,245.22,261.76,244.92L261.76,244.92z M266.76,246.12
		L266.76,246.12c0,0.9,0,1.79,0,2.69c1.13,0.31,2.28,0.6,3.41,0.91c0.01-0.9,0.01-1.8,0-2.71
		C269.03,246.72,267.9,246.42,266.76,246.12L266.76,246.12z M249.99,247.87L249.99,247.87c0.01,0.86,0.01,1.72,0.01,2.59
		c0.94-0.6,1.89-1.2,2.83-1.81c0-0.88,0-1.77,0-2.65C251.87,246.62,250.92,247.23,249.99,247.87L249.99,247.87z M245.54,250.74
		L245.54,250.74c0,0.89,0,1.79,0,2.68c0.94-0.6,1.87-1.21,2.81-1.8c0.01-0.9,0.01-1.79,0-2.68
		C247.41,249.53,246.47,250.13,245.54,250.74L245.54,250.74z M289.01,252.21L289.01,252.21c-0.03,1.47-0.01,2.95-0.01,4.42
		c1.58-1.01,3.18-2.01,4.75-3.03c-0.02-1.49-0.01-2.97-0.01-4.46C292.16,250.15,290.6,251.2,289.01,252.21L289.01,252.21z
		 M327.48,255.26L327.48,255.26c0,0.78,0.01,1.57,0.01,2.36c3.88-1.28,7.75-2.57,11.63-3.86c-0.01-0.77-0.03-1.54-0.04-2.3
		C335.22,252.72,331.35,253.99,327.48,255.26L327.48,255.26z M346.12,252.35L346.12,252.35c0,0.9-0.01,1.8,0.01,2.7
		c3.79,2.36,7.57,4.73,11.34,7.12c0.04-0.89,0.02-1.78,0.03-2.67C353.71,257.11,349.92,254.73,346.12,252.35L346.12,252.35z
		 M261.76,252.73L261.76,252.73c0,0.9,0,1.8,0,2.7c1.13,0.3,2.27,0.6,3.4,0.9c0-0.9,0-1.8,0-2.7
		C264.03,253.32,262.9,253.03,261.76,252.73L261.76,252.73z M304.6,252.62L304.6,252.62c0,1.72,0,3.44,0,5.16
		c1.82,1.16,3.63,2.32,5.45,3.47c0-1.68,0-3.37,0-5.05C308.24,255.01,306.42,253.81,304.6,252.62L304.6,252.62z M266.76,253.93
		L266.76,253.93c0,0.9,0,1.8,0,2.7c1.14,0.31,2.27,0.6,3.41,0.9c0-0.9,0-1.81,0-2.71C269.03,254.53,267.9,254.22,266.76,253.93
		L266.76,253.93z M250,255.76L250,255.76c-0.01,0.88,0,1.75,0,2.63c0.94-0.6,1.88-1.2,2.83-1.8c0-0.89,0-1.78,0-2.68
		C251.88,254.53,250.94,255.15,250,255.76L250,255.76z M281.5,257.07L281.5,257.07c0,1.48,0,2.97,0,4.45c1.58-0.99,3.15-2,4.73-2.99
		c0-1.49,0-2.99,0-4.48C284.65,255.04,283.08,256.06,281.5,257.07L281.5,257.07z M245.55,258.64L245.55,258.64
		c-0.01,0.89-0.01,1.78-0.01,2.68c0.94-0.6,1.88-1.19,2.82-1.8c-0.01-0.89-0.01-1.77-0.01-2.66
		C247.41,257.45,246.48,258.06,245.55,258.64L245.55,258.64z M313.23,258.28L313.23,258.28c0,1.72,0,3.43,0,5.15
		c1.82,1.16,3.63,2.32,5.45,3.47c0-1.71-0.01-3.42,0.01-5.13C316.88,260.58,315.05,259.44,313.23,258.28L313.23,258.28z
		 M327.51,262.36L327.51,262.36c-0.01,0.78-0.01,1.56,0.03,2.35c3.86-1.31,7.73-2.56,11.59-3.85c-0.01-0.77-0.03-1.53-0.04-2.3
		C335.23,259.82,331.37,261.09,327.51,262.36L327.51,262.36z M261.76,263.24L261.76,263.24c1.13,0.3,2.27,0.61,3.4,0.9
		c0-0.9,0-1.8,0-2.71c-1.13-0.3-2.26-0.59-3.38-0.91C261.75,261.43,261.76,262.33,261.76,263.24L261.76,263.24z M266.77,264.45
		L266.77,264.45c1.14,0.28,2.26,0.59,3.4,0.89c0-0.9,0-1.81,0-2.71c-1.13-0.29-2.26-0.58-3.38-0.9
		C266.74,262.64,266.75,263.54,266.77,264.45L266.77,264.45z M346.12,261.78L346.12,261.78c0,0.9-0.01,1.8,0.02,2.69
		c3.8,2.35,7.57,4.76,11.36,7.12c0-0.89,0-1.78,0-2.67C353.71,266.55,349.92,264.16,346.12,261.78L346.12,261.78z M249.99,263.71
		L249.99,263.71c0.01,0.87,0.01,1.73,0.01,2.6c0.95-0.61,1.92-1.19,2.85-1.84c-0.03-0.88-0.02-1.76-0.02-2.64
		C251.88,262.46,250.92,263.06,249.99,263.71L249.99,263.71z M288.99,265.51L288.99,265.51c0,1.46,0,2.93,0,4.39
		c1.58-0.99,3.12-2.03,4.72-2.99c0.05-1.5,0.01-3.01,0.02-4.51C292.16,263.43,290.57,264.47,288.99,265.51L288.99,265.51z
		 M245.54,266.57L245.54,266.57c0,0.89,0,1.78,0,2.68c0.93-0.6,1.87-1.2,2.81-1.8c0-0.89,0-1.77,0-2.66
		C247.41,265.38,246.47,265.97,245.54,266.57L245.54,266.57z M327.54,269.44L327.54,269.44c0,0.79,0,1.57,0.01,2.36
		c3.85-1.28,7.69-2.57,11.55-3.82c0.02-0.78,0-1.55-0.01-2.33C335.23,266.91,331.39,268.17,327.54,269.44L327.54,269.44z
		 M281.51,270.33L281.51,270.33c0,1.49,0,2.98,0,4.48c1.58-1.02,3.18-2,4.74-3.05c-0.03-1.48,0-2.96-0.01-4.44
		C284.65,268.31,283.08,269.32,281.51,270.33L281.51,270.33z M304.6,267.89L304.6,267.89c0,1.72,0,3.44,0,5.16
		c1.82,1.15,3.63,2.31,5.45,3.46c0-1.69,0-3.37,0-5.06C308.24,270.26,306.42,269.07,304.6,267.89L304.6,267.89z M261.76,268.35
		L261.76,268.35c0,0.89,0,1.79-0.01,2.68c1.13,0.32,2.27,0.61,3.41,0.91c0-0.9,0-1.8,0-2.7
		C264.03,268.95,262.9,268.64,261.76,268.35L261.76,268.35z M249.99,271.28L249.99,271.28c0,0.87,0,1.74,0,2.61
		c0.94-0.6,1.88-1.2,2.83-1.79c0-0.89,0-1.78,0-2.67C251.88,270.04,250.94,270.66,249.99,271.28L249.99,271.28z M266.76,269.56
		L266.76,269.56c0,0.9,0,1.79,0,2.69c1.14,0.3,2.27,0.6,3.41,0.9c0-0.9-0.01-1.79,0.01-2.68
		C269.04,270.14,267.9,269.83,266.76,269.56L266.76,269.56z M346.12,270.9L346.12,270.9c0,0.88,0,1.77-0.01,2.65
		c3.78,2.41,7.59,4.78,11.39,7.16c-0.01-0.81,0.02-1.62,0-2.43c0.06-0.33-0.33-0.43-0.53-0.59
		C353.35,275.44,349.75,273.15,346.12,270.9L346.12,270.9z M245.54,274.16L245.54,274.16c0,0.89,0,1.79,0,2.68
		c0.94-0.6,1.88-1.2,2.81-1.81c0-0.89,0-1.78,0-2.66C247.4,272.95,246.48,273.56,245.54,274.16L245.54,274.16z M327.56,276.91
		L327.56,276.91c0,0.78,0,1.57,0,2.36c3.85-1.28,7.71-2.55,11.56-3.84c-0.01-0.77-0.03-1.54-0.04-2.3
		C335.24,274.38,331.4,275.65,327.56,276.91L327.56,276.91z M375.12,273.75L375.12,273.75c-0.01,0.56-0.01,1.12-0.01,1.68
		c0.71-0.18,1.42-0.37,2.12-0.57c-0.01-0.56-0.01-1.11-0.01-1.67C376.52,273.39,375.82,273.57,375.12,273.75L375.12,273.75z
		 M313.25,273.56L313.25,273.56c-0.05,1.71-0.02,3.43-0.02,5.14c1.82,1.14,3.63,2.31,5.44,3.46c-0.01-1.72,0.02-3.45-0.01-5.17
		C316.85,275.86,315.06,274.69,313.25,273.56L313.25,273.56z M372,274.51L372,274.51c0,0.56,0,1.11,0,1.67
		c0.7-0.18,1.41-0.37,2.12-0.56c0-0.56,0-1.12,0-1.67C373.41,274.13,372.71,274.32,372,274.51L372,274.51z M382.77,273.87
		L382.77,273.87c0,0.55,0,1.09,0,1.64c0.58,0.38,1.17,0.76,1.76,1.13c0-0.54,0-1.08,0-1.62
		C383.94,274.64,383.36,274.25,382.77,273.87L382.77,273.87z M289,278.76L289,278.76c-0.01,1.46,0,2.93,0,4.39
		c1.58-1,3.16-2,4.74-3.01c0-1.5,0-2.99,0-4.49C292.16,276.69,290.58,277.73,289,278.76L289,278.76z M385.55,275.69L385.55,275.69
		c0,0.55,0,1.1,0,1.66c0.58,0.37,1.16,0.75,1.75,1.12c0-0.55,0-1.1,0-1.65C386.72,276.44,386.14,276.06,385.55,275.69L385.55,275.69
		z M261.76,276.16L261.76,276.16c0,0.9,0,1.8,0,2.7c1.13,0.3,2.25,0.58,3.38,0.9c0.04-0.91,0.03-1.82,0.01-2.73
		C264.02,276.75,262.89,276.44,261.76,276.16L261.76,276.16z M266.76,277.35L266.76,277.35c0,0.9,0,1.8,0,2.7
		c1.14,0.3,2.27,0.6,3.41,0.9c0-0.9,0-1.8,0-2.7C269.03,277.95,267.9,277.65,266.76,277.35L266.76,277.35z M249.99,279.2
		L249.99,279.2c0.01,0.87,0,1.75,0.01,2.62c0.94-0.61,1.9-1.2,2.83-1.82c-0.01-0.89,0-1.77,0-2.66
		C251.88,277.96,250.93,278.57,249.99,279.2L249.99,279.2z M375.11,278.61L375.11,278.61c0,0.56,0,1.12,0,1.67
		c0.7-0.19,1.41-0.37,2.11-0.56c0-0.56,0-1.12,0-1.67C376.52,278.23,375.81,278.42,375.11,278.61L375.11,278.61z M382.77,278.79
		L382.77,278.79c0,0.55,0,1.1,0,1.66c0.58,0.38,1.17,0.75,1.76,1.12c0-0.54,0-1.08,0-1.63
		C383.94,279.55,383.36,279.17,382.77,278.79L382.77,278.79z M372,279.35L372,279.35c0,0.56,0,1.12,0,1.68
		c0.71-0.18,1.41-0.37,2.12-0.56c0-0.56,0-1.12,0-1.67C373.41,278.98,372.71,279.16,372,279.35L372,279.35z M245.53,282.1
		L245.53,282.1c0,0.88,0,1.76,0,2.65c0.94-0.58,1.87-1.18,2.81-1.78c0-0.89,0-1.78,0-2.68C247.41,280.89,246.47,281.48,245.53,282.1
		L245.53,282.1z M345.97,280.17L345.97,280.17c0.04,0.87,0.02,1.74,0.1,2.61c0.2,0.27,0.56,0.37,0.83,0.56
		c3.59,2.08,7.17,4.18,10.75,6.26c-0.03-0.88-0.07-1.76-0.08-2.64C353.72,284.67,349.84,282.43,345.97,280.17L345.97,280.17z
		 M233.47,280.68L233.47,280.68c-0.01,0.45-0.01,0.9-0.02,1.35c2.27,0.75,4.54,1.51,6.82,2.26c0-0.47-0.01-0.93-0.01-1.4
		C237.98,282.17,235.73,281.41,233.47,280.68L233.47,280.68z M281.52,283.54L281.52,283.54c-0.04,1.51-0.01,3.02-0.02,4.53
		c1.58-1.01,3.15-2.01,4.73-3.02c0-1.49,0-2.98,0-4.47C284.66,281.56,283.11,282.59,281.52,283.54L281.52,283.54z M327.58,284.38
		L327.58,284.38c0,0.78,0,1.57,0,2.35c3.85-1.27,7.69-2.55,11.54-3.83c0-0.77-0.01-1.54-0.05-2.31
		C335.24,281.86,331.4,283.11,327.58,284.38L327.58,284.38z M385.55,280.62L385.55,280.62c0,0.55,0,1.1,0,1.65
		c0.58,0.37,1.16,0.74,1.74,1.1c0-0.54,0-1.08,0.02-1.62C386.73,281.36,386.14,280.98,385.55,280.62L385.55,280.62z M222.68,285.4
		L222.68,285.4c0,0.52,0,1.04,0,1.56c2.22-1.41,4.48-2.78,6.68-4.22c-0.01-0.51-0.02-1.02-0.03-1.53
		C227.13,282.61,224.89,283.99,222.68,285.4L222.68,285.4z M375.1,283.47L375.1,283.47c0,0.55,0,1.11,0.01,1.66
		c0.7-0.18,1.4-0.37,2.11-0.55c0-0.56,0-1.12,0-1.68C376.51,283.08,375.81,283.26,375.1,283.47L375.1,283.47z M372,284.2L372,284.2
		c0,0.56,0,1.12,0,1.67c0.7-0.18,1.41-0.37,2.12-0.56c0-0.56,0-1.12,0-1.68C373.41,283.82,372.7,284.01,372,284.2L372,284.2z
		 M382.77,283.7L382.77,283.7c0,0.55,0,1.11,0,1.66c0.58,0.37,1.17,0.75,1.76,1.12c0-0.54,0-1.08,0-1.62
		C383.94,284.47,383.36,284.08,382.77,283.7L382.77,283.7z M261.76,283.96L261.76,283.96c0,0.9,0,1.8,0,2.71
		c1.13,0.3,2.27,0.6,3.4,0.9c0-0.9,0-1.8,0-2.71C264.03,284.56,262.9,284.26,261.76,283.96L261.76,283.96z M233.46,284.84
		L233.46,284.84c0,0.46,0,0.91,0,1.37c2.27,0.71,4.52,1.49,6.78,2.23c0-0.46,0-0.92,0-1.37
		C237.99,286.33,235.73,285.57,233.46,284.84L233.46,284.84z M266.76,285.17L266.76,285.17c0,0.9,0,1.8,0,2.7
		c1.14,0.3,2.27,0.6,3.41,0.9c0.01-0.9,0.01-1.8,0.01-2.7C269.03,285.77,267.9,285.47,266.76,285.17L266.76,285.17z M250,287.1
		L250,287.1c-0.01,0.88-0.01,1.76,0,2.65c0.94-0.61,1.89-1.2,2.83-1.8c0-0.89,0-1.79,0-2.68C251.88,285.87,250.95,286.5,250,287.1
		L250,287.1z M385.55,285.53L385.55,285.53c0,0.55,0,1.1,0,1.65c0.58,0.37,1.16,0.74,1.74,1.12c0-0.54,0-1.08,0.02-1.62
		C386.74,286.27,386.14,285.9,385.55,285.53L385.55,285.53z M222.7,290.9L222.7,290.9c-0.01,0.53-0.02,1.05-0.02,1.58
		c2.23-1.39,4.44-2.79,6.67-4.19c0-0.52,0-1.04,0-1.56C227.12,288.11,224.92,289.53,222.7,290.9L222.7,290.9z M375.11,288.31
		L375.11,288.31c0,0.56,0,1.11,0,1.67c0.7-0.19,1.41-0.37,2.11-0.56c0-0.56,0-1.11,0-1.67
		C376.52,287.93,375.81,288.12,375.11,288.31L375.11,288.31z M245.55,289.97L245.55,289.97c-0.03,0.9-0.02,1.8-0.02,2.71
		c0.94-0.6,1.89-1.19,2.82-1.82c-0.01-0.88-0.01-1.77-0.01-2.65C247.41,288.79,246.5,289.4,245.55,289.97L245.55,289.97z
		 M382.77,288.42L382.77,288.42c0,0.55,0,1.1,0,1.65c0.58,0.37,1.17,0.74,1.75,1.11c0-0.54,0-1.08,0-1.61
		C383.94,289.18,383.36,288.8,382.77,288.42L382.77,288.42z M372.01,289.04L372.01,289.04c-0.01,0.56-0.01,1.12-0.01,1.68
		c0.71-0.18,1.42-0.37,2.12-0.57c-0.01-0.56-0.01-1.11-0.01-1.67C373.42,288.67,372.71,288.86,372.01,289.04L372.01,289.04z
		 M233.47,288.99L233.47,288.99c-0.01,0.45-0.02,0.9-0.02,1.35c2.26,0.76,4.52,1.5,6.79,2.26c0-0.46,0-0.92,0-1.38
		C237.98,290.47,235.73,289.73,233.47,288.99L233.47,288.99z M385.55,290.24L385.55,290.24c0,0.55,0,1.11,0.01,1.67
		c0.58,0.37,1.16,0.74,1.73,1.11c0-0.54,0-1.08,0.02-1.62C386.74,290.98,386.14,290.61,385.55,290.24L385.55,290.24z M222.68,296.25
		L222.68,296.25c0,0.52,0,1.05,0,1.57c2.2-1.4,4.43-2.75,6.61-4.17c0.12-0.5,0.03-1.05,0.05-1.56
		C227.1,293.44,224.9,294.87,222.68,296.25L222.68,296.25z M375.11,293.15L375.11,293.15c0,0.55,0,1.1,0,1.66
		c0.71-0.17,1.41-0.36,2.11-0.54c0-0.56,0-1.12,0-1.68C376.52,292.77,375.81,292.96,375.11,293.15L375.11,293.15z M233.47,293.37
		L233.47,293.37c-0.01,0.45-0.01,0.9-0.02,1.35c2.26,0.74,4.51,1.5,6.77,2.24c0-0.46,0-0.92,0-1.38
		C237.97,294.85,235.72,294.11,233.47,293.37L233.47,293.37z M372,293.89L372,293.89c-0.01,0.56,0,1.12,0.02,1.68
		c0.69-0.2,1.39-0.38,2.1-0.57c0-0.56,0-1.12,0-1.68C373.41,293.52,372.7,293.71,372,293.89L372,293.89z M382.77,293.33
		L382.77,293.33c0,0.55,0,1.1,0,1.66c0.58,0.37,1.17,0.75,1.75,1.12c0-0.54,0-1.08,0-1.62
		C383.94,294.09,383.36,293.71,382.77,293.33L382.77,293.33z M385.55,295.16L385.55,295.16c0,0.55,0,1.11,0,1.67
		c0.58,0.37,1.16,0.74,1.74,1.1c0-0.56,0-1.12-0.01-1.67C386.7,295.89,386.12,295.52,385.55,295.16L385.55,295.16z M222.66,301.44
		L222.66,301.44c-0.03,0.52-0.05,1.05-0.07,1.58c2.27-1.33,4.55-2.63,6.81-3.98c0.01-0.52,0.02-1.03,0.04-1.54
		C227.17,298.81,224.92,300.14,222.66,301.44L222.66,301.44z M375.12,297.99L375.12,297.99c-0.01,0.56-0.01,1.12-0.01,1.68
		c0.71-0.18,1.41-0.37,2.11-0.56c0-0.56,0-1.12,0-1.67C376.52,297.62,375.82,297.81,375.12,297.99L375.12,297.99z M233.47,297.75
		L233.47,297.75c-0.01,0.45-0.02,0.9-0.02,1.35c2.25,0.76,4.51,1.5,6.76,2.25c0-0.46,0-0.92,0-1.38
		C237.97,299.22,235.72,298.49,233.47,297.75L233.47,297.75z M303.88,298.34L303.88,298.34c-6.12,0.54-11.75,4.59-14.25,10.19
		c-1.87,4.07-2.08,8.86-0.59,13.08c1.22,3.5,3.59,6.59,6.66,8.68c3,2.07,6.67,3.15,10.31,3.06c3.45-0.07,6.86-1.19,9.68-3.18
		c3.04-2.13,5.38-5.25,6.55-8.77c1.28-3.79,1.21-8.02-0.21-11.76c-1.43-3.85-4.28-7.14-7.86-9.14
		C311.06,298.74,307.42,297.99,303.88,298.34L303.88,298.34z M372,298.75L372,298.75c0,0.56,0,1.11,0,1.67
		c0.7-0.19,1.41-0.37,2.11-0.56c0-0.56,0-1.12,0.01-1.68C373.41,298.37,372.7,298.56,372,298.75L372,298.75z M382.77,298.25
		L382.77,298.25c0,0.55,0,1.11,0,1.66c0.58,0.37,1.17,0.74,1.75,1.11c0-0.54,0-1.07,0.01-1.61
		C383.95,299.01,383.36,298.63,382.77,298.25L382.77,298.25z M385.55,300.07L385.55,300.07c-0.01,0.56,0,1.12,0.02,1.69
		c0.58,0.35,1.15,0.72,1.73,1.09c0-0.56,0-1.11,0-1.66C386.71,300.81,386.13,300.44,385.55,300.07L385.55,300.07z M332.29,193.84
		c17.15,3.87,33.41,11.6,47.27,22.43c17.13,13.33,30.57,31.37,38.36,51.63c4.44,11.49,7.07,23.66,7.81,35.96
		c-5.58-0.89-11.16-1.79-16.74-2.71c-1.1-11.43-4.11-22.68-8.9-33.11c-5.58-12.2-13.56-23.29-23.33-32.47
		c-12.48-11.78-27.92-20.36-44.5-24.77C332.26,205.14,332.26,199.49,332.29,193.84L332.29,193.84z M216.66,230.16
		c13.86-15.22,31.67-26.82,51.23-33.25c0.02,5.83,0.03,11.67,0,17.5c-11.47,4.47-22.12,11.01-31.31,19.19
		c-10.15,9.03-18.52,20.06-24.46,32.28c-5.38,11.06-8.75,23.09-9.92,35.34c-5.58,0.93-11.15,1.83-16.74,2.73
		c0.66-11.2,2.9-22.31,6.64-32.88C197.45,255.98,205.86,241.98,216.66,230.16L216.66,230.16z M186.52,328.79
		c5.77,1.11,11.54,2.23,17.31,3.37c3.31,16.23,10.61,31.62,21.06,44.47c8.69,10.72,19.53,19.69,31.69,26.21
		c9.95,5.34,20.78,9.03,31.92,10.88c1.13,5.7,2.24,11.4,3.33,17.1c-21.51-2.41-42.3-10.84-59.45-24.05
		c-12.48-9.57-23.06-21.6-30.95-35.2C193.8,358.42,188.71,343.82,186.52,328.79L186.52,328.79z M407.39,332.14
		c5.76-1.12,11.53-2.26,17.3-3.36c-2.7,18.67-9.94,36.66-20.87,52.03c-9.48,13.37-21.71,24.78-35.72,33.3
		c-14.78,9.01-31.53,14.76-48.72,16.7c1.09-5.7,2.2-11.4,3.33-17.1c16.5-2.72,32.3-9.54,45.61-19.66
		c12.92-9.78,23.51-22.62,30.63-37.17C402.8,349.03,405.61,340.7,407.39,332.14L407.39,332.14z"/>
	<path class="st0" d="M552.77,483.09h3.68c7.14,0.59,14.1,3.53,19.44,8.31c3.02,2.75,5.63,6.39,5.8,10.61
		c-4.74,1.59-9.49,3.16-14.23,4.75c-0.12-3.31-2.41-6.13-5.26-7.62c-4.88-2.6-11.18-2.5-15.91,0.4c-2.43,1.5-4.44,4.04-4.51,6.98
		c-0.15,2.64,1.35,5.07,3.32,6.7c3.05,2.55,6.99,3.67,10.86,4.24c6.23,1.12,12.71,2.13,18.21,5.46c4.47,2.7,7.52,7.35,8.78,12.36
		c0.7,2.82,1.07,5.73,1.25,8.63v0.5c-0.13,1.87-0.51,3.72-0.97,5.54c-1.51,5.42-5.06,10.1-9.44,13.55
		c-6.05,4.75-13.86,7.43-21.58,6.79c-6.9-0.56-13.65-3.15-19.09-7.44c-4.25-3.37-7.87-8.2-7.98-13.82
		c4.74-1.57,9.49-3.15,14.22-4.75c0.1,2.34,1.17,4.53,2.77,6.21c2.51,2.68,5.9,4.48,9.47,5.31c3.69,0.86,7.59,0.01,10.9-1.72
		c2.58-1.36,4.96-3.33,6.32-5.96c1.48-2.8,1.19-6.35-0.39-9.04c-1.55-2.59-4.24-4.24-6.96-5.39c-6.09-2.49-12.65-3.38-18.94-5.19
		c-3.01-0.89-6.03-2.12-8.32-4.33c-2.39-2.32-4.4-5.11-5.47-8.29c-1.06-3.11-1.24-6.44-1.18-9.69c0.15-5.33,2.74-10.36,6.41-14.14
		C538.91,486.95,545.7,483.7,552.77,483.09L552.77,483.09z M354.59,483.99c9.91,0,19.82,0,29.73,0c6.12,0.01,12.23,1.83,17.35,5.18
		c5.81,3.75,10.35,9.43,12.71,15.94c2.13,5.81,2.48,12.24,1.06,18.25c-1.59,6.83-5.53,13.08-10.98,17.5
		c-4.66,3.81-10.41,6.27-16.39,6.98c-2.37,0.3-4.76,0.23-7.14,0.23c-4.03,0-8.07,0-12.1,0c0,7.11,0,14.23,0,21.35
		c-4.74,0-9.49,0-14.23,0C354.6,540.94,354.59,512.46,354.59,483.99L354.59,483.99z M368.82,533.84L368.82,533.84
		c5.16,0,10.33,0,15.49,0c3.9-0.01,7.78-1.34,10.85-3.75c3.65-2.81,6.13-7.1,6.72-11.67c0.68-4.74-0.7-9.72-3.7-13.45
		c-3.22-4.08-8.3-6.63-13.51-6.71c-5.28-0.02-10.57,0-15.85-0.01C368.82,510.1,368.82,521.97,368.82,533.84L368.82,533.84z
		 M57.03,485.92c8.9-2.79,18.72-2.54,27.47,0.7c5.78,2.12,11.07,5.53,15.4,9.9c-3.35,3.35-6.7,6.71-10.05,10.06
		c-3.94-3.92-9.02-6.69-14.48-7.78c-6.45-1.31-13.34-0.32-19.13,2.81c-5.19,2.78-9.49,7.23-12.08,12.52
		c-2.87,5.8-3.64,12.58-2.21,18.88c1.4,6.31,5.05,12.07,10.12,16.06c4.49,3.56,10.08,5.71,15.81,6.06
		c8.07,0.58,16.28-2.55,21.97-8.29c3.35,3.35,6.7,6.71,10.06,10.06c-7.74,7.9-18.71,12.49-29.76,12.52
		c-10.11,0.17-20.2-3.5-27.91-10.04c-7.61-6.38-12.9-15.48-14.58-25.28c-1.79-9.98,0.16-20.58,5.41-29.26
		C38.38,495.88,47.08,489,57.03,485.92L57.03,485.92z M162.49,484.27c9.52-1.12,19.39,1.09,27.5,6.21
		c9.47,5.89,16.49,15.61,19,26.49c2.3,9.65,1.06,20.09-3.44,28.93c-4.64,9.24-12.75,16.68-22.36,20.5
		c-9.63,3.88-20.69,4.03-30.43,0.45c-9.91-3.58-18.35-11-23.21-20.34c-4.62-8.76-6-19.15-3.9-28.82c2.04-9.6,7.55-18.4,15.25-24.47
		C147.07,488.3,154.64,485.16,162.49,484.27L162.49,484.27z M164.33,498.39L164.33,498.39c-5.71,0.6-11.21,2.99-15.55,6.75
		c-4.46,3.83-7.68,9.08-9.06,14.8c-1.44,5.93-0.94,12.31,1.45,17.92c2.47,5.86,6.98,10.83,12.57,13.86
		c4.99,2.74,10.81,3.9,16.47,3.32c5.68-0.55,11.16-2.88,15.52-6.56c4.33-3.64,7.55-8.59,9.07-14.04c1.75-6.18,1.34-12.95-1.2-18.86
		c-2.52-5.95-7.13-10.97-12.83-14C175.79,498.89,169.97,497.79,164.33,498.39L164.33,498.39z M237.24,484.01
		c15.07,14.99,30.07,30.06,45.1,45.08c15.04-15.02,30.06-30.06,45.1-45.09c0,28.47,0,56.95,0,85.42c-4.75,0-9.5,0.01-14.25,0
		c0-15.81-0.01-31.63,0-47.44c-10.29,10.27-20.55,20.57-30.85,30.83c-10.28-10.29-20.57-20.57-30.85-30.86
		c0.01,15.82,0,31.65,0,47.47c-4.75-0.01-9.5,0.02-14.26-0.01C237.3,540.94,237.25,512.47,237.24,484.01L237.24,484.01z
		 M469.49,484.12c2.97,6.11,5.55,12.41,8.37,18.59c9.88,22.23,19.76,44.47,29.65,66.71c-5.54,0-11.07,0.01-16.61-0.01
		c-5.54-13.7-11.24-27.34-16.79-41.03c-1.54-3.7-2.99-7.43-4.57-11.11c-7.07,17.39-14.28,34.73-21.33,52.13
		c-5.54,0.03-11.08,0.01-16.62,0.01C444.21,540.99,456.85,512.55,469.49,484.12L469.49,484.12z M167.38,502.02
		c1.38,6.89,2.66,13.79,4.06,20.68c6.85,1.33,13.7,2.65,20.54,4.01c-6.84,1.39-13.71,2.67-20.56,4.02
		c-1.36,6.88-2.68,13.77-4.03,20.66c-1.34-6.88-2.68-13.77-4.02-20.65c-6.87-1.35-13.76-2.66-20.62-4.03
		c6.87-1.35,13.74-2.68,20.61-4.02C164.71,515.8,166.07,508.91,167.38,502.02L167.38,502.02z M166.66,523.87L166.66,523.87
		c-1.97,0.44-2.88,3.07-1.58,4.63c1.28,1.81,4.44,1.31,5.08-0.82C171.02,525.59,168.8,523.21,166.66,523.87L166.66,523.87z"/>
	<path class="st0" d="M228.98,597.15c1.01-2.72,3.82-4.32,6.58-4.71c3.15-0.43,6.67-0.12,9.24,1.94c1.75,1.35,2.73,3.47,2.99,5.63
		c-1.97,0-3.93,0.01-5.89,0c-0.28-0.73-0.49-1.5-1-2.1c-1.18-1.43-3.39-1.65-5-0.89c-1.49,0.71-1.87,2.72-1.19,4.12
		c0.56,1.05,1.65,1.68,2.72,2.12c2.7,1.11,5.65,1.76,8.09,3.45c3.35,2.4,3.67,7.68,1.11,10.77c-1.45,1.76-3.68,2.67-5.89,2.99h-3.26
		c-2.13-0.28-4.28-0.95-5.94-2.36c-1.76-1.42-2.75-3.59-2.99-5.81c1.94,0,3.89-0.02,5.83-0.01c0.3,1.34,0.94,2.71,2.21,3.38
		c1.36,0.68,3.14,0.76,4.47-0.05c1.86-1.22,1.78-4.3-0.08-5.49c-3.21-2.1-7.46-2.21-10.34-4.88
		C228.41,603.25,228.03,599.86,228.98,597.15L228.98,597.15z M368.28,594.66c5.22-3.61,12.95-3.12,17.53,1.33
		c5.42,5.17,5.61,14.64,0.62,20.16c-2.2,2.46-5.38,3.94-8.64,4.3h-3.05c-3.3-0.33-6.51-1.83-8.73-4.32
		C360.52,610.11,361.38,599.28,368.28,594.66L368.28,594.66z M374.1,597.58L374.1,597.58c-1.85,0.42-3.51,1.57-4.53,3.17
		c-1.49,2.26-1.75,5.13-1.34,7.76c0.42,2.68,2.12,5.27,4.71,6.28c2.89,1.13,6.51,0.74,8.81-1.45c1.89-1.8,2.68-4.49,2.62-7.04
		c0.03-2.54-0.79-5.2-2.69-6.96C379.69,597.47,376.71,596.98,374.1,597.58L374.1,597.58z M132.87,592.66c1.97,0.02,3.93,0,5.9,0.02
		c2.45,7.27,4.91,14.54,7.37,21.81c2.49-7.27,4.94-14.56,7.43-21.83c1.97,0,3.93,0,5.89,0c-3.26,9.19-6.49,18.39-9.78,27.58
		c-2.35-0.01-4.7,0-7.05,0C139.38,611.05,136.14,601.85,132.87,592.66L132.87,592.66z M270.14,592.66c6.9,0.01,13.79,0,20.69,0
		c0,1.46,0,2.92,0,4.38c-2.54,0-5.08,0-7.62,0c0,7.73,0,15.46,0,23.19c-1.84,0-3.67,0-5.51,0c-0.01-7.73,0-15.46,0-23.19
		c-2.52,0-5.04,0-7.55,0C270.14,595.58,270.14,594.12,270.14,592.66L270.14,592.66z M322.78,592.78c3.52-0.74,7.39-0.5,10.6,1.23
		c2.87,1.53,4.92,4.38,5.61,7.55c-1.92,0.01-3.83,0-5.74,0.01c-2.11-4.78-9.25-5.46-12.65-1.75c-2.3,2.49-2.65,6.2-2.01,9.4
		c0.51,2.61,2.36,4.96,4.91,5.84c2.72,0.93,5.99,0.81,8.33-0.99c1.66-1.2,2.58-3.12,3.04-5.07c-3.12-0.03-6.25,0-9.37-0.02
		c-0.01-1.31-0.01-2.63,0-3.94c4.65,0,9.3,0,13.94,0c-0.03,1.79,0.06,3.58-0.04,5.37c-0.89,4.55-4.53,8.38-9,9.54
		c-4.64,1.15-10.03,0.37-13.57-3.04c-4.19-4-5.02-10.56-3.23-15.88C314.98,596.94,318.56,593.7,322.78,592.78L322.78,592.78z
		 M413.87,592.66c5.48,0.01,10.96-0.01,16.43,0.01c-0.01,1.46,0,2.91,0,4.37c-3.65,0.01-7.29,0-10.94,0.01c0,2.38,0,4.75,0,7.13
		c3.26,0,6.51,0,9.78,0c0,1.4-0.01,2.8,0.02,4.2c-3.26,0.07-6.53,0.01-9.8,0.03c0.03,2.48-0.07,4.97,0.06,7.45
		c3.63-0.06,7.26-0.01,10.89-0.02c0,1.46,0,2.93,0,4.4c-5.48,0-10.96,0-16.43,0C413.87,611.04,413.87,601.85,413.87,592.66
		L413.87,592.66z M454.09,592.66c3.45,0.01,6.91-0.01,10.36,0.01c3.33,0.06,6.76,0.97,9.36,3.12c2.5,2.02,3.98,5.1,4.37,8.26
		c0.41,3.35,0.01,6.9-1.72,9.85c-1.63,2.86-4.5,4.87-7.65,5.72c-2.39,0.7-4.9,0.63-7.36,0.62c-2.46,0-4.91,0-7.36,0
		C454.09,611.04,454.08,601.85,454.09,592.66L454.09,592.66z M459.58,597.47L459.58,597.47c-0.01,5.95,0,11.9,0,17.85
		c2.86-0.06,5.87,0.33,8.57-0.89c2.36-1.01,4.04-3.32,4.43-5.84c0.6-3.39-0.11-7.45-3.13-9.5
		C466.57,597.05,462.89,597.5,459.58,597.47L459.58,597.47z M190.28,592.99c2.1-0.01,4.2-0.01,6.3,0
		c3.36,9.09,6.74,18.17,10.11,27.25c-1.94,0-3.88,0.01-5.82,0c-0.63-1.84-1.28-3.68-1.9-5.52c-3.69-0.02-7.38-0.02-11.07,0
		c-0.64,1.85-1.3,3.69-1.94,5.53c-1.94,0.01-3.88,0-5.82,0C183.51,611.15,186.89,602.06,190.28,592.99L190.28,592.99z
		 M193.41,598.86L193.41,598.86c-1.36,3.87-2.68,7.75-4.07,11.61c2.7,0.09,5.41,0.01,8.11,0.04
		C196.14,606.61,194.72,602.75,193.41,598.86L193.41,598.86z"/>
</g>
</svg>
