<svg xmlns="http://www.w3.org/2000/svg" width="123" height="51.507"><g data-name="WBos Logo"><g data-name="Layer 1"><path data-name="Path 218" d="M9.996 48.496v2.446a.546.546 0 0 1-.536.546.556.556 0 0 1-.555-.546v-2.446a1.043 1.043 0 0 0-2.086 0v2.615a.624.624 0 0 1-.517.322h-.1a.556.556 0 0 1-.439-.536v-3.972a.546.546 0 0 1 1.033-.244 2.134 2.134 0 0 1 2.7.4 2.105 2.105 0 0 1 1.608-.711 2.144 2.144 0 0 1 2.125 2.154v2.417a.546.546 0 0 1-.546.546.556.556 0 0 1-.546-.546v-2.416a1.053 1.053 0 0 0-1.033-1.053 1.072 1.072 0 0 0-1.111 1.023Z" fill="#f58552"/><path data-name="Path 219" d="M27.967 48.944v1.949a.546.546 0 0 1-.536.546.556.556 0 0 1-.536-.439 2.368 2.368 0 0 1-3.1-.3 2.612 2.612 0 0 1-.7-1.793 2.583 2.583 0 0 1 .7-1.8 2.32 2.32 0 0 1 3.1-.3.556.556 0 0 1 .536-.448.546.546 0 0 1 .536.556Zm-1.082 0a1.511 1.511 0 0 0-.4-1.053 1.247 1.247 0 0 0-.975-.419 1.208 1.208 0 0 0-.975.419 1.5 1.5 0 0 0-.39 1.053 1.54 1.54 0 0 0 .39 1.053 1.3 1.3 0 0 0 .975.4 1.335 1.335 0 0 0 .975-.4 1.54 1.54 0 0 0 .4-1.053Z" fill="#f58552"/><path data-name="Path 220" d="M38.162 50.923v-6.072a.565.565 0 0 1 .565-.565.585.585 0 0 1 .575.565v3.538l2.1-2.1a.575.575 0 0 1 .8 0 .556.556 0 0 1 0 .8l-1.54 1.53 1.579 1.949a.546.546 0 0 1-.088.789.5.5 0 0 1-.351.136.526.526 0 0 1-.429-.2l-1.515-1.827-.556.565v.9a.575.575 0 0 1-.575.565.556.556 0 0 1-.565-.565Z" fill="#f58552"/><path data-name="Path 221" d="M51.465 48.934a2.534 2.534 0 0 1 2.49-2.563 2.446 2.446 0 0 1 2.466 2.378.273.273 0 0 1 0 .088.487.487 0 0 1-.526.409h-3.27a1.3 1.3 0 0 0 .341.682 1.579 1.579 0 0 0 .975.458 1.667 1.667 0 0 0 1.062-.253.585.585 0 0 1 .77 0 .458.458 0 0 1 0 .663 2.583 2.583 0 0 1-1.832.672 2.534 2.534 0 0 1-2.475-2.534Zm1.16-.507h2.924a1.676 1.676 0 0 0-1.52-1.082 1.442 1.442 0 0 0-1.4 1.082Z" fill="#f58552"/><path data-name="Path 222" d="M66.873 44.325a.575.575 0 0 1 .575.565v6.033a.575.575 0 0 1-1.14 0v-6.072a.575.575 0 0 1 .565-.526Z" fill="#f58552"/><path data-name="Path 223" d="M81.304 48.944v1.949a.556.556 0 0 1-.546.546.575.575 0 0 1-.536-.439 2.319 2.319 0 0 1-1.355.439 2.349 2.349 0 0 1-1.745-.741 2.6 2.6 0 0 1-.692-1.793 2.573 2.573 0 0 1 .692-1.8 2.368 2.368 0 0 1 1.745-.77 2.329 2.329 0 0 1 1.355.448.565.565 0 0 1 .536-.448.556.556 0 0 1 .546.556Zm-1.092 0a1.462 1.462 0 0 0-.4-1.053 1.286 1.286 0 0 0-1.949 0 1.5 1.5 0 0 0-.39 1.053 1.54 1.54 0 0 0 .39 1.053 1.325 1.325 0 0 0 1.949 0 1.5 1.5 0 0 0 .4-1.053Z" fill="#f58552"/><path data-name="Path 224" d="M95.826 48.944v1.949a.556.556 0 0 1-.546.546.575.575 0 0 1-.536-.439 2.32 2.32 0 0 1-1.355.439 2.349 2.349 0 0 1-1.784-.741 2.6 2.6 0 0 1-.692-1.793 2.573 2.573 0 0 1 .692-1.764 2.368 2.368 0 0 1 1.745-.77 2.329 2.329 0 0 1 1.355.448.565.565 0 0 1 .536-.448.556.556 0 0 1 .546.556Zm-1.092 0a1.462 1.462 0 0 0-.4-1.053 1.286 1.286 0 0 0-1.949 0 1.5 1.5 0 0 0-.39 1.053 1.54 1.54 0 0 0 .39 1.053 1.325 1.325 0 0 0 1.949 0 1.5 1.5 0 0 0 .4-1.053Z" fill="#f58552"/><path data-name="Path 225" d="M109.151 46.917a.556.556 0 0 1-.546.546.975.975 0 0 0-.614.185 1.52 1.52 0 0 0-.468.5 3 3 0 0 0-.419.858v1.945a.556.556 0 0 1-1.111 0v-4.034a.556.556 0 0 1 1.111 0v.068a1.432 1.432 0 0 1 .214-.2 2.242 2.242 0 0 1 1.286-.4.526.526 0 0 1 .546.536Z" fill="#f58552"/><path data-name="Path 226" d="M118.449 50.026a.536.536 0 0 1 .77-.078 1.862 1.862 0 0 0 1.121.448 1.423 1.423 0 0 0 .7-.195.448.448 0 0 0 .185-.312.146.146 0 0 0 0-.1.6.6 0 0 0-.136-.127 2.427 2.427 0 0 0-.819-.283 4.181 4.181 0 0 1-.9-.263 1.783 1.783 0 0 1-.7-.595 1.3 1.3 0 0 1-.175-.643 1.452 1.452 0 0 1 .6-1.131 2.222 2.222 0 0 1 1.257-.38 2.651 2.651 0 0 1 1.54.565.565.565 0 0 1 .156.76.536.536 0 0 1-.75.136 1.754 1.754 0 0 0-.975-.37 1.092 1.092 0 0 0-.614.175c-.127.1-.166.185-.166.244a.078.078 0 0 0 0 .078.263.263 0 0 0 .107.1 2.115 2.115 0 0 0 .75.253 3.508 3.508 0 0 1 .975.292 1.657 1.657 0 0 1 .721.6 1.286 1.286 0 0 1 .195.672 1.462 1.462 0 0 1-.643 1.189 2.359 2.359 0 0 1-1.335.409 2.973 2.973 0 0 1-1.813-.7.546.546 0 0 1-.058-.75Z" fill="#f58552"/><path data-name="Path 227" d="M88.343 9.814c6.013 0 10.818 5.224 10.818 11.422s-4.8 11.422-10.818 11.422-10.818-5.223-10.818-11.422S82.369 9.814 88.343 9.814Zm0 20.6c4.659 0 8.576-4.1 8.576-9.181s-3.9-9.229-8.576-9.229-8.586 4.142-8.586 9.229 3.918 9.181 8.586 9.181Z" fill="#fff"/><path data-name="Path 228" d="M106.149 27.903a1.111 1.111 0 0 1 1.587-.139 12.28 12.28 0 0 0 7 2.651 6.89 6.89 0 0 0 4.337-1.394 3.47 3.47 0 0 0 1.774-2.8 3.6 3.6 0 0 0-1.686-2.817 11.364 11.364 0 0 0-4.873-1.686h-.1a13.264 13.264 0 0 1-5.175-1.774 4.766 4.766 0 0 1-2.466-4.1 5.672 5.672 0 0 1 2.466-4.483 9.892 9.892 0 0 1 5.594-1.53c2.924 0 5.039 1.355 6.822 2.466a1.189 1.189 0 0 1 .322 1.589 1.1 1.1 0 0 1-1.53.322c-1.686-1.121-3.362-2.281-5.6-2.281a6.822 6.822 0 0 0-4.337 1.306 3.431 3.431 0 0 0-1.442 2.612 2.758 2.758 0 0 0 1.286 2.261 11.51 11.51 0 0 0 4.668 1.589h.088a15.691 15.691 0 0 1 5.545 1.861 5.721 5.721 0 0 1 2.573 4.668 5.848 5.848 0 0 1-2.612 4.61 9.307 9.307 0 0 1-5.692 1.822 13.878 13.878 0 0 1-8.44-3.265 1.062 1.062 0 0 1-.107-1.491Z" fill="#fff"/><path data-name="Path 229" d="M50.101 20.077V1.14a1.14 1.14 0 1 0-2.281 0v20.1a11.315 11.315 0 0 0 11.23 11.399h1.04a11.257 11.257 0 0 0 9.824-11.364A11.218 11.218 0 0 0 58.872 9.814a10.639 10.639 0 0 0-3.9.74v2.545a8.43 8.43 0 0 1 3.9-.975 8.966 8.966 0 0 1 8.771 9.181 8.771 8.771 0 0 1-17.543 0v-1.228Z" fill="#fff"/><path data-name="Path 230" d="M9.196 32.454a.848.848 0 0 1-.429-.517L.084 11.354A1.15 1.15 0 0 1 .64 9.892a1.111 1.111 0 0 1 1.462.614l7.64 18.137 5.3-12.67a1.223 1.223 0 0 1 2.212 0l5.312 12.67 7.641-18.137a1.15 1.15 0 0 1 1.462-.614 1.131 1.131 0 0 1 .6 1.462l-8.6 20.466a1.306 1.306 0 0 1-.429.565.975.975 0 0 1-.556.234h-.283a1.092 1.092 0 0 1-.9-.7h-.035L16.155 19.15l-5.312 12.67a.166.166 0 0 0-.049.1 1.121 1.121 0 0 1-.975.7 1.365 1.365 0 0 1-.429-.1.283.283 0 0 1-.194-.066Z" fill="#fff"/><path data-name="Path 231" d="M33.795 31.723a1.14 1.14 0 0 1-1.5.565 1.131 1.131 0 0 1-.565-1.5l9.327-20.466a1.131 1.131 0 0 1 1.49-.554 1.131 1.131 0 0 1 .565 1.5Z" fill="#f58552"/></g></g></svg>