<?xml version="1.0" encoding="UTF-8"?> <svg xmlns="http://www.w3.org/2000/svg" xmlns:xlink="http://www.w3.org/1999/xlink" version="1.1" id="Layer_1" x="0px" y="0px" viewBox="0 0 588 300" style="enable-background:new 0 0 588 300;" xml:space="preserve"> <style type="text/css"> .st0{fill:#E77D01;} .st1{fill:#FFFFFF;} </style> <g> <g> <path class="st0" d="M423.4,61.8c3.1,1,5.6,3.1,8.3,4.7c6.8,4.2,13.6,8.5,20.4,12.7c2.3,1.4,3.4,3.4,3.4,6.1c0,2.8,0,5.6,0,8.4 c0,0.3,0,0.6,0,1c1.2-0.2,2.2-0.4,3.3-0.6c3.7-0.7,7.3-1.5,11-2.1c1.3-0.2,2.5-0.1,3.6,0.6c5.3,3.3,10.6,6.6,15.8,9.9 c1.6,1,2.3,2.5,2.3,4.5c0,8.8,0,17.7,0,26.5c0,2.3,0,2.3-2.3,2.3c-1.6,0-1.4,0.2-1.4-1.3c0-8.7,0-17.4,0-26.1 c0-1.6-0.5-2.7-1.9-3.5c-3.9-2.3-7.7-4.8-11.6-7.2c-0.5-0.3-1.1-0.7-1.8-0.3c-0.7,0.4-0.8,1-0.8,1.7c0,9.1,0,18.2,0,27.3 c0,0.3,0,0.7,0,1.1c-1.2,0-2.3,0-3.6,0c0-0.3,0-0.6,0-0.9c0-9.2,0-18.4,0-27.6c0-1,0.3-2,0.5-3c-0.9,0.2-1.8,0.3-2.7,0.5 c-6,1.2-12.1,2.3-18.1,3.5c-0.7,0.1-0.8,0.4-0.8,1.1c0,8.5,0,16.9,0,25.4c0,0.3,0,0.7,0,1.1c-1.2,0-2.3,0-3.5,0c0-0.3,0-0.6,0-0.8 c0-9,0-18.1,0-27.1c0-1.5,0.7-2.4,2.1-2.7c1.8-0.4,3.6-0.7,5.5-1.1c0.5-0.1,0.7-0.3,0.7-0.8c0-3.3,0-6.5,0-9.8 c0-1.2-0.6-1.9-1.6-2.5c-5.2-3.2-10.5-6.5-15.7-9.8c-2.8-1.8-5.7-3.5-8.5-5.3c-0.5-0.3-1.1-0.6-1.7-0.2c-0.6,0.4-0.7,0.9-0.7,1.6 c0,19.2,0,38.4,0,57.6c0,0.3,0,0.7,0,1.1c-1.2,0-2.3,0-3.5,0c0-20.3,0-40.5,0-60.9c-0.2,0.1-0.5,0.1-0.7,0.2c-8,3-16,6-23.9,9 c-0.6,0.2-0.8,0.6-0.8,1.2c0,16.4,0,32.9,0,49.3c0,0.3,0,0.7,0,1.1c-1.6,0-3.1,0-4.6,0c-0.2,0-0.4-0.3-0.6-0.5 c-5.3-6.8-10.5-13.7-15.8-20.5c-1.4-1.8-3.1-1.9-4.5-0.2c-6.1,6.9-12.1,13.7-18.1,20.6c-0.4,0.4-0.7,0.6-1.3,0.6c-1.3,0-2.5,0-4,0 c6.7-7.6,13.3-15.1,19.9-22.6c0-0.1-0.1-0.1-0.1-0.2c-0.3,0-0.6,0-0.8,0c-11.1,0-22.2,0-33.2,0c-1,0-1.8,0.3-2.4,1.1 c-6.2,7.1-12.4,14.1-18.6,21.2c-0.4,0.4-0.8,0.6-1.4,0.6c-1.6,0-3.3,0-5,0c0-7.8,0-15.5,0-23.3c-0.4,0-0.7,0-1,0 c-10.3,0-20.5,0-30.8,0c-1.1,0-1.1,0-1.1,1.1c0,7,0,14.1,0,21.1c0,0.3,0,0.7,0,1.1c-0.4,0-0.7,0-1,0c-5.8,0-11.6,0-17.3,0 c-0.8,0-1.1-0.3-1.4-0.9c-3.7-8.7-8.7-16.5-15.2-23.3c-11-11.5-24.3-18.9-39.8-22.4c-6.7-1.5-13.6-2.1-20.4-1.7 c-15.1,0.8-28.8,5.5-41.1,14.3c-13.7,9.8-23.2,22.7-28.7,38.6c-0.4,1.1-0.6,2.1-1,3.2c-0.1,0.2-0.3,0.5-0.5,0.5 c-1.2,0-2.5,0-3.9,0c0.5-1.5,0.8-2.9,1.3-4.3c3.9-11.8,10.1-22.2,18.7-31.2c10.6-11,23.3-18.6,38.1-22.5c4.4-1.2,8.9-2.1,13.5-2.3 c3.9-0.2,7.8-0.5,11.7-0.3c14.6,0.8,28.2,5.1,40.5,13.1c13.2,8.6,23,20.1,29.6,34.3c0.3,0.6,0.6,0.9,1.3,0.9c3.7,0,7.3,0,11,0 c0.8,0,1.1-0.2,1.1-1c0-5.7,0-11.5,0-17.2c0-0.8-0.2-1-1-1c-1.1,0.1-1.9-0.4-2.4-1.4c-0.5-1-0.3-2,0.5-2.8 c6.2-7,12.5-14.1,18.7-21.1c1.5-1.7,3.4-2.6,5.7-2.6c13.1,0,26.1,0,39.2,0c2.1,0,3.8,0.8,5.1,2.5c5.7,7.2,11.4,14.4,17.1,21.6 c0.4,0.5,0.9,0.7,1.5,0.7c6.3,0,12.6,0,18.9,0c2.2,0,3.9,0.8,5.2,2.5c4.7,6.2,9.5,12.3,14.2,18.5c0.2,0.2,0.4,0.4,0.5,0.7 c0.1,0,0.2,0,0.2,0c0-0.3,0-0.6,0-1c0-15.3,0-30.7,0-46c0-1.7,0.5-2.3,2-2.9c9.2-3.5,18.3-6.9,27.5-10.4c0.5-0.2,1-0.4,1.6-0.6 C422.6,61.8,423,61.8,423.4,61.8z M268.9,100.4c0.4,0,0.6,0,0.8,0c11.3,0,22.6,0,33.9,0c0.9,0,1.6-0.4,2.2-1.1 c5.6-6.3,11.2-12.7,16.8-19c0.1-0.2,0.3-0.4,0.5-0.7c-0.5,0-0.8,0-1.1,0c-10.9,0-21.8,0-32.7,0c-1.5,0-2.6,0.5-3.6,1.6 c-4.7,5.3-9.4,10.6-14.1,16C270.8,98.3,269.9,99.3,268.9,100.4z M346.2,100.9c-0.3-0.4-0.5-0.7-0.7-0.9 c-4.9-6.1-9.7-12.2-14.6-18.4c-1.3-1.6-3-1.7-4.4-0.1c-3.1,3.5-6.3,7-9.4,10.6c-2.9,3.3-5.8,6.5-8.7,9.8c-0.4,0.4-0.8,0.7-0.8,1.4 c0,6.7,0,13.4,0,20c0,0.2,0,0.5,0.1,0.9c0.4-0.4,0.6-0.6,0.8-0.9c2.6-2.9,5.1-5.8,7.7-8.7c3.3-3.8,6.6-7.5,9.9-11.3 c1.5-1.7,3.2-2.5,5.4-2.5c4.5,0.1,8.9,0,13.4,0C345.4,100.9,345.7,100.9,346.2,100.9z"></path> <path class="st0" d="M102.5,182.7c1.3,0,2.6,0,3.8,0c0.2,0,0.5,0.4,0.6,0.7c1.7,4.5,3.7,8.9,6.3,13c11.4,18.3,27.4,30.3,48.4,35.6 c5.3,1.3,10.7,2,16.2,2.1c21.5,0.3,40-7,55.7-21.6c8.6-8.1,14.9-17.8,19.1-28.8c0.3-0.7,0.6-1,1.4-1c78.8,0,157.6,0,236.4,0 c1.1,0,1.1,0,1.1,1.1c0,0.8,0,1.5,0,2.3c0,0.5-0.2,0.7-0.7,0.6c-0.3,0-0.6,0-0.9,0c-39.6,0-79.3,0-118.9,0c-38,0-76,0-114,0 c-0.9,0-1.4,0.2-1.8,1.1c-4.1,10-10.1,18.8-17.8,26.4c-11.6,11.4-25.4,18.9-41.4,22.3c-6.9,1.5-13.9,1.9-20.9,1.5 c-19.8-1.2-37-8.7-51.5-22.3c-9.6-9-16.5-19.8-20.9-32.1c-0.1-0.2-0.1-0.5-0.2-0.7C102.5,182.9,102.5,182.8,102.5,182.7z"></path> </g> <g> <path class="st1" d="M72.7,154.3c3.4,1.6,5.3,5,5.3,9c0,5.9-5.1,10.5-11.5,10.5H51.1v-37.5h15.1c6.3,0,10.9,4.1,10.9,9.6 C77,149.3,75.4,152.5,72.7,154.3L72.7,154.3z M65.8,142h-8.7v9.8h8.7c3,0,5.1-2.1,5.1-4.9C70.9,144.1,68.7,142,65.8,142z M71.7,162.7c0-3-2.4-5.3-5.6-5.3h-9V168h9C69.4,168,71.7,165.7,71.7,162.7z"></path> <path class="st1" d="M82.9,159.4c0-8.7,6.6-15.2,15.5-15.2c8.8,0,15.5,6.5,15.5,15.2c0,8.7-6.6,15.2-15.5,15.2 C89.5,174.5,82.9,168.1,82.9,159.4z M107.7,159.4c0-5.5-3.9-9.5-9.4-9.5c-5.5,0-9.4,4-9.4,9.5s3.9,9.5,9.4,9.5 C103.8,168.9,107.7,164.9,107.7,159.4z"></path> <path class="st1" d="M147.5,161.4H124c0.7,4.7,4.1,7.6,8.8,7.6c3.5,0,6.3-1.6,7.8-4.2h6.3c-2.3,6.1-7.6,9.8-14,9.8 c-8.5,0-14.9-6.5-14.9-15.2c0-8.7,6.4-15.2,14.9-15.2c8.8,0,14.7,6.8,14.7,15.2C147.6,160.1,147.5,160.8,147.5,161.4z M124.2,156.6h17.5c-1.1-4.4-4.4-7-8.8-7C128.4,149.6,125.1,152.3,124.2,156.6z"></path> <path class="st1" d="M153.9,134.6h5.9v39.3h-5.9V134.6z"></path> <path class="st1" d="M195.7,161.4h-23.5c0.7,4.7,4.1,7.6,8.8,7.6c3.5,0,6.3-1.6,7.8-4.2h6.3c-2.3,6.1-7.6,9.8-14,9.8 c-8.5,0-14.9-6.5-14.9-15.2c0-8.7,6.4-15.2,14.9-15.2c8.8,0,14.7,6.8,14.7,15.2C195.8,160.1,195.7,160.8,195.7,161.4z M172.3,156.6h17.5c-1.1-4.4-4.4-7-8.8-7C176.6,149.6,173.3,152.3,172.3,156.6z"></path> <path class="st1" d="M217.4,144.3c6.8,0,11,5,11,12.2v17.4h-5.9v-16.2c0-5.3-2.3-8-6.6-8c-4.5,0-7.8,3.7-7.8,8.8v15.5h-5.9v-28.9 h4.1l1.2,4C209.6,146,213.2,144.3,217.4,144.3L217.4,144.3z"></path> <path class="st1" d="M234.3,164.7h5.8c0.2,3.1,2.7,4.7,6.2,4.7c3.2,0,5.6-1.4,5.6-3.8c0-2.7-3.1-3.4-6.6-4 c-4.8-0.8-10.5-1.9-10.5-8.6c0-5.2,4.5-8.7,11.2-8.7c6.7,0,11.1,3.7,11.2,9.3h-5.6c-0.1-2.8-2.2-4.2-5.7-4.2 c-3.3,0-5.3,1.4-5.3,3.5c0,2.6,3,3.1,6.4,3.6c4.9,0.8,10.8,1.8,10.8,8.9c0,5.6-4.7,9.3-11.7,9.3 C239.1,174.5,234.4,170.7,234.3,164.7z"></path> <path class="st1" d="M281.4,161.3v-1h6.1v0.7c0,4.5,3,7.7,7.2,7.7c4.1,0,7.1-3.1,7.1-7.7v-24.6h6.1v24.9c0,7.7-5.4,13.3-13.1,13.3 C287.1,174.5,281.4,169,281.4,161.3z"></path> <path class="st1" d="M314,159.4c0-8.7,6.6-15.2,15.5-15.2c8.8,0,15.5,6.5,15.5,15.2c0,8.7-6.6,15.2-15.5,15.2 C320.6,174.5,314,168.1,314,159.4z M338.9,159.4c0-5.5-3.9-9.5-9.4-9.5c-5.5,0-9.4,4-9.4,9.5s3.9,9.5,9.4,9.5 C335,168.9,338.9,164.9,338.9,159.4z"></path> <path class="st1" d="M367.7,144.8v5.6h-3.1c-4.9,0-7.4,2.8-7.4,8v15.4h-5.9v-28.9h4l1,3.9c2.1-2.7,4.9-4.1,8.9-4.1H367.7z"></path> <path class="st1" d="M388.8,144.8v5.6h-3.1c-4.9,0-7.4,2.8-7.4,8v15.4h-5.9v-28.9h4l1,3.9c2.1-2.7,4.9-4.1,8.9-4.1H388.8z"></path> <path class="st1" d="M393.4,134.3h6.1v6.1h-6.1V134.3z M393.5,144.9h5.9v28.9h-5.9V144.9z"></path> <path class="st1" d="M424.1,168.4v5.4h-4.4c-6.3,0-10.2-3.9-10.2-10.3V150h-5.2v-1.1l10.1-10.7h1v6.8h8.6v5.1h-8.6v13.1 c0,3.4,1.9,5.4,5.4,5.4H424.1z"></path> <path class="st1" d="M427.6,164.7h5.8c0.2,3.1,2.7,4.7,6.2,4.7c3.2,0,5.6-1.4,5.6-3.8c0-2.7-3.1-3.4-6.6-4 c-4.8-0.8-10.5-1.9-10.5-8.6c0-5.2,4.5-8.7,11.2-8.7c6.7,0,11.1,3.7,11.2,9.3h-5.6c-0.1-2.8-2.2-4.2-5.7-4.2 c-3.3,0-5.3,1.4-5.3,3.5c0,2.6,3,3.1,6.4,3.6c4.9,0.8,10.8,1.8,10.8,8.9c0,5.6-4.7,9.3-11.7,9.3 C432.4,174.5,427.8,170.7,427.6,164.7z"></path> <path class="st1" d="M500.1,155.5v18.4h-5.9v-16.9c0-4.7-2-7.3-5.6-7.3c-3.8,0-6.8,3.5-6.8,8.4v15.8h-5.8v-16.9 c0-4.7-2-7.3-5.6-7.3c-3.8,0-6.8,3.5-6.8,8.4v15.8h-5.9v-28.9h4.2l1,3.7c2.2-2.7,5.5-4.4,9-4.4c3.9,0,7,1.9,8.7,5.1 c2.1-3.1,5.6-5.1,9.4-5.1C496,144.3,500.1,148.9,500.1,155.5z"></path> <path class="st1" d="M536.9,144.9v28.9h-4.8l-0.6-3.5c-2.6,2.6-6.3,4.2-10.5,4.2c-8.6,0-15.1-6.5-15.1-15.2 c0-8.7,6.4-15.1,15.1-15.1c4.3,0,8,1.6,10.6,4.3l0.7-3.6H536.9z M531,159.4c0-5.5-4-9.5-9.4-9.5c-5.5,0-9.5,4.1-9.5,9.5 s4,9.5,9.5,9.5C527,168.9,531,164.8,531,159.4z"></path> </g> <g> <path class="st1" d="M312,210.8v11.4h-2.8l0-10.5c0-3.2-1.5-5.1-4-5.1c-2.6,0-4.7,2.5-4.7,5.8v9.9h-2.7v-10.5 c0-3.2-1.5-5.1-4.1-5.1c-2.6,0-4.7,2.5-4.7,5.8v9.9h-2.8v-17.8h2l0.5,2.4c1.4-1.8,3.4-2.8,5.7-2.8c2.5,0,4.5,1.3,5.5,3.4 c1.3-2.1,3.6-3.4,6-3.4C309.5,204,312,206.8,312,210.8z"></path> <path class="st1" d="M334.8,204.4v17.8h-2.3l-0.3-2.7c-1.6,1.9-4.1,3.1-7,3.1c-5.3,0-9.2-4-9.2-9.3c0-5.3,3.9-9.3,9.2-9.3 c2.9,0,5.4,1.2,7,3.1l0.3-2.7H334.8z M332,213.3c0-3.8-2.8-6.6-6.5-6.6c-3.8,0-6.6,2.8-6.6,6.6c0,3.7,2.8,6.6,6.6,6.6 C329.2,219.8,332,217.1,332,213.3z"></path> <path class="st1" d="M348.7,214.2h-2.5v8h-2.8V198h2.8v13.6h2.6l5.5-7.2h3.4l-6.5,8.5l7.1,9.3h-3.5L348.7,214.2z"></path> <path class="st1" d="M382.7,214.4h-15.2c0.4,3.3,2.9,5.5,6.3,5.5c2.5,0,4.4-1.1,5.5-3.1h3c-1.5,3.7-4.6,5.8-8.5,5.8 c-5.2,0-9.1-4-9.1-9.3c0-5.3,3.9-9.3,9.1-9.3c5.4,0,9,4.2,9,9.4C382.7,213.7,382.7,214,382.7,214.4z M367.6,211.8h12.4 c-0.6-3.2-3-5.1-6.2-5.1C370.5,206.6,368.1,208.7,367.6,211.8z"></path> <path class="st1" d="M392.2,198h2.8v24.1h-2.8V198z"></path> <path class="st1" d="M422,204.4v17.8h-2.3l-0.3-2.7c-1.6,1.9-4.1,3.1-7,3.1c-5.3,0-9.2-4-9.2-9.3c0-5.3,3.9-9.3,9.2-9.3 c2.9,0,5.4,1.2,7,3.1l0.3-2.7H422z M419.1,213.3c0-3.8-2.8-6.6-6.5-6.6c-3.8,0-6.6,2.8-6.6,6.6c0,3.7,2.8,6.6,6.6,6.6 C416.3,219.8,419.1,217.1,419.1,213.3z"></path> <path class="st1" d="M446.3,204.4v17.8H444l-0.3-2.7c-1.6,1.9-4.1,3.1-7,3.1c-5.3,0-9.2-4-9.2-9.3c0-5.3,3.9-9.3,9.2-9.3 c2.9,0,5.4,1.2,7,3.1l0.3-2.7H446.3z M443.5,213.3c0-3.8-2.8-6.6-6.5-6.6c-3.8,0-6.6,2.8-6.6,6.6c0,3.7,2.8,6.6,6.6,6.6 C440.7,219.8,443.5,217.1,443.5,213.3z"></path> <path class="st1" d="M464.3,204.3v2.7h-1.8c-3.3,0-5.1,2.1-5.1,5.6v9.7h-2.8v-17.8h2l0.5,2.7c1.3-1.8,3.1-2.8,5.7-2.8H464.3z"></path> <path class="st1" d="M477.4,222.5c-4.2,0-7-2.3-7.1-5.8h2.7c0.1,2.1,2,3.3,4.5,3.3c2.4,0,4.2-1,4.2-2.8c0-2.1-2.2-2.5-4.6-2.9 c-3-0.5-6.4-1.1-6.4-5.2c0-3.1,2.7-5.2,6.7-5.2s6.6,2.1,6.7,5.5h-2.7c-0.1-1.9-1.6-3-4.1-3c-2.4,0-3.9,1-3.9,2.6 c0,1.9,2,2.2,4.4,2.6c3.1,0.5,6.7,1.1,6.7,5.4C484.4,220.4,481.6,222.6,477.4,222.5L477.4,222.5z"></path> </g> </g> </svg> 