<?xml version="1.0" encoding="UTF-8"?>
<svg width="156px" height="30px" viewBox="0 0 156 30" version="1.1" xmlns="http://www.w3.org/2000/svg" xmlns:xlink="http://www.w3.org/1999/xlink">
    <!-- Generator: Sketch 56.2 (81672) - https://sketch.com -->
    <title>Group 11 Copy</title>
    <desc>Created with Sketch.</desc>
    <defs>
        <polygon id="path-1" points="0 30 156 30 156 0 0 0"></polygon>
    </defs>
    <g id="Symbols" stroke="none" stroke-width="1" fill="none" fill-rule="evenodd">
        <g id="Menu-Mobile" transform="translate(-110.000000, -25.000000)">
            <g id="Group-5">
                <g id="Group-11-Copy" transform="translate(110.000000, 25.000000)">
                    <path d="M8.34791718,9.03367436 C4.93424272,9.03367436 2.70369464,11.4268552 2.70369464,15.1685663 C2.70369464,18.910018 4.93424272,21.3031989 8.34791718,21.3031989 C11.7613317,21.3031989 13.9918797,18.8765706 13.9918797,15.1685663 C13.9918797,11.460562 11.7613317,9.03367436 8.34791718,9.03367436 L8.34791718,9.03367436 Z M2.90647174,9.20194894 C4.49489234,7.2806629 6.45533093,6.33713255 8.85485992,6.33713255 C13.6539179,6.33713255 17,9.977464 17,15.1685663 C17,20.3596686 13.6539179,24 8.85485992,24 C6.35368241,24 4.29211524,23.0225036 2.90647174,21.1686311 L2.90647174,23.5955187 L0,23.5955187 L0,0 L2.90647174,0 L2.90647174,9.20194894 Z" id="Fill-1" fill="#322F31"></path>
                    <path d="M39.6998956,16.0648542 C37.9999267,16.2712193 36.9999451,17.2330231 36.9999451,18.6413787 C36.9999451,20.1873991 38.1665904,21.2179032 40.1001447,21.2179032 C42.899837,21.2179032 45.1331294,19.1566308 45.1331294,16.6490708 L45.1331294,15.3778515 L39.6998956,16.0648542 Z M41.2998663,6 C45.7333748,6 48,8.16432283 48,12.424004 L48,23.5880626 L45.1331294,23.5880626 L45.1331294,21.1489387 C43.9667405,22.93541 42.0334426,24 39.6665629,24 C36.2663687,24 34,21.8015913 34,18.6070286 C34,15.6526526 36.0330397,13.6603447 39.3665684,13.3168433 L44.0664823,12.8359414 C44.8333913,12.7672411 45.1331294,12.49244 45.1331294,11.9084877 L45.1331294,11.4619359 C45.1331294,9.67572884 43.7664878,8.64522474 41.4331972,8.64522474 C38.9999084,8.64522474 37.4666032,9.74442911 37.1330195,11.736737 L34.5997326,10.3283814 C35.2999762,7.51140601 37.6330104,6 41.2998663,6 L41.2998663,6 Z" id="Fill-3" fill="#322F31"></path>
                    <mask id="mask-2" fill="white">
                        <use xlink:href="#path-1"></use>
                    </mask>
                    <g id="Clip-6"></g>
                    <polygon id="Fill-5" fill="#322F31" mask="url(#mask-2)" points="66 24 69 24 69 0 66 0"></polygon>
                    <polygon id="Fill-7" fill="#322F31" mask="url(#mask-2)" points="88 30 91 30 91 6 88 6"></polygon>
                    <path d="M116.999868,8.85106133 C113.427506,8.85106133 111.057382,11.4275858 111.057382,15 C111.057382,18.5726784 113.427506,21.1489387 116.999868,21.1489387 C120.572494,21.1489387 122.942618,18.5726784 122.942618,15 C122.942618,11.4275858 120.572494,8.85106133 116.999868,8.85106133 M116.999868,6 C122.152577,6 126,9.84747952 126,15 C126,20.1525205 122.152577,24 116.999868,24 C111.847423,24 108,20.1525205 108,15 C108,9.84747952 111.847423,6 116.999868,6" id="Fill-8" fill="#322F31" mask="url(#mask-2)"></path>
                    <path d="M141,6.42185599 L143.84887,6.42185599 L143.84887,9.12903565 C145.119112,6.98433063 147.144212,6 149.581198,6 C153.631662,6 156,8.74233433 156,13.4179048 L156,24 L152.979247,24 L152.979247,13.5236393 C152.979247,10.5000676 151.469003,8.81264366 148.757428,8.81264366 C145.565057,8.81264366 143.952105,11.1680062 143.952105,15.8086925 L143.952105,24 L141,24 L141,6.42185599 Z" id="Fill-9" fill="#322F31" mask="url(#mask-2)"></path>
                    <polygon id="Fill-10" fill="#322F31" mask="url(#mask-2)" points="88 3 91 3 91 0 88 0"></polygon>
                </g>
            </g>
        </g>
    </g>
</svg>