<?xml version="1.0" encoding="UTF-8"?>
<svg id="Logo_Wonen_met_Rutger" xmlns="http://www.w3.org/2000/svg" version="1.1" viewBox="0 0 1065 274">
  <!-- Generator: Adobe Illustrator 29.5.1, SVG Export Plug-In . SVG Version: 2.1.0 Build 141)  -->
  <defs>
    <style>
      .st0 {
        fill: #ffc94a;
      }

      .st1 {
        fill: #fff;
      }
    </style>
  </defs>
  <path id="Embleem" class="st0" d="M826.2,231h194.1V42.8h-4c-62.3,0-127.8,0-190.1-.2v188.4ZM1036.4,246.5h-226.5V27.5h226.4v219.1l.1-.1ZM912.4,149.8h4.2c5.9-.2,11.8.1,17.6-.7,9.5-1.3,15.1-9.3,14.7-19.7-.4-9.3-7.3-17.3-16.3-17.6-10.9-.4-21.9,0-32.8,0-.2,0-.5.2-.7.4,0,.4-.1.7-.1,1.1v83c0,2.2.9,2.5,2.8,2.5h48.3c.6,0,1.2,0,2.4-.2-13.5-16.3-26.6-32.3-40.1-48.7M930.4,96.1c14.1,0,24.3,6.6,31.1,18.7,8.6,15.4,3.6,34.9-11.3,44.4-1.9,1.2-3.9,2.2-6.1,3.4,2.8,3.5,5.5,6.7,8.1,10,6.2,7.7,12.5,15.5,18.8,23.2.9,1.1,2.2,2.6,3.4,2.8,3.3.4,6.6.1,9.9.1v-120.4h-121.6v120.3h19.7v-102.5h48ZM1000.6,62.8v148.4h-154.8V62.8s154.8,0,154.8,0Z"/>
  <g id="Rutger">
    <path class="st1" d="M323.5,106.4c2.4-.4,4.9-.8,7.6-1.2,2.7-.4,5.4-.6,8.2-.8,2.7-.2,5.4-.4,7.9-.5,2.6,0,4.9-.2,7.1-.2,5,0,10,.5,14.9,1.4s9.2,2.5,13.1,4.8,6.9,5.4,9.3,9.3c2.3,4,3.5,8.9,3.5,14.9,0,8.8-2.1,16-6.2,21.6s-9.6,9.4-16.5,11.6l7.6,4.8,24.7,41.2h-24.4l-24.5-42.3-11.1-2v44.3h-21.1v-106.9h-.1ZM355.9,122.6c-2.2,0-4.3,0-6.4.2-2.1.1-3.7.3-4.9.6v31.3h8.9c5.9,0,10.5-1.3,14-4s5.3-7.1,5.3-13.3-1.4-8.2-4.3-10.9c-2.9-2.6-7.1-3.9-12.6-3.9h0Z"/>
    <path class="st1" d="M435.2,136.1v43.8c0,6.3.7,10.8,2.2,13.6s4.4,4.2,8.7,4.2,7-1.1,9.5-3.4c2.5-2.3,4.4-5,5.6-8.3v-49.8h20v53.7c0,4.2.2,8.4.6,12.4.4,4.1,1,7.7,1.8,11h-15.1l-3.5-11.4h-.6c-2.4,3.9-5.7,7.2-9.9,9.7-4.2,2.6-9.2,3.9-15,3.9s-7.4-.5-10.5-1.5-5.7-2.7-7.7-5.1c-2.1-2.4-3.6-5.6-4.7-9.6s-1.6-9-1.6-15.1v-48h20.1l.1-.1Z"/>
    <path class="st1" d="M490.9,136.1h10.6v-14.5l20-5.7v20.2h18.8v17h-18.8v29.6c0,5.3.5,9.2,1.6,11.5s3.1,3.5,6.1,3.5,3.8-.2,5.3-.6c1.5-.4,3.2-1,5-1.9l3.5,15.4c-2.8,1.3-6,2.5-9.7,3.4s-7.5,1.4-11.3,1.4c-7.1,0-12.3-1.8-15.7-5.5-3.3-3.6-5-9.6-5-18v-38.9h-10.6v-17h0l.2.1Z"/>
    <path class="st1" d="M617.9,213.2c0,11.2-3,19.5-9.1,24.8s-14.5,7.9-25.4,7.9-13.2-.5-17.5-1.5-7.5-2.1-9.6-3.2l4.2-15.9c2.4.9,5.1,1.9,8.3,2.8,3.1.9,7,1.4,11.6,1.4,7,0,11.7-1.5,14.3-4.6,2.5-3,3.8-7.3,3.8-12.7v-4.9h-.6c-3.6,4.8-10,7.2-19.1,7.2s-17.4-3.1-22.3-9.2c-4.9-6.2-7.3-15.8-7.3-29s3.3-24.2,9.9-31.3c6.6-7.1,16.1-10.6,28.7-10.6s12.5.5,17.7,1.4,9.4,2,12.7,3.2v74.3h0l-.3-.1ZM584,198.4c3.9,0,6.9-.9,9-2.6,2.1-1.7,3.7-4.4,4.9-7.9v-34.7c-3.2-1.3-7.2-2-11.9-2s-9.2,1.9-12,5.8c-2.9,3.9-4.3,10-4.3,18.4s1.2,13.2,3.7,17.1c2.5,3.9,6,5.9,10.6,5.9Z"/>
    <path class="st1" d="M697,206.6c-3.1,2.5-7.3,4.6-12.6,6.2-5.3,1.7-10.9,2.5-16.9,2.5-12.4,0-21.5-3.6-27.3-10.9-5.8-7.2-8.6-17.2-8.6-29.8s3.2-23.8,9.7-30.5c6.5-6.8,15.6-10.2,27.3-10.2s7.7.5,11.4,1.5,7,2.7,9.9,5.1c2.9,2.4,5.2,5.6,6.9,9.6s2.6,9,2.6,15-.1,4.5-.4,6.9c-.3,2.5-.6,5-1.2,7.7h-46.3c.3,6.5,2,11.4,5,14.7s7.9,4.9,14.7,4.9,8-.6,11.3-1.9c3.3-1.3,5.9-2.6,7.6-3.9l6.6,13.1h.3ZM668.4,150c-5.2,0-9.1,1.6-11.6,4.7-2.5,3.1-4,7.3-4.6,12.6h28.7c.4-5.6-.4-9.8-2.5-12.8s-5.4-4.5-9.9-4.5h-.1Z"/>
    <path class="st1" d="M756.3,155c-3.2-1.1-6.1-1.7-8.6-1.7s-6.6,1-9,2.9-4,4.3-4.9,7.3v49.8h-20.1v-77.1h15.6l2.3,10.2h.6c1.7-3.8,4.1-6.7,7.1-8.8s6.5-3.1,10.5-3.1,5.7.6,9.1,1.7l-2.6,18.8h0Z"/>
  </g>
  <g id="met">
    <path class="st1" d="M71.5,213.2v-41.9c0-7.1-.7-12.1-2-15.1s-4.1-4.5-8.3-4.5-6.3,1-8.5,2.9-3.8,4.3-4.9,7.3v51.4h-20.1v-77.1h15.6l2.3,10.2h.6c2.4-3.3,5.4-6.2,9-8.6,3.6-2.5,8.4-3.7,14.1-3.7s9,1,12.1,3,5.6,5.4,7.3,10.1c2.4-4,5.4-7.2,9.1-9.6,3.7-2.4,8.2-3.6,13.4-3.6s8,.5,11,1.5,5.5,2.8,7.4,5.3,3.3,5.9,4.2,10.1c.9,4.2,1.4,9.6,1.4,16v46.3h-20.1v-43.3c0-6.1-.6-10.6-1.9-13.6s-4.1-4.6-8.6-4.6-6.5,1-8.6,2.9c-2.1,2-3.7,4.6-4.7,8v50.6h-20.1.3Z"/>
    <path class="st1" d="M213.6,206.6c-3.1,2.5-7.3,4.6-12.6,6.2-5.3,1.7-10.9,2.5-16.9,2.5-12.4,0-21.5-3.6-27.3-10.9-5.8-7.2-8.6-17.2-8.6-29.8s3.2-23.8,9.7-30.5c6.5-6.8,15.6-10.2,27.3-10.2s7.7.5,11.4,1.5,7,2.7,9.9,5.1c2.9,2.4,5.2,5.6,6.9,9.6s2.6,9,2.6,15-.1,4.5-.4,6.9c-.3,2.5-.7,5-1.2,7.7h-46.3c.3,6.5,2,11.4,5,14.7s7.9,4.9,14.7,4.9,8-.6,11.3-1.9c3.3-1.3,5.9-2.6,7.6-3.9l6.6,13.1h.3ZM184.9,150c-5.2,0-9.1,1.6-11.6,4.7-2.5,3.1-4,7.3-4.6,12.6h28.7c.4-5.6-.4-9.8-2.5-12.8s-5.4-4.5-9.9-4.5h-.1Z"/>
    <path class="st1" d="M222.2,136.1h10.6v-14.5l20-5.7v20.2h18.8v17h-18.8v29.6c0,5.3.5,9.2,1.6,11.5s3.1,3.5,6.1,3.5,3.8-.2,5.3-.6c1.5-.4,3.2-1,5-1.9l3.5,15.4c-2.8,1.3-6,2.5-9.7,3.4s-7.5,1.4-11.3,1.4c-7.1,0-12.3-1.8-15.7-5.5-3.3-3.6-5-9.6-5-18v-38.9h-10.6v-17h0l.2.1Z"/>
  </g>
  <g id="Wonen">
    <path class="st1" d="M551.9,35l7.8,21.9,1.5,7.1h.3l1.2-7.2,5.5-21.8h10.2l-13.2,43.2h-8.2l-8.6-24-1.1-5.4h-.4l-1,5.5-8.2,23.9h-8.5l-13.8-43.2h12.1l6.2,21.5,1,7.6h.4l1.5-7.7,7.1-21.4h8.2Z"/>
    <path class="st1" d="M579.8,56.4c0-7.2,1.8-12.8,5.3-16.7s8.5-5.9,14.9-5.9,6.4.5,8.9,1.6,4.6,2.6,6.2,4.6c1.6,2,2.9,4.3,3.7,7.1s1.2,5.9,1.2,9.2c0,7.2-1.8,12.8-5.3,16.7s-8.5,5.9-14.8,5.9-6.4-.5-8.9-1.6-4.6-2.6-6.3-4.6-2.9-4.3-3.8-7.1c-.8-2.8-1.2-5.9-1.2-9.2h.1ZM591.3,56.4c0,1.9.2,3.6.5,5.2.3,1.6.9,3,1.5,4.2.7,1.2,1.6,2.1,2.7,2.8,1.1.7,2.4,1,4,1,2.9,0,5.1-1.1,6.5-3.2s2.1-5.4,2.1-10-.7-7.1-2-9.5-3.5-3.6-6.7-3.6-4.9,1-6.4,3.1-2.3,5.4-2.3,10.1h0l.1-.1Z"/>
    <path class="st1" d="M654,77.8v-24.3c0-3.5-.5-6-1.5-7.5s-2.7-2.3-5.1-2.3-3.9.6-5.3,1.8c-1.4,1.2-2.5,2.7-3.1,4.6v27.7h-11.1v-42.8h8.8l1.3,5.6h.3c1.3-1.8,3.1-3.4,5.2-4.8,2.2-1.4,5-2,8.4-2s4,.3,5.6.9c1.6.6,3.1,1.5,4.2,2.8,1.1,1.3,2,3.1,2.6,5.3.6,2.3.9,5,.9,8.3v26.6h-11.1l-.1.1Z"/>
    <path class="st1" d="M708.6,74.1c-1.7,1.4-4,2.5-7,3.5-2.9.9-6.1,1.4-9.4,1.4-6.9,0-11.9-2-15.1-6-3.2-4-4.8-9.5-4.8-16.5s1.8-13.2,5.4-16.9c3.6-3.8,8.6-5.6,15.1-5.6s4.3.3,6.3.9,3.9,1.5,5.5,2.8,2.9,3.1,3.9,5.3,1.5,5,1.5,8.3,0,2.5-.2,3.9c-.1,1.4-.4,2.8-.6,4.3h-25.7c.2,3.6,1.1,6.3,2.8,8.1,1.7,1.8,4.4,2.7,8.2,2.7s4.4-.3,6.3-1.1c1.9-.7,3.3-1.4,4.2-2.2l3.7,7.3h0l-.1-.2ZM692.7,42.7c-2.9,0-5.1.9-6.5,2.6-1.4,1.7-2.2,4.1-2.5,7h15.9c.2-3.1-.2-5.4-1.4-7.1-1.2-1.6-3-2.5-5.5-2.5Z"/>
    <path class="st1" d="M744,77.8v-24.3c0-3.5-.5-6-1.5-7.5s-2.7-2.3-5.1-2.3-3.9.6-5.3,1.8c-1.4,1.2-2.5,2.7-3.1,4.6v27.7h-11.1v-42.8h8.8l1.3,5.6h.3c1.3-1.8,3.1-3.4,5.2-4.8,2.2-1.4,5-2,8.4-2s4,.3,5.6.9c1.6.6,3.1,1.5,4.2,2.8,1.1,1.3,2,3.1,2.6,5.3.6,2.3.9,5,.9,8.3v26.6h-11.1l-.1.1Z"/>
  </g>
</svg>