<?xml version="1.0" encoding="utf-8"?>
<!-- Generator: Adobe Illustrator 22.1.0, SVG Export Plug-In . SVG Version: 6.00 Build 0)  -->
<svg version="1.1" id="Laag_1" xmlns="http://www.w3.org/2000/svg" xmlns:xlink="http://www.w3.org/1999/xlink" x="0px" y="0px"
	 viewBox="0 0 220 80" style="enable-background:new 0 0 220 80;" xml:space="preserve">
<style type="text/css">
	.st0{fill:#FFFFFF;}
	.st1{fill:#32ADD6;}
	.st2{fill:#00569D;}
</style>
<rect x="14.9" y="4.8" class="st0" width="35.6" height="59.2"/>
<g>
	<path class="st1" d="M56.1,0H32.3h0H8.5L0,59.7L32.3,80v0l0,0l0,0v0l32.3-20.3L56.1,0z M44.3,47.8h-1.8v11.9h-6.8v-5.5l-3.4-3.6
		l-3.4,3.6v5.5h-6.8V47.8h-1.8V26.7h1.8l2.6-9.8l2.6,9.8h1l2.5-4.2v-6.1L32.3,9l1.5,7.4v6.1l2.5,4.2h1l2.6-9.8l2.6,9.8h1.8V47.8z"/>
	<g>
		<path class="st2" d="M87.2,32.3l6.5-15.5h5.1L87.6,41.3h-0.7L75.5,16.7h5.1L87.2,32.3z"/>
		<path class="st2" d="M104.7,24.3c4.6,0,7.2,2.3,7.8,2.8v13.7h-4.2V38c-0.7,1.2-2.1,3.1-4.9,3.1c-4.6,0-7.2-3.4-7.2-8.2
			C96.2,28,99.2,24.3,104.7,24.3z M104.2,37.5c2.5,0,4-2.2,4-6.2v-2.5c-0.4-0.3-1.5-0.9-3.4-0.9c-2.9,0-4.4,2.3-4.4,5.1
			C100.5,35.4,101.6,37.5,104.2,37.5z"/>
		<path class="st2" d="M127.6,40.8v-8.6c0-2.8-0.8-4.3-3.1-4.3c-2.3,0-3.7,2.2-3.7,5.1v7.9h-4.2V24.6h4.2v2.5
			c0.7-1.1,2.4-2.8,4.9-2.8c4.3,0,6.2,2.6,6.2,7.6v8.8H127.6z"/>
		<path class="st2" d="M158.4,22.5c-1.5-1.2-3.7-2.3-6.1-2.3c-1.8,0-3.4,0.9-3.4,2.5c0,4.5,11.3,3,11.3,11.2c0,4.2-3.3,7.3-8.6,7.3
			c-3.2,0-6.3-1.3-8.4-2.8l2.1-3.5c1.3,1,3.8,2.4,6.3,2.4c2.5,0,3.9-1.4,3.9-3.4c0-4.9-11.3-3.5-11.3-11.2c0-4,3.3-6.4,7.8-6.4
			c3.5,0,5.9,1.3,6.9,2.1L158.4,22.5z"/>
		<path class="st2" d="M168.8,33.4l4-9h0.7l4.1,9l3.8-8.8h4.7L178,41.1h-0.7l-4-9.2l-4,9.2h-0.7l-8.1-16.5h4.7L168.8,33.4z"/>
		<path class="st2" d="M195.3,41.1c-4.7,0-8.6-3-8.6-8.4c0-5.3,3.9-8.4,8.6-8.4c4.8,0,8.6,3.1,8.6,8.4
			C203.8,38,200.1,41.1,195.3,41.1z M195.2,27.8c-2.3,0-4.3,1.8-4.3,4.9c0,3.2,2,4.9,4.3,4.9c2.5,0,4.3-1.7,4.3-4.8
			S197.7,27.8,195.2,27.8z"/>
		<path class="st2" d="M207.3,40.8V17.2l4.3-0.9v24.4H207.3z"/>
		<path class="st2" d="M215.7,40.8V17.2l4.3-0.9v24.4H215.7z"/>
	</g>
	<g>
		<path class="st1" d="M108.9,51.2l-3.2,8.6h-1.5l-2.1-5.2c-0.1-0.1-0.1-0.3-0.2-0.6c-0.1-0.2-0.2-0.5-0.3-0.8
			c-0.1-0.3-0.2-0.6-0.3-1c-0.1-0.4-0.2-0.7-0.3-1.1h0c0,0.6,0,1.1,0,1.7c0,0.5,0,1,0,1.5l0,2.8c0,0.1,0,0.3,0,0.4
			c0,0.1,0,0.3,0,0.4c0,0.1,0,0.2,0,0.3c0,0.1,0,0.2,0,0.3l1.2,0v1.2h-3.6v-1c0.2,0,0.3,0,0.5-0.1c0.1,0,0.3-0.1,0.4-0.2
			c0.1-0.1,0.2-0.2,0.2-0.4c0.1-0.2,0.1-0.4,0.1-0.7l0.1-6c0-0.1,0-0.3,0-0.4c0-0.1,0-0.3,0-0.4c0-0.1,0-0.2,0-0.3
			c0-0.1,0-0.2,0-0.3l-1.2,0v-1.2h3.5l2.4,6.1c0.1,0.2,0.2,0.4,0.2,0.6c0.1,0.2,0.2,0.5,0.3,0.7c0.1,0.2,0.2,0.4,0.2,0.7
			s0.1,0.4,0.2,0.5h0c0.1-0.4,0.3-0.7,0.4-1.1c0.1-0.3,0.2-0.7,0.4-1l2.4-6.5h3.6v1c-0.2,0-0.3,0-0.5,0.1c-0.1,0-0.3,0.1-0.4,0.2
			c-0.1,0.1-0.2,0.2-0.2,0.4c0,0.2-0.1,0.4-0.1,0.7l0.2,6c0,0.1,0,0.3,0,0.4c0,0.1,0,0.3,0,0.4c0,0.1,0,0.2,0,0.3c0,0.1,0,0.2,0,0.3
			l1.2,0v1.2H108v-1c0.2,0,0.3,0,0.5-0.1c0.1,0,0.3-0.1,0.4-0.2c0.1-0.1,0.2-0.2,0.2-0.4c0-0.2,0.1-0.4,0.1-0.7l-0.1-3.3
			c0-0.1,0-0.2,0-0.4c0-0.2,0-0.4,0-0.7c0-0.3,0-0.5,0-0.8C108.9,51.7,108.9,51.4,108.9,51.2L108.9,51.2z"/>
		<path class="st1" d="M120.4,56.4l-3.4,0.1l-0.3,0.7c0,0.1-0.1,0.2-0.1,0.3c0,0.1-0.1,0.2-0.1,0.3c0,0.1-0.1,0.2-0.1,0.4
			c0,0.1-0.1,0.2-0.1,0.3l1.1,0v1.3H114v-1.1c0.2,0,0.4-0.1,0.6-0.1c0.2-0.1,0.3-0.2,0.4-0.4c0.1-0.2,0.2-0.4,0.3-0.6
			c0.1-0.2,0.2-0.4,0.3-0.7l3.1-8.4h1.1l3.4,8.6c0,0.1,0.1,0.2,0.1,0.3c0,0.1,0.1,0.3,0.1,0.4c0,0.1,0.1,0.3,0.1,0.4
			c0,0.1,0.1,0.3,0.1,0.4l0.9,0v1.2h-4.3v-1c0.3,0,0.5-0.1,0.6-0.2c0.1-0.1,0.2-0.3,0.2-0.5c0-0.1,0-0.2,0-0.4
			c0-0.1-0.1-0.3-0.1-0.4L120.4,56.4z M117.4,55.3h2.6l-0.7-2c-0.1-0.4-0.3-0.8-0.4-1.1c-0.1-0.4-0.2-0.7-0.2-1h0
			c0,0.2-0.1,0.4-0.2,0.8c-0.1,0.4-0.2,0.8-0.4,1.3L117.4,55.3z"/>
		<path class="st1" d="M129.5,53.4h1.1l1.2-2.1c0.1-0.2,0.2-0.3,0.3-0.5c0.1-0.2,0.2-0.3,0.3-0.5c0.1-0.1,0.2-0.3,0.3-0.4
			c0.1-0.1,0.2-0.2,0.2-0.2v0l-1,0.1v-1.2h3.9v1c-0.2,0-0.4,0-0.6,0.1c-0.2,0-0.4,0.1-0.6,0.2c-0.2,0.1-0.4,0.3-0.6,0.5
			c-0.2,0.2-0.4,0.5-0.6,0.8l-1.5,2.4v0c0.2,0.1,0.4,0.3,0.6,0.4c0.2,0.2,0.3,0.3,0.4,0.5l1.6,2.3c0.2,0.2,0.3,0.4,0.5,0.6
			c0.2,0.2,0.3,0.4,0.5,0.5c0.2,0.2,0.4,0.3,0.5,0.4s0.4,0.1,0.5,0.2v1h-2.4c-0.1,0-0.2-0.1-0.3-0.2c-0.1-0.1-0.3-0.2-0.4-0.4
			c-0.1-0.2-0.3-0.3-0.4-0.5c-0.1-0.2-0.3-0.4-0.4-0.5l-1.6-2.3c-0.1-0.1-0.1-0.2-0.2-0.3c-0.1-0.1-0.2-0.2-0.2-0.3
			c-0.1-0.1-0.2-0.2-0.2-0.3c-0.1-0.1-0.2-0.2-0.2-0.2l-0.6,0v2.4c0,0.1,0,0.3,0,0.4c0,0.1,0,0.3,0,0.4c0,0.1,0,0.2,0,0.3
			c0,0.1,0,0.2,0,0.3l1.2,0v1.2h-4.5v-1c0.2,0,0.3,0,0.5,0c0.1,0,0.3-0.1,0.4-0.2c0.1-0.1,0.2-0.2,0.2-0.4c0.1-0.2,0.1-0.4,0.1-0.7
			v-6c0-0.1,0-0.3,0-0.4c0-0.1,0-0.3,0-0.4c0-0.1,0-0.2,0-0.3c0-0.1,0-0.2,0-0.3l-1.2,0v-1.2h4.5v1c-0.2,0-0.3,0-0.5,0.1
			c-0.1,0-0.3,0.1-0.4,0.2c-0.1,0.1-0.2,0.2-0.2,0.4c-0.1,0.2-0.1,0.4-0.1,0.7V53.4z"/>
		<path class="st1" d="M141.6,54.5v2.6c0,0.1,0,0.3,0,0.4s0,0.3,0,0.4c0,0.1,0,0.2,0,0.3c0,0.1,0,0.2,0,0.3l2.1,0
			c0.2,0,0.5,0,0.7-0.1c0.2-0.1,0.4-0.2,0.6-0.4c0.2-0.2,0.3-0.4,0.4-0.7c0.1-0.3,0.2-0.6,0.2-1.1h1l-0.1,3.5h-8.3v-1
			c0.2,0,0.3,0,0.5-0.1c0.1,0,0.3-0.1,0.4-0.2c0.1-0.1,0.2-0.2,0.2-0.4c0.1-0.2,0.1-0.4,0.1-0.7v-6c0-0.1,0-0.3,0-0.4
			c0-0.1,0-0.3,0-0.4c0-0.1,0-0.2,0-0.3c0-0.1,0-0.2,0-0.3l-1.2,0v-1.2h7.9l0.1,3.1h-1c0-0.4-0.1-0.8-0.2-1
			c-0.1-0.3-0.3-0.5-0.5-0.6c-0.2-0.1-0.4-0.2-0.6-0.3c-0.2-0.1-0.4-0.1-0.7-0.1l-0.6,0c-0.2,0-0.3,0-0.4,0.1
			c-0.1,0-0.2,0.1-0.3,0.2c-0.1,0.1-0.2,0.2-0.2,0.4c0,0.2-0.1,0.4-0.1,0.7v2.4h1.9l-0.1-1.4h1.2v3.8h-1c0-0.3,0-0.6-0.1-0.8
			c-0.1-0.2-0.2-0.3-0.3-0.4c-0.1-0.1-0.3-0.1-0.5-0.2c-0.2,0-0.4,0-0.6,0L141.6,54.5z"/>
		<path class="st1" d="M148.5,59.7v-1c0.2,0,0.3,0,0.5,0c0.1,0,0.3-0.1,0.4-0.2c0.1-0.1,0.2-0.2,0.2-0.4c0.1-0.2,0.1-0.4,0.1-0.7v-6
			c0-0.1,0-0.3,0-0.4c0-0.1,0-0.3,0-0.4c0-0.1,0-0.2,0-0.3c0-0.1,0-0.2,0-0.3l-1.2,0v-1.2h4.5v1c-0.2,0-0.3,0-0.5,0.1
			s-0.3,0.1-0.4,0.2c-0.1,0.1-0.2,0.2-0.2,0.4c-0.1,0.2-0.1,0.4-0.1,0.7v6c0,0.1,0,0.3,0,0.4s0,0.3,0,0.4c0,0.1,0,0.2,0,0.3
			c0,0.1,0,0.2,0,0.3l2.1,0c0.6,0,1.1-0.2,1.5-0.6c0.4-0.4,0.5-1.1,0.5-1.9h1l-0.1,3.8H148.5z"/>
		<path class="st1" d="M164.8,56.4l-3.4,0.1l-0.3,0.7c0,0.1-0.1,0.2-0.1,0.3c0,0.1-0.1,0.2-0.1,0.3c0,0.1-0.1,0.2-0.1,0.4
			c0,0.1-0.1,0.2-0.1,0.3l1.1,0v1.3h-3.4v-1.1c0.2,0,0.4-0.1,0.6-0.1c0.2-0.1,0.3-0.2,0.4-0.4c0.1-0.2,0.2-0.4,0.3-0.6
			c0.1-0.2,0.2-0.4,0.3-0.7l3.1-8.4h1.1l3.4,8.6c0,0.1,0.1,0.2,0.1,0.3c0,0.1,0.1,0.3,0.1,0.4c0,0.1,0.1,0.3,0.1,0.4
			c0,0.1,0.1,0.3,0.1,0.4l0.9,0v1.2h-4.3v-1c0.3,0,0.5-0.1,0.6-0.2c0.1-0.1,0.2-0.3,0.2-0.5c0-0.1,0-0.2,0-0.4
			c0-0.1-0.1-0.3-0.1-0.4L164.8,56.4z M161.8,55.3h2.6l-0.7-2c-0.1-0.4-0.3-0.8-0.4-1.1c-0.1-0.4-0.2-0.7-0.2-1h0
			c0,0.2-0.1,0.4-0.2,0.8c-0.1,0.4-0.2,0.8-0.4,1.3L161.8,55.3z"/>
		<path class="st1" d="M176.6,56.4l-3.4,0.1l-0.3,0.7c0,0.1-0.1,0.2-0.1,0.3c0,0.1-0.1,0.2-0.1,0.3c0,0.1-0.1,0.2-0.1,0.4
			c0,0.1-0.1,0.2-0.1,0.3l1.1,0v1.3h-3.4v-1.1c0.2,0,0.4-0.1,0.6-0.1c0.2-0.1,0.3-0.2,0.4-0.4c0.1-0.2,0.2-0.4,0.3-0.6
			c0.1-0.2,0.2-0.4,0.3-0.7l3.1-8.4h1.1l3.4,8.6c0,0.1,0.1,0.2,0.1,0.3c0,0.1,0.1,0.3,0.1,0.4c0,0.1,0.1,0.3,0.1,0.4
			c0,0.1,0.1,0.3,0.1,0.4l0.9,0v1.2h-4.3v-1c0.3,0,0.5-0.1,0.6-0.2c0.1-0.1,0.2-0.3,0.2-0.5c0-0.1,0-0.2,0-0.4
			c0-0.1-0.1-0.3-0.1-0.4L176.6,56.4z M173.5,55.3h2.6l-0.7-2c-0.1-0.4-0.3-0.8-0.4-1.1c-0.1-0.4-0.2-0.7-0.2-1h0
			c0,0.2-0.1,0.4-0.2,0.8c-0.1,0.4-0.2,0.8-0.4,1.3L173.5,55.3z"/>
		<path class="st1" d="M190.2,57.2c0.2,0.3,0.3,0.5,0.5,0.7c0.1,0.2,0.3,0.3,0.4,0.5c0.1,0.1,0.3,0.2,0.4,0.3
			c0.1,0.1,0.3,0.1,0.5,0.1v1h-2.6c-0.2-0.1-0.4-0.3-0.6-0.6c-0.2-0.3-0.4-0.6-0.6-0.9l-1.2-1.9c-0.1-0.2-0.3-0.4-0.4-0.5
			c-0.1-0.1-0.2-0.3-0.3-0.4c-0.1,0-0.2,0-0.2,0s-0.1,0-0.2,0c-0.1,0-0.1,0-0.2,0c-0.1,0-0.1,0-0.2,0v1.7c0,0.3,0,0.6,0,0.8
			c0,0.3,0,0.5,0,0.6l1.3,0v1.2h-4.7v-1c0.2,0,0.3,0,0.5,0c0.1,0,0.3-0.1,0.4-0.2c0.1-0.1,0.2-0.2,0.2-0.4c0.1-0.2,0.1-0.4,0.1-0.7
			v-6c0-0.1,0-0.3,0-0.4c0-0.1,0-0.3,0-0.4c0-0.1,0-0.2,0-0.3c0-0.1,0-0.2,0-0.3l-1.2,0v-1.2l4.5,0c0.7,0,1.3,0.1,1.9,0.2
			c0.6,0.1,1,0.3,1.4,0.6c0.4,0.3,0.7,0.6,0.9,1c0.2,0.4,0.3,0.9,0.3,1.5c0,0.3,0,0.7-0.2,1c-0.1,0.3-0.3,0.6-0.5,0.9
			c-0.2,0.3-0.5,0.5-0.9,0.7c-0.3,0.2-0.8,0.4-1.2,0.5v0c0.2,0.1,0.4,0.2,0.6,0.4c0.2,0.2,0.4,0.4,0.5,0.6L190.2,57.2z M186.4,54.2
			c0.4,0,0.8,0,1.1-0.1c0.3-0.1,0.6-0.2,0.8-0.4s0.3-0.4,0.4-0.7c0.1-0.3,0.1-0.6,0.1-1c0-0.3,0-0.6-0.1-0.9
			c-0.1-0.2-0.2-0.4-0.3-0.6c-0.1-0.2-0.3-0.3-0.4-0.4c-0.2-0.1-0.3-0.2-0.5-0.2s-0.3-0.1-0.5-0.1c-0.1,0-0.3,0-0.4,0
			c-0.2,0-0.3,0-0.5,0c-0.1,0-0.2,0.1-0.3,0.2c-0.1,0.1-0.2,0.2-0.2,0.4c0,0.2-0.1,0.4-0.1,0.7v3.2c0.1,0,0.2,0,0.4,0
			C186.1,54.2,186.2,54.2,186.4,54.2z"/>
		<path class="st1" d="M197.8,58.8c0.3,0,0.5,0,0.8-0.1s0.4-0.2,0.6-0.3c0.2-0.1,0.3-0.3,0.4-0.5c0.1-0.2,0.1-0.4,0.1-0.6
			c0-0.3-0.1-0.5-0.2-0.7c-0.2-0.2-0.4-0.4-0.6-0.5c-0.2-0.2-0.5-0.3-0.8-0.4s-0.6-0.2-0.9-0.4c-0.5-0.2-1-0.4-1.4-0.7
			s-0.8-0.5-1.1-0.8s-0.6-0.7-0.7-1.1c-0.2-0.4-0.3-0.9-0.3-1.4c0-0.2,0-0.4,0.1-0.7c0.1-0.2,0.1-0.5,0.3-0.7
			c0.1-0.2,0.3-0.4,0.5-0.6c0.2-0.2,0.4-0.4,0.7-0.5c0.3-0.2,0.6-0.3,1-0.4c0.4-0.1,0.8-0.1,1.2-0.1c0.2,0,0.4,0,0.7,0
			c0.2,0,0.5,0.1,0.7,0.1c0.2,0.1,0.5,0.1,0.7,0.2c0.2,0.1,0.4,0.2,0.6,0.3h0l-0.1-0.6h1.2v3.7h-1c-0.1-0.9-0.5-1.6-0.9-2
			c-0.5-0.4-1.1-0.7-1.8-0.7c-0.2,0-0.4,0-0.6,0.1c-0.2,0.1-0.4,0.2-0.5,0.3c-0.2,0.1-0.3,0.3-0.4,0.4c-0.1,0.2-0.1,0.3-0.1,0.5
			c0,0.2,0.1,0.5,0.2,0.7c0.1,0.2,0.3,0.4,0.5,0.5c0.2,0.2,0.5,0.3,0.8,0.5c0.3,0.2,0.7,0.3,1.1,0.5c0.3,0.1,0.5,0.2,0.8,0.4
			s0.6,0.3,0.8,0.4c0.3,0.2,0.5,0.3,0.8,0.5c0.2,0.2,0.4,0.4,0.6,0.6c0.2,0.2,0.3,0.5,0.4,0.8c0.1,0.3,0.2,0.6,0.2,0.9
			c0,0.5-0.1,0.9-0.3,1.3c-0.2,0.4-0.5,0.7-0.8,1c-0.4,0.3-0.8,0.5-1.3,0.7c-0.5,0.2-1.1,0.2-1.7,0.2c-0.2,0-0.4,0-0.7-0.1
			c-0.2,0-0.5-0.1-0.7-0.1c-0.2-0.1-0.5-0.1-0.7-0.2s-0.5-0.2-0.7-0.3h0l0.1,0.7h-1.2v-3.7h1c0.1,0.4,0.2,0.8,0.4,1.2
			c0.2,0.3,0.4,0.6,0.6,0.8c0.3,0.2,0.5,0.4,0.9,0.5C197,58.7,197.4,58.8,197.8,58.8z"/>
	</g>
</g>
</svg>
