<?xml version="1.0" encoding="UTF-8" standalone="no"?><!DOCTYPE svg PUBLIC "-//W3C//DTD SVG 1.1//EN" "http://www.w3.org/Graphics/SVG/1.1/DTD/svg11.dtd"><svg width="100%" height="100%" viewBox="0 0 241 156" version="1.1" xmlns="http://www.w3.org/2000/svg" xmlns:xlink="http://www.w3.org/1999/xlink" xml:space="preserve" xmlns:serif="http://www.serif.com/" style="fill-rule:evenodd;clip-rule:evenodd;stroke-linejoin:round;stroke-miterlimit:2;"><g id="Layer-1" serif:id="Layer 1"><path d="M37.065,67.298c2.522,0.425 4.478,1.474 5.754,3.033c1.332,1.53 2.012,3.515 2.012,6.009c-0,1.984 -0.453,3.855 -1.303,5.613c-0.993,1.701 -2.183,3.033 -3.799,4.026c-1.134,0.736 -2.579,1.246 -4.337,1.53c-1.757,0.397 -4.62,0.482 -8.759,0.482l-13.124,-0l6.321,-39.827l9.099,-0c3.43,-0 5.896,0.085 7.37,0.283c1.474,0.142 2.75,0.425 3.714,0.822c1.672,0.709 3.004,1.786 3.94,3.26c1.02,1.474 1.445,3.203 1.445,5.102c-0,2.608 -0.737,4.819 -2.239,6.52c-1.474,1.701 -3.515,2.806 -6.094,3.147m-11.934,12.897l1.275,-0c3.232,-0 5.386,-0.397 6.407,-1.19c1.105,-0.709 1.644,-2.098 1.644,-4.054c-0,-1.474 -0.482,-2.523 -1.389,-3.146c-0.964,-0.567 -2.438,-0.907 -4.564,-0.907l-1.899,-0l-1.474,9.297Zm2.608,-16.554l0.85,-0c2.58,-0 4.337,-0.454 5.329,-1.049c0.964,-0.68 1.474,-1.814 1.474,-3.43c-0,-1.19 -0.368,-2.041 -1.19,-2.579c-0.794,-0.511 -2.098,-0.794 -3.856,-0.794l-1.417,-0l-1.19,7.852Zm19.785,24.35l4.337,-27.468l9.326,-0l-0.68,4.734c0.879,-1.814 2.013,-3.118 3.43,-3.969c1.446,-0.992 3.09,-1.36 5.017,-1.36l0.709,-0c0.227,0.028 0.624,0.085 1.134,0.226l-1.899,8.561c-0.681,-0.142 -1.248,-0.227 -1.701,-0.34c-0.539,-0.085 -1.021,-0.085 -1.503,-0.085c-1.899,-0 -3.316,0.567 -4.422,1.814c-1.048,1.134 -1.785,2.891 -2.182,5.386l-1.956,12.501l-9.61,-0Zm27.071,-27.468l9.61,-0l-1.758,11.395c-0.227,1.474 -0.368,2.75 -0.51,3.799c-0.142,0.935 -0.227,1.615 -0.227,1.899c-0,1.332 0.369,2.381 0.992,3.004c0.624,0.652 1.474,1.078 2.665,1.078c2.806,-0 4.705,-3.232 5.669,-9.496c0.085,-0.397 0.142,-0.624 0.17,-0.822l1.729,-10.857l9.61,-0l-1.956,12.444l-0.057,0.567c-0.992,5.896 -2.466,9.836 -4.478,11.849c-1.333,1.19 -2.892,2.098 -4.734,2.807c-1.871,0.566 -3.969,0.906 -6.293,0.906c-4.054,-0 -7.229,-0.906 -9.553,-2.777c-2.353,-1.815 -3.487,-4.338 -3.487,-7.428c-0,-0.737 0.057,-1.644 0.199,-2.749c0.085,-1.106 0.368,-2.807 0.708,-5.103l1.701,-10.516Zm35.688,-8.164c-0,-1.446 0.482,-2.636 1.531,-3.685c0.992,-0.992 2.24,-1.502 3.657,-1.502c1.474,-0 2.721,0.51 3.77,1.474c0.964,0.935 1.474,2.239 1.474,3.713c-0,1.417 -0.51,2.693 -1.531,3.713c-1.049,1.049 -2.239,1.503 -3.713,1.503c-1.417,-0 -2.665,-0.454 -3.657,-1.503c-1.049,-1.02 -1.531,-2.296 -1.531,-3.713m-5.074,35.632l4.366,-27.468l9.723,-0l-4.337,27.468l-9.752,-0Zm16.923,-0l4.393,-27.468l9.27,-0l-0.652,4.28c1.474,-1.757 2.948,-3.09 4.507,-3.94c1.446,-0.794 3.09,-1.191 4.819,-1.191c2.836,-0 5.074,0.766 6.605,2.297c1.616,1.559 2.438,3.656 2.438,6.406c-0,0.964 -0.199,2.579 -0.539,4.734c-0,0.17 -0.028,0.368 -0.028,0.453l-2.297,14.429l-9.75,-0l2.267,-14.514c0.114,-0.425 0.142,-0.822 0.198,-1.247c0.057,-0.369 0.086,-0.765 0.086,-0.992c-0,-1.191 -0.312,-2.126 -0.935,-2.75c-0.623,-0.623 -1.616,-0.907 -2.807,-0.907c-1.728,-0 -3.06,0.567 -3.997,1.814c-0.907,1.219 -1.616,3.118 -2.012,5.84l-1.985,12.756l-9.581,-0Zm58.111,-25.456l-2.807,6.18c-1.246,-0.85 -2.381,-1.559 -3.457,-1.956c-1.049,-0.368 -2.07,-0.567 -3.12,-0.567c-0.878,-0 -1.558,0.199 -2.182,0.567c-0.568,0.397 -0.85,0.907 -0.85,1.474c-0,0.822 0.964,1.616 2.806,2.381c0.849,0.284 1.531,0.567 2.014,0.709c2.607,1.162 4.421,2.353 5.498,3.628c1.02,1.191 1.587,2.75 1.587,4.565c-0,2.862 -1.162,5.131 -3.345,6.915c-2.239,1.786 -5.244,2.665 -8.929,2.665c-2.097,-0 -4.11,-0.283 -6.009,-0.879c-1.956,-0.51 -3.769,-1.359 -5.556,-2.523l3.231,-6.547c1.843,1.132 3.431,1.899 4.649,2.41c1.191,0.481 2.438,0.736 3.573,0.736c0.906,-0 1.728,-0.255 2.295,-0.68c0.567,-0.369 0.85,-0.964 0.85,-1.616c-0,-1.049 -1.332,-2.154 -3.997,-3.232c-0.822,-0.283 -1.417,-0.567 -1.842,-0.708c-2.211,-0.964 -3.685,-1.956 -4.591,-3.062c-0.852,-1.134 -1.332,-2.523 -1.332,-4.195c-0,-2.608 1.162,-4.791 3.343,-6.548c2.183,-1.729 5.046,-2.58 8.476,-2.58c1.701,-0 3.431,0.256 5.074,0.766c1.672,0.425 3.148,1.19 4.621,2.097"/><path d="M47.581,100.406l-0,-9.666l5.953,0l-0,2.098l-3.373,0l-0,1.729l3.118,0l-0,2.041l-3.118,0l-0,3.798l-2.58,0Zm7.143,-8.759c-0,-0.312 0.142,-0.623 0.426,-0.907c0.198,-0.228 0.567,-0.368 0.85,-0.368c0.369,0 0.68,0.14 0.964,0.368c0.227,0.284 0.312,0.595 0.312,0.907c-0,0.397 -0.085,0.681 -0.312,0.964c-0.284,0.227 -0.595,0.34 -0.964,0.34c-0.283,0 -0.652,-0.113 -0.85,-0.398c-0.284,-0.225 -0.426,-0.509 -0.426,-0.906m0.142,2.098l2.325,0l-0,6.661l-2.325,0l-0,-6.661Zm4.139,6.661l-0,-6.661l2.126,0l-0,1.389c0.34,-0.567 0.68,-0.964 1.105,-1.191c0.369,-0.283 0.907,-0.426 1.474,-0.426c0.369,0 0.822,0.085 1.134,0.228c0.34,0.141 0.567,0.396 0.822,0.567c0.142,0.255 0.284,0.537 0.369,0.85c0.056,0.311 0.141,0.765 0.141,1.389l-0,3.855l-2.381,0l-0,-3.571c-0,-0.568 -0.085,-0.908 -0.283,-1.134c-0.142,-0.284 -0.425,-0.369 -0.851,-0.369c-0.425,0 -0.822,0.226 -0.992,0.567c-0.255,0.312 -0.397,0.906 -0.397,1.7l-0,2.807l-2.267,0Zm13.833,-3.316c-0,-0.539 -0.085,-0.908 -0.369,-1.247c-0.283,-0.285 -0.623,-0.482 -1.134,-0.482c-0.481,0 -0.878,0.197 -1.105,0.482c-0.284,0.283 -0.482,0.708 -0.482,1.247c-0,0.509 0.198,0.907 0.482,1.19c0.227,0.284 0.624,0.454 1.105,0.454c0.511,0 0.851,-0.17 1.134,-0.454c0.284,-0.283 0.369,-0.681 0.369,-1.19m2.154,-3.345l-0,6.661l-2.183,0l-0,-1.077c-0.283,0.425 -0.68,0.794 -1.048,1.02c-0.397,0.199 -0.879,0.341 -1.389,0.341c-0.907,0 -1.559,-0.341 -2.098,-0.992c-0.567,-0.624 -0.794,-1.531 -0.794,-2.608c-0,-1.106 0.284,-1.956 0.794,-2.58c0.567,-0.624 1.332,-0.993 2.296,-0.993c0.454,0 0.907,0.143 1.276,0.369c0.368,0.142 0.68,0.539 0.907,0.963l-0,-1.104l2.239,0Zm1.701,6.661l-0,-6.661l2.154,0l-0,1.389c0.284,-0.567 0.709,-0.964 1.077,-1.191c0.454,-0.283 0.907,-0.426 1.474,-0.426c0.454,0 0.822,0.085 1.163,0.228c0.368,0.141 0.623,0.396 0.793,0.567c0.199,0.255 0.284,0.537 0.426,0.85c0.056,0.311 0.113,0.765 0.113,1.389l-0,3.855l-2.381,0l-0,-3.571c-0,-0.568 -0.114,-0.908 -0.255,-1.134c-0.17,-0.284 -0.454,-0.369 -0.851,-0.369c-0.482,0 -0.793,0.226 -1.049,0.567c-0.226,0.312 -0.311,0.906 -0.311,1.7l-0,2.807l-2.353,0Zm13.606,-4.479c-0.227,-0.226 -0.453,-0.311 -0.595,-0.454c-0.255,-0.056 -0.482,-0.112 -0.737,-0.112c-0.454,0 -0.85,0.197 -1.134,0.482c-0.227,0.283 -0.368,0.708 -0.368,1.247c-0,0.509 0.141,0.907 0.425,1.19c0.283,0.284 0.708,0.454 1.134,0.454c0.226,0 0.482,-0.028 0.708,-0.142c0.255,-0.085 0.397,-0.17 0.567,-0.425l-0,2.041c-0.283,0.198 -0.567,0.255 -0.85,0.34c-0.284,0.113 -0.51,0.142 -0.851,0.142c-1.048,0 -1.87,-0.341 -2.466,-1.05c-0.68,-0.624 -0.963,-1.473 -0.963,-2.55c-0,-1.049 0.34,-1.928 0.963,-2.58c0.596,-0.624 1.474,-0.993 2.523,-0.993c0.312,0 0.595,0 0.907,0.143c0.227,0.027 0.51,0.142 0.737,0.283l-0,1.984Zm1.446,-4.28c-0,-0.312 0.085,-0.623 0.312,-0.907c0.312,-0.228 0.595,-0.368 0.907,-0.368c0.425,0 0.737,0.14 0.907,0.368c0.283,0.284 0.425,0.595 0.425,0.907c-0,0.397 -0.142,0.681 -0.425,0.964c-0.17,0.227 -0.567,0.34 -0.907,0.34c-0.312,0 -0.595,-0.113 -0.907,-0.398c-0.227,-0.225 -0.312,-0.509 -0.312,-0.906m0.085,2.098l2.324,0l-0,6.661l-2.324,0l-0,-6.661Zm8.702,2.466c-0,-0.368 -0.17,-0.653 -0.425,-0.879c-0.198,-0.255 -0.567,-0.34 -0.907,-0.34c-0.369,0 -0.652,0.085 -0.907,0.34c-0.227,0.141 -0.369,0.511 -0.454,0.879l2.693,0Zm2.353,1.332l-5.102,0c-0,0.482 0.141,0.907 0.425,1.191c0.283,0.282 0.623,0.397 1.049,0.397c0.425,0 0.708,-0.057 0.963,-0.142c0.284,-0.198 0.426,-0.397 0.567,-0.681l1.758,0.766c-0.255,0.539 -0.624,0.85 -1.134,1.19c-0.539,0.255 -1.191,0.426 -1.956,0.426c-1.19,0 -2.098,-0.341 -2.806,-0.992c-0.68,-0.624 -1.106,-1.475 -1.106,-2.58c-0,-0.992 0.426,-1.842 1.106,-2.551c0.708,-0.681 1.616,-1.05 2.608,-1.05c1.134,0 1.984,0.369 2.664,1.05c0.624,0.709 0.964,1.644 0.964,2.835l-0,0.141Zm-3.345,-5.896c-0,-0.283 0.142,-0.511 0.284,-0.708c0.198,-0.142 0.425,-0.284 0.708,-0.284c0.255,0 0.425,0.085 0.681,0.284c0.198,0.197 0.226,0.425 0.226,0.708c-0,0.255 -0.028,0.425 -0.226,0.624c-0.256,0.227 -0.426,0.282 -0.681,0.282c-0.283,0 -0.51,-0.055 -0.708,-0.282c-0.142,-0.199 -0.284,-0.369 -0.284,-0.624m-2.579,0c-0,-0.283 0.141,-0.511 0.283,-0.708c0.199,-0.142 0.454,-0.284 0.737,-0.284c0.227,0 0.425,0.085 0.595,0.284c0.255,0.197 0.312,0.425 0.312,0.708c-0,0.255 -0.057,0.425 -0.312,0.624c-0.085,0.227 -0.368,0.282 -0.595,0.282c-0.283,0 -0.538,-0.055 -0.737,-0.282c-0.142,-0.199 -0.283,-0.369 -0.283,-0.624m7.285,-1.474l2.381,0l-0,10.233l-2.381,0l-0,-10.233Zm8.759,6.038c-0.057,-0.368 -0.199,-0.653 -0.425,-0.879c-0.199,-0.255 -0.567,-0.34 -0.908,-0.34c-0.368,0 -0.652,0.085 -0.907,0.34c-0.226,0.141 -0.34,0.511 -0.482,0.879l2.722,0Zm2.324,1.332l-5.074,0c-0,0.482 0.17,0.907 0.425,1.191c0.284,0.282 0.624,0.397 1.049,0.397c0.425,0 0.709,-0.057 0.936,-0.142c0.198,-0.198 0.425,-0.397 0.566,-0.681l1.786,0.766c-0.255,0.539 -0.595,0.85 -1.162,1.19c-0.51,0.255 -1.134,0.426 -1.956,0.426c-1.134,0 -2.069,-0.341 -2.806,-0.992c-0.652,-0.624 -0.992,-1.475 -0.992,-2.58c-0,-0.992 0.34,-1.842 0.992,-2.551c0.737,-0.681 1.587,-1.05 2.636,-1.05c1.134,0 2.041,0.369 2.665,1.05c0.623,0.709 0.935,1.644 0.935,2.835l-0,0.141Zm5.726,2.863l-0,-9.666l2.097,0c1.418,0 2.467,0.113 3.119,0.199c0.623,0.141 1.19,0.425 1.672,0.708c0.567,0.425 1.049,0.964 1.332,1.673c0.397,0.68 0.482,1.417 0.482,2.296c-0,0.85 -0.085,1.559 -0.482,2.267c-0.283,0.624 -0.765,1.191 -1.332,1.587c-0.482,0.369 -1.049,0.568 -1.615,0.709c-0.624,0.17 -1.559,0.227 -2.807,0.227l-2.466,0Zm2.666,-2.183l0.367,0c1.105,0 1.814,-0.198 2.296,-0.624c0.482,-0.424 0.766,-1.105 0.766,-1.983c-0,-0.907 -0.284,-1.616 -0.766,-2.099c-0.482,-0.396 -1.191,-0.624 -2.296,-0.624l-0.367,0l-0,5.33Zm7.454,-6.576c-0,-0.312 0.198,-0.623 0.397,-0.907c0.283,-0.228 0.623,-0.368 0.935,-0.368c0.341,0 0.68,0.14 0.907,0.368c0.284,0.284 0.396,0.595 0.396,0.907c-0,0.397 -0.112,0.681 -0.396,0.964c-0.227,0.227 -0.566,0.34 -0.907,0.34c-0.312,0 -0.652,-0.113 -0.935,-0.398c-0.199,-0.225 -0.397,-0.509 -0.397,-0.906m0.198,2.098l2.325,0l-0,6.661l-2.325,0l-0,-6.661Zm8.759,2.466c-0.141,-0.368 -0.226,-0.653 -0.482,-0.879c-0.226,-0.255 -0.567,-0.34 -0.907,-0.34c-0.425,0 -0.708,0.085 -0.934,0.34c-0.2,0.141 -0.398,0.511 -0.426,0.879l2.749,0Zm2.296,1.332l-5.102,0c-0,0.482 0.085,0.907 0.367,1.191c0.285,0.282 0.625,0.397 1.107,0.397c0.369,0 0.652,-0.057 0.907,-0.142c0.227,-0.198 0.482,-0.397 0.566,-0.681l1.758,0.766c-0.198,0.539 -0.566,0.85 -1.133,1.19c-0.482,0.255 -1.191,0.426 -1.9,0.426c-1.247,0 -2.154,-0.341 -2.807,-0.992c-0.736,-0.624 -1.104,-1.475 -1.104,-2.58c-0,-0.992 0.368,-1.842 1.104,-2.551c0.653,-0.681 1.56,-1.05 2.609,-1.05c1.134,0 1.984,0.369 2.608,1.05c0.623,0.709 1.02,1.644 1.02,2.835l-0,0.141Zm1.276,2.863l-0,-6.661l2.183,0l-0,1.389c0.283,-0.567 0.679,-0.964 1.105,-1.191c0.369,-0.283 0.906,-0.426 1.417,-0.426c0.426,0 0.851,0.085 1.191,0.228c0.339,0.141 0.567,0.396 0.822,0.567c0.17,0.255 0.284,0.537 0.369,0.85c0.085,0.311 0.085,0.765 0.085,1.389l-0,3.855l-2.382,0l-0,-3.571c-0,-0.568 -0.028,-0.908 -0.226,-1.134c-0.142,-0.284 -0.425,-0.369 -0.851,-0.369c-0.425,0 -0.765,0.226 -0.992,0.567c-0.312,0.312 -0.34,0.906 -0.34,1.7l-0,2.807l-2.381,0Zm8.22,-0.567l0.482,-1.814c0.34,0.283 0.766,0.539 1.134,0.709c0.397,0.142 0.821,0.255 1.247,0.255c0.283,0 0.511,0 0.709,-0.143c0.113,-0.112 0.255,-0.254 0.255,-0.396c-0,-0.283 -0.398,-0.51 -1.021,-0.708c-0.141,-0.058 -0.311,-0.058 -0.423,-0.085c-0.767,-0.255 -1.278,-0.482 -1.561,-0.767c-0.34,-0.339 -0.426,-0.708 -0.426,-1.247c-0,-0.624 0.171,-1.133 0.653,-1.502c0.539,-0.454 1.162,-0.624 2.013,-0.624c0.367,0 0.85,0.085 1.332,0.17c0.369,0.058 0.851,0.256 1.276,0.483l-0.425,1.587c-0.341,-0.199 -0.681,-0.396 -0.993,-0.481c-0.283,-0.114 -0.623,-0.142 -0.907,-0.142c-0.339,0 -0.539,0 -0.623,0.142c-0.199,0.056 -0.227,0.141 -0.227,0.34c-0,0.227 0.283,0.425 0.879,0.595c0.198,0 0.311,0.056 0.341,0.056c0.821,0.227 1.388,0.538 1.755,0.823c0.286,0.312 0.426,0.737 0.426,1.332c-0,0.652 -0.283,1.191 -0.793,1.616c-0.539,0.425 -1.191,0.652 -2.041,0.652c-0.625,0 -1.162,-0.142 -1.674,-0.227c-0.423,-0.114 -0.962,-0.34 -1.388,-0.624m7.541,0.567l-0,-4.989l-1.022,0l-0,-1.672l1.022,0l-0,-1.985l2.324,0l-0,1.985l0.936,0l-0,1.672l-0.936,0l-0,4.989l-2.324,0Zm6.349,0l-2.948,-6.661l2.523,0l1.105,2.948c0.057,0.057 0.057,0.057 0.086,0.112c0.113,0.37 0.255,0.653 0.255,0.879c0.028,-0.226 0.085,-0.424 0.283,-0.849c-0,-0.03 0.028,-0.085 0.028,-0.142l1.163,-2.948l2.409,0l-3.033,6.661l-1.871,0Zm10.289,-4.195c-0.084,-0.368 -0.226,-0.653 -0.481,-0.879c-0.228,-0.255 -0.511,-0.34 -0.907,-0.34c-0.369,0 -0.709,0.085 -0.936,0.34c-0.198,0.141 -0.34,0.511 -0.396,0.879l2.72,0Zm2.297,1.332l-5.047,0c-0,0.482 0.086,0.907 0.37,1.191c0.255,0.282 0.567,0.397 1.105,0.397c0.313,0 0.624,-0.057 0.906,-0.142c0.228,-0.198 0.427,-0.397 0.512,-0.681l1.757,0.766c-0.17,0.539 -0.568,0.85 -1.049,1.19c-0.567,0.255 -1.22,0.426 -2.041,0.426c-1.134,0 -2.097,-0.341 -2.749,-0.992c-0.709,-0.624 -1.049,-1.475 -1.049,-2.58c-0,-0.992 0.34,-1.842 1.049,-2.551c0.652,-0.681 1.559,-1.05 2.664,-1.05c1.078,0 1.956,0.369 2.552,1.05c0.737,0.709 1.02,1.644 1.02,2.835l-0,0.141Zm1.332,2.863l-0,-6.661l2.241,0l-0,1.587c0.225,-0.595 0.509,-1.02 0.934,-1.304c0.398,-0.283 0.85,-0.426 1.417,-0.426l0.313,0c0.084,0.058 0.17,0.058 0.283,0.058l-0.255,2.097c-0.142,-0.056 -0.228,-0.056 -0.427,-0.114l-0.367,0c-0.566,0 -1.049,0.2 -1.332,0.539c-0.341,0.312 -0.426,0.851 -0.426,1.475l-0,2.749l-2.381,0Zm6.095,-10.233l2.353,0l-0,10.233l-2.353,0l-0,-10.233Zm8.73,6.038c-0.028,-0.368 -0.17,-0.653 -0.425,-0.879c-0.282,-0.255 -0.568,-0.34 -0.907,-0.34c-0.368,0 -0.652,0.085 -0.879,0.34c-0.255,0.141 -0.453,0.511 -0.481,0.879l2.692,0Zm2.353,1.332l-5.101,0c-0,0.482 0.197,0.907 0.367,1.191c0.312,0.282 0.681,0.397 1.106,0.397c0.425,0 0.709,-0.057 0.964,-0.142c0.17,-0.198 0.368,-0.397 0.566,-0.681l1.758,0.766c-0.227,0.539 -0.567,0.85 -1.135,1.19c-0.537,0.255 -1.189,0.426 -1.955,0.426c-1.19,0 -2.154,-0.341 -2.806,-0.992c-0.765,-0.624 -1.106,-1.475 -1.106,-2.58c-0,-0.992 0.341,-1.842 1.106,-2.551c0.652,-0.681 1.502,-1.05 2.608,-1.05c1.134,0 2.012,0.369 2.663,1.05c0.625,0.709 0.965,1.644 0.965,2.835l-0,0.141Zm1.361,2.863l-0,-6.661l2.098,0l-0,1.389c0.397,-0.567 0.708,-0.964 1.106,-1.191c0.423,-0.283 0.906,-0.426 1.416,-0.426c0.482,0 0.851,0.085 1.191,0.228c0.396,0.141 0.566,0.396 0.822,0.567c0.17,0.255 0.283,0.537 0.425,0.85c0.028,0.311 0.028,0.765 0.028,1.389l-0,3.855l-2.324,0l-0,-3.571c-0,-0.568 -0.085,-0.908 -0.226,-1.134c-0.2,-0.284 -0.483,-0.369 -0.851,-0.369c-0.481,0 -0.822,0.226 -1.049,0.567c-0.283,0.312 -0.341,0.906 -0.341,1.7l-0,2.807l-2.295,0Zm8.731,-8.759c-0,-0.312 0.141,-0.623 0.368,-0.907c0.284,-0.228 0.567,-0.368 0.907,-0.368c0.425,0 0.709,0.14 0.907,0.368c0.284,0.284 0.425,0.595 0.425,0.907c-0,0.397 -0.198,0.681 -0.425,0.964c-0.198,0.227 -0.482,0.34 -0.907,0.34c-0.34,0 -0.623,-0.113 -0.907,-0.398c-0.227,-0.225 -0.368,-0.509 -0.368,-0.906m0.141,2.098l2.325,0l-0,6.661l-2.325,0l-0,-6.661Zm4.139,6.661l-0,-6.661l2.126,0l-0,1.389c0.283,-0.567 0.68,-0.964 1.106,-1.191c0.425,-0.283 0.85,-0.426 1.418,-0.426c0.481,0 0.849,0.085 1.132,0.228c0.34,0.141 0.623,0.396 0.879,0.567c0.17,0.255 0.284,0.537 0.369,0.85c0.084,0.311 0.084,0.765 0.084,1.389l-0,3.855l-2.324,0l-0,-3.571c-0,-0.568 -0.086,-0.908 -0.283,-1.134c-0.198,-0.284 -0.425,-0.369 -0.794,-0.369c-0.538,0 -0.878,0.226 -1.104,0.567c-0.228,0.312 -0.341,0.906 -0.341,1.7l-0,2.807l-2.268,0Zm13.89,-3.373c-0,-0.482 -0.143,-0.851 -0.426,-1.19c-0.283,-0.285 -0.68,-0.426 -1.162,-0.426c-0.51,0 -0.85,0.141 -1.134,0.426c-0.283,0.339 -0.425,0.708 -0.425,1.19c-0,0.51 0.142,0.964 0.425,1.247c0.284,0.284 0.624,0.426 1.134,0.426c0.482,0 0.879,-0.142 1.162,-0.426c0.283,-0.283 0.426,-0.737 0.426,-1.247m2.041,-3.288l-0,6.661c-0,0.992 -0.283,1.758 -0.906,2.24c-0.625,0.482 -1.561,0.707 -2.864,0.707c-1.049,0 -1.843,-0.225 -2.41,-0.566c-0.624,-0.368 -0.907,-0.936 -0.965,-1.672l2.439,0c-0,0.255 0.141,0.425 0.369,0.539c0.142,0.141 0.425,0.141 0.708,0.141c0.539,0 0.879,-0.141 1.049,-0.397c0.256,-0.171 0.34,-0.708 0.34,-1.502l-0,-0.567c-0.284,0.369 -0.567,0.652 -0.935,0.879c-0.454,0.255 -0.822,0.311 -1.39,0.311c-0.85,0 -1.588,-0.311 -2.154,-0.906c-0.453,-0.624 -0.766,-1.475 -0.766,-2.58c-0,-1.106 0.313,-1.899 0.879,-2.523c0.568,-0.624 1.22,-0.993 2.184,-0.993c0.51,0 0.936,0.143 1.332,0.369c0.34,0.142 0.708,0.539 0.906,0.908l-0,-1.049l2.184,0Z"/><path d="M48.205,60.523c6.264,-7.654 13.804,-14.4 22.45,-20.154c46.063,-30.473 107.489,-18.709 137.225,26.22c2.807,4.167 5.188,8.589 7.257,12.983c-37.304,-47.934 -106.923,-59.103 -159.704,-24.237c-2.466,1.616 -4.961,3.402 -7.228,5.188" style="fill:#005194;"/><path d="M125.762,112.454c1.331,0.992 2.663,1.955 4.053,2.863c29.168,19.36 67.662,13.124 88.299,-13.437c-1.078,2.523 -2.467,4.904 -3.997,7.2c-16.413,24.889 -50.429,31.408 -75.884,14.542c-4.819,-3.118 -8.986,-6.945 -12.471,-11.168" style="fill:#005194;"/></g></svg>