<?xml version="1.0" encoding="UTF-8"?>
<svg xmlns="http://www.w3.org/2000/svg" id="Laag_1" viewBox="0 0 201.5 84.81">
  <defs>
    <style>.cls-1{fill:#00275a;}.cls-2{fill:#e68025;}</style>
  </defs>
  <path class="cls-1" d="M96.29,27.34l-2.77-1.77V10.01l1.47-1.71,4.27-1.18c-.26-.24-.51-.54-.75-.91-.67-1.05-1-2.25-1-3.58,0-.98,.18-1.85,.55-2.62L41.06,13.89v1.62h.87l1.84,3.88v14.23l-2.71,3.88v5.39h55.92l-.69-15.54Z"></path>
  <path class="cls-2" d="M105.21,27.34l2.76-1.77V10.01l-1.47-1.71-4.28-1.18c.27-.24,.52-.54,.75-.91,.66-1.05,1-2.25,1-3.58,0-.98-.18-1.85-.55-2.62l57.01,13.89v1.62h-.86l-1.84,3.88v14.23l2.71,3.88v5.39h-55.92l.69-15.54Z"></path>
  <path class="cls-1" d="M13.7,62.26l-3.7,9.59h7.32l-3.63-9.59ZM0,84.18c1.08-.59,1.57-.91,1.99-1.33,.28-.35,.7-.9,.87-1.18l8.2-19.87c.1-.24,.21-.7,.21-1.01,0-.45-.21-.84-.84-1.74h5.58l9.1,22.63c.07,.11,.14,.28,.28,.49,.24,.28,.42,.56,.59,.7,.42,.42,.87,.74,2.02,1.33h-8.09c.98-.62,1.29-1.08,1.29-1.78,0-.24-.04-.56-.1-.73l-2.79-7.29H8.99l-2.79,7.29c-.07,.17-.1,.45-.1,.7,0,.76,.25,1.15,1.18,1.81H0Z"></path>
  <path class="cls-1" d="M45.1,81.12c1.43,.27,2.02,.31,3.45,.31,3.87,0,6.62-.91,8.51-2.79,1.67-1.67,2.72-4.53,2.72-7.28,0-6.1-4.29-9.59-11.75-9.59-1.43,0-1.75,.03-2.93,.31v19.04Zm3.24-22.07c4.92,0,7.78,.77,10.6,2.72,3.18,2.16,4.85,5.47,4.85,9.52s-1.6,7.56-4.46,9.93c-2.55,2.16-5.65,2.96-10.98,2.96h-8.54c.73-.59,.98-.94,1.15-1.32,.1-.14,.17-.42,.24-.73,.07-.24,.07-.39,.07-.52l.14-19.87c0-.38-.14-.91-.32-1.26-.21-.35-.49-.66-1.32-1.43h8.57Z"></path>
  <path class="cls-1" d="M96.72,84.18c.8-.56,1.08-.91,1.32-1.33,.07-.18,.17-.45,.24-.7,.04-.31,.11-.46,.11-.49v-19.94c0-.97-.25-1.36-1.57-2.69h6.7c-.69,.8-.94,1.12-1.15,1.46-.07,.14-.13,.42-.21,.73-.04,.21-.11,.35-.11,.49v7.39h13.18v-7.39c0-.07-.04-.28-.07-.49-.11-.32-.18-.59-.24-.73-.14-.35-.42-.66-1.11-1.46h6.65c-1.32,1.32-1.53,1.71-1.53,2.69v19.94c0,.07,.03,.21,.11,.49,.07,.24,.14,.49,.28,.7,.13,.42,.52,.77,1.25,1.33h-6.97c.8-.56,1.12-.87,1.33-1.33,.21-.35,.35-.87,.35-1.18v-9.76h-13.25v9.76c0,.28,.17,.8,.35,1.18,.25,.42,.53,.77,1.33,1.33h-6.97Z"></path>
  <path class="cls-1" d="M139.63,71.74c0,6.07,4.5,10.56,10,10.56,5.13,0,8.82-4.25,8.82-10.11,0-6.17-4.18-10.94-9.58-10.94s-9.24,4.01-9.24,10.04v.45Zm9.51-13.25c7.81,0,13.11,5.33,13.11,13.14s-5.19,13.18-13.18,13.18-13.35-5.44-13.35-13.35,5.51-12.97,13.42-12.97"></path>
  <path class="cls-1" d="M197.88,63.48c-.35-.24-.59-.38-.8-.52-1.43-.9-3.38-1.39-5.55-1.39-6.13,0-10.39,4.11-10.39,10.07,0,2.72,.91,5.13,2.62,6.91,1.96,2.06,5.33,3.45,8.23,3.45,3.14,0,6.3-1.11,9.52-3.38l-2.86,5.58c-3.17,.49-4.49,.59-6.45,.59-2.47,0-4.49-.31-6.48-.98-4.92-1.67-8.2-6.41-8.2-11.75,0-4.04,1.78-7.74,4.88-10.25,2.78-2.23,6.21-3.24,10.91-3.24,1.4,0,2.37,.1,4.57,.59v4.32Z"></path>
</svg>
