<?xml version="1.0" encoding="utf-8"?>
<!-- Generator: Adobe Illustrator 16.0.0, SVG Export Plug-In . SVG Version: 6.00 Build 0)  -->
<!DOCTYPE svg PUBLIC "-//W3C//DTD SVG 1.1//EN" "http://www.w3.org/Graphics/SVG/1.1/DTD/svg11.dtd">
<svg version="1.1" id="Layer_1" xmlns="http://www.w3.org/2000/svg" xmlns:xlink="http://www.w3.org/1999/xlink" x="0px" y="0px"
	 width="216.667px" height="65.641px" viewBox="0 0 216.667 65.641" enable-background="new 0 0 216.667 65.641"
	 xml:space="preserve">
<g>
	<defs>
		<path id="SVGID_1_" d="M13.689,27.428c-1.239,10.238,3.257,17.745,11.9,18.922c7.313,0.998,13.581-1.539,18.181-7.487
			c1.532-1.981,2.316-4.305,2.556-6.881c0.625-6.691-5.586-9.495-10.16-6.515c5.283,1.051,7.122,4.788,4.196,8.527
			c-2.184,2.79-7.439,3.644-10.877,1.766c-3.305-1.805-4.47-5.465-2.98-9.364c2.612-6.842,11.393-10.575,18.311-7.784
			c6.048,2.439,8.23,9.533,4.952,16.75c-4.003,8.811-11.261,13.479-20.577,14.522c-12.586,1.41-20.923-5.941-21.808-18.42
			c-0.34-4.8,0.654-9.39,1.554-14.133c-5.007,5.661-7.456,12.387-8.052,19.835C-0.2,50.732,8.919,62.545,21.646,64.131
			c23.683,2.952,46.102-17.192,45.774-41.13C67.28,12.871,60.931,4.477,51.458,1.899c-2.053-0.559-4.171-0.822-6.308-0.822
			C30.709,1.078,15.42,13.106,13.689,27.428"/>
	</defs>
	<clipPath id="SVGID_2_">
		<use xlink:href="#SVGID_1_"  overflow="visible"/>
	</clipPath>
	
		<linearGradient id="SVGID_3_" gradientUnits="userSpaceOnUse" x1="-8.8335" y1="82.1802" x2="-7.8335" y2="82.1802" gradientTransform="matrix(-10.4355 -59.1824 -59.1824 10.4355 4810.2354 -1317.5664)">
		<stop  offset="0" style="stop-color:#02686C"/>
		<stop  offset="0.2581" style="stop-color:#43B1B0"/>
		<stop  offset="0.3054" style="stop-color:#69B29C"/>
		<stop  offset="0.3674" style="stop-color:#94B386"/>
		<stop  offset="0.4305" style="stop-color:#B7B473"/>
		<stop  offset="0.4939" style="stop-color:#D3B564"/>
		<stop  offset="0.5577" style="stop-color:#E6B65A"/>
		<stop  offset="0.6221" style="stop-color:#F2B654"/>
		<stop  offset="0.6882" style="stop-color:#F6B652"/>
		<stop  offset="1" style="stop-color:#F6B652"/>
	</linearGradient>
	<polygon clip-path="url(#SVGID_2_)" fill="url(#SVGID_3_)" points="1.849,78.704 -11.487,3.068 65.699,-10.542 79.035,65.093 	"/>
</g>
<g>
	<defs>
		<rect id="SVGID_4_" x="-8.833" y="-25.583" width="237.75" height="107.75"/>
	</defs>
	<clipPath id="SVGID_5_">
		<use xlink:href="#SVGID_4_"  overflow="visible"/>
	</clipPath>
	<path clip-path="url(#SVGID_5_)" fill="#F6B652" d="M210.654,13.724c-3.616-2.608-9.438-3.962-17.465-4.062h-26.033v7.412
		l15.727,0.027h7.556c3.702,0.059,6.34,0.71,7.915,1.949c1.575,1.24,2.344,2.742,2.31,4.508c0.034,1.864-0.762,3.357-2.387,4.477
		c-1.627,1.121-4.239,1.702-7.838,1.741h-7.556h-15.727v23.298h15.52V37.572h10.722c8.2-0.139,14.039-1.577,17.516-4.314
		c3.479-2.737,5.164-5.97,5.062-9.699C216.042,19.61,214.269,16.332,210.654,13.724"/>
	<path clip-path="url(#SVGID_5_)" fill="#F6B652" d="M120.364,33.6c-1.955-1.855-5.045-3.169-9.265-3.943
		c3.184-0.773,5.57-1.953,7.162-3.54c1.591-1.587,2.387-3.461,2.387-5.624c-0.034-2.995-1.842-5.529-5.423-7.602
		c-3.581-2.072-8.781-3.149-15.596-3.228H71.51l4.72,7.438h19.973c2.699,0.02,4.853,0.432,6.462,1.235
		c1.609,0.804,2.43,1.889,2.465,3.258c0.034,1.428-0.683,2.594-2.154,3.496c-1.471,0.903-3.797,1.364-6.98,1.384H82.177l4.72,7.438
		h9.773c3.495,0.021,6.133,0.526,7.915,1.519c1.782,0.991,3.443,3.098,3.443,4.823c0,1.904-0.134,3.012-1.493,5.006
		c-0.839,1.233-5.879,4.643-9.705,6.238l-3.919,1.669l6.144-0.094c7.761-0.124,13.721-1.448,17.883-3.971
		c4.169-2.529,6.271-5.56,6.306-9.09C123.277,37.592,122.317,35.455,120.364,33.6"/>
	<polygon clip-path="url(#SVGID_5_)" fill="#F6B652" points="144.94,9.663 144.94,25.878 124.667,25.878 124.667,33.673 
		144.94,33.673 144.94,53.074 160.458,53.074 160.458,9.663 	"/>
</g>
<g>
	<path fill="#014141" d="M75.734,55.974h4.179c0.997,0,1.78,0.24,2.35,0.72c0.569,0.479,0.854,1.046,0.854,1.7
		c0,0.839-0.441,1.482-1.322,1.93c0.664,0.175,1.173,0.484,1.526,0.928s0.529,0.96,0.529,1.551c0,0.84-0.289,1.523-0.865,2.05
		s-1.425,0.789-2.546,0.789h-4.705V55.974z M78.142,57.746v2.069h1.26c0.387,0,0.689-0.1,0.906-0.298s0.325-0.447,0.325-0.747
		c0-0.295-0.108-0.54-0.325-0.733c-0.217-0.194-0.519-0.291-0.906-0.291H78.142z M78.142,61.586v2.283h1.356
		c0.641,0,1.103-0.089,1.384-0.267c0.282-0.178,0.422-0.485,0.422-0.924c0-0.336-0.134-0.603-0.401-0.799s-0.625-0.294-1.073-0.294
		H78.142z"/>
	<path fill="#014141" d="M92.784,63.87v1.771h-7.127v-9.667h7.031v1.771h-4.623v2.027h4.408v1.771h-4.408v2.325H92.784z"/>
	<path fill="#014141" d="M101.185,56.597v1.889c-1.282-0.576-2.304-0.864-3.065-0.864c-0.434,0-0.778,0.072-1.034,0.218
		c-0.256,0.146-0.384,0.338-0.384,0.577c0,0.185,0.092,0.36,0.277,0.526s0.634,0.381,1.35,0.644
		c0.715,0.263,1.287,0.508,1.716,0.733c0.429,0.227,0.799,0.545,1.111,0.955c0.311,0.41,0.467,0.93,0.467,1.557
		c0,0.896-0.34,1.608-1.021,2.139c-0.681,0.53-1.577,0.796-2.688,0.796c-1.199,0-2.362-0.312-3.487-0.935v-2.083
		c0.646,0.434,1.218,0.75,1.716,0.948c0.499,0.198,1.026,0.298,1.585,0.298c0.945,0,1.418-0.298,1.418-0.893
		c0-0.203-0.095-0.395-0.284-0.574c-0.189-0.18-0.645-0.398-1.367-0.656c-0.722-0.259-1.294-0.498-1.716-0.72
		c-0.422-0.222-0.786-0.538-1.093-0.948c-0.307-0.411-0.46-0.937-0.46-1.578c0-0.831,0.334-1.501,1.003-2.011
		c0.668-0.51,1.563-0.765,2.685-0.765C98.945,55.85,100.036,56.099,101.185,56.597z"/>
	<path fill="#014141" d="M111.911,55.974v1.771h-3.502v7.896h-2.408v-7.896H102.5v-1.771H111.911z"/>
	<path fill="#014141" d="M126.96,55.974v9.667h-2.408v-3.909h-4.816v3.909h-2.407v-9.667h2.407v3.882h4.816v-3.882H126.96z"/>
	<path fill="#014141" d="M134.247,55.85c1.646,0,2.979,0.497,3.999,1.491s1.529,2.15,1.529,3.47c0,1.338-0.517,2.498-1.55,3.48
		s-2.359,1.475-3.979,1.475c-1.638,0-2.971-0.489-4-1.468c-1.028-0.978-1.543-2.14-1.543-3.487c0-1.324,0.511-2.481,1.533-3.474
		C131.258,56.346,132.595,55.85,134.247,55.85z M134.247,63.759c0.913,0,1.649-0.271,2.207-0.813
		c0.559-0.542,0.838-1.254,0.838-2.135c0-0.886-0.279-1.599-0.838-2.138c-0.558-0.54-1.294-0.81-2.207-0.81
		c-0.918,0-1.657,0.27-2.218,0.81c-0.561,0.539-0.841,1.252-0.841,2.138c0,0.881,0.28,1.593,0.841,2.135
		S133.329,63.759,134.247,63.759z"/>
	<path fill="#014141" d="M146.719,59.559l3.107-3.585h2.093v9.667h-2.408v-6.034l-2.611,3.031h-0.361l-2.611-3.031v6.034h-2.408
		v-9.667h2.091L146.719,59.559z"/>
	<path fill="#014141" d="M161.213,63.87v1.771h-7.127v-9.667h7.03v1.771h-4.622v2.027h4.407v1.771h-4.407v2.325H161.213z"/>
	<path fill="#014141" d="M167.088,55.974h4.311c0.978,0,1.755,0.284,2.332,0.852c0.576,0.567,0.865,1.238,0.865,2.014
		c0,0.803-0.285,1.49-0.854,2.062c-0.57,0.572-1.347,0.858-2.329,0.858h-1.917v3.882h-2.407V55.974z M169.496,57.746v2.242h1.121
		c1.001,0,1.502-0.374,1.502-1.121c0-0.42-0.134-0.712-0.401-0.875c-0.268-0.164-0.725-0.246-1.37-0.246H169.496z"/>
	<path fill="#014141" d="M183.654,63.87v1.771h-7.37v-9.667h2.408v7.896H183.654z"/>
	<path fill="#014141" d="M190.66,55.974l4.294,9.667h-2.59l-0.796-1.91h-4.329l-0.723,1.91h-2.551l3.904-9.667H190.66z
		 M190.864,62.042l-1.567-3.757l-1.42,3.757H190.864z"/>
	<path fill="#014141" d="M204.426,55.974l-5.271,7.896h5.271v1.771h-9.383l5.313-7.896h-4.946v-1.771H204.426z"/>
	<path fill="#014141" d="M211.62,55.974l4.294,9.667h-2.59l-0.796-1.91h-4.329l-0.723,1.91h-2.551l3.904-9.667H211.62z
		 M211.824,62.042l-1.567-3.757l-1.42,3.757H211.824z"/>
</g>
<g>
	<defs>
		<rect id="SVGID_6_" x="-8.833" y="-25.583" width="237.75" height="107.75"/>
	</defs>
	<clipPath id="SVGID_7_">
		<use xlink:href="#SVGID_6_"  overflow="visible"/>
	</clipPath>
	<path clip-path="url(#SVGID_7_)" fill="#014141" d="M117.03,33.6c-1.955-1.855-5.044-3.169-9.264-3.943
		c3.183-0.773,5.57-1.953,7.162-3.54c1.591-1.587,2.387-3.461,2.387-5.624c-0.035-2.995-1.842-5.529-5.423-7.602
		c-3.581-2.072-8.781-3.149-15.596-3.228H68.177l4.72,7.438H92.87c2.699,0.02,4.853,0.432,6.462,1.235
		c1.609,0.804,2.43,1.889,2.465,3.258c0.034,1.428-0.683,2.594-2.154,3.496c-1.471,0.903-3.797,1.364-6.98,1.384H78.844l4.72,7.438
		h9.773c3.495,0.021,6.133,0.526,7.915,1.519c1.782,0.991,3.443,3.098,3.443,4.823c0,1.904-0.134,3.012-1.493,5.006
		c-0.839,1.233-5.879,4.643-9.705,6.238l-3.919,1.669l6.144-0.094c7.761-0.124,13.721-1.448,17.883-3.971
		c4.169-2.529,6.271-5.56,6.305-9.09C119.944,37.592,118.984,35.455,117.03,33.6"/>
	<polygon clip-path="url(#SVGID_7_)" fill="#014141" points="141.606,9.663 141.606,25.878 122.167,25.878 122.167,33.673 
		141.606,33.673 141.606,53.074 157.125,53.074 157.125,9.663 	"/>
	<path clip-path="url(#SVGID_7_)" fill="#014141" d="M207.654,13.724c-3.616-2.608-9.438-3.962-17.465-4.062h-26.033v7.412
		l15.727,0.027h7.556c3.702,0.059,6.34,0.71,7.915,1.949c1.575,1.24,2.344,2.742,2.31,4.508c0.034,1.864-0.762,3.357-2.387,4.477
		c-1.627,1.121-4.239,1.702-7.838,1.741h-7.556h-15.727v23.298h15.52V37.572h10.722c8.2-0.139,14.039-1.577,17.516-4.314
		c3.479-2.737,5.164-5.97,5.062-9.699C213.042,19.61,211.269,16.332,207.654,13.724"/>
</g>
</svg>
