<?xml version="1.0" encoding="UTF-8"?>
<svg xmlns="http://www.w3.org/2000/svg" id="Laag_1" version="1.1" viewBox="0 0 365 111">
  <defs>
    <style>
      .st0 {
        fill: #cecece;
      }

      .st1 {
        fill: #7c7c7b;
      }

      .st2 {
        fill: #0090d2;
      }
    </style>
  </defs>
  <g>
    <circle class="st2" cx="160.8" cy="20.4" r="6.6" transform="translate(-.3 2.2) rotate(-.8)"></circle>
    <path class="st2" d="M160.8,41.6c-3.7-3.8-14.6-14.7-14.6-14.7l-5.2,5.2,17.2,17.3c.7.7,1.6,1.1,2.6,1.1,1,0,1.9-.4,2.6-1.1l30.4-30.4-5.2-5.2s-23.4,23.4-27.8,27.8Z"></path>
    <path class="st0" d="M160.8,69.7c3.7,3.8,14.6,14.7,14.6,14.7l5.2-5.2-17.2-17.3c-.7-.7-1.6-1.1-2.6-1.1-1,0-1.9.4-2.6,1.1l-30.4,30.4,5.2,5.2s23.4-23.4,27.8-27.8Z"></path>
    <path class="st0" d="M174.8,55.8c3.8-3.7,14.9-14.3,14.9-14.3l-5.1-5.3-17.6,16.9c-.7.7-1.1,1.6-1.1,2.6,0,1,.4,1.9,1,2.6l29.9,30.9,5.3-5.1s-23.1-23.8-27.3-28.3Z"></path>
    <path class="st0" d="M146.7,55.5c-3.8,3.7-14.9,14.3-14.9,14.3l5.1,5.3,17.6-16.9c.7-.7,1.1-1.6,1.1-2.6,0-1-.4-1.9-1-2.6l-29.9-30.9-5.3,5.1s23.1,23.8,27.3,28.3Z"></path>
  </g>
  <g>
    <path class="st1" d="M19.4,63h-4.2l-5.9-15.9h4.5l2.5,7.2c.4,1.1.8,2.4,1.1,3.5h0c.3-1.1.6-2.3,1-3.4l2.6-7.3h4.4l-6,15.9Z"></path>
    <path class="st1" d="M33.2,63.3c-4.5,0-7.4-2.3-7.4-8s3.3-8.5,8.1-8.5,7.4,2.5,7.4,8-3.4,8.6-8.1,8.6ZM33.6,50.2c-1.8,0-3.6,1.4-3.6,4.7s1.2,4.9,3.6,4.9,3.6-1.6,3.6-4.9-1.1-4.7-3.5-4.7Z"></path>
    <path class="st1" d="M44.6,63v-23.4h4.1v23.4h-4.1Z"></path>
    <path class="st1" d="M62.1,63l-4.9-7.9v7.9h-4.1v-23.4h4.1v14.1l4.6-6.6h5l-5.6,7.3,6,8.6h-5.1Z"></path>
    <path class="st1" d="M82.1,55.7h-9.9c0,3,1.4,4.4,4.4,4.4s3.3-.4,4.6-1l.4,3.2c-1.7.7-3.7,1-5.7,1-5.1,0-7.9-2.5-7.9-8.1s2.7-8.4,7.5-8.4,6.7,3.2,6.7,7.1,0,1.2-.1,1.9ZM75.4,49.7c-1.7,0-2.9,1.2-3.1,3.2h5.9c0-2-1-3.2-2.8-3.2Z"></path>
    <path class="st1" d="M94.1,50.7c-2.9-.6-4.4,1.3-4.4,5.7v6.5h-4.1v-15.9h3.9c0,.8,0,2.1-.3,3.2h0c.8-2,2.3-3.8,5.1-3.6l-.2,4Z"></path>
    <path class="st1" d="M102.9,63.3c-3.5,0-4.6-1.3-4.6-5v-8.1h-2.8v-3.2h2.7v-4.9l4.1-1.1v6h3.9v3.2h-3.9v7c0,2,.5,2.6,1.9,2.6s1.4,0,2-.3v3.3c-1,.3-2.2.4-3.3.4Z"></path>
    <path class="st1" d="M112.3,63.3c-1.2,0-2.3-.1-3.3-.3v-3.4c1.1.3,2.3.5,3.5.5s2.6-.6,2.6-1.7c0-2.8-6.4-1.2-6.4-6.6s2.3-5.1,6.8-5.1,2,.1,2.9.3v3.2c-1-.3-2.1-.4-3.1-.4-1.6,0-2.4.6-2.4,1.6,0,2.6,6.5,1.4,6.5,6.6s-2.8,5.2-7.1,5.2Z"></path>
    <path class="st1" d="M219.5,63v-10.2c0-2.2-.5-3.6-2.6-3.6s-4.4,2.4-4.4,6.2v7.6h-2.8v-10.2c0-2-.4-3.6-2.6-3.6s-4.4,2.6-4.4,6.2v7.6h-2.9v-15.9h2.8c0,.9,0,2.4-.3,3.3h0c.9-2.2,3-3.6,5.5-3.6s4.3,2.3,4.4,3.6c.7-1.5,2.4-3.6,5.4-3.6s4.7,1.6,4.7,5.2v11h-2.9Z"></path>
    <path class="st1" d="M236.3,63c0-1.1,0-2.3.2-3.2h0c-.8,2-2.8,3.5-5.4,3.5s-4.4-1.4-4.4-3.9,3.6-5.7,9.6-5.7v-1.2c0-2.2-.9-3.4-3.5-3.4s-3.4.5-4.8,1.3l-.3-2.5c1.5-.6,3.5-1.2,5.6-1.2,4.6,0,5.9,2.1,5.9,5.3v6.3c0,1.5,0,3.2,0,4.6h-2.8ZM236.1,55.6c-5.5,0-6.8,1.7-6.8,3.1s1,2.2,2.4,2.2c2.6,0,4.3-2.6,4.3-5.1v-.3Z"></path>
    <path class="st1" d="M253.3,63l-5.9-8.2v8.2h-2.9v-23.4h2.9v14.4l5.6-7h3.5l-6.1,7.3,6.6,8.6h-3.7Z"></path>
    <path class="st1" d="M271.7,54.8h-10.4c-.1,4.3,1.6,6.1,5,6.1s3.4-.4,4.6-1l.3,2.3c-1.5.6-3.4,1-5.4,1-4.9,0-7.5-2.6-7.5-8.2s2.6-8.3,7.1-8.3,6.4,3,6.4,6.7,0,.8,0,1.4ZM265.3,48.9c-2.1,0-3.6,1.6-3.9,3.9h7.4c0-2.3-1.3-3.9-3.6-3.9Z"></path>
    <path class="st1" d="M276,63v-23.4h2.9v23.4h-2.9Z"></path>
    <path class="st1" d="M292.8,63c0-1.1,0-2.3.2-3.2h0c-.8,2-2.8,3.5-5.4,3.5s-4.4-1.4-4.4-3.9,3.6-5.7,9.6-5.7v-1.2c0-2.2-.9-3.4-3.5-3.4s-3.4.5-4.8,1.3l-.3-2.5c1.5-.6,3.5-1.2,5.6-1.2,4.6,0,5.9,2.1,5.9,5.3v6.3c0,1.5,0,3.2,0,4.6h-2.8ZM292.6,55.6c-5.5,0-6.8,1.7-6.8,3.1s1,2.2,2.4,2.2c2.6,0,4.3-2.6,4.3-5.1v-.3Z"></path>
    <path class="st1" d="M309.4,63c0-1.1,0-2.3.2-3.2h0c-.8,2-2.8,3.5-5.4,3.5s-4.4-1.4-4.4-3.9,3.6-5.7,9.6-5.7v-1.2c0-2.2-.9-3.4-3.5-3.4s-3.4.5-4.8,1.3l-.3-2.5c1.5-.6,3.5-1.2,5.6-1.2,4.6,0,5.9,2.1,5.9,5.3v6.3c0,1.5,0,3.2,0,4.6h-2.8ZM309.3,55.6c-5.5,0-6.8,1.7-6.8,3.1s1,2.2,2.4,2.2c2.6,0,4.3-2.6,4.3-5.1v-.3Z"></path>
    <path class="st1" d="M325.5,49.6c-3.4-.6-5,1.9-5,7v6.4h-2.9v-15.9h2.8c0,1,0,2.5-.4,3.8h0c.7-2.2,2.3-4.4,5.5-4.1v2.8Z"></path>
    <path class="st1" d="M338.3,63c0-.9,0-2.3.3-3.2h0c-.9,2.1-2.8,3.5-5.3,3.5-3.9,0-5.9-2.8-5.9-7.5s3.2-8.9,8.2-8.9,1.7,0,2.7.2v-7.4h2.9v23.4h-2.8ZM338.2,49.5c-1-.3-1.9-.4-2.8-.4-3,0-5.1,1.8-5.1,6.4s1.1,5.4,3.5,5.4,4.4-3.4,4.4-6.1v-5.3Z"></path>
    <path class="st1" d="M347.9,44.4c-1.1,0-1.9-.8-1.9-1.9s.9-1.9,1.9-1.9,1.9.8,1.9,1.9-.9,1.9-1.9,1.9ZM346.5,63v-15.9h2.9v15.9h-2.9Z"></path>
    <path class="st1" d="M352.4,71.1c-.7,0-1.6,0-2.2-.3l.3-2.5c.6.2,1.3.4,2,.4,2,0,2.6-.8,2.6-3.7v-17.9h2.8v17.7c0,4.3-1.3,6.4-5.5,6.4ZM356.5,44.4c-1.1,0-1.9-.8-1.9-1.9s.9-1.9,1.9-1.9,1.9.8,1.9,1.9-.9,1.9-1.9,1.9Z"></path>
  </g>
</svg>
