<svg xmlns="http://www.w3.org/2000/svg" id="Laag_2" viewBox="0 0 821.9 242.78"><defs><style>.cls-1{fill:#fff;}.cls-2{fill:#a8e960;}.cls-3{fill:#1356a3;}</style></defs><g id="Laag_2-2"><g><path class="cls-1" d="M239.43,81.06l.5-41.01h-.34l-10.04,41.01h-9.54l-9.7-41.01h-.25l.42,41.01h-12.24V21.32h17.04l9.62,38.48h.34l9.37-38.48h18.06v59.74h-13.25Z"></path><path class="cls-1" d="M288.96,81.06l-2.45-10.89h-13.42l-2.45,10.89h-13.5l14.51-59.74h16.96l14.43,59.74h-14.09Zm-8.95-46.75h-.34l-5.06,25.4h10.21l-4.81-25.4Z"></path><path class="cls-1" d="M334.02,81.06l-12.74-27.76h-.25v27.76h-13.59V21.32h13.59v24.89h.25l12.32-24.89h15.1l-15.36,27.34,16.29,32.4h-15.61Z"></path><path class="cls-1" d="M354.52,81.06V21.32h28.86v11.9h-15.95v11.73h14.68v11.14h-14.68v12.83h16.96v12.15h-29.87Z"></path><path class="cls-1" d="M391.48,81.06V21.32h13.67v47.25h15.95v12.49h-29.62Z"></path><path class="cls-1" d="M452.82,81.06l-2.45-10.89h-13.42l-2.45,10.89h-13.5l14.51-59.74h16.96l14.43,59.74h-14.09Zm-8.95-46.75h-.34l-5.06,25.4h10.21l-4.81-25.4Z"></path><path class="cls-1" d="M497.8,81.06l-2.45-10.89h-13.42l-2.44,10.89h-13.5l14.51-59.74h16.96l14.43,59.74h-14.09Zm-8.95-46.75h-.34l-5.06,25.4h10.21l-4.81-25.4Z"></path><path class="cls-1" d="M541.21,81.06l-7.99-23.79h-3.95v23.79h-13V21.32h19.11c5.78,0,10.27,1.51,13.47,4.52,3.2,3.01,4.8,7.49,4.8,13.46,0,2.2-.25,4.16-.76,5.91-.5,1.75-1.16,3.24-1.97,4.47-.81,1.24-1.73,2.25-2.73,3.04-1.01,.79-1.99,1.35-2.94,1.69l10.18,26.66h-14.22Zm-.8-41.01c0-1.52-.21-2.75-.63-3.71-.42-.96-.97-1.72-1.65-2.28-.67-.56-1.42-.94-2.24-1.14-.81-.19-1.62-.3-2.4-.3h-4.22v15.1h3.97c1.91,0,3.59-.6,5.02-1.81,1.43-1.21,2.15-3.16,2.15-5.86Z"></path><path class="cls-1" d="M602.68,51.36c0,4.5-.49,8.58-1.48,12.24-.99,3.66-2.49,6.78-4.51,9.37-2.03,2.59-4.6,4.59-7.72,5.99-3.12,1.41-6.82,2.11-11.09,2.11h-16.79V21.32h16.79c4.27,0,7.97,.71,11.09,2.11,3.12,1.41,5.7,3.42,7.72,6.03,2.02,2.62,3.53,5.77,4.51,9.45,.98,3.68,1.48,7.83,1.48,12.44Zm-13.59,0c0-6.02-1.03-10.56-3.08-13.63-2.05-3.07-4.71-4.6-7.97-4.6h-3.29v36.11h3.29c3.26,0,5.92-1.53,7.97-4.6,2.06-3.07,3.08-7.49,3.08-13.29Z"></path><path class="cls-1" d="M610.02,81.06V21.32h13.59v59.74h-13.59Zm51.47-18.82c0,6.24-1.39,11.17-4.18,14.77-2.78,3.6-7.16,5.4-13.12,5.4-4.16,0-7.71-1.18-10.63-3.54-2.93-2.36-4.84-5.49-5.74-9.37l10.97-4.9c.34,1.35,.89,2.53,1.65,3.55,.76,1.01,1.79,1.52,3.08,1.52,1.85,0,3.08-.76,3.67-2.28s.89-3.63,.89-6.33V21.32h13.42V62.25Z"></path><path class="cls-1" d="M224.41,158.28h-17.13l-14.43-59.74h15.27l8.1,43.71h.17l8.01-43.71h14.68l-14.68,59.74Z"></path><path class="cls-1" d="M268.96,158.28l-2.45-10.89h-13.42l-2.45,10.89h-13.5l14.51-59.74h16.96l14.43,59.74h-14.09Zm-8.95-46.75h-.34l-5.06,25.4h10.21l-4.81-25.4Z"></path><path class="cls-1" d="M313.26,158.28l-13.84-36.37h-.25l.34,36.37h-12.07v-59.74h14.85l13.75,36.88h.25l-.25-36.88h11.65v59.74h-14.43Z"></path><path class="cls-1" d="M384.56,158.28c-2.7,.9-5.88,1.35-9.53,1.35s-7.13-.76-10.08-2.28c-2.95-1.52-5.46-3.64-7.51-6.37-2.05-2.73-3.63-6-4.72-9.83s-1.65-8.07-1.65-12.74,.55-8.93,1.65-12.78c1.1-3.85,2.66-7.17,4.68-9.96,2.02-2.78,4.46-4.94,7.3-6.45,2.84-1.52,6-2.28,9.49-2.28,4.05,0,7.44,.69,10.17,2.07,2.73,1.38,4.88,3.11,6.45,5.19l-7.34,9.87c-2.03-2.81-4.8-4.22-8.31-4.22-1.87,0-3.48,.49-4.83,1.48-1.36,.98-2.48,2.32-3.39,4.01-.9,1.69-1.57,3.66-1.99,5.91-.43,2.25-.64,4.64-.64,7.17s.2,4.92,.59,7.17c.4,2.25,1.03,4.22,1.91,5.9,.88,1.69,1.98,3.04,3.31,4.05,1.33,1.01,2.93,1.52,4.8,1.52,2.03,0,3.62-.42,4.75-1.26v-11.14h-6.41v-11.73h18.23v31.81c-1.91,1.46-4.22,2.64-6.92,3.54Z"></path><path class="cls-1" d="M399.92,158.28v-59.74h28.86v11.9h-15.95v11.73h14.68v11.14h-14.68v12.83h16.96v12.15h-29.87Z"></path><path class="cls-1" d="M462.7,158.28l-13.84-36.37h-.25l.34,36.37h-12.07v-59.74h14.85l13.75,36.88h.25l-.25-36.88h11.65v59.74h-14.43Z"></path><path class="cls-1" d="M505.73,110.01v48.27h-13.25v-48.27h-10.97v-11.48h35.19v11.48h-10.97Z"></path><path class="cls-1" d="M573.36,145.45c-.76,2.87-1.95,5.37-3.59,7.51-1.63,2.14-3.74,3.83-6.33,5.06-2.59,1.24-5.71,1.85-9.37,1.85s-6.75-.62-9.28-1.85c-2.53-1.24-4.6-2.93-6.2-5.06-1.6-2.14-2.76-4.64-3.46-7.51-.7-2.87-1.05-5.96-1.05-9.28v-37.64h13.59v36.45c0,1.69,.1,3.26,.3,4.72,.2,1.46,.55,2.71,1.05,3.75,.51,1.04,1.18,1.87,2.03,2.49,.84,.62,1.94,.93,3.29,.93s2.45-.31,3.29-.93,1.52-1.45,2.03-2.49c.5-1.04,.86-2.29,1.05-3.75,.19-1.46,.3-3.04,.3-4.72v-36.45h13.5v37.64c0,3.32-.38,6.41-1.14,9.28Z"></path><path class="cls-1" d="M602.09,110.01v48.27h-13.25v-48.27h-10.97v-11.48h35.19v11.48h-10.97Z"></path><path class="cls-1" d="M642.38,158.28l-7.99-23.79h-3.95v23.79h-13v-59.74h19.11c5.78,0,10.27,1.51,13.47,4.52s4.8,7.49,4.8,13.46c0,2.2-.25,4.16-.76,5.91-.5,1.75-1.16,3.24-1.97,4.47-.81,1.24-1.73,2.25-2.73,3.04-1.01,.79-1.99,1.35-2.94,1.69l10.18,26.66h-14.22Zm-.8-41.01c0-1.52-.21-2.75-.63-3.71-.42-.96-.97-1.72-1.65-2.28-.67-.56-1.42-.94-2.24-1.14-.81-.19-1.62-.3-2.4-.3h-4.22v15.1h3.97c1.91,0,3.59-.6,5.02-1.81,1.43-1.21,2.15-3.16,2.15-5.86Z"></path><path class="cls-1" d="M662.25,158.28v-59.74h28.86v11.9h-15.95v11.73h14.68v11.14h-14.68v12.83h16.96v12.15h-29.87Z"></path><path class="cls-1" d="M730.09,157.56c-2.65,1.54-6.02,2.32-10.13,2.32-3.49,0-6.65-.77-9.49-2.32-2.84-1.55-5.27-3.71-7.3-6.5-2.02-2.79-3.6-6.1-4.72-9.96-1.13-3.85-1.69-8.09-1.69-12.7s.56-8.94,1.69-12.83c1.12-3.88,2.7-7.2,4.72-9.96,2.03-2.75,4.46-4.89,7.3-6.41,2.84-1.52,6-2.28,9.49-2.28,3.99,0,7.33,.72,10,2.15,2.67,1.43,4.82,3.22,6.46,5.36l-7.26,9.79c-1.01-1.35-2.15-2.42-3.42-3.2-1.26-.79-2.85-1.18-4.77-1.18-1.8,0-3.36,.48-4.68,1.44s-2.45,2.26-3.38,3.92c-.93,1.66-1.62,3.63-2.07,5.91-.45,2.28-.67,4.71-.67,7.3s.22,5.01,.67,7.26c.45,2.25,1.14,4.22,2.07,5.91,.93,1.69,2.07,3.01,3.42,3.97,1.35,.96,2.92,1.43,4.72,1.43s3.38-.45,4.73-1.35c1.35-.9,2.42-1.97,3.21-3.21l7.51,9.37c-1.63,2.31-3.77,4.23-6.41,5.78Z"></path><path class="cls-1" d="M768.91,158.28v-24.98h-13.92v24.98h-13.42v-59.74h13.42v22.61h13.92v-22.61h13.41v59.74h-13.41Z"></path><path class="cls-1" d="M810.93,110.01v48.27h-13.25v-48.27h-10.97v-11.48h35.19v11.48h-10.97Z"></path></g><g><path class="cls-2" d="M49.65,200.45c10.98,17.59,20.94,32.19,26.41,40.04,2.13,3.06,6.65,3.06,8.78,0,5.47-7.84,15.43-22.45,26.41-40.04,2.18-3.58,4.48-7.15,6.78-10.98,20.92-34.79,42.87-77.22,42.87-102.38C160.9,38.98,124.93,0,80.45,0S0,38.98,0,87.09c0,25.16,21.95,67.6,42.87,102.38,2.3,3.82,4.6,7.4,6.78,10.98h0Z"></path><g><path class="cls-3" d="M32.03,83.99v45.2c0,15.25,12.41,27.67,27.67,27.67h41.5c15.26,0,27.67-12.42,27.67-27.67v-45.2l-48.42-32.29-48.42,32.29Zm55.34,59.05h-13.84v-27.67h13.84v27.67Zm27.67-13.83c0,7.62-6.2,13.84-13.84,13.84v-41.5H59.7v41.5c-7.63,0-13.84-6.21-13.84-13.84v-37.8l34.59-23.06,34.59,23.06v37.81Z"></path><path class="cls-3" d="M128.87,39.28h-13.83v7.82l-34.59-23.06L14.35,68.11l7.68,11.51,58.42-38.95,58.42,38.95,7.68-11.51-17.67-11.79v-17.05Z"></path></g></g></g></svg>