<?xml version="1.0" encoding="UTF-8" standalone="no"?>
<svg
   xmlns:dc="http://purl.org/dc/elements/1.1/"
   xmlns:cc="http://creativecommons.org/ns#"
   xmlns:rdf="http://www.w3.org/1999/02/22-rdf-syntax-ns#"
   xmlns:svg="http://www.w3.org/2000/svg"
   xmlns="http://www.w3.org/2000/svg"
   viewBox="0 0 633.26666 230.75999"
   height="230.75999"
   width="633.26666"
   xml:space="preserve"
   id="svg2"
   version="1.1"><metadata
     id="metadata8"><rdf:RDF><cc:Work
         rdf:about=""><dc:format>image/svg+xml</dc:format><dc:type
           rdf:resource="http://purl.org/dc/dcmitype/StillImage" /></cc:Work></rdf:RDF></metadata><defs
     id="defs6" /><g
     transform="matrix(1.3333333,0,0,-1.3333333,0,230.76)"
     id="g10"><g
       transform="scale(0.1)"
       id="g12"><path
         id="path14"
         style="fill:#f1511b;fill-opacity:1;fill-rule:nonzero;stroke:none"
         d="M 5.12109,1097.18 H 633.551 v 628.43 H 5.12109 v -628.43" /><path
         id="path16"
         style="fill:none;stroke:#f1511b;stroke-width:10.23999977;stroke-linecap:butt;stroke-linejoin:miter;stroke-miterlimit:4;stroke-dasharray:none;stroke-opacity:1"
         d="M 5.12109,1097.18 H 633.551 v 628.43 H 5.12109 Z" /><path
         id="path18"
         style="fill:#ffffff;fill-opacity:1;fill-rule:nonzero;stroke:none"
         d="m 109.918,1183.69 c 0.008,79.6 -0.391,159.2 0.57,238.79 0.11,9.52 5.039,21.31 12.055,28.07 58.574,56.37 118.094,111.86 177.461,167.5 21.133,19.79 27.519,19.91 48.16,0.43 10.492,-9.9 19.981,-20.74 32.734,-34.11 4.918,21.11 15.727,27.81 33.676,26.4 15.66,-1.23 31.574,-1.11 47.262,-0.05 23.168,1.57 33.617,-6.61 32.449,-29.39 -1.32,-25.69 0.731,-51.54 -0.676,-77.23 -0.894,-16.16 2.969,-28.9 17.118,-38.37 23.73,-15.89 29.527,-37.3 28.808,-64.33 -1.937,-72.53 -0.648,-145.13 -0.64,-217.71 z m 45.277,36.81 h 342.989 c 0,56.38 -0.668,108.82 1.484,163.39 1.051,26.37 -4.645,47.2 -28.129,62.41 -15.273,9.9 -18.574,23.68 -17.773,40.51 1.324,27.92 0.359,55.93 0.359,84.86 h -29.988 c 0,-8.19 0.929,-15.21 -0.211,-21.93 -1.852,-10.87 -1.422,-27.07 -8.438,-31.15 -15.492,-9 -26.523,5.17 -37.004,15.21 -17.738,16.99 -35.828,33.66 -54.058,50.74 -56.692,-53.28 -114.16,-104.49 -167.809,-155.69" /><path
         id="path20"
         style="fill:#f1511b;fill-opacity:1;fill-rule:nonzero;stroke:none"
         d="M 710.57,1097.18 H 1339 v 628.43 H 710.57 v -628.43" /><path
         id="path22"
         style="fill:none;stroke:#f1511b;stroke-width:10.23999977;stroke-linecap:butt;stroke-linejoin:miter;stroke-miterlimit:4;stroke-dasharray:none;stroke-opacity:1"
         d="M 710.57,1097.18 H 1339 v 628.43 H 710.57 Z" /><path
         id="path24"
         style="fill:#ffffff;fill-opacity:1;fill-rule:nonzero;stroke:none"
         d="m 981.508,1170.27 v 160.82 c -96.211,32.73 -127.442,107.15 -114.121,185.72 13.332,78.57 81.429,137.04 172.143,128.82 74.92,-6.79 130.34,-59.39 142.36,-130.53 15.72,-92.88 -65.85,-170.47 -115.42,-183.98 v -160.85 z m 57.802,24.39 c 0,47.74 0.27,93.57 -0.17,139.39 -0.14,13.5 2.8,19.89 18.12,24.33 62.79,18.18 104.36,72.86 97.85,139.77 -5.55,56.98 -43.29,102.34 -100.84,116.54 -54.575,13.48 -104.985,-8.35 -136.653,-52.58 -55.312,-77.25 -14.34,-182.09 78.699,-204.81 11.184,-2.73 15.844,-9.05 15.774,-20.01 -0.06,-13.79 -0.04,-71.84 -0.02,-111.94 0,-5.08 0,-9.86 0.01,-14.23 0,-6.55 0,-12.18 0,-16.46 h 27.23" /><path
         id="path26"
         style="fill:#f1511b;fill-opacity:1;fill-rule:nonzero;stroke:none"
         d="M 5.12109,399.488 H 633.551 V 1027.91 H 5.12109 V 399.488" /><path
         id="path28"
         style="fill:none;stroke:#f1511b;stroke-width:10.23999977;stroke-linecap:butt;stroke-linejoin:miter;stroke-miterlimit:4;stroke-dasharray:none;stroke-opacity:1"
         d="M 5.12109,399.488 H 633.551 V 1027.91 H 5.12109 Z" /><path
         id="path30"
         style="fill:#ffffff;fill-opacity:1;fill-rule:nonzero;stroke:none"
         d="m 202.039,542.25 v 146.578 c -11.457,2.152 -22.019,6.203 -32.371,5.731 -57.672,-2.61 -50.348,14.461 -62.672,60.843 -4.516,16.965 1.106,30.586 20.543,35.766 7.379,1.961 13.652,7.867 21,10.145 28.238,8.73 41.633,28.898 49.332,56.289 2.93,10.39 14.18,18.425 21.637,27.55 7.66,-7.754 17.363,-14.336 22.609,-23.476 16.25,-28.34 31.375,-57.375 45.731,-86.723 5.332,-10.887 11.941,-13.726 23.519,-13.609 59.485,0.613 118.981,-0.207 178.453,0.508 28.262,0.339 56.559,-4.817 65.18,-33.571 -0.121,-33.609 -35.551,-56.761 -62.012,-59.019 V 542.25 h -95.39 v 65.16 H 297.426 v -65.16 z m 23.66,261.055 c -8.172,-6.903 -15.75,-15.008 -24.871,-20.625 -12.582,-7.727 -26.898,-12.696 -39.308,-20.645 -5.422,-3.484 -11.5,-11.902 -10.782,-17.195 0.61,-4.582 10.043,-10.305 16.258,-11.328 17.711,-2.903 35.781,-4.934 53.703,-4.864 16.481,0.051 19.903,-7.5 19.684,-21.976 -0.613,-39.652 -0.012,-79.344 -0.305,-119.024 -0.105,-13.878 22.832,-27.058 19.031,34.641 -1.273,20.949 6.493,30.5 28.582,29.93 39.649,-1.02 79.34,-0.18 119.008,-0.328 26.481,-0.102 25.938,-7.289 26.86,-34.321 0.242,-7.191 -3.739,-45.359 14.171,-45.359 9.922,0 7.129,74.629 7.129,87.918 0,50.859 0,50.851 49.399,54.332 0.715,0.059 1.312,1.738 3.101,4.289 -71.019,0 -140.726,0.32 -210.449,-0.211 -17.613,-0.129 -29.492,5.75 -37.472,21.973 -10.961,22.297 -23.461,43.816 -33.739,62.793" /><path
         id="path32"
         style="fill:none;stroke:#f1511b;stroke-width:10;stroke-linecap:butt;stroke-linejoin:miter;stroke-miterlimit:10;stroke-dasharray:none;stroke-opacity:1"
         d="m 202.039,542.25 v 146.578 c -11.457,2.152 -22.019,6.203 -32.371,5.731 -57.672,-2.61 -50.348,14.461 -62.672,60.843 -4.516,16.965 1.106,30.586 20.543,35.766 7.379,1.961 13.652,7.867 21,10.145 28.238,8.73 41.633,28.898 49.332,56.289 2.93,10.39 14.18,18.425 21.637,27.55 7.66,-7.754 17.363,-14.336 22.609,-23.476 16.25,-28.34 31.375,-57.375 45.731,-86.723 5.332,-10.887 11.941,-13.726 23.519,-13.609 59.485,0.613 118.981,-0.207 178.453,0.508 28.262,0.339 56.559,-4.817 65.18,-33.571 -0.121,-33.609 -35.551,-56.761 -62.012,-59.019 V 542.25 h -95.39 v 65.16 H 297.426 v -65.16 z m 23.66,261.055 c -8.172,-6.903 -15.75,-15.008 -24.871,-20.625 -12.582,-7.727 -26.898,-12.696 -39.308,-20.645 -5.422,-3.484 -11.5,-11.902 -10.782,-17.195 0.61,-4.582 10.043,-10.305 16.258,-11.328 17.711,-2.903 35.781,-4.934 53.703,-4.864 16.481,0.051 19.903,-7.5 19.684,-21.976 -0.613,-39.652 -0.012,-79.344 -0.305,-119.024 -0.105,-13.878 22.832,-27.058 19.031,34.641 -1.273,20.949 6.493,30.5 28.582,29.93 39.649,-1.02 79.34,-0.18 119.008,-0.328 26.481,-0.102 25.938,-7.289 26.86,-34.321 0.242,-7.191 -3.739,-45.359 14.171,-45.359 9.922,0 7.129,74.629 7.129,87.918 0,50.859 0,50.851 49.399,54.332 0.715,0.059 1.312,1.738 3.101,4.289 -71.019,0 -140.726,0.32 -210.449,-0.211 -17.613,-0.129 -29.492,5.75 -37.472,21.973 -10.961,22.297 -23.461,43.816 -33.739,62.793 z" /><path
         id="path34"
         style="fill:#f1511b;fill-opacity:1;fill-rule:nonzero;stroke:none"
         d="M 710.57,399.488 H 1339 V 1027.91 H 710.57 V 399.488" /><path
         id="path36"
         style="fill:none;stroke:#f1511b;stroke-width:10.23999977;stroke-linecap:butt;stroke-linejoin:miter;stroke-miterlimit:4;stroke-dasharray:none;stroke-opacity:1"
         d="M 710.57,399.488 H 1339 V 1027.91 H 710.57 Z" /><path
         id="path38"
         style="fill:#ffffff;fill-opacity:1;fill-rule:nonzero;stroke:none"
         d="M 1072.08,796.332 C 1012.6,735.973 963.918,673.809 925.996,609.871 l -10.43,23.551 c -21.101,46.906 -40.285,70.348 -57.562,70.348 -20.191,0 -42.406,-12.79 -66.641,-38.372 14.352,-4.937 27.309,-14.929 38.871,-29.957 11.559,-15.031 24.067,-38.261 37.532,-69.66 l 9.425,-21.89 c 9.875,-24 16.262,-41.289 19.18,-51.84 7.414,6.969 21.434,17.621 42.07,31.988 l 24.914,16.82 c 30.969,65.313 75.835,135.532 134.635,210.707 58.78,75.168 112.2,130.821 160.21,166.946 l -11.77,16.836 c -56.78,-32.317 -114.9,-78.653 -174.35,-139.016" /><path
         id="path40"
         style="fill:#231f20;fill-opacity:1;fill-rule:nonzero;stroke:none"
         d="M 1501.49,1730.74 V 396.73 h 972 v 312.008 h -618 V 1730.74 h -354" /><path
         id="path42"
         style="fill:#231f20;fill-opacity:1;fill-rule:nonzero;stroke:none"
         d="M 2633.48,1730.74 V 396.73 h 1002 v 306 h -648 v 228.004 h 497.99 v 287.996 h -497.99 v 206 h 606.01 v 306.01 h -960.01" /><path
         id="path44"
         style="fill:#231f20;fill-opacity:1;fill-rule:nonzero;stroke:none"
         d="M 3819.44,1730.74 V 396.73 h 354.02 v 474.004 h 445.98 v 291.996 h -445.98 v 258 h 575.99 v 310.01 h -930.01" /><path
         id="path46"
         style="fill:#231f20;fill-opacity:1;fill-rule:nonzero;stroke:none"
         d="M 1701.24,270.52 1630.19,47.1094 1556.47,270.52 h -36.85 L 1498.73,4.55859 h 30.02 L 1541.67,224.941 1615.75,4.55859 h 27.75 L 1715.29,224.941 1729.74,3.03125 1759.75,5.32813 1739.23,270.52 h -37.99" /><path
         id="path48"
         style="fill:#231f20;fill-opacity:1;fill-rule:nonzero;stroke:none"
         d="M 1964.59,269.012 1876.82,4.55859 h 31.55 l 18.99,62.33201 h 103.34 l 20.14,-64.24216 31.92,3.82031 -88.53,265.96125 z m 14.45,-34.203 44.07,-142.4809 h -87.77 z" /><path
         id="path50"
         style="fill:#231f20;fill-opacity:1;fill-rule:nonzero;stroke:none"
         d="m 2235.53,145.52 v 125 h -29.25 V 4.55859 h 29.25 V 135.66 L 2354.83,0.769531 2382.18,15.1992 2267.07,141.34 l 106.38,119.699 -26.21,12.16 -111.71,-127.679" /><path
         id="path52"
         style="fill:#231f20;fill-opacity:1;fill-rule:nonzero;stroke:none"
         d="M 2504.2,270.52 V 4.55859 h 153.5 V 31.1602 H 2533.46 V 132.969 h 99.16 l 2.65,26.613 h -101.81 v 84.348 h 124.24 v 26.59 h -153.5" /><path
         id="path54"
         style="fill:#231f20;fill-opacity:1;fill-rule:nonzero;stroke:none"
         d="M 2794.14,270.52 V 4.55859 h 157.67 V 31.1602 H 2823.4 V 270.52 h -29.26" /><path
         id="path56"
         style="fill:#231f20;fill-opacity:1;fill-rule:nonzero;stroke:none"
         d="M 3149.03,269.012 3061.27,4.55859 h 31.53 l 19.01,62.33201 h 103.34 l 20.14,-64.24216 31.92,3.82031 -88.55,265.96125 z m 14.45,-34.203 44.08,-142.4809 h -87.78 z" /><path
         id="path58"
         style="fill:#231f20;fill-opacity:1;fill-rule:nonzero;stroke:none"
         d="M 3459.49,269.012 3371.72,4.55859 h 31.54 l 19.01,62.33201 h 103.34 L 3545.74,2.64844 3577.66,6.46875 3489.13,272.43 Z M 3473.94,234.809 3518,92.3281 h -87.77 z" /><path
         id="path60"
         style="fill:#231f20;fill-opacity:1;fill-rule:nonzero;stroke:none"
         d="m 3796.16,101.828 h -66.1 V 4.55859 H 3700.8 V 266.34 c 22.78,5.32 48.62,8.742 72.56,8.742 58.13,0 103.35,-20.902 103.35,-90.422 0,-44.449 -22.8,-66.488 -53.58,-74.851 L 3883.92,8.35938 3852.76,1.14844 Z m -5.69,26.594 c 33.81,0 56.6,19.387 56.6,57.367 0,47.883 -29.26,62.699 -72.19,62.699 -14.81,0 -30.39,-2.277 -44.82,-5.699 V 128.422 h 60.41" /><path
         id="path62"
         style="fill:#231f20;fill-opacity:1;fill-rule:nonzero;stroke:none"
         d="m 4010.12,49.3984 c 23.92,-14.4375 53.17,-22.789 83.57,-22.789 33.44,0 59.27,12.5195 59.27,50.9101 0,33.0505 -33.44,38.7505 -67.63,49.0115 -37.6,11.008 -78.64,26.207 -78.64,75.598 0,51.301 37.24,72.953 83.59,72.953 27.36,0 53.95,-4.184 76.74,-15.57 l -9.88,-25.84 c -20.14,10.637 -42.55,14.816 -64.59,14.816 -31.91,0 -56.6,-11.019 -56.6,-45.597 0,-31.153 27.34,-39.121 60.03,-49.012 38.76,-11.77 86.63,-24.688 86.63,-76.7501 0,-52.8086 -35.33,-77.1171812 -88.15,-77.1171812 -36.85,0 -70.3,8.3476612 -94.99,23.9296812 l 10.65,25.457" /></g></g></svg>