<?xml version="1.0" encoding="UTF-8"?>
<svg width="71px" height="70px" viewBox="0 0 71 70" version="1.1" xmlns="http://www.w3.org/2000/svg" xmlns:xlink="http://www.w3.org/1999/xlink">
    <title>Group 62</title>
    <defs>
        <path d="M33.4600308,0.0183417006 L7.06632359,6.19802748 L0.361698337,6.19949482 C0.162507468,6.19949482 -1.30325622e-15,6.36053495 -1.30325622e-15,6.56082632 L-1.30325622e-15,6.56082632 C-1.30325622e-15,6.76038402 0.162507468,6.92325832 0.361698337,6.92325832 L0.361698337,6.92325832 L7.10814267,6.92325832 C7.12281603,6.92325832 7.13492155,6.91665531 7.14886124,6.91482114 L7.14886124,6.91482114 C7.15436375,6.91445431 7.1602331,6.91482114 7.16573561,6.91518798 L7.16573561,6.91518798 C7.17270545,6.91592164 7.1796753,6.91665531 7.18701198,6.91482114 L7.18701198,6.91482114 L33.5491715,1.44716018 L49.1964763,7.56705202 C49.2085818,7.57255453 49.2265567,7.57879071 49.239029,7.58429322 L49.239029,7.58429322 C49.3875968,7.63491631 49.5390993,7.648856 49.6861997,7.63491631 L49.6861997,7.63491631 L54.2598862,7.71451929 C54.2727254,7.71635346 54.2888661,7.71635346 54.3013384,7.71451929 L54.3013384,7.71451929 C54.9377954,7.70498161 55.4465942,7.17894163 55.4357644,6.54065045 L55.4357644,6.54065045 C55.4234837,5.90309293 54.8978105,5.39429416 54.2598862,5.40566601 L54.2598862,5.40566601 L49.7368228,5.48490216 L33.9108698,0.0638291182 C33.819895,0.0231105428 33.720483,0 33.6181363,0 L33.6181363,0 C33.5660458,0 33.5128549,0.00586934421 33.4600308,0.0183417006" id="path-1"></path>
        <linearGradient x1="-7.08710761e-05%" y1="50.0011249%" x2="100.000221%" y2="50.0011249%" id="linearGradient-3">
            <stop stop-color="#00D8ED" offset="0%"></stop>
            <stop stop-color="#0E64FF" offset="100%"></stop>
        </linearGradient>
        <linearGradient x1="-7.08710761e-05%" y1="50.0011249%" x2="100.000221%" y2="50.0011249%" id="linearGradient-4">
            <stop stop-color="#FFFFFF" offset="0%"></stop>
            <stop stop-color="#FFFFFF" offset="100%"></stop>
        </linearGradient>
        <path d="M31.3599061,0.0231105428 L4.12358114,7.1451929 L0.362432005,7.1451929 C0.161406966,7.1451929 0,7.30733354 0,7.50689124 L0,7.50689124 C0,7.70571527 0.161406966,7.86822274 0.362432005,7.86822274 L0.362432005,7.86822274 L4.1738374,7.86822274 C4.18961126,7.86822274 4.20318412,7.8612529 4.21895798,7.85941873 L4.21895798,7.85941873 C4.22482733,7.85868506 4.23069667,7.85905189 4.23693285,7.85941873 L4.23693285,7.85941873 C4.24463636,7.85978556 4.25270671,7.86015239 4.26114389,7.85795139 L4.26114389,7.85795139 L31.4501473,1.45743153 L46.1910052,8.48450388 C46.2045781,8.49147373 46.2210856,8.49807674 46.2346585,8.50431292 L46.2346585,8.50431292 C46.4019348,8.57511188 46.5761809,8.59528776 46.7456583,8.58024756 L46.7456583,8.58024756 L48.392743,8.61326262 L48.4363962,8.61326262 C49.0471749,8.60152393 49.5328631,8.09602666 49.5220415,7.4848812 L49.5220415,7.4848812 C49.5093857,6.87373573 49.0042553,6.3880475 48.392743,6.39978619 L48.392743,6.39978619 L46.8377336,6.42949974 L31.8738405,0.085472325 C31.7722275,0.0304472231 31.6574085,0 31.5385543,0 L31.5385543,0 C31.479494,0 31.4197,0.00733668026 31.3599061,0.0231105428" id="path-5"></path>
        <linearGradient x1="7.08156017e-05%" y1="49.9996721%" x2="99.9997578%" y2="49.9996721%" id="linearGradient-7">
            <stop stop-color="#00D8ED" offset="0%"></stop>
            <stop stop-color="#0E64FF" offset="100%"></stop>
        </linearGradient>
        <linearGradient x1="7.08156017e-05%" y1="49.9996721%" x2="99.9997578%" y2="49.9996721%" id="linearGradient-8">
            <stop stop-color="#FFFFFF" offset="0%"></stop>
            <stop stop-color="#FFFFFF" offset="100%"></stop>
        </linearGradient>
        <path d="M68.9365482,-5.21302486e-15 L56.9036589,0.207994885 C56.9032921,0.207994885 56.9029252,0.207994885 56.9029252,0.207994885 L56.9029252,0.207994885 L35.8393162,0.395447066 C35.8374821,0.395447066 35.8363815,0.3958139 35.8345474,0.3958139 L35.8345474,0.3958139 C35.8319795,0.3958139 35.8297785,0.395080232 35.8275775,0.395447066 L35.8275775,0.395447066 L14.4451898,0.918185534 L0.361698337,0.918185534 C0.162874302,0.918185534 0,1.0795925 0,1.27951704 L0,1.27951704 C0,1.48017524 0.162874302,1.64084854 0.361698337,1.64084854 L0.361698337,1.64084854 L14.4462903,1.64231588 C14.4470239,1.64231588 14.4473908,1.64194904 14.4481244,1.64194904 L14.4481244,1.64194904 C14.4488581,1.64194904 14.4492249,1.64231588 14.4495918,1.64231588 L14.4495918,1.64231588 L35.826477,1.81289369 C35.8268439,1.81289369 35.8272107,1.81289369 35.8275775,1.81289369 L35.8275775,1.81289369 L56.8955886,2.35213969 L56.9036589,2.35213969 L68.9365482,2.56013458 L68.9816688,2.56013458 C69.6881911,2.54839589 70.2505476,1.9640293 70.2397014,1.257507 L70.2397014,1.257507 C70.2274371,0.559055036 69.6559097,-5.21302486e-15 68.9607592,-5.21302486e-15 L68.9607592,-5.21302486e-15 C68.9526889,-5.21302486e-15 68.9446185,-5.21302486e-15 68.9365482,-5.21302486e-15" id="path-9"></path>
        <linearGradient x1="0%" y1="49.9964536%" x2="99.9999763%" y2="49.9964536%" id="linearGradient-11">
            <stop stop-color="#00D8ED" offset="0%"></stop>
            <stop stop-color="#0E64FF" offset="100%"></stop>
        </linearGradient>
        <linearGradient x1="0%" y1="49.9964536%" x2="99.9999763%" y2="49.9964536%" id="linearGradient-12">
            <stop stop-color="#FFFFFF" offset="0%"></stop>
            <stop stop-color="#FFFFFF" offset="100%"></stop>
        </linearGradient>
        <path d="M36.3385773,4.12416938e-05 L14.115406,1.46664363 L0.362432005,1.46811096 C0.162874302,1.46811096 -1.42543649e-15,1.62951793 -1.42543649e-15,1.83017613 L-1.42543649e-15,1.83017613 C-1.42543649e-15,2.029367 0.162874302,2.18967346 0.362432005,2.18967346 L0.362432005,2.18967346 L14.1337477,2.19150763 C14.1366824,2.19150763 14.139617,2.1900403 14.1425517,2.1900403 L14.1425517,2.1900403 C14.1458532,2.1900403 14.1487879,2.19187447 14.1524562,2.19150763 L14.1524562,2.19150763 L36.3598537,1.41638737 L56.5309556,2.89986411 C56.5430611,2.90169828 56.5595686,2.90169828 56.5691063,2.90169828 L56.5691063,2.90169828 C56.5738751,2.90169828 56.578644,2.90059778 56.5837796,2.90096462 L56.5837796,2.90096462 C56.5863475,2.90096462 56.5885485,2.90133145 56.5911163,2.90169828 L56.5911163,2.90169828 L68.3110962,3.10419066 L68.3562168,3.10419066 C69.0587039,3.09245197 69.6195931,2.51138689 69.6087473,1.80633192 L69.6087473,1.80633192 C69.5964826,1.10311112 69.0161512,0.542955581 68.3110962,0.554327435 L68.3110962,0.554327435 L56.5944178,0.75681981 L36.4137783,4.12416938e-05 C36.4049743,-0.000325592319 36.3965371,0.00187541176 36.3877331,0.00187541176 L36.3877331,0.00187541176 C36.3737934,0.00187541176 36.3602205,4.12416938e-05 36.3462808,4.12416938e-05 L36.3462808,4.12416938e-05 C36.343713,4.12416938e-05 36.3411452,4.12416938e-05 36.3385773,4.12416938e-05" id="path-13"></path>
        <linearGradient x1="0.000315564085%" y1="49.997164%" x2="100.000218%" y2="49.997164%" id="linearGradient-15">
            <stop stop-color="#00D8ED" offset="0%"></stop>
            <stop stop-color="#0E64FF" offset="100%"></stop>
        </linearGradient>
        <linearGradient x1="0.000315564085%" y1="49.997164%" x2="100.000218%" y2="49.997164%" id="linearGradient-16">
            <stop stop-color="#FFFFFF" offset="0%"></stop>
            <stop stop-color="#FFFFFF" offset="100%"></stop>
        </linearGradient>
        <path d="M36.5307983,0.00330150612 L13.4881198,2.41413464 L0.361331503,2.41633564 C0.162507468,2.41633564 2.4436054e-15,2.57664211 2.4436054e-15,2.77766715 L2.4436054e-15,2.77766715 C2.4436054e-15,2.97649118 0.162507468,3.13936548 0.361331503,3.13936548 L0.361331503,3.13936548 L13.5002253,3.13936548 C13.5064615,3.13936548 13.5115972,3.13606398 13.5174665,3.13569714 L13.5174665,3.13569714 C13.522969,3.13569714 13.5281047,3.13826498 13.5339741,3.13789815 L13.5339741,3.13789815 L36.5770194,1.42221547 L55.8438754,3.84442045 C55.855981,3.84588779 55.8724885,3.84698829 55.8849609,3.84698829 L55.8849609,3.84698829 C55.8944985,3.84808879 55.9036694,3.84772196 55.9132071,3.84698829 L55.9132071,3.84698829 C55.9205438,3.84698829 55.9275136,3.84662146 55.9352171,3.84662146 L55.9352171,3.84662146 C55.9429206,3.84698829 55.9502573,3.8491893 55.957594,3.8491893 L55.957594,3.8491893 L67.045152,4.04177715 L67.0873379,4.04177715 C67.7887246,4.02967163 68.3441113,3.45410906 68.3318449,2.75602394 L68.3318449,2.75602394 C68.3210007,2.05610464 67.7432372,1.49961744 67.045152,1.51245663 L67.045152,1.51245663 L55.9873075,1.70394399 L36.6980746,0.00770351427 C36.6632254,0.00330150612 36.6276425,0 36.5913259,0 L36.5913259,0 C36.5715169,0 36.5509742,0.00110050204 36.5307983,0.00330150612" id="path-17"></path>
        <linearGradient x1="-0.000238948355%" y1="50.0030414%" x2="100.000231%" y2="50.0030414%" id="linearGradient-19">
            <stop stop-color="#00D8ED" offset="0%"></stop>
            <stop stop-color="#0E64FF" offset="100%"></stop>
        </linearGradient>
        <linearGradient x1="-0.000238948355%" y1="50.0030414%" x2="100.000231%" y2="50.0030414%" id="linearGradient-20">
            <stop stop-color="#FFFFFF" offset="0%"></stop>
            <stop stop-color="#FFFFFF" offset="100%"></stop>
        </linearGradient>
        <path d="M36.3836979,0.00513567618 L12.4906981,3.36019956 L0.361698337,3.36019956 C0.162140634,3.36019956 3.25814054e-16,3.52270703 3.25814054e-16,3.72189789 L3.25814054e-16,3.72189789 C3.25814054e-16,3.92108876 0.162140634,4.08286256 0.361698337,4.08286256 L0.361698337,4.08286256 L12.5259142,4.08286256 C12.5325172,4.08286256 12.5383866,4.07956106 12.5446227,4.07919422 L12.5446227,4.07919422 C12.5486579,4.07919422 12.5526931,4.07992789 12.5567283,4.08102839 L12.5567283,4.08102839 C12.5614971,4.08176206 12.5662659,4.08249573 12.5714016,4.08212889 L12.5714016,4.08212889 L36.4471602,1.42404964 L54.8116045,4.78021402 C54.8229764,4.78351553 54.8394839,4.78498286 54.8530568,4.78608337 L54.8530568,4.78608337 C54.8820367,4.79011854 54.909916,4.78791754 54.9385291,4.78975171 L54.9385291,4.78975171 C54.9535693,4.79085221 54.9678758,4.79488738 54.9832828,4.79525422 L54.9832828,4.79525422 L65.0950624,4.97060087 L65.1390825,4.97060087 C65.8290973,4.95922902 66.3793483,4.3895358 66.3670838,3.69952102 L66.3670838,3.69952102 C66.3547704,3.01023991 65.7850772,2.46108939 65.0950624,2.47246125 L65.0950624,2.47246125 L55.0430768,2.6478079 L36.5865571,0.0084371823 C36.5839893,0.0084371823 36.5814214,0.0084371823 36.5788536,0.0084371823 L36.5788536,0.0084371823 C36.5414365,0.00330150612 36.5036526,0 36.465135,0 L36.465135,0 C36.4383562,0 36.4112104,0.00146733605 36.3836979,0.00513567618" id="path-21"></path>
        <linearGradient x1="0.000381165965%" y1="49.9999904%" x2="100.000152%" y2="49.9999904%" id="linearGradient-23">
            <stop stop-color="#00D8ED" offset="0%"></stop>
            <stop stop-color="#0E64FF" offset="100%"></stop>
        </linearGradient>
        <linearGradient x1="0.000381165965%" y1="49.9999904%" x2="100.000152%" y2="49.9999904%" id="linearGradient-24">
            <stop stop-color="#FFFFFF" offset="0%"></stop>
            <stop stop-color="#FFFFFF" offset="100%"></stop>
        </linearGradient>
        <path d="M35.8675624,0.00990451835 L11.1543218,4.30736498 L0.361331503,4.30736498 C0.162140634,4.30736498 -6.51628108e-16,4.46987245 -6.51628108e-16,4.66869648 L-6.51628108e-16,4.66869648 C-6.51628108e-16,4.86862102 0.162140634,5.03112849 0.361331503,5.03112849 L0.361331503,5.03112849 L11.1796334,5.03259582 C11.1910052,5.03259582 11.2001761,5.02709331 11.2111811,5.02599281 L11.2111811,5.02599281 C11.2152163,5.02599281 11.2188846,5.02635964 11.222553,5.02709331 L11.222553,5.02709331 C11.2273218,5.02782698 11.2317238,5.02856065 11.2364926,5.02782698 L11.2364926,5.02782698 L35.9438639,1.43248682 L53.4022283,5.71564075 C53.4150674,5.71894226 53.4312081,5.7226106 53.4451478,5.72591211 L53.4451478,5.72591211 C53.5302533,5.74315331 53.6146251,5.74682165 53.6978965,5.74352014 L53.6978965,5.74352014 L62.4032344,5.89648992 L62.4472545,5.89648992 C63.1233296,5.8843844 63.6640429,5.32496253 63.653203,4.64778694 L63.653203,4.64778694 C63.6405656,3.97134502 63.0811437,3.42989802 62.4032344,3.44163671 L62.4032344,3.44163671 L53.7378814,3.59570699 L36.1742357,0.0264120489 C36.1126076,0.00953768433 36.0484116,0 35.9827483,0 L35.9827483,0 C35.9445976,0 35.90608,0.00330150612 35.8675624,0.00990451835" id="path-25"></path>
        <linearGradient x1="-0.000399722338%" y1="50.0020244%" x2="99.9999414%" y2="50.0020244%" id="linearGradient-27">
            <stop stop-color="#00D8ED" offset="0%"></stop>
            <stop stop-color="#0E64FF" offset="100%"></stop>
        </linearGradient>
        <linearGradient x1="-0.000399722338%" y1="50.0020244%" x2="99.9999414%" y2="50.0020244%" id="linearGradient-28">
            <stop stop-color="#FFFFFF" offset="0%"></stop>
            <stop stop-color="#FFFFFF" offset="100%"></stop>
        </linearGradient>
        <path d="M34.9196634,0.0135728585 L9.36563918,5.25269623 L0.361698337,5.25379673 C0.162507468,5.25379673 -1.95488432e-15,5.41447003 -1.95488432e-15,5.61402773 L-1.95488432e-15,5.61402773 C-1.95488432e-15,5.81505277 0.162507468,5.97572607 0.361698337,5.97572607 L0.361698337,5.97572607 L9.40195575,5.97719341 C9.41442811,5.97719341 9.42469946,5.97095723 9.43717181,5.97022356 L9.43717181,5.97022356 C9.44157382,5.96985673 9.4467095,5.97059039 9.45147834,5.97059039 L9.45147834,5.97059039 C9.45771452,5.97132406 9.46431753,5.97205773 9.47055371,5.97059039 L9.47055371,5.97059039 L35.0080703,1.43835616 L51.5603547,6.64373081 C51.5713597,6.64849965 51.5889677,6.65363533 51.6014401,6.65693683 L51.6014401,6.65693683 C51.710023,6.68591672 51.8175053,6.6921529 51.9238872,6.68811772 L51.9238872,6.68811772 L58.8478792,6.80770561 L58.8874972,6.80770561 C59.5474316,6.79596692 60.0712706,6.25341942 60.0604359,5.5942187 L60.0604359,5.5942187 C60.0496274,4.93575164 59.5059794,4.41191267 58.8478792,4.42218402 L58.8478792,4.42218402 L51.9910178,4.54067141 L35.2611858,0.0311808911 C35.1940552,0.0113718544 35.1243567,0 35.0528241,0 L35.0528241,0 C35.0091709,0 34.9644171,0.00440200815 34.9196634,0.0135728585" id="path-29"></path>
        <linearGradient x1="7.24989699e-05%" y1="50.000881%" x2="100.000151%" y2="50.000881%" id="linearGradient-31">
            <stop stop-color="#00D8ED" offset="0%"></stop>
            <stop stop-color="#0E64FF" offset="100%"></stop>
        </linearGradient>
        <linearGradient x1="7.24989699e-05%" y1="50.000881%" x2="100.000151%" y2="50.000881%" id="linearGradient-32">
            <stop stop-color="#FFFFFF" offset="0%"></stop>
            <stop stop-color="#FFFFFF" offset="100%"></stop>
        </linearGradient>
        <path d="M68.9365482,0 L56.9036589,0.207994885 C56.8996237,0.207994885 56.8963222,0.209095387 56.8922871,0.209462221 L56.8922871,0.209462221 C56.8831162,0.209462221 56.8743122,0.207628051 56.8651413,0.207994885 L56.8651413,0.207994885 L34.9713869,1.34114515 L14.46023,0.9178187 C14.4576621,0.9178187 14.4554611,0.919286036 14.4525264,0.919286036 L14.4525264,0.919286036 C14.4506923,0.919286036 14.4488581,0.9178187 14.4462903,0.9178187 L14.4462903,0.9178187 L0.361698337,0.919286036 C0.162874302,0.919286036 0,1.08032617 0,1.28135121 L0,1.28135121 C0,1.48054208 0.162874302,1.64304954 0.361698337,1.64304954 L0.361698337,1.64304954 L14.4334511,1.64304954 L34.9556131,2.75749127 C34.9618493,2.75969228 34.9721206,2.75969228 34.9790905,2.75969228 L34.9790905,2.75969228 C34.9838593,2.76005911 34.9878945,2.75859178 34.9926633,2.75859178 L34.9926633,2.75859178 C34.9970653,2.75859178 35.0011005,2.76005911 35.0058693,2.75969228 L35.0058693,2.75969228 L56.9227343,2.35324019 L68.9365482,2.56013458 L68.9816688,2.56013458 C69.6881911,2.54876272 70.2505476,1.96623031 70.2397014,1.25787383 L70.2397014,1.25787383 C70.2274371,0.559055036 69.6544424,0 68.9578246,0 L68.9578246,0 C68.9504879,0 68.943518,0 68.9365482,0" id="path-33"></path>
        <linearGradient x1="0%" y1="49.9989812%" x2="99.9999763%" y2="49.9989812%" id="linearGradient-35">
            <stop stop-color="#00D8ED" offset="0%"></stop>
            <stop stop-color="#0E64FF" offset="100%"></stop>
        </linearGradient>
        <linearGradient x1="0%" y1="49.9989812%" x2="99.9999763%" y2="49.9989812%" id="linearGradient-36">
            <stop stop-color="#FFFFFF" offset="0%"></stop>
            <stop stop-color="#FFFFFF" offset="100%"></stop>
        </linearGradient>
        <path d="M68.3110962,0.000366834013 L56.5911163,0.203226043 C56.5801113,0.203226043 56.56984,0.206527549 56.5584681,0.206894383 L56.5584681,0.206894383 C56.5507646,0.207628051 56.5434279,0.207261217 56.5360912,0.206894383 L56.5360912,0.206894383 C56.5280209,0.206527549 56.5199505,0.205793881 56.5115133,0.206527549 L56.5115133,0.206527549 L33.8121915,2.27987339 L14.1660291,0.914884028 C14.1605266,0.91415036 14.1561246,0.916718198 14.1502552,0.916718198 L14.1502552,0.916718198 C14.1447527,0.916351364 14.1399839,0.913416692 14.1337477,0.913416692 L14.1337477,0.913416692 L0.362432005,0.913416692 C0.162874302,0.913416692 -1.42543649e-15,1.07592416 -1.42543649e-15,1.27474819 L-1.42543649e-15,1.27474819 C-1.42543649e-15,1.47577323 0.162874302,1.6360797 0.362432005,1.6360797 L0.362432005,1.6360797 L14.1231095,1.6382807 L33.7542317,3.69732002 C33.762302,3.69732002 33.7718397,3.69878735 33.7788096,3.69878735 L33.7788096,3.69878735 C33.8030206,3.70062152 33.8257643,3.69732002 33.8492417,3.69658635 L33.8492417,3.69658635 C33.8521764,3.69658635 33.8554779,3.69695318 33.8584126,3.69732002 L33.8584126,3.69732002 C33.8620809,3.69732002 33.8657492,3.69768685 33.8694176,3.69732002 L33.8694176,3.69732002 L33.9226085,3.69438534 L56.6178952,2.34810452 L68.3110962,2.55059689 L68.3562168,2.55059689 C69.0587039,2.5388582 69.6195931,1.95815996 69.6087473,1.25273815 L69.6087473,1.25273815 C69.5964826,0.556487197 69.0271562,0 68.3312721,0 L68.3312721,0 C68.3243022,0 68.3176992,0 68.3110962,0.000366834013" id="path-37"></path>
        <linearGradient x1="0.000315564085%" y1="50.0004371%" x2="100.000218%" y2="50.0004371%" id="linearGradient-39">
            <stop stop-color="#00D8ED" offset="0%"></stop>
            <stop stop-color="#0E64FF" offset="100%"></stop>
        </linearGradient>
        <linearGradient x1="0.000315564085%" y1="50.0004371%" x2="100.000218%" y2="50.0004371%" id="linearGradient-40">
            <stop stop-color="#FFFFFF" offset="0%"></stop>
            <stop stop-color="#FFFFFF" offset="100%"></stop>
        </linearGradient>
        <path d="M62.4032344,0 L53.6854241,0.153336617 C53.6069216,0.150768779 53.5276855,0.155170787 53.4477157,0.170577816 L53.4477157,0.170577816 L28.3203195,5.05350536 L11.2739097,0.877100125 C11.2673067,0.875632789 11.2610705,0.875999623 11.2544675,0.876366457 L11.2544675,0.876366457 C11.2493318,0.876366457 11.244563,0.876733291 11.2394273,0.875632789 L11.2394273,0.875632789 C11.2192514,0.871964449 11.2009097,0.863527266 11.1796334,0.863527266 L11.1796334,0.863527266 L0.361331503,0.865361436 C0.162140634,0.865361436 -6.51628108e-16,1.02603473 -6.51628108e-16,1.22705977 L-6.51628108e-16,1.22705977 C-6.51628108e-16,1.42588381 0.162140634,1.58839128 0.361331503,1.58839128 L0.361331503,1.58839128 L11.1286434,1.58839128 L28.1207618,6.46398214 C28.1295658,6.46728365 28.1416713,6.46911782 28.1475406,6.47021832 L28.1475406,6.47021832 C28.2630934,6.49883137 28.3779124,6.49406253 28.4853948,6.46765048 L28.4853948,6.46765048 L53.7177055,2.30004926 L62.4032344,2.45411955 L62.4472545,2.45411955 C63.1233296,2.44128036 63.6640429,1.88369266 63.653203,1.20504973 L63.653203,1.20504973 C63.6409324,0.534477157 63.0932492,0 62.4252445,0 L62.4252445,0 C62.4179078,0 62.4105711,0 62.4032344,0" id="path-41"></path>
        <linearGradient x1="-0.000399722338%" y1="49.9974416%" x2="99.9999414%" y2="49.9974416%" id="linearGradient-43">
            <stop stop-color="#00D8ED" offset="0%"></stop>
            <stop stop-color="#0E64FF" offset="100%"></stop>
        </linearGradient>
        <linearGradient x1="-0.000399722338%" y1="49.9974416%" x2="99.9999414%" y2="49.9974416%" id="linearGradient-44">
            <stop stop-color="#FFFFFF" offset="0%"></stop>
            <stop stop-color="#FFFFFF" offset="100%"></stop>
        </linearGradient>
        <path d="M58.8478792,0.000366834013 L51.8857364,0.120321556 C51.8042993,0.119954722 51.7217616,0.125457232 51.6384903,0.144165767 L51.6384903,0.144165767 L25.7025919,5.95811804 L9.51934263,0.850688076 C9.50540294,0.846286068 9.49109641,0.848853906 9.47752356,0.845919234 L9.47752356,0.845919234 C9.45221201,0.840416723 9.42873463,0.830879039 9.40195575,0.830879039 L9.40195575,0.830879039 L0.361698337,0.833080043 C0.162507468,0.833080043 -1.95488432e-15,0.993386507 -1.95488432e-15,1.19257738 L-1.95488432e-15,1.19257738 C-1.95488432e-15,1.39323558 0.162507468,1.55464255 0.361698337,1.55464255 L0.361698337,1.55464255 L9.34179497,1.55574305 L25.446175,7.36345914 C25.4538785,7.36676065 25.465984,7.37042899 25.4729539,7.37189632 L25.4729539,7.37189632 C25.6200543,7.41885108 25.7700894,7.41298173 25.9069185,7.36822798 L25.9069185,7.36822798 L51.9528671,2.26740103 L58.8478792,2.38588842 L58.8874972,2.38588842 C59.5474316,2.3748834 60.0712706,1.83233589 60.0604359,1.17240151 L60.0604359,1.17240151 C60.0496274,0.520537464 59.5158839,2.60651243e-15 58.8654872,2.60651243e-15 L58.8654872,2.60651243e-15 C58.8596179,2.60651243e-15 58.8537485,2.60651243e-15 58.8478792,0.000366834013" id="path-45"></path>
        <linearGradient x1="7.24989699e-05%" y1="50.0001109%" x2="100.000151%" y2="50.0001109%" id="linearGradient-47">
            <stop stop-color="#00D8ED" offset="0%"></stop>
            <stop stop-color="#0E64FF" offset="100%"></stop>
        </linearGradient>
        <linearGradient x1="7.24989699e-05%" y1="50.0001109%" x2="100.000151%" y2="50.0001109%" id="linearGradient-48">
            <stop stop-color="#FFFFFF" offset="0%"></stop>
            <stop stop-color="#FFFFFF" offset="100%"></stop>
        </linearGradient>
        <path d="M54.2598862,0.000366834013 L49.5849535,0.0825376529 C49.4958129,0.0818039849 49.4063054,0.0884069971 49.3156974,0.110783872 L49.3156974,0.110783872 L22.5745983,6.8561277 L7.25010743,0.821341355 C7.2497406,0.820974521 7.24937376,0.820974521 7.24937376,0.820974521 L7.24937376,0.820974521 L7.24900693,0.820607687 C7.24680592,0.819874019 7.24460492,0.820240853 7.24277075,0.819507185 L7.24277075,0.819507185 C7.20095167,0.802999654 7.15583109,0.792728302 7.10814267,0.792728302 L7.10814267,0.792728302 L0.361698337,0.792728302 C0.162507468,0.792728302 -1.30325622e-15,0.954502101 -1.30325622e-15,1.1540598 L-1.30325622e-15,1.1540598 C-1.30325622e-15,1.35325067 0.162507468,1.51575814 0.361698337,1.51575814 L0.361698337,1.51575814 L7.03477586,1.51759231 L22.2528849,8.25266479 C22.2616889,8.25633313 22.2715934,8.26110197 22.2803974,8.26440348 L22.2803974,8.26440348 C22.4528094,8.3326346 22.6343923,8.32639842 22.7946987,8.26440348 L22.7946987,8.26440348 L49.6726268,2.2292503 L54.2598862,2.30922011 L54.3013384,2.30922011 C54.9377954,2.29784826 55.4465942,1.77217512 55.4357644,1.13425077 L55.4357644,1.13425077 C55.4234837,0.503296266 54.9095492,0 54.2815294,0 L54.2815294,0 C54.2741927,0 54.2672229,0 54.2598862,0.000366834013" id="path-49"></path>
        <linearGradient x1="-7.08710761e-05%" y1="50.0014808%" x2="100.000221%" y2="50.0014808%" id="linearGradient-51">
            <stop stop-color="#00D8ED" offset="0%"></stop>
            <stop stop-color="#0E64FF" offset="100%"></stop>
        </linearGradient>
        <linearGradient x1="-7.08710761e-05%" y1="50.0014808%" x2="100.000221%" y2="50.0014808%" id="linearGradient-52">
            <stop stop-color="#FFFFFF" offset="0%"></stop>
            <stop stop-color="#FFFFFF" offset="100%"></stop>
        </linearGradient>
        <path d="M67.045152,0.000366834013 L55.957594,0.192221023 C55.9436543,0.192587857 55.9308151,0.196256197 55.9172422,0.196989865 L55.9172422,0.196989865 C55.9066041,0.197723533 55.895599,0.197723533 55.8849609,0.197356699 L55.8849609,0.197356699 C55.869187,0.197356699 55.8530463,0.196989865 55.8369056,0.199190869 L55.8369056,0.199190869 L32.3239459,3.21163178 L13.5523158,0.905713178 C13.5475469,0.905346344 13.5427781,0.906080012 13.5383761,0.906446846 L13.5383761,0.906446846 C13.5343409,0.907180514 13.5303057,0.907914182 13.5262706,0.907547348 L13.5262706,0.907547348 C13.5174665,0.90681368 13.5093962,0.902411672 13.5002253,0.902411672 L13.5002253,0.902411672 L0.361331503,0.902411672 C0.162507468,0.902411672 2.4436054e-15,1.06491914 2.4436054e-15,1.26447684 L2.4436054e-15,1.26447684 C2.4436054e-15,1.46330088 0.162507468,1.62580834 0.361331503,1.62580834 L0.361331503,1.62580834 L13.4800495,1.62727568 L32.2318705,4.62724424 C32.2381067,4.62944524 32.2483781,4.63091258 32.2560816,4.63091258 L32.2560816,4.63091258 C32.3221117,4.63934976 32.3859408,4.63494775 32.4483026,4.6257769 L32.4483026,4.6257769 L56.0005136,2.33783316 L67.045152,2.53005419 L67.0873379,2.53005419 C67.7887246,2.51611449 68.3441113,1.94055193 68.3318449,1.2424668 L68.3318449,1.2424668 C68.3210007,0.552818857 67.7575437,0 67.0704636,0 L67.0704636,0 C67.0620264,0 67.0535892,0.000366834013 67.045152,0.000366834013" id="path-53"></path>
        <linearGradient x1="-0.000238948355%" y1="50.0001606%" x2="100.000231%" y2="50.0001606%" id="linearGradient-55">
            <stop stop-color="#00D8ED" offset="0%"></stop>
            <stop stop-color="#0E64FF" offset="100%"></stop>
        </linearGradient>
        <linearGradient x1="-0.000238948355%" y1="50.0001606%" x2="100.000231%" y2="50.0001606%" id="linearGradient-56">
            <stop stop-color="#FFFFFF" offset="0%"></stop>
            <stop stop-color="#FFFFFF" offset="100%"></stop>
        </linearGradient>
        <path d="M65.0950624,0 L55.0452778,0.174979824 C55.044911,0.174979824 55.0441773,0.175346658 55.0438105,0.174979824 L55.0438105,0.174979824 L54.9832828,0.17644716 C54.9689763,0.176813994 54.9557703,0.180482334 54.9414638,0.181216002 L54.9414638,0.181216002 C54.9036799,0.183417006 54.8666296,0.18194967 54.8281121,0.187819015 L54.8281121,0.187819015 L30.5117859,4.137154 L12.5978137,0.894341323 C12.5912107,0.893607655 12.5846076,0.893607655 12.5780046,0.894341323 L12.5780046,0.894341323 C12.572869,0.894708157 12.5677333,0.895441825 12.5625976,0.894708157 L12.5625976,0.894708157 C12.5497584,0.893607655 12.5387534,0.887371477 12.5259142,0.887371477 L12.5259142,0.887371477 L0.361698337,0.887371477 C0.162140634,0.887371477 3.25814054e-16,1.05024578 3.25814054e-16,1.24906981 L3.25814054e-16,1.24906981 C3.25814054e-16,1.44862752 0.162140634,1.61040132 0.361698337,1.61040132 L0.361698337,1.61040132 L12.4837283,1.61040132 L30.3632181,5.55203278 C30.3712884,5.55313329 30.3815598,5.55533429 30.389997,5.55680163 L30.389997,5.55680163 C30.4912431,5.57514333 30.5913888,5.56927398 30.6852983,5.54616344 L30.6852983,5.54616344 L55.0438105,2.32352664 L65.0950624,2.49813963 L65.1390825,2.49813963 C65.8290973,2.48640094 66.3793483,1.91744139 66.3670838,1.22779344 L66.3670838,1.22779344 C66.3547704,0.545115343 65.7971827,0 65.1170725,0 L65.1170725,0 C65.1097358,0 65.1027659,0 65.0950624,0" id="path-57"></path>
        <linearGradient x1="0.000381165965%" y1="49.9976395%" x2="100.000152%" y2="49.9976395%" id="linearGradient-59">
            <stop stop-color="#00D8ED" offset="0%"></stop>
            <stop stop-color="#0E64FF" offset="100%"></stop>
        </linearGradient>
        <linearGradient x1="0.000381165965%" y1="49.9976395%" x2="100.000152%" y2="49.9976395%" id="linearGradient-60">
            <stop stop-color="#FFFFFF" offset="0%"></stop>
            <stop stop-color="#FFFFFF" offset="100%"></stop>
        </linearGradient>
        <path d="M48.392743,0 L46.631206,0.0337487292 C46.6271709,0.0337487292 46.6238694,0.0348492312 46.620201,0.0348492312 L46.620201,0.0348492312 C46.5556382,0.0366834013 46.4914423,0.0451205836 46.4265127,0.0586934421 L46.4265127,0.0586934421 C46.4246785,0.0590602761 46.4224775,0.0590602761 46.4210102,0.0597939441 L46.4210102,0.0597939441 C46.3997338,0.0641959522 46.3780906,0.0649296203 46.3568142,0.0707989645 L46.3568142,0.0707989645 L18.8064793,7.74313234 L4.3378122,0.784291119 C4.3345107,0.782456949 4.33084236,0.782823783 4.32717402,0.780989613 L4.32717402,0.780989613 C4.29929463,0.768150423 4.26848057,0.763381581 4.23693285,0.757879071 L4.23693285,0.757879071 C4.22335999,0.755311232 4.2105208,0.750175556 4.19694794,0.749808722 L4.19694794,0.749808722 C4.18887759,0.749075054 4.18227458,0.74503988 4.1738374,0.74503988 L4.1738374,0.74503988 L0.362432005,0.74503988 C0.161406966,0.74503988 0,0.907547348 0,1.10710505 L0,1.10710505 C0,1.30592909 0.161406966,1.46843655 0.362432005,1.46843655 L0.362432005,1.46843655 L4.08176206,1.46843655 L18.4198363,9.12976491 C18.4268061,9.13343325 18.4385448,9.13783526 18.4466152,9.14297094 L18.4466152,9.14297094 C18.5423588,9.18882519 18.6428714,9.21083523 18.7422834,9.2115689 L18.7422834,9.2115689 L18.7532884,9.2115689 C18.8453637,9.21083523 18.9367054,9.19175986 19.0214441,9.15727746 L19.0214441,9.15727746 L46.7493266,2.18229554 L48.392743,2.21384327 L48.4363962,2.21384327 C49.0471749,2.20173775 49.5328631,1.69624048 49.5220415,1.08509501 L49.5220415,1.08509501 C49.5097525,0.481286225 49.015994,0 48.4140193,0 L48.4140193,0 C48.4070495,0 48.3997128,0 48.392743,0" id="path-61"></path>
        <linearGradient x1="7.08156017e-05%" y1="49.9991076%" x2="99.9997578%" y2="49.9991076%" id="linearGradient-63">
            <stop stop-color="#00D8ED" offset="0%"></stop>
            <stop stop-color="#0E64FF" offset="100%"></stop>
        </linearGradient>
        <linearGradient x1="7.08156017e-05%" y1="49.9991076%" x2="99.9997578%" y2="49.9991076%" id="linearGradient-64">
            <stop stop-color="#FFFFFF" offset="0%"></stop>
            <stop stop-color="#FFFFFF" offset="100%"></stop>
        </linearGradient>
    </defs>
    <g id="Page-1" stroke="none" stroke-width="1" fill="none" fill-rule="evenodd">
        <g id="Home" transform="translate(-89.000000, -12.000000)">
            <g id="Group-62" transform="translate(89.000000, 12.000000)">
                <g id="Group-3" transform="translate(7.338148, 4.571852)">
                    <mask id="mask-2" fill="white">
                        <use xlink:href="#path-1"></use>
                    </mask>
                    <g id="Clip-2"></g>
                    <path d="M33.4600308,0.0183417006 L7.06632359,6.19802748 L0.361698337,6.19949482 C0.162507468,6.19949482 -1.30325622e-15,6.36053495 -1.30325622e-15,6.56082632 L-1.30325622e-15,6.56082632 C-1.30325622e-15,6.76038402 0.162507468,6.92325832 0.361698337,6.92325832 L0.361698337,6.92325832 L7.10814267,6.92325832 C7.12281603,6.92325832 7.13492155,6.91665531 7.14886124,6.91482114 L7.14886124,6.91482114 C7.15436375,6.91445431 7.1602331,6.91482114 7.16573561,6.91518798 L7.16573561,6.91518798 C7.17270545,6.91592164 7.1796753,6.91665531 7.18701198,6.91482114 L7.18701198,6.91482114 L33.5491715,1.44716018 L49.1964763,7.56705202 C49.2085818,7.57255453 49.2265567,7.57879071 49.239029,7.58429322 L49.239029,7.58429322 C49.3875968,7.63491631 49.5390993,7.648856 49.6861997,7.63491631 L49.6861997,7.63491631 L54.2598862,7.71451929 C54.2727254,7.71635346 54.2888661,7.71635346 54.3013384,7.71451929 L54.3013384,7.71451929 C54.9377954,7.70498161 55.4465942,7.17894163 55.4357644,6.54065045 L55.4357644,6.54065045 C55.4234837,5.90309293 54.8978105,5.39429416 54.2598862,5.40566601 L54.2598862,5.40566601 L49.7368228,5.48490216 L33.9108698,0.0638291182 C33.819895,0.0231105428 33.720483,0 33.6181363,0 L33.6181363,0 C33.5660458,0 33.5128549,0.00586934421 33.4600308,0.0183417006" id="Fill-1" fill="url(#linearGradient-4)" mask="url(#mask-2)"></path>
                </g>
                <g id="Group-6" transform="translate(10.272453, 0.000000)">
                    <mask id="mask-6" fill="white">
                        <use xlink:href="#path-5"></use>
                    </mask>
                    <g id="Clip-5"></g>
                    <path d="M31.3599061,0.0231105428 L4.12358114,7.1451929 L0.362432005,7.1451929 C0.161406966,7.1451929 0,7.30733354 0,7.50689124 L0,7.50689124 C0,7.70571527 0.161406966,7.86822274 0.362432005,7.86822274 L0.362432005,7.86822274 L4.1738374,7.86822274 C4.18961126,7.86822274 4.20318412,7.8612529 4.21895798,7.85941873 L4.21895798,7.85941873 C4.22482733,7.85868506 4.23069667,7.85905189 4.23693285,7.85941873 L4.23693285,7.85941873 C4.24463636,7.85978556 4.25270671,7.86015239 4.26114389,7.85795139 L4.26114389,7.85795139 L31.4501473,1.45743153 L46.1910052,8.48450388 C46.2045781,8.49147373 46.2210856,8.49807674 46.2346585,8.50431292 L46.2346585,8.50431292 C46.4019348,8.57511188 46.5761809,8.59528776 46.7456583,8.58024756 L46.7456583,8.58024756 L48.392743,8.61326262 L48.4363962,8.61326262 C49.0471749,8.60152393 49.5328631,8.09602666 49.5220415,7.4848812 L49.5220415,7.4848812 C49.5093857,6.87373573 49.0042553,6.3880475 48.392743,6.39978619 L48.392743,6.39978619 L46.8377336,6.42949974 L31.8738405,0.085472325 C31.7722275,0.0304472231 31.6574085,0 31.5385543,0 L31.5385543,0 C31.479494,0 31.4197,0.00733668026 31.3599061,0.0231105428" id="Fill-4" fill="url(#linearGradient-8)" mask="url(#mask-6)"></path>
                </g>
                <g id="Group-9" transform="translate(0.000000, 31.608253)">
                    <mask id="mask-10" fill="white">
                        <use xlink:href="#path-9"></use>
                    </mask>
                    <g id="Clip-8"></g>
                    <path d="M68.9365482,-5.21302486e-15 L56.9036589,0.207994885 C56.9032921,0.207994885 56.9029252,0.207994885 56.9029252,0.207994885 L56.9029252,0.207994885 L35.8393162,0.395447066 C35.8374821,0.395447066 35.8363815,0.3958139 35.8345474,0.3958139 L35.8345474,0.3958139 C35.8319795,0.3958139 35.8297785,0.395080232 35.8275775,0.395447066 L35.8275775,0.395447066 L14.4451898,0.918185534 L0.361698337,0.918185534 C0.162874302,0.918185534 0,1.0795925 0,1.27951704 L0,1.27951704 C0,1.48017524 0.162874302,1.64084854 0.361698337,1.64084854 L0.361698337,1.64084854 L14.4462903,1.64231588 C14.4470239,1.64231588 14.4473908,1.64194904 14.4481244,1.64194904 L14.4481244,1.64194904 C14.4488581,1.64194904 14.4492249,1.64231588 14.4495918,1.64231588 L14.4495918,1.64231588 L35.826477,1.81289369 C35.8268439,1.81289369 35.8272107,1.81289369 35.8275775,1.81289369 L35.8275775,1.81289369 L56.8955886,2.35213969 L56.9036589,2.35213969 L68.9365482,2.56013458 L68.9816688,2.56013458 C69.6881911,2.54839589 70.2505476,1.9640293 70.2397014,1.257507 L70.2397014,1.257507 C70.2274371,0.559055036 69.6559097,-5.21302486e-15 68.9607592,-5.21302486e-15 L68.9607592,-5.21302486e-15 C68.9526889,-5.21302486e-15 68.9446185,-5.21302486e-15 68.9365482,-5.21302486e-15" id="Fill-7" fill="url(#linearGradient-12)" mask="url(#mask-10)"></path>
                </g>
                <g id="Group-12" transform="translate(0.312543, 27.432907)">
                    <mask id="mask-14" fill="white">
                        <use xlink:href="#path-13"></use>
                    </mask>
                    <g id="Clip-11"></g>
                    <path d="M36.3385773,4.12416938e-05 L14.115406,1.46664363 L0.362432005,1.46811096 C0.162874302,1.46811096 -1.42543649e-15,1.62951793 -1.42543649e-15,1.83017613 L-1.42543649e-15,1.83017613 C-1.42543649e-15,2.029367 0.162874302,2.18967346 0.362432005,2.18967346 L0.362432005,2.18967346 L14.1337477,2.19150763 C14.1366824,2.19150763 14.139617,2.1900403 14.1425517,2.1900403 L14.1425517,2.1900403 C14.1458532,2.1900403 14.1487879,2.19187447 14.1524562,2.19150763 L14.1524562,2.19150763 L36.3598537,1.41638737 L56.5309556,2.89986411 C56.5430611,2.90169828 56.5595686,2.90169828 56.5691063,2.90169828 L56.5691063,2.90169828 C56.5738751,2.90169828 56.578644,2.90059778 56.5837796,2.90096462 L56.5837796,2.90096462 C56.5863475,2.90096462 56.5885485,2.90133145 56.5911163,2.90169828 L56.5911163,2.90169828 L68.3110962,3.10419066 L68.3562168,3.10419066 C69.0587039,3.09245197 69.6195931,2.51138689 69.6087473,1.80633192 L69.6087473,1.80633192 C69.5964826,1.10311112 69.0161512,0.542955581 68.3110962,0.554327435 L68.3110962,0.554327435 L56.5944178,0.75681981 L36.4137783,4.12416938e-05 C36.4049743,-0.000325592319 36.3965371,0.00187541176 36.3877331,0.00187541176 L36.3877331,0.00187541176 C36.3737934,0.00187541176 36.3602205,4.12416938e-05 36.3462808,4.12416938e-05 L36.3462808,4.12416938e-05 C36.343713,4.12416938e-05 36.3411452,4.12416938e-05 36.3385773,4.12416938e-05" id="Fill-10" fill="url(#linearGradient-16)" mask="url(#mask-14)"></path>
                </g>
                <g id="Group-15" transform="translate(0.946065, 22.858895)">
                    <mask id="mask-18" fill="white">
                        <use xlink:href="#path-17"></use>
                    </mask>
                    <g id="Clip-14"></g>
                    <path d="M36.5307983,0.00330150612 L13.4881198,2.41413464 L0.361331503,2.41633564 C0.162507468,2.41633564 2.4436054e-15,2.57664211 2.4436054e-15,2.77766715 L2.4436054e-15,2.77766715 C2.4436054e-15,2.97649118 0.162507468,3.13936548 0.361331503,3.13936548 L0.361331503,3.13936548 L13.5002253,3.13936548 C13.5064615,3.13936548 13.5115972,3.13606398 13.5174665,3.13569714 L13.5174665,3.13569714 C13.522969,3.13569714 13.5281047,3.13826498 13.5339741,3.13789815 L13.5339741,3.13789815 L36.5770194,1.42221547 L55.8438754,3.84442045 C55.855981,3.84588779 55.8724885,3.84698829 55.8849609,3.84698829 L55.8849609,3.84698829 C55.8944985,3.84808879 55.9036694,3.84772196 55.9132071,3.84698829 L55.9132071,3.84698829 C55.9205438,3.84698829 55.9275136,3.84662146 55.9352171,3.84662146 L55.9352171,3.84662146 C55.9429206,3.84698829 55.9502573,3.8491893 55.957594,3.8491893 L55.957594,3.8491893 L67.045152,4.04177715 L67.0873379,4.04177715 C67.7887246,4.02967163 68.3441113,3.45410906 68.3318449,2.75602394 L68.3318449,2.75602394 C68.3210007,2.05610464 67.7432372,1.49961744 67.045152,1.51245663 L67.045152,1.51245663 L55.9873075,1.70394399 L36.6980746,0.00770351427 C36.6632254,0.00330150612 36.6276425,0 36.5913259,0 L36.5913259,0 C36.5715169,0 36.5509742,0.00110050204 36.5307983,0.00330150612" id="Fill-13" fill="url(#linearGradient-20)" mask="url(#mask-18)"></path>
                </g>
                <g id="Group-18" transform="translate(1.920376, 18.288510)">
                    <mask id="mask-22" fill="white">
                        <use xlink:href="#path-21"></use>
                    </mask>
                    <g id="Clip-17"></g>
                    <path d="M36.3836979,0.00513567618 L12.4906981,3.36019956 L0.361698337,3.36019956 C0.162140634,3.36019956 3.25814054e-16,3.52270703 3.25814054e-16,3.72189789 L3.25814054e-16,3.72189789 C3.25814054e-16,3.92108876 0.162140634,4.08286256 0.361698337,4.08286256 L0.361698337,4.08286256 L12.5259142,4.08286256 C12.5325172,4.08286256 12.5383866,4.07956106 12.5446227,4.07919422 L12.5446227,4.07919422 C12.5486579,4.07919422 12.5526931,4.07992789 12.5567283,4.08102839 L12.5567283,4.08102839 C12.5614971,4.08176206 12.5662659,4.08249573 12.5714016,4.08212889 L12.5714016,4.08212889 L36.4471602,1.42404964 L54.8116045,4.78021402 C54.8229764,4.78351553 54.8394839,4.78498286 54.8530568,4.78608337 L54.8530568,4.78608337 C54.8820367,4.79011854 54.909916,4.78791754 54.9385291,4.78975171 L54.9385291,4.78975171 C54.9535693,4.79085221 54.9678758,4.79488738 54.9832828,4.79525422 L54.9832828,4.79525422 L65.0950624,4.97060087 L65.1390825,4.97060087 C65.8290973,4.95922902 66.3793483,4.3895358 66.3670838,3.69952102 L66.3670838,3.69952102 C66.3547704,3.01023991 65.7850772,2.46108939 65.0950624,2.47246125 L65.0950624,2.47246125 L55.0430768,2.6478079 L36.5865571,0.0084371823 C36.5839893,0.0084371823 36.5814214,0.0084371823 36.5788536,0.0084371823 L36.5788536,0.0084371823 C36.5414365,0.00330150612 36.5036526,0 36.465135,0 L36.465135,0 C36.4383562,0 36.4112104,0.00146733605 36.3836979,0.00513567618" id="Fill-16" fill="url(#linearGradient-24)" mask="url(#mask-22)"></path>
                </g>
                <g id="Group-21" transform="translate(3.266657, 13.714823)">
                    <mask id="mask-26" fill="white">
                        <use xlink:href="#path-25"></use>
                    </mask>
                    <g id="Clip-20"></g>
                    <path d="M35.8675624,0.00990451835 L11.1543218,4.30736498 L0.361331503,4.30736498 C0.162140634,4.30736498 -6.51628108e-16,4.46987245 -6.51628108e-16,4.66869648 L-6.51628108e-16,4.66869648 C-6.51628108e-16,4.86862102 0.162140634,5.03112849 0.361331503,5.03112849 L0.361331503,5.03112849 L11.1796334,5.03259582 C11.1910052,5.03259582 11.2001761,5.02709331 11.2111811,5.02599281 L11.2111811,5.02599281 C11.2152163,5.02599281 11.2188846,5.02635964 11.222553,5.02709331 L11.222553,5.02709331 C11.2273218,5.02782698 11.2317238,5.02856065 11.2364926,5.02782698 L11.2364926,5.02782698 L35.9438639,1.43248682 L53.4022283,5.71564075 C53.4150674,5.71894226 53.4312081,5.7226106 53.4451478,5.72591211 L53.4451478,5.72591211 C53.5302533,5.74315331 53.6146251,5.74682165 53.6978965,5.74352014 L53.6978965,5.74352014 L62.4032344,5.89648992 L62.4472545,5.89648992 C63.1233296,5.8843844 63.6640429,5.32496253 63.653203,4.64778694 L63.653203,4.64778694 C63.6405656,3.97134502 63.0811437,3.42989802 62.4032344,3.44163671 L62.4032344,3.44163671 L53.7378814,3.59570699 L36.1742357,0.0264120489 C36.1126076,0.00953768433 36.0484116,0 35.9827483,0 L35.9827483,0 C35.9445976,0 35.90608,0.00330150612 35.8675624,0.00990451835" id="Fill-19" fill="url(#linearGradient-28)" mask="url(#mask-26)"></path>
                </g>
                <g id="Group-24" transform="translate(5.044335, 9.143705)">
                    <mask id="mask-30" fill="white">
                        <use xlink:href="#path-29"></use>
                    </mask>
                    <g id="Clip-23"></g>
                    <path d="M34.9196634,0.0135728585 L9.36563918,5.25269623 L0.361698337,5.25379673 C0.162507468,5.25379673 -1.95488432e-15,5.41447003 -1.95488432e-15,5.61402773 L-1.95488432e-15,5.61402773 C-1.95488432e-15,5.81505277 0.162507468,5.97572607 0.361698337,5.97572607 L0.361698337,5.97572607 L9.40195575,5.97719341 C9.41442811,5.97719341 9.42469946,5.97095723 9.43717181,5.97022356 L9.43717181,5.97022356 C9.44157382,5.96985673 9.4467095,5.97059039 9.45147834,5.97059039 L9.45147834,5.97059039 C9.45771452,5.97132406 9.46431753,5.97205773 9.47055371,5.97059039 L9.47055371,5.97059039 L35.0080703,1.43835616 L51.5603547,6.64373081 C51.5713597,6.64849965 51.5889677,6.65363533 51.6014401,6.65693683 L51.6014401,6.65693683 C51.710023,6.68591672 51.8175053,6.6921529 51.9238872,6.68811772 L51.9238872,6.68811772 L58.8478792,6.80770561 L58.8874972,6.80770561 C59.5474316,6.79596692 60.0712706,6.25341942 60.0604359,5.5942187 L60.0604359,5.5942187 C60.0496274,4.93575164 59.5059794,4.41191267 58.8478792,4.42218402 L58.8478792,4.42218402 L51.9910178,4.54067141 L35.2611858,0.0311808911 C35.1940552,0.0113718544 35.1243567,0 35.0528241,0 L35.0528241,0 C35.0091709,0 34.9644171,0.00440200815 34.9196634,0.0135728585" id="Fill-22" fill="url(#linearGradient-32)" mask="url(#mask-30)"></path>
                </g>
                <g id="Group-27" transform="translate(0.000000, 35.233306)">
                    <mask id="mask-34" fill="white">
                        <use xlink:href="#path-33"></use>
                    </mask>
                    <g id="Clip-26"></g>
                    <path d="M68.9365482,0 L56.9036589,0.207994885 C56.8996237,0.207994885 56.8963222,0.209095387 56.8922871,0.209462221 L56.8922871,0.209462221 C56.8831162,0.209462221 56.8743122,0.207628051 56.8651413,0.207994885 L56.8651413,0.207994885 L34.9713869,1.34114515 L14.46023,0.9178187 C14.4576621,0.9178187 14.4554611,0.919286036 14.4525264,0.919286036 L14.4525264,0.919286036 C14.4506923,0.919286036 14.4488581,0.9178187 14.4462903,0.9178187 L14.4462903,0.9178187 L0.361698337,0.919286036 C0.162874302,0.919286036 0,1.08032617 0,1.28135121 L0,1.28135121 C0,1.48054208 0.162874302,1.64304954 0.361698337,1.64304954 L0.361698337,1.64304954 L14.4334511,1.64304954 L34.9556131,2.75749127 C34.9618493,2.75969228 34.9721206,2.75969228 34.9790905,2.75969228 L34.9790905,2.75969228 C34.9838593,2.76005911 34.9878945,2.75859178 34.9926633,2.75859178 L34.9926633,2.75859178 C34.9970653,2.75859178 35.0011005,2.76005911 35.0058693,2.75969228 L35.0058693,2.75969228 L56.9227343,2.35324019 L68.9365482,2.56013458 L68.9816688,2.56013458 C69.6881911,2.54876272 70.2505476,1.96623031 70.2397014,1.25787383 L70.2397014,1.25787383 C70.2274371,0.559055036 69.6544424,0 68.9578246,0 L68.9578246,0 C68.9504879,0 68.943518,0 68.9365482,0" id="Fill-25" fill="url(#linearGradient-36)" mask="url(#mask-34)"></path>
                </g>
                <g id="Group-30" transform="translate(0.312543, 38.864596)">
                    <mask id="mask-38" fill="white">
                        <use xlink:href="#path-37"></use>
                    </mask>
                    <g id="Clip-29"></g>
                    <path d="M68.3110962,0.000366834013 L56.5911163,0.203226043 C56.5801113,0.203226043 56.56984,0.206527549 56.5584681,0.206894383 L56.5584681,0.206894383 C56.5507646,0.207628051 56.5434279,0.207261217 56.5360912,0.206894383 L56.5360912,0.206894383 C56.5280209,0.206527549 56.5199505,0.205793881 56.5115133,0.206527549 L56.5115133,0.206527549 L33.8121915,2.27987339 L14.1660291,0.914884028 C14.1605266,0.91415036 14.1561246,0.916718198 14.1502552,0.916718198 L14.1502552,0.916718198 C14.1447527,0.916351364 14.1399839,0.913416692 14.1337477,0.913416692 L14.1337477,0.913416692 L0.362432005,0.913416692 C0.162874302,0.913416692 -1.42543649e-15,1.07592416 -1.42543649e-15,1.27474819 L-1.42543649e-15,1.27474819 C-1.42543649e-15,1.47577323 0.162874302,1.6360797 0.362432005,1.6360797 L0.362432005,1.6360797 L14.1231095,1.6382807 L33.7542317,3.69732002 C33.762302,3.69732002 33.7718397,3.69878735 33.7788096,3.69878735 L33.7788096,3.69878735 C33.8030206,3.70062152 33.8257643,3.69732002 33.8492417,3.69658635 L33.8492417,3.69658635 C33.8521764,3.69658635 33.8554779,3.69695318 33.8584126,3.69732002 L33.8584126,3.69732002 C33.8620809,3.69732002 33.8657492,3.69768685 33.8694176,3.69732002 L33.8694176,3.69732002 L33.9226085,3.69438534 L56.6178952,2.34810452 L68.3110962,2.55059689 L68.3562168,2.55059689 C69.0587039,2.5388582 69.6195931,1.95815996 69.6087473,1.25273815 L69.6087473,1.25273815 C69.5964826,0.556487197 69.0271562,0 68.3312721,0 L68.3312721,0 C68.3243022,0 68.3176992,0 68.3110962,0.000366834013" id="Fill-28" fill="url(#linearGradient-40)" mask="url(#mask-38)"></path>
                </g>
                <g id="Group-33" transform="translate(3.266657, 49.791114)">
                    <mask id="mask-42" fill="white">
                        <use xlink:href="#path-41"></use>
                    </mask>
                    <g id="Clip-32"></g>
                    <path d="M62.4032344,0 L53.6854241,0.153336617 C53.6069216,0.150768779 53.5276855,0.155170787 53.4477157,0.170577816 L53.4477157,0.170577816 L28.3203195,5.05350536 L11.2739097,0.877100125 C11.2673067,0.875632789 11.2610705,0.875999623 11.2544675,0.876366457 L11.2544675,0.876366457 C11.2493318,0.876366457 11.244563,0.876733291 11.2394273,0.875632789 L11.2394273,0.875632789 C11.2192514,0.871964449 11.2009097,0.863527266 11.1796334,0.863527266 L11.1796334,0.863527266 L0.361331503,0.865361436 C0.162140634,0.865361436 -6.51628108e-16,1.02603473 -6.51628108e-16,1.22705977 L-6.51628108e-16,1.22705977 C-6.51628108e-16,1.42588381 0.162140634,1.58839128 0.361331503,1.58839128 L0.361331503,1.58839128 L11.1286434,1.58839128 L28.1207618,6.46398214 C28.1295658,6.46728365 28.1416713,6.46911782 28.1475406,6.47021832 L28.1475406,6.47021832 C28.2630934,6.49883137 28.3779124,6.49406253 28.4853948,6.46765048 L28.4853948,6.46765048 L53.7177055,2.30004926 L62.4032344,2.45411955 L62.4472545,2.45411955 C63.1233296,2.44128036 63.6640429,1.88369266 63.653203,1.20504973 L63.653203,1.20504973 C63.6409324,0.534477157 63.0932492,0 62.4252445,0 L62.4252445,0 C62.4179078,0 62.4105711,0 62.4032344,0" id="Fill-31" fill="url(#linearGradient-44)" mask="url(#mask-42)"></path>
                </g>
                <g id="Group-36" transform="translate(5.044335, 53.450284)">
                    <mask id="mask-46" fill="white">
                        <use xlink:href="#path-45"></use>
                    </mask>
                    <g id="Clip-35"></g>
                    <path d="M58.8478792,0.000366834013 L51.8857364,0.120321556 C51.8042993,0.119954722 51.7217616,0.125457232 51.6384903,0.144165767 L51.6384903,0.144165767 L25.7025919,5.95811804 L9.51934263,0.850688076 C9.50540294,0.846286068 9.49109641,0.848853906 9.47752356,0.845919234 L9.47752356,0.845919234 C9.45221201,0.840416723 9.42873463,0.830879039 9.40195575,0.830879039 L9.40195575,0.830879039 L0.361698337,0.833080043 C0.162507468,0.833080043 -1.95488432e-15,0.993386507 -1.95488432e-15,1.19257738 L-1.95488432e-15,1.19257738 C-1.95488432e-15,1.39323558 0.162507468,1.55464255 0.361698337,1.55464255 L0.361698337,1.55464255 L9.34179497,1.55574305 L25.446175,7.36345914 C25.4538785,7.36676065 25.465984,7.37042899 25.4729539,7.37189632 L25.4729539,7.37189632 C25.6200543,7.41885108 25.7700894,7.41298173 25.9069185,7.36822798 L25.9069185,7.36822798 L51.9528671,2.26740103 L58.8478792,2.38588842 L58.8874972,2.38588842 C59.5474316,2.3748834 60.0712706,1.83233589 60.0604359,1.17240151 L60.0604359,1.17240151 C60.0496274,0.520537464 59.5158839,2.60651243e-15 58.8654872,2.60651243e-15 L58.8654872,2.60651243e-15 C58.8596179,2.60651243e-15 58.8537485,2.60651243e-15 58.8478792,0.000366834013" id="Fill-34" fill="url(#linearGradient-48)" mask="url(#mask-46)"></path>
                </g>
                <g id="Group-39" transform="translate(7.338148, 57.114955)">
                    <mask id="mask-50" fill="white">
                        <use xlink:href="#path-49"></use>
                    </mask>
                    <g id="Clip-38"></g>
                    <path d="M54.2598862,0.000366834013 L49.5849535,0.0825376529 C49.4958129,0.0818039849 49.4063054,0.0884069971 49.3156974,0.110783872 L49.3156974,0.110783872 L22.5745983,6.8561277 L7.25010743,0.821341355 C7.2497406,0.820974521 7.24937376,0.820974521 7.24937376,0.820974521 L7.24937376,0.820974521 L7.24900693,0.820607687 C7.24680592,0.819874019 7.24460492,0.820240853 7.24277075,0.819507185 L7.24277075,0.819507185 C7.20095167,0.802999654 7.15583109,0.792728302 7.10814267,0.792728302 L7.10814267,0.792728302 L0.361698337,0.792728302 C0.162507468,0.792728302 -1.30325622e-15,0.954502101 -1.30325622e-15,1.1540598 L-1.30325622e-15,1.1540598 C-1.30325622e-15,1.35325067 0.162507468,1.51575814 0.361698337,1.51575814 L0.361698337,1.51575814 L7.03477586,1.51759231 L22.2528849,8.25266479 C22.2616889,8.25633313 22.2715934,8.26110197 22.2803974,8.26440348 L22.2803974,8.26440348 C22.4528094,8.3326346 22.6343923,8.32639842 22.7946987,8.26440348 L22.7946987,8.26440348 L49.6726268,2.2292503 L54.2598862,2.30922011 L54.3013384,2.30922011 C54.9377954,2.29784826 55.4465942,1.77217512 55.4357644,1.13425077 L55.4357644,1.13425077 C55.4234837,0.503296266 54.9095492,0 54.2815294,0 L54.2815294,0 C54.2741927,0 54.2672229,0 54.2598862,0.000366834013" id="Fill-37" fill="url(#linearGradient-52)" mask="url(#mask-50)"></path>
                </g>
                <g id="Group-42" transform="translate(0.946065, 42.501389)">
                    <mask id="mask-54" fill="white">
                        <use xlink:href="#path-53"></use>
                    </mask>
                    <g id="Clip-41"></g>
                    <path d="M67.045152,0.000366834013 L55.957594,0.192221023 C55.9436543,0.192587857 55.9308151,0.196256197 55.9172422,0.196989865 L55.9172422,0.196989865 C55.9066041,0.197723533 55.895599,0.197723533 55.8849609,0.197356699 L55.8849609,0.197356699 C55.869187,0.197356699 55.8530463,0.196989865 55.8369056,0.199190869 L55.8369056,0.199190869 L32.3239459,3.21163178 L13.5523158,0.905713178 C13.5475469,0.905346344 13.5427781,0.906080012 13.5383761,0.906446846 L13.5383761,0.906446846 C13.5343409,0.907180514 13.5303057,0.907914182 13.5262706,0.907547348 L13.5262706,0.907547348 C13.5174665,0.90681368 13.5093962,0.902411672 13.5002253,0.902411672 L13.5002253,0.902411672 L0.361331503,0.902411672 C0.162507468,0.902411672 2.4436054e-15,1.06491914 2.4436054e-15,1.26447684 L2.4436054e-15,1.26447684 C2.4436054e-15,1.46330088 0.162507468,1.62580834 0.361331503,1.62580834 L0.361331503,1.62580834 L13.4800495,1.62727568 L32.2318705,4.62724424 C32.2381067,4.62944524 32.2483781,4.63091258 32.2560816,4.63091258 L32.2560816,4.63091258 C32.3221117,4.63934976 32.3859408,4.63494775 32.4483026,4.6257769 L32.4483026,4.6257769 L56.0005136,2.33783316 L67.045152,2.53005419 L67.0873379,2.53005419 C67.7887246,2.51611449 68.3441113,1.94055193 68.3318449,1.2424668 L68.3318449,1.2424668 C68.3210007,0.552818857 67.7575437,0 67.0704636,0 L67.0704636,0 C67.0620264,0 67.0535892,0.000366834013 67.045152,0.000366834013" id="Fill-40" fill="url(#linearGradient-56)" mask="url(#mask-54)"></path>
                </g>
                <g id="Group-45" transform="translate(1.920376, 46.142583)">
                    <mask id="mask-58" fill="white">
                        <use xlink:href="#path-57"></use>
                    </mask>
                    <g id="Clip-44"></g>
                    <path d="M65.0950624,0 L55.0452778,0.174979824 C55.044911,0.174979824 55.0441773,0.175346658 55.0438105,0.174979824 L55.0438105,0.174979824 L54.9832828,0.17644716 C54.9689763,0.176813994 54.9557703,0.180482334 54.9414638,0.181216002 L54.9414638,0.181216002 C54.9036799,0.183417006 54.8666296,0.18194967 54.8281121,0.187819015 L54.8281121,0.187819015 L30.5117859,4.137154 L12.5978137,0.894341323 C12.5912107,0.893607655 12.5846076,0.893607655 12.5780046,0.894341323 L12.5780046,0.894341323 C12.572869,0.894708157 12.5677333,0.895441825 12.5625976,0.894708157 L12.5625976,0.894708157 C12.5497584,0.893607655 12.5387534,0.887371477 12.5259142,0.887371477 L12.5259142,0.887371477 L0.361698337,0.887371477 C0.162140634,0.887371477 3.25814054e-16,1.05024578 3.25814054e-16,1.24906981 L3.25814054e-16,1.24906981 C3.25814054e-16,1.44862752 0.162140634,1.61040132 0.361698337,1.61040132 L0.361698337,1.61040132 L12.4837283,1.61040132 L30.3632181,5.55203278 C30.3712884,5.55313329 30.3815598,5.55533429 30.389997,5.55680163 L30.389997,5.55680163 C30.4912431,5.57514333 30.5913888,5.56927398 30.6852983,5.54616344 L30.6852983,5.54616344 L55.0438105,2.32352664 L65.0950624,2.49813963 L65.1390825,2.49813963 C65.8290973,2.48640094 66.3793483,1.91744139 66.3670838,1.22779344 L66.3670838,1.22779344 C66.3547704,0.545115343 65.7971827,0 65.1170725,0 L65.1170725,0 C65.1097358,0 65.1027659,0 65.0950624,0" id="Fill-43" fill="url(#linearGradient-60)" mask="url(#mask-58)"></path>
                </g>
                <g id="Group-48" transform="translate(10.272453, 60.788431)">
                    <mask id="mask-62" fill="white">
                        <use xlink:href="#path-61"></use>
                    </mask>
                    <g id="Clip-47"></g>
                    <path d="M48.392743,0 L46.631206,0.0337487292 C46.6271709,0.0337487292 46.6238694,0.0348492312 46.620201,0.0348492312 L46.620201,0.0348492312 C46.5556382,0.0366834013 46.4914423,0.0451205836 46.4265127,0.0586934421 L46.4265127,0.0586934421 C46.4246785,0.0590602761 46.4224775,0.0590602761 46.4210102,0.0597939441 L46.4210102,0.0597939441 C46.3997338,0.0641959522 46.3780906,0.0649296203 46.3568142,0.0707989645 L46.3568142,0.0707989645 L18.8064793,7.74313234 L4.3378122,0.784291119 C4.3345107,0.782456949 4.33084236,0.782823783 4.32717402,0.780989613 L4.32717402,0.780989613 C4.29929463,0.768150423 4.26848057,0.763381581 4.23693285,0.757879071 L4.23693285,0.757879071 C4.22335999,0.755311232 4.2105208,0.750175556 4.19694794,0.749808722 L4.19694794,0.749808722 C4.18887759,0.749075054 4.18227458,0.74503988 4.1738374,0.74503988 L4.1738374,0.74503988 L0.362432005,0.74503988 C0.161406966,0.74503988 0,0.907547348 0,1.10710505 L0,1.10710505 C0,1.30592909 0.161406966,1.46843655 0.362432005,1.46843655 L0.362432005,1.46843655 L4.08176206,1.46843655 L18.4198363,9.12976491 C18.4268061,9.13343325 18.4385448,9.13783526 18.4466152,9.14297094 L18.4466152,9.14297094 C18.5423588,9.18882519 18.6428714,9.21083523 18.7422834,9.2115689 L18.7422834,9.2115689 L18.7532884,9.2115689 C18.8453637,9.21083523 18.9367054,9.19175986 19.0214441,9.15727746 L19.0214441,9.15727746 L46.7493266,2.18229554 L48.392743,2.21384327 L48.4363962,2.21384327 C49.0471749,2.20173775 49.5328631,1.69624048 49.5220415,1.08509501 L49.5220415,1.08509501 C49.5097525,0.481286225 49.015994,0 48.4140193,0 L48.4140193,0 C48.4070495,0 48.3997128,0 48.392743,0" id="Fill-46" fill="url(#linearGradient-64)" mask="url(#mask-62)"></path>
                </g>
            </g>
        </g>
    </g>
</svg>