<svg xmlns="http://www.w3.org/2000/svg" id="Layer_1" data-name="Layer 1" viewBox="0 0 316.78 315.5"><defs><style>.cls-1{fill:#ffd800;}.cls-2{fill:#231f20;}</style></defs><path class="cls-1" d="M304.72,158.94A145.33,145.33,0,1,1,159.39,13.61,145.32,145.32,0,0,1,304.72,158.94Z"></path><path class="cls-2" d="M244.24,157.74V126.85H228.08v18.92H214.23V109.49h8.94V94.9H185.3v12.91a33.91,33.91,0,0,0-3.45-4.1c-6.45-6.49-15.34-9.78-26.43-9.78s-20.08,3.3-26.49,9.81a33.26,33.26,0,0,0-5.81,7.84V94.9H108.53v2.93a32.79,32.79,0,0,0-16.23-3.9,38.07,38.07,0,0,0-17.12,3.89,30.31,30.31,0,0,0-12.61,11.76,34.57,34.57,0,0,0-4.65,18c0,9.59,3,17.64,9,23.94,4.32,4.6,10.19,7.53,17.47,8.8v26.24H99.11V172.32h5v36.29h-9.2v14.58h38.57V208.61h-9.2V172.32h5.22v14.26H136a35.91,35.91,0,0,0-.21,3.78,33.42,33.42,0,0,0,9.38,23.51c6.26,6.68,15.27,10.07,26.77,10.07,11.05,0,19.94-3.28,26.4-9.75a33.6,33.6,0,0,0,3.52-4.18v13.18h38.35V208.61h-9.42V196.83H244V182.25H230.76v-9.93h14.15v8.54h16V157.74ZM110,128.85l-.57,2.61a19.29,19.29,0,0,1-5.6,10.51,13.4,13.4,0,0,1-9.35,3.63,13.63,13.63,0,0,1-10.81-4.81c-2.91-3.31-4.33-7.58-4.33-13a21.5,21.5,0,0,1,4.17-13.39c2.67-3.55,6.56-5.28,11.88-5.28,6.33,0,10.68,3.36,13.29,10.26l.52,1.36H119.9a37,37,0,0,0-.62,6.82,34.81,34.81,0,0,0,.52,6ZM153,161a30.31,30.31,0,0,0-7.54,5.55c-.47.49-.9,1-1.33,1.48V159.8A46,46,0,0,0,153,161Zm29.36,42.92a13.58,13.58,0,0,1-10.41,4.62,13.32,13.32,0,0,1-10.44-4.71c-2.86-3.19-4.3-7.57-4.3-13,0-6.22,1.46-11,4.34-14a13.53,13.53,0,0,1,10.4-4.62,13.1,13.1,0,0,1,10.56,4.8c2.8,3.29,4.21,7.7,4.21,13.11C186.68,196.17,185.21,200.83,182.32,203.94Zm16-37.39a31.06,31.06,0,0,0-8.83-6.19h12.32V170.7A36.54,36.54,0,0,0,198.34,166.55Zm-4.28-57.06v36.28h-7.73a34.5,34.5,0,0,0,.13-36.28Zm-8.76,37.75v11.49a42.77,42.77,0,0,0-11-1.88,31,31,0,0,0,7.5-5.5A34.28,34.28,0,0,0,185.3,147.24ZM145,114a13.57,13.57,0,0,1,10.4-4.59A13.11,13.11,0,0,1,166,114.15c2.79,3.28,4.2,7.7,4.2,13.11,0,6.07-1.46,10.73-4.36,13.85a13.59,13.59,0,0,1-10.41,4.63A13.36,13.36,0,0,1,145,141c-2.89-3.25-4.3-7.5-4.3-13C140.68,121.78,142.14,117.06,145,114Zm-6.86,43.79H109.77a28.85,28.85,0,0,0,13.61-14,36,36,0,0,0,5.27,7.25A29.48,29.48,0,0,0,138.16,157.74ZM208,190.36a32.88,32.88,0,0,0-5.1-18h7.65v36.29h-7.77A32.89,32.89,0,0,0,208,190.36Z"></path></svg>