<?xml version="1.0" encoding="UTF-8"?>
<svg xmlns="http://www.w3.org/2000/svg" version="1.1" viewBox="0 0 119.5224199 111.7565431">
  <defs>
    <style>
      .cls-1 {
        fill: #ef7d00;
      }

      .cls-2 {
        fill: #191a51;
      }
    </style>
  </defs>
  <!-- Generator: Adobe Illustrator 28.7.1, SVG Export Plug-In . SVG Version: 1.2.0 Build 142)  -->
  <g>
    <g id="Laag_1">
      <g id="Group_75">
        <path id="Path_89" class="cls-2" d="M12.0340004,78.6080017l-3.5810003,8.9230042-3.553-8.9230042H0l6.427,14.6750031h4.1090002l6.4280005-14.6750031h-4.9300003Z"/>
        <path id="Path_90" class="cls-2" d="M24.2149925,93.6070251c-1.8683701.0146027-3.6432419-.81604-4.8289986-2.2599945-2.6410942-3.1156006-2.6410942-7.6844025,0-10.8000031,1.1858482-1.4438324,2.960659-2.2744598,4.8289986-2.2599945,1.5379753-.0650482,3.0167389.5981903,3.9910011,1.7899933v-1.4680023h4.4319992v14.6750031h-4.432003v-1.4680023c-.9741631,1.1919403-2.4529953,1.8552094-3.9910011,1.7899933M22.7909889,88.5580139c1.2920418,1.3373566,3.4235916,1.3740845,4.760952.0820465.0278168-.0268707.055172-.0542297.0820465-.0820465,1.2323265-1.5233002,1.2323265-3.7006989,0-5.223999-1.2920418-1.3373566-3.4235916-1.3740845-4.760952-.0820465-.0278168.0268707-.055172.0542297-.0820465.0820465-1.2323265,1.5233002-1.2323265,3.7006989,0,5.223999"/>
        <path id="Path_91" class="cls-2" d="M42.2059784,93.6070251c-1.8683395.0144653-3.6431503-.8161621-4.8290024-2.2599945-2.6406784-3.1157532-2.6406784-7.6842499,0-10.8000031,1.1859436-1.4437256,2.9606934-2.2743073,4.8290024-2.2599945,1.5382843-.0652161,3.0174255.5980225,3.9919968,1.7899933v-1.4680023h4.4319992v14.6750031h-4.4319992v-1.4680023c-.974472,1.1920929-2.4536819,1.8553619-3.9919968,1.7899933M40.7819748,88.5580139c1.2920456,1.3373566,3.4235916,1.3740997,4.7609482.0820465.0278244-.0268707.0551758-.0542297.0820541-.0820465,1.2323227-1.5233002,1.2323227-3.7006989,0-5.223999-1.2920456-1.3373566-3.4235916-1.3740997-4.7609482-.0820465-.0278244.0268707-.0551758.0542297-.0820541.0820465-1.2323227,1.5233002-1.2323227,3.7006989,0,5.223999"/>
        <path id="Path_92" class="cls-2" d="M54.2679749,93.2829895v-14.6750031h4.4320068v2.1999969c.2519531-.6875458.7141724-1.278183,1.3209991-1.6880035.6319885-.4555359,1.3929749-.6972961,2.1719971-.6900024.4848785-.0029297.9681396.0562286,1.4380035.1759949v4.4909973c-.6313629-.2252502-1.2957153-.3441925-1.9660034-.352005-.8446808-.0431976-1.6585541.3226166-2.1869965.9830017-.54953.7519531-.824173,1.6697998-.7779999,2.6000061v6.9559937l-4.4320068-.0009766Z"/>
        <path id="Path_93" class="cls-2" d="M73.5809937,93.4589691c-1.5407715.0626526-3.050705-.4438782-4.2420044-1.4230042-1.1496887-1.0519562-1.7595825-2.568985-1.6580048-4.1239929v-5.4589996h-2.9349976v-3.8450012h2.9349976v-3.7220001h4.4320068v3.7220001h4.1089935v3.8450012h-4.1089935v4.548996c-.2213593,1.1570435.5371704,2.2744446,1.6942139,2.4958038.2662048.0509338.5396729.0506592.8057861-.0008087.5501862.0198975,1.0988312-.0698395,1.6139984-.2640076v3.9350128c-.8624573.2218018-1.7518921.3207855-2.6419983.2940063"/>
        <path id="Path_94" class="cls-2" d="M94.243988,93.6070251c-2.0579376.058136-4.056015-.6962738-5.5619965-2.1000061-1.5162659-1.4429932-2.3350983-3.4707489-2.2460022-5.5619965-.0571594-2.0507355.7395782-4.0331726,2.1999969-5.473999,2.9805908-2.7938538,7.5768127-2.9259949,10.7129974-.3079987,1.4546051,1.359436,2.2292938,3.2953796,2.1139984,5.2830048.0029907.519989-.0263977,1.0396576-.0880127,1.5559998h-10.6529846c.0851135.7904358.5271912,1.4984894,1.1999969,1.9219971.7108612.4474335,1.5372162.6768799,2.3769989.6600037.7429047.0137634,1.4781189-.1522827,2.1430054-.4839935.563446-.269577,1.0485077-.678894,1.4089966-1.1889954l3.2869873,2.4649963c-.7299347,1.019455-1.7105408,1.8333435-2.8470001,2.3630066-1.2665253.5930634-2.6516876.8892517-4.0500031.8659973M90.8409729,84.095047h6.2220001c-.1411438-.6716614-.5404816-1.2609863-1.1119843-1.6410217-.5664673-.3713684-1.2306976-.5656281-1.9080048-.5579987-.7120667-.0084534-1.4126892.1794128-2.0249939.5429993-.6072388.3628082-1.0334625.9647369-1.173996,1.6580048"/>
        <path id="Path_95" class="cls-2" d="M109.3009949,93.6070251c-2.3439941.1669922-4.6222534-.8189392-6.105011-2.6419983l2.9349976-2.6710052c.7192383,1.0255127,1.9198303,1.6034698,3.1700134,1.526001.8999939,0,1.3500061-.2740021,1.3500061-.8220062-.0014038-.2567596-.1342468-.4949036-.3519897-.6309967-.4487-.2472229-.9342346-.4207764-1.4379883-.5140076l-.9689941-.2350006c-1.2136841-.2324066-2.3200989-.8499603-3.1549988-1.7610016-.7171021-.8494263-1.0795288-1.9423981-1.0119934-3.052002.006073-1.2845764.6078491-2.4936371,1.6289978-3.272995,1.1514282-.865509,2.5667725-1.3060913,4.006012-1.246994,2.0238342-.1174469,3.9690552.7998199,5.1659851,2.4360046l-2.8760071,2.3769989c-.5408936-.7395172-1.402771-1.1758423-2.3190002-1.173996-.8000183,0-1.2000122.2543335-1.2000122.7630005,0,.4666595.410675.8190002,1.2319946,1.0570068l1.3500061.352005c1.1985168.2603607,2.3071289.8322601,3.2139893,1.6580048.7594604.8002777,1.1571045,1.8772125,1.1000061,2.9790039.0170593,1.3538208-.59552,2.6388092-1.6579895,3.4779968-1.1410522.9423676-2.5857544,1.4378052-4.0650024,1.3939972"/>
        <path id="Path_96" class="cls-2" d="M8.4239998,71.2719727c-.8433647.0127106-1.677876-.1733093-2.4359999-.5429993-.6176023-.2743988-1.153656-.7039948-1.5559998-1.246994v1.4700012H0v-20.5839996h4.4320002v7.3730011c.4024425-.5429077.9384689-.9724731,1.5559998-1.246994.7581363-.3696594,1.592639-.5556793,2.4359999-.5429993,1.8679581-.0140076,3.6422806.8165436,4.8280001,2.2599945,2.6406794,3.1157532,2.6406803,7.6842499,0,10.8000031-1.1856289,1.4435577-2.9600105,2.2741547-4.8280001,2.2599945M5,66.2239838c.6155634.6863708,1.5046997,1.0631409,2.4260001,1.0279999.919415.0338898,1.8063827-.3423615,2.421-1.0269928,1.2323246-1.5233002,1.2323246-3.7006989,0-5.223999-.6146173-.6846313-1.501585-1.0608826-2.421-1.0269928-.9208155-.0359039-1.8098726.3397217-2.4260001,1.0249786-1.2323248,1.5233002-1.2323248,3.7006989,0,5.223999"/>
        <path id="Path_97" class="cls-2" d="M30.2590103,69.0549927c-3.0398483,2.9541321-7.8781509,2.9541321-10.9179993,0-3.006916-2.996994-3.0149574-7.8641205-.0179634-10.871048.0059776-.0059967.0119667-.0119781.0179634-.0179596,3.0398483-2.9541321,7.8781509-2.9541321,10.9179993,0,3.006916,2.9985657,3.0136909,7.8669586.0151291,10.8738708-.0050354.0050507-.0100784.0101013-.0151291.0151367M22.466011,66.1639862c1.2847939,1.2887573,3.3710709,1.2919617,4.6598282.0071716.0023956-.0023804.0047836-.004776.0071716-.0071716,1.2325325-1.4792328,1.2325325-3.6277618,0-5.1069946-1.2847939-1.2887573-3.3710709-1.2919617-4.6598282-.0071716-.0023956.0023804-.0047836.004776-.0071716.0071716-1.2325325,1.4792328-1.2325325,3.6277618,0,5.1069946"/>
        <path id="Path_98" class="cls-2" d="M35.2510223,70.9479828v-14.6750031h4.4319992v1.5c.9556808-1.2689972,2.4972839-1.9566803,4.0800018-1.8200073,1.5954056-.0799408,3.1384811.5805359,4.1819992,1.7899933,1.057373,1.341095,1.594368,3.0191956,1.512001,4.7250061v8.4819946h-4.4319992v-7.7189941c0-2.1719971-.7923355-3.2579956-2.3769989-3.2579956-.8255997-.0250397-1.6164932.3325806-2.1429977.9689941-.6056671.8312073-.8969269,1.8502808-.8219986,2.8760071v7.1320038l-4.4320068-.0019989Z"/>
        <path id="Path_99" class="cls-2" d="M60.2279816,71.1239929c-1.5407715.0626526-3.050705-.4438782-4.2420044-1.4230042-1.1496887-1.0519562-1.7595825-2.568985-1.6580048-4.1239929v-5.4589996h-2.9349823v-3.8430023h2.9349976v-4.0800018h4.4320068v4.0800018h4.1089935v3.8450012h-4.1089935v4.548996c-.2213593,1.1570435.5371704,2.2744446,1.6942139,2.4958038.2662048.0509338.5396729.0506592.8057861-.0008087.5501862.0198975,1.0988312-.0698395,1.6139984-.2640076v3.9329987c-.8625031.2214661-1.7519379.3200989-2.6419983.2929993"/>
        <path id="Path_100" class="cls-2" d="M70.0890045,70.9519806h-4.4320068v-20.5839996h4.4320068v7.3999939c.9556732-1.2689972,2.4972839-1.9566803,4.0800018-1.8200073,1.5954285-.0800934,3.1385803.5804138,4.1820068,1.7899933,1.0572968,1.3411407,1.5942688,3.0192108,1.5119934,4.7250061v8.4890137h-4.4320068v-7.7189941c0-2.1719971-.7923431-3.2579956-2.3769989-3.2579956-.825592-.0250397-1.6165009.3325806-2.1430054.9689941-.6055145.8312836-.896759,1.850296-.8220062,2.8760071l.0000153,7.1319885Z"/>
        <path id="Path_101" class="cls-2" d="M88.6980286,71.2710114c-1.5764313.0909729-3.1020813-.5736389-4.1089935-1.7899933-1.0244293-1.3997803-1.5328674-3.1109467-1.4389954-4.8430023v-8.3650055h4.4320068v7.6000061c0,2.2506714.7533264,3.3756714,2.2599945,3.375,1.8393402,0,2.7589874-1.281662,2.7590027-3.8450012v-7.1320038h4.4320068v14.6750031h-4.4320068v-1.5c-.8971558,1.2410431-2.3725586,1.9295654-3.8999939,1.8200073"/>
        <path id="Path_102" class="cls-2" d="M113.7909851,71.2709808c-2.3439636.1668243-4.6221313-.8190765-6.105011-2.6419983l2.9349976-2.6710052c.7192383,1.0255127,1.9198303,1.6034698,3.1700134,1.526001.9000244,0,1.3500061-.2740021,1.3500061-.8220062-.0014038-.2567596-.1342468-.4949036-.3519897-.6309967-.4487-.2472229-.9342346-.4207764-1.4379883-.5140076l-.9689941-.2350006c-1.2136841-.2324066-2.3200989-.8499603-3.1549988-1.7610016-.7171021-.8494263-1.0795288-1.9423981-1.0119934-3.052002.006073-1.2845764.6078491-2.4936371,1.6289978-3.272995,1.1514282-.865509,2.5667725-1.3060913,4.006012-1.246994,2.0238342-.1174469,3.9690552.7998199,5.1659851,2.4360046l-2.8760071,2.3769989c-.5408936-.7395172-1.402771-1.1758423-2.3190002-1.173996-.8000183,0-1.2000122.2543335-1.2000122.7630005,0,.4666595.4106445.8190002,1.2319946,1.0570068l1.3500061.352005c1.1985168.2603607,2.3071289.8322601,3.2139893,1.6580048.759552.8002167,1.1572266,1.8771973,1.1000061,2.9790039.0170593,1.3538208-.59552,2.6388092-1.6579895,3.4779968-1.1410522.9423676-2.5857544,1.4378052-4.0650024,1.3939972"/>
        <path id="Path_103" class="cls-2" d="M102.8730164,54.6359863c-.7287598.0066223-1.4285278-.2849274-1.9370117-.8070068-1.0769653-1.0544128-1.0952148-2.7822266-.0408325-3.8591766.0134888-.0137482.0270691-.027359.0408325-.0408173,1.0748291-1.0847626,2.8255005-1.0928192,3.9102478-.0179901,1.0847778,1.0748138,1.0928345,2.8255005.0180054,3.9102478-.5258789.5307312-1.2441406.8260651-1.9912415.8187408M100.6730042,56.2779846h4.4320068v14.6750031h-4.4320068v-14.6750031Z"/>
        <path id="Path_104" class="cls-1" d="M9.5669861,111.5949402v-3.6700134c0-1.0906677-.3573332-1.6359863-1.0720005-1.6359863-.384141-.0135803-.7508564.1606445-.9829998.4670105-.2728014.4101868-.4099169.8956909-.3920002,1.3880005v3.4500122h-1.8829999v-3.6700134c0-1.0906677-.3573332-1.6359863-1.072-1.6359863-.3948646-.0113525-.7695904.1741333-1,.4949951-.2760673.4335938-.4060788.9441833-.3709998,1.4570007v3.3540039H.9079859v-6.8750305h1.8830001v.7839966c.4040999-.6096802,1.0971508-.9641418,1.8280001-.9349976.8979917-.0378418,1.7335439.4584045,2.1300001,1.2650146.2012281-.394165.5175524-.717804.9069996-.928009.3717337-.2160339.7930746-.3321533,1.2230005-.3370056.7251148-.0405579,1.4276705.2593384,1.8999996.8110046.4804087.6391296.7188473,1.4277954.6730003,2.2260132v3.9859924l-1.8850002.0039978Z"/>
        <path id="Path_105" class="cls-1" d="M15.9720192,111.7459412c-.8868713.0116577-1.7317696-.3769836-2.2999992-1.0580139-1.2457199-1.4559021-1.2457199-3.6021118,0-5.0580139.5683174-.6809082,1.4131584-1.0695496,2.2999992-1.0580139.4106064-.0068054.8165665.0876465,1.1819992.2749939.3120003.1521912.5854988.3730469.7999992.6459961v-.769989h1.8829994v6.8720093h-1.8859978v-.769989c-.2145004.2729492-.487999.4938049-.7999992.6459961-.3654327.1873474-.7713928.2817993-1.1819992.2749939M15.1100197,109.5059204c.6918602.6944885,1.8157272.6966248,2.5102234.0047607.0015945-.0015869.0031891-.0031738.004776-.0047607.6323509-.7866821.6323509-1.9073181,0-2.6940002-.6918602-.6944885-1.8157272-.6966248-2.5102234-.0047607-.0015945.0015869-.0031891.0031738-.004776.0047607-.6319733.7868042-.6319733,1.907196,0,2.6940002"/>
        <path id="Path_106" class="cls-1" d="M26.344986,111.5950012l-2.7999992-3.1610107v3.1610107h-1.8839989v-10.3079834h1.8840027v5.9649963l2.2269974-2.5289917h2.2679977l-2.7220001,3.0889893,3.3529968,3.7799988-2.3259964.0029907Z"/>
        <path id="Path_107" class="cls-1" d="M32.0799866,111.7459412c-.9638977.0292664-1.8996811-.3270264-2.5999985-.9899902-.7006836-.6791687-1.0783005-1.6250305-1.038002-2.6000061-.0263672-.9602966.3470001-1.8884583,1.0309982-2.5629883.6841965-.6816406,1.6186066-1.0519409,2.5839996-1.0239868.8859024-.0245972,1.7472153.2930603,2.4049988.8869934.6742096.6490784,1.0304794,1.5607605.9749985,2.4949951.0043335.2156677-.0046844.431427-.0270004.6459961h-5.1399994c.0391693.4207153.2578278.8041077.5999985,1.052002.357933.2565002.7897873.3892212,1.2300034.3779907.7036819.0509338,1.3805695-.2796936,1.7730026-.8659973l1.4000015,1.0440063c-.7208099,1.034729-1.9294357,1.6181946-3.1880035,1.5390015M30.3349915,107.3189392h3.2160034c-.0606766-.3591919-.260437-.6800537-.5559998-.8930054-.2936172-.2024231-.6434555-.3073425-1-.2999878-.3741302-.003479-.7413712.1006775-1.0579987.2999878-.3170166.199707-.5349274.5240173-.5999985.8930054"/>
        <rect id="Rectangle_10" class="cls-1" x="36.8220215" y="101.2860107" width="1.883" height="10.309"/>
        <path id="Path_108" class="cls-1" d="M43.3069916,111.7459412c-.8868408.0115356-1.7316818-.3771057-2.3000031-1.0580139-1.2457199-1.4559021-1.2457199-3.6021118,0-5.0580139.5684052-.6807861,1.4131927-1.069397,2.3000031-1.0580139.4106064-.0068054.8165665.0876465,1.1819992.2749939.3118362.1524658.5852814.3732605.8000031.6459961v-.769989h1.8819962v6.8720093h-1.8820038v-.769989c-.214798.272644-.4882278.4934387-.8000031.6459961-.3654327.1873474-.7713928.2817993-1.1819992.2749939M42.4489822,109.5059204c.691864.6944885,1.8157272.6966248,2.5102234.0047607.0015945-.0015869.0031891-.0031738.004776-.0047607.6323547-.7866821.6323547-1.9073181,0-2.6940002-.691864-.6944885-1.8157272-.6966248-2.5102234-.0047607-.0015945.0015869-.0031891.0031738-.004776.0047607-.63311.7864075-.63311,1.9075928,0,2.6940002"/>
        <path id="Path_109" class="cls-1" d="M51.7900238,111.7459412c-.8868713.0116577-1.731781-.3769836-2.3000031-1.0580139-1.2457123-1.4559021-1.2457123-3.6021118,0-5.0580139.5683136-.6809082,1.4131622-1.0695496,2.3000031-1.0580139.410614-.0068054.8165741.0876465,1.1820068.2749939.3119965.1521912.5855103.3730469.8000031.6459961v-.769989h1.8829956v6.8720093h-1.8829956v-.769989c-.2144928.2729492-.4880066.4938049-.8000031.6459961-.3654327.1873474-.7713928.2817993-1.1820068.2749939M50.9310303,109.5059204c.691864.6944885,1.8157196.6966248,2.5102234.0047607.0016022-.0015869.0031891-.0031738.004776-.0047607.6323547-.7866821.6323547-1.9073181,0-2.6940002-.691864-.6944885-1.8157196-.6966248-2.5102234-.0047607-.0016022.0015869-.0031891.0031738-.004776.0047607-.6319733.7868042-.6319733,1.907196,0,2.6940002"/>
        <path id="Path_110" class="cls-1" d="M57.4800262,111.5950317v-6.8720093h1.8829956v1.1000061c.1226807-.3437195.3513336-.6395874.6529999-.8450012.3055878-.2212219.6737366-.3392944,1.0509949-.3370056.2135315-.003479.4264374.0241394.6320038.0820007v1.9110107c-.2740326-.0958252-.5617371-.1467896-.852005-.151001-.415863-.014801-.8147125.1657715-1.0780029.4880066-.2897339.384491-.433609.8593445-.4060059,1.3399963v3.2839966h-1.8829803Z"/>
        <path id="Path_111" class="cls-1" d="M65.0630035,111.7459412c-1.1106262.0911865-2.1869049-.4106445-2.8309937-1.3200073l1.2920074-1.1000061c.3255005.5308228.917511.838562,1.5390015.7999878.1862793.0058594.3709106-.036499.5359955-.1229858.139389-.0705872.2249146-.2158813.2189941-.3720093.0012665-.1442261-.067749-.2800293-.1849976-.3640137-.2264252-.1412354-.4753571-.2427063-.7359924-.2999878l-.5090027-.1239929c-.5529022-.1187439-1.0549469-.4071655-1.4360046-.8250122-.3242035-.3819275-.4892426-.8738098-.4609985-1.3739929.0023193-.5910034.2795258-1.1472778.75-1.5050049.5276947-.39505,1.1753387-.596344,1.8339996-.5700073.9396362-.0561523,1.8406982.3811035,2.378006,1.1539917l-1.2369995,1c-.2711639-.375061-.7051849-.5980225-1.1679993-.6000061-.1686707-.0036011-.335083.0393066-.4810028.1239929-.1279907.0666809-.2076263.1996765-.2059937.3439941-.0000153.2746582.2243347.4716492.6730042.5910034l.6470032.1929932c1.3280182.3573303,1.9919891,1.0673523,1.9920044,2.1300049.0131683.6216125-.260498,1.2146606-.7420044,1.6080017-.525177.4320679-1.1903839.6568909-1.8699951.6319885"/>
        <path id="Path_112" class="cls-2" d="M81.8099976,81.6450043c-.7903442.0054474-1.5710449-.173645-2.2799988-.522995v11.75c.2213593,1.1570435-.5371704,2.2744446-1.6942139,2.4958038-.2662048.0509338-.5396729.0506592-.8057861-.0008087-.5501862.0198669-1.0988159-.06987-1.6139984-.2640076v3.9329987c.8624573.2217865,1.7518921.3207703,2.6419983.2940063,1.5408936.0623627,3.0508575-.4445038,4.2420044-1.423996,1.1498108-1.0518646,1.7597351-2.5689545,1.6580048-4.1239929v-12.5620117c-.6807709.2870636-1.413208.431366-2.1519928.423996"/>
        <path id="Path_113" class="cls-2" d="M81.8229828,79.1259918c-.7287445.0066223-1.4285278-.2849274-1.9369965-.8070068-1.0769501-1.0544128-1.0952301-2.7822266-.0408173-3.8591766.0134583-.0137482.0270691-.027359.0408173-.0408173,1.0748138-1.0847626,2.8255005-1.0928192,3.9102631-.0179901,1.0847473,1.0748138,1.092804,2.8255005.0179901,3.9102478-.5258789.5307465-1.2441406.8260651-1.9912567.8187408"/>
        <path id="Path_114" class="cls-2" d="M70.6089783,13.0799999c-2.8673553-2.8830595-6.7864685-4.4720812-10.852005-4.3999996-2.2315826-.0242367-4.4416046.4385166-6.4759979,1.3559999V0h-8.8679962v21.1130009l8.8880005,2.2590008c.0261688-1.6870747.6734467-3.3052731,1.8179932-4.5450001,2.5540924-2.5617714,6.7013245-2.5679951,9.263092-.0139046.0046387.0046291.0092773.009264.0139008.0139046,1.1444702,1.2397785,1.7917328,2.8579445,1.8179932,4.5450001l8.6589966-2.2329998c-.5102386-3.0775032-2.0067139-5.9058628-4.2640076-8.059"/>
        <path id="Path_115" class="cls-1" d="M66.2140045,27.6280136c-.0261688,1.6870728-.6734467,3.3052673-1.8179932,4.5449982-2.5540924,2.5617676-6.7013245,2.5679932-9.263092.0139008-.0046387-.0046234-.0092773-.0092621-.0139008-.0139008-1.1445465-1.2397308-1.7918243-2.8579254-1.8179932-4.5449982l-8.6600037,2.2330017c.5109253,3.0772705,2.0073013,5.9054184,4.2640076,8.0589981,6.0421753,5.870636,15.6578217,5.870636,21.6999969,0,2.2575989-2.153038,3.754425-4.9813919,4.2649994-8.0589981l-8.6560211-2.2330017Z"/>
      </g>
    </g>
  </g>
</svg>