<?xml version="1.0" encoding="utf-8"?>
<!-- Generator: Adobe Illustrator 26.0.1, SVG Export Plug-In . SVG Version: 6.00 Build 0)  -->
<svg version="1.1" id="Laag_1" xmlns="http://www.w3.org/2000/svg" xmlns:xlink="http://www.w3.org/1999/xlink" x="0px" y="0px"
	 viewBox="0 0 612 612.5" style="enable-background:new 0 0 612 612.5;" xml:space="preserve">
<style type="text/css">
	.st0{fill:#009FE3;}
	.st1{fill:#FFFFFF;}
</style>
<rect x="1.7" class="st0" width="612" height="613.5"/>
<g>
	<g>
		<g>
			<g>
				<path class="st1" d="M14.3,370.6l-0.1-6.6h10.6l0.1,9.2c1.2-2.4,5.3-10.3,18.2-10.3c5.1,0,20.6,1.9,20.6,19.3v38.6H52.8v-36.1
					c0-3.7-0.4-7.1-3-9.7c-2.7-2.6-6.5-3.8-10.1-3.8c-7.7,0-14.8,5.5-14.8,17l0,32.7H14.3V370.6z"/>
				<path class="st1" d="M80,364h10.6v56.8H80V364z"/>
				<path class="st1" d="M112.8,394.3c-0.2,11.8,4.6,20.4,16.3,20.4c6.9,0,12.4-3.6,13.3-11.7H153c-0.3,2.8-0.8,7.5-4.9,11.9
					c-2.5,2.8-8.1,7.6-19.6,7.6c-17.8,0-26.3-11.1-26.3-29.1c0-11.2,2.3-20.5,11.2-26.7c5.4-3.8,12.2-4.2,15.5-4.2
					c25.4,0,24.9,22.5,24.6,31.8H112.8z M142.7,386.8c0.1-5.4-0.9-16.7-14-16.7c-6.9,0-15.3,4.2-15.5,16.7H142.7z"/>
				<path class="st1" d="M175.8,364l0,36.5c0,5.5,1.2,12.5,12.1,12.5c5.3,0,10.3-1.8,13.3-6.3c2.4-3.4,2.4-7.8,2.4-10.6V364h11v46.1
					c0,1.1,0.2,7.5,0.3,10.6h-11.1l-0.2-9.7c-2,3.9-5.9,10.3-18.1,10.3c-14,0-20.6-8-20.6-19.2V364H175.8z"/>
				<path class="st1" d="M235,364l13.7,45.2l14.4-45.2H277l12.9,44.8l14.2-44.8h11l-20,56.8h-12.2l-13.3-46.7l-14.8,46.7h-12.6
					L223.4,364H235z"/>
				<path class="st1" d="M333.7,372.3c1.5-2.6,5.6-9.7,18.5-9.7c5.7,0,12.8,1.4,18,7.2c2.8,3.3,6.7,8.9,6.7,21.4
					c0,11-2.6,16.9-5.4,20.7c-4.5,6.5-12.1,9.7-19.9,9.7c-2.7,0-7.8-0.3-12.7-3.6c-3.2-2.2-4.4-4.1-5.5-5.8l-0.2,8.6h-10.3l0.2-10.2
					v-66.1h10.6V372.3z M349.7,369.8c-16.3,0-16.3,19-16.3,22.6c0,3.7,0,21.5,15.8,21.5c13.1,0,16.4-12.8,16.4-22.1
					C365.6,386.2,364.5,369.8,349.7,369.8z"/>
				<path class="st1" d="M413.6,362.5c22.7,0,27.8,17.9,27.8,29.7c0,16.6-9.4,30.4-28.7,30.4c-18.8,0-27.9-13-27.9-29.6
					C384.8,379.1,391.3,362.5,413.6,362.5z M412.9,414.8c8,0,17.2-5.8,17.2-22.8c0-14.1-6.6-21.6-16.5-21.6c-6.8,0-17.8,4.3-17.8,22
					C395.9,404.1,400.8,414.8,412.9,414.8z"/>
				<path class="st1" d="M460.9,364l0,36.5c0,5.5,1.3,12.5,12.1,12.5c5.3,0,10.3-1.8,13.3-6.3c2.4-3.4,2.4-7.8,2.4-10.6V364h11v46.1
					c0,1.1,0.2,7.5,0.3,10.6h-11.1l-0.2-9.7c-2,3.9-5.9,10.3-18.1,10.3c-14,0-20.6-8-20.6-19.2V364H460.9z"/>
				<path class="st1" d="M520.2,364l13.7,45.2l14.4-45.2h13.9l12.9,44.8l14.2-44.8h11l-20,56.8H568l-13.4-46.7l-14.8,46.7h-12.5
					L508.5,364H520.2z"/>
			</g>
			<g>
				<path class="st1" d="M51.4,473.8c-0.2-2.6-1-11.9-11.3-11.9c-14.7,0-14.7,17.1-14.7,21.4c0,11.6,2.8,22.5,14.1,22.5
					c9.1,0,12.1-6.8,12.3-12.3h10.7c-0.7,11.1-8.9,20.4-22.9,20.4c-3.9,0-12.7-0.8-18.7-7.3c-3.4-4-6.8-10-6.8-21.7
					c0-23.6,14.5-30.6,25.8-30.6c3.7,0,12.2,0.8,17.4,7c4.2,4.9,4.5,9.5,4.8,12.7H51.4z"/>
				<path class="st1" d="M82.6,485.9c-0.2,11.8,4.6,20.5,16.3,20.5c6.9,0,12.4-3.6,13.3-11.8h10.6c-0.3,2.8-0.8,7.5-4.9,11.9
					c-2.5,2.8-8.1,7.6-19.6,7.6c-17.9,0-26.3-11.1-26.3-29.1c0-11.2,2.3-20.5,11.2-26.7c5.4-3.8,12.2-4.2,15.5-4.2
					c25.4,0,24.9,22.5,24.6,31.8H82.6z M112.5,478.4c0.1-5.4-0.9-16.7-14-16.7c-6.9,0-15.3,4.2-15.5,16.7H112.5z"/>
				<path class="st1" d="M136.2,462.2l-0.1-6.6h10.6l0.1,9.2c1.2-2.4,5.3-10.3,18.2-10.3c5.1,0,20.6,1.9,20.6,19.3v38.6h-10.9v-36.1
					c0-3.7-0.4-7.1-3-9.7c-2.7-2.6-6.4-3.8-10.1-3.8c-7.7,0-14.8,5.5-14.8,17v32.7h-10.6V462.2z"/>
				<path class="st1" d="M193.1,455.4l10.1,0v-9.2l10.5-3.4v12.6l12.7,0v7.8h-12.7v34c0,2.8,0,7.6,7.6,7.6c2.1,0,4.2-0.3,5.1-0.6
					v8.3c-1.9,0.3-5,0.7-8.8,0.7c-9.7,0-14.4-2.8-14.3-12.1v-37.9h-10.1V455.4z"/>
				<path class="st1" d="M236.9,467.1c0-3.8-0.2-7.8-0.6-11.5H247l0.2,11c2-7.9,8.8-10.5,13.6-11.2c3.1-0.5,5.5-0.4,7.3-0.2v10.4
					c-0.6-0.2-1.2-0.4-2.1-0.5c-0.8-0.1-1.8-0.1-3-0.1c-12.5,0-15.5,7.5-15.5,17.2v30.2h-10.7L236.9,467.1z"/>
				<path class="st1" d="M286.9,455.6v36.5c0,5.5,1.2,12.5,12.1,12.5c5.3,0,10.3-1.8,13.3-6.3c2.4-3.4,2.4-7.8,2.4-10.6v-32.1h11
					v46.1c0,1.1,0.2,7.5,0.3,10.6h-11.1l-0.2-9.7c-2,4-5.9,10.3-18.1,10.3c-14,0-20.6-8-20.6-19.2v-38.1H286.9z"/>
				<path class="st1" d="M343,463.2l-0.2-7.6l10.8,0v8.3c5.4-8.9,13.1-9.7,18-9.7c12.6,0,16.5,6.4,18.6,10.6
					c1.9-3.1,6.6-10.6,19.1-10.6c8.2,0,20.8,3.4,20.8,20.1v38.1h-10.7v-36.4c0-5-0.9-7.1-1.9-8.6c-1.8-2.6-5.4-5-10.9-5
					c-6.9,0-10.6,4-12.1,6c-2.5,3.5-2.5,9.7-2.5,12.2v31.8h-10.7v-37.5c0-7-4.1-12.4-12.4-12.4c-7.3,0-11.2,4.5-12.4,6.2
					c-2.4,3.3-2.5,7.9-2.5,11.5l0,32.2H343V463.2z"/>
			</g>
		</g>
		<g>
			<polygon class="st1" points="14.2,0 14.2,293 56,293 56,41.9 139.8,41.9 139.8,293 181.6,293 181.6,0 			"/>
			<polygon class="st1" points="265.3,251.2 265.3,167.5 390.9,167.5 390.9,125.6 223.5,125.6 223.5,293 390.9,293 390.9,251.2 			
				"/>
			<path class="st1" d="M432.8,0l0,293h41.8V167.5h83.7V293h41.9V0H432.8z M558.4,125.6h-83.7l0-83.7h83.7V125.6z"/>
		</g>
		<g>
			<g>
				<path class="st1" d="M250.6,597.2c-0.5-2-0.7-3.9-0.7-6c-3.6,6.6-9,7.2-12.3,7.2c-9.1,0-14.1-5.2-14.1-11.8
					c0-3.2,1.1-8.3,7-11.7c4.3-2.4,10.7-2.6,13.9-2.6c1.9,0,3.1,0.1,5.4,0.2c0-4.9,0-7.1-1.4-8.8c-1.5-2-4.8-2.6-6.9-2.6
					c-7.6,0-7.9,5.2-8,6.8h-7.5c0.2-2.1,0.5-4.9,2.8-7.6c3-3.3,8.7-4.3,12.9-4.3c5.8,0,12,1.8,14.2,5.9c1.3,2.4,1.4,4.3,1.4,6.1
					l-0.3,19.1c0,0.6,0.1,6,0.6,10H250.6z M245.4,577.5c-3,0-14.4,0-14.4,8.1c0,2.5,1.6,6.9,8.3,6.9c3.8,0,6.7-1.5,8.5-4.3
					c1.7-2.7,1.7-4.9,1.9-10.5C248.4,577.6,247.2,577.5,245.4,577.5z"/>
				<path class="st1" d="M270.6,563.8c0-1.7-0.1-2.7-0.2-6.5h7.5l0.2,6.6c3.7-6.3,10.3-7.2,13.6-7.2c8.6,0,16.8,5.9,16.8,20.7
					c0,14.9-8.7,21.4-18.2,21.4c-5.8,0-10.1-2.5-12.2-6v19.8h-7.4V563.8z M289,593.2c1.9,0,5.9-0.4,8.4-3.9
					c2.9-3.9,3.3-9.6,3.3-12.5c0-7.2-2.2-14.6-11-14.6c-11.9,0-11.9,12.6-11.9,16.2C277.8,583.2,278.5,593.2,289,593.2z"/>
				<path class="st1" d="M324.4,578.5c-0.2,8.3,3.3,14.4,11.4,14.4c4.9,0,8.7-2.6,9.4-8.3h7.5c-0.3,2-0.6,5.2-3.4,8.3
					c-1.7,2-5.7,5.3-13.7,5.3c-12.6,0-18.5-7.8-18.5-20.4c0-7.9,1.6-14.4,7.9-18.8c3.8-2.7,8.6-2.9,10.9-2.9
					c17.9,0,17.5,15.8,17.3,22.3H324.4z M345.4,573.3c0.1-3.8-0.6-11.8-9.9-11.8c-4.8,0-10.7,3-10.9,11.8H345.4z"/>
				<path class="st1" d="M364.6,543.6h7.5v53.6h-7.5V543.6z"/>
				<path class="st1" d="M414.6,543.6h7.5v47.2c0,0.9,0.2,4.3,0.3,6.4h-7.5l-0.2-6.4c-0.6,1.1-1.5,2.8-3.6,4.2
					c-3.3,2.2-7.2,2.9-9.9,2.9c-5.3,0-17.2-2.8-17.2-20.3c0-15.2,8.7-21.8,18.1-21.8c8.6,0,11.4,5.1,12.4,6.8V543.6z M411.8,565.5
					c-1.6-2.1-4.5-4.1-8.7-4.1c-11,0-11,13.3-11,16c0,7.1,1.8,15.3,11,15.3c11.8,0,11.8-12.9,11.8-16.1
					C414.9,570.8,413.5,567.7,411.8,565.5z"/>
				<path class="st1" d="M453.3,556.2c16,0,19.6,12.6,19.6,20.9c0,11.7-6.6,21.4-20.2,21.4c-13.2,0-19.6-9.2-19.6-20.8
					C433,567.8,437.6,556.2,453.3,556.2z M452.8,592.9c5.6,0,12.1-4.1,12.1-16.1c0-10-4.6-15.2-11.6-15.2c-4.8,0-12.5,3-12.5,15.5
					C440.8,585.4,444.3,592.9,452.8,592.9z"/>
				<path class="st1" d="M502.2,556.2c16,0,19.6,12.6,19.6,20.9c0,11.7-6.6,21.4-20.2,21.4c-13.2,0-19.7-9.2-19.6-20.8
					C482,567.8,486.6,556.2,502.2,556.2z M501.8,592.9c5.6,0,12.1-4.1,12.1-16.1c0-9.9-4.6-15.2-11.6-15.2c-4.8,0-12.5,3-12.5,15.5
					C489.8,585.4,493.3,592.9,501.8,592.9z"/>
				<path class="st1" d="M534.3,565.4c0-2.7-0.2-5.5-0.4-8.1h7.5l0.2,7.7c1.4-5.6,6.2-7.4,9.5-7.9c2.2-0.3,3.9-0.2,5.2-0.2v7.3
					c-0.4-0.2-0.9-0.2-1.4-0.3c-0.6-0.1-1.3-0.1-2.2-0.1c-8.8,0-10.9,5.2-10.9,12.1l0,21.2h-7.5V565.4z"/>
				<path class="st1" d="M565.5,561.8l-0.1-4.6h7.5l0.1,6.4c0.9-1.7,3.7-7.3,12.8-7.3c3.6,0,14.5,1.4,14.5,13.6l0,27.1h-7.6v-25.4
					c0-2.6-0.3-5-2.2-6.8c-1.9-1.8-4.5-2.7-7.1-2.7c-5.4,0-10.4,3.9-10.4,11.9v23h-7.5V561.8z"/>
			</g>
		</g>
	</g>
</g>
</svg>
