<svg xmlns="http://www.w3.org/2000/svg" xmlns:xlink="http://www.w3.org/1999/xlink" id="a" viewBox="0 0 164.73 138.56"><defs><style>.c{fill:none;}.d{fill:#e18170;stroke:#e18170;}.d,.e{stroke-miterlimit:3.86;stroke-width:.82px;}.e,.f,.g{fill:#fff;}.e,.h{stroke:#fff;}.i{fill:#d5423f;}.j{fill:#505458;}.h{fill:#00335e;stroke-miterlimit:3.86;stroke-width:.52px;}.g{fill-rule:evenodd;}.k{clip-path:url(#b);}</style><clipPath id="b"><polygon class="c" points="12.7 44.54 43.55 44.54 43.55 84.55 12.7 84.55 12.7 44.54 12.7 44.54"></polygon></clipPath></defs><polygon class="j" points="164.73 106.58 82.73 138.56 0 106.58 0 0 164.73 0 164.73 106.58"></polygon><line class="h" x1="48.63" y1="64.87" x2="148.05" y2="64.87"></line><polygon class="f" points="57.44 73.12 57.44 84.41 60.25 84.41 60.25 76 60.28 76 61.88 84.41 64.04 84.41 65.64 76 65.67 76 65.67 84.41 68.47 84.41 68.47 73.12 64.18 73.12 62.97 79.81 62.94 79.81 61.73 73.12 57.44 73.12 57.44 73.12"></polygon><path class="g" d="M73.54,75.43l-.82,4.79h1.68l-.82-4.79h-.03Zm1.9-2.31l2.81,11.29h-3.19l-.31-1.98h-2.39l-.31,1.98h-3.15l2.76-11.29h3.77Z"></path><polygon class="f" points="78.64 73.12 78.64 84.41 81.64 84.41 81.64 81.43 82.27 80.48 84.03 84.41 87.45 84.41 84.19 78.06 87.09 73.12 83.9 73.12 81.67 77.45 81.64 77.45 81.64 73.12 78.64 73.12 78.64 73.12"></polygon><polygon class="f" points="87.72 73.12 87.72 84.41 94.69 84.41 94.69 82.01 90.72 82.01 90.72 79.76 94.3 79.76 94.3 77.45 90.72 77.45 90.72 75.53 94.55 75.53 94.55 73.12 87.72 73.12 87.72 73.12"></polygon><polygon class="f" points="95.79 73.12 95.79 84.41 102.48 84.41 102.48 82.01 98.79 82.01 98.79 73.12 95.79 73.12 95.79 73.12"></polygon><path class="g" d="M107.5,75.43l-.82,4.79h1.68l-.82-4.79h-.03Zm1.9-2.31l2.81,11.29h-3.2l-.31-1.98h-2.39l-.31,1.98h-3.15l2.76-11.29h3.77Z"></path><path class="g" d="M117.28,75.43l-.82,4.79h1.68l-.82-4.79h-.03Zm1.9-2.31l2.81,11.29h-3.19l-.31-1.98h-2.39l-.31,1.98h-3.15l2.76-11.29h3.77Z"></path><path class="g" d="M125.49,77.9v-2.66h.58c.45,0,.77,.1,.97,.3,.2,.2,.31,.54,.31,1.01,0,.4-.1,.73-.31,.98-.2,.24-.52,.36-.95,.36h-.6Zm-3-4.78v11.29h3v-4.52h.79c.18,0,.33,.03,.45,.08,.13,.04,.23,.13,.31,.25,.09,.12,.14,.28,.18,.49,.03,.21,.05,.47,.05,.79v1.22c0,.18,.02,.37,.03,.57,.02,.2,.05,.4,.08,.6,.04,.2,.1,.37,.18,.52h3.19v-.16c-.1-.05-.17-.11-.21-.16-.04-.06-.09-.13-.13-.19-.03-.06-.06-.15-.08-.27-.02-.12-.04-.24-.05-.38-.01-.15-.02-.3-.02-.46v-1.42c0-.76-.13-1.36-.4-1.79-.27-.43-.76-.68-1.48-.74v-.03c.69-.11,1.19-.39,1.5-.86,.31-.46,.47-1.08,.47-1.83,0-.43-.06-.83-.18-1.2-.11-.37-.29-.69-.55-.95-.25-.27-.58-.48-.98-.63-.4-.15-.88-.22-1.45-.22h-4.69Z"></path><path class="f" d="M136.23,76.38h2.81c0-1.21-.3-2.09-.89-2.64-.58-.56-1.53-.84-2.84-.84s-2.22,.3-2.84,.9c-.62,.6-.94,1.48-.94,2.63,0,.66,.11,1.2,.34,1.61,.24,.41,.53,.74,.87,1,.35,.25,.74,.46,1.14,.62,.41,.16,.79,.32,1.13,.47,.35,.15,.65,.33,.87,.55,.24,.21,.35,.5,.35,.87,0,.31-.09,.56-.26,.78-.16,.21-.4,.32-.71,.32-.29,0-.53-.09-.71-.28-.18-.2-.27-.54-.27-1.03v-.27h-2.9v.4c0,.59,.09,1.09,.26,1.49,.17,.4,.42,.73,.74,.98,.33,.24,.74,.41,1.21,.51,.48,.1,1.04,.16,1.66,.16,1.32,0,2.33-.27,3.03-.81,.7-.55,1.05-1.42,1.05-2.63,0-.69-.12-1.24-.37-1.66-.24-.43-.54-.78-.9-1.04-.37-.26-.76-.47-1.18-.63-.42-.17-.81-.33-1.18-.49s-.67-.34-.92-.55c-.24-.22-.35-.52-.35-.89,0-.25,.08-.48,.23-.68,.15-.21,.39-.32,.71-.32,.29,0,.51,.12,.65,.36,.14,.23,.21,.52,.21,.85v.27h0Z"></path><polygon class="f" points="48.07 44.53 50.83 57.3 55.21 57.3 58.01 44.53 54.4 44.53 53.03 54.15 53 54.15 51.63 44.53 48.07 44.53 48.07 44.53"></polygon><path class="g" d="M62.81,47.14l-.93,5.42h1.9l-.93-5.42h-.04Zm2.15-2.61l3.17,12.77h-3.61l-.35-2.24h-2.7l-.35,2.24h-3.56l3.12-12.77h4.27Z"></path><polygon class="f" points="68.71 44.53 68.71 57.3 71.88 57.3 71.88 49.41 71.92 49.41 74.18 57.3 77.9 57.3 77.9 44.53 74.73 44.53 74.73 52.4 74.69 52.4 72.5 44.53 68.71 44.53 68.71 44.53"></polygon><path class="g" d="M84.25,44.53v12.77h4.93c.98,0,1.75-.17,2.3-.52,.55-.36,.95-.83,1.22-1.41,.28-.6,.45-1.28,.51-2.04,.06-.78,.09-1.58,.09-2.42s-.03-1.63-.09-2.4c-.06-.78-.23-1.46-.51-2.04-.27-.6-.68-1.07-1.22-1.41-.55-.36-1.32-.54-2.3-.54h-4.93Zm3.39,10.37v-7.98h.68c.33,0,.59,.05,.78,.14,.19,.08,.34,.27,.44,.56,.11,.29,.18,.69,.2,1.22,.04,.52,.06,1.22,.06,2.08s-.02,1.55-.06,2.07c-.02,.53-.09,.93-.2,1.22-.1,.29-.24,.48-.44,.57-.19,.08-.46,.13-.78,.13h-.68Z"></path><polygon class="f" points="94.72 44.53 94.72 57.3 102.61 57.3 102.61 54.58 98.12 54.58 98.12 52.04 102.17 52.04 102.17 49.43 98.12 49.43 98.12 47.25 102.44 47.25 102.44 44.53 94.72 44.53 94.72 44.53"></polygon><polygon class="f" points="108.59 44.53 108.59 57.3 116.16 57.3 116.16 54.58 111.99 54.58 111.99 44.53 108.59 44.53 108.59 44.53"></polygon><path class="g" d="M121.65,47.14l-.93,5.42h1.9l-.93-5.42h-.04Zm2.15-2.61l3.17,12.77h-3.61l-.35-2.24h-2.7l-.35,2.24h-3.56l3.12-12.77h4.27Z"></path><path class="g" d="M132.71,47.14l-.93,5.42h1.9l-.93-5.42h-.04Zm2.15-2.61l3.18,12.77h-3.61l-.35-2.24h-2.7l-.35,2.24h-3.56l3.12-12.77h4.27Z"></path><path class="g" d="M142,49.93v-3.01h.66c.51,0,.88,.11,1.09,.34,.23,.23,.35,.61,.35,1.14,0,.45-.12,.82-.35,1.11-.23,.27-.59,.41-1.08,.41h-.68Zm-3.39-5.4v12.77h3.39v-5.12h.89c.21,0,.38,.03,.51,.09,.15,.05,.26,.14,.35,.29,.1,.13,.16,.32,.2,.55,.04,.24,.06,.54,.06,.89v1.38c.01,.2,.02,.42,.04,.64,.02,.23,.06,.45,.09,.68,.05,.23,.12,.42,.2,.59h3.61v-.18c-.11-.06-.19-.12-.24-.18-.05-.07-.1-.14-.14-.21-.04-.07-.07-.17-.09-.3-.03-.13-.04-.27-.06-.43-.01-.17-.02-.34-.02-.52v-1.61c0-.86-.15-1.53-.46-2.02-.3-.49-.86-.77-1.68-.84v-.04c.78-.12,1.34-.44,1.7-.97,.35-.52,.53-1.22,.53-2.08,0-.49-.07-.94-.2-1.36-.12-.42-.33-.77-.62-1.07-.28-.31-.65-.55-1.11-.72-.45-.17-1-.25-1.64-.25h-5.31Z"></path><polygon class="i" points="12.7 44.54 43.55 44.54 43.55 84.55 12.7 84.55 12.7 44.54 12.7 44.54"></polygon><g class="k"><path class="d" d="M32.73,44.1s-35.22,49.55,1.88,35.19c0,0,15.62-7.28,18.84-8.78v-.92s-28.21,14-30.7,2.56c0,0-1.11-4.01,2.79-12.24l7.19-15.81h0Z"></path><path class="e" d="M29.07,43.82s-35.22,49.55,1.88,35.19c0,0,15.62-7.28,18.84-8.78v-.92s-28.21,14-30.7,2.56c0,0-1.11-4.01,2.79-12.24l7.19-15.81h0Z"></path></g><path class="g" d="M151.13,45.92h.43v-1.18h.46l.78,1.18h.43l-.81-1.22c.43-.05,.76-.28,.76-.78,0-.56-.34-.83-.96-.83h-1.09v2.83h0Zm.43-1.58v-.86h.59c.3,0,.61,.05,.61,.42,0,.42-.35,.44-.74,.44h-.46Zm-1.88,.15c0,1.33,1.08,2.42,2.42,2.42s2.41-1.08,2.41-2.42-1.08-2.42-2.41-2.42-2.42,1.08-2.42,2.42h0Zm2.42,2.03c-1.1,0-1.99-.91-1.99-2.03s.88-2.03,1.99-2.03,1.98,.9,1.98,2.03-.88,2.03-1.98,2.03h0Z"></path></svg>