<?xml version="1.0" encoding="UTF-8"?><svg id="Laag_1" xmlns="http://www.w3.org/2000/svg" viewBox="0 0 198.39 58.69"><defs><style>.cls-1{stroke:#00b1eb;stroke-miterlimit:10;stroke-width:.5px;}.cls-1,.cls-2{fill:#00b1eb;}.cls-3{fill:#003360;}</style></defs><path class="cls-3" d="M24.33,28.78c0,3.67-1.27,6.69-3.8,9.07-2.54,2.38-5.77,3.57-9.71,3.57-4.6,0-8.11-.8-10.53-2.4l2.16-6.61c1.83,1.25,4,1.87,6.49,1.87,1.64,0,2.94-.44,3.92-1.32.97-.88,1.46-2.04,1.46-3.48,0-1.29-.42-2.37-1.26-3.25-.84-.88-2.29-1.78-4.36-2.72C3.36,21.14.69,17.43.69,12.4c0-3.51,1.17-6.45,3.51-8.83C6.54,1.19,9.62,0,13.45,0s7.08.78,9.42,2.34l-1.99,5.79c-1.87-1.17-3.88-1.75-6.03-1.75-3.24,0-4.86,1.54-4.86,4.62,0,1.37.49,2.52,1.46,3.45.78.78,2.11,1.6,3.98,2.46,3.55,1.6,6.01,3.51,7.37,5.73,1.01,1.64,1.52,3.69,1.52,6.14Z"/><path class="cls-3" d="M51.47,39.02c-2.07,1.6-5.01,2.4-8.83,2.4-5.15,0-9.15-2.09-11.99-6.26-2.57-3.78-3.86-8.6-3.86-14.45s1.31-10.57,3.92-14.39c2.89-4.21,6.88-6.32,11.99-6.32,3.7,0,6.61.78,8.72,2.34l-1.93,5.73c-1.29-.82-2.87-1.23-4.74-1.23-2.85,0-4.99,1.44-6.44,4.33-1.17,2.38-1.76,5.54-1.76,9.48s.62,6.88,1.87,9.3c1.44,2.81,3.53,4.21,6.26,4.21,1.68,0,3.22-.41,4.62-1.23l2.16,6.08Z"/><path class="cls-3" d="M83.48,40.84h-9.54v-17.43h-10.18v17.43h-9.54V.58h9.54v16.62h10.18V.58h9.54v40.25Z"/><path class="cls-3" d="M152.16,40.84h-10.71l-10-19.95v19.95h-9.42V.58h9.42v18.14L141.63.58h9.77l-11.41,18.49,12.17,21.76Z"/><path class="cls-3" d="M174.57,40.84h-20.59V.58h20.59v6.38h-11.06v10.24h9.65v6.2h-9.65v11.06h11.06v6.38Z"/><path class="cls-3" d="M198.14,40.84h-19.72V.58h9.48v33.87h10.24v6.38Z"/><polygon class="cls-3" points="107.39 .58 98.14 .58 93.03 16.3 112.48 16.3 107.39 .58"/><polygon class="cls-3" points="114.54 22.65 90.96 22.65 85.04 40.84 93.52 40.84 96.1 32.24 108.21 32.24 110.66 40.84 120.43 40.84 114.54 22.65"/><rect class="cls-2" x="100.53" y="11.02" width="4.41" height="16.9" rx="2.18" ry="2.18"/><path class="cls-1" d="M9.32,58.27l-.95-8.66c-.02-.16-.03-.31-.04-.45,0-.14-.01-.27-.02-.38-.01-.12-.02-.24-.02-.36h-.03c-.02.12-.05.24-.08.36-.02.11-.05.24-.08.38-.04.14-.08.29-.13.45l-2.41,8.66h-.77l-2.39-8.66c-.05-.15-.09-.3-.12-.44-.03-.14-.06-.27-.08-.38l-.08-.38h-.03c-.01.12-.02.24-.03.36-.01.11-.02.24-.02.38,0,.14-.02.29-.04.44l-.96,8.68H.28l1.3-10.36h1.01l2.32,8.34c.05.17.09.33.13.47.03.14.06.27.08.38.03.12.05.23.06.33h.03c0-.1.03-.21.06-.33.02-.11.05-.24.08-.38.03-.14.07-.3.12-.47l2.35-8.34h1.01l1.31,10.36h-.81Z"/><path class="cls-1" d="M20.62,58.27l-1.14-3.54h-3.8l-1.17,3.54h-.81l3.58-10.36h.68l3.55,10.36h-.89ZM17.93,49.99c-.07-.21-.13-.39-.17-.55-.04-.16-.07-.29-.09-.4-.03-.12-.05-.23-.06-.32h-.03c-.01.08-.04.18-.08.3-.03.11-.07.24-.11.4-.05.16-.1.34-.17.55l-1.37,4.2h3.43l-1.36-4.19Z"/><path class="cls-1" d="M30.09,58.27l-3.78-5.47h-.03v5.47h-.81v-10.36h.81v4.86h.03l3.71-4.86h.92l-3.86,4.85,4.01,5.51h-.99Z"/><path class="cls-1" d="M34.94,58.27v-10.36h4.56v.6h-3.71v4.07h3.36v.6h-3.36v4.49h3.71v.6h-4.56Z"/><path class="cls-1" d="M43.78,58.27v-10.36h.86v9.76h3.36v.6h-4.22Z"/><path class="cls-1" d="M58.07,58.27l-1.14-3.54h-3.8l-1.17,3.54h-.81l3.58-10.36h.68l3.55,10.36h-.89ZM55.39,49.99c-.07-.21-.13-.39-.17-.55-.04-.16-.07-.29-.09-.4-.03-.12-.05-.23-.06-.32h-.03c-.01.08-.04.18-.08.3-.03.11-.07.24-.11.4-.05.16-.1.34-.17.55l-1.37,4.2h3.43l-1.36-4.19Z"/><path class="cls-1" d="M68.93,58.27l-1.14-3.54h-3.8l-1.18,3.54h-.81l3.58-10.36h.68l3.55,10.36h-.89ZM66.25,49.99c-.07-.21-.13-.39-.17-.55-.04-.16-.07-.29-.09-.4-.03-.12-.05-.23-.06-.32h-.03c-.01.08-.04.18-.08.3-.03.11-.07.24-.11.4-.05.16-.1.34-.17.55l-1.37,4.2h3.43l-1.36-4.19Z"/><path class="cls-1" d="M78.53,58.27l-3.89-4.97h-.05v4.97h-.83v-9.97c.21-.14.52-.27.92-.38.4-.11.86-.17,1.39-.17,1.06,0,1.88.26,2.43.78.56.52.84,1.26.84,2.21s-.31,1.73-.94,2.24c-.63.51-1.49.74-2.58.7v.03l3.72,4.55h-1.01ZM78.5,50.77c0-.85-.21-1.48-.63-1.88-.42-.4-1.04-.6-1.86-.6-.6,0-1.07.09-1.42.27v4.59c.1.03.25.06.45.08.2.03.41.04.62.04.96,0,1.68-.21,2.14-.64.46-.43.69-1.05.69-1.86Z"/><path class="cls-1" d="M88.48,55.44c0,.44-.08.85-.23,1.21-.15.37-.36.68-.62.94s-.57.46-.94.61c-.37.15-.76.22-1.18.22-.56,0-1.01-.05-1.36-.15-.34-.1-.64-.24-.9-.41l.27-.6c.21.14.46.26.75.35s.66.14,1.11.14c.68,0,1.22-.21,1.63-.63s.6-.97.6-1.66c0-.53-.15-.97-.46-1.3-.31-.34-.82-.64-1.54-.91-.44-.16-.81-.35-1.1-.56-.29-.22-.52-.44-.69-.68-.17-.24-.29-.48-.36-.74-.07-.26-.11-.51-.11-.76,0-.37.06-.72.19-1.05.13-.33.31-.62.55-.87s.53-.45.87-.6c.34-.15.72-.23,1.14-.23s.82.05,1.15.16.61.23.82.38l-.24.56c-.18-.12-.42-.23-.71-.34-.29-.11-.62-.16-.98-.16-.63,0-1.11.2-1.45.59s-.5.91-.5,1.55c0,.3.05.56.16.79.11.23.25.42.42.58.18.16.38.3.6.41s.46.22.7.31c.52.19.94.41,1.25.65.31.24.55.49.72.75.17.26.28.51.34.76s.08.48.08.69Z"/><path class="cls-1" d="M106.84,51.28c-.2.1-.46.21-.78.32s-.62.21-.91.29v5.96c-.23.17-.57.31-1.01.41-.44.11-.94.16-1.49.16s-1.05-.07-1.5-.2c-.45-.14-.83-.33-1.14-.59s-.56-.56-.74-.93c-.18-.36-.26-.77-.26-1.22,0-.74.25-1.39.75-1.94.5-.55,1.21-.95,2.14-1.2v-.03c-.69-.16-1.24-.44-1.63-.84-.4-.4-.59-.9-.59-1.5,0-.31.06-.6.18-.87.12-.27.29-.51.52-.71.23-.2.5-.36.83-.47.33-.12.7-.17,1.11-.17.38,0,.74.05,1.08.16s.61.22.81.35l-.23.48c-.17-.11-.39-.21-.67-.3-.28-.09-.57-.14-.88-.14-.68,0-1.17.15-1.48.46-.3.31-.45.72-.45,1.23,0,.29.06.55.17.79.12.24.27.43.47.59.2.16.43.28.69.37.26.09.54.13.84.13.35,0,.71-.04,1.07-.11.36-.07.71-.16,1.05-.27.34-.11.66-.24.97-.38.31-.14.59-.28.84-.42l.23.57ZM104.34,52.11c-.77.19-1.44.38-2,.58-.56.2-1.02.42-1.38.68-.36.26-.63.55-.8.89-.17.34-.26.74-.26,1.2,0,.73.23,1.32.7,1.75.47.44,1.15.66,2.06.66.38,0,.71-.02.98-.07.27-.05.51-.11.71-.2v-5.48Z"/><path class="cls-1" d="M123.27,58.27l-1.14-3.54h-3.8l-1.18,3.54h-.81l3.58-10.36h.68l3.55,10.36h-.89ZM120.59,49.99c-.07-.21-.13-.39-.17-.55-.04-.16-.07-.29-.09-.4-.03-.12-.05-.23-.06-.32h-.03c-.01.08-.04.18-.08.3-.03.11-.07.24-.11.4-.05.16-.1.34-.17.55l-1.37,4.2h3.43l-1.36-4.19Z"/><path class="cls-1" d="M134.71,52.95c0,.83-.09,1.59-.26,2.26-.17.67-.42,1.25-.76,1.72-.34.47-.76.84-1.27,1.1-.51.26-1.11.39-1.79.39-.57,0-1.08-.05-1.54-.16-.45-.11-.79-.23-1.02-.38v-9.56c.26-.16.61-.29,1.05-.4.44-.11.93-.16,1.48-.16,1.31,0,2.32.45,3.03,1.36s1.08,2.18,1.08,3.84ZM133.8,52.95c0-1.51-.27-2.67-.82-3.47-.55-.8-1.38-1.2-2.51-1.2-.62,0-1.14.08-1.55.24v9.04c.17.08.4.14.68.19.28.05.58.07.9.07.6,0,1.11-.11,1.53-.33.42-.22.76-.54,1.02-.96.26-.42.45-.93.57-1.53.12-.6.18-1.28.18-2.04Z"/><path class="cls-1" d="M141.97,58.27h-.74l-3.04-10.36h.92l2.14,7.92c.05.17.1.34.14.5.04.17.08.32.11.46.04.16.08.31.11.45h.03c.03-.14.07-.29.11-.45.03-.14.07-.29.11-.45.05-.16.09-.33.14-.5l2.15-7.94h.81l-2.98,10.36Z"/><path class="cls-1" d="M148.95,58.27v-10.36h.86v10.36h-.86Z"/><path class="cls-1" d="M159.35,55.44c0,.44-.08.85-.23,1.21-.15.37-.36.68-.62.94s-.57.46-.94.61c-.37.15-.76.22-1.18.22-.56,0-1.01-.05-1.36-.15-.34-.1-.64-.24-.9-.41l.27-.6c.21.14.46.26.75.35s.66.14,1.11.14c.68,0,1.22-.21,1.63-.63s.6-.97.6-1.66c0-.53-.15-.97-.46-1.3-.31-.34-.82-.64-1.54-.91-.44-.16-.81-.35-1.1-.56-.29-.22-.52-.44-.69-.68-.17-.24-.29-.48-.36-.74-.07-.26-.11-.51-.11-.76,0-.37.06-.72.19-1.05.13-.33.31-.62.55-.87s.53-.45.87-.6c.34-.15.72-.23,1.14-.23s.82.05,1.15.16.61.23.82.38l-.24.56c-.18-.12-.42-.23-.71-.34-.29-.11-.62-.16-.98-.16-.63,0-1.11.2-1.45.59s-.5.91-.5,1.55c0,.3.05.56.16.79.11.23.25.42.42.58.18.16.38.3.6.41s.46.22.7.31c.52.19.94.41,1.25.65.31.24.55.49.72.75.17.26.28.51.34.76s.08.48.08.69Z"/><path class="cls-1" d="M163.76,58.27v-10.36h4.56v.6h-3.71v4.07h3.36v.6h-3.36v4.49h3.71v.6h-4.56Z"/><path class="cls-1" d="M178.62,55.36c0,.41-.07.8-.2,1.17-.14.37-.33.7-.59.98-.26.28-.57.5-.96.67-.38.17-.81.25-1.3.25s-.91-.08-1.3-.25c-.38-.17-.7-.39-.96-.67-.26-.28-.45-.61-.59-.98-.14-.37-.2-.76-.2-1.17v-7.46h.86v7.46c0,.37.06.71.18,1,.12.3.28.54.49.75.21.2.44.36.72.47s.55.17.84.17.57-.06.84-.17.51-.27.72-.47c.21-.2.37-.45.49-.75.12-.3.18-.63.18-1v-7.46h.77v7.46Z"/><path class="cls-1" d="M188.19,58.27l-3.89-4.97h-.05v4.97h-.83v-9.97c.21-.14.52-.27.92-.38.4-.11.86-.17,1.39-.17,1.06,0,1.88.26,2.43.78.56.52.84,1.26.84,2.21s-.31,1.73-.94,2.24c-.63.51-1.49.74-2.58.7v.03l3.72,4.55h-1.01ZM188.16,50.77c0-.85-.21-1.48-.63-1.88-.42-.4-1.04-.6-1.86-.6-.6,0-1.07.09-1.42.27v4.59c.1.03.25.06.45.08.2.03.41.04.62.04.96,0,1.68-.21,2.14-.64.46-.43.69-1.05.69-1.86Z"/><path class="cls-1" d="M198.14,55.44c0,.44-.08.85-.23,1.21-.15.37-.36.68-.62.94s-.57.46-.94.61c-.37.15-.76.22-1.18.22-.56,0-1.01-.05-1.36-.15-.34-.1-.64-.24-.9-.41l.27-.6c.21.14.46.26.75.35s.66.14,1.11.14c.68,0,1.22-.21,1.63-.63s.6-.97.6-1.66c0-.53-.15-.97-.46-1.3-.31-.34-.82-.64-1.54-.91-.44-.16-.81-.35-1.1-.56-.29-.22-.52-.44-.69-.68-.17-.24-.29-.48-.36-.74-.07-.26-.11-.51-.11-.76,0-.37.06-.72.19-1.05.13-.33.31-.62.55-.87s.53-.45.87-.6c.34-.15.72-.23,1.14-.23s.82.05,1.15.16.61.23.82.38l-.24.56c-.18-.12-.42-.23-.71-.34-.29-.11-.62-.16-.98-.16-.63,0-1.11.2-1.45.59s-.5.91-.5,1.55c0,.3.05.56.16.79.11.23.25.42.42.58.18.16.38.3.6.41s.46.22.7.31c.52.19.94.41,1.25.65.31.24.55.49.72.75.17.26.28.51.34.76s.08.48.08.69Z"/></svg>