<svg xmlns="http://www.w3.org/2000/svg" xmlns:xlink="http://www.w3.org/1999/xlink" xmlns:serif="http://www.serif.com/" width="100%" height="100%" viewBox="0 0 890 461" xml:space="preserve" style="fill-rule:evenodd;clip-rule:evenodd;stroke-linejoin:round;stroke-miterlimit:2;">    <g transform="matrix(1,0,0,1,-1554.52,-2019.72)">        <g transform="matrix(4.16667,0,0,4.16667,0,0)">            <g transform="matrix(1,0,0,1,400.255,514.031)">                <path d="M0,15.982L-10.016,26.423L-10.016,45.281L-27.169,45.281L-27.169,-29.299L-10.016,-29.299L-10.016,5.54L23.013,-29.299L42.192,-29.299L11.293,3.942L44.002,45.281L23.866,45.281L0,15.982Z" style="fill:white;fill-rule:nonzero;"></path>            </g>        </g>        <g transform="matrix(4.16667,0,0,4.16667,0,0)">            <g transform="matrix(1,0,0,1,503.6,559.312)">                <path d="M0,-57.321L-24.186,0L-41.339,0L-65.418,-57.321L-48.265,-57.321L-32.389,-18.326L-15.982,-57.321L0,-57.321Z" style="fill:white;fill-rule:nonzero;"></path>            </g>        </g>        <g transform="matrix(4.16667,0,0,4.16667,0,0)">            <g transform="matrix(1,0,0,1,544.617,498.902)">                <path d="M0,46.24C14.809,46.24 24.505,37.397 24.505,23.12C24.505,8.843 14.809,-0 0,-0L-15.768,-0L-15.768,46.24L0,46.24ZM-33.029,-14.17L0.853,-14.17C25.251,-14.17 41.978,0.533 41.978,23.12C41.978,45.707 25.251,60.41 0.853,60.41L-33.029,60.41L-33.029,-14.17Z" style="fill:white;fill-rule:nonzero;"></path>            </g>        </g>        <g transform="matrix(4.16667,0,0,4.16667,0,0)">            <g transform="matrix(-1,0,0,1,959.68,94.259)">                <rect x="373.085" y="484.732" width="213.51" height="16.277" style="fill:white;"></rect>            </g>        </g>    </g></svg>