<svg id="Group_243" data-name="Group 243" xmlns="http://www.w3.org/2000/svg" xmlns:xlink="http://www.w3.org/1999/xlink" width="139.717" height="66.117" viewBox="0 0 139.717 66.117">
  <defs>
    <clipPath id="clip-path">
      <rect id="Rectangle_322" data-name="Rectangle 322" width="139.717" height="66.117" fill="#1a2638"/>
    </clipPath>
  </defs>
  <g id="Group_241" data-name="Group 241">
    <path id="Path_96" data-name="Path 96" d="M2.176,75.285c.484-.069.553-.173.553-.691V55.906c0-.518-.069-.621-.553-.69L0,54.974V52.729H10.674c8.67,0,12.4,4.663,12.4,12.124,0,7.669-4.042,12.884-12.988,12.884H0V75.527ZM18.929,65.233c0-7.15-3.04-9.5-8.877-9.5H6.77v19H9.845c6.39,0,9.084-3.661,9.084-9.5" transform="translate(0 -29.963)" fill="#1a2638"/>
    <path id="Path_97" data-name="Path 97" d="M77.066,55.18l-2.176-.242V52.728h9.223v2.211l-2.314.276c-.518.069-.553.138-.553.656V69.135c0,6.218-3.489,9.016-9.465,9.016-6.6,0-9.292-3.04-9.292-9.119V55.871c0-.518-.069-.622-.552-.691l-2.176-.242V52.728H69.4v2.211l-2.314.276c-.518.069-.553.138-.553.656V68.445c0,4.387,1.52,6.356,5.458,6.356,3.9,0,5.63-1.623,5.63-6.252V55.871c0-.518-.069-.622-.552-.691" transform="translate(-33.958 -29.962)" fill="#1a2638"/>
    <path id="Path_98" data-name="Path 98" d="M125.615,75.284c.484-.069.553-.173.553-.691V55.906c0-.518-.069-.622-.553-.691l-2.176-.242V52.728h11.088c6.39,0,8.325,3.385,8.325,7.358,0,5.975-3.627,8.29-9.465,8.29h-3.212v6.183c0,.553.035.657.553.691l4.939.276v2.211H123.439V75.526Zm13.056-14.992c0-3.523-2-4.559-5.388-4.559h-3.109v9.672H132.9c3.005,0,5.768-.657,5.768-5.113" transform="translate(-70.143 -29.962)" fill="#1a2638"/>
    <path id="Path_99" data-name="Path 99" d="M190.162,75.25l-2.591-6.529a1.971,1.971,0,0,0-2.142-1.485h-2.936v7.323c0,.553.035.622.553.691l2.211.276v2.211h-9.5V75.527l2.176-.242c.484-.069.553-.173.553-.691V55.906c0-.518-.069-.621-.553-.69l-2.176-.242V52.729h11.053c6.218,0,7.876,3.385,7.876,6.839a6.644,6.644,0,0,1-4.663,6.666c1.07.518,1.416,1.347,2.072,3.005l2.072,5.285c.208.518.519.588,1.037.657l2.107.345v2.211h-9.43V75.561Zm.346-15.509c0-3.178-1.934-4.007-5.7-4.007h-2.314V64.3h2.556c2.936,0,5.458-.794,5.458-4.559" transform="translate(-99.872 -29.963)" fill="#1a2638"/>
    <path id="Path_100" data-name="Path 100" d="M232.252,75.285c.484-.069.553-.173.553-.691V55.906c0-.518-.069-.621-.553-.69l-2.176-.242V52.729h17.755v6.217l-2.936-.138-.483-2.66c-.069-.345-.207-.449-.587-.449h-6.977v7.944h8.773v3.005h-8.773V74.8h7.737c.379,0,.484-.035.553-.38l.553-3.04h2.9v6.356H230.076V75.527Z" transform="translate(-130.738 -29.963)" fill="#1a2638"/>
    <path id="Path_101" data-name="Path 101" d="M282.892,75.285c.483-.069.553-.173.553-.691V55.906c0-.518-.069-.621-.553-.69l-2.176-.242V52.729h17.755v6.217l-2.936-.138-.483-2.66c-.069-.345-.207-.449-.587-.449h-6.977v7.944h8.773v3.005h-8.773V74.8h7.737c.38,0,.484-.035.553-.38l.553-3.04h2.9v6.356H280.716V75.527Z" transform="translate(-159.513 -29.963)" fill="#1a2638"/>
    <path id="Path_102" data-name="Path 102" d="M85.214,140.708c.228-.032.26-.065.26-.309v-3.9c0-1.609-.293-2.438-1.56-2.438a4.445,4.445,0,0,0-2.487.959,6.887,6.887,0,0,1,.065,1.056v4.307c0,.26.016.293.26.325l.845.114v.715h-3.25v-.731l.8-.1c.227-.032.259-.065.259-.309v-3.982c0-1.609-.195-2.357-1.4-2.357a4.247,4.247,0,0,0-2.714,1.219v5.1c0,.26.016.293.26.325l.975.114v.715H74.1v-.731l.845-.1c.227-.032.26-.081.26-.325v-5.818c0-.179-.049-.292-.212-.342l-.942-.308.13-.683h1.837l.13,1.007.049.016a4.942,4.942,0,0,1,3.056-1.186,1.853,1.853,0,0,1,1.934,1.057,5.084,5.084,0,0,1,2.974-1.057c1.9,0,2.405,1.2,2.405,3.088v4.226c0,.26.016.293.26.325l.975.114v.715H84.369v-.731Z" transform="translate(-42.077 -75.615)" fill="#1a2638"/>
    <path id="Path_103" data-name="Path 103" d="M114.205,140.431a4.233,4.233,0,0,1-3.007,1.3,1.98,1.98,0,0,1-2.259-2.162c0-1.626,1.008-2.308,2.926-2.487l2.324-.211v-.911c0-1.365-.276-1.966-1.853-1.966-1.088,0-1.917,0-1.934,1.316l-1.04-.13c0-1.918,1.788-2.113,2.991-2.113,2.227,0,2.925.65,2.925,2.86v4.454c0,.26.016.292.26.325l.845.114v.715H114.4l-.146-1.089Zm-4.129-.992c0,.975.488,1.382,1.333,1.382a3.712,3.712,0,0,0,2.779-1.528v-1.56l-2.129.2c-1.56.146-1.983.6-1.983,1.511" transform="translate(-61.903 -75.614)" fill="#1a2638"/>
    <path id="Path_104" data-name="Path 104" d="M134.667,135.67l-2.308-3.608-1.56,1.755v1.56c0,.26.016.293.26.325l1.056.114v.715h-3.754V135.8l1.089-.1c.227-.016.26-.081.26-.325v-9.784c0-.179-.049-.293-.212-.342l-.991-.309.13-.683H130.8v8.175l3.641-4.209h1.625v.715l-.959.211a.632.632,0,0,0-.407.244l-1.609,1.82,2.633,4.177c.13.2.179.212.471.26l.877.163v.715h-3.413V135.8Z" transform="translate(-72.939 -70.609)" fill="#1a2638"/>
    <path id="Path_105" data-name="Path 105" d="M153.64,141.731c-2.877,0-3.787-1.935-3.787-4.388,0-2.91,1.592-4.275,3.575-4.275,1.917,0,3.267,1.057,3.267,3.836,0,.228-.016.455-.032.7H150.99c.049,1.853.764,3.137,2.731,3.137a4.145,4.145,0,0,0,2.307-.6l.407.911a5.514,5.514,0,0,1-2.8.683m-.2-7.7c-1.235,0-2.275.683-2.421,2.7h4.551c-.033-2.015-.991-2.7-2.129-2.7" transform="translate(-85.152 -75.614)" fill="#1a2638"/>
    <path id="Path_106" data-name="Path 106" d="M169.535,135.7c.227-.016.26-.081.26-.325v-9.784c0-.179-.049-.293-.212-.342l-.991-.309.13-.683h2.162v11.117c0,.26.016.293.26.325l1.056.114v.715h-3.754V135.8Z" transform="translate(-95.717 -70.609)" fill="#1a2638"/>
    <path id="Path_107" data-name="Path 107" d="M185.266,140.431a4.233,4.233,0,0,1-3.007,1.3A1.98,1.98,0,0,1,180,139.57c0-1.626,1.008-2.308,2.926-2.487l2.324-.211v-.911c0-1.365-.276-1.966-1.853-1.966-1.088,0-1.917,0-1.934,1.316l-1.04-.13c0-1.918,1.788-2.113,2.991-2.113,2.227,0,2.925.65,2.925,2.86v4.454c0,.26.016.292.26.325l.845.114v.715h-1.982l-.146-1.089Zm-4.128-.992c0,.975.488,1.382,1.333,1.382a3.712,3.712,0,0,0,2.779-1.528v-1.56l-2.129.2c-1.56.146-1.983.6-1.983,1.511" transform="translate(-102.283 -75.614)" fill="#1a2638"/>
    <path id="Path_108" data-name="Path 108" d="M205.364,140.431a4.233,4.233,0,0,1-3.007,1.3,1.98,1.98,0,0,1-2.259-2.162c0-1.626,1.008-2.308,2.926-2.487l2.324-.211v-.911c0-1.365-.276-1.966-1.853-1.966-1.088,0-1.917,0-1.934,1.316l-1.04-.13c0-1.918,1.788-2.113,2.991-2.113,2.227,0,2.925.65,2.925,2.86v4.454c0,.26.016.292.26.325l.845.114v.715h-1.982l-.146-1.089Zm-4.129-.992c0,.975.488,1.382,1.333,1.382a3.712,3.712,0,0,0,2.779-1.528v-1.56l-2.129.2c-1.56.146-1.983.6-1.983,1.511" transform="translate(-113.703 -75.614)" fill="#1a2638"/>
    <path id="Path_109" data-name="Path 109" d="M220.866,140.708c.227-.032.26-.081.26-.325v-5.818c0-.179-.049-.292-.212-.342l-.942-.308.13-.683h1.853l.146,1.04a3.749,3.749,0,0,1,2.519-1.2,4.281,4.281,0,0,1,1.073.146v2.259l-.829-.049-.211-1.235c-.016-.114-.033-.146-.2-.146a3.822,3.822,0,0,0-2.243,1.2v5.136c0,.26.016.309.26.325l1.462.114v.715H220.02v-.731Z" transform="translate(-124.996 -75.615)" fill="#1a2638"/>
    <path id="Path_110" data-name="Path 110" d="M239.825,134.173a4.581,4.581,0,0,0-1.349-.195c-1.349,0-1.9.617-1.9,1.381,0,1.024.991,1.268,2.064,1.544,1.251.325,2.633.7,2.633,2.406,0,1.836-1.56,2.422-3.137,2.422a7.805,7.805,0,0,1-2.844-.536v-2l.829.049.195,1.073a.218.218,0,0,0,.179.212,5.2,5.2,0,0,0,1.756.292c1.186,0,1.967-.439,1.967-1.414,0-1.056-.943-1.316-1.983-1.576-1.284-.309-2.7-.617-2.7-2.34,0-1.788,1.512-2.422,3.1-2.422a6.709,6.709,0,0,1,2.389.439v2l-.829-.049-.2-1.073a.217.217,0,0,0-.179-.211" transform="translate(-133.701 -75.614)" fill="#1a2638"/>
    <path id="Path_111" data-name="Path 111" d="M79.223.41,24.1,13.123a1.4,1.4,0,0,0,.387,2.757l58.328-3.051,58.328,3.051a1.4,1.4,0,0,0,.387-2.757L86.412.41a16,16,0,0,0-7.188,0" transform="translate(-13.08 0)" fill="#dd1335"/>
  </g>
</svg>
