<svg xmlns="http://www.w3.org/2000/svg" id="Layer_2" data-name="Layer 2" viewBox="0 0 238.69 53.55"><defs><style>.cls-1{fill:#3f3b37}</style></defs><g id="Layer_1-2" data-name="Layer 1"><path d="M53.4 53.4v-7.61h1.69l2.05 7.05h.15l2.05-7.05h1.69v7.61h-.85v-7.03h-.15l-2.06 7.03h-1.52l-2.05-7.03h-.14v7.03zM67.19 50.66h2.8l-1.33-4.33h-.15l-1.33 4.33Zm-1.74 2.74 2.36-7.6h1.55l2.37 7.6h-.91l-.6-1.93h-3.27l-.59 1.93zM76.15 53.4v-7.61h.88v3.33h.15l3.25-3.33h1.2l-3.74 3.76 3.87 3.85h-1.22L77.18 50h-.15v3.4zM86.04 53.4v-7.61h4.67v.79h-3.79v2.6h3.48v.79h-3.48v2.62h3.83v.81zM95.42 53.4v-7.61h.88v6.8h3.87v.81zM105.76 50.66h2.8l-1.32-4.33h-.15zm-1.74 2.74 2.36-7.6h1.55l2.37 7.6h-.91l-.6-1.93h-3.27l-.59 1.93zM115.86 50.66h2.8l-1.32-4.33h-.15zm-1.74 2.74 2.36-7.6h1.55l2.37 7.6h-.91l-.6-1.93h-3.27l-.59 1.93zM125.7 49.46h2.1c1.01 0 1.6-.51 1.6-1.4v-.08c0-.89-.57-1.4-1.6-1.4h-2.1zm-.88 3.93v-7.6h3.06c1.4 0 2.39.75 2.39 2.02v.12c0 1-.55 1.56-1.21 1.77v.15c.52.02.91.33.91.98v2.56h-.88v-2.45c0-.44-.23-.68-.72-.68h-2.67v3.14h-.88ZM134.59 50.89v-.23h.88v.23c0 1.28.82 1.89 2 1.89s1.83-.6 1.83-1.43-.67-1.13-1.7-1.38l-.58-.14c-1.34-.33-2.25-.84-2.25-2.12s1.03-2.06 2.56-2.06 2.7.79 2.7 2.33v.47h-.87v-.47c0-1.11-.78-1.56-1.83-1.56s-1.69.46-1.69 1.28.61 1.11 1.63 1.36l.58.14c1.29.3 2.34.79 2.34 2.14s-1.08 2.22-2.72 2.22-2.88-.88-2.88-2.66M69.06 30.58c0 2.02-1.44 3.18-3.76 3.18h-4.51l-.14-.14v-6.38l.14-.15h4.51c2.36 0 3.76 1.16 3.76 3.18zm-8.41-13.46.14-.14h4.51c2.22 0 3.66 1.2 3.66 3.11v.34c0 1.91-1.47 3.08-3.66 3.08h-4.51l-.14-.14v-6.24Zm8.48 8.37v-.55c1.54-.48 3.76-1.85 3.76-5.16v-.34c0-3.66-2.9-6.02-7.21-6.02H53.65l-.14.15v3.17l.14.14h2.93l.14.14v16.7l-.14.14h-2.93l-.14.14v3.2l.14.14h12.13c4.21 0 7.21-2.33 7.21-6.29v-.34c0-3.42-2.29-4.79-3.86-5.23M86.71 20.39h-1.87c-1.74 0-2.94.65-3.45 2.05h-.58l-1.94-1.94-.1-.04h-1.48l-.14.14v16.6l.14.14h3.44l.14-.14v-9.7c0-1.62.65-2.71 1.72-3.28.6-.32 1.32-.48 2.14-.48h1.98l.14-.14v-3.06l-.14-.14ZM102.78 29.08c0 3.42-2.08 5.4-5.03 5.4s-5.03-1.98-5.03-5.4v-.34c0-3.39 2.05-5.4 5.03-5.4s5.03 2.01 5.03 5.4zm-5.02-9.1c-5.06 0-8.75 3.28-8.75 8.68v.51c0 .55.05 1.08.13 1.59.58 3.85 3.25 6.35 6.93 6.93.55.09 1.11.14 1.7.14 5.06 0 8.79-3.28 8.79-8.65v-.51c0-5.4-3.73-8.68-8.79-8.68M120.3 20.19c-3.18 0-4.62 1.4-5.23 2.73h-.58l-2.47-2.46h-1.05l-.14.15v16.6l.14.14h3.44l.14-.14v-8.4c0-1.92.57-3.36 1.53-4.28.79-.75 1.83-1.16 3.08-1.16 2.53 0 4 1.33 4 4.14v9.7l.15.14h3.44l.14-.14v-9.98c0-4.31-2.73-7.04-6.6-7.04M139.11 27.19l-1.09-.17c-1.78-.31-2.87-.82-2.87-2.12 0-1.2 1.09-1.91 2.94-1.91s3.14.71 3.56 2.55l.18.11 3.2-.94.1-.18c-.8-2.76-3.31-4.54-7.04-4.54-3.97 0-6.57 1.85-6.57 5.09s2.8 4.55 6.26 5.2l1.13.17c2.15.41 3.21.92 3.21 2.19s-1.16 2.19-3.35 2.19-3.93-.82-4.42-3.4l-.17-.11-3.21.79-.11.17c.63 3.67 3.62 5.57 7.91 5.57s7.01-1.95 7.01-5.4-2.94-4.55-6.67-5.23M164.28 20.46h-3.69l-.14.1-4.28 14.02h-.58l-4.28-14.02-.14-.1h-3.66l-.13.19 5.51 16.6.14.1h5.74l.14-.1 5.51-16.6zM180.18 29.08c0 3.42-2.08 5.4-5.03 5.4s-5.03-1.98-5.03-5.4v-.34c0-3.39 2.05-5.4 5.03-5.4s5.03 2.01 5.03 5.4zm-5.03-9.1c-5.06 0-8.75 3.28-8.75 8.68v.51c0 5.37 3.69 8.65 8.75 8.65s8.79-3.28 8.79-8.65v-.51c0-5.4-3.73-8.68-8.79-8.68M201.18 29.08c0 3.42-2.08 5.4-5.03 5.4s-5.03-1.98-5.03-5.4v-.34c0-3.39 2.05-5.4 5.03-5.4s5.03 2.01 5.03 5.4zm-5.03-9.1c-5.06 0-8.75 3.28-8.75 8.68v.51c0 5.37 3.69 8.65 8.75 8.65s8.79-3.28 8.79-8.65v-.51c0-5.4-3.73-8.68-8.79-8.68M218.78 20.39h-1.87c-1.74 0-2.94.65-3.45 2.05h-.56l-.02-.02-1.92-1.92-.1-.04h-1.49l-.14.14v16.6l.14.14h3.44l.14-.14v-9.7c0-1.63.66-2.71 1.73-3.28.59-.32 1.31-.48 2.13-.48h1.98l.14-.14v-3.06l-.14-.14ZM235 29.08c0 3.52-2.19 5.47-5.09 5.47s-5.06-1.95-5.06-5.47v-.34c0-3.52 2.12-5.47 5.06-5.47s5.09 1.95 5.09 5.47zm3.65-13.96-1.67-1.66-.1-.04h-1.81l-.14.14v9.09h-.55c-.79-1.3-2.36-2.67-5.57-2.67-4.21 0-7.73 3.21-7.73 8.69v.51c0 5.47 3.55 8.65 7.73 8.65 3.21 0 4.78-1.37 5.64-2.77h.55v2.15l.14.14h3.41l.14-.14V15.22z" class="cls-1"/><path d="M39.71 13.02 26.84.14a.47.47 0 0 0-.33-.14H.47A.47.47 0 0 0 0 .47v12.4c0 .26.21.47.47.47h12.32c.13 0 .25.05.33.14l12.87 12.88c.19.18.19.49 0 .67L13.12 39.91a.47.47 0 0 1-.33.14H.47a.47.47 0 0 0-.47.47v12.41c0 .26.21.47.47.47H26.5c.13 0 .25-.05.33-.14L39.7 40.38c.18-.19.18-.48 0-.67L27.03 27.03a.483.483 0 0 1 0-.67L39.7 13.68c.18-.18.18-.48 0-.67" style="fill:#e96420"/></g></svg>