<svg width="19" height="12" viewBox="0 0 19 12" fill="none" xmlns="http://www.w3.org/2000/svg">
  <mask id="mask0" mask-type="alpha" maskUnits="userSpaceOnUse" x="0" y="0" width="19" height="12">
    <path d="M17 0H2C0.89543 0 0 0.89543 0 2V10C0 11.1046 0.89543 12 2 12H17C18.1046 12 19 11.1046 19 10V2C19 0.89543 18.1046 0 17 0Z" fill="white"/>
  </mask>
  <g mask="url(#mask0)">
    <path d="M17 0H2C0.89543 0 0 0.89543 0 2V10C0 11.1046 0.89543 12 2 12H17C18.1046 12 19 11.1046 19 10V2C19 0.89543 18.1046 0 17 0Z" fill="white"/>
    <path d="M11 8H12V7H11V8Z" fill="white"/>
    <path d="M11 9H12V8H11V9Z" fill="white"/>
    <path d="M11 10H12V9H11V10Z" fill="white"/>
    <path d="M11 11H12V10H11V11Z" fill="white"/>
    <path d="M11 12H12V11H11V12Z" fill="white"/>
    <path d="M12 8H13V7H12V8Z" fill="white"/>
    <path d="M12 9H13V8H12V9Z" fill="#F6B5B2"/>
    <path d="M12 10H13V9H12V10Z" fill="#A7A7ED"/>
    <path d="M12 11H13V10H12V11Z" fill="#3737D6"/>
    <path d="M12 12H13V11H12V12Z" fill="#3737D6"/>
    <path d="M13 8H14V7H13V8Z" fill="white"/>
    <path d="M13 9H14V8H13V9Z" fill="#E93E35"/>
    <path d="M13 10H14V9H13V10Z" fill="#FCE6E6"/>
    <path d="M13 11H14V10H13V11Z" fill="#C3CEEB"/>
    <path d="M13 12H14V11H13V12Z" fill="#3737D6"/>
    <path d="M14 8H15V7H14V8Z" fill="white"/>
    <path d="M14 9H15V8H14V9Z" fill="#F6B5B2"/>
    <path d="M14 10H15V9H14V10Z" fill="#E61919"/>
    <path d="M14 11H15V10H14V11Z" fill="white"/>
    <path d="M14 12H15V11H14V12Z" fill="#9494E9"/>
    <path d="M15 8H16V7H15V8Z" fill="white"/>
    <path d="M15 9H16V8H15V9Z" fill="#F6EAEF"/>
    <path d="M15 10H16V9H15V10Z" fill="#E93E35"/>
    <path d="M15 11H16V10H15V11Z" fill="#F6B5B2"/>
    <path d="M15 12H16V11H15V12Z" fill="white"/>
    <path d="M16 8H17V7H16V8Z" fill="white"/>
    <path d="M16 9H17V8H16V9Z" fill="#9999EA"/>
    <path d="M16 10H17V9H16V10Z" fill="#F2A6A5"/>
    <path d="M16 11H17V10H16V11Z" fill="#E61919"/>
    <path d="M16 12H17V11H16V12Z" fill="#E61919"/>
    <path d="M17 8H18V7H17V8Z" fill="white"/>
    <path d="M17 9H18V8H17V9Z" fill="#3737D6"/>
    <path d="M17 10H18V9H17V10Z" fill="white"/>
    <path d="M17 11H18V10H17V11Z" fill="#E61919"/>
    <path d="M17 12H18V11H17V12Z" fill="#E61919"/>
    <path d="M18 8H19V7H18V8Z" fill="white"/>
    <path d="M18 9H19V8H18V9Z" fill="#3737D6"/>
    <path d="M18 10H19V9H18V10Z" fill="white"/>
    <path d="M18 11H19V10H18V11Z" fill="#E61919"/>
    <path d="M18 12H19V11H18V12Z" fill="#E61919"/>
    <path d="M11 4H12V5H11V4Z" fill="white"/>
    <path d="M11 3H12V4H11V3Z" fill="white"/>
    <path d="M11 2H12V3H11V2Z" fill="white"/>
    <path d="M11 1H12V2H11V1Z" fill="white"/>
    <path d="M11 0H12V1H11V0Z" fill="white"/>
    <path d="M12 4H13V5H12V4Z" fill="white"/>
    <path d="M12 3H13V4H12V3Z" fill="#F6B5B2"/>
    <path d="M12 2H13V3H12V2Z" fill="#A7A7ED"/>
    <path d="M12 1H13V2H12V1Z" fill="#3737D6"/>
    <path d="M12 0H13V1H12V0Z" fill="#3737D6"/>
    <path d="M13 4H14V5H13V4Z" fill="white"/>
    <path d="M13 3H14V4H13V3Z" fill="#E93E35"/>
    <path d="M13 2H14V3H13V2Z" fill="#FCE6E6"/>
    <path d="M13 1H14V2H13V1Z" fill="#C3CEEB"/>
    <path d="M13 0H14V1H13V0Z" fill="#3737D6"/>
    <path d="M14 4H15V5H14V4Z" fill="white"/>
    <path d="M14 3H15V4H14V3Z" fill="#F6B5B2"/>
    <path d="M14 2H15V3H14V2Z" fill="#E61919"/>
    <path d="M14 1H15V2H14V1Z" fill="white"/>
    <path d="M14 0H15V1H14V0Z" fill="#9494E9"/>
    <path d="M15 4H16V5H15V4Z" fill="white"/>
    <path d="M15 3H16V4H15V3Z" fill="#F6EAEF"/>
    <path d="M15 2H16V3H15V2Z" fill="#E93E35"/>
    <path d="M15 1H16V2H15V1Z" fill="#F6B5B2"/>
    <path d="M15 0H16V1H15V0Z" fill="white"/>
    <path d="M16 4H17V5H16V4Z" fill="white"/>
    <path d="M16 3H17V4H16V3Z" fill="#9999EA"/>
    <path d="M16 2H17V3H16V2Z" fill="#F2A6A5"/>
    <path d="M16 1H17V2H16V1Z" fill="#E61919"/>
    <path d="M16 0H17V1H16V0Z" fill="#E61919"/>
    <path d="M17 4H18V5H17V4Z" fill="white"/>
    <path d="M17 3H18V4H17V3Z" fill="#3737D6"/>
    <path d="M17 2H18V3H17V2Z" fill="white"/>
    <path d="M17 1H18V2H17V1Z" fill="#E61919"/>
    <path d="M17 0H18V1H17V0Z" fill="#E61919"/>
    <path d="M18 4H19V5H18V4Z" fill="white"/>
    <path d="M18 3H19V4H18V3Z" fill="#3737D6"/>
    <path d="M18 2H19V3H18V2Z" fill="white"/>
    <path d="M18 1H19V2H18V1Z" fill="#E61919"/>
    <path d="M18 0H19V1H18V0Z" fill="#E61919"/>
    <path d="M8 8H7V7H8V8Z" fill="white"/>
    <path d="M8 9H7V8H8V9Z" fill="white"/>
    <path d="M8 10H7V9H8V10Z" fill="white"/>
    <path d="M8 11H7V10H8V11Z" fill="white"/>
    <path d="M8 12H7V11H8V12Z" fill="white"/>
    <path d="M7 8H6V7H7V8Z" fill="white"/>
    <path d="M7 9H6V8H7V9Z" fill="#F6B5B2"/>
    <path d="M7 10H6V9H7V10Z" fill="#A7A7ED"/>
    <path d="M7 11H6V10H7V11Z" fill="#3737D6"/>
    <path d="M7 12H6V11H7V12Z" fill="#3737D6"/>
    <path d="M6 8H5V7H6V8Z" fill="white"/>
    <path d="M6 9H5V8H6V9Z" fill="#E93E35"/>
    <path d="M6 10H5V9H6V10Z" fill="#FCE6E6"/>
    <path d="M6 11H5V10H6V11Z" fill="#C3CEEB"/>
    <path d="M6 12H5V11H6V12Z" fill="#3737D6"/>
    <path d="M5 8H4V7H5V8Z" fill="white"/>
    <path d="M5 9H4V8H5V9Z" fill="#F6B5B2"/>
    <path d="M5 10H4V9H5V10Z" fill="#E61919"/>
    <path d="M5 11H4V10H5V11Z" fill="white"/>
    <path d="M5 12H4V11H5V12Z" fill="#9494E9"/>
    <path d="M4 8H3V7H4V8Z" fill="white"/>
    <path d="M4 9H3V8H4V9Z" fill="#F6EAEF"/>
    <path d="M4 10H3V9H4V10Z" fill="#E93E35"/>
    <path d="M4 11H3V10H4V11Z" fill="#F6B5B2"/>
    <path d="M4 12H3V11H4V12Z" fill="white"/>
    <path d="M3 8H2V7H3V8Z" fill="white"/>
    <path d="M3 9H2V8H3V9Z" fill="#9999EA"/>
    <path d="M3 10H2V9H3V10Z" fill="#F2A6A5"/>
    <path d="M3 11H2V10H3V11Z" fill="#E61919"/>
    <path d="M3 12H2V11H3V12Z" fill="#E61919"/>
    <path d="M2 8H1V7H2V8Z" fill="white"/>
    <path d="M2 9H1V8H2V9Z" fill="#3737D6"/>
    <path d="M2 10H1V9H2V10Z" fill="white"/>
    <path d="M2 11H1V10H2V11Z" fill="#E61919"/>
    <path d="M2 12H1V11H2V12Z" fill="#E61919"/>
    <path d="M1 8H0V7H1V8Z" fill="white"/>
    <path d="M1 9H0V8H1V9Z" fill="#3737D6"/>
    <path d="M1 10H0V9H1V10Z" fill="white"/>
    <path d="M1 11H0V10H1V11Z" fill="#E61919"/>
    <path d="M1 12H0V11H1V12Z" fill="#E61919"/>
    <path d="M8 4H7V5H8V4Z" fill="white"/>
    <path d="M8 3H7V4H8V3Z" fill="white"/>
    <path d="M8 2H7V3H8V2Z" fill="white"/>
    <path d="M8 1H7V2H8V1Z" fill="white"/>
    <path d="M8 0H7V1H8V0Z" fill="white"/>
    <path d="M7 4H6V5H7V4Z" fill="white"/>
    <path d="M7 3H6V4H7V3Z" fill="#F6B5B2"/>
    <path d="M7 2H6V3H7V2Z" fill="#A7A7ED"/>
    <path d="M7 1H6V2H7V1Z" fill="#3737D6"/>
    <path d="M7 0H6V1H7V0Z" fill="#3737D6"/>
    <path d="M6 4H5V5H6V4Z" fill="white"/>
    <path d="M6 3H5V4H6V3Z" fill="#E93E35"/>
    <path d="M6 2H5V3H6V2Z" fill="#FCE6E6"/>
    <path d="M6 1H5V2H6V1Z" fill="#C3CEEB"/>
    <path d="M6 0H5V1H6V0Z" fill="#3737D6"/>
    <path d="M5 4H4V5H5V4Z" fill="white"/>
    <path d="M5 3H4V4H5V3Z" fill="#F6B5B2"/>
    <path d="M5 2H4V3H5V2Z" fill="#E61919"/>
    <path d="M5 1H4V2H5V1Z" fill="white"/>
    <path d="M5 0H4V1H5V0Z" fill="#9494E9"/>
    <path d="M4 4H3V5H4V4Z" fill="white"/>
    <path d="M4 3H3V4H4V3Z" fill="#F6EAEF"/>
    <path d="M4 2H3V3H4V2Z" fill="#E93E35"/>
    <path d="M4 1H3V2H4V1Z" fill="#F6B5B2"/>
    <path d="M4 0H3V1H4V0Z" fill="white"/>
    <path d="M3 4H2V5H3V4Z" fill="white"/>
    <path d="M3 3H2V4H3V3Z" fill="#9999EA"/>
    <path d="M3 2H2V3H3V2Z" fill="#F2A6A5"/>
    <path d="M3 1H2V2H3V1Z" fill="#E61919"/>
    <path d="M3 0H2V1H3V0Z" fill="#E61919"/>
    <path d="M2 4H1V5H2V4Z" fill="white"/>
    <path d="M2 3H1V4H2V3Z" fill="#3737D6"/>
    <path d="M2 2H1V3H2V2Z" fill="white"/>
    <path d="M2 1H1V2H2V1Z" fill="#E61919"/>
    <path d="M2 0H1V1H2V0Z" fill="#E61919"/>
    <path d="M1 4H0V5H1V4Z" fill="white"/>
    <path d="M1 3H0V4H1V3Z" fill="#3737D6"/>
    <path d="M1 2H0V3H1V2Z" fill="white"/>
    <path d="M1 1H0V2H1V1Z" fill="#E61919"/>
    <path d="M1 0H0V1H1V0Z" fill="#E61919"/>
    <path d="M19 5H0V7H19V5Z" fill="#E61919"/>
    <path d="M10.5 0H8.5V12H10.5V0Z" fill="#E61919"/>
    <g style="mix-blend-mode:multiply">
      <rect x="0.5" y="0.5" width="18" height="11" rx="1.5" stroke="#E2E7EE"/>
    </g>
  </g>
</svg>
