<?xml version="1.0" encoding="UTF-8"?> <svg xmlns="http://www.w3.org/2000/svg" xmlns:xlink="http://www.w3.org/1999/xlink" width="150px" height="87px" viewBox="0 0 150 87" version="1.1"><title>Group 25</title><defs><polygon id="path-1" points="0 0 7.66287255 0 7.66287255 9.71219907 0 9.71219907"></polygon><polygon id="path-3" points="0 0 34.8700015 0 34.8700015 50.4757822 0 50.4757822"></polygon></defs><g id="Design" stroke="none" stroke-width="1" fill="none" fill-rule="evenodd"><g id="Werkwijze" transform="translate(-47.000000, -31.000000)"><g id="Group-25" transform="translate(47.000000, 31.000000)"><path d="M23.8982327,73.6738113 C23.8982327,72.6163578 24.0757077,71.6180307 24.437397,70.6879264 C24.7901003,69.7532739 25.2933204,68.9323261 25.9403175,68.2228089 C26.5873147,67.5132917 27.3488842,66.9561387 28.2295192,66.549076 C29.1124008,66.1465614 30.0873895,65.9464412 31.1612251,65.9464412 C32.1788977,65.9464412 33.1201887,66.137465 33.9895911,66.5286091 C34.8545005,66.9220273 35.602591,67.4336984 36.2383555,68.0749928 C36.8965853,67.3768461 37.6469223,66.8492563 38.4848734,66.4876755 C39.3250711,66.1260946 40.2820878,65.9464412 41.3514303,65.9464412 C42.4005541,65.9464412 43.3688034,66.1465614 44.265164,66.549076 C45.1547851,66.9561387 45.9298338,67.5132917 46.5745844,68.2228089 C47.2215815,68.9323261 47.722555,69.7532739 48.0819979,70.6879264 C48.4391942,71.6180307 48.6189157,72.6163578 48.6189157,73.6738113 L48.6189157,84.7440991 C48.6189157,85.3853935 48.3987569,85.9175314 47.9561929,86.3518833 C47.5181219,86.7862352 47.0104089,87 46.4308072,87 C45.7995357,87 45.2693575,86.7862352 44.8402726,86.3518833 C44.4156807,85.9175314 44.2022615,85.3853935 44.2022615,84.7440991 L44.2022615,73.6738113 C44.2022615,72.7846407 43.9394189,72.0205453 43.4182267,71.3974436 C42.8947881,70.7675197 42.2073536,70.4582429 41.3514303,70.4582429 C40.4460836,70.4582429 39.7384304,70.7675197 39.2284709,71.3974436 C38.7207578,72.0205453 38.4669013,72.7846407 38.4669013,73.6738113 L38.4669013,84.7440991 C38.4669013,85.3853935 38.244496,85.9175314 37.806425,86.3518833 C37.363861,86.7862352 36.8426689,87 36.2383555,87 C35.6295492,87 35.1173431,86.7862352 34.6905047,86.3518833 C34.2636663,85.9175314 34.0480006,85.3853935 34.0480006,84.7440991 L34.0480006,73.6738113 C34.0480006,72.7846407 33.7874045,72.0205453 33.2662124,71.3974436 C32.7427737,70.7675197 32.0396136,70.4582429 31.1612251,70.4582429 C30.2805901,70.4582429 29.5841695,70.7675197 29.078703,71.3974436 C28.5664969,72.0205453 28.3126404,72.7846407 28.3126404,73.6738113 L28.3126404,84.7440991 C28.3126404,85.3853935 28.0947282,85.9175314 27.6544107,86.3518833 C27.2118466,86.7862352 26.6906545,87 26.0863412,87 C25.4797813,87 24.9630822,86.7862352 24.5384903,86.3518833 C24.1116519,85.9175314 23.8982327,85.3853935 23.8982327,84.7440991 L23.8982327,73.6738113 Z" id="Fill-1" fill="#34363B"></path><path d="M51.4675004,73.6738113 C51.4675004,72.6163578 51.6674405,71.6180307 52.0650741,70.6879264 C52.4627078,69.7532739 53.0153512,68.9323261 53.7162648,68.2228089 C54.4149319,67.5132917 55.2281713,66.9561387 56.1492437,66.549076 C57.070316,66.1465614 58.0700165,65.9464412 59.1416055,65.9464412 C60.1884829,65.9464412 61.1791972,66.1465614 62.1137487,66.549076 C63.0505467,66.9561387 63.8682792,67.5132917 64.5714393,68.2228089 C65.2701063,68.9323261 65.8205032,69.7532739 66.2203834,70.6879264 C66.6202636,71.6180307 66.8179572,72.6163578 66.8179572,73.6738113 L66.8179572,84.5780903 C66.8179572,85.2193847 66.5977984,85.7515226 66.1597274,86.1836004 C65.7194099,86.6179523 65.2094504,86.8317171 64.6298487,86.8317171 C64.3265688,86.8317171 64.0187959,86.7475756 63.7042834,86.5792927 C63.3875243,86.4132838 63.1179422,86.2359045 62.8977834,86.0403325 C61.7138685,86.6793528 60.462558,87 59.1416055,87 C58.0947282,87 57.1062603,86.7953316 56.1717089,86.3905429 C55.2371574,85.9903024 54.4149319,85.4308754 53.7162648,84.7213582 C53.0153512,84.0141151 52.4627078,83.1931673 52.0650741,82.2585148 C51.6674405,81.3261364 51.4675004,80.3323575 51.4675004,79.2726298 L51.4675004,73.6738113 Z M55.9223454,79.2726298 C55.9223454,80.1640745 56.2368579,80.9236218 56.8726224,81.5489976 C57.503894,82.1720992 58.2609705,82.4904723 59.1416055,82.4904723 C60.024487,82.4904723 60.7725775,82.1971143 61.3926164,81.6103981 C62.0104089,81.025956 62.34514,80.3027943 62.405796,79.4409128 L62.405796,73.6738113 C62.405796,73.2258149 62.3136888,72.8119298 62.1339674,72.4185116 C61.9564924,72.0296416 61.7206081,71.6885276 61.4353003,71.3974436 C61.1454995,71.1040855 60.7972892,70.872128 60.4019021,70.7083932 C60.0042684,70.5401103 59.581923,70.4582429 59.1416055,70.4582429 C58.2340123,70.4582429 57.4724427,70.7675197 56.8501573,71.3974436 C56.2323648,72.0205453 55.9223454,72.7846407 55.9223454,73.6738113 L55.9223454,79.2726298 Z" id="Fill-3" fill="#34363B"></path><path d="M69.9529729,61.6825156 C69.9529729,61.0457694 70.1663921,60.5090833 70.590984,60.0724573 C71.0178224,59.6449277 71.5480006,59.4288888 72.1815186,59.4288888 C72.7588737,59.4288888 73.2665868,59.6449277 73.7091508,60.0724573 C74.1494683,60.5090833 74.3673806,61.0457694 74.3673806,61.6825156 L74.3673806,71.5861934 C75.4142579,70.7493269 76.4588887,69.8988159 77.5057661,69.0369344 C78.5503969,68.1750529 79.5972742,67.3086233 80.641905,66.4444677 C81.0552643,66.11245 81.5202935,65.9464412 82.0459787,65.9464412 C82.5941291,65.9464412 83.0906096,66.1511096 83.5309271,66.5718169 C83.9689981,66.9902502 84.1936498,67.5314844 84.1936498,68.200068 C84.1936498,68.5343597 84.1352404,68.8550069 84.0274075,69.1642837 C83.9150816,69.4690122 83.7218811,69.7328071 83.4478059,69.9556682 L77.8764415,74.5084037 C79.1142729,76.0138537 80.3116669,77.4829182 81.4663771,78.9178712 C82.6233338,80.3550984 83.8319605,81.8196147 85.09675,83.3227906 C85.4561929,83.7730611 85.6359143,84.2574431 85.6359143,84.7873069 C85.6359143,85.3467339 85.4224951,85.8493086 84.9956567,86.3109496 C84.5688183,86.7703165 84.0521192,87 83.4478059,87 C82.7311667,87 82.1560581,86.733931 81.7134941,86.2040672 L74.4078179,77.2646052 L74.3673806,77.3078129 L74.3673806,84.7440991 C74.3673806,85.3853935 74.1539614,85.9175314 73.7293695,86.3518833 C73.3002846,86.7862352 72.7880785,87 72.1815186,87 C71.5772053,87 71.0537667,86.7862352 70.6134492,86.3518833 C70.1731316,85.9175314 69.9529729,85.3853935 69.9529729,84.7440991 L69.9529729,61.6825156 Z" id="Fill-5" fill="#34363B"></path><path d="M86.7093006,73.6738113 C86.7093006,72.6163578 86.9092407,71.6180307 87.3068743,70.6879264 C87.704508,69.7532739 88.2549049,68.9323261 88.9603115,68.2228089 C89.6612251,67.5132917 90.4699715,66.9561387 91.3932904,66.549076 C92.3143627,66.1465614 93.3118167,65.9464412 94.3834057,65.9464412 C95.4302831,65.9464412 96.4209975,66.1465614 97.3577954,66.549076 C98.2923469,66.9561387 99.1123259,67.5132917 99.8132395,68.2228089 C100.514153,68.9323261 101.06455,69.7532739 101.462184,70.6879264 C101.859817,71.6180307 102.059757,72.6163578 102.059757,73.6738113 L102.059757,76.4754947 C102.059757,77.1122409 101.848585,77.648927 101.421746,78.0832789 C100.992661,78.5130826 100.478209,78.7313956 99.8716489,78.7313956 L91.1663921,78.7313956 L91.1663921,79.2726298 C91.1663921,80.1640745 91.4809046,80.9236218 92.1144226,81.5489976 C92.7479407,82.1720992 93.5027707,82.4904723 94.3834057,82.4904723 C94.7158904,82.4904723 95.0933054,82.4495386 95.5201438,82.3653972 C95.9447357,82.2812557 96.3513554,82.0038163 96.7377565,81.5308048 C96.8995058,81.3352328 97.1061854,81.1305643 97.3577954,80.9236218 C97.6049124,80.7144052 97.8744945,80.5529446 98.1598023,80.4392399 C98.4496031,80.3323575 98.7596226,80.2823274 99.0898607,80.2982461 C99.4200988,80.3118906 99.750337,80.4392399 100.080575,80.6916643 C100.5164,80.9986669 100.815186,81.437567 100.96795,82.0060904 C101.118466,82.5814361 100.974689,83.1840709 100.532125,83.8253653 C99.9300584,84.6349426 99.1460237,85.3649267 98.1822675,86.0175916 C97.2185113,86.6702564 95.9514752,87 94.3834057,87 C93.3387749,87 92.3480605,86.7953316 91.4135091,86.3905429 C90.4789576,85.9903024 89.6612251,85.4308754 88.9603115,84.7213582 C88.2549049,84.0141151 87.704508,83.1931673 87.3068743,82.2585148 C86.9092407,81.3261364 86.7093006,80.3323575 86.7093006,79.2726298 L86.7093006,73.6738113 Z M91.1663921,74.2173197 L97.6453497,74.2173197 L97.6453497,73.6738113 C97.6453497,73.2258149 97.555489,72.8119298 97.3757676,72.4185116 C97.1982926,72.0296416 96.9646548,71.6885276 96.6771005,71.3974436 C96.3850532,71.1040855 96.0413359,70.872128 95.6414557,70.7083932 C95.2438221,70.5401103 94.8237232,70.4582429 94.3834057,70.4582429 C93.4758125,70.4582429 92.7142429,70.7675197 92.0919575,71.3974436 C91.4764116,72.0205453 91.1663921,72.7846407 91.1663921,73.6738113 L91.1663921,74.2173197 Z" id="Fill-7" fill="#34363B"></path><path d="M104.827018,61.6825156 C104.827018,61.0457694 105.040437,60.5090833 105.467276,60.0724573 C105.891868,59.6449277 106.410813,59.4288888 107.01288,59.4288888 C107.621686,59.4288888 108.142879,59.6449277 108.58095,60.0724573 C109.023514,60.5090833 109.241426,61.0457694 109.241426,61.6825156 L109.241426,84.7440991 C109.241426,85.3853935 109.030253,85.9175314 108.605661,86.3518833 C108.176576,86.7862352 107.646398,87 107.01288,87 C106.437771,87 105.927812,86.7862352 105.485248,86.3518833 C105.049423,85.9175314 104.827018,85.3853935 104.827018,84.7440991 L104.827018,61.6825156 Z" id="Fill-9" fill="#34363B"></path><path d="M112.462034,61.9751915 C112.462034,61.3361712 112.67096,60.7994851 113.100045,60.3674073 C113.526883,59.9376036 114.043582,59.7215647 114.647896,59.7215647 C115.254456,59.7215647 115.773401,59.9376036 116.215965,60.3674073 C116.654036,60.7994851 116.876442,61.3361712 116.876442,61.9751915 L116.876442,66.1140419 L123.521641,66.1140419 C124.152913,66.1140419 124.683091,66.3278067 125.10993,66.7598845 C125.536768,67.1896882 125.750187,67.7263743 125.750187,68.3676687 C125.750187,68.9543848 125.536768,69.46833 125.10993,69.9140523 C124.683091,70.3597747 124.152913,70.5826359 123.521641,70.5826359 L116.876442,70.5826359 L116.876442,79.2742217 C116.876442,79.71767 116.964056,80.1361032 117.143777,80.5249732 C117.321252,80.9138432 117.557136,81.2572314 117.844691,81.5483153 C118.134492,81.8416734 118.478209,82.0713569 118.880335,82.2373657 C119.275723,82.4079227 119.695821,82.4897901 120.138386,82.4897901 C120.769657,82.4897901 121.362738,82.3146849 121.910888,81.9644745 C122.463532,81.6188122 122.874644,81.1230598 123.150966,80.4840395 C123.314962,80.0951695 123.575558,79.7677 123.930508,79.5016311 C124.292197,79.2401103 124.70331,79.1059388 125.170586,79.1059388 C125.804104,79.1059388 126.332035,79.3265259 126.76112,79.7745223 C127.187959,80.2202447 127.401378,80.7478344 127.401378,81.3595656 C127.401378,81.5869749 127.329489,81.8644144 127.194698,82.196432 C126.642055,83.4471835 125.970346,84.4023028 125.170586,85.0572418 C124.373072,85.7121808 123.604763,86.1829182 122.861165,86.4785503 C122.119814,86.7719084 121.48405,86.9288209 120.960611,86.95611 C120.437172,86.9833991 120.163097,86.9993178 120.138386,86.9993178 C119.091508,86.9993178 118.100794,86.7946493 117.166242,86.3921348 C116.231691,85.9896202 115.413958,85.4324673 114.710798,84.720676 C114.007638,84.0157069 113.457241,83.192485 113.059608,82.2578326 C112.661974,81.3254542 112.462034,80.3316752 112.462034,79.2742217 L112.462034,61.9751915 Z" id="Fill-11" fill="#34363B"></path><path d="M0,19.6659069 C0,17.2508195 0.417852329,14.981274 1.25355699,12.8527224 C2.08701513,10.7264448 3.24621836,8.86623624 4.72667366,7.27209661 C6.20488243,5.67795698 7.95941291,4.40901273 9.99026509,3.46526387 C12.0166242,2.52378911 14.249663,2.05305173 16.6848884,2.05305173 C19.2616445,2.05305173 21.5396136,2.53743367 23.5210424,3.50164937 C25.5024712,4.47041326 27.1828666,5.72571294 28.5689681,7.27209661 C30.0494234,5.82122487 31.7904748,4.59094022 33.7966152,3.57442037 C35.8027557,2.56017461 38.0200689,2.05305173 40.4575408,2.05305173 C42.8410963,2.05305173 45.060656,2.52378911 47.1162199,3.46526387 C49.1650442,4.40901273 50.9442864,5.67795698 52.4472068,7.27209661 C53.9523738,8.86623624 55.1228096,10.7264448 55.9585143,12.8527224 C56.7897259,14.981274 57.2098248,17.2508195 57.2098248,19.6659069 L57.2098248,41.0924171 C57.2098248,42.2044489 56.8279167,43.1481977 56.0641006,43.9191155 C55.3002846,44.6923073 54.3926913,45.0789032 53.3435675,45.0789032 C52.2450202,45.0789032 51.3149618,44.6923073 50.5533922,43.9191155 C49.7873296,43.1481977 49.4076681,42.2044489 49.4076681,41.0924171 L49.4076681,19.6659069 C49.4076681,18.3605771 49.1920024,17.118922 48.760671,15.9341192 C48.331586,14.7493165 47.7227797,13.7237002 46.9364984,12.8527224 C46.1457241,11.9840186 45.2044331,11.2949682 44.1081324,10.7855713 C43.0095851,10.2807225 41.7897259,10.026024 40.4575408,10.026024 C39.165793,10.026024 38.0313015,10.2807225 37.0540662,10.7855713 C36.0745844,11.2949682 35.2523588,11.9840186 34.585143,12.8527224 C33.9156807,13.7237002 33.4034746,14.7493165 33.0440318,15.9341192 C32.6890819,17.118922 32.5093605,18.3605771 32.5093605,19.6659069 L32.5093605,47.0710092 C32.5093605,48.1853151 32.1252059,49.129064 31.3636364,49.8999817 C30.5975738,50.6731735 29.6675154,51.0597695 28.5689681,51.0597695 C27.4704208,51.0597695 26.5538415,50.6731735 25.8124906,49.8999817 C25.0733863,49.129064 24.7027108,48.1853151 24.7027108,47.0710092 L24.7027108,19.5931359 C24.7027108,18.2900802 24.5117568,17.0552474 24.1320953,15.8954597 C23.7479407,14.737946 23.224502,13.7237002 22.5550397,12.8527224 C21.8855774,11.9840186 21.0498727,11.2949682 20.0501722,10.7855713 C19.0459787,10.2807225 17.9249663,10.026024 16.6848884,10.026024 C15.3953871,10.026024 14.2024861,10.2807225 13.1039389,10.7855713 C12.0053916,11.2949682 11.0641006,11.9840186 10.2755729,12.8527224 C9.48704508,13.7237002 8.88048525,14.7493165 8.44915381,15.9341192 C8.02006889,17.118922 7.80440318,18.3605771 7.80440318,19.6659069 L7.80440318,45.1357555 C7.80440318,46.2477873 7.42474165,47.1915362 6.65867905,47.964728 C5.89486296,48.7356458 4.96480455,49.1245158 3.86850382,49.1245158 C2.76771005,49.1245158 1.84888423,48.7356458 1.11202636,47.964728 C0.370675453,47.1915362 0,46.2477873 0,45.1357555 L0,19.6659069 Z" id="Fill-13" fill="#FEFEFE"></path><path d="M62.230343,16.2272499 C62.230343,15.1174922 62.612251,14.1760175 63.3760671,13.4005515 C64.1376367,12.6296338 65.0699416,12.2430379 66.1684888,12.2430379 C67.2176127,12.2430379 68.138685,12.6296338 68.9249663,13.4005515 C69.7134941,14.1760175 70.1066347,15.1174922 70.1066347,16.2272499 L70.1066347,45.1605432 C70.1066347,46.272575 69.7247267,47.2163238 68.9609106,47.9895156 C68.1970945,48.7627075 67.2670361,49.1493034 66.1684888,49.1493034 C65.119365,49.1493034 64.1982926,48.7627075 63.4120114,47.9895156 C62.6257301,47.2163238 62.230343,46.272575 62.230343,45.1605432 L62.230343,16.2272499 Z" id="Fill-15" fill="#FEFEFE"></path><g id="Group-19" transform="translate(62.362663, 0.000000)"><mask id="mask-2" fill="white"><use xlink:href="#path-1"></use></mask><g id="Clip-18"></g><path d="M0,3.91326032 C0,2.80350263 0.368428935,1.87339833 1.10977984,1.12294743 C1.84888423,0.37477063 2.74299835,-0.000454818726 3.79436873,-0.000454818726 C4.84349259,-0.000454818726 5.75108582,0.37477063 6.51714842,1.12294743 C7.27871799,1.87339833 7.66287255,2.80350263 7.66287255,3.91326032 L7.66287255,5.86898084 C7.66287255,6.93325666 7.28995058,7.84062002 6.55309271,8.58879682 C5.80949528,9.33924772 4.89291598,9.71219907 3.79436873,9.71219907 C2.79242175,9.71219907 1.90729369,9.33924772 1.14347761,8.58879682 C0.381908043,7.84062002 0,6.93325666 0,5.86898084 L0,3.91326032 Z" id="Fill-17" fill="#FEFEFE" mask="url(#mask-2)"></path></g><path d="M112.838775,46.0845074 C113.611577,46.8690697 114.000225,47.8128186 114.000225,48.9043835 C114.000225,49.9959485 113.611577,50.9351491 112.834282,51.7219855 C112.095177,52.4747105 111.171859,52.8567582 110.077804,52.874951 C108.979257,52.8908696 108.044706,52.511096 107.267411,51.7219855 L104.063876,48.479128 C102.689007,49.6957681 101.136663,50.7031916 99.3888722,51.4786575 C97.2659128,52.4201323 95.0104089,52.8908696 92.6246069,52.8908696 C90.2365583,52.8908696 87.9810544,52.4201323 85.8603415,51.4786575 C83.732889,50.5349086 81.8840048,49.2682385 80.3091957,47.6740989 C78.7343867,46.0799592 77.4808297,44.2197506 76.5485248,42.091199 C75.6184664,39.9649215 75.1556837,37.695376 75.1556837,35.2802886 L75.1556837,21.4583475 C75.1556837,21.4560734 75.1534372,21.4537993 75.1534372,21.4492511 L75.1534372,19.4366783 C75.1534372,18.2950833 75.5330987,17.3399639 76.2969148,16.5690462 C77.0539913,15.7981284 77.9750637,15.4115325 79.0556388,15.4115325 C80.1339674,15.4115325 81.0707653,15.7981284 81.8548001,16.5690462 C82.6388348,17.3399639 83.0319754,18.2950833 83.0319754,19.4366783 L83.0319754,21.4492511 C83.0319754,21.4537993 83.0297289,21.4560734 83.0297289,21.4583475 L83.0297289,35.2802886 C83.0297289,36.5833442 83.2813389,37.8295475 83.7800659,39.0120762 C84.2832859,40.196879 84.9729669,41.2224952 85.8603415,42.091199 C86.7409765,42.964451 87.7653886,43.6489531 88.938071,44.1583501 C90.1062603,44.665473 91.3351056,44.9178974 92.6246069,44.9178974 C93.9590385,44.9178974 95.2125955,44.665473 96.3852778,44.1583501 C97.1715591,43.8172361 97.8837053,43.3828842 98.5307024,42.8803095 L95.7921971,40.1081894 C95.0171484,39.323627 94.6307473,38.3821523 94.6285008,37.2883132 C94.6307473,36.1967483 95.0171484,35.2575476 95.7921971,34.4729853 C96.538041,33.7179863 97.4568669,33.3336644 98.5531676,33.3177458 C99.6494683,33.3018271 100.588513,33.6861489 101.365808,34.4729853 L102.214992,35.3348668 C102.214992,35.3144 102.219485,35.2984813 102.219485,35.2802886 L102.219485,19.6231539 C102.219485,18.3178242 101.967875,17.0761691 101.466901,15.8913663 C100.963681,14.7088376 100.271754,13.6809473 99.3888722,12.8099694 C98.5059907,11.9412657 97.4815786,11.2544894 96.3133892,10.7450924 C95.1407069,10.2379695 93.9141081,9.98554513 92.6246069,9.98554513 L92.2404523,9.97190057 C91.1149468,9.97190057 90.1736558,9.58757874 89.4165793,8.8189351 C88.6550097,8.05256554 88.2775947,7.12246125 88.2775947,6.03089631 C88.2775947,4.94160546 88.6550097,4.0001307 89.4165793,3.20647202 C90.1736558,2.41281334 91.1149468,2.01484696 92.2404523,2.01484696 C92.2404523,2.01484696 93.2356597,2.03303971 93.4692976,2.05350655 C95.5450801,2.14901848 97.5220159,2.58109627 99.3888722,3.38612541 C101.511832,4.30713334 103.365209,5.56243302 104.940018,7.15657265 C106.514827,8.75071229 107.766137,10.6245654 108.696196,12.775858 C109.630747,14.9248765 110.09353,17.2080665 110.09353,19.6231539 L110.09353,35.2802886 C110.09353,37.6430719 109.644226,39.8648613 108.752359,41.9502052 L112.838775,46.0845074 Z" id="Fill-20" fill="#FEFEFE"></path><g id="Group-24" transform="translate(115.129999, 2.216559)"><mask id="mask-4" fill="white"><use xlink:href="#path-3"></use></mask><g id="Clip-23"></g><path d="M34.8704508,17.6105811 L34.8704508,46.487022 C34.8704508,47.5990538 34.4975288,48.5428026 33.760671,49.3159945 C33.0193201,50.0891863 32.1004942,50.4757822 31.001947,50.4757822 C29.9528231,50.4757822 29.0339973,50.0891863 28.247716,49.3159945 C27.4591883,48.5428026 27.0638011,47.5990538 27.0638011,46.487022 L27.0638011,35.2962072 L27.0638011,27.323235 L27.0638011,17.6105811 C27.0638011,16.3052513 26.8144376,15.0635962 26.3134641,13.8787934 C25.8124906,12.6939906 25.1183166,11.6683744 24.2376816,10.7996706 C23.3548001,9.92641869 22.3281414,9.23964242 21.1577056,8.73251954 C19.9872697,8.22539666 18.7359593,7.97069817 17.3992811,7.97069817 C16.062603,7.97069817 14.809046,8.22539666 13.6408567,8.73251954 C12.4704208,9.23964242 11.4572413,9.92641869 10.5968249,10.7996706 C9.73865508,11.6683744 9.05796016,12.6939906 8.55698667,13.8787934 C8.05376666,15.0635962 7.80440318,16.3052513 7.80440318,17.6105811 L7.80440318,24.9536294 L20.400629,24.9536294 C21.4991763,24.9536294 22.4269882,25.3402253 23.1930508,26.1134172 C23.9546203,26.8843349 24.3387749,27.8303578 24.3387749,28.9423896 C24.3387749,30.0021173 23.9546203,30.9344956 23.1930508,31.7304284 C22.4269882,32.5286353 21.4991763,32.9243276 20.400629,32.9243276 L7.80440318,32.9243276 L7.80440318,35.2962072 L7.80440318,37.2860392 C7.80440318,38.3957968 7.43372772,39.3395457 6.69462333,40.1104634 C5.95327243,40.8836553 5.03444661,41.2679771 3.93814587,41.2679771 C2.83959862,41.2679771 1.90954021,40.8836553 1.14572413,40.1104634 C0.381908043,39.3395457 0,38.3957968 0,37.2860392 L0,17.6105811 C0,15.1954936 0.453796615,12.9259482 1.35914333,10.7996706 C2.26673656,8.67111901 3.50681444,6.81318452 5.08387,5.21677079 C6.66092557,3.62490525 8.50756328,2.35368691 10.6327692,1.41448624 C12.7557286,0.470737381 15.0134791,0 17.3992811,0 C19.7873296,0 22.0405871,0.470737381 24.165793,1.41448624 C26.2887524,2.35368691 28.1398832,3.62490525 29.7146922,5.21677079 C31.2895013,6.81318452 32.5430583,8.67111901 33.4731167,10.7996706 C34.4031751,12.9259482 34.8704508,15.1954936 34.8704508,17.6105811" id="Fill-22" fill="#FEFEFE" mask="url(#mask-4)"></path></g></g></g></g></svg> 