<?xml version="1.0" encoding="UTF-8" standalone="no"?> <svg xmlns:dc="http://purl.org/dc/elements/1.1/" xmlns:cc="http://creativecommons.org/ns#" xmlns:rdf="http://www.w3.org/1999/02/22-rdf-syntax-ns#" xmlns:svg="http://www.w3.org/2000/svg" xmlns="http://www.w3.org/2000/svg" viewBox="0 0 557.58667 134.52" height="134.52" width="557.58667" xml:space="preserve" id="svg2" version="1.1"><metadata id="metadata8"></metadata><defs id="defs6"><clipPath id="clipPath60"><path id="path58" d="M 45.8516,0 H 4156.09 V 162.922 H 45.8516 Z"></path></clipPath></defs><g transform="matrix(1.3333333,0,0,-1.3333333,0,134.52)" id="g10"><g transform="scale(0.1)" id="g12"><path id="path14" style="fill:#72a26c;fill-opacity:1;fill-rule:nonzero;stroke:none" d="m 1039.88,550.992 c -3.15,-22.019 -8.44,-43.465 -15.87,-64.332 -7.44,-20.894 -17.46,-38.75 -30.026,-53.621 -12.589,-14.879 -28.601,-22.309 -48.039,-22.309 -18.871,0 -34.316,7.153 -46.32,21.446 -12.016,14.293 -21.598,31.597 -28.742,51.902 -7.16,20.293 -12.156,41.031 -15.016,62.199 -2.867,21.145 -4.289,38.606 -4.289,52.325 0,14.867 1.422,33.457 4.289,55.765 2.86,22.297 8.008,43.742 15.446,64.332 7.421,20.594 17.582,38.309 30.453,53.188 12.871,14.871 29.3,22.308 49.328,22.308 20.011,0 36.164,-7.164 48.465,-21.441 12.291,-14.309 21.731,-31.324 28.311,-51.051 6.57,-19.73 11,-40.312 13.29,-61.769 2.28,-21.446 3.44,-39.602 3.44,-54.469 0,-14.305 -1.58,-32.461 -4.72,-54.473 z m 54.47,202.453 c -17.15,18.575 -37.74,33.313 -61.76,44.184 -24.02,10.848 -51.195,16.297 -81.496,16.297 -29.168,0 -56.336,-5.449 -81.496,-16.297 -25.176,-10.871 -46.903,-25.609 -65.2,-44.184 -18.304,-18.59 -32.742,-40.609 -43.32,-66.054 -10.59,-25.453 -15.871,-52.754 -15.871,-81.926 0,-29.164 4.57,-56.762 13.727,-82.781 9.14,-26.028 22.304,-48.903 39.461,-68.629 17.16,-19.731 38.027,-35.321 62.625,-46.754 24.582,-11.426 52.035,-17.153 82.351,-17.153 29.168,0 56.324,5.872 81.499,17.582 25.16,11.711 46.75,27.458 64.76,47.188 18.02,19.727 32.17,42.59 42.47,68.617 10.3,26.02 15.44,53.332 15.44,81.93 0,29.172 -4.59,56.473 -13.73,81.926 -9.15,25.445 -22.3,47.464 -39.46,66.054"></path><path id="path16" style="fill:#72a26c;fill-opacity:1;fill-rule:nonzero;stroke:none" d="m 1627.07,765.641 c 3.43,-7.442 5.85,-15.446 7.29,-24.028 1.42,-8.582 2.15,-16.871 2.15,-24.875 v -85.781 c 14.28,25.152 29.72,49.32 46.32,72.484 16.58,23.161 33.46,46.176 50.61,69.063 v 0.851 c 0,4.575 -1.01,11.438 -3,20.594 -0.02,0.09 -0.04,0.184 -0.06,0.274 -2.36,10.535 -12.89,17.136 -23.57,15.511 l -118.35,-18.367 c 9.72,0 17.73,-2.433 24.03,-7.281 6.28,-4.875 11.15,-11.02 14.58,-18.445"></path><path id="path18" style="fill:#72a26c;fill-opacity:1;fill-rule:nonzero;stroke:none" d="m 2709.67,765.641 c 3.43,-7.442 5.86,-15.446 7.29,-24.028 1.42,-8.582 2.15,-16.871 2.15,-24.875 v -85.781 c 14.29,25.152 29.72,49.32 46.32,72.484 16.58,23.161 33.46,46.176 50.61,69.063 v 0.851 c 0,5.149 -0.85,12.012 -2.57,20.594 -0.02,0.086 -0.03,0.172 -0.05,0.254 -2.17,10.582 -12.77,17.242 -23.45,15.617 l -118.9,-18.453 c 9.72,0 17.72,-2.433 24.02,-7.281 6.28,-4.875 11.15,-11.02 14.58,-18.445"></path><path id="path20" style="fill:#72a26c;fill-opacity:1;fill-rule:nonzero;stroke:none" d="m 3400.13,519.434 c 0,-10.871 -2.13,-22.309 -6.43,-34.321 -4.29,-12 -10.16,-22.871 -17.59,-32.593 -7.44,-9.731 -16.44,-17.879 -27.02,-24.446 -10.59,-6.586 -21.87,-9.863 -33.89,-9.863 -22.3,0 -40.74,6.562 -55.32,19.727 -14.58,13.156 -26.17,29.164 -34.75,48.039 -8.58,18.878 -14.58,39.171 -18.01,60.906 -3.43,21.73 -5.15,41.183 -5.15,58.332 0,17.16 1.42,36.172 4.29,57.051 2.85,20.871 8.43,40.324 16.73,58.336 8.28,18.011 19.43,33.156 33.45,45.457 14.02,12.3 32.17,18.445 54.48,18.445 16.58,0 33.16,-4.582 49.76,-13.719 16.57,-9.152 29.73,-20.027 39.45,-32.601 z m 105.94,-71.629 c -3.72,7.14 -6.3,15.144 -7.71,24.011 -1.43,8.868 -2.15,17.02 -2.15,24.457 v 511.277 l -140.68,-24.015 c 9.14,0 16.58,-2.582 22.3,-7.73 5.71,-5.149 10.3,-11.45 13.73,-18.864 3.43,-7.441 5.71,-15.445 6.86,-24.027 1.14,-8.578 1.71,-16.297 1.71,-23.16 v -137.25 c -16.59,12.562 -35.03,22.43 -55.33,29.594 -20.3,7.14 -40.74,10.715 -61.33,10.715 -29.74,0 -55.63,-6.301 -77.64,-18.864 -22.02,-12.59 -40.46,-29.043 -55.33,-49.336 -14.88,-20.304 -26.03,-43.32 -33.45,-69.05 -7.45,-25.743 -11.16,-52.047 -11.16,-78.926 0,-27.449 3.29,-53.61 9.87,-78.485 6.57,-24.879 16.86,-46.754 30.88,-65.632 14.01,-18.875 32.02,-33.891 54.04,-45.04 22.01,-11.144 48.18,-16.726 78.5,-16.726 22.87,0 44.46,4.152 64.77,12.445 20.29,8.278 39.03,19.86 56.18,34.739 0.57,-7.438 1.72,-15.875 3.44,-25.309 1.71,-9.43 5.71,-17.004 12.01,-22.727 l 129.53,32.594 c -9.73,0 -17.73,2.422 -24.02,7.297 -6.3,4.848 -11.3,10.848 -15.02,18.012"></path><path id="path22" style="fill:#72a26c;fill-opacity:1;fill-rule:nonzero;stroke:none" d="m 3816.95,566.609 c 0,-14.293 -1.16,-29.593 -3.44,-45.89 -2.29,-16.297 -6.73,-31.453 -13.29,-45.469 -6.59,-14.02 -15.45,-25.73 -26.6,-35.176 -11.16,-9.429 -25.88,-14.148 -44.18,-14.148 -11.45,0 -21.16,2.855 -29.16,8.582 -8.02,5.711 -14.6,12.863 -19.73,21.445 -5.15,8.578 -8.88,18.012 -11.16,28.309 -2.29,10.297 -3.44,20.015 -3.44,29.16 0,26.305 5.44,46.469 16.31,60.484 10.85,14.004 24.02,25.586 39.46,34.742 15.45,9.145 31.87,17.868 49.32,26.161 17.44,8.293 32.74,20.16 45.91,35.605 z m 99.92,-133.386 c -3.14,9.996 -4.71,19.863 -4.71,29.593 v 201.598 c 0,44.606 -8.44,77.766 -25.3,99.508 -16.88,21.723 -47.33,37.168 -91.37,46.324 -16.01,2.856 -30.6,4.281 -43.74,4.281 -14.88,0 -31.61,-1.425 -50.19,-4.281 -18.59,-2.867 -36.03,-8.016 -52.33,-15.445 -16.3,-7.442 -29.89,-17.449 -40.75,-30.028 -10.87,-12.585 -16.29,-28.308 -16.29,-47.171 0,-14.883 5.85,-28.309 17.58,-40.325 11.71,-12.011 25.01,-18.011 39.89,-18.011 31.44,0 47.18,14.281 47.18,42.89 0,6.289 -1.86,11.856 -5.58,16.731 -3.72,4.847 -7.58,9.289 -11.58,13.293 -1.71,4.574 -2.56,8.859 -2.56,12.867 0,18.301 6.99,31.598 21.01,39.891 14,8.277 29.02,12.441 45.04,12.441 17.16,0 33.73,-4.008 49.75,-12.012 16.01,-8.015 24.03,-22.019 24.03,-42.039 0,-16.594 -5.73,-31.449 -17.16,-44.605 -11.45,-13.164 -25.18,-24.875 -41.18,-35.172 -16.02,-10.297 -32.75,-19.024 -50.19,-26.16 -17.44,-7.164 -32.46,-13.024 -45.03,-17.594 -27.46,-9.723 -49.9,-23.449 -67.35,-41.176 -17.45,-17.734 -26.16,-42.324 -26.16,-73.766 0,-36.613 12.29,-64.921 36.89,-84.929 24.57,-20.028 54.32,-30.024 89.21,-30.024 24.03,0 47.32,5.289 69.92,15.864 22.58,10.574 40.45,26.16 53.61,46.754 0.64,-6.516 3.17,-13.055 6.5,-19.098 12.84,-23.336 37.39,-37.871 63.97,-39.633 5.05,-0.336 10.18,-0.453 15.31,-0.453 6.87,0 14.05,1.066 21.56,3.211 14.08,4.019 28.33,15.519 37.64,26.812 -8.01,-3.433 -16.29,-5.148 -24.87,-5.148 -12.02,0 -19.6,4.992 -22.75,15.012"></path><path id="path24" style="fill:#72a26c;fill-opacity:1;fill-rule:nonzero;stroke:none" d="m 2378.54,686.109 c 3.43,18.301 9.01,35.606 16.73,51.903 7.72,16.297 17.58,30.156 29.59,41.605 12.01,11.438 26.88,17.16 44.61,17.16 17.16,0 31.31,-5.879 42.47,-17.593 11.15,-11.723 20.01,-25.883 26.59,-42.457 6.56,-16.598 11.29,-33.891 14.16,-51.903 2.85,-18.011 4.29,-33.601 4.29,-46.754 h -184.45 c 0.57,13.731 2.58,29.727 6.01,48.039 z m 689.05,-248.191 c -3.95,10.168 -6.64,20.883 -8.04,32.187 -1.42,11.297 -2.12,21.18 -2.12,29.657 v 171.636 l -0.33,0.055 v 16.371 c 0,36.028 -10.72,64.766 -32.17,86.211 -21.44,21.445 -50.18,32.176 -86.22,32.176 -28.6,0 -52.19,-5.582 -70.76,-16.731 -18.6,-11.148 -35.33,-28.453 -50.19,-51.902 -15.44,-24.59 -31.89,-48.469 -49.33,-71.633 -17.45,-23.16 -34.46,-46.754 -51.04,-70.765 -11.45,-16.598 -24.45,-34.465 -39.03,-53.617 -14.59,-19.168 -30.75,-36.891 -48.47,-53.188 -17.74,-16.297 -36.61,-29.895 -56.62,-40.742 -20.02,-10.871 -41.47,-16.309 -64.34,-16.309 -20.59,0 -39.32,5.438 -56.19,16.309 -16.87,10.847 -31.46,24.578 -43.74,41.176 -12.31,16.57 -21.88,34.871 -28.74,54.902 -6.87,20.004 -10.3,39.457 -10.3,58.332 0,2.855 0,5.715 0,8.582 0,2.844 0.28,5.699 0.86,8.566 h 289.95 c -1.15,28.598 -6.3,54.903 -15.44,78.93 -9.15,24.024 -21.87,44.606 -38.17,61.766 -16.3,17.16 -36.03,30.457 -59.2,39.89 -23.16,9.434 -49.61,14.149 -79.34,14.149 -30.89,0 -58.63,-5.723 -83.22,-17.149 -24.59,-11.449 -45.46,-26.894 -62.62,-46.336 -17.16,-19.437 -30.45,-42.324 -39.89,-68.617 -9.43,-26.316 -14.16,-54.051 -14.16,-83.211 0,-30.89 4.58,-59.054 13.73,-84.496 9.14,-25.453 22.31,-47.488 39.46,-66.062 17.16,-18.59 38.17,-32.895 63.05,-42.891 24.88,-9.996 53.04,-15.016 84.5,-15.016 6.29,0 12.57,0.301 18.87,0.868 6.29,0.574 12.58,1.425 18.88,2.566 18.3,4.008 38.02,12.445 59.19,25.309 21.15,12.867 41.6,28.011 61.33,45.468 19.74,17.438 37.75,35.883 54.05,55.325 16.3,19.441 28.45,37.179 36.46,53.187 l 0.86,1.715 v -73.398 c 0,-9.157 -0.73,-19.454 -2.15,-30.879 -1.43,-11.45 -4.29,-22.176 -8.57,-32.172 -4.29,-10.008 -10.17,-18.59 -17.59,-25.731 -7.44,-7.164 -17.16,-10.726 -29.17,-10.726 h 211.03 c -12.01,0 -21.59,3.562 -28.74,10.726 -7.15,7.141 -12.86,15.723 -17.15,25.731 -4.29,9.996 -7.16,20.722 -8.58,32.172 -1.44,11.425 -2.15,21.722 -2.15,30.879 v 187.5 c 0,8.57 2.71,17.714 8.15,27.445 5.43,9.722 12.3,18.879 20.59,27.457 8.29,8.57 17.29,15.578 27.03,21.015 9.72,5.422 18.87,8.149 27.45,8.149 10.29,0 19.3,-2.727 27.02,-8.149 7.72,-5.437 14.15,-12.3 19.3,-20.593 5.15,-8.293 9,-17.449 11.58,-27.446 2.53,-9.832 3.78,-19.25 3.83,-28.246 l -0.15,0.028 V 499.762 c 0,-9.043 -0.71,-19.211 -2.11,-30.496 -1.42,-11.305 -4.24,-21.903 -8.48,-31.774 -4.23,-9.887 -9.89,-18.359 -16.94,-25.41 -7.07,-7.078 -16.52,-10.598 -28.38,-10.598 h 207.57 c -11.31,0 -20.63,3.52 -27.96,10.598 -7.35,7.051 -13,15.668 -16.95,25.836"></path><path id="path26" style="fill:#72a26c;fill-opacity:1;fill-rule:nonzero;stroke:none" d="m 1295.94,686.109 c 3.43,18.301 9,35.606 16.73,51.903 7.72,16.297 17.58,30.156 29.59,41.605 12.01,11.438 26.87,17.16 44.61,17.16 17.16,0 31.31,-5.879 42.47,-17.593 11.14,-11.723 20.01,-25.883 26.59,-42.457 6.56,-16.598 11.29,-33.891 14.15,-51.903 2.86,-18.011 4.29,-33.601 4.29,-46.754 h -184.44 c 0.56,13.731 2.57,29.727 6.01,48.039 z m 928.78,-247.328 c -4.01,10.297 -6.73,21.149 -8.15,32.594 -1.07,8.512 -1.6,12.66 -1.88,19.586 v 184 c 0,41.734 -10.72,74.906 -32.16,99.508 -21.45,24.59 -53.62,36.89 -96.51,36.89 -53.76,0 -94.66,-23.164 -122.67,-69.484 -3.43,11.426 -8.88,21.145 -16.3,29.16 -7.44,8.004 -16.17,14.727 -26.16,20.16 -10.02,5.426 -20.74,9.434 -32.18,12.016 -11.44,2.566 -22.3,3.852 -32.6,3.852 -28.03,0 -51.47,-5.872 -70.34,-17.583 -18.87,-11.722 -35.75,-29.027 -50.61,-51.902 -16.02,-24.59 -32.6,-48.469 -49.76,-71.633 -17.16,-23.16 -34.03,-46.754 -50.61,-70.765 -12.01,-17.16 -25.45,-35.317 -40.32,-54.469 -14.88,-19.18 -31.03,-36.891 -48.47,-53.188 -17.45,-16.308 -36.46,-29.894 -57.05,-40.753 -20.58,-10.875 -42.6,-16.297 -66.05,-16.297 -20.59,0 -39.18,5.578 -55.76,16.726 -16.59,11.149 -30.75,25.153 -42.46,42.039 -11.73,16.86 -20.89,35.45 -27.45,55.754 -6.59,20.293 -9.87,39.317 -9.87,57.051 0,2.855 0,5.57 0,8.148 0,2.571 0.28,5.282 0.85,8.149 h 289.96 c -1.15,29.164 -6.15,55.754 -15.01,79.781 -8.88,24.024 -21.45,44.606 -37.75,61.766 -16.3,17.16 -36.02,30.457 -59.19,39.89 -23.16,9.434 -49.9,14.149 -80.21,14.149 -30.88,0 -58.63,-5.723 -83.21,-17.149 -24.59,-11.449 -45.46,-26.894 -62.62,-46.336 -17.16,-19.437 -30.46,-42.324 -39.89,-68.617 -9.44,-26.316 -14.16,-54.051 -14.16,-83.211 0,-29.175 4.29,-56.488 12.87,-81.929 8.58,-25.454 21.02,-47.473 37.32,-66.051 16.29,-18.59 36.46,-33.324 60.47,-44.188 24.02,-10.847 51.18,-16.297 81.5,-16.297 12.01,0 24.45,1.008 37.32,3 12.87,2.02 25.01,5.305 36.45,9.868 16.59,6.289 33.46,16.152 50.62,29.605 17.16,13.43 33.89,28.309 50.18,44.606 16.31,16.296 31.6,33.156 45.9,50.605 14.29,17.449 26.87,33.039 37.75,46.754 v -73.398 c 0,-9.157 -0.73,-19.454 -2.15,-30.879 -1.44,-11.45 -4.29,-22.176 -8.58,-32.172 -4.29,-10.008 -10.16,-18.59 -17.58,-25.731 -7.44,-7.164 -17.16,-10.726 -29.17,-10.726 h 211.03 c -12.01,0 -21.59,3.562 -28.74,10.726 -7.15,7.141 -12.87,15.723 -17.16,25.731 -4.29,9.996 -7.15,20.722 -8.58,32.172 -1.43,11.425 -2.14,21.722 -2.14,30.879 v 187.5 c 0,8.57 2.71,17.714 8.15,27.445 5.43,9.722 12.29,18.879 20.59,27.457 8.28,8.57 17.29,15.578 27.02,21.015 9.72,5.422 18.87,8.149 27.45,8.149 10.3,0 19.31,-2.727 27.02,-8.149 7.73,-5.437 14.16,-12.3 19.31,-20.593 5.14,-8.293 9,-17.449 11.58,-27.446 2.57,-10.007 3.86,-19.597 3.86,-28.742 V 501.188 c 0,-9.157 -0.73,-19.454 -2.15,-30.879 -1.43,-11.45 -4.15,-22.176 -8.15,-32.172 -4,-10.008 -9.73,-18.59 -17.15,-25.731 -7.44,-7.164 -17.16,-10.726 -29.17,-10.726 h 208.46 c -12.01,0 -21.6,3.562 -28.74,10.726 -7.16,7.141 -12.74,15.723 -16.73,25.731 -4,9.996 -6.73,20.722 -8.14,32.172 -1.44,11.425 -2.15,21.722 -2.15,30.879 v 186.636 c 0,10.297 1.56,20.727 4.71,31.309 3.14,10.586 7.73,20.16 13.73,28.742 6.01,8.578 13.43,15.723 22.3,21.445 8.87,5.711 19.01,8.578 30.46,8.578 11.43,0 21.58,-2.722 30.45,-8.144 8.86,-5.449 16.3,-12.59 22.31,-21.445 6,-8.883 10.58,-18.59 13.73,-29.176 2.76,-9.356 4.11,-18.574 4.44,-27.703 V 498.098 c 0,-9.157 -0.73,-16.149 -2.14,-27.575 -1.44,-11.449 -4.29,-22.175 -8.58,-32.171 -4.29,-10.008 -10.02,-18.59 -17.16,-25.731 -7.16,-7.164 -16.73,-10.726 -28.74,-10.726 h 210.17 c -11.44,0 -20.88,3.562 -28.31,10.726 -7.43,7.141 -13.16,15.863 -17.15,26.16"></path><path id="path28" style="fill:#72a26c;fill-opacity:1;fill-rule:nonzero;stroke:none" d="m 406.258,504.574 c -8.914,-18.14 -20.817,-33.75 -35.672,-46.812 -14.871,-13.086 -32.106,-23.055 -51.731,-29.879 -19.621,-6.852 -40.132,-10.258 -61.535,-10.258 -10.703,0 -21.117,1.188 -31.215,3.57 -10.117,2.368 -19.175,6.239 -27.207,11.59 -8.027,5.352 -14.57,12.324 -19.617,20.961 -5.058,8.606 -7.578,18.863 -7.578,30.766 V 711.93 h 0.09 v 17.84 h -0.09 v 259.535 h 85.617 c 38.043,0 67.629,-12.352 88.739,-37.02 21.097,-24.676 31.66,-55.445 31.66,-92.301 0,-37.453 -6.016,-70.879 -24.067,-97.629 -24.363,-36.113 -70.918,-54.82 -70.918,-54.82 0,0 24.938,2.567 48.579,-4.375 23.644,-6.937 45.035,-16.824 59.042,-36.297 0.098,-0.136 0.196,-0.273 0.293,-0.41 9.813,-13.687 17.086,-29.293 21.852,-46.824 4.754,-17.539 7.137,-35.531 7.137,-53.957 0,-22.609 -4.461,-42.957 -13.379,-61.098 z m 74.918,172.133 c -14.871,14.563 -32.262,26.152 -52.176,34.785 -19.461,8.41 -40.941,12.664 -41.93,12.86 -0.074,0.015 -0.199,-0.079 -0.129,-0.047 1.321,0.617 24.637,12.234 49.957,34.859 13.989,12.504 28.965,33.488 37.586,50.43 8.614,16.941 12.93,35.82 12.93,56.629 0,21.996 -4.453,41.773 -13.375,59.312 -8.918,17.531 -20.961,32.551 -36.117,45.039 -15.164,12.492 -32.414,21.985 -51.727,28.535 -19.332,6.541 -39.398,9.821 -60.207,9.821 H 0.00390625 v -0.78 C 21.0117,1005.51 36.9414,996.129 47.7305,979.934 60.2188,961.207 66.457,939.945 66.457,916.168 V 493.434 c 0,-11.305 -1.4882,-22.457 -4.4531,-33.45 C 59.0234,448.98 54.5625,439.172 48.625,430.551 42.6719,421.93 34.9375,414.945 25.4375,409.59 17.8984,405.352 9.39844,402.867 0.00390625,401.984 V 401.57 H 366.129 c 21.988,0 42.949,4.153 62.871,12.489 19.914,8.32 37.305,19.613 52.176,33.886 14.855,14.27 26.758,31.215 35.672,50.84 8.918,19.613 13.379,40.711 13.379,63.317 0,22.593 -4.461,43.703 -13.379,63.328 -8.914,19.613 -20.817,36.707 -35.672,51.277"></path><path id="path30" style="fill:#72a26c;fill-opacity:1;fill-rule:nonzero;stroke:none" d="m 4161.52,412.297 c -6.87,7.141 -12.31,15.723 -16.3,25.73 -4.01,9.996 -6.58,20.723 -7.72,32.172 -1.16,11.426 -1.72,21.446 -1.72,30.028 v 508.703 l -145.83,-23.16 c 10.29,0 18.58,-2.293 24.88,-6.864 6.28,-4.586 11.15,-10.441 14.58,-17.593 3.43,-7.153 5.85,-15.157 7.29,-24.016 1.42,-8.879 2.15,-17.305 2.15,-25.309 v -410.91 c 0,-9.156 -0.86,-19.598 -2.58,-31.308 -1.71,-11.727 -4.86,-22.598 -9.44,-32.594 -4.58,-10.024 -10.72,-18.446 -18.44,-25.313 -5.87,-5.218 -13,-8.425 -21.35,-9.679 v -0.614 h 194.91 v 0.618 c -8.32,1.265 -15.16,4.601 -20.43,10.109"></path><path id="path32" style="fill:#72a26c;fill-opacity:1;fill-rule:nonzero;stroke:none" d="m 697.254,438.027 c -4.008,9.996 -6.582,20.723 -7.723,32.172 -1.152,11.426 -1.715,21.446 -1.715,30.028 V 1008.93 L 541.984,985.77 c 10.293,0 18.579,-2.293 24.879,-6.864 6.282,-4.586 11.149,-10.441 14.582,-17.593 3.43,-7.153 5.856,-15.157 7.289,-24.016 1.422,-8.879 2.149,-17.305 2.149,-25.309 v -410.91 c 0,-9.156 -0.86,-19.598 -2.574,-31.308 -1.719,-11.727 -4.868,-22.598 -9.442,-32.594 -4.582,-10.024 -10.719,-18.446 -18.441,-25.313 -5.871,-5.218 -13,-8.425 -21.352,-9.679 v -0.614 h 194.91 v 0.618 c -8.32,1.265 -15.156,4.601 -20.433,10.109 -6.863,7.141 -12.305,15.723 -16.297,25.73"></path><path id="path34" style="fill:#72a26c;fill-opacity:1;fill-rule:nonzero;stroke:none" d="m 1039.88,550.992 c -3.15,-22.019 -8.45,-43.465 -15.87,-64.332 -7.45,-20.894 -17.46,-38.75 -30.03,-53.621 -12.589,-14.879 -28.601,-22.309 -48.039,-22.309 -18.871,0 -34.316,7.153 -46.324,21.446 -12.012,14.293 -21.594,31.597 -28.738,51.902 -7.16,20.293 -12.156,41.031 -15.016,62.199 -2.867,21.145 -4.289,38.606 -4.289,52.325 0,14.867 1.422,33.457 4.289,55.765 2.86,22.297 8.008,43.742 15.446,64.332 7.421,20.594 17.582,38.309 30.453,53.188 12.871,14.871 29.301,22.308 49.328,22.308 20.012,0 36.164,-7.164 48.465,-21.441 12.295,-14.309 21.735,-31.324 28.305,-51.051 6.57,-19.73 11.01,-40.312 13.3,-61.769 2.28,-21.446 3.43,-39.602 3.43,-54.469 0,-14.305 -1.58,-32.461 -4.71,-54.473 z m 54.47,202.453 c -17.16,18.575 -37.75,33.313 -61.76,44.184 -24.02,10.848 -51.199,16.297 -81.5,16.297 -29.168,0 -56.336,-5.449 -81.496,-16.297 -25.176,-10.871 -46.906,-25.609 -65.199,-44.184 -18.305,-18.59 -32.743,-40.609 -43.325,-66.054 -10.59,-25.453 -15.867,-52.754 -15.867,-81.926 0,-29.164 4.57,-56.762 13.727,-82.781 9.14,-26.028 22.304,-48.903 39.461,-68.629 17.16,-19.731 38.027,-35.321 62.621,-46.754 24.586,-11.426 52.035,-17.153 82.355,-17.153 29.168,0 56.324,5.872 81.493,17.582 25.16,11.711 46.76,27.458 64.77,47.188 18.01,19.727 32.17,42.59 42.46,68.617 10.3,26.02 15.44,53.332 15.44,81.93 0,29.172 -4.58,56.473 -13.72,81.926 -9.16,25.445 -22.3,47.464 -39.46,66.054"></path><path id="path36" style="fill:#72a26c;fill-opacity:1;fill-rule:nonzero;stroke:none" d="m 1627.06,765.641 c 3.44,-7.442 5.86,-15.446 7.29,-24.028 1.43,-8.582 2.15,-16.871 2.15,-24.875 v -85.781 c 14.29,25.152 29.73,49.32 46.32,72.484 16.58,23.161 33.46,46.176 50.62,69.063 v 0.851 c 0,4.575 -1.01,11.438 -3,20.594 -0.02,0.09 -0.04,0.184 -0.06,0.274 -2.36,10.535 -12.9,17.136 -23.57,15.511 l -118.35,-18.367 c 9.72,0 17.72,-2.433 24.02,-7.281 6.29,-4.875 11.15,-11.02 14.58,-18.445"></path><path id="path38" style="fill:#72a26c;fill-opacity:1;fill-rule:nonzero;stroke:none" d="m 2709.67,765.641 c 3.43,-7.442 5.85,-15.446 7.29,-24.028 1.42,-8.582 2.15,-16.871 2.15,-24.875 v -85.781 c 14.28,25.152 29.72,49.32 46.32,72.484 16.58,23.161 33.45,46.176 50.61,69.063 v 0.851 c 0,5.149 -0.86,12.012 -2.57,20.594 -0.02,0.086 -0.04,0.172 -0.06,0.254 -2.16,10.582 -12.77,17.242 -23.44,15.617 l -118.91,-18.453 c 9.72,0 17.73,-2.433 24.03,-7.281 6.28,-4.875 11.14,-11.02 14.58,-18.445"></path><path id="path40" style="fill:#72a26c;fill-opacity:1;fill-rule:nonzero;stroke:none" d="m 3400.13,519.434 c 0,-10.871 -2.14,-22.309 -6.43,-34.321 -4.29,-12 -10.16,-22.871 -17.59,-32.593 -7.44,-9.731 -16.45,-17.879 -27.02,-24.446 -10.59,-6.586 -21.88,-9.863 -33.89,-9.863 -22.3,0 -40.75,6.562 -55.33,19.727 -14.58,13.156 -26.17,29.164 -34.74,48.039 -8.58,18.878 -14.59,39.171 -18.02,60.906 -3.43,21.73 -5.14,41.183 -5.14,58.332 0,17.16 1.42,36.172 4.28,57.051 2.86,20.871 8.44,40.324 16.73,58.336 8.29,18.011 19.44,33.156 33.46,45.457 14.01,12.3 32.17,18.445 54.48,18.445 16.58,0 33.15,-4.582 49.75,-13.719 16.58,-9.152 29.73,-20.027 39.46,-32.601 z m 105.94,-71.629 c -3.72,7.14 -6.3,15.144 -7.72,24.011 -1.42,8.868 -2.14,17.02 -2.14,24.457 v 511.277 l -140.69,-24.015 c 9.14,0 16.58,-2.582 22.31,-7.73 5.71,-5.149 10.29,-11.45 13.72,-18.864 3.44,-7.441 5.71,-15.445 6.86,-24.027 1.14,-8.578 1.72,-16.297 1.72,-23.16 v -137.25 c -16.59,12.562 -35.04,22.43 -55.33,29.594 -20.31,7.14 -40.75,10.715 -61.34,10.715 -29.74,0 -55.62,-6.301 -77.63,-18.864 -22.02,-12.59 -40.47,-29.043 -55.33,-49.336 -14.88,-20.304 -26.04,-43.32 -33.46,-69.05 -7.44,-25.743 -11.15,-52.047 -11.15,-78.926 0,-27.449 3.28,-53.61 9.86,-78.485 6.57,-24.879 16.87,-46.754 30.88,-65.632 14.02,-18.875 32.03,-33.891 54.05,-45.04 22.01,-11.144 48.17,-16.726 78.49,-16.726 22.87,0 44.47,4.152 64.77,12.445 20.3,8.278 39.03,19.86 56.19,34.739 0.56,-7.438 1.72,-15.875 3.43,-25.309 1.72,-9.43 5.71,-17.004 12.01,-22.727 l 129.54,32.594 c -9.74,0 -17.74,2.422 -24.03,7.297 -6.3,4.848 -11.29,10.848 -15.01,18.012"></path><path id="path42" style="fill:#72a26c;fill-opacity:1;fill-rule:nonzero;stroke:none" d="m 3816.94,566.609 c 0,-14.293 -1.15,-29.593 -3.43,-45.89 -2.29,-16.297 -6.73,-31.453 -13.3,-45.469 -6.59,-14.02 -15.44,-25.73 -26.59,-35.176 -11.16,-9.429 -25.89,-14.148 -44.19,-14.148 -11.45,0 -21.15,2.855 -29.16,8.582 -8.01,5.711 -14.59,12.863 -19.73,21.445 -5.15,8.578 -8.88,18.012 -11.16,28.309 -2.29,10.297 -3.43,20.015 -3.43,29.16 0,26.305 5.44,46.469 16.31,60.484 10.85,14.004 24.01,25.586 39.46,34.742 15.44,9.145 31.87,17.868 49.32,26.161 17.44,8.293 32.74,20.16 45.9,35.605 z m 99.93,-133.386 c -3.14,9.996 -4.72,19.863 -4.72,29.593 v 201.598 c 0,44.606 -8.43,77.766 -25.29,99.508 -16.89,21.723 -47.33,37.168 -91.38,46.324 -16,2.856 -30.6,4.281 -43.74,4.281 -14.88,0 -31.61,-1.425 -50.18,-4.281 -18.59,-2.867 -36.03,-8.016 -52.34,-15.445 -16.3,-7.442 -29.88,-17.449 -40.74,-30.028 -10.87,-12.585 -16.3,-28.308 -16.3,-47.171 0,-14.883 5.86,-28.309 17.58,-40.325 11.72,-12.011 25.01,-18.011 39.89,-18.011 31.44,0 47.19,14.281 47.19,42.89 0,6.289 -1.86,11.856 -5.58,16.731 -3.72,4.847 -7.59,9.289 -11.58,13.293 -1.72,4.574 -2.57,8.859 -2.57,12.867 0,18.301 7,31.598 21.01,39.891 14.01,8.277 29.02,12.441 45.04,12.441 17.16,0 33.74,-4.008 49.76,-12.012 16.01,-8.015 24.02,-22.019 24.02,-42.039 0,-16.594 -5.72,-31.449 -17.16,-44.605 -11.45,-13.164 -25.18,-24.875 -41.17,-35.172 -16.02,-10.297 -32.75,-19.024 -50.19,-26.16 -17.45,-7.164 -32.46,-13.024 -45.04,-17.594 -27.45,-9.723 -49.9,-23.449 -67.34,-41.176 -17.45,-17.734 -26.17,-42.324 -26.17,-73.766 0,-36.613 12.29,-64.921 36.89,-84.929 24.58,-20.028 54.33,-30.024 89.22,-30.024 24.02,0 47.31,5.289 69.91,15.864 22.59,10.574 40.46,26.16 53.62,46.754 0.63,-6.516 3.16,-13.055 6.49,-19.098 12.84,-23.336 37.4,-37.871 63.98,-39.633 5.05,-0.336 10.18,-0.453 15.31,-0.453 6.86,0 14.05,1.066 21.56,3.211 14.07,4.019 28.32,15.519 37.64,26.812 -8.02,-3.433 -16.3,-5.148 -24.88,-5.148 -12.01,0 -19.6,4.992 -22.74,15.012"></path><path id="path44" style="fill:#72a26c;fill-opacity:1;fill-rule:nonzero;stroke:none" d="m 2378.53,686.109 c 3.44,18.301 9.01,35.606 16.73,51.903 7.73,16.297 17.59,30.156 29.6,41.605 12.01,11.438 26.87,17.16 44.61,17.16 17.15,0 31.31,-5.879 42.46,-17.593 11.15,-11.723 20.01,-25.883 26.6,-42.457 6.56,-16.598 11.28,-33.891 14.15,-51.903 2.86,-18.011 4.29,-33.601 4.29,-46.754 h -184.44 c 0.56,13.731 2.57,29.727 6,48.039 z m 689.06,-248.191 c -3.96,10.168 -6.64,20.883 -8.05,32.187 -1.41,11.297 -2.12,21.18 -2.12,29.657 v 171.636 l -0.33,0.055 v 16.371 c 0,36.028 -10.72,64.766 -32.16,86.211 -21.45,21.445 -50.19,32.176 -86.22,32.176 -28.6,0 -52.19,-5.582 -70.77,-16.731 -18.59,-11.148 -35.32,-28.453 -50.18,-51.902 -15.44,-24.59 -31.89,-48.469 -49.33,-71.633 -17.45,-23.16 -34.46,-46.754 -51.04,-70.765 -11.45,-16.598 -24.45,-34.465 -39.03,-53.617 -14.59,-19.168 -30.75,-36.891 -48.47,-53.188 -17.74,-16.297 -36.61,-29.895 -56.62,-40.742 -20.03,-10.871 -41.48,-16.309 -64.34,-16.309 -20.59,0 -39.33,5.438 -56.19,16.309 -16.87,10.847 -31.46,24.578 -43.75,41.176 -12.3,16.57 -21.88,34.871 -28.74,54.902 -6.86,20.004 -10.29,39.457 -10.29,58.332 0,2.855 0,5.715 0,8.582 0,2.844 0.28,5.699 0.85,8.566 h 289.96 c -1.15,28.598 -6.3,54.903 -15.44,78.93 -9.16,24.024 -21.88,44.606 -38.18,61.766 -16.3,17.16 -36.02,30.457 -59.19,39.89 -23.16,9.434 -49.62,14.149 -79.35,14.149 -30.88,0 -58.63,-5.723 -83.21,-17.149 -24.6,-11.449 -45.47,-26.894 -62.63,-46.336 -17.15,-19.437 -30.45,-42.324 -39.89,-68.617 -9.43,-26.316 -14.15,-54.051 -14.15,-83.211 0,-30.89 4.57,-59.054 13.73,-84.496 9.14,-25.453 22.3,-47.488 39.46,-66.062 17.16,-18.59 38.17,-32.895 63.05,-42.891 24.88,-9.996 53.04,-15.016 84.5,-15.016 6.29,0 12.57,0.301 18.87,0.868 6.29,0.574 12.58,1.425 18.87,2.566 18.3,4.008 38.03,12.445 59.19,25.309 21.15,12.867 41.61,28.011 61.34,45.468 19.73,17.438 37.75,35.883 54.04,55.325 16.31,19.441 28.45,37.179 36.47,53.187 l 0.86,1.715 v -73.398 c 0,-9.157 -0.73,-19.454 -2.15,-30.879 -1.44,-11.45 -4.29,-22.176 -8.58,-32.172 -4.29,-10.008 -10.16,-18.59 -17.58,-25.731 -7.44,-7.164 -17.17,-10.726 -29.17,-10.726 h 211.03 c -12.01,0 -21.6,3.562 -28.74,10.726 -7.16,7.141 -12.87,15.723 -17.16,25.731 -4.29,9.996 -7.16,20.722 -8.58,32.172 -1.43,11.425 -2.14,21.722 -2.14,30.879 v 187.5 c 0,8.57 2.71,17.714 8.15,27.445 5.43,9.722 12.29,18.879 20.59,27.457 8.28,8.57 17.29,15.578 27.02,21.015 9.72,5.422 18.87,8.149 27.45,8.149 10.3,0 19.3,-2.727 27.02,-8.149 7.72,-5.437 14.16,-12.3 19.3,-20.593 5.15,-8.293 9.01,-17.449 11.58,-27.446 2.53,-9.832 3.79,-19.25 3.83,-28.246 l -0.14,0.028 V 499.762 c 0,-9.043 -0.72,-19.211 -2.12,-30.496 -1.41,-11.305 -4.23,-21.903 -8.47,-31.774 -4.24,-9.887 -9.89,-18.359 -16.94,-25.41 -7.07,-7.078 -16.52,-10.598 -28.39,-10.598 h 207.57 c -11.3,0 -20.62,3.52 -27.96,10.598 -7.34,7.051 -12.99,15.668 -16.94,25.836"></path><path id="path46" style="fill:#72a26c;fill-opacity:1;fill-rule:nonzero;stroke:none" d="m 1295.93,686.109 c 3.43,18.301 9.01,35.606 16.73,51.903 7.72,16.297 17.59,30.156 29.59,41.605 12.02,11.438 26.88,17.16 44.62,17.16 17.15,0 31.31,-5.879 42.46,-17.593 11.15,-11.723 20.01,-25.883 26.59,-42.457 6.57,-16.598 11.29,-33.891 14.16,-51.903 2.86,-18.011 4.29,-33.601 4.29,-46.754 h -184.44 c 0.56,13.731 2.57,29.727 6,48.039 z m 928.78,-247.328 c -4.01,10.297 -6.72,21.149 -8.15,32.594 -1.06,8.512 -1.6,12.66 -1.87,19.586 v 184 c 0,41.734 -10.72,74.906 -32.17,99.508 -21.44,24.59 -53.62,36.89 -96.51,36.89 -53.76,0 -94.66,-23.164 -122.67,-69.484 -3.43,11.426 -8.87,21.145 -16.3,29.16 -7.44,8.004 -16.16,14.727 -26.16,20.16 -10.01,5.426 -20.74,9.434 -32.17,12.016 -11.45,2.566 -22.31,3.852 -32.6,3.852 -28.03,0 -51.47,-5.872 -70.34,-17.583 -18.88,-11.722 -35.75,-29.027 -50.62,-51.902 -16.02,-24.59 -32.6,-48.469 -49.75,-71.633 -17.16,-23.16 -34.03,-46.754 -50.61,-70.765 -12.02,-17.16 -25.46,-35.317 -40.33,-54.469 -14.87,-19.18 -31.02,-36.891 -48.47,-53.188 -17.44,-16.308 -36.45,-29.894 -57.04,-40.753 -20.59,-10.875 -42.61,-16.297 -66.05,-16.297 -20.59,0 -39.18,5.578 -55.76,16.726 -16.6,11.149 -30.75,25.153 -42.47,42.039 -11.73,16.86 -20.88,35.45 -27.45,55.754 -6.58,20.293 -9.86,39.317 -9.86,57.051 0,2.855 0,5.57 0,8.148 0,2.571 0.27,5.282 0.85,8.149 h 289.96 c -1.15,29.164 -6.16,55.754 -15.02,79.781 -8.87,24.024 -21.44,44.606 -37.74,61.766 -16.3,17.16 -36.03,30.457 -59.2,39.89 -23.16,9.434 -49.89,14.149 -80.2,14.149 -30.88,0 -58.63,-5.723 -83.21,-17.149 -24.6,-11.449 -45.47,-26.894 -62.63,-46.336 -17.15,-19.437 -30.45,-42.324 -39.89,-68.617 -9.43,-26.316 -14.15,-54.051 -14.15,-83.211 0,-29.175 4.29,-56.488 12.87,-81.929 8.57,-25.454 21.02,-47.473 37.31,-66.051 16.3,-18.59 36.46,-33.324 60.48,-44.188 24.02,-10.847 51.18,-16.297 81.5,-16.297 12.01,0 24.45,1.008 37.31,3 12.87,2.02 25.02,5.305 36.46,9.868 16.58,6.289 33.46,16.152 50.62,29.605 17.15,13.43 33.88,28.309 50.18,44.606 16.3,16.296 31.59,33.156 45.89,50.605 14.29,17.449 26.88,33.039 37.75,46.754 v -73.398 c 0,-9.157 -0.72,-19.454 -2.15,-30.879 -1.43,-11.45 -4.29,-22.176 -8.57,-32.172 -4.29,-10.008 -10.16,-18.59 -17.59,-25.731 -7.44,-7.164 -17.16,-10.726 -29.16,-10.726 h 211.03 c -12.02,0 -21.6,3.562 -28.75,10.726 -7.15,7.141 -12.86,15.723 -17.15,25.731 -4.29,9.996 -7.16,20.722 -8.58,32.172 -1.43,11.425 -2.14,21.722 -2.14,30.879 v 187.5 c 0,8.57 2.7,17.714 8.15,27.445 5.43,9.722 12.29,18.879 20.58,27.457 8.29,8.57 17.3,15.578 27.03,21.015 9.72,5.422 18.87,8.149 27.45,8.149 10.3,0 19.3,-2.727 27.02,-8.149 7.72,-5.437 14.15,-12.3 19.3,-20.593 5.15,-8.293 9.01,-17.449 11.58,-27.446 2.58,-10.007 3.87,-19.597 3.87,-28.742 V 501.188 c 0,-9.157 -0.73,-19.454 -2.15,-30.879 -1.44,-11.45 -4.15,-22.176 -8.15,-32.172 -4.01,-10.008 -9.73,-18.59 -17.16,-25.731 -7.44,-7.164 -17.16,-10.726 -29.16,-10.726 h 208.45 c -12.01,0 -21.59,3.562 -28.73,10.726 -7.16,7.141 -12.74,15.723 -16.73,25.731 -4.01,9.996 -6.73,20.722 -8.15,32.172 -1.44,11.425 -2.15,21.722 -2.15,30.879 v 186.636 c 0,10.297 1.57,20.727 4.72,31.309 3.14,10.586 7.72,20.16 13.73,28.742 6,8.578 13.43,15.723 22.3,21.445 8.86,5.711 19.01,8.578 30.45,8.578 11.44,0 21.59,-2.722 30.46,-8.144 8.86,-5.449 16.3,-12.59 22.3,-21.445 6.01,-8.883 10.58,-18.59 13.73,-29.176 2.77,-9.356 4.12,-18.574 4.44,-27.703 V 498.098 c 0,-9.157 -0.72,-16.149 -2.14,-27.575 -1.43,-11.449 -4.29,-22.175 -8.58,-32.171 -4.29,-10.008 -10.01,-18.59 -17.15,-25.731 -7.16,-7.164 -16.73,-10.726 -28.75,-10.726 h 210.18 c -11.45,0 -20.88,3.562 -28.31,10.726 -7.44,7.141 -13.16,15.863 -17.16,26.16"></path><path id="path48" style="fill:#72a26c;fill-opacity:1;fill-rule:nonzero;stroke:none" d="m 406.254,504.574 c -8.914,-18.14 -20.82,-33.75 -35.672,-46.812 -14.871,-13.086 -32.109,-23.055 -51.734,-29.879 -19.618,-6.852 -40.129,-10.258 -61.532,-10.258 -10.707,0 -21.117,1.188 -31.214,3.57 -10.122,2.368 -19.176,6.239 -27.207,11.59 -8.028,5.352 -14.571,12.324 -19.618,20.961 -5.058,8.606 -7.582,18.863 -7.582,30.766 V 711.93 h 0.09 v 17.84 h -0.09 v 259.535 h 85.621 c 38.039,0 67.629,-12.352 88.739,-37.02 21.097,-24.676 31.66,-55.445 31.66,-92.301 0,-37.453 -6.016,-70.879 -24.067,-97.629 -24.363,-36.113 -70.918,-54.82 -70.918,-54.82 0,0 24.938,2.567 48.579,-4.375 23.644,-6.937 45.035,-16.824 59.043,-36.297 0.097,-0.136 0.195,-0.273 0.293,-0.41 9.812,-13.687 17.085,-29.293 21.851,-46.824 4.754,-17.539 7.137,-35.531 7.137,-53.957 0,-22.609 -4.461,-42.957 -13.379,-61.098 z m 74.918,172.133 c -14.871,14.563 -32.262,26.152 -52.176,34.785 -19.461,8.41 -40.945,12.664 -41.93,12.86 -0.074,0.015 -0.199,-0.079 -0.128,-0.047 1.32,0.617 24.636,12.234 49.957,34.859 13.988,12.504 28.964,33.488 37.585,50.43 8.614,16.941 12.93,35.82 12.93,56.629 0,21.996 -4.453,41.773 -13.375,59.312 -8.922,17.531 -20.961,32.551 -36.117,45.039 -15.164,12.492 -32.414,21.985 -51.727,28.535 -19.332,6.541 -39.402,9.821 -60.207,9.821 H 0 v -0.78 c 21.0078,-2.64 36.9375,-12.021 47.7266,-28.216 12.4882,-18.727 18.7265,-39.989 18.7265,-63.766 V 493.434 C 66.4531,482.129 64.9609,470.977 62,459.984 59.0195,448.98 54.5586,439.172 48.6172,430.551 42.668,421.93 34.9336,414.945 25.4297,409.59 17.8945,405.352 9.39453,402.867 0,401.984 v -0.414 h 366.121 c 21.992,0 42.949,4.153 62.875,12.489 19.914,8.32 37.305,19.613 52.176,33.886 14.851,14.27 26.758,31.215 35.672,50.84 8.918,19.613 13.379,40.711 13.379,63.317 0,22.593 -4.461,43.703 -13.379,63.328 -8.914,19.613 -20.821,36.707 -35.672,51.277"></path><path id="path50" style="fill:#72a26c;fill-opacity:1;fill-rule:nonzero;stroke:none" d="m 4161.51,412.297 c -6.86,7.141 -12.3,15.723 -16.3,25.73 -4,9.996 -6.58,20.723 -7.72,32.172 -1.15,11.426 -1.71,21.446 -1.71,30.028 v 508.703 l -145.83,-23.16 c 10.29,0 18.57,-2.293 24.87,-6.864 6.28,-4.586 11.15,-10.441 14.58,-17.593 3.44,-7.153 5.86,-15.157 7.29,-24.016 1.43,-8.879 2.15,-17.305 2.15,-25.309 v -410.91 c 0,-9.156 -0.86,-19.598 -2.57,-31.308 -1.72,-11.727 -4.87,-22.598 -9.44,-32.594 -4.59,-10.024 -10.72,-18.446 -18.45,-25.313 -5.86,-5.218 -12.99,-8.425 -21.35,-9.679 v -0.614 h 194.91 v 0.618 c -8.32,1.265 -15.15,4.601 -20.43,10.109"></path><path id="path52" style="fill:#72a26c;fill-opacity:1;fill-rule:nonzero;stroke:none" d="m 697.25,438.027 c -4.008,9.996 -6.582,20.723 -7.723,32.172 -1.152,11.426 -1.714,21.446 -1.714,30.028 V 1008.93 L 541.98,985.77 c 10.293,0 18.579,-2.293 24.879,-6.864 6.282,-4.586 11.149,-10.441 14.579,-17.593 3.433,-7.153 5.859,-15.157 7.292,-24.016 1.422,-8.879 2.149,-17.305 2.149,-25.309 v -410.91 c 0,-9.156 -0.859,-19.598 -2.574,-31.308 -1.719,-11.727 -4.867,-22.598 -9.442,-32.594 -4.582,-10.024 -10.722,-18.446 -18.441,-25.313 -5.871,-5.218 -13,-8.425 -21.352,-9.679 v -0.614 h 194.91 v 0.618 c -8.32,1.265 -15.156,4.601 -20.433,10.109 -6.863,7.141 -12.305,15.723 -16.297,25.73"></path><g id="g54"><g clip-path="url(#clipPath60)" id="g56"><path id="path62" style="fill:#29533b;fill-opacity:1;fill-rule:nonzero;stroke:none" d="m 2268.95,12.5508 c 7.6,8.3555 11.4,20.539 11.4,36.5195 V 156.086 c 0,1.82 -0.8,3.211 -2.38,4.203 -1.61,0.988 -4.31,1.5 -8.11,1.5 h -3.64 c -3.8,0 -6.56,-0.512 -8.22,-1.5 -1.69,-0.992 -2.52,-2.383 -2.52,-4.203 V 46.7695 c 0,-9.1289 -1.85,-15.664 -5.59,-19.625 -3.73,-3.9375 -9.4,-5.9179 -17.01,-5.9179 -3.48,0 -6.34,0.1328 -8.54,0.457 -2.22,0.293 -3.96,0.6406 -5.24,1.0156 -1.32,0.375 -2.55,0.5899 -3.78,0.5899 -1.07,0 -1.98,-0.5899 -2.73,-1.7149 -0.78,-1.1484 -1.42,-2.5976 -1.95,-4.3359 -0.54,-1.7656 -0.91,-3.4258 -1.13,-5.0352 -0.24,-1.5781 -0.35,-2.7031 -0.35,-3.29294 0,-1.98047 1.37,-3.67188 4.1,-5.03125 2.76,-1.36719 6.02,-2.35938 9.83,-2.968754 C 2226.89,0.320313 2230.53,0 2234.04,0 c 15.66,0 27.3,4.17188 34.91,12.5508 m 176.33,8.4336 c 12.18,14.0039 18.26,34.3242 18.26,60.9375 0,26.6131 -6.08,46.7731 -18.26,60.4571 -12.16,13.707 -29.8,20.559 -52.93,20.559 -22.97,0 -40.54,-6.852 -52.72,-20.559 -12.16,-13.684 -18.23,-33.844 -18.23,-60.4571 0,-26.6133 6.07,-46.9336 18.23,-60.9375 C 2351.81,7.01172 2369.38,0 2392.35,0 c 23.13,0 40.77,7.01172 52.93,20.9844 m -87.04,15.5312 c -7.85,10.3321 -11.76,25.4883 -11.76,45.4063 0,19.7581 3.91,34.7261 11.76,44.8481 7.84,10.093 19.19,15.152 34.11,15.152 15.07,0 26.5,-5.059 34.35,-15.152 7.82,-10.122 11.75,-25.09 11.75,-44.8481 0,-19.918 -3.93,-35.0742 -11.75,-45.4063 -7.85,-10.3633 -19.28,-15.5312 -34.35,-15.5312 -14.92,0 -26.27,5.1679 -34.11,15.5312 m 255.42,-22.25 c 11.27,9.5039 16.89,22.543 16.89,39.1446 V 156.086 c 0,1.82 -0.8,3.211 -2.38,4.203 -1.61,0.988 -4.39,1.5 -8.33,1.5 h -3.43 c -3.8,0 -6.56,-0.512 -8.22,-1.5 -1.68,-0.992 -2.51,-2.383 -2.51,-4.203 V 54.0781 c 0,-10.3359 -3.43,-18.4453 -10.26,-24.3086 -6.85,-5.8398 -16.27,-8.7851 -28.3,-8.7851 -11.86,0 -21.23,2.9453 -28.08,8.7851 -6.83,5.8633 -10.26,13.9727 -10.26,24.3086 V 156.086 c 0,1.82 -0.8,3.211 -2.4,4.203 -1.58,0.988 -4.37,1.5 -8.33,1.5 h -3.4 c -3.83,0 -6.56,-0.512 -8.22,-1.5 -1.69,-0.992 -2.52,-2.383 -2.52,-4.203 V 53.4102 c 0,-16.6016 5.62,-29.6407 16.9,-39.1446 C 2532.05,4.76172 2547.5,0 2567.12,0 c 19.76,0 35.29,4.76172 46.54,14.2656 M 2724.69,1.14844 c 2.89,0 5.32,0.37109 7.31,1.12109 1.95,0.78125 3.1,2.0586 3.4,3.87891 l 28.54,124.15256 h 0.91 L 2793.82,6.14844 c 0.45,-1.82031 1.63,-3.09766 3.53,-3.87891 1.9,-0.75 4.31,-1.12109 7.2,-1.12109 h 9.35 c 3.05,0 5.4,0.37109 7.06,1.12109 1.69,0.78125 2.76,2.0586 3.22,3.87891 l 41.07,147.87456 c 0.13,0.618 0.29,1.231 0.45,1.821 0.14,0.617 0.22,1.23 0.22,1.82 0,1.231 -0.83,2.223 -2.49,2.973 -1.69,0.777 -4.34,1.152 -8.01,1.152 h -4.34 c -2.43,0 -4.55,-0.324 -6.37,-0.91 -1.82,-0.617 -2.89,-1.77 -3.21,-3.43 L 2809.8,26.4766 h -0.91 l -29.91,129.8244 c -0.45,1.98 -1.71,3.398 -3.75,4.226 -2.06,0.832 -4.55,1.262 -7.41,1.262 h -7.1 c -2.89,0 -5.24,-0.375 -7.06,-1.152 -1.83,-0.75 -2.98,-2.196 -3.43,-4.336 L 2720.56,26.4766 h -0.91 l -31.7,130.9724 c -0.45,1.821 -1.66,3 -3.53,3.535 -1.93,0.536 -4.15,0.805 -6.75,0.805 h -4.55 c -3.35,0 -5.84,-0.375 -7.42,-1.152 -1.6,-0.75 -2.41,-1.742 -2.41,-2.973 0,-0.59 0.08,-1.203 0.25,-1.82 0.13,-0.59 0.29,-1.203 0.45,-1.821 L 2705.06,6.14844 c 0.46,-1.82031 1.53,-3.09766 3.19,-3.87891 1.68,-0.75 3.96,-1.12109 6.85,-1.12109 z m 252.93,0 c 3.77,0 6.47,0.48047 8.08,1.47265 1.61,0.98829 2.41,2.41016 2.41,4.23047 V 109.98 v 6.051 6.051 l 0.91,0.215 c 0.75,-1.66 1.58,-3.348 2.49,-5.008 0.91,-1.684 1.77,-3.266 2.52,-4.793 l 32.85,-63.2108 c 1.23,-1.9805 2.68,-3.293 4.34,-3.9883 1.68,-0.6953 4.12,-1.0196 7.3,-1.0196 h 4.13 c 3.18,0 5.62,0.3243 7.28,1.0196 1.69,0.6953 3.05,2.0078 4.12,3.9883 l 32.4,62.0628 c 0.75,1.683 1.61,3.32 2.52,4.925 0.91,1.579 1.74,3.293 2.49,5.114 l 0.91,-0.215 V 115.121 108.855 6.85156 c 0,-1.82031 0.85,-3.24218 2.51,-4.23047 1.69,-0.99218 4.34,-1.47265 8.01,-1.47265 h 2.94 c 3.81,0 6.51,0.48047 8.12,1.47265 1.6,0.98829 2.38,2.41016 2.38,4.23047 V 156.086 c 0,1.82 -0.78,3.211 -2.38,4.203 -1.61,0.988 -4.31,1.5 -8.12,1.5 h -8.67 c -3.35,0 -6,-0.375 -7.98,-1.152 -1.98,-0.75 -3.51,-2.035 -4.55,-3.883 L 3047.2,85.1094 c -0.91,-1.8203 -2.06,-4.0703 -3.43,-6.7227 -1.36,-2.6758 -2.43,-5.1406 -3.18,-7.414 -0.62,2.1132 -1.5,4.4453 -2.63,6.9609 -1.15,2.5156 -2.25,4.7383 -3.32,6.7187 l -37.88,72.1017 c -0.91,1.848 -2.44,3.133 -4.55,3.883 -2.15,0.777 -4.96,1.152 -8.44,1.152 h -9.13 c -3.66,0 -6.32,-0.512 -8,-1.5 -1.66,-0.992 -2.49,-2.383 -2.49,-4.203 V 6.85156 c 0,-1.82031 0.83,-3.24218 2.49,-4.23047 1.68,-0.99218 4.34,-1.47265 8,-1.47265 z m 186.85,0 c 2.43,0 4.47,0.29297 6.16,0.91015 1.66,0.61329 2.81,1.60157 3.42,2.97266 L 3214.21,120.93 c 0.75,2.144 1.37,4.39 1.82,6.75 0.46,2.355 0.91,4.656 1.37,6.961 h 0.69 c 0.3,-2.305 0.75,-4.606 1.37,-6.961 0.59,-2.36 1.28,-4.606 2.06,-6.75 L 3261.2,5.03125 c 0.62,-1.37109 1.85,-2.35937 3.67,-2.97266 1.82,-0.61718 4.01,-0.91015 6.61,-0.91015 h 4.1 c 3.67,0 6.29,0.42969 7.87,1.26172 1.6,0.82812 2.41,1.76172 2.41,2.82812 0,0.6211 -0.06,1.1836 -0.11,1.72266 -0.08,0.52734 -0.27,1.08984 -0.59,1.71094 L 3232.23,157.906 c -0.45,1.203 -1.53,2.168 -3.19,2.864 -1.68,0.671 -4.04,1.019 -7.06,1.019 h -8.01 c -2.89,0 -5.19,-0.348 -6.96,-1.019 -1.74,-0.696 -2.84,-1.661 -3.29,-2.864 L 3150.76,8.91016 c -0.13,-0.78125 -0.3,-1.42188 -0.46,-1.94922 -0.13,-0.53906 -0.21,-1.10156 -0.21,-1.72266 0,-1.19922 0.88,-2.1875 2.62,-2.96875 1.74,-0.75 4.53,-1.12109 8.33,-1.12109 z m 93.54,59.32816 h -80.77 V 40.3984 h 80.77 z m 75.75,-59.32816 c 3.96,0 6.72,0.48047 8.32,1.47265 1.61,0.98829 2.39,2.41016 2.39,4.23047 V 73.9453 h 0.93 l 58.18,-68.46483 c 1.21,-1.35938 2.84,-2.42969 4.9,-3.21094 2.06,-0.75 4.98,-1.12109 8.78,-1.12109 h 4.13 c 3.93,0 6.8,0.26172 8.54,0.80078 1.74,0.53906 2.62,1.47266 2.62,2.83984 0,0.44922 -0.13,1.07032 -0.45,1.82032 -0.3,0.78125 -0.92,1.6914 -1.83,2.75781 L 3361.81,89.9023 V 75.3086 l 58.21,77.1094 c 1.2,1.523 1.93,2.703 2.14,3.559 0.24,0.832 0.35,1.554 0.35,2.171 0,1.204 -0.72,2.114 -2.17,2.731 -1.44,0.586 -3.83,0.91 -7.17,0.91 h -3.43 c -4.26,0 -7.34,-0.324 -9.24,-0.91 -1.9,-0.617 -3.69,-1.984 -5.35,-4.125 L 3345.4,90.3555 h -0.93 v 65.7305 c 0,1.82 -0.78,3.211 -2.39,4.203 -1.6,0.988 -4.36,1.5 -8.32,1.5 h -3.65 c -3.66,0 -6.31,-0.512 -8,-1.5 -1.66,-0.992 -2.52,-2.383 -2.52,-4.203 V 6.85156 c 0,-1.82031 0.86,-3.24218 2.52,-4.23047 1.69,-0.99218 4.34,-1.47265 8,-1.47265 z m 218.28,0.45312 c 3.48,0 5.25,2.72657 5.25,8.21875 v 4.55079 c 0,5.4922 -1.77,8.2227 -5.25,8.2227 h -62.76 V 72.793 h 55.91 c 3.5,0 5.24,2.7304 5.24,8.2187 v 4.5508 c 0,5.4883 -1.74,8.2188 -5.24,8.2188 h -55.91 v 46.5627 h 62.52 c 3.51,0 5.25,2.73 5.25,8.219 v 4.55 c 0,5.489 -1.74,8.219 -5.25,8.219 h -79.87 c -5,0 -7.52,-2.516 -7.52,-7.523 V 9.125 c 0,-5.00391 2.52,-7.52344 7.52,-7.52344 z m 128.81,0 c 3.34,0 5,2.72657 5,8.21875 v 4.55079 c 0,5.4922 -1.66,8.2227 -5,8.2227 h -58.64 V 156.086 c 0,1.82 -0.8,3.211 -2.41,4.203 -1.6,0.988 -4.36,1.5 -8.32,1.5 h -3.64 c -3.67,0 -6.32,-0.512 -8.01,-1.5 -1.66,-0.992 -2.49,-2.383 -2.49,-4.203 V 9.125 c 0,-5.00391 2.49,-7.52344 7.52,-7.52344 z m 44.12,-0.45312 c 2.44,0 4.5,0.29297 6.16,0.91015 1.68,0.61329 2.81,1.60157 3.42,2.97266 L 3774.71,120.93 c 0.78,2.144 1.37,4.39 1.83,6.75 0.45,2.355 0.93,4.656 1.39,6.961 h 0.67 c 0.29,-2.305 0.77,-4.606 1.36,-6.961 0.62,-2.36 1.29,-4.606 2.06,-6.75 L 3821.73,5.03125 c 0.61,-1.37109 1.82,-2.35937 3.64,-2.97266 1.82,-0.61718 4.04,-0.91015 6.61,-0.91015 h 4.13 c 3.64,0 6.26,0.42969 7.87,1.26172 1.6,0.82812 2.38,1.76172 2.38,2.82812 0,0.6211 -0.03,1.1836 -0.11,1.72266 -0.08,0.52734 -0.26,1.08984 -0.56,1.71094 L 3792.76,157.906 c -0.46,1.203 -1.53,2.168 -3.21,2.864 -1.66,0.671 -4.02,1.019 -7.07,1.019 h -7.98 c -2.89,0 -5.22,-0.348 -6.96,-1.019 -1.77,-0.696 -2.87,-1.661 -3.32,-2.864 L 3711.29,8.91016 c -0.16,-0.78125 -0.32,-1.42188 -0.46,-1.94922 -0.16,-0.53906 -0.24,-1.10156 -0.24,-1.72266 0,-1.19922 0.89,-2.1875 2.63,-2.96875 1.76,-0.75 4.52,-1.12109 8.32,-1.12109 z m 93.57,59.32816 h -80.77 V 40.3984 h 80.77 z m 67.18,-59.32816 c 2.43,0 4.47,0.29297 6.16,0.91015 1.66,0.61329 2.81,1.60157 3.42,2.97266 L 3935.46,120.93 c 0.75,2.144 1.37,4.39 1.82,6.75 0.46,2.355 0.91,4.656 1.37,6.961 h 0.69 c 0.3,-2.305 0.75,-4.606 1.37,-6.961 0.59,-2.36 1.29,-4.606 2.04,-6.75 l 39.7,-115.89875 c 0.62,-1.37109 1.85,-2.35937 3.67,-2.97266 1.82,-0.61718 4.01,-0.91015 6.61,-0.91015 h 4.1 c 3.67,0 6.29,0.42969 7.87,1.26172 1.61,0.82812 2.41,1.76172 2.41,2.82812 0,0.6211 -0.05,1.1836 -0.11,1.72266 -0.08,0.52734 -0.27,1.08984 -0.59,1.71094 L 3953.48,157.906 c -0.45,1.203 -1.52,2.168 -3.18,2.864 -1.69,0.671 -4.05,1.019 -7.07,1.019 h -8.01 c -2.89,0 -5.19,-0.348 -6.96,-1.019 -1.74,-0.696 -2.84,-1.661 -3.29,-2.864 L 3872.01,8.91016 c -0.13,-0.78125 -0.29,-1.42188 -0.46,-1.94922 -0.13,-0.53906 -0.21,-1.10156 -0.21,-1.72266 0,-1.19922 0.86,-2.1875 2.62,-2.96875 1.74,-0.75 4.53,-1.12109 8.33,-1.12109 z m 93.54,59.32816 h -80.77 V 40.3984 h 80.77 z m 75.75,-59.32816 c 3.96,0 6.72,0.48047 8.32,1.47265 1.61,0.98829 2.39,2.41016 2.39,4.23047 V 69.3672 h 19.86 c 5.17,0 9.43,-0.5391 12.77,-1.582 3.35,-1.0704 6.08,-2.8633 8.22,-5.3789 2.14,-2.5196 4.02,-5.8125 5.7,-9.9336 l 18.26,-46.77348 c 0.75,-1.52734 2.07,-2.64844 3.89,-3.42969 1.82,-0.75 4.01,-1.12109 6.61,-1.12109 h 4.34 c 3.8,0 6.53,0.35156 8.22,1.01172 1.66,0.69922 2.49,1.71875 2.49,3.07812 0,0.46094 -0.06,1.10156 -0.22,1.96094 -0.16,0.83203 -0.45,1.71094 -0.91,2.62109 l -18.02,45.16799 c -2.3,5.9453 -4.92,10.8711 -7.87,14.832 -2.97,3.961 -6.5,6.5352 -10.63,7.7656 v 0.9102 c 6.08,1.3633 11.22,3.7734 15.4,7.2031 4.2,3.3985 7.39,7.7071 9.58,12.875 2.22,5.1678 3.32,11.1138 3.32,17.8048 0,14.754 -4.42,25.945 -13.22,33.547 -8.84,7.605 -22.23,11.406 -40.16,11.406 h -44.96 c -5.03,0 -7.55,-2.516 -7.55,-7.523 V 6.85156 c 0,-1.82031 0.86,-3.24218 2.52,-4.23047 1.69,-0.99218 4.34,-1.47265 8.01,-1.47265 z m 10.71,139.19556 h 28.08 c 9.88,0 17,-2.063 21.34,-6.16 4.34,-4.121 6.51,-10.735 6.51,-19.868 0,-8.671 -2.17,-14.9371 -6.51,-18.8199 -4.34,-3.8828 -11.46,-5.8086 -21.34,-5.8086 h -28.08 v 50.6565"></path><path id="path64" style="fill:#29533b;fill-opacity:1;fill-rule:nonzero;stroke:none" d="m 59.3164,1.12891 c 3.8008,0 6.5039,0.49218 8.1094,1.48047 1.582,0.99218 2.3828,2.41015 2.3828,4.23046 v 103.12916 6.051 6.05 l 0.9102,0.239 c 0.7773,-1.688 1.6093,-3.344 2.5195,-5.032 0.9101,-1.687 1.7383,-3.265 2.5156,-4.793 L 108.605,49.2734 c 1.204,-1.9843 2.653,-3.2929 4.336,-3.9921 1.661,-0.668 4.098,-1.0157 7.309,-1.0157 h 4.098 c 3.187,0 5.621,0.3477 7.308,1.0157 1.66,0.6992 3.028,2.0078 4.098,3.9921 l 32.394,62.0856 c 0.778,1.661 1.61,3.293 2.52,4.899 0.906,1.582 1.738,3.297 2.516,5.14 l 0.91,-0.238 V 115.109 108.844 6.83984 c 0,-1.82031 0.828,-3.23828 2.515,-4.23046 1.661,-0.98829 4.336,-1.48047 7.981,-1.48047 h 2.969 c 3.804,0 6.507,0.49218 8.086,1.48047 1.609,0.99218 2.41,2.41015 2.41,4.23046 V 156.07 c 0,1.821 -0.801,3.243 -2.41,4.231 -1.579,0.992 -4.282,1.472 -8.086,1.472 h -8.672 c -3.348,0 -6.028,-0.375 -7.981,-1.152 -1.98,-0.75 -3.508,-2.031 -4.578,-3.851 l -37.43,-71.6762 c -0.91,-1.8204 -2.035,-4.0665 -3.398,-6.7188 -1.395,-2.6758 -2.437,-5.1406 -3.215,-7.4141 -0.59,2.1133 -1.472,4.4414 -2.625,6.961 -1.121,2.5156 -2.246,4.7383 -3.293,6.7187 L 78.4844,156.77 c -0.9102,1.82 -2.4375,3.101 -4.5781,3.851 -2.1133,0.777 -4.9258,1.152 -8.4336,1.152 h -9.1289 c -3.6407,0 -6.3204,-0.48 -7.9805,-1.472 -1.6836,-0.988 -2.5156,-2.41 -2.5156,-4.231 V 6.83984 c 0,-1.82031 0.832,-3.23828 2.5156,-4.23046 1.6601,-0.98829 4.3398,-1.48047 7.9805,-1.48047 z M 335.512,1.58984 c 3.504,0 5.246,2.73047 5.246,8.21875 v 4.55081 c 0,5.4883 -1.742,8.2187 -5.246,8.2187 h -62.758 v 50.1992 h 55.902 c 3.508,0 5.246,2.7344 5.246,8.2227 v 4.5508 c 0,5.4883 -1.738,8.2187 -5.246,8.2187 h -55.902 v 46.5585 h 62.516 c 3.507,0 5.246,2.731 5.246,8.219 v 4.555 c 0,5.488 -1.739,8.218 -5.246,8.218 h -79.868 c -5.004,0 -7.519,-2.515 -7.519,-7.523 V 9.11328 c 0,-5.0039 2.515,-7.52344 7.519,-7.52344 z m 132.929,0 c 3.481,0 5.247,2.73047 5.247,8.21875 v 4.55081 c 0,5.4883 -1.766,8.2187 -5.247,8.2187 h -62.757 v 50.1992 h 55.902 c 3.48,0 5.25,2.7344 5.25,8.2227 v 4.5508 c 0,5.4883 -1.77,8.2187 -5.25,8.2187 h -55.902 v 46.5585 h 62.515 c 3.508,0 5.246,2.731 5.246,8.219 v 4.555 c 0,5.488 -1.738,8.218 -5.246,8.218 h -79.863 c -5.008,0 -7.523,-2.515 -7.523,-7.523 V 9.11328 c 0,-5.0039 2.515,-7.52344 7.523,-7.52344 z m 59.438,-0.46093 c 3.934,0 6.719,0.49218 8.324,1.48047 1.582,0.99218 2.383,2.41015 2.383,4.23046 V 69.3516 h 19.867 c 5.168,0 9.426,-0.5352 12.77,-1.5782 3.347,-1.0703 6.078,-2.8671 8.218,-5.3828 2.118,-2.4883 4.02,-5.8086 5.704,-9.9062 L 603.406,5.69141 c 0.75,-1.5 2.035,-2.66016 3.883,-3.41016 1.82,-0.76953 4.016,-1.15234 6.613,-1.15234 h 4.336 c 3.801,0 6.532,0.35156 8.219,1.01953 1.66,0.70312 2.488,1.71094 2.488,3.08203 0,0.46094 -0.078,1.12109 -0.211,1.94922 -0.16,0.83203 -0.457,1.71875 -0.91,2.6289 L 609.777,54.9766 c -2.273,5.9414 -4.898,10.8945 -7.871,14.832 -2.945,3.9609 -6.508,6.5586 -10.601,7.7617 v 0.9102 c 6.078,1.3672 11.218,3.7773 15.394,7.2031 4.203,3.4258 7.391,7.7109 9.586,12.8789 2.223,5.1675 3.317,11.1095 3.317,17.8045 0,14.75 -4.414,25.942 -13.223,33.547 -8.836,7.602 -22.223,11.406 -40.16,11.406 h -44.953 c -5.036,0 -7.551,-2.515 -7.551,-7.523 V 6.83984 c 0,-1.82031 0.828,-3.23828 2.515,-4.23046 1.688,-0.98829 4.336,-1.48047 7.981,-1.48047 z M 538.586,140.328 h 28.086 c 9.879,0 17,-2.062 21.312,-6.156 4.336,-4.125 6.504,-10.738 6.504,-19.867 0,-8.676 -2.168,-14.9417 -6.504,-18.8206 -4.312,-3.8828 -11.433,-5.8125 -21.312,-5.8125 H 538.586 Z M 785.172,1.58984 c 23.133,0 40.773,6.85157 52.93,20.53516 12.183,13.6797 18.257,33.5469 18.257,59.5703 0,26.2887 -6.074,46.1567 -18.257,59.5427 -12.157,13.387 -29.797,20.082 -52.93,20.082 h -47.473 c -5.004,0 -7.519,-2.515 -7.519,-7.523 V 9.11328 c 0,-5.0039 2.515,-7.52344 7.519,-7.52344 z M 755.051,140.328 h 30.121 c 15.07,0 26.504,-4.898 34.348,-14.726 7.82,-9.797 11.753,-24.442 11.753,-43.9067 0,-19.332 -3.933,-34.0039 -11.753,-44.043 -7.844,-10.039 -19.278,-15.0742 -34.348,-15.0742 H 755.051 Z M 891.941,1.12891 c 2.438,0 4.473,0.30078 6.161,0.91015 1.687,0.6211 2.808,1.60938 3.425,2.98047 L 941.688,120.918 c 0.75,2.141 1.367,4.391 1.82,6.746 0.457,2.356 0.91,4.688 1.367,6.961 h 0.695 c 0.293,-2.273 0.75,-4.605 1.368,-6.961 0.613,-2.355 1.285,-4.605 2.058,-6.746 L 988.703,5.01953 c 0.59,-1.37109 1.82,-2.35937 3.641,-2.98047 1.82,-0.60937 4.015,-0.91015 6.613,-0.91015 h 4.123 c 3.64,0 6.26,0.42968 7.87,1.26172 1.58,0.82812 2.38,1.80078 2.38,2.83984 0,0.62109 -0.02,1.17969 -0.1,1.71094 -0.08,0.53906 -0.27,1.09765 -0.57,1.71875 L 959.707,157.891 c -0.453,1.234 -1.527,2.172 -3.187,2.867 -1.684,0.668 -4.043,1.015 -7.067,1.015 h -8.008 c -2.89,0 -5.191,-0.347 -6.961,-1.015 -1.738,-0.695 -2.836,-1.633 -3.293,-2.867 L 878.262,8.89844 c -0.16,-0.77735 -0.321,-1.41797 -0.453,-1.95703 -0.164,-0.53125 -0.243,-1.08985 -0.243,-1.71094 0,-1.19922 0.883,-2.19922 2.625,-2.94922 1.739,-0.76953 4.524,-1.15234 8.325,-1.15234 z m 93.547,59.33589 h -80.773 v -20.082 h 80.773 z M 1060.54,1.12891 c 3.8,0 6.5,0.49218 8.11,1.48047 1.6,0.99218 2.41,2.41015 2.41,4.23046 v 98.57416 8.676 c 0,2.437 -0.16,4.926 -0.48,7.523 l 0.93,0.242 c 1.21,-2.437 2.47,-4.847 3.75,-7.203 1.29,-2.355 2.71,-4.683 4.23,-6.961 l 67.1,-102.46053 c 0.58,-1.03906 1.36,-1.90234 2.27,-2.49219 0.91,-0.61719 2.01,-1.03906 3.29,-1.25781 1.32,-0.24219 2.79,-0.35156 4.48,-0.35156 h 6.15 c 3.81,0 6.51,0.49218 8.09,1.48047 1.61,0.99218 2.41,2.41015 2.41,4.23046 V 156.07 c 0,1.821 -0.8,3.243 -2.41,4.231 -1.58,0.992 -4.28,1.472 -8.09,1.472 h -2.97 c -3.64,0 -6.32,-0.48 -7.98,-1.472 -1.68,-0.988 -2.51,-2.41 -2.51,-4.231 V 58.8555 c 0,-3.3438 0.02,-6.2383 0.1,-8.6719 0.08,-2.4375 0.19,-4.9258 0.35,-7.5234 l -0.91,-0.2149 c -1.07,2.4102 -2.27,4.8438 -3.67,7.2813 -1.36,2.4375 -2.81,4.7929 -4.33,7.0937 l -65.25,99.7067 c -0.91,1.364 -1.9,2.438 -2.97,3.188 -1.07,0.773 -2.28,1.308 -3.64,1.605 -1.37,0.293 -3.06,0.453 -5.04,0.453 h -6.37 c -3.67,0 -6.32,-0.48 -8,-1.472 -1.66,-0.988 -2.49,-2.41 -2.49,-4.231 V 6.83984 c 0,-1.82031 0.83,-3.23828 2.49,-4.23046 1.68,-0.98829 4.33,-1.48047 8,-1.48047 z m 224.22,0 c 2.44,0 4.5,0.30078 6.16,0.91015 1.69,0.6211 2.81,1.60938 3.43,2.98047 l 40.16,115.89847 c 0.75,2.141 1.36,4.391 1.82,6.746 0.45,2.356 0.91,4.688 1.36,6.961 h 0.7 c 0.3,-2.273 0.75,-4.605 1.37,-6.961 0.61,-2.355 1.28,-4.605 2.06,-6.746 l 39.7,-115.89847 c 0.59,-1.37109 1.82,-2.35937 3.64,-2.98047 1.82,-0.60937 4.05,-0.91015 6.62,-0.91015 h 4.12 c 3.64,0 6.27,0.42968 7.87,1.26172 1.58,0.82812 2.38,1.80078 2.38,2.83984 0,0.62109 -0.02,1.17969 -0.1,1.71094 -0.08,0.53906 -0.27,1.09765 -0.56,1.71875 L 1352.53,157.891 c -0.46,1.234 -1.5,2.172 -3.19,2.867 -1.69,0.668 -4.04,1.015 -7.07,1.015 h -7.98 c -2.89,0 -5.22,-0.347 -6.96,-1.015 -1.76,-0.695 -2.86,-1.633 -3.32,-2.867 L 1271.08,8.89844 c -0.16,-0.77735 -0.32,-1.41797 -0.45,-1.95703 -0.16,-0.53125 -0.24,-1.08985 -0.24,-1.71094 0,-1.19922 0.88,-2.19922 2.62,-2.94922 1.74,-0.76953 4.52,-1.15234 8.33,-1.15234 z m 93.55,59.33589 h -80.78 v -20.082 h 80.78 z M 1523.42,1.58984 c 3.35,0 5.04,2.73047 5.04,8.21875 v 4.55081 c 0,5.4883 -1.69,8.2187 -5.04,8.2187 h -58.63 V 156.07 c 0,1.821 -0.8,3.243 -2.41,4.231 -1.58,0.992 -4.37,1.472 -8.33,1.472 h -3.64 c -3.64,0 -6.32,-0.48 -7.98,-1.472 -1.68,-0.988 -2.51,-2.41 -2.51,-4.231 V 9.11328 c 0,-5.0039 2.51,-7.52344 7.52,-7.52344 z m 122.06,0 c 3.35,0 5.04,2.73047 5.04,8.21875 v 4.55081 c 0,5.4883 -1.69,8.2187 -5.04,8.2187 h -58.63 V 156.07 c 0,1.821 -0.8,3.243 -2.41,4.231 -1.58,0.992 -4.37,1.472 -8.33,1.472 h -3.64 c -3.67,0 -6.32,-0.48 -8,-1.472 -1.66,-0.988 -2.49,-2.41 -2.49,-4.231 V 9.11328 c 0,-5.0039 2.49,-7.52344 7.52,-7.52344 z m 126.16,0 c 3.51,0 5.25,2.73047 5.25,8.21875 v 4.55081 c 0,5.4883 -1.74,8.2187 -5.25,8.2187 h -62.73 v 50.1992 h 55.9 c 3.48,0 5.25,2.7344 5.25,8.2227 v 4.5508 c 0,5.4883 -1.77,8.2187 -5.25,8.2187 h -55.9 v 46.5585 h 62.51 c 3.49,0 5.25,2.731 5.25,8.219 v 4.555 c 0,5.488 -1.76,8.218 -5.25,8.218 h -79.86 c -5.03,0 -7.52,-2.515 -7.52,-7.523 V 9.11328 c 0,-5.0039 2.49,-7.52344 7.52,-7.52344 z m 132.93,0 c 3.51,0 5.25,2.73047 5.25,8.21875 v 4.55081 c 0,5.4883 -1.74,8.2187 -5.25,8.2187 h -62.76 v 50.1992 h 55.91 c 3.5,0 5.24,2.7344 5.24,8.2227 v 4.5508 c 0,5.4883 -1.74,8.2187 -5.24,8.2187 h -55.91 v 46.5585 h 62.52 c 3.51,0 5.25,2.731 5.25,8.219 v 4.555 c 0,5.488 -1.74,8.218 -5.25,8.218 h -79.87 c -5,0 -7.52,-2.515 -7.52,-7.523 V 9.11328 c 0,-5.0039 2.52,-7.52344 7.52,-7.52344 z m 58.77,-0.46093 c 3.77,0 6.48,0.49218 8.08,1.48047 1.61,0.99218 2.41,2.41015 2.41,4.23046 v 98.57416 8.676 c 0,2.437 -0.16,4.926 -0.45,7.523 l 0.91,0.242 c 1.2,-2.437 2.46,-4.847 3.75,-7.203 1.28,-2.355 2.7,-4.683 4.23,-6.961 L 2049.36,5.23047 c 0.59,-1.03906 1.37,-1.90234 2.28,-2.49219 0.91,-0.61719 2,-1.03906 3.29,-1.25781 1.31,-0.24219 2.78,-0.35156 4.47,-0.35156 h 6.16 c 3.8,0 6.5,0.49218 8.08,1.48047 1.61,0.99218 2.41,2.41015 2.41,4.23046 V 156.07 c 0,1.821 -0.8,3.243 -2.41,4.231 -1.58,0.992 -4.28,1.472 -8.08,1.472 h -2.97 c -3.64,0 -6.32,-0.48 -7.98,-1.472 -1.69,-0.988 -2.52,-2.41 -2.52,-4.231 V 58.8555 c 0,-3.3438 0.03,-6.2383 0.11,-8.6719 0.08,-2.4375 0.19,-4.9258 0.35,-7.5234 l -0.91,-0.2149 c -1.07,2.4102 -2.28,4.8438 -3.67,7.2813 -1.37,2.4375 -2.81,4.7929 -4.31,7.0937 l -65.28,99.7067 c -0.91,1.364 -1.9,2.438 -2.97,3.188 -1.07,0.773 -2.27,1.308 -3.64,1.605 -1.36,0.293 -3.05,0.453 -5.03,0.453 h -6.37 c -3.67,0 -6.32,-0.48 -8.01,-1.472 -1.66,-0.988 -2.49,-2.41 -2.49,-4.231 V 6.83984 c 0,-1.82031 0.83,-3.23828 2.49,-4.23046 1.69,-0.98829 4.34,-1.48047 8.01,-1.48047 h 2.97"></path></g></g></g></g></svg> 