<?xml version="1.0" encoding="UTF-8"?>
<svg xmlns="http://www.w3.org/2000/svg" xmlns:xlink="http://www.w3.org/1999/xlink" version="1.1" viewBox="0 0 254.3 85.2">
  <!-- Generator: Adobe Illustrator 29.2.0, SVG Export Plug-In . SVG Version: 2.1.0 Build 108)  -->
  <defs>
    <style>
      .st0 {
        fill: none;
        stroke: #000;
        stroke-miterlimit: 10;
      }

      .st1 {
        opacity: .5;
      }

      .st2 {
        display: none;
      }
    </style>
  </defs>
  <g id="Layer_1" class="st2">
    <image class="st1" width="260" height="120" transform="translate(-7.6 -3.8)" xlink:href="redov-logo-1.png"/>
  </g>
  <g id="Layer_2">
    <g>
      <rect class="st0" x="198.7" y="18" width="53.6" height="42.9"/>
      <rect x="206.3" y="23.7" width="8.9" height="13.9"/>
      <rect x="221.1" y="23.7" width="8.9" height="13.9"/>
      <rect x="236" y="23.7" width="8.9" height="13.9"/>
      <rect x="236" y="41.6" width="8.9" height="13.9"/>
      <rect x="221.1" y="41.6" width="8.9" height="13.9"/>
      <rect x="206.3" y="41.6" width="8.9" height="13.9"/>
      <rect x="2" y="17.5" width="7.1" height="42.8"/>
      <rect x="43.3" y="20.4" width="7.1" height="32.3" transform="translate(83.3 -10.3) rotate(90)"/>
      <rect x="95.6" y="1.6" width="7.1" height="58.7"/>
      <path d="M24.2,25.7s-10.8-1.9-15.6,5.4c-1.2-6.7.4-7.2.4-7.2,0,0,7.4-7.2,15.2-6.4v8.2Z"/>
      <path d="M56.1,34.2s1.6-11.4-10.6-11.4-11.4,11.4-11.4,11.4c0,0-3.9,20.8,12.7,21,5.2,0,12.7-2.6,15.4-5.5v7.9s-6.9,3.7-15.4,3.7-20.3-4.7-20.3-21.3,9.9-23.4,19.8-23.4,16.7,7.1,16.7,16.4"/>
      <path d="M96.2,20.5s-1.5-3.9-10.3-3.9-18.9,6.1-18.9,22.4,7.5,22.4,16.1,22.4,14.4-7.3,14.4-7.3l-1.3-33.6ZM85,54.4c-7.5,0-10.5-5.5-10.5-15.4s3.9-16.1,11.3-16.1,9.8,3,9.8,3l.8,22.1s-3.8,6.4-11.4,6.4Z"/>
      <path d="M128.5,16.6c-10.5,0-19,10-19,22.4s8.5,22.4,19,22.4,19-10,19-22.4-8.5-22.4-19-22.4ZM128.5,55.5c-7,0-12.8-7.3-12.8-16.3s5.7-16.3,12.8-16.3,12.8,7.3,12.8,16.3-5.7,16.3-12.8,16.3Z"/>
      <polygon points="180.2 17.5 168 50.2 155.8 17.5 148.3 17.5 164.2 60.3 171.8 60.3 187.7 17.5 180.2 17.5"/>
      <g>
        <path d="M1.9,70.5c.7-.1,1.6-.2,2.5-.2,1.4,0,2.3.3,2.9.8.5.4.8,1.1.8,1.9,0,1.3-.8,2.2-1.9,2.6h0c.8.3,1.2,1,1.5,2.1.3,1.4.6,2.4.8,2.8h-1.3c-.2-.3-.4-1.1-.7-2.4-.3-1.4-.8-1.9-2-2h-1.2v4.4h-1.3v-9.9ZM3.2,75.1h1.3c1.4,0,2.3-.8,2.3-1.9s-.9-1.9-2.3-1.9c-.6,0-1.1,0-1.3.1v3.7Z"/>
        <path d="M11.5,71.2c0,.4-.3.8-.8.8s-.8-.4-.8-.8.3-.8.8-.8.8.4.8.8ZM10.1,80.5v-7.2h1.3v7.2h-1.3Z"/>
        <path d="M11.8,82.6c.6,0,1.1-.2,1.4-.6.4-.4.5-1,.5-2.7v-6h1.3v6.5c0,1.4-.2,2.3-.9,3-.6.6-1.5.8-2.2.8v-1ZM15.2,71.2c0,.4-.3.8-.8.8s-.8-.4-.8-.8.3-.8.8-.8.8.4.8.8Z"/>
        <path d="M17.2,75.2c0-.7,0-1.4,0-2h1.2v1.2h.1c.4-.7,1.2-1.4,2.4-1.4s2.5.6,2.5,3.1v4.3h-1.3v-4.2c0-1.2-.4-2.1-1.7-2.1s-1.5.6-1.8,1.3c0,.2,0,.4,0,.6v4.3h-1.3v-5.3Z"/>
        <path d="M29.4,77.1c0,1.8,1.2,2.5,2.5,2.5s1.5-.2,2-.4l.2.9c-.5.2-1.3.4-2.4.4-2.2,0-3.5-1.5-3.5-3.6s1.3-3.9,3.4-3.9,3,2.1,3,3.4,0,.5,0,.6h-5.1ZM33.2,76.2c0-.8-.3-2.1-1.8-2.1s-1.9,1.2-2,2.1h3.8Z"/>
        <path d="M36.1,75.2c0-.7,0-1.4,0-2h1.2v1.2h.1c.4-.7,1.2-1.4,2.4-1.4s2.5.6,2.5,3.1v4.3h-1.3v-4.2c0-1.2-.4-2.1-1.7-2.1s-1.5.6-1.8,1.3c0,.2,0,.4,0,.6v4.3h-1.3v-5.3Z"/>
        <path d="M47.6,70.5c.8-.1,1.7-.2,2.8-.2,1.9,0,3.2.4,4.1,1.3.9.8,1.4,2,1.4,3.6s-.5,3-1.4,3.9c-.9.9-2.5,1.4-4.4,1.4s-1.7,0-2.4-.1v-9.9ZM48.9,79.4c.3,0,.8,0,1.3,0,2.8,0,4.3-1.6,4.3-4.3,0-2.4-1.3-3.9-4.1-3.9s-1.2,0-1.5.1v7.9Z"/>
        <path d="M63.6,78.5c0,.7,0,1.4,0,2h-1.2v-1.2h-.1c-.3.6-1.1,1.3-2.4,1.3s-2.5-.6-2.5-3.2v-4.2h1.3v4c0,1.4.4,2.3,1.6,2.3s1.5-.6,1.7-1.2c0-.2.1-.4.1-.7v-4.4h1.3v5.2Z"/>
        <path d="M67.2,71.2c0,.4-.3.8-.8.8s-.8-.4-.8-.8.3-.8.8-.8.8.4.8.8ZM65.8,80.5v-7.2h1.3v7.2h-1.3Z"/>
        <path d="M69.3,75.2c0-.7,0-1.4,0-2h1.2v1.2h.1c.4-.7,1.2-1.4,2.4-1.4s2.5.6,2.5,3.1v4.3h-1.3v-4.2c0-1.2-.4-2.1-1.7-2.1s-1.5.6-1.8,1.3c0,.2,0,.4,0,.6v4.3h-1.3v-5.3Z"/>
        <path d="M89.3,75.3c0,3.5-2.1,5.3-4.7,5.3s-4.5-2.1-4.5-5.1,2-5.3,4.7-5.3,4.5,2.1,4.5,5.1ZM81.5,75.5c0,2.1,1.2,4.1,3.2,4.1s3.2-1.9,3.2-4.2-1-4.1-3.2-4.1-3.2,2-3.2,4.2Z"/>
        <path d="M91,75.2c0-.7,0-1.4,0-2h1.2v1.2h.1c.4-.7,1.2-1.4,2.4-1.4s2.5.6,2.5,3.1v4.3h-1.3v-4.2c0-1.2-.4-2.1-1.7-2.1s-1.5.6-1.8,1.3c0,.2,0,.4,0,.6v4.3h-1.3v-5.3Z"/>
        <path d="M99.3,75.5c0-.8,0-1.6,0-2.3h1.1v1.4h.1c.3-1,1.1-1.6,2-1.6s.3,0,.4,0v1.2c-.1,0-.3,0-.4,0-.9,0-1.6.7-1.8,1.7,0,.2,0,.4,0,.6v3.8h-1.3v-5Z"/>
        <path d="M110.5,76.8c0,2.7-1.8,3.8-3.6,3.8s-3.5-1.4-3.5-3.7,1.6-3.8,3.6-3.8,3.5,1.5,3.5,3.7ZM104.8,76.9c0,1.6.9,2.8,2.2,2.8s2.2-1.2,2.2-2.8-.6-2.8-2.2-2.8-2.2,1.4-2.2,2.8Z"/>
        <path d="M112.9,77.1c0,1.8,1.2,2.5,2.5,2.5s1.5-.2,2-.4l.2.9c-.5.2-1.3.4-2.4.4-2.2,0-3.5-1.5-3.5-3.6s1.3-3.9,3.4-3.9,3,2.1,3,3.4,0,.5,0,.6h-5.1ZM116.8,76.2c0-.8-.3-2.1-1.8-2.1s-1.9,1.2-2,2.1h3.8Z"/>
        <path d="M119.7,75.5c0-.8,0-1.6,0-2.3h1.1v1.4h.1c.3-1,1.1-1.6,2-1.6s.3,0,.4,0v1.2c-.1,0-.3,0-.4,0-.9,0-1.6.7-1.8,1.7,0,.2,0,.4,0,.6v3.8h-1.3v-5Z"/>
        <path d="M125.1,77.1c0,1.8,1.2,2.5,2.5,2.5s1.5-.2,2-.4l.2.9c-.5.2-1.3.4-2.4.4-2.2,0-3.5-1.5-3.5-3.6s1.3-3.9,3.4-3.9,3,2.1,3,3.4,0,.5,0,.6h-5.1ZM129,76.2c0-.8-.3-2.1-1.8-2.1s-1.9,1.2-2,2.1h3.8Z"/>
        <path d="M131.9,75.2c0-.7,0-1.4,0-2h1.2v1.2h.1c.4-.7,1.2-1.4,2.4-1.4s2.5.6,2.5,3.1v4.3h-1.3v-4.2c0-1.2-.4-2.1-1.7-2.1s-1.5.6-1.8,1.3c0,.2,0,.4,0,.6v4.3h-1.3v-5.3Z"/>
        <path d="M146.4,69.9v8.7c0,.6,0,1.4,0,1.9h-1.2v-1.3h0c-.4.8-1.3,1.4-2.5,1.4-1.7,0-3.1-1.5-3.1-3.7,0-2.4,1.5-3.9,3.2-3.9s1.8.5,2.2,1.1h0v-4.3h1.3ZM145.1,76.2c0-.2,0-.4,0-.6-.2-.8-.9-1.5-1.9-1.5s-2.2,1.2-2.2,2.8.7,2.7,2.1,2.7,1.7-.6,1.9-1.6c0-.2,0-.4,0-.6v-1.3Z"/>
        <path d="M157.9,73.2c0,.5,0,1.1,0,2v4.2c0,1.7-.3,2.7-1,3.3-.7.7-1.7.9-2.6.9s-1.8-.2-2.4-.6l.3-1c.5.3,1.2.6,2.1.6,1.3,0,2.3-.7,2.3-2.5v-.8h0c-.4.7-1.2,1.2-2.3,1.2-1.8,0-3.1-1.5-3.1-3.5s1.6-3.8,3.3-3.8,1.9.7,2.3,1.3h0v-1.1h1.2ZM156.6,76.1c0-.2,0-.4,0-.6-.2-.8-.9-1.4-1.8-1.4s-2.1,1.1-2.1,2.7.7,2.6,2.1,2.6,1.5-.5,1.8-1.3c0-.2.1-.5.1-.7v-1.3Z"/>
        <path d="M166.6,76.8c0,2.7-1.8,3.8-3.6,3.8s-3.5-1.4-3.5-3.7,1.6-3.8,3.6-3.8,3.5,1.5,3.5,3.7ZM160.9,76.9c0,1.6.9,2.8,2.2,2.8s2.2-1.2,2.2-2.8-.6-2.8-2.2-2.8-2.2,1.4-2.2,2.8Z"/>
        <path d="M169,77.1c0,1.8,1.2,2.5,2.5,2.5s1.5-.2,2-.4l.2.9c-.5.2-1.3.4-2.4.4-2.2,0-3.5-1.5-3.5-3.6s1.3-3.9,3.4-3.9,3,2.1,3,3.4,0,.5,0,.6h-5.1ZM172.8,76.2c0-.8-.3-2.1-1.8-2.1s-1.9,1.2-2,2.1h3.8Z"/>
        <path d="M182,69.9v8.7c0,.6,0,1.4,0,1.9h-1.2v-1.3h0c-.4.8-1.3,1.4-2.5,1.4-1.7,0-3.1-1.5-3.1-3.7,0-2.4,1.5-3.9,3.2-3.9s1.8.5,2.2,1.1h0v-4.3h1.3ZM180.7,76.2c0-.2,0-.4,0-.6-.2-.8-.9-1.5-1.9-1.5s-2.2,1.2-2.2,2.8.7,2.7,2.1,2.7,1.7-.6,1.9-1.6c0-.2,0-.4,0-.6v-1.3Z"/>
        <path d="M189,80.5l-3.3-10.1h1.4l1.6,5c.4,1.4.8,2.6,1.1,3.8h0c.3-1.2.7-2.4,1.1-3.7l1.7-5h1.4l-3.6,10.1h-1.4Z"/>
        <path d="M195.3,77.1c0,1.8,1.2,2.5,2.5,2.5s1.5-.2,2-.4l.2.9c-.5.2-1.3.4-2.4.4-2.2,0-3.5-1.5-3.5-3.6s1.3-3.9,3.4-3.9,3,2.1,3,3.4,0,.5,0,.6h-5.1ZM199.2,76.2c0-.8-.3-2.1-1.8-2.1s-1.9,1.2-2,2.1h3.8Z"/>
        <path d="M202.1,75.5c0-.8,0-1.6,0-2.3h1.1v1.4h.1c.3-1,1.1-1.6,2-1.6s.3,0,.4,0v1.2c-.1,0-.3,0-.4,0-.9,0-1.6.7-1.8,1.7,0,.2,0,.4,0,.6v3.8h-1.3v-5Z"/>
        <path d="M207.5,77.1c0,1.8,1.2,2.5,2.5,2.5s1.5-.2,2-.4l.2.9c-.5.2-1.3.4-2.4.4-2.2,0-3.5-1.5-3.5-3.6s1.3-3.9,3.4-3.9,3,2.1,3,3.4,0,.5,0,.6h-5.1ZM211.4,76.2c0-.8-.3-2.1-1.8-2.1s-1.9,1.2-2,2.1h3.8Z"/>
        <path d="M214.3,75.2c0-.7,0-1.4,0-2h1.2v1.2h.1c.4-.7,1.2-1.4,2.4-1.4s2.5.6,2.5,3.1v4.3h-1.3v-4.2c0-1.2-.4-2.1-1.7-2.1s-1.5.6-1.8,1.3c0,.2,0,.4,0,.6v4.3h-1.3v-5.3Z"/>
        <path d="M224,71.2c0,.4-.3.8-.8.8s-.8-.4-.8-.8.3-.8.8-.8.8.4.8.8ZM222.6,80.5v-7.2h1.3v7.2h-1.3Z"/>
        <path d="M232.3,73.2c0,.5,0,1.1,0,2v4.2c0,1.7-.3,2.7-1,3.3-.7.7-1.7.9-2.6.9s-1.8-.2-2.4-.6l.3-1c.5.3,1.2.6,2.1.6,1.3,0,2.3-.7,2.3-2.5v-.8h0c-.4.7-1.2,1.2-2.3,1.2-1.8,0-3.1-1.5-3.1-3.5s1.6-3.8,3.3-3.8,1.9.7,2.3,1.3h0v-1.1h1.2ZM230.9,76.1c0-.2,0-.4,0-.6-.2-.8-.9-1.4-1.8-1.4s-2.1,1.1-2.1,2.7.7,2.6,2.1,2.6,1.5-.5,1.8-1.3c0-.2.1-.5.1-.7v-1.3Z"/>
        <path d="M235.8,71.2c0,.4-.3.8-.8.8s-.8-.4-.8-.8.3-.8.8-.8.8.4.8.8ZM234.3,80.5v-7.2h1.3v7.2h-1.3Z"/>
        <path d="M237.8,75.2c0-.7,0-1.4,0-2h1.2v1.2h.1c.4-.7,1.2-1.4,2.4-1.4s2.5.6,2.5,3.1v4.3h-1.3v-4.2c0-1.2-.4-2.1-1.7-2.1s-1.5.6-1.8,1.3c0,.2,0,.4,0,.6v4.3h-1.3v-5.3Z"/>
        <path d="M252.3,73.2c0,.5,0,1.1,0,2v4.2c0,1.7-.3,2.7-1,3.3-.7.7-1.7.9-2.6.9s-1.8-.2-2.4-.6l.3-1c.5.3,1.2.6,2.1.6,1.3,0,2.3-.7,2.3-2.5v-.8h0c-.4.7-1.2,1.2-2.3,1.2-1.8,0-3.1-1.5-3.1-3.5s1.6-3.8,3.3-3.8,1.9.7,2.3,1.3h0v-1.1h1.2ZM250.9,76.1c0-.2,0-.4,0-.6-.2-.8-.9-1.4-1.8-1.4s-2.1,1.1-2.1,2.7.7,2.6,2.1,2.6,1.5-.5,1.8-1.3c0-.2.1-.5.1-.7v-1.3Z"/>
      </g>
    </g>
  </g>
</svg>