<?xml version="1.0" encoding="UTF-8"?> <svg xmlns="http://www.w3.org/2000/svg" id="Laag_1" data-name="Laag 1" version="1.1" viewBox="0 0 727.3 400.8"><defs><style> .cls-1 { fill: #e2001a; } .cls-1, .cls-2 { stroke-width: 0px; } .cls-2 { fill: #000; } </style></defs><path class="cls-2" d="M65.1,226.2c9.6,0,17.4,1.1,23.8,3.2,6.4,2.2,11.4,5.3,15.2,9.3,3.8,4,6.5,9,8.1,14.7,1.6,5.8,2.3,12.1,2.3,19.3v67.1c-4.7,1-11,2.2-19.3,3.6-8.2,1.3-18.1,2.1-29.9,2.1s-14-.6-20-2c-6-1.3-11.2-3.4-15.4-6.4s-7.6-6.9-9.9-11.5c-2.3-4.8-3.4-10.5-3.4-17.5s1.3-12.3,4-16.9c2.7-4.7,6.3-8.3,10.7-11s9.6-4.8,15.3-6c5.8-1.2,11.8-1.8,18-1.8s7.8.1,11.2.5c3.3.4,5.9.9,7.8,1.3v-3.1c0-5.5-1.6-9.9-4.9-13.2s-9.1-5-17.3-5-10.9.4-16.2,1.2c-5.4.7-9.9,2-13.9,3.3l-4-26c1.8-.6,4.2-1.2,7-1.8s5.9-1.2,9.2-1.7c3.3-.5,6.9-1,10.5-1.3,3.6.1,7.4-.1,11-.1M67.8,320.6c3.2,0,6.3-.1,9.1-.2,2.9-.1,5.1-.4,6.9-.6v-24.4c-1.3-.2-3.2-.6-5.9-.9-2.6-.2-5-.5-7.1-.5-3.1,0-5.9.1-8.6.5-2.7.4-5,1.1-7,2.1-2,1-3.6,2.3-4.8,4.2-1.1,1.7-1.7,3.9-1.7,6.5,0,5,1.7,8.6,5.1,10.4,3.3,2,8,2.9,14,2.9"></path><path class="cls-2" d="M240.5,286.4c0,8.8-1.1,16.8-3.3,24-2.2,7.2-5.4,13.4-9.6,18.6-4.2,5.1-9.3,9.2-15.6,12.1-6.3,2.9-13.4,4.3-21.5,4.3s-8.7-.5-12.5-1.3c-3.9-.9-7.6-2.1-11.3-3.7v42.9h-32.1v-150c2.8-.9,6.1-1.7,9.9-2.5s7.7-1.5,11.8-2.1c4.2-.6,8.3-1.1,12.5-1.3,4.3-.4,8.3-.5,12.3-.5,9.4,0,17.8,1.3,25.1,4.2,7.4,2.8,13.6,6.7,18.6,11.9,5,5.1,9,11.4,11.5,18.8,2.7,7.2,4,15.4,4,24.5M207.7,287.2c0-9.9-2.2-17.9-6.7-23.9-4.5-6-11.2-9-19.9-9s-5.5.1-8,.4-4.5.5-6,.7v58.2c2,1.3,4.7,2.3,7.8,3.3,3.2.9,6.5,1.3,9.8,1.3,15.2-.1,22.9-10.5,22.9-31.1"></path><path class="cls-2" d="M329.7,258c-2.9-.7-6.3-1.5-10.2-2.2-3.9-.7-8.1-1.2-12.5-1.2s-4.4.2-7.2.6c-2.8.4-4.9.7-6.4,1.2v87.1h-32.2v-107.8c5.8-2,12.5-3.9,20.5-5.8,7.8-1.8,16.7-2.7,26.2-2.7s3.8.1,6.3.4,4.9.5,7.4.9,4.9.7,7.4,1.3c2.5.5,4.5,1.1,6.3,1.8l-5.4,26.4Z"></path><rect class="cls-2" x="348.1" y="229.5" width="32.2" height="113.8"></rect><path class="cls-2" d="M438.9,320.1c5.9,0,10.1-.6,12.5-1.7s3.7-3.4,3.7-6.7-1.6-4.9-4.8-6.9-8-4.2-14.5-6.6c-5-1.8-9.7-3.8-13.7-5.9-4.2-2-7.6-4.4-10.5-7.2-2.9-2.8-5.1-6.1-6.7-10.1-1.6-3.9-2.5-8.6-2.5-14.1,0-10.7,3.9-19.1,11.9-25.4,8-6.3,18.8-9.3,32.6-9.3s13.6.6,19.9,1.8c6.4,1.2,11.4,2.6,15.1,4l-5.6,25.1c-3.8-1.3-7.8-2.5-12.3-3.4-4.4-1-9.3-1.5-14.8-1.5-10.1,0-15.2,2.8-15.2,8.5s.2,2.5.6,3.4,1.2,2,2.6,2.9c1.3,1,3.1,2,5.3,3.1s5.1,2.3,8.6,3.6c7.1,2.6,12.9,5.1,17.5,7.7,4.7,2.6,8.2,5.3,10.9,8.2,2.7,2.9,4.5,6.3,5.6,9.8s1.6,7.7,1.6,12.5c0,11.3-4.3,19.7-12.6,25.5-8.5,5.8-20.4,8.6-35.8,8.6s-18.5-.9-25.3-2.6c-6.7-1.7-11.4-3.2-14-4.3l5.4-26.2c5.5,2.2,11.2,3.8,16.9,5,6.4,1.5,12.1,2.1,17.7,2.1"></path><path class="cls-2" d="M501.5,286.4c0-8.2,1.3-15.9,4-23.3,2.7-7.2,6.5-13.6,11.5-19s11.2-9.7,18.4-12.9c7.2-3.2,15.4-4.8,24.6-4.8s11.6.5,16.7,1.6c5,1.1,9.9,2.6,14.7,4.7l-6.7,25.7c-3.1-1.1-6.4-2.2-9.9-3.1s-7.6-1.3-12.1-1.3c-9.6,0-16.7,2.9-21.3,8.8-4.7,5.9-7,13.7-7,23.4s2.2,18.1,6.6,23.8c4.4,5.6,12.1,8.5,23.1,8.5s8.1-.4,12.5-1.1c4.5-.7,8.6-1.8,12.4-3.4l4.5,26.4c-3.8,1.6-8.5,2.9-14.1,4.2-5.6,1.1-11.9,1.7-18.6,1.7-10.4,0-19.4-1.6-26.9-4.7-7.5-3.1-13.7-7.4-18.5-12.6-4.8-5.4-8.3-11.6-10.5-18.9-2.1-7.2-3.3-15.1-3.3-23.7"></path><path class="cls-2" d="M711.9,286.1c0,9-1.3,17.2-3.9,24.5-2.6,7.5-6.4,13.7-11.3,19-4.9,5.3-10.8,9.3-17.7,12.3-6.9,2.8-14.6,4.3-23.1,4.3s-15.9-1.5-22.8-4.3c-6.9-2.9-12.8-7-17.7-12.3s-8.7-11.6-11.5-19c-2.7-7.5-4-15.6-4-24.5s1.3-17,4.2-24.4c2.8-7.4,6.7-13.6,11.6-18.9,5-5.1,10.9-9.2,17.8-12.1,6.9-2.9,14.3-4.3,22.4-4.3s15.8,1.5,22.6,4.3c6.9,2.8,12.8,6.9,17.7,12.1,4.9,5.1,8.7,11.4,11.4,18.9,2.9,7.4,4.3,15.4,4.3,24.4M679,286.1c0-9.9-2-17.8-5.9-23.4-3.9-5.8-9.6-8.6-17-8.6s-13,2.8-17,8.6c-4,5.6-6,13.5-6,23.4s2,17.9,6,23.7c4,5.9,9.7,8.8,17,8.8s13-2.9,17-8.8c3.8-5.8,5.9-13.6,5.9-23.7"></path><path class="cls-1" d="M269.3,146s-4.9,20.2,9.8,26.6c14.7,6.4,38.4,1,45.2-7.8,6.9-8.8-2-64-30.5-62.5-19.1,1-24.5,43.8-24.5,43.8Z"></path><path class="cls-1" d="M408.6,146s-4.9,20.2,9.8,26.6c14.7,6.4,38.4,1,45.2-7.8s-2-64-30.5-62.5c-19.1,1-24.5,43.8-24.5,43.8Z"></path><path class="cls-1" d="M431.2,94.4c5.1-.4,10.4-.6,15.3-2.2,6-2,10.4-5.5,14.5-10.3,3.4-3.9,6.6-8.5,7.7-13.7,1.2-5.9-1.1-11.4-4.9-15.9-9.9-11.4-26.4-18-40.7-21.8-13.7-3.7-28.7-5.3-42.7-2.6-11.3,2.3-22.4,4.9-33.6,7.4-13.1,2.9-26.1,6.1-39,10.1-10.7,3.3-22.6,6.9-31.6,13.9-6.5,5-11.2,12.4-7.7,20.8,2.5,6.1,15.2,11.3,24.9,11.5,0,0,87.3,6.5,137.8,2.9Z"></path><path class="cls-1" d="M381.4,175.2c13.1-3.2,12-13.6,12.8-28.8,1.2-24.8-7-37.5-23.9-40.1-20.1-3-34.4,27.6-33,49.4,1.7,9.9,2.6,13,6,16.3,3.4,3.4,6.4,3.3,12.9,3.9s21.4,1,25.2-.7Z"></path></svg> 