<?xml version="1.0" encoding="utf-8"?>
<!-- Generator: Adobe Illustrator 27.5.0, SVG Export Plug-In . SVG Version: 6.00 Build 0)  -->
<svg version="1.1" id="Laag_1" xmlns="http://www.w3.org/2000/svg" xmlns:xlink="http://www.w3.org/1999/xlink" x="0px" y="0px"
	 viewBox="0 0 200 34.5" style="enable-background:new 0 0 200 34.5;" xml:space="preserve">
<style type="text/css">
	.st0{fill:#0E3755;}
	.st1{fill:url(#SVGID_1_);}
	.st2{fill:url(#SVGID_00000139266182970965288120000017537625349122324668_);}
	.st3{fill:url(#SVGID_00000142163918994382324480000009755248154453709742_);}
</style>
<g>
	<g>
		<g>
			<g>
				<path class="st0" d="M64.8,8.3c1.6,1.4,2.3,3.8,2.3,6.4c0,2.7-0.7,5.1-2.3,6.5c-1.5,1.3-3.4,1.6-5.5,1.6c-2.2,0-4-0.3-5.5-1.6
					c-1.6-1.4-2.3-3.8-2.3-6.4c0-2.7,0.7-5.1,2.3-6.5c1.5-1.3,3.4-1.6,5.5-1.6C61.4,6.6,63.2,7,64.8,8.3z M63.4,14.8
					c0-3.4-1.2-5.2-4.1-5.2c-3,0-4.2,1.6-4.2,5c0,3.4,1.2,5.2,4.2,5.2C62.2,19.9,63.4,18.3,63.4,14.8z"/>
				<path class="st0" d="M73.8,22.5L68.3,6.9h3.9l3.8,11.9h0.1L80,6.9h3.8l-5.4,15.5H73.8z"/>
				<path class="st0" d="M86.5,22.5V6.9H97v2.9h-6.9v3.3h6.2V16h-6.2v3.6h7.2v2.9H86.5z"/>
				<path class="st0" d="M109.8,22.5l-3.1-5.4c-0.2,0-0.3,0-0.5,0h-1.4v5.4h-3.6V6.9h5.8c2.2,0,3.9,0.2,5.1,1.3
					c1,0.9,1.4,2.1,1.4,3.7c0,1.5-0.4,2.9-1.5,3.8c-0.4,0.4-0.9,0.6-1.5,0.8l3.5,5.9H109.8z M106.8,9.7h-2v4.7h2
					c2.1,0,2.9-0.7,2.9-2.3C109.8,10.2,108.7,9.7,106.8,9.7z"/>
				<path class="st0" d="M130.1,22.5l-2.9-11.2h-0.1l-2.8,11.2h-4.5l-3.8-15.5h3.8l2.4,11.3h0.1l2.7-11.3h4.5l2.7,11.2h0.1l2.4-11.2
					h3.7l-3.8,15.5H130.1z"/>
				<path class="st0" d="M150.8,22.5l-1.1-3.3h-5.9l-1.1,3.3h-3.8l5.6-15.5h4.6l5.6,15.5H150.8z M146.7,10.3L146.7,10.3l-2.1,6.1
					h4.2L146.7,10.3z"/>
				<path class="st0" d="M159.3,22.5V9.8h-5V6.9H168v2.9h-5v12.6H159.3z"/>
				<path class="st0" d="M170.7,22.5V6.9h10.5v2.9h-6.9v3.3h6.2V16h-6.2v3.6h7.2v2.9H170.7z"/>
				<path class="st0" d="M194,22.5l-3.1-5.4c-0.2,0-0.3,0-0.5,0h-1.4v5.4h-3.6V6.9h5.8c2.2,0,3.9,0.2,5.1,1.3c1,0.9,1.4,2.1,1.4,3.7
					c0,1.5-0.4,2.9-1.5,3.8c-0.4,0.4-0.9,0.6-1.5,0.8l3.5,5.9H194z M190.9,9.7h-2v4.7h2c2.1,0,2.9-0.7,2.9-2.3
					C193.9,10.2,192.8,9.7,190.9,9.7z"/>
			</g>
		</g>
		<g>
			<g>
				<path class="st0" d="M54.4,30.8l-1.5-4.3H54l1.1,3.3h0l1.1-3.3h1l-1.5,4.3H54.4z"/>
				<path class="st0" d="M59.5,30.8l0-0.2c-0.4,0.1-0.8,0.3-1.2,0.3c-0.3,0-0.5-0.1-0.8-0.3c-0.2-0.2-0.3-0.4-0.3-0.8
					c0-0.3,0.1-0.7,0.5-0.9c0.2-0.1,0.5-0.2,0.8-0.2c0.2,0,0.5,0,0.8,0v-0.1c0-0.4-0.2-0.6-0.8-0.6c-0.3,0-0.6,0-0.9,0.1v-0.7
					c0.4,0,0.7-0.1,1.1-0.1c0.5,0,0.9,0.1,1.2,0.3c0.3,0.3,0.4,0.6,0.4,1.1v1.9H59.5z M59.4,29.4c-0.2,0-0.4,0-0.6,0
					c-0.4,0-0.6,0.1-0.6,0.4c0,0.2,0.2,0.4,0.5,0.4c0.2,0,0.5-0.1,0.7-0.1V29.4z"/>
				<path class="st0" d="M63.1,30.7c-0.3,0.1-0.6,0.2-1,0.2c-0.3,0-0.6,0-1-0.1v-0.7c0.3,0,0.7,0.1,0.9,0.1c0.2,0,0.3,0,0.5-0.1
					c0.1,0,0.2-0.1,0.2-0.3c0-0.2-0.1-0.2-0.3-0.3c-0.1,0-0.3-0.1-0.5-0.1c-0.6-0.1-0.9-0.4-0.9-0.9c0-0.3,0.1-0.7,0.4-0.9
					c0.3-0.1,0.5-0.2,1-0.2c0.3,0,0.6,0,0.9,0.1v0.7c-0.3,0-0.6-0.1-0.8-0.1c-0.2,0-0.3,0-0.4,0c-0.1,0-0.2,0.1-0.2,0.2
					c0,0.1,0.1,0.2,0.2,0.3c0.1,0,0.3,0.1,0.4,0.1c0.6,0.1,0.9,0.4,0.9,1C63.5,30.1,63.4,30.5,63.1,30.7z"/>
				<path class="st0" d="M65.4,30.9c-0.3,0-0.6-0.1-0.9-0.4c-0.1-0.2-0.2-0.5-0.2-1v-1.2h-0.5v-0.7h0.5l0.1-1h0.9v1h0.9v0.7h-0.9v1
					c0,0.2,0,0.4,0.1,0.5c0.1,0.2,0.2,0.3,0.4,0.3c0.1,0,0.3,0,0.5-0.1v0.7C65.9,30.8,65.6,30.9,65.4,30.9z"/>
				<path class="st0" d="M68.7,30.5c-0.3,0.1-0.6,0.2-0.9,0.2c-0.3,0-0.6-0.1-0.8-0.3c-0.3-0.3-0.4-0.7-0.4-1.3c0-0.6,0.2-1,0.5-1.3
					c0.3-0.2,0.6-0.3,1-0.3c0.3,0,0.6,0.1,0.9,0.2l0-0.1h0.7v2.9c0,0.5-0.1,0.9-0.4,1.1C69,32,68.4,32,67.9,32c-0.4,0-0.7,0-1.1-0.1
					v-0.7c0.3,0,0.6,0.1,0.9,0.1c0.4,0,0.7,0,0.8-0.2c0.2-0.1,0.2-0.4,0.2-0.6V30.5z M68.7,28.3c-0.2-0.1-0.3-0.1-0.5-0.1
					c-0.5,0-0.7,0.3-0.7,0.8c0,0.6,0.2,0.8,0.6,0.8c0.2,0,0.4-0.1,0.6-0.1V28.3z"/>
				<path class="st0" d="M70.8,30.5c-0.4-0.3-0.5-0.8-0.5-1.3c0-0.6,0.1-1.1,0.5-1.3c0.3-0.3,0.7-0.3,1.2-0.3s0.9,0.1,1.2,0.3
					c0.4,0.3,0.5,0.8,0.5,1.3c0,0.6-0.1,1.1-0.5,1.3c-0.3,0.3-0.7,0.3-1.2,0.3C71.5,30.9,71.1,30.8,70.8,30.5z M72.7,29.2
					c0-0.7-0.2-1-0.7-1c-0.5,0-0.7,0.3-0.7,1c0,0.7,0.2,1,0.7,1C72.5,30.1,72.7,29.9,72.7,29.2z"/>
				<path class="st0" d="M75.6,30.9c-0.3,0-0.8-0.1-1.1-0.4c-0.3-0.3-0.4-0.8-0.4-1.3c0-0.5,0.1-1,0.5-1.3c0.3-0.3,0.7-0.3,1.1-0.3
					c0.4,0,0.8,0.1,1.1,0.3c0.4,0.4,0.4,0.9,0.4,1.6h-2.2c0,0.5,0.3,0.8,0.8,0.8c0.4,0,0.8-0.1,1.2-0.2v0.7
					C76.7,30.7,76.1,30.9,75.6,30.9z M75.7,28.1c-0.4,0-0.6,0.3-0.6,0.7h1.2C76.3,28.3,76.2,28.1,75.7,28.1z"/>
				<path class="st0" d="M80.2,30.8l0-0.2c-0.4,0.1-0.8,0.3-1.1,0.3c-0.4,0-0.7-0.1-0.9-0.3c-0.3-0.3-0.4-0.8-0.4-1.3
					c0-0.6,0.2-1.1,0.5-1.4c0.3-0.2,0.6-0.3,1.1-0.3c0.2,0,0.5,0,0.7,0.1v-1.4H81v4.5H80.2z M80.1,29.9v-1.6
					c-0.2-0.1-0.4-0.1-0.5-0.1c-0.5,0-0.8,0.3-0.8,0.9c0,0.6,0.2,0.9,0.7,0.9C79.6,30.1,79.8,30,80.1,29.9z"/>
				<path class="st0" d="M83.9,30.8l0-0.2c-0.4,0.1-0.8,0.3-1.2,0.3c-0.3,0-0.5-0.1-0.8-0.3c-0.2-0.2-0.3-0.4-0.3-0.8
					c0-0.3,0.1-0.7,0.5-0.9c0.2-0.1,0.5-0.2,0.8-0.2c0.2,0,0.5,0,0.8,0v-0.1c0-0.4-0.2-0.6-0.8-0.6c-0.3,0-0.6,0-0.9,0.1v-0.7
					c0.4,0,0.7-0.1,1.1-0.1c0.5,0,0.9,0.1,1.2,0.3c0.3,0.3,0.4,0.6,0.4,1.1v1.9H83.9z M83.8,29.4c-0.2,0-0.4,0-0.6,0
					c-0.4,0-0.6,0.1-0.6,0.4c0,0.2,0.2,0.4,0.5,0.4c0.2,0,0.5-0.1,0.7-0.1V29.4z"/>
				<path class="st0" d="M87.8,30.8l0-0.2c-0.4,0.1-0.8,0.3-1.1,0.3c-0.4,0-0.7-0.1-0.9-0.3c-0.3-0.3-0.4-0.8-0.4-1.3
					c0-0.6,0.2-1.1,0.5-1.4c0.3-0.2,0.6-0.3,1.1-0.3c0.2,0,0.5,0,0.7,0.1v-1.4h0.9v4.5H87.8z M87.7,29.9v-1.6
					c-0.2-0.1-0.4-0.1-0.5-0.1c-0.5,0-0.8,0.3-0.8,0.9c0,0.6,0.2,0.9,0.7,0.9C87.2,30.1,87.5,30,87.7,29.9z"/>
				<path class="st0" d="M90.3,30.8l-1.1-3.2h1l0.7,2.3h0l0.7-2.3h0.9l-1.1,3.2H90.3z"/>
				<path class="st0" d="M93.1,27.1v-0.8h1v0.8H93.1z M94,30.8h-0.9v-3.2h1L94,30.8L94,30.8z"/>
				<path class="st0" d="M96.8,30.7c-0.3,0.1-0.6,0.2-1,0.2c-0.3,0-0.6,0-1-0.1v-0.7c0.3,0,0.7,0.1,0.9,0.1c0.2,0,0.3,0,0.5-0.1
					c0.1,0,0.2-0.1,0.2-0.3c0-0.2-0.1-0.2-0.3-0.3c-0.1,0-0.3-0.1-0.5-0.1c-0.6-0.1-0.9-0.4-0.9-0.9c0-0.3,0.1-0.7,0.4-0.9
					c0.3-0.1,0.5-0.2,1-0.2c0.3,0,0.6,0,0.9,0.1v0.7c-0.3,0-0.6-0.1-0.8-0.1c-0.2,0-0.3,0-0.4,0c-0.1,0-0.2,0.1-0.2,0.2
					c0,0.1,0.1,0.2,0.2,0.3c0.1,0,0.3,0.1,0.4,0.1c0.6,0.1,0.9,0.4,0.9,1C97.3,30.1,97.1,30.5,96.8,30.7z"/>
				<path class="st0" d="M99.2,30.9c-0.3,0-0.8-0.1-1.1-0.4c-0.3-0.3-0.4-0.8-0.4-1.3c0-0.5,0.1-1,0.5-1.3c0.3-0.3,0.7-0.3,1.1-0.3
					c0.4,0,0.8,0.1,1.1,0.3c0.4,0.4,0.4,0.9,0.4,1.6h-2.2c0,0.5,0.3,0.8,0.8,0.8c0.4,0,0.8-0.1,1.2-0.2v0.7
					C100.3,30.7,99.7,30.9,99.2,30.9z M99.3,28.1c-0.4,0-0.6,0.3-0.6,0.7h1.2C99.9,28.3,99.8,28.1,99.3,28.1z"/>
				<path class="st0" d="M103.8,30.8l0-0.2c-0.4,0.1-0.8,0.3-1.1,0.3c-0.3,0-0.7-0.1-0.9-0.4c-0.2-0.2-0.3-0.5-0.3-0.9v-2h1v1.9
					c0,0.4,0.2,0.6,0.6,0.6c0.2,0,0.4-0.1,0.7-0.2v-2.3h0.9v3.2H103.8z"/>
				<path class="st0" d="M105.5,30.8v-3.2h0.8l0,0.2c0.4-0.2,0.8-0.3,1.2-0.3c0,0,0.1,0,0.1,0v0.8c-0.1,0-0.2,0-0.3,0
					c-0.3,0-0.6,0.1-0.9,0.2v2.3H105.5z"/>
				<path class="st0" d="M110.1,30.7c-0.3,0.1-0.6,0.2-1,0.2c-0.3,0-0.6,0-1-0.1v-0.7c0.3,0,0.7,0.1,0.9,0.1c0.2,0,0.3,0,0.5-0.1
					c0.1,0,0.2-0.1,0.2-0.3c0-0.2-0.1-0.2-0.3-0.3c-0.1,0-0.3-0.1-0.5-0.1c-0.6-0.1-0.9-0.4-0.9-0.9c0-0.3,0.1-0.7,0.4-0.9
					c0.3-0.1,0.5-0.2,1-0.2c0.3,0,0.6,0,0.9,0.1v0.7c-0.3,0-0.6-0.1-0.8-0.1c-0.2,0-0.3,0-0.4,0c-0.1,0-0.2,0.1-0.2,0.2
					c0,0.1,0.1,0.2,0.2,0.3c0.1,0,0.3,0.1,0.4,0.1c0.6,0.1,0.9,0.4,0.9,1C110.6,30.1,110.4,30.5,110.1,30.7z"/>
				<path class="st0" d="M112.4,30.1v-1.8h1.6v1.8H112.4z"/>
				<path class="st0" d="M117.1,30.8v-3.5h-1.4v-0.8h3.8v0.8h-1.4v3.5H117.1z"/>
				<path class="st0" d="M121.6,30.8l0-0.2c-0.4,0.1-0.8,0.3-1.2,0.3c-0.3,0-0.5-0.1-0.8-0.3c-0.2-0.2-0.3-0.4-0.3-0.8
					c0-0.3,0.1-0.7,0.5-0.9c0.2-0.1,0.5-0.2,0.8-0.2c0.2,0,0.5,0,0.8,0v-0.1c0-0.4-0.2-0.6-0.8-0.6c-0.3,0-0.6,0-0.9,0.1v-0.7
					c0.4,0,0.7-0.1,1.1-0.1c0.5,0,0.9,0.1,1.2,0.3c0.3,0.3,0.4,0.6,0.4,1.1v1.9H121.6z M121.4,29.4c-0.2,0-0.4,0-0.6,0
					c-0.4,0-0.6,0.1-0.6,0.4c0,0.2,0.2,0.4,0.5,0.4c0.2,0,0.5-0.1,0.7-0.1V29.4z"/>
				<path class="st0" d="M124.1,27.6l0.7,1h0l0.6-1h1l-1.1,1.5l1.2,1.7h-1.1l-0.7-1.1h0l-0.7,1.1h-1l1.1-1.6l-1.1-1.5H124.1z"/>
				<path class="st0" d="M129,30.8l0-0.2c-0.4,0.1-0.8,0.3-1.2,0.3c-0.3,0-0.5-0.1-0.8-0.3c-0.2-0.2-0.3-0.4-0.3-0.8
					c0-0.3,0.1-0.7,0.5-0.9c0.2-0.1,0.5-0.2,0.8-0.2c0.2,0,0.5,0,0.8,0v-0.1c0-0.4-0.2-0.6-0.8-0.6c-0.3,0-0.6,0-0.9,0.1v-0.7
					c0.4,0,0.7-0.1,1.1-0.1c0.5,0,0.9,0.1,1.2,0.3c0.3,0.3,0.4,0.6,0.4,1.1v1.9H129z M128.9,29.4c-0.2,0-0.4,0-0.6,0
					c-0.4,0-0.6,0.1-0.6,0.4c0,0.2,0.2,0.4,0.5,0.4c0.2,0,0.5-0.1,0.7-0.1V29.4z"/>
				<path class="st0" d="M131.9,30.9c-0.3,0-0.6-0.1-0.9-0.4c-0.1-0.2-0.2-0.5-0.2-1v-1.2h-0.5v-0.7h0.5l0.1-1h0.9v1h0.9v0.7h-0.9v1
					c0,0.2,0,0.4,0.1,0.5c0.1,0.2,0.2,0.3,0.4,0.3c0.1,0,0.3,0,0.5-0.1v0.7C132.4,30.8,132.1,30.9,131.9,30.9z"/>
				<path class="st0" d="M134.5,30.9c-0.3,0-0.8-0.1-1.1-0.4c-0.3-0.3-0.4-0.8-0.4-1.3c0-0.5,0.1-1,0.5-1.3c0.3-0.3,0.7-0.3,1.1-0.3
					c0.4,0,0.8,0.1,1.1,0.3c0.4,0.4,0.4,0.9,0.4,1.6H134c0,0.5,0.3,0.8,0.8,0.8c0.4,0,0.8-0.1,1.2-0.2v0.7
					C135.5,30.7,135,30.9,134.5,30.9z M134.6,28.1c-0.4,0-0.6,0.3-0.6,0.7h1.2C135.2,28.3,135,28.1,134.6,28.1z"/>
				<path class="st0" d="M139.1,30.8l0-0.2c-0.4,0.1-0.8,0.3-1.1,0.3c-0.3,0-0.7-0.1-0.9-0.4c-0.2-0.2-0.3-0.5-0.3-0.9v-2h1v1.9
					c0,0.4,0.2,0.6,0.6,0.6c0.2,0,0.4-0.1,0.7-0.2v-2.3h0.9v3.2H139.1z"/>
				<path class="st0" d="M140.8,30.8v-3.2h0.8l0,0.2c0.4-0.2,0.8-0.3,1.2-0.3c0,0,0.1,0,0.1,0v0.8c-0.1,0-0.2,0-0.3,0
					c-0.3,0-0.6,0.1-0.9,0.2v2.3H140.8z"/>
				<path class="st0" d="M145.4,30.7c-0.3,0.1-0.6,0.2-1,0.2c-0.3,0-0.6,0-1-0.1v-0.7c0.3,0,0.7,0.1,0.9,0.1c0.2,0,0.3,0,0.5-0.1
					c0.1,0,0.2-0.1,0.2-0.3c0-0.2-0.1-0.2-0.3-0.3c-0.1,0-0.3-0.1-0.5-0.1c-0.6-0.1-0.9-0.4-0.9-0.9c0-0.3,0.1-0.7,0.4-0.9
					c0.3-0.1,0.5-0.2,1-0.2c0.3,0,0.6,0,0.9,0.1v0.7c-0.3,0-0.6-0.1-0.8-0.1c-0.2,0-0.3,0-0.4,0c-0.1,0-0.2,0.1-0.2,0.2
					c0,0.1,0.1,0.2,0.2,0.3c0.1,0,0.3,0.1,0.4,0.1c0.6,0.1,0.9,0.4,0.9,1C145.8,30.1,145.7,30.5,145.4,30.7z"/>
				<path class="st0" d="M147.7,30.1v-1.8h1.6v1.8H147.7z"/>
				<path class="st0" d="M153.9,30.8l-0.9-1.5c0,0-0.1,0-0.1,0h-0.4v1.5h-1v-4.3h1.6c0.6,0,1.1,0.1,1.4,0.4c0.3,0.2,0.4,0.6,0.4,1
					c0,0.4-0.1,0.8-0.4,1c-0.1,0.1-0.3,0.2-0.4,0.2l1,1.7H153.9z M153.1,27.2h-0.6v1.3h0.6c0.6,0,0.8-0.2,0.8-0.6
					C153.9,27.4,153.6,27.2,153.1,27.2z"/>
				<path class="st0" d="M157,30.9c-0.3,0-0.8-0.1-1.1-0.4c-0.3-0.3-0.4-0.8-0.4-1.3c0-0.5,0.1-1,0.5-1.3c0.3-0.3,0.7-0.3,1.1-0.3
					c0.4,0,0.8,0.1,1.1,0.3c0.4,0.4,0.4,0.9,0.4,1.6h-2.2c0,0.5,0.3,0.8,0.8,0.8c0.4,0,0.8-0.1,1.2-0.2v0.7
					C158,30.7,157.5,30.9,157,30.9z M157.1,28.1c-0.4,0-0.6,0.3-0.6,0.7h1.2C157.7,28.3,157.5,28.1,157.1,28.1z"/>
				<path class="st0" d="M161.6,30.8v-1.9c0-0.4-0.2-0.6-0.6-0.6c-0.2,0-0.4,0.1-0.7,0.2v2.3h-1v-3.2h0.8l0,0.2
					c0.4-0.1,0.8-0.3,1.2-0.3c0.3,0,0.7,0.1,0.9,0.4c0.2,0.2,0.3,0.5,0.3,0.9v2H161.6z"/>
				<path class="st0" d="M164.5,30.9c-0.3,0-0.6-0.1-0.9-0.4c-0.1-0.2-0.2-0.5-0.2-1v-1.2H163v-0.7h0.5l0.1-1h0.9v1h0.9v0.7h-0.9v1
					c0,0.2,0,0.4,0.1,0.5c0.1,0.2,0.2,0.3,0.4,0.3c0.1,0,0.3,0,0.5-0.1v0.7C165,30.8,164.8,30.9,164.5,30.9z"/>
				<path class="st0" d="M170.3,30.8v-1.9c0-0.4-0.2-0.6-0.6-0.6c-0.2,0-0.4,0.1-0.7,0.2c0,0.1,0,0.2,0,0.3v2h-1v-1.9
					c0-0.4-0.2-0.6-0.6-0.6c-0.2,0-0.4,0.1-0.7,0.2v2.3h-1v-3.2h0.8l0,0.2c0.4-0.1,0.8-0.3,1.1-0.3c0.3,0,0.6,0.1,0.9,0.3
					c0.4-0.2,0.9-0.3,1.3-0.3c0.3,0,0.7,0.1,0.9,0.4c0.2,0.2,0.3,0.5,0.3,0.9v2H170.3z"/>
				<path class="st0" d="M173.4,30.9c-0.3,0-0.8-0.1-1.1-0.4c-0.3-0.3-0.4-0.8-0.4-1.3c0-0.5,0.1-1,0.5-1.3c0.3-0.3,0.7-0.3,1.1-0.3
					c0.4,0,0.8,0.1,1.1,0.3c0.4,0.4,0.4,0.9,0.4,1.6h-2.2c0,0.5,0.3,0.8,0.8,0.8c0.4,0,0.8-0.1,1.2-0.2v0.7
					C174.4,30.7,173.9,30.9,173.4,30.9z M173.5,28.1c-0.4,0-0.6,0.3-0.6,0.7h1.2C174.1,28.3,173.9,28.1,173.5,28.1z"/>
				<path class="st0" d="M177,30.9c-0.3,0-0.8-0.1-1.1-0.4c-0.3-0.3-0.4-0.8-0.4-1.3c0-0.5,0.1-1,0.5-1.3c0.3-0.3,0.7-0.3,1.1-0.3
					c0.4,0,0.8,0.1,1.1,0.3c0.4,0.4,0.4,0.9,0.4,1.6h-2.2c0,0.5,0.3,0.8,0.8,0.8c0.4,0,0.8-0.1,1.2-0.2v0.7
					C178,30.7,177.5,30.9,177,30.9z M177.1,28.1c-0.4,0-0.6,0.3-0.6,0.7h1.2C177.7,28.3,177.5,28.1,177.1,28.1z"/>
				<path class="st0" d="M181.2,30.7c-0.3,0.1-0.6,0.2-1,0.2c-0.3,0-0.6,0-1-0.1v-0.7c0.3,0,0.7,0.1,0.9,0.1c0.2,0,0.3,0,0.5-0.1
					c0.1,0,0.2-0.1,0.2-0.3c0-0.2-0.1-0.2-0.3-0.3c-0.1,0-0.3-0.1-0.5-0.1c-0.6-0.1-0.9-0.4-0.9-0.9c0-0.3,0.1-0.7,0.4-0.9
					c0.3-0.1,0.5-0.2,1-0.2c0.3,0,0.6,0,0.9,0.1v0.7c-0.3,0-0.6-0.1-0.8-0.1c-0.2,0-0.3,0-0.4,0c-0.1,0-0.2,0.1-0.2,0.2
					c0,0.1,0.1,0.2,0.2,0.3c0.1,0,0.3,0.1,0.4,0.1c0.6,0.1,0.9,0.4,0.9,1C181.7,30.1,181.6,30.5,181.2,30.7z"/>
				<path class="st0" d="M183.5,30.9c-0.3,0-0.6-0.1-0.9-0.4c-0.1-0.2-0.2-0.5-0.2-1v-1.2H182v-0.7h0.5l0.1-1h0.9v1h0.9v0.7h-0.9v1
					c0,0.2,0,0.4,0.1,0.5c0.1,0.2,0.2,0.3,0.4,0.3c0.1,0,0.3,0,0.5-0.1v0.7C184,30.8,183.8,30.9,183.5,30.9z"/>
				<path class="st0" d="M186.2,30.9c-0.3,0-0.8-0.1-1.1-0.4c-0.3-0.3-0.4-0.8-0.4-1.3c0-0.5,0.1-1,0.5-1.3c0.3-0.3,0.7-0.3,1.1-0.3
					c0.4,0,0.8,0.1,1.1,0.3c0.4,0.4,0.4,0.9,0.4,1.6h-2.2c0,0.5,0.3,0.8,0.8,0.8c0.4,0,0.8-0.1,1.2-0.2v0.7
					C187.2,30.7,186.7,30.9,186.2,30.9z M186.3,28.1c-0.4,0-0.6,0.3-0.6,0.7h1.2C186.9,28.3,186.7,28.1,186.3,28.1z"/>
				<path class="st0" d="M188.5,30.8v-3.2h0.8l0,0.2c0.4-0.2,0.8-0.3,1.2-0.3c0,0,0.1,0,0.1,0v0.8c-0.1,0-0.2,0-0.3,0
					c-0.3,0-0.6,0.1-0.9,0.2v2.3H188.5z"/>
				<path class="st0" d="M193.1,30.7c-0.3,0.1-0.6,0.2-1,0.2c-0.3,0-0.6,0-1-0.1v-0.7c0.3,0,0.7,0.1,0.9,0.1c0.2,0,0.3,0,0.5-0.1
					c0.1,0,0.2-0.1,0.2-0.3c0-0.2-0.1-0.2-0.3-0.3c-0.1,0-0.3-0.1-0.5-0.1c-0.6-0.1-0.9-0.4-0.9-0.9c0-0.3,0.1-0.7,0.4-0.9
					c0.3-0.1,0.5-0.2,1-0.2c0.3,0,0.6,0,0.9,0.1v0.7c-0.3,0-0.6-0.1-0.8-0.1c-0.2,0-0.3,0-0.4,0c-0.1,0-0.2,0.1-0.2,0.2
					c0,0.1,0.1,0.2,0.2,0.3c0.1,0,0.3,0.1,0.4,0.1c0.6,0.1,0.9,0.4,0.9,1C193.5,30.1,193.4,30.5,193.1,30.7z"/>
			</g>
		</g>
	</g>
	<g>
		<g>
			<linearGradient id="SVGID_1_" gradientUnits="userSpaceOnUse" x1="8.6834" y1="11.1322" x2="34.4221" y2="11.1322">
				<stop  offset="0" style="stop-color:#F29300"/>
				<stop  offset="0.3681" style="stop-color:#F4A015"/>
				<stop  offset="1" style="stop-color:#F8B434"/>
			</linearGradient>
			<path class="st1" d="M12.6,8.8c0.5-0.4,1-0.7,1.6-0.8l17.5-3.3c4.4-0.9,3.1,6.1-1.4,10c-0.5,0.4-1.1,0.7-1.8,0.8L11,17.7
				C6.9,18.2,8.7,12.3,12.6,8.8z"/>
			
				<linearGradient id="SVGID_00000057828132477706111260000005917958799885004162_" gradientUnits="userSpaceOnUse" x1="189.0433" y1="18.7097" x2="217.5643" y2="18.7097" gradientTransform="matrix(0.9727 0.232 -0.232 0.9727 -164.0798 -53.3382)">
				<stop  offset="0" style="stop-color:#3D68AB"/>
				<stop  offset="0.2072" style="stop-color:#3E78B7"/>
				<stop  offset="0.7436" style="stop-color:#469ED3"/>
				<stop  offset="1" style="stop-color:#4CADDD"/>
			</linearGradient>
			<path style="fill:url(#SVGID_00000057828132477706111260000005917958799885004162_);" d="M17.2,20.5c-4.4,0.6-5.2-2.1-2-7.4
				c0.3-0.5,0.7-0.8,1.3-1c10.6-3.5,16.1-5.4,22.8-8.2c7.4-3.1,7.5,6.1,0.9,12.8c-0.3,0.3-0.8,0.6-1.2,0.7
				C31.7,18.8,22.6,19.8,17.2,20.5z"/>
		</g>
		
			<linearGradient id="SVGID_00000037658883523119127480000012958510259304929189_" gradientUnits="userSpaceOnUse" x1="1.4985" y1="27.1075" x2="42.4209" y2="27.1075">
			<stop  offset="0" style="stop-color:#43A535"/>
			<stop  offset="0.5863" style="stop-color:#7CB429"/>
			<stop  offset="1" style="stop-color:#96BE1F"/>
		</linearGradient>
		<path style="fill:url(#SVGID_00000037658883523119127480000012958510259304929189_);" d="M4.1,30.6c-5-0.4-2.4-5.3,4.1-7.8
			c0.5-0.2,1-0.3,1.6-0.3c10.2,0.2,19.6-0.1,28.9-0.7c6.8-0.4,3.5,6.7-4.6,10.2c-0.5,0.2-1.1,0.3-1.7,0.3
			C22.6,32.2,13.1,31.7,4.1,30.6z"/>
	</g>
</g>
</svg>
