<?xml version="1.0" encoding="utf-8"?>
<!-- Generator: Adobe Illustrator 23.1.1, SVG Export Plug-In . SVG Version: 6.00 Build 0)  -->
<svg version="1.1" id="_x3C_Laag_x3E_" xmlns="http://www.w3.org/2000/svg" xmlns:xlink="http://www.w3.org/1999/xlink" x="0px"
	 y="0px" viewBox="0 0 114.4 67.1" style="enable-background:new 0 0 114.4 67.1;" xml:space="preserve">
<style type="text/css">
	.st0{fill:#C10A27;}
	.st1{fill:none;stroke:#000000;stroke-width:0.7087;}
</style>
<g>
	<g>
		<path class="st0" d="M32.1,40.6c-1.6,0.8-5.5,1.8-10.5,1.8c-14.2,0-21.5-8.9-21.5-20.7C0.1,7.7,10.1,0,22.5,0
			c4.8,0,8.5,1,10.1,1.8l-2,7.3c-1.8-0.8-4.4-1.5-7.8-1.5c-7.3,0-13,4.4-13,13.7c0,8.2,4.9,13.4,13.1,13.4c2.9,0,5.9-0.5,7.8-1.3
			L32.1,40.6z"/>
		<path class="st0" d="M53.8,42.4c-12.1,0-19.3-9.2-19.3-20.9C34.5,9.2,42.4,0,54.5,0C67.1,0,74,9.4,74,20.8
			C74,34.3,65.9,42.4,53.8,42.4L53.8,42.4z M54.2,35c6.3,0,9.9-5.9,9.9-14c0-7.4-3.5-13.7-9.9-13.7c-6.4,0-10,6.2-10,13.9
			C44.2,29,48,35,54.2,35L54.2,35z"/>
		<path class="st0" d="M114.4,39.9c-2.9,1-8.3,2.3-13.7,2.3c-7.5,0-12.9-1.9-16.7-5.5c-3.7-3.6-5.8-9-5.8-15
			C78.3,8,88.2,0.2,101.7,0.2c5.3,0,9.4,1,11.4,2l-2,7.5c-2.3-1-5-1.8-9.5-1.8c-7.7,0-13.7,4.4-13.7,13.3c0,8.5,5.4,13.5,13,13.5
			c2.1,0,3.8-0.2,4.5-0.5v-8.7h-6.3v-7.3h15.3V39.9z"/>
	</g>
	<g>
		<g>
			<path d="M0.4,61.2c0-1,0-1.9-0.1-2.7h2.2l0.1,1.1h0.1c0.4-0.5,1.1-1.3,2.5-1.3c1.1,0,1.9,0.6,2.3,1.4h0c0.3-0.4,0.7-0.8,1.1-1
				c0.5-0.3,1-0.4,1.6-0.4c1.6,0,2.8,1.1,2.8,3.6v4.9h-2.5v-4.5c0-1.2-0.4-1.9-1.2-1.9c-0.6,0-1,0.4-1.2,0.9
				c-0.1,0.2-0.1,0.4-0.1,0.6v4.9H5.4v-4.7c0-1-0.4-1.8-1.2-1.8c-0.7,0-1.1,0.5-1.2,0.9c-0.1,0.2-0.1,0.4-0.1,0.7v4.8H0.4V61.2z"/>
			<path d="M26.4,64.9c0,0.8,0,1.5,0.1,2h-2.3L24.1,66H24c-0.5,0.7-1.4,1-2.4,1c-1.7,0-2.7-1.2-2.7-2.6c0-2.2,1.9-3.2,4.9-3.2v-0.1
				c0-0.4-0.2-1.1-1.5-1.1c-0.9,0-1.8,0.3-2.3,0.6l-0.5-1.6c0.6-0.3,1.7-0.7,3.2-0.7c2.8,0,3.6,1.6,3.6,3.6V64.9z M23.9,62.9
				c-1.4,0-2.4,0.3-2.4,1.3c0,0.7,0.4,1,1,1c0.6,0,1.2-0.4,1.3-1c0-0.1,0.1-0.3,0.1-0.4V62.9z"/>
		</g>
		<path d="M35.5,62.1L35.5,62.1c0.2-0.4,0.4-0.7,0.6-1l1.7-2.5H41l-3,3.4l3.4,4.9h-3.2l-2-3.4l-0.6,0.8v2.6h-2.6V54.8h2.6V62.1z"/>
		<g>
			<path d="M48.4,63.5c0.1,1.1,1.1,1.6,2.3,1.6c0.9,0,1.6-0.1,2.3-0.4l0.3,1.8c-0.9,0.4-1.9,0.5-3,0.5c-2.8,0-4.4-1.6-4.4-4.3
				c0-2.1,1.3-4.4,4.2-4.4c2.7,0,3.7,2.1,3.7,4.1c0,0.4-0.1,0.8-0.1,1L48.4,63.5z M51.5,61.8c0-0.6-0.3-1.7-1.4-1.7
				c-1.1,0-1.5,1-1.6,1.7H51.5z"/>
			<path d="M59.9,54.8h2.6v12.1h-2.6V54.8z"/>
			<path d="M76,64.9c0,0.8,0,1.5,0.1,2h-2.3L73.6,66h-0.1c-0.5,0.7-1.4,1-2.4,1c-1.7,0-2.7-1.2-2.7-2.6c0-2.2,1.9-3.2,4.9-3.2v-0.1
				c0-0.4-0.2-1.1-1.5-1.1c-0.9,0-1.8,0.3-2.3,0.6l-0.5-1.6c0.6-0.3,1.7-0.7,3.2-0.7c2.8,0,3.6,1.6,3.6,3.6V64.9z M73.5,62.9
				c-1.4,0-2.4,0.3-2.4,1.3c0,0.7,0.4,1,1,1c0.6,0,1.2-0.4,1.3-1c0-0.1,0.1-0.3,0.1-0.4V62.9z"/>
			<path d="M89.5,64.9c0,0.8,0,1.5,0.1,2h-2.3L87.1,66h-0.1c-0.5,0.7-1.4,1-2.4,1c-1.7,0-2.7-1.2-2.7-2.6c0-2.2,1.9-3.2,4.9-3.2
				v-0.1c0-0.4-0.2-1.1-1.5-1.1c-0.9,0-1.8,0.3-2.3,0.6l-0.5-1.6c0.6-0.3,1.7-0.7,3.2-0.7c2.8,0,3.6,1.6,3.6,3.6V64.9z M87,62.9
				c-1.4,0-2.4,0.3-2.4,1.3c0,0.7,0.4,1,1,1c0.6,0,1.2-0.4,1.3-1c0-0.1,0.1-0.3,0.1-0.4V62.9z"/>
			<path d="M96,61.3c0-1.2,0-2-0.1-2.7h2.2l0.1,1.5h0.1c0.4-1.2,1.4-1.7,2.2-1.7c0.2,0,0.4,0,0.5,0.1v2.4c-0.2,0-0.4-0.1-0.7-0.1
				c-1,0-1.6,0.5-1.8,1.3c0,0.2-0.1,0.4-0.1,0.6v4.2H96L96,61.3z"/>
		</g>
		<path d="M106.9,64.6c0.5,0.3,1.5,0.6,2.2,0.6c0.8,0,1.1-0.3,1.1-0.7c0-0.4-0.3-0.6-1.2-1c-1.7-0.6-2.4-1.5-2.4-2.5
			c0-1.6,1.3-2.7,3.4-2.7c1,0,1.8,0.2,2.3,0.5l-0.4,1.8c-0.4-0.2-1.1-0.5-1.8-0.5c-0.6,0-1,0.3-1,0.7s0.3,0.6,1.3,1
			c1.6,0.5,2.2,1.3,2.2,2.6c0,1.6-1.2,2.7-3.6,2.7c-1.1,0-2.1-0.3-2.7-0.6L106.9,64.6z"/>
	</g>
	<line class="st1" x1="0" y1="52.4" x2="113.5" y2="52.4"/>
	<g>
		<path d="M3.2,49.8C3,49.9,2.7,50,2.3,50c-0.9,0-1.4-0.6-1.4-1.5c0-0.9,0.6-1.5,1.6-1.5c0.3,0,0.6,0.1,0.7,0.2L3,47.5
			c-0.1-0.1-0.3-0.1-0.6-0.1c-0.7,0-1,0.5-1,1.1c0,0.7,0.4,1.1,1,1.1c0.3,0,0.5-0.1,0.6-0.1L3.2,49.8z"/>
		<g>
			<path d="M6.4,50C5.6,50,5,49.4,5,48.5c0-1,0.6-1.5,1.4-1.5c0.8,0,1.4,0.6,1.4,1.5C7.9,49.5,7.1,50,6.4,50L6.4,50z M6.4,49.6
				c0.5,0,0.9-0.5,0.9-1.1c0-0.5-0.2-1.1-0.9-1.1c-0.6,0-0.9,0.6-0.9,1.1C5.6,49.1,5.9,49.6,6.4,49.6L6.4,49.6z"/>
			<path d="M10,47.8c0-0.3,0-0.5,0-0.8h0.5l0,0.5h0c0.2-0.3,0.4-0.5,0.9-0.5c0.4,0,0.7,0.2,0.8,0.6h0c0.1-0.2,0.2-0.3,0.3-0.4
				c0.2-0.1,0.4-0.2,0.6-0.2c0.4,0,1,0.3,1,1.3v1.7h-0.5v-1.6c0-0.6-0.2-0.9-0.6-0.9c-0.3,0-0.5,0.2-0.6,0.5c0,0.1,0,0.2,0,0.3v1.8
				h-0.5v-1.7c0-0.5-0.2-0.8-0.6-0.8c-0.3,0-0.6,0.3-0.7,0.5c0,0.1,0,0.2,0,0.3v1.8H10V47.8z"/>
			<path d="M16.5,47.8c0-0.3,0-0.5,0-0.8H17l0,0.5h0c0.2-0.3,0.4-0.5,0.9-0.5c0.4,0,0.7,0.2,0.8,0.6h0c0.1-0.2,0.2-0.3,0.3-0.4
				c0.2-0.1,0.4-0.2,0.6-0.2c0.4,0,1,0.3,1,1.3v1.7h-0.5v-1.6c0-0.6-0.2-0.9-0.6-0.9c-0.3,0-0.5,0.2-0.6,0.5c0,0.1,0,0.2,0,0.3v1.8
				h-0.5v-1.7c0-0.5-0.2-0.8-0.6-0.8c-0.3,0-0.6,0.3-0.7,0.5c0,0.1,0,0.2,0,0.3v1.8h-0.5V47.8z"/>
			<path d="M23.3,48.5c0,0.7,0.5,1,1,1c0.4,0,0.6-0.1,0.8-0.1l0.1,0.4c-0.2,0.1-0.5,0.2-1,0.2c-0.9,0-1.4-0.6-1.4-1.5
				c0-0.9,0.5-1.6,1.4-1.6c0.9,0,1.2,0.8,1.2,1.4c0,0.1,0,0.2,0,0.3L23.3,48.5z M24.9,48.2c0-0.3-0.1-0.9-0.7-0.9
				c-0.5,0-0.8,0.5-0.8,0.9H24.9z"/>
		</g>
		<path d="M27.6,47.9c0-0.3,0-0.6,0-0.9H28l0,0.6h0c0.1-0.4,0.5-0.6,0.8-0.6c0.1,0,0.1,0,0.1,0v0.5c-0.1,0-0.1,0-0.2,0
			c-0.4,0-0.6,0.3-0.7,0.7c0,0.1,0,0.2,0,0.3v1.5h-0.5L27.6,47.9z"/>
		<g>
			<path d="M33,49.8c-0.1,0.1-0.4,0.2-0.8,0.2c-0.9,0-1.4-0.6-1.4-1.5c0-0.9,0.6-1.5,1.6-1.5c0.3,0,0.6,0.1,0.7,0.2l-0.1,0.4
				c-0.1-0.1-0.3-0.1-0.6-0.1c-0.7,0-1,0.5-1,1.1c0,0.7,0.4,1.1,1,1.1c0.3,0,0.5-0.1,0.6-0.1L33,49.8z"/>
			<path d="M35.4,46.5c0.2,0,0.3-0.2,0.3-0.3c0-0.2-0.1-0.3-0.3-0.3c-0.2,0-0.3,0.2-0.3,0.3C35.1,46.3,35.2,46.5,35.4,46.5
				L35.4,46.5z M35.7,49.9V47h-0.5v2.9H35.7z"/>
			<path d="M38.4,48.5c0,0.7,0.5,1,1,1c0.4,0,0.6-0.1,0.8-0.1l0.1,0.4c-0.2,0.1-0.5,0.2-1,0.2c-0.9,0-1.4-0.6-1.4-1.5
				c0-0.9,0.5-1.6,1.4-1.6c0.9,0,1.2,0.8,1.2,1.4c0,0.1,0,0.2,0,0.3L38.4,48.5z M39.9,48.2c0-0.3-0.1-0.9-0.7-0.9
				c-0.5,0-0.8,0.5-0.8,0.9H39.9z"/>
			<path d="M42.9,48.5c0,0.7,0.5,1,1,1c0.4,0,0.6-0.1,0.8-0.1l0.1,0.4c-0.2,0.1-0.5,0.2-1,0.2c-0.9,0-1.4-0.6-1.4-1.5
				c0-0.9,0.5-1.6,1.4-1.6c0.9,0,1.2,0.8,1.2,1.4c0,0.1,0,0.2,0,0.3L42.9,48.5z M44.4,48.2c0-0.3-0.1-0.9-0.7-0.9
				c-0.5,0-0.8,0.5-0.8,0.9H44.4z"/>
			<path d="M47.1,45.6h0.5v4.3h-0.5V45.6z"/>
			<path d="M53.9,50c-0.8,0-1.4-0.6-1.4-1.5c0-1,0.6-1.5,1.4-1.5c0.8,0,1.4,0.6,1.4,1.5C55.4,49.5,54.6,50,53.9,50L53.9,50z
				 M54,49.6c0.5,0,0.9-0.5,0.9-1.1c0-0.5-0.2-1.1-0.9-1.1c-0.6,0-0.9,0.6-0.9,1.1C53.1,49.1,53.4,49.6,54,49.6L54,49.6z"/>
			<path d="M57.5,47.8c0-0.3,0-0.5,0-0.8H58l0,0.5h0c0.1-0.3,0.5-0.5,1-0.5c0.4,0,1,0.2,1,1.2v1.7h-0.5v-1.7c0-0.5-0.2-0.9-0.7-0.9
				c-0.3,0-0.6,0.2-0.7,0.5c0,0.1,0,0.2,0,0.2v1.8h-0.5V47.8z"/>
		</g>
		<path d="M62.4,47.9c0-0.3,0-0.6,0-0.9h0.5l0,0.6h0c0.1-0.4,0.5-0.6,0.8-0.6c0.1,0,0.1,0,0.1,0v0.5c-0.1,0-0.1,0-0.2,0
			c-0.4,0-0.6,0.3-0.7,0.7c0,0.1,0,0.2,0,0.3v1.5h-0.5L62.4,47.9z"/>
		<path d="M67,50c-0.8,0-1.4-0.6-1.4-1.5c0-1,0.6-1.5,1.4-1.5c0.8,0,1.4,0.6,1.4,1.5C68.4,49.5,67.7,50,67,50L67,50z M67,49.6
			c0.5,0,0.9-0.5,0.9-1.1c0-0.5-0.2-1.1-0.9-1.1c-0.6,0-0.9,0.6-0.9,1.1C66.1,49.1,66.5,49.6,67,49.6L67,49.6z"/>
		<path d="M70.9,48.5c0,0.7,0.5,1,1,1c0.4,0,0.6-0.1,0.8-0.1l0.1,0.4c-0.2,0.1-0.5,0.2-1,0.2c-0.9,0-1.4-0.6-1.4-1.5
			c0-0.9,0.5-1.6,1.4-1.6c0.9,0,1.2,0.8,1.2,1.4c0,0.1,0,0.2,0,0.3L70.9,48.5z M72.4,48.2c0-0.3-0.1-0.9-0.7-0.9
			c-0.5,0-0.8,0.5-0.8,0.9H72.4z"/>
		<path d="M75.1,47.9c0-0.3,0-0.6,0-0.9h0.5l0,0.6h0c0.1-0.4,0.5-0.6,0.8-0.6c0.1,0,0.1,0,0.1,0v0.5c-0.1,0-0.1,0-0.2,0
			c-0.4,0-0.6,0.3-0.7,0.7c0,0.1,0,0.2,0,0.3v1.5h-0.5L75.1,47.9z"/>
		<g>
			<path d="M78.8,48.5c0,0.7,0.5,1,1,1c0.4,0,0.6-0.1,0.8-0.1l0.1,0.4c-0.2,0.1-0.5,0.2-1,0.2c-0.9,0-1.4-0.6-1.4-1.5
				c0-0.9,0.5-1.6,1.4-1.6c0.9,0,1.2,0.8,1.2,1.4c0,0.1,0,0.2,0,0.3L78.8,48.5z M80.4,48.2c0-0.3-0.1-0.9-0.7-0.9
				c-0.5,0-0.8,0.5-0.8,0.9H80.4z"/>
			<path d="M83,47.8c0-0.3,0-0.5,0-0.8h0.5l0,0.5h0c0.1-0.3,0.5-0.5,1-0.5c0.4,0,1,0.2,1,1.2v1.7H85v-1.7c0-0.5-0.2-0.9-0.7-0.9
				c-0.3,0-0.6,0.2-0.7,0.5c0,0.1,0,0.2,0,0.2v1.8H83V47.8z"/>
			<path d="M90.4,45.6v3.5c0,0.3,0,0.6,0,0.8h-0.5l0-0.5h0c-0.2,0.3-0.5,0.6-1,0.6c-0.7,0-1.2-0.6-1.2-1.5c0-1,0.6-1.6,1.3-1.6
				c0.5,0,0.8,0.2,0.9,0.4h0v-1.7H90.4z M89.9,48.2c0-0.1,0-0.2,0-0.2c-0.1-0.3-0.4-0.6-0.8-0.6c-0.5,0-0.9,0.5-0.9,1.1
				c0,0.6,0.3,1.1,0.9,1.1c0.4,0,0.7-0.2,0.8-0.6c0-0.1,0-0.1,0-0.2V48.2z"/>
			<path d="M98,49.5c0,0.7-0.1,1.1-0.4,1.3c-0.3,0.3-0.7,0.3-1.1,0.3c-0.3,0-0.7-0.1-1-0.2l0.1-0.4c0.2,0.1,0.5,0.2,0.9,0.2
				c0.5,0,0.9-0.3,0.9-1v-0.3h0c-0.2,0.3-0.5,0.5-0.9,0.5c-0.7,0-1.2-0.6-1.2-1.4c0-1,0.6-1.5,1.3-1.5c0.5,0,0.8,0.3,0.9,0.5h0
				l0-0.4H98c0,0.2,0,0.4,0,0.8V49.5z M97.5,48.1c0-0.1,0-0.2,0-0.2c-0.1-0.3-0.3-0.6-0.7-0.6c-0.5,0-0.9,0.4-0.9,1.1
				c0,0.6,0.3,1,0.9,1c0.3,0,0.6-0.2,0.7-0.5c0-0.1,0-0.2,0-0.3V48.1z"/>
		</g>
		<path d="M101.6,50c-0.8,0-1.4-0.6-1.4-1.5c0-1,0.6-1.5,1.4-1.5c0.8,0,1.4,0.6,1.4,1.5C103,49.5,102.3,50,101.6,50L101.6,50z
			 M101.6,49.6c0.5,0,0.9-0.5,0.9-1.1c0-0.5-0.2-1.1-0.9-1.1c-0.6,0-0.9,0.6-0.9,1.1C100.7,49.1,101.1,49.6,101.6,49.6L101.6,49.6z"
			/>
		<path d="M105.5,48.5c0,0.7,0.5,1,1,1c0.4,0,0.6-0.1,0.8-0.1l0.1,0.4c-0.2,0.1-0.5,0.2-1,0.2c-0.9,0-1.4-0.6-1.4-1.5
			c0-0.9,0.5-1.6,1.4-1.6c0.9,0,1.2,0.8,1.2,1.4c0,0.1,0,0.2,0,0.3L105.5,48.5z M107,48.2c0-0.3-0.1-0.9-0.7-0.9
			c-0.5,0-0.8,0.5-0.8,0.9H107z"/>
		<path d="M112.2,45.6v3.5c0,0.3,0,0.6,0,0.8h-0.5l0-0.5h0c-0.2,0.3-0.5,0.6-1,0.6c-0.7,0-1.2-0.6-1.2-1.5c0-1,0.6-1.6,1.3-1.6
			c0.5,0,0.8,0.2,0.9,0.4h0v-1.7H112.2z M111.7,48.2c0-0.1,0-0.2,0-0.2c-0.1-0.3-0.4-0.6-0.8-0.6c-0.5,0-0.9,0.5-0.9,1.1
			c0,0.6,0.3,1.1,0.9,1.1c0.4,0,0.7-0.2,0.8-0.6c0-0.1,0-0.1,0-0.2V48.2z"/>
	</g>
</g>
</svg>
