<svg width="122" height="72" viewBox="0 0 122 72" fill="none" xmlns="http://www.w3.org/2000/svg">
<path d="M118.335 71.407L113.023 64.389H110.939V71.407H108.905V55.9117H110.939V62.4421H113.111L117.934 55.9117H120.392L114.768 63.3717L120.902 71.407H118.335Z" fill="white"/>
<path d="M89.5159 71.407V55.9117H91.4209L99.921 67.6885V55.9117H101.956V71.407H100.051L91.5542 59.6303V71.407H89.5159Z" fill="white"/>
<path d="M81.0731 55.9117H79.0386V71.407H81.0731V55.9117Z" fill="white"/>
<path d="M58.7729 71.407V55.9117H60.6779L69.1781 67.6885V55.9117H71.2126V71.407H69.3076L60.8113 59.6303V71.407H58.7729Z" fill="white"/>
<path d="M43.0417 71.407V55.9117H52.2086V57.8167H45.0801V62.5107H51.4276V64.4119H45.0801V69.502H52.2467V71.407H43.0417Z" fill="white"/>
<path d="M27.7866 71.407V55.9117H36.9535V57.8167H29.8212V62.5107H36.1724V64.4119H29.8212V69.502H36.9916V71.407H27.7866Z" fill="white"/>
<path d="M4.75869 71.407L0 55.9117H2.16789L5.88645 68.0656L9.89457 55.9117H11.9062L15.9601 68.0428L19.6786 55.9117H21.8008L17.0421 71.407H15.0076L10.889 58.9902L6.79704 71.407H4.75869Z" fill="white"/>
<path d="M110.932 50.0748H114.075C117.638 50.0748 119.962 47.7507 119.962 44.2302C119.962 40.7098 117.638 38.3857 114.075 38.3857H110.932V50.071V50.0748ZM108.897 51.976V36.4807H114.144C118.746 36.4807 122 39.7345 122 44.2264C122 48.7184 118.746 51.9722 114.144 51.9722H108.897V51.976Z" fill="white"/>
<path d="M89.5159 51.976V36.4846H91.4209L99.9172 48.2575V36.4846H101.956V51.976H100.051L91.5504 40.2031V51.976H89.5159Z" fill="white"/>
<path d="M69.1896 44.2303C69.1896 47.705 71.7804 50.2958 75.278 50.2958C78.7755 50.2958 81.3663 47.705 81.3663 44.2303C81.3663 40.7556 78.7755 38.1648 75.278 38.1648C71.7804 38.1648 69.1896 40.7556 69.1896 44.2303ZM75.278 52.2428C70.584 52.2428 67.155 48.8138 67.155 44.2303C67.155 39.6469 70.584 36.2179 75.278 36.2179C79.9719 36.2179 83.4009 39.6469 83.4009 44.2303C83.4009 48.8138 79.9719 52.2428 75.278 52.2428Z" fill="white"/>
<path d="M42.9043 51.976L45.4951 36.4846H47.5754L52.555 48.0365L57.5347 36.4846H59.6607L62.2058 51.976H60.1255L58.1329 40.0469L53.1303 51.355H52.0026L46.9543 40.0012L44.9846 51.976H42.9043Z" fill="white"/>
<path d="M36.9952 36.4846H34.9607V51.9798H36.9952V36.4846Z" fill="white"/>
<path d="M19.4654 46.4667H25.3518L22.4067 39.0525L19.4616 46.4667H19.4654ZM15.061 51.976L21.458 36.4807H23.4278L29.8248 51.976H27.6112L26.1519 48.4136H18.692L17.2327 51.976H15.0648H15.061Z" fill="white"/>
<path d="M2.0613 44.0969H5.82558C7.77249 44.0969 8.94597 42.9234 8.94597 41.2432C8.94597 39.563 7.77249 38.3895 5.82558 38.3895H2.0613V44.1007V44.0969ZM0.0229492 51.976V36.4807H5.93226C8.94216 36.4807 11.0224 38.561 11.0224 41.2623C11.0224 43.3654 9.71559 45.1142 7.68105 45.7352L11.3539 51.976H9.05265L5.55507 45.9981H2.0613V51.976H0.0229492Z" fill="white"/>
<path d="M92.4154 31.5925C92.1906 31.4973 91.2343 31.4744 89.2226 31.5201C89.0855 31.5201 88.994 31.5239 88.9598 31.5239C85.4888 31.5239 82.2542 31.2458 79.3395 30.701C76.463 30.1904 73.6588 29.398 71.0032 28.3388C68.3477 27.3177 65.7111 26.0413 63.1661 24.5478C60.7086 23.0695 58.114 21.3817 55.4432 19.5262C56.1976 19.4196 57.2148 19.271 58.4874 19.0805C59.9923 18.8252 61.7373 18.509 63.6766 18.1432C65.6121 17.7736 67.6923 17.3469 69.8717 16.8745C72.0967 16.3601 74.3294 15.8039 76.5087 15.2209C78.6918 14.6342 80.814 14.0056 82.818 13.3426C84.8564 12.6454 86.6623 11.9215 88.1863 11.1862C89.7522 10.4127 91.0172 9.60882 91.9544 8.79348C92.9107 7.9248 93.3946 7.01802 93.3946 6.096C93.3946 5.09397 92.846 4.23672 91.7677 3.55092C90.7543 2.88417 89.4284 2.32029 87.8244 1.87833C86.2661 1.43637 84.4944 1.08585 82.5628 0.82677C80.6349 0.5715 78.7375 0.38481 76.924 0.27432C75.118 0.16383 73.4454 0.09144 71.9557 0.05334C70.4813 0.01524 69.3725 0 68.6639 0C67.5933 0 66.1645 0.0381 64.4234 0.11049C62.6784 0.14859 60.7086 0.25908 58.5636 0.44196C56.449 0.58674 54.1592 0.81153 51.7551 1.1049C49.3815 1.36017 46.9926 1.73355 44.6647 2.2098C42.3635 2.64795 40.127 3.20802 38.0163 3.86715C35.8979 4.49199 33.9929 5.27685 32.3584 6.19506C30.7506 7.08279 29.4438 8.13054 28.4684 9.31926C27.5235 10.5156 27.0435 11.8796 27.0435 13.3769C27.0435 13.5636 27.0625 13.8493 27.1006 14.2189C27.1387 14.558 27.2149 14.9161 27.3292 15.2933C27.4435 15.6705 27.5807 15.9944 27.7407 16.2725C27.954 16.5697 28.2169 16.7183 28.5255 16.7183C28.8342 16.7183 29.0018 16.5468 29.0018 16.2458C29.0018 15.8267 28.9218 15.4191 28.7694 15.0343C28.6284 14.6837 28.556 14.3142 28.556 13.9294C28.556 12.6111 29.0132 11.4186 29.9124 10.3861C30.8611 9.30402 32.126 8.32866 33.6614 7.49808C35.2426 6.65988 37.0904 5.92455 39.1554 5.30352C41.2243 4.68249 43.415 4.14528 45.6629 3.70713C47.9184 3.26898 50.2235 2.89941 52.5095 2.60604C54.8336 2.31267 57.0663 2.09169 59.1389 1.94691C61.2039 1.76403 63.0975 1.65354 64.7624 1.61544C66.4655 1.54305 67.8333 1.50495 68.8277 1.50495C69.7459 1.50495 70.9842 1.54305 72.5044 1.61544C74.0246 1.65354 75.6552 1.72593 77.3469 1.83642C79.0461 1.94691 80.7873 2.11074 82.5247 2.33172C84.2544 2.5146 85.8241 2.77368 87.1919 3.10134C88.5864 3.3909 89.7408 3.74142 90.6171 4.13766C91.4477 4.51485 91.8706 4.953 91.8706 5.44068C91.8706 5.60832 91.8363 5.79501 91.7792 5.97027C91.0895 7.08279 89.8475 8.16102 88.0949 9.17067C86.327 10.1536 84.2125 11.0985 81.816 11.971C79.4157 12.8092 76.7944 13.6055 74.0246 14.337C71.2852 15.0304 68.5686 15.6629 65.9474 16.2077C63.3642 16.7183 60.9105 17.145 58.6512 17.4727C56.4681 17.7965 54.6926 18.0175 53.3667 18.128C52.9667 17.8079 52.5438 17.5184 52.1094 17.2707C51.698 17.0345 51.2636 16.8097 50.8179 16.604L51.7399 10.9233C51.797 10.5689 51.5265 10.2489 51.1684 10.2489H50.7264C50.1778 10.2489 49.7053 10.6489 49.6177 11.19L48.8481 15.9334C48.8176 15.9334 48.7833 15.922 48.7528 15.922H48.4176C48.1128 15.922 47.747 15.9601 47.3469 16.0325C46.924 16.0706 46.5126 16.1849 46.1316 16.3754C45.781 16.5278 45.4686 16.7411 45.1981 17.0116C44.9124 17.2936 44.7638 17.6441 44.7638 18.0518C44.7638 18.5776 44.9924 18.989 45.4419 19.2748C45.8687 19.5415 46.303 19.6977 46.7335 19.7358C46.9621 19.7815 47.7394 19.9377 48.1966 19.953L46.9012 27.9273C46.844 28.2816 47.1145 28.6017 47.4727 28.6017C48.2804 28.6017 48.9662 28.0187 49.0957 27.2224L50.2806 19.9301C50.5245 19.9225 50.7645 19.9149 50.9931 19.9034C51.8656 19.831 52.7229 19.7587 53.5611 19.6863C56.8034 21.9418 59.8285 23.9192 62.5565 25.5575C65.3378 27.2453 68.1762 28.655 70.9956 29.7561C73.8531 30.8572 76.9202 31.6916 80.1091 32.244C83.2981 32.7927 86.9824 33.0746 91.0591 33.0746H91.4477C91.6801 33.0746 91.8935 33.0556 92.084 33.0175C92.3126 32.9794 92.4992 32.9413 92.6478 32.907C92.9717 32.8422 93.0403 32.6746 93.0403 32.545C93.0403 32.084 92.8155 31.7525 92.3926 31.5849L92.4154 31.5925ZM50.6235 17.907C50.7074 17.9413 50.795 17.9756 50.875 18.0175C51.0693 18.1127 51.416 18.3413 51.6941 18.5242C51.6941 18.5242 51.698 18.5242 51.7018 18.528C51.4198 18.5509 51.1341 18.5776 50.8369 18.6004C50.7569 18.608 50.6388 18.589 50.5131 18.5623L50.6197 17.907H50.6235ZM48.4518 18.4709C48.0099 18.4252 47.0574 18.3528 46.8707 18.3528C46.7031 18.3528 46.543 18.3299 46.3983 18.2842C46.4211 17.9108 46.7297 17.5222 47.1107 17.4117C47.4803 17.3012 48.1737 17.2631 48.6233 17.3545C48.6233 17.3622 48.6233 17.3736 48.6233 17.3812L48.448 18.4709H48.4518Z" fill="#C1A286"/>
</svg>
