<svg width="191" height="36" viewBox="0 0 191 36" fill="none" xmlns="http://www.w3.org/2000/svg">
<path d="M41.511 34.9029V0.960876C41.511 0.455876 41.711 0.253906 42.219 0.253906H55.151C62.425 0.253906 65.557 3.89192 65.557 10.4539V15.6539C65.557 22.1709 62.425 25.8539 55.151 25.8539H46.513V34.9029C46.513 35.4029 46.26 35.6099 45.755 35.6099H42.219C41.713 35.6149 41.511 35.4119 41.511 34.9029ZM54.847 21.3139C58.686 21.3139 60.555 19.7479 60.555 15.5049V10.5549C60.555 6.36187 58.686 4.7959 54.847 4.7959H46.512V21.3149L54.847 21.3139Z" fill="#1B1B19"/>
<path d="M70.98 34.9029V0.960876C70.98 0.455876 71.18 0.253906 71.687 0.253906H84.619C91.893 0.253906 95.025 3.89192 95.025 10.4539V15.6539C95.025 22.1709 91.893 25.8539 84.619 25.8539H75.981V34.9029C75.981 35.4029 75.728 35.6099 75.223 35.6099H71.687C71.182 35.6149 70.98 35.4119 70.98 34.9029ZM84.316 21.3139C88.155 21.3139 90.024 19.7479 90.024 15.5049V10.5549C90.024 6.36187 88.154 4.7959 84.316 4.7959H75.981V21.3149L84.316 21.3139Z" fill="#1B1B19"/>
<path d="M94.9751 35.1599V32.0279C94.9751 31.5279 95.1751 31.3209 95.6821 31.3209H97.5511C101.34 31.3209 103.31 29.7039 103.31 25.4609V0.960876C103.31 0.455876 103.563 0.253906 104.068 0.253906H107.604C108.104 0.253906 108.311 0.453876 108.311 0.960876V25.5609C108.311 32.0779 105.078 35.8609 97.8541 35.8609H95.6821C95.1771 35.8669 94.9751 35.6659 94.9751 35.1599Z" fill="#1B1B19"/>
<path d="M115.08 34.9029V0.960876C115.08 0.455876 115.28 0.253906 115.788 0.253906H135.488C135.993 0.253906 136.246 0.453876 136.246 0.960876V4.04291C136.261 4.14584 136.251 4.25079 136.219 4.34943C136.186 4.44807 136.13 4.53767 136.057 4.61115C135.983 4.68462 135.893 4.73994 135.795 4.77271C135.696 4.80547 135.591 4.81475 135.488 4.79987H120.081V15.6609H134.225C134.73 15.6609 134.932 15.9149 134.932 16.4189V19.3489C134.932 19.8549 134.732 20.1059 134.225 20.1059H120.081V31.0679H135.691C136.196 31.0679 136.449 31.2679 136.449 31.7749V34.9029C136.449 35.4029 136.196 35.6099 135.691 35.6099H115.791C115.282 35.6149 115.08 35.4119 115.08 34.9029Z" fill="#1B1B19"/>
<path d="M140.356 25.562V10.306C140.356 3.73903 143.589 0 150.813 0H155.056C162.432 0 165.512 3.53704 165.512 10.1V10.354C165.514 10.4474 165.497 10.5404 165.463 10.6271C165.428 10.7139 165.376 10.7927 165.31 10.8588C165.244 10.9249 165.165 10.9769 165.078 11.0117C164.991 11.0464 164.898 11.0632 164.805 11.061H161.173C161.081 11.0664 160.989 11.0513 160.903 11.017C160.818 10.9826 160.741 10.9298 160.678 10.8622C160.615 10.7947 160.568 10.7141 160.54 10.6262C160.512 10.5384 160.504 10.4454 160.516 10.354C160.516 6.009 158.395 4.54401 154.707 4.54401H151.12C147.331 4.54401 145.361 6.16102 145.361 10.403V25.458C145.361 29.701 147.331 31.3181 151.12 31.3181H154.707C158.395 31.3181 160.516 29.904 160.516 25.761C160.509 25.673 160.521 25.5844 160.552 25.5015C160.582 25.4185 160.63 25.3432 160.693 25.2807C160.755 25.2182 160.83 25.1701 160.913 25.1396C160.996 25.1091 161.085 25.0969 161.173 25.104H164.81C164.901 25.096 164.992 25.1071 165.078 25.1367C165.164 25.1662 165.243 25.2135 165.31 25.2754C165.376 25.3373 165.429 25.4125 165.465 25.4962C165.501 25.5798 165.518 25.6701 165.517 25.761V26.061C165.517 32.376 162.436 35.861 155.061 35.861H150.813C143.589 35.867 140.356 32.079 140.356 25.562Z" fill="#1B1B19"/>
<path d="M176.307 34.9031V4.8031H168.224C167.724 4.8031 167.517 4.55008 167.517 4.04608V0.96405C167.517 0.45905 167.717 0.25708 168.224 0.25708H189.29C189.795 0.25708 190.047 0.45705 190.047 0.96405V4.04608C190.062 4.14892 190.052 4.25374 190.02 4.35229C189.987 4.45085 189.931 4.54044 189.858 4.61389C189.784 4.68735 189.695 4.74267 189.596 4.77551C189.498 4.80835 189.393 4.81781 189.29 4.8031H181.309V34.9031C181.309 35.4031 181.057 35.61 180.551 35.61H177.016C176.509 35.615 176.307 35.4121 176.307 34.9031Z" fill="#1B1B19"/>
<path d="M5.17798 30.4351V12.759L0.414002 17.5211C0.282577 17.6523 0.178345 17.8082 0.107301 17.9798C0.0362568 18.1514 -0.000202436 18.3353 8.45388e-07 18.5211V34.201C8.45388e-07 34.5758 0.14883 34.9352 0.413819 35.2002C0.678808 35.4652 1.03821 35.6141 1.41296 35.6141H17.093C17.2787 35.6141 17.4626 35.5776 17.6342 35.5065C17.8057 35.4355 17.9616 35.3314 18.093 35.2001L22.8589 30.436L5.17798 30.4351Z" fill="#1B1B19"/>
<path d="M30.1831 23.1101L34.9471 18.3481C35.2121 18.0828 35.3611 17.7231 35.3611 17.3481V1.67011C35.3611 1.29535 35.2123 0.935949 34.9473 0.67096C34.6823 0.405971 34.3229 0.257081 33.9481 0.257081H18.2681C18.0824 0.256932 17.8985 0.293401 17.7269 0.364441C17.5553 0.435482 17.3994 0.539701 17.2681 0.671082L12.5061 5.43109H30.1811L30.1831 23.1101Z" fill="#1B1B19"/>
</svg>
