<?xml version="1.0" encoding="UTF-8" standalone="no"?>
<!-- Created with Inkscape (http://www.inkscape.org/) -->

<svg
   xmlns:dc="http://purl.org/dc/elements/1.1/"
   xmlns:cc="http://creativecommons.org/ns#"
   xmlns:rdf="http://www.w3.org/1999/02/22-rdf-syntax-ns#"
   xmlns:svg="http://www.w3.org/2000/svg"
   xmlns="http://www.w3.org/2000/svg"
   xmlns:inkscape="http://www.inkscape.org/namespaces/inkscape"
   version="1.1"
   width="419.85001"
   height="155.97501"
   id="svg2"
   xml:space="preserve"><metadata
     id="metadata8"><rdf:RDF><cc:Work
         rdf:about=""><dc:format>image/svg+xml</dc:format><dc:type
           rdf:resource="http://purl.org/dc/dcmitype/StillImage" /></cc:Work></rdf:RDF></metadata><defs
     id="defs6" /><g
     transform="matrix(1.25,0,0,-1.25,0,155.975)"
     id="g10"><g
       transform="scale(0.1,0.1)"
       id="g12"><path
         d="m 1417.68,799.199 -120.96,139.684 -36.72,43.918 0,0 c 0,0.719 -0.72,0.719 -0.72,1.437 l -1.44,2.164 c -6.48,7.196 -14.4,10.801 -25.92,8.637 l -2.16,16.561 5.76,2.16 0,0 182.88,64.8 -0.72,-279.361"
         inkscape:connector-curvature="0"
         id="path14"
         style="fill:#e22526;fill-opacity:1;fill-rule:nonzero;stroke:none" /><path
         d="m 1788.48,1247.76 71.28,-85.68 0.72,-347.041 -171.36,-61.199 1.44,437.04 -20.16,-5.04 -2.88,18.72 23.76,7.92 0,0.72 97.2,34.56"
         inkscape:connector-curvature="0"
         id="path16"
         style="fill:#11204c;fill-opacity:1;fill-rule:nonzero;stroke:none" /><path
         d="m 1566.72,1168.56 72,-85.68 0.72,-347.04 -129.6,-46.801 -42.48,48.961 2.16,373.68 -18,-4.32 -2.88,18.72 20.88,7.2 0,0.72 97.2,34.56"
         inkscape:connector-curvature="0"
         id="path18"
         style="fill:#11204c;fill-opacity:1;fill-rule:nonzero;stroke:none" /><path
         d="m 174.238,249.84 -11.519,25.922 44.64,120.238 1.442,0 50.398,-146.16 82.082,0 -10.801,25.199 51.118,141.125 c 9.359,24.477 18.004,43.195 48.242,46.797 l 0,16.559 -103.684,0 0,-16.559 c 12.242,-2.16 37.442,-4.32 37.442,-18.723 0,-10.078 -7.2,-30.238 -11.516,-42.48 L 318.238,306 l -1.441,0 -59.754,174.961 -77.766,-14.398 14.399,-42.481 -43.914,-116.641 -1.442,0 -46.8,153.36 26.64,2.16 0,16.559 -128.16,0 0,-16.559 23.0352,-2.16 70.5625,-210.961 80.6403,0 0,0 z m 335.524,213.121 35.277,-2.16 0,-192.242 -35.277,-2.879 0,-15.84 150.476,0 0,15.84 -36,2.879 0,192.242 36,2.16 0,16.559 -150.476,0 0,-16.559 z m 316.078,16.559 0,-16.559 26.64,-2.16 0,-182.879 c 0,-7.199 -2.878,-13.684 -11.523,-13.684 -15.84,0 -15.84,38.164 -53.277,38.164 -30.961,0 -40.321,-10.8 -40.321,-26.64 0,-24.485 30.239,-30.961 58.321,-30.961 79.922,0 126,28.082 126,78.48 l 0,137.52 26.64,2.16 0,16.559 -132.48,0 0,0 z m 331.2,0 -102.24,0 0,-16.559 c 12.96,-1.441 36,-5.758 36,-18 l 0,-150.481 c 0,-14.402 -11.52,-25.921 -36,-28.8 l 0,-15.84 101.52,0 0,15.84 c -25.2,2.16 -41.76,10.082 -41.76,28.8 l 0,132.485 0.72,0.715 166.32,-177.84 46.8,0 0,182.164 c 0,16.555 8.64,30.957 35.28,30.957 l 0,16.559 -101.52,0 0,-16.559 c 34.56,-1.441 41.76,-10.805 41.76,-30.957 l 0,-110.887 -1.44,0 -145.44,158.403 0,0 z m 414.72,-100.801 0,82.082 25.92,2.16 0,16.559 -131.76,0 0,-16.559 25.92,-2.16 0,-192.242 -25.92,-2.879 0,-15.84 131.76,0 0,15.84 -25.92,2.879 0,91.441 107.28,0 0,-91.441 -25.92,-2.879 0,-15.84 131.76,0 0,15.84 -25.92,2.879 0,192.242 25.92,2.16 0,16.559 -131.76,0 0,-16.559 25.92,-2.16 0,-82.082 -107.28,0 0,0 z m 473.76,-117.356 c -61.2,0 -76.32,43.914 -76.32,102.957 0,59.039 15.12,103.68 76.32,103.68 61.2,0 76.32,-44.641 76.32,-103.68 0,-59.043 -15.12,-102.957 -76.32,-102.957 l 0,0 z m 0,-16.562 c 77.76,0 162,43.918 162,119.519 0,75.602 -84.24,120.239 -162,120.239 -77.76,0 -162.72,-44.637 -162.72,-120.239 0,-75.601 84.96,-119.519 162.72,-119.519 l 0,0 z m 527.76,79.199 -20.16,3.602 c -23.04,-25.922 -41.76,-59.762 -102.24,-59.762 -12.24,0 -21.6,0.719 -27.36,1.441 l 0,191.52 26.64,2.16 0,16.559 -132.48,0 0,-16.559 26.64,-2.16 0,-192.242 -26.64,-2.879 0,-15.84 162.71,0 c 25.93,0 54.01,-1.442 68.41,-5.039 l 24.48,79.199 0,0 z m 206.64,138.242 c 7.19,0.719 14.4,0.719 21.6,0.719 94.32,0 103.68,-50.402 103.68,-98.641 0,-48.242 -9.36,-98.64 -103.68,-98.64 -7.2,0 -14.41,0 -21.6,1.441 l 0,195.121 z m -79.2,-193.683 -26.64,-2.879 0,-15.84 149.04,0 c 106.56,0 167.76,46.801 167.76,114.48 0,67.684 -61.2,115.2 -167.76,115.2 l -149.04,0 0,-16.559 26.64,-2.16 0,-192.242 z m 401.04,48.961 20.88,-70.555 c 10.8,2.875 20.88,7.918 32.4,7.918 27.36,0 41.04,-10.082 79.2,-10.082 72.72,0 124.56,25.922 124.56,75.597 0,89.278 -193.68,62.645 -193.68,114.485 0,20.156 24.47,33.117 55.44,33.117 57.6,0 74.87,-27.359 100.8,-56.883 l 21.6,2.883 -20.16,66.961 c -9.36,-2.879 -22.32,-7.203 -32.41,-7.203 -7.91,0 -17.27,3.601 -27.35,5.762 -10.8,2.16 -23.04,5.039 -39.6,5.039 -66.24,0 -108.72,-29.52 -108.72,-73.442 0,-82.078 190.8,-55.437 190.8,-115.199 0,-21.598 -24.48,-34.555 -66.24,-34.555 -59.04,0 -92.17,28.075 -116.64,59.754 l -20.88,-3.597"
         inkscape:connector-curvature="0"
         id="path20"
         style="fill:#11204c;fill-opacity:1;fill-rule:nonzero;stroke:none" /><path
         d="m 570.238,95.7617 c 2.16,-6.4844 5.039,-12.2461 8.641,-16.5625 l 46.801,-60.4804 5.761,0 45.356,61.2031 c 2.164,2.1601 5.043,7.9179 7.922,15.8398 C 683.277,90 683.277,84.2383 683.277,79.9219 l 0,-79.9219 20.161,0 0,118.074 -20.161,0 -54,-76.3162 -58.32,76.3162 -18.715,0 0,-118.074 18.715,0 0,79.9219 c 0,2.8789 0,8.6406 -0.719,15.8398 l 0,0 z M 838.082,44.6367 869.039,100.801 900,44.6367 l -61.918,0 0,0 z M 791.281,0 l 22.317,0 15.125,28.0742 80.636,0 L 925.199,0 l 23.762,0 -69.844,118.074 -20.156,0 L 791.281,0 l 0,0 z m 241.919,0 22.32,0 0,53.2813 L 1134,0 l 36.72,0 -96.48,61.1992 86.4,56.8748 -30.96,0 -74.16,-50.3982 0,50.3982 -22.32,0 0,-118.074 z m 219.6,0 119.52,0 0,17.2852 -97.2,0 0,35.2734 57.6,0 0,17.9961 -57.6,0 0,30.2463 96.48,0 0,17.273 -118.8,0 0,-118.074 z m 216,0 113.76,0 0,18 -91.44,0 0,100.074 -22.32,0 0,-118.074 z m 235.44,44.6367 30.96,56.1643 30.96,-56.1643 -61.92,0 0,0 z M 1657.44,0 l 22.32,0 15.12,28.0742 81.36,0 L 1791.36,0 l 23.76,0 -69.12,118.074 -20.88,0 L 1657.44,0 l 0,0 z m 275.04,44.6367 30.96,56.1643 31.68,-56.1643 -62.64,0 0,0 z M 1886.4,0 l 21.6,0 15.12,28.0742 81.36,0 L 2019.6,0 l 24.48,0 -69.84,118.074 -20.16,0 L 1886.4,0 l 0,0 z m 244.8,0 22.32,0 0,46.0859 31.68,0 L 2232,0 l 30.24,0 -51.84,46.0859 15.12,0 c 17.28,0 24.48,6.4727 24.48,23.0352 l 0,25.918 c 0,16.5629 -7.2,23.0349 -24.48,23.0349 l -94.32,0 0,-118.074 z m 84.96,100.801 c 7.92,0 12.24,-2.1604 12.24,-12.2385 l 0,-13.6797 c 0,-9.3672 -2.88,-12.2461 -12.24,-12.2461 l -62.64,0 0,38.1643 62.64,0 0,0 z m 213.12,17.273 -67.68,0 0,-118.074 67.68,0 c 48.24,0 72.72,19.4414 72.72,59.7578 0,20.8867 -10.08,38.8828 -25.92,48.9612 -10.08,6.476 -25.92,9.355 -46.8,9.355 l 0,0 z m -2.88,-17.273 c 35.28,0 53.28,-10.0783 53.28,-41.0432 C 2479.68,28.0742 2462.4,18 2426.4,18 l -42.48,0 0,82.801 42.48,0 0,0 z M 2628,0 l 0,118.074 -22.32,0 0,-118.074 22.32,0 0,0 z m 128.16,0 48.96,0 c 22.32,0 28.8,6.48438 28.8,28.0742 l 0,89.9998 -22.32,0 0,-100.074 -61.92,0 0,37.4375 -22.32,-4.3125 0,-23.0508 C 2727.36,6.48438 2733.84,0 2756.16,0"
         inkscape:connector-curvature="0"
         id="path22"
         style="fill:#e22526;fill-opacity:1;fill-rule:nonzero;stroke:none" /></g></g></svg>