<?xml version="1.0" encoding="UTF-8"?> <svg xmlns="http://www.w3.org/2000/svg" width="44" height="41" viewBox="0 0 44 41" fill="none"><path d="M0.72973 39.9158V40.1861H1H8.01919C9.08391 40.1861 10.0014 40.0213 10.7621 39.6798L10.7621 39.6798L10.7643 39.6788C11.5363 39.3236 12.135 38.8234 12.5467 38.1741C12.9588 37.5242 13.159 36.7555 13.159 35.8797C13.159 34.8577 12.8555 33.9756 12.2406 33.2496C11.7847 32.6984 11.1618 32.3224 10.389 32.1098C10.9896 31.9088 11.479 31.5966 11.8439 31.1639C12.3747 30.5519 12.6326 29.7845 12.6326 28.8825C12.6326 28.0099 12.441 27.2659 12.0379 26.6693C11.6374 26.0766 11.0635 25.6422 10.3313 25.3618C9.6056 25.0839 8.7523 24.9491 7.77791 24.9491H1H0.72973V25.2193V39.9158ZM9.7215 37.0893L9.72148 37.0893L9.71774 37.0922C9.3952 37.343 8.82707 37.4959 7.95339 37.4959H3.63925V33.5617H7.95339C8.80801 33.5617 9.37785 33.7203 9.71669 33.9865L9.71665 33.9866L9.7215 33.9902C10.0264 34.2189 10.2276 34.6989 10.2276 35.5507C10.2276 36.3859 10.0273 36.86 9.7215 37.0893ZM9.29388 27.9934L9.2937 27.9936L9.30337 28.0009C9.56755 28.2017 9.74501 28.6122 9.74501 29.3431C9.74501 30.0501 9.56481 30.4656 9.28281 30.6843C8.97382 30.9085 8.41883 31.047 7.55856 31.047H3.63925V27.6173H7.62436C8.48882 27.6173 9.01963 27.7648 9.29388 27.9934ZM17.4179 39.4442L17.4179 39.4442L17.4218 39.4465C18.5077 40.0888 19.7704 40.4054 21.2006 40.4054C22.6447 40.4054 23.9083 40.0891 24.9808 39.4456L24.9808 39.4456L24.9832 39.4442C26.0523 38.7875 26.876 37.8708 27.4531 36.7013L27.4537 36.7C28.0308 35.5156 28.3146 34.1355 28.3146 32.5676C28.3146 31 28.0309 29.6268 27.4534 28.4563C26.8765 27.2725 26.0526 26.3548 24.982 25.7122C23.9094 25.0536 22.6453 24.7297 21.2006 24.7297C19.7695 24.7297 18.506 25.054 17.4198 25.7117C16.3493 26.3542 15.5183 27.2714 14.9267 28.4545L14.9261 28.4558C14.3484 29.6264 14.0647 30.9997 14.0647 32.5676C14.0647 34.1355 14.3484 35.5156 14.9255 36.7L14.9255 36.7001L14.9273 36.7038C15.519 37.872 16.3495 38.7878 17.4179 39.4442ZM24.8099 35.5389L24.8098 35.5389L24.8083 35.543C24.5351 36.267 24.1134 36.7749 23.5496 37.0903C22.9736 37.3978 22.1966 37.5617 21.2006 37.5617C20.2203 37.5617 19.4417 37.3981 18.8493 37.0891C18.2705 36.7727 17.8351 36.2639 17.5482 35.541C17.2722 34.8085 17.1277 33.8216 17.1277 32.5676C17.1277 31.2977 17.2725 30.3117 17.5479 29.595C17.8351 28.8708 18.2713 28.3613 18.8513 28.0449C19.4429 27.7223 20.2206 27.5515 21.2006 27.5515C22.1964 27.5515 22.9724 27.7227 23.5475 28.0437C24.1123 28.3589 24.5347 28.8673 24.8083 29.5921L24.8082 29.5921L24.8105 29.5979C25.0994 30.3131 25.2515 31.2979 25.2515 32.5676C25.2515 33.8218 25.0996 34.8077 24.8099 35.5389ZM31.26 40.1861H31.4037L31.4841 40.0669L35.2859 34.4276L39.1307 40.068L39.2111 40.1861H39.354H42.1836H42.6941L42.4071 39.7639L37.4746 32.5064V32.4984L42.4058 25.3732L42.6993 24.9491H42.1836H39.3979H39.2559L39.1754 25.0659L35.3611 30.5966L31.5036 25.0648L31.423 24.9491H31.2819H28.4523H27.9353L28.2304 25.3736L33.1832 32.4987V32.506L28.2291 39.7634L27.9406 40.1861H28.4523H31.26Z" fill="#7AB956" stroke="#7AB956" stroke-width="0.540541"></path><path d="M43 20V22.5L23 20L0.5 22V19.5L24 17L43 20Z" fill="#7AB956"></path><path d="M24.5 15L0.5 18V15.5L25.5 11.5L43 16.5V18.5L24.5 15Z" fill="#7AB956"></path><path d="M26 9L0.5 14V11L27 5.5L43 13V15L26 9Z" fill="#7AB956"></path><path d="M27.5 3.5L0.5 9.5V6.5L28.5 0L43 9.25583V11.5L27.5 3.5Z" fill="#7AB956"></path></svg> 