<?xml version="1.0" encoding="UTF-8"?>
<svg id="Laag_2" data-name="Laag 2" xmlns="http://www.w3.org/2000/svg" viewBox="0 0 317.31 360">
  <defs>
    <style>
      .cls-1 {
        fill: #3c523a;
      }

      .cls-1, .cls-2, .cls-3 {
        stroke-width: 0px;
      }

      .cls-2 {
        fill: #9d8f77;
      }

      .cls-3 {
        fill: #eadfc9;
      }
    </style>
  </defs>
  <g id="Laag_1-2" data-name="Laag 1">
    <g>
      <g>
        <path class="cls-1" d="m237.53,106.43L163.39,3.18c-3.05-4.25-9.36-4.25-12.41,0l-74.14,103.25c-1.86,2.6-2.87,5.71-2.87,8.91v109.96c0,3.16,2.57,5.73,5.73,5.73h154.96c3.16,0,5.73-2.57,5.73-5.73v-109.96c0-3.2-1-6.31-2.87-8.91Zm-80.35-41.15c-7.07,0-12.8-5.73-12.8-12.8s5.73-12.8,12.8-12.8,12.8,5.73,12.8,12.8-5.73,12.8-12.8,12.8Z"/>
        <path class="cls-2" d="m154.16,189.59c-2.59-34.96-24.07-54.48-34.35-80.67-12.06-30.73-11.99-43.35-12.29-45.2l-30.67,42.71c-1.86,2.6-2.87,5.71-2.87,8.91v109.96c0,3.16,2.57,5.73,5.73,5.73h74.88c.35-11.14.52-28.63-.43-41.44Z"/>
        <path class="cls-3" d="m200.2,169.94c6.74-7.19,10.78-18.19,11.45-20.89s-2.02-2.25-6.51-1.12c-4.49,1.12-18.87,6.96-24.48,17.07-5.61,10.11-8.76,20.66-13.48,28.75-4.72,8.09-6.74,11-7.19-3.59-.45-14.6,1.8-31.44,10.78-44.69,0,0,9.26-2.02,15.07-6.96,5.81-4.94,11.43-16.17,10.53-26.73-.9-10.56-1.12-15.05-1.12-16.39s-2.7-.45-5.17,1.12c-2.47,1.57-18.87,10.78-28.97,22.46-10.11,11.68-10.78,26.73-9.21,35.26,1.57,8.53,3.37,16.39,2.47,20.44-.9,4.04-1.49,1.97-3.77-4.62-5.21-15.07-9.13-21.51-14.41-30.3-5.62-9.35-7.29-12.63-8.44-14.71-.93-1.68-1.9-3.36-2.8,0-.9,3.37-5.84,19.76-7.64,34.81-1.8,15.05,3.59,31.44,13.25,42.67,9.66,11.23,16.84,22.23,19.09,28.52h11.68s6.06-9.43,22.23-15.27c16.17-5.84,25.6-22.23,25.6-22.23,0,0-21.34-3.82-29.2,16.84,0,0,.22,3.14,2.92-1.35,2.7-4.49,11.23-15.95,22.01-13.92,0,0-5.17,8.31-17.74,14.82-12.58,6.51-21.56,9.88-25.83,14.37,0,0,2.47-21.78,11.68-32.12,9.21-10.33,20.44-15.05,27.17-22.23Zm-21.78,6.4c2.19-6.26,6.43-13.95,12.04-18.33,5.01-3.91,12.55-6.85,14.57-7.39s4.49-1.67,1.8,3.27-9.32,13.92-16.51,19.31c-7.19,5.39-14.31,10.03-11.9,3.14Zm-27.4,48.62c0,3.14-1.57,1.12-4.04-4.27-2.47-5.39-15.14-19.74-21.28-31.27-6.14-11.53-7.69-25.1-4.32-39.7,2.54-10.99,4.18-17.01,4.84-19.32.22-.76.56-.76.99-.08,2.14,3.37,9.07,14.64,15.06,27.94,7.19,15.95,8.76,20.66,8.76,30.32v36.38Zm6.18-86.24c.11-9.21,8.42-20.66,16.96-27.4,8.53-6.74,14.37-10.33,15.95-11.45,1.57-1.12,2.7-1.12,2.92,5.17.22,6.29.22,12.8-2.36,19.76-2.58,6.96-10.58,14.6-15.51,16.62s-3.25.45-1.67-2.81c1.57-3.26,9.32-20.21,9.66-22.01.34-1.8-1.01-1.57-3.03,2.92s-11.68,19.31-14.49,25.04-8.65,12.35-8.42-5.84Z"/>
      </g>
      <g>
        <path class="cls-1" d="m1.11,299.79v-49.02h6.03l30.57,43.14-1.32,2.06v-45.2h5.29v49.02h-5.95L3.98,255.04l2.43-2.28v47.04H1.11Z"/>
        <path class="cls-1" d="m66.59,300.9c-1.62,0-3.25-.17-4.89-.51-1.64-.34-3.16-.93-4.56-1.76s-2.52-1.97-3.38-3.42c-.86-1.44-1.29-3.27-1.29-5.48,0-3.04.58-5.47,1.73-7.31,1.15-1.84,2.74-3.16,4.78-3.97,2.03-.81,4.37-1.21,7.02-1.21,2.01,0,3.75.12,5.22.37s2.78.6,3.93,1.07c1.15.47,2.19.99,3.12,1.58l1.03,4.85c-1.13-.83-2.76-1.55-4.89-2.17-2.13-.61-4.47-.92-7.02-.92-3.09,0-5.46.59-7.13,1.76-1.67,1.18-2.5,2.89-2.5,5.14,0,1.81.5,3.26,1.51,4.34,1,1.08,2.28,1.84,3.82,2.28s3.12.66,4.74.66c3.18,0,5.6-.23,7.24-.7,1.64-.46,2.46-1.53,2.46-3.2v-16.83c0-2.84-.83-4.92-2.5-6.25-1.67-1.32-4.04-1.98-7.13-1.98-1.96,0-4.03.28-6.21.85-2.18.56-4.05,1.46-5.62,2.68v-5.29c1.52-.98,3.55-1.73,6.1-2.24,2.55-.51,5.02-.77,7.42-.77,1.62,0,3.11.16,4.48.48,1.37.32,2.6.78,3.67,1.4,1.08.61,2,1.4,2.76,2.35.76.96,1.35,2.06,1.76,3.31.42,1.25.62,2.66.62,4.23v17.79c0,2.6-.77,4.53-2.32,5.81-1.54,1.27-3.55,2.11-6.03,2.5-2.47.39-5.13.59-7.97.59Z"/>
        <path class="cls-1" d="m106.54,300.38c-2.6,0-4.78-.8-6.54-2.39-1.76-1.59-2.65-3.96-2.65-7.09v-22.93h-6.39v-4.85h6.39v-10.36h5.29v10.36h9.48v4.85h-9.48v21.24c0,2.06.32,3.6.96,4.63.64,1.03,1.94,1.54,3.9,1.54.88,0,1.74-.08,2.57-.26.83-.17,1.52-.38,2.06-.62v5c-.69.25-1.56.45-2.61.62-1.05.17-2.05.26-2.98.26Z"/>
        <path class="cls-1" d="m136.97,300.9c-3.23,0-6-.56-8.31-1.69-2.3-1.13-4.06-2.77-5.26-4.92-1.2-2.15-1.8-4.8-1.8-7.94v-23.22h5.29v22.05c0,3.72.82,6.46,2.46,8.2,1.64,1.74,4.18,2.61,7.61,2.61s5.96-.87,7.61-2.61c1.64-1.74,2.46-4.47,2.46-8.2v-22.05h5.29v23.22c0,4.66-1.34,8.24-4.01,10.77-2.67,2.52-6.46,3.79-11.36,3.79Z"/>
        <path class="cls-1" d="m179.59,300.9c-3.23,0-6-.56-8.3-1.69-2.3-1.13-4.06-2.77-5.26-4.92-1.2-2.15-1.8-4.8-1.8-7.94v-23.22h5.29v22.05c0,3.72.82,6.46,2.46,8.2,1.64,1.74,4.18,2.61,7.61,2.61s5.97-.87,7.61-2.61c1.64-1.74,2.46-4.47,2.46-8.2v-22.05h5.29v23.22c0,4.66-1.34,8.24-4.01,10.77-2.67,2.52-6.46,3.79-11.36,3.79Z"/>
        <path class="cls-1" d="m206.9,299.79v-33.73c.59-.25,1.73-.66,3.42-1.25,1.69-.59,3.72-1.13,6.1-1.62,2.38-.49,4.84-.74,7.39-.74.39,0,.78.05,1.18.15.39.1.78.2,1.18.29v4.7c-1.27-.15-2.51-.22-3.71-.22s-2.37.06-3.49.18c-1.13.12-2.25.28-3.38.48-1.13.2-2.25.39-3.38.59v31.16h-5.29Z"/>
        <path class="cls-1" d="m240.39,299.79h-5.29v-50.64h5.29v50.64Z"/>
        <path class="cls-1" d="m252.34,256.58v-5.81h5.88v5.81h-5.88Zm.29,43.22v-36.67h5.29v36.67h-5.29Z"/>
        <path class="cls-1" d="m262.85,313.98v-4.92c2.15-.05,3.76-.36,4.81-.92,1.05-.56,1.76-1.4,2.13-2.5.37-1.1.55-2.44.55-4.01v-38.51h5.29v38.81c0,2.69-.47,4.94-1.4,6.72-.93,1.79-2.34,3.12-4.23,4.01-1.89.88-4.28,1.32-7.17,1.32Zm7.2-57.4v-5.81h5.88v5.81h-5.88Z"/>
        <path class="cls-1" d="m293.12,299.79h-5.29v-50.64h5.29v50.64Zm1.47-22.86l22.71,22.86h-7.06l-19.26-19.48,3.6-3.38Zm-2.65.88l16.1-14.7h6.61l-21.53,19.04-1.18-4.34Z"/>
        <path class="cls-2" d="m28.59,336.23v22.72h-5.03v-22.72c0-.84-.1-1.72-.31-2.66-.21-.93-.62-1.83-1.22-2.69-.61-.86-1.54-1.56-2.8-2.1-1.26-.53-2.94-.8-5.03-.8-1.45,0-2.94.12-4.47.35-1.54.23-3.1.58-4.68,1.05v29.57H0v-32.09c1.12-.56,2.27-1.06,3.46-1.5,1.19-.44,2.4-.8,3.64-1.08,1.23-.28,2.49-.49,3.78-.63,1.28-.14,2.57-.21,3.88-.21,3.4,0,6.11.5,8.11,1.5,2,1,3.46,2.46,4.37,4.37.91,1.91,1.36,4.22,1.36,6.92Zm-6.64-7.97c1.54-1.16,3.1-2.1,4.68-2.8,1.58-.7,3.23-1.21,4.93-1.54,1.7-.33,3.41-.49,5.14-.49,3.4,0,6.11.5,8.11,1.5,2,1,3.46,2.46,4.37,4.37.91,1.91,1.36,4.22,1.36,6.92v22.72h-5.03v-22.72c0-.84-.11-1.72-.31-2.66-.21-.93-.62-1.83-1.22-2.69-.61-.86-1.54-1.56-2.8-2.1-1.26-.53-2.94-.8-5.03-.8-1.45,0-2.94.21-4.47.63-1.54.42-3.1,1.14-4.68,2.17l-5.03-2.52Z"/>
        <path class="cls-2" d="m73.45,360c-1.54,0-3.09-.16-4.65-.49-1.56-.33-3.01-.88-4.33-1.68-1.33-.79-2.4-1.88-3.22-3.25-.82-1.37-1.22-3.11-1.22-5.21,0-2.89.55-5.21,1.64-6.96,1.09-1.75,2.61-3.01,4.54-3.78,1.93-.77,4.16-1.15,6.68-1.15,1.91,0,3.57.12,4.96.35,1.4.23,2.64.57,3.74,1.01,1.09.44,2.09.94,2.97,1.5l.98,4.61c-1.07-.79-2.62-1.48-4.65-2.06-2.03-.58-4.25-.87-6.68-.87-2.94,0-5.2.56-6.78,1.68-1.59,1.12-2.38,2.75-2.38,4.89,0,1.73.48,3.1,1.43,4.12.95,1.03,2.17,1.75,3.64,2.17,1.47.42,2.97.63,4.51.63,3.03,0,5.32-.22,6.89-.66,1.56-.44,2.34-1.46,2.34-3.04v-16.01c0-2.7-.79-4.68-2.38-5.94-1.59-1.26-3.85-1.89-6.78-1.89-1.86,0-3.83.27-5.91.8-2.07.54-3.86,1.39-5.35,2.55v-5.03c1.44-.93,3.38-1.64,5.8-2.13,2.42-.49,4.78-.73,7.06-.73,1.54,0,2.96.15,4.26.45,1.3.3,2.47.75,3.5,1.33,1.02.58,1.9,1.33,2.62,2.24.72.91,1.28,1.96,1.68,3.15.4,1.19.59,2.53.59,4.02v16.92c0,2.47-.73,4.31-2.2,5.52-1.47,1.21-3.38,2-5.73,2.38-2.35.37-4.88.56-7.59.56Z"/>
        <path class="cls-2" d="m105.37,358.95h-5.03v-48.17h5.03v48.17Zm1.4-21.74l21.6,21.74h-6.71l-18.32-18.53,3.43-3.22Zm-2.52.84l15.31-13.98h6.29l-20.48,18.11-1.12-4.13Z"/>
        <path class="cls-2" d="m148.63,360c-3.31,0-6.18-.69-8.6-2.06-2.42-1.37-4.29-3.44-5.59-6.19-1.31-2.75-1.96-6.18-1.96-10.28,0-6.01,1.36-10.52,4.09-13.53,2.73-3.01,6.47-4.51,11.22-4.51,3.73,0,6.72.84,8.98,2.52,2.26,1.68,3.88,3.94,4.86,6.78.98,2.84,1.44,6.06,1.4,9.65h-28.03l.35-4.61h24.4l-1.96.7c-.14-3.5-1.01-6.11-2.62-7.83s-4.07-2.59-7.38-2.59c-2.28,0-4.18.42-5.7,1.26-1.52.84-2.65,2.3-3.39,4.37-.75,2.07-1.12,4.98-1.12,8.7,0,4.24.99,7.47,2.97,9.68,1.98,2.21,4.77,3.32,8.35,3.32,1.72,0,3.31-.13,4.75-.39,1.44-.26,2.77-.62,3.99-1.08,1.21-.46,2.28-.98,3.22-1.54v5.17c-1.68.79-3.53,1.4-5.56,1.82-2.03.42-4.25.63-6.68.63Z"/>
        <path class="cls-2" d="m177.76,358.95h-5.03v-48.17h5.03v48.17Z"/>
        <path class="cls-2" d="m201.04,360c-1.54,0-3.09-.16-4.65-.49-1.56-.33-3.01-.88-4.33-1.68-1.33-.79-2.4-1.88-3.22-3.25-.82-1.37-1.22-3.11-1.22-5.21,0-2.89.55-5.21,1.64-6.96,1.09-1.75,2.61-3.01,4.54-3.78,1.93-.77,4.16-1.15,6.68-1.15,1.91,0,3.57.12,4.96.35,1.4.23,2.65.57,3.74,1.01,1.09.44,2.08.94,2.97,1.5l.98,4.61c-1.07-.79-2.62-1.48-4.65-2.06-2.03-.58-4.25-.87-6.68-.87-2.94,0-5.2.56-6.78,1.68-1.59,1.12-2.38,2.75-2.38,4.89,0,1.73.48,3.1,1.43,4.12.95,1.03,2.17,1.75,3.64,2.17,1.47.42,2.97.63,4.51.63,3.03,0,5.32-.22,6.89-.66,1.56-.44,2.34-1.46,2.34-3.04v-16.01c0-2.7-.79-4.68-2.38-5.94-1.59-1.26-3.85-1.89-6.78-1.89-1.86,0-3.83.27-5.91.8-2.07.54-3.86,1.39-5.35,2.55v-5.03c1.44-.93,3.38-1.64,5.8-2.13,2.42-.49,4.78-.73,7.06-.73,1.54,0,2.96.15,4.26.45,1.31.3,2.47.75,3.5,1.33,1.02.58,1.9,1.33,2.62,2.24.72.91,1.28,1.96,1.68,3.15.4,1.19.59,2.53.59,4.02v16.92c0,2.47-.73,4.31-2.2,5.52-1.47,1.21-3.38,2-5.73,2.38-2.35.37-4.88.56-7.59.56Z"/>
        <path class="cls-2" d="m239.47,360c-1.54,0-3.09-.16-4.65-.49-1.56-.33-3.01-.88-4.33-1.68-1.33-.79-2.4-1.88-3.22-3.25-.82-1.37-1.22-3.11-1.22-5.21,0-2.89.55-5.21,1.64-6.96s2.61-3.01,4.54-3.78c1.93-.77,4.16-1.15,6.68-1.15,1.91,0,3.57.12,4.96.35,1.4.23,2.64.57,3.74,1.01,1.09.44,2.08.94,2.97,1.5l.98,4.61c-1.07-.79-2.62-1.48-4.65-2.06-2.03-.58-4.25-.87-6.68-.87-2.94,0-5.2.56-6.78,1.68-1.59,1.12-2.38,2.75-2.38,4.89,0,1.73.48,3.1,1.43,4.12.95,1.03,2.17,1.75,3.64,2.17,1.47.42,2.97.63,4.51.63,3.03,0,5.32-.22,6.89-.66,1.56-.44,2.34-1.46,2.34-3.04v-16.01c0-2.7-.79-4.68-2.38-5.94-1.59-1.26-3.85-1.89-6.78-1.89-1.86,0-3.83.27-5.91.8-2.07.54-3.86,1.39-5.35,2.55v-5.03c1.44-.93,3.38-1.64,5.8-2.13,2.42-.49,4.78-.73,7.06-.73,1.54,0,2.96.15,4.27.45,1.3.3,2.47.75,3.49,1.33,1.02.58,1.9,1.33,2.62,2.24.72.91,1.28,1.96,1.68,3.15.4,1.19.59,2.53.59,4.02v16.92c0,2.47-.73,4.31-2.2,5.52-1.47,1.21-3.38,2-5.73,2.38-2.35.37-4.88.56-7.59.56Z"/>
        <path class="cls-2" d="m266.35,358.95v-32.09c.56-.23,1.64-.63,3.25-1.19s3.54-1.07,5.8-1.54c2.26-.47,4.6-.7,7.03-.7.37,0,.74.05,1.12.14.37.09.74.19,1.12.28v4.47c-1.21-.14-2.39-.21-3.53-.21s-2.25.06-3.32.18c-1.07.12-2.14.27-3.22.45-1.07.19-2.14.37-3.22.56v29.64h-5.03Z"/>
        <path class="cls-2" d="m303.54,360c-2.52,0-4.63-.26-6.33-.77-1.7-.51-3.46-1.23-5.28-2.17v-5.31c1.44.79,2.73,1.47,3.85,2.03s2.26.97,3.43,1.22c1.16.26,2.49.39,3.98.39,2.33,0,4.23-.51,5.7-1.54,1.47-1.02,2.2-2.35,2.2-3.98,0-1.3-.36-2.31-1.08-3.01-.72-.7-1.64-1.28-2.76-1.75-1.12-.46-2.28-.95-3.5-1.47-1.35-.37-2.72-.78-4.09-1.22-1.38-.44-2.63-1.02-3.78-1.75-1.14-.72-2.06-1.65-2.76-2.8s-1.05-2.62-1.05-4.44.36-3.29,1.08-4.54c.72-1.26,1.67-2.29,2.83-3.11,1.16-.81,2.47-1.41,3.91-1.78,1.44-.37,2.89-.56,4.33-.56,2.1,0,3.89.28,5.38.84,1.49.56,3.03,1.19,4.61,1.89v5.03c-1.77-.93-3.36-1.69-4.75-2.27-1.4-.58-3.05-.87-4.96-.87s-3.62.38-5.14,1.15c-1.52.77-2.27,1.95-2.27,3.53,0,1.31.39,2.34,1.15,3.11s1.78,1.38,3.04,1.82c1.26.44,2.61.87,4.05,1.29,1.16.37,2.38.78,3.64,1.22,1.26.44,2.42,1.03,3.49,1.75,1.07.72,1.95,1.67,2.62,2.83.67,1.17,1.01,2.66,1.01,4.47,0,2.47-.63,4.51-1.89,6.12s-2.86,2.79-4.79,3.53c-1.93.74-3.9,1.12-5.91,1.12Z"/>
      </g>
    </g>
  </g>
</svg>