<?xml version="1.0" encoding="UTF-8"?>
<svg width="30px" height="36px" viewBox="0 0 30 36" version="1.1" xmlns="http://www.w3.org/2000/svg" xmlns:xlink="http://www.w3.org/1999/xlink">
    <!-- Generator: Sketch 63.1 (92452) - https://sketch.com -->
    <title>Fill 1</title>
    <desc>Created with Sketch.</desc>
    <g id="001_home_v1" stroke="none" stroke-width="1" fill="none" fill-rule="evenodd">
        <g id="005a_vd_contact_v2" transform="translate(-704.000000, -35.000000)" fill="#FFFFFF">
            <g id="Group-27" transform="translate(595.000000, 35.000000)">
                <path d="M132.58777,28.9248537 C131.540619,30.1198 130.064194,30.7518134 128.319106,30.7518134 L114.139342,30.7518134 L114.139342,4.62271275 L126.533743,4.62271275 C129.479224,4.62271275 131.302407,7.06355839 131.302407,9.32459866 C131.302407,12.6409544 129.519499,14.6207732 126.533743,14.6207732 L121.893762,14.6207732 C120.099558,14.6207732 120.047495,16.6549745 120.047495,16.8872027 C120.047495,17.7019611 120.433546,19.2432899 121.893762,19.2432899 L128.319106,19.2432899 C132.052898,19.2432899 134.006729,22.1378134 134.006729,24.9975517 C134.006729,26.4854779 133.502308,27.8803168 132.58777,28.9248537 M133.142289,17.0341826 L131.644745,16.4482228 L132.851523,15.3875181 C134.653094,13.8030752 135.492485,11.8766591 135.492485,9.32459866 C135.492485,4.68346443 132.41832,0.000195973154 125.550442,0.000195973154 L111.335314,0.000195973154 C109.949754,0.000195973154 109.019008,0.950175839 109.019008,2.36510201 L109.019008,33.0089342 C109.019008,34.4023034 109.971365,35.3748201 111.335314,35.3748201 L127.334823,35.3748201 C134.228733,35.3748201 138.683055,31.3333638 138.683055,25.0779007 C138.683055,21.235357 136.767043,18.4535181 133.142289,17.0341826" id="Fill-1"></path>
            </g>
        </g>
    </g>
</svg>