<svg xmlns="http://www.w3.org/2000/svg" xmlns:xlink="http://www.w3.org/1999/xlink" x="0px" y="0px" viewBox="0 0 567 566.9" style="enable-background:new 0 0 567 566.9;" xml:space="preserve"><style type="text/css">	.st0{fill:#E6007E;}	.st1{fill:#FFFFFF;}</style><g id="Laag_1">	<rect x="0" y="0" class="st0" width="566.9" height="566.9"></rect>	<path class="st1" d="M70.5,323.7l76.3,0c5.9,0,10.8-4.8,10.8-10.8l0-97.6c0-4.3,1.5-8.4,4.3-11.6l73.6-79.4  c3.3-3.8,8.1-6.1,13.1-6.2c5-0.1,9.9,2,13.4,5.7l20,21.4V61.6c0-9.8,8-17.8,17.8-17.8H397c9.8,0,17.8,8,17.8,17.8v251.3  c0,5.9,4.8,10.8,10.8,10.8l76.2,0v7l-76.2,0c-9.8,0-17.8-8-17.8-17.8V61.6c0-5.9-4.8-10.8-10.8-10.8h-97.3  c-5.9,0-10.8,4.8-10.8,10.8v91.2l47.3,50.8c3.1,3.3,4.8,7.6,4.8,12.1v97.3c0,9.8-8,17.8-17.8,17.8h-23.5c-9.8,0-17.8-8-17.8-17.8  V155.5l-25.1-26.9c-2.1-2.3-5-3.5-8.1-3.4c-3.1,0.1-5.9,1.4-8,3.7l-73.6,79.4c-1.7,2-2.6,4.5-2.6,7.1l0,97.6  c0,9.8-8,17.8-17.8,17.8l-76.3,0V323.7z M289,312.9c0,5.9,4.8,10.8,10.8,10.8h23.5c5.9,0,10.8-4.8,10.8-10.8v-97.3  c0-2.7-1-5.4-2.9-7.4L289,163V312.9z"></path>	<g>		<path class="st1" d="M80.5,452.6v-81.8h-10v-17.1h47.3c10.1,0,18.2,2.5,24.5,7.5c6.3,5,9.4,11.9,9.4,20.7c0,5.6-1.3,10.5-3.9,14.5   c-2.6,4-5.7,7-9.4,8.9v0.3c5.6,1.6,10,4.9,13,9.7c3,4.8,4.5,10.2,4.5,16c0,10.4-3.6,18.3-10.7,23.6c-7.1,5.4-16.2,8.1-27,8.1H91   c-3.6,0-6.2-0.8-7.9-2.5C81.3,459,80.5,456.3,80.5,452.6z M100.7,398.4h17.3c4.1,0,7.3-1.3,9.7-3.9c2.4-2.6,3.5-6,3.5-10.1   c0-4.1-1.2-7.4-3.5-9.9c-2.4-2.5-5.7-3.7-10-3.7h-16.9V398.4z M100.7,442.6c0,2.3,1.1,3.4,3.4,3.4h15.7c4.8,0,8.6-1.5,11.3-4.4   c2.7-2.9,4.1-6.8,4.1-11.5c0-4.6-1.4-8.4-4.2-11.3c-2.8-2.9-6.5-4.4-11.2-4.4h-19.1V442.6z"></path>		<path class="st1" d="M167.4,440.5c0-3.9,0.8-7.4,2.5-10.5c1.6-3.1,3.9-5.5,6.9-7.4c2.9-1.8,6-3.4,9.2-4.7   c3.2-1.3,6.7-2.2,10.6-2.7c3.9-0.5,7.1-0.9,9.7-1.1c2.6-0.2,5.3-0.3,7.9-0.3h2.5v-0.6c0-5.5-1.2-9.5-3.5-11.9   c-2.3-2.4-6-3.5-11-3.5c-2.5,0-4.8,0.4-7.1,1.2c-2.3,0.8-3.4,2.1-3.4,4.1v4.2h-18.2v-8.3c0-3.4,1.1-6.3,3.2-8.6   c2.1-2.4,4.9-4,8.3-5c3.4-1,6.5-1.6,9.2-2c2.7-0.4,5.4-0.5,8.1-0.5c22.6,0,33.9,10.4,33.9,31.3v29.3c0,2.3,1.1,3.4,3.4,3.4h6.2   v16.5h-17.6c-3.4,0-5.9-0.8-7.5-2.4c-1.6-1.6-2.5-3.7-2.5-6.2l0.2-3.4h-0.3c-0.2,0.4-0.5,0.9-0.8,1.5c-0.3,0.6-1.1,1.7-2.5,3.3   c-1.3,1.6-2.8,3-4.5,4.2c-1.6,1.2-3.9,2.3-6.8,3.3c-2.9,1-6,1.5-9.2,1.5c-7.4,0-13.7-2.2-18.9-6.6   C170,453.9,167.4,448,167.4,440.5z M187.1,439.6c0,2.8,1,5.2,3.1,7.2c2.1,2,5,3,8.8,3c5,0,9.3-2.2,12.7-6.5   c3.4-4.4,5.2-9.1,5.2-14.1v-1.8h-3.4C195.9,427.2,187.1,431.3,187.1,439.6z"></path>		<path class="st1" d="M260.9,452.6v-78.9c0-2.3-1.1-3.4-3.4-3.4h-6.2v-16.6H270c7,0,10.5,3.5,10.5,10.5v79c0,2.3,1.1,3.4,3.4,3.4h6   v16.5h-18.5c-3.7,0-6.4-0.8-8-2.5C261.7,459,260.9,456.3,260.9,452.6z"></path>		<path class="st1" d="M306.5,434.3v-34.2h-10.2v-15.6H307v-21.4h19.1v21.4h17.9v15.6h-17.9v31.7c0,5.6,1.6,9.5,4.9,11.6   c3.2,2.1,6.8,3.2,10.7,3.2l3.5-0.3v17.1c-1.6,0.3-3.6,0.5-6,0.5c-2.7,0-5.2-0.2-7.7-0.5c-2.5-0.4-5.3-1.2-8.5-2.4   s-5.9-2.8-8.2-4.9s-4.3-4.9-5.9-8.6C307.3,443.7,306.5,439.3,306.5,434.3z"></path>		<path class="st1" d="M354.1,423.8c0-12.1,3.7-22,11.1-29.7c7.4-7.7,17-11.5,28.8-11.5c10.9,0,19.4,3.5,25.6,10.6   c6.2,7,9.2,15.9,9.2,26.7l-0.5,7.2h-54.2c0.7,6.7,3.3,11.9,7.7,15.6c4.4,3.7,9.7,5.5,15.9,5.5c3.7,0,7.4-0.7,11.1-2.2   c3.7-1.5,6.4-3,8.2-4.4l2.8-2.2l8.2,13.6c-0.3,0.3-0.8,0.7-1.4,1.3c-0.6,0.6-2,1.5-4.1,2.8c-2.1,1.3-4.3,2.5-6.5,3.5   c-2.3,1-5.2,2-8.7,2.8c-3.5,0.9-7.2,1.3-10.9,1.3c-12.6,0-22.8-4-30.6-11.9C358,445.1,354.1,435.3,354.1,423.8z M374.7,413.7h34   c-0.1-4.6-1.6-8.4-4.4-11.4c-2.8-3-6.3-4.5-10.4-4.5c-5,0-9.2,1.4-12.6,4.2C378.1,404.9,375.9,408.7,374.7,413.7z"></path>		<path class="st1" d="M438.8,451l9.2-12.8c0.7,0.8,1.8,1.9,3.2,3.2c1.4,1.3,4.1,3,8.2,5.2c4.1,2.2,8.1,3.2,12.1,3.2   c3.2,0,5.8-0.6,7.7-1.9c1.9-1.3,2.9-3.2,2.9-5.8c0-2-1.4-3.8-4.2-5.5c-2.8-1.7-6.3-3.3-10.3-4.9c-4.1-1.5-8.1-3.3-12.2-5.3   c-4.1-2-7.6-4.8-10.4-8.3c-2.8-3.5-4.2-7.7-4.2-12.4c0-7.5,2.9-13.2,8.7-17.1c5.8-3.9,13.1-5.9,21.8-5.9c3,0,5.9,0.3,8.9,0.8   c2.9,0.5,5.9,1.4,8.8,2.5c2.9,1.2,5.3,2.9,7.2,5.2c1.8,2.3,2.8,4.9,2.8,7.9v8.2h-17.3v-3.9c0-1.7-1-3.1-3.1-4.1   c-2.1-1-4.3-1.5-6.8-1.5c-3.6,0-6.4,0.6-8.6,1.8c-2.1,1.2-3.2,3-3.2,5.2c0,2.3,1.4,4.2,4.3,5.9c2.9,1.7,6.4,3.3,10.5,4.7   c4.1,1.4,8.2,3.1,12.2,4.9c4.1,1.8,7.5,4.5,10.4,8c2.9,3.5,4.3,7.7,4.3,12.5c0,7.3-2.9,13.1-8.6,17.5c-5.7,4.4-12.9,6.5-21.6,6.5   c-6.4,0-12.3-1.2-17.7-3.5c-5.4-2.4-9.3-4.7-11.6-6.9L438.8,451z"></path>	</g>	<g>		<path class="st1" d="M162.2,488.6v31.8h-5.2v-20.5c0-0.8,0-1.7,0.1-2.7l-9.6,18.1c-0.5,0.9-1.2,1.3-2.1,1.3h-0.8   c-0.9,0-1.6-0.4-2.1-1.3l-9.7-18.1c0,0.5,0.1,1,0.1,1.4s0,0.9,0,1.3v20.5h-5.2v-31.8h4.5c0.3,0,0.5,0,0.7,0c0.2,0,0.4,0.1,0.5,0.1   s0.3,0.2,0.4,0.3c0.1,0.1,0.2,0.3,0.4,0.5l9.5,17.7c0.2,0.5,0.5,1,0.7,1.5c0.2,0.5,0.4,1,0.6,1.5c0.2-0.5,0.4-1.1,0.6-1.6   c0.2-0.5,0.5-1,0.7-1.5l9.4-17.6c0.1-0.2,0.2-0.4,0.4-0.5c0.1-0.1,0.3-0.2,0.4-0.3s0.3-0.1,0.5-0.1s0.4,0,0.7,0H162.2z"></path>		<path class="st1" d="M203.1,520.4h-4.6c-0.5,0-0.9-0.1-1.3-0.4s-0.6-0.6-0.7-1l-2.4-6.5H181l-2.4,6.5c-0.1,0.3-0.3,0.6-0.7,0.9   s-0.8,0.4-1.3,0.4h-4.6l12.5-31.8h6L203.1,520.4z M192.6,508.4l-3.9-10.6c-0.2-0.5-0.4-1-0.6-1.7s-0.4-1.3-0.6-2.1   c-0.2,0.7-0.4,1.4-0.6,2.1s-0.4,1.2-0.6,1.7l-3.8,10.5H192.6z"></path>		<path class="st1" d="M218.9,502h1.4c0.6,0,1-0.1,1.4-0.2c0.4-0.2,0.7-0.4,0.9-0.7l8.8-11.1c0.4-0.5,0.8-0.8,1.2-1   c0.4-0.2,0.9-0.3,1.5-0.3h5.1l-10.7,13.2c-0.6,0.8-1.3,1.4-2,1.7c0.5,0.2,0.9,0.4,1.3,0.7s0.8,0.7,1.1,1.2l11,14.9h-5.2   c-0.7,0-1.2-0.1-1.6-0.3s-0.6-0.5-0.9-0.9l-9-11.7c-0.3-0.4-0.6-0.7-1-0.8c-0.4-0.2-0.9-0.2-1.6-0.2h-1.9v14H213v-31.8h5.9V502z"></path>		<path class="st1" d="M255.7,493.3v8.8h11.1v4.6h-11.1v9h14.1v4.7h-20.1v-31.8h20.1v4.7H255.7z"></path>		<path class="st1" d="M300.3,515.6v4.9h-18.6v-31.8h5.9v26.9H300.3z"></path>		<path class="st1" d="M338.4,520.4h-4.6c-0.5,0-0.9-0.1-1.3-0.4s-0.6-0.6-0.7-1l-2.4-6.5h-13.2l-2.4,6.5c-0.1,0.3-0.3,0.6-0.7,0.9   s-0.8,0.4-1.3,0.4h-4.6l12.5-31.8h6L338.4,520.4z M327.9,508.4l-3.9-10.6c-0.2-0.5-0.4-1-0.6-1.7s-0.4-1.3-0.6-2.1   c-0.2,0.7-0.4,1.4-0.6,2.1s-0.4,1.2-0.6,1.7l-3.8,10.5H327.9z"></path>		<path class="st1" d="M375.5,520.4H371c-0.5,0-0.9-0.1-1.3-0.4s-0.6-0.6-0.7-1l-2.4-6.5h-13.2l-2.4,6.5c-0.1,0.3-0.3,0.6-0.7,0.9   s-0.8,0.4-1.3,0.4h-4.6l12.5-31.8h6L375.5,520.4z M365.1,508.4l-3.9-10.6c-0.2-0.5-0.4-1-0.6-1.7s-0.4-1.3-0.6-2.1   c-0.2,0.7-0.4,1.4-0.6,2.1s-0.4,1.2-0.6,1.7l-3.8,10.5H365.1z"></path>		<path class="st1" d="M410.3,520.4h-5.3c-1,0-1.7-0.4-2.2-1.2l-6.7-10.2c-0.2-0.4-0.5-0.7-0.8-0.8c-0.3-0.2-0.7-0.2-1.3-0.2h-2.5   v12.4h-5.9v-31.8h9.7c2.2,0,4,0.2,5.6,0.7s2.8,1.1,3.8,1.9c1,0.8,1.7,1.8,2.2,2.9s0.7,2.4,0.7,3.7c0,1.1-0.2,2.1-0.5,3   c-0.3,1-0.8,1.8-1.4,2.6c-0.6,0.8-1.3,1.5-2.2,2c-0.9,0.6-1.9,1-3,1.4c0.4,0.2,0.7,0.5,1.1,0.8c0.3,0.3,0.6,0.7,0.9,1.1   L410.3,520.4z M395,503.8c1.1,0,2.1-0.1,2.9-0.4c0.8-0.3,1.5-0.7,2-1.2c0.5-0.5,0.9-1.1,1.2-1.7c0.3-0.7,0.4-1.4,0.4-2.2   c0-1.6-0.5-2.9-1.6-3.7c-1.1-0.9-2.7-1.3-4.9-1.3h-3.8v10.6H395z"></path>		<path class="st1" d="M437.3,494.4c-0.2,0.3-0.4,0.5-0.6,0.7c-0.2,0.1-0.4,0.2-0.7,0.2c-0.3,0-0.6-0.1-1-0.3   c-0.4-0.2-0.8-0.5-1.3-0.8c-0.5-0.3-1.1-0.5-1.7-0.8c-0.7-0.2-1.5-0.3-2.4-0.3c-0.8,0-1.5,0.1-2.2,0.3s-1.1,0.5-1.6,0.8   c-0.4,0.4-0.7,0.8-0.9,1.3c-0.2,0.5-0.3,1-0.3,1.6c0,0.7,0.2,1.4,0.6,1.9c0.4,0.5,1,0.9,1.7,1.3c0.7,0.4,1.5,0.7,2.4,0.9   s1.8,0.6,2.7,0.9c0.9,0.3,1.8,0.7,2.7,1.1s1.7,0.9,2.4,1.6c0.7,0.6,1.2,1.4,1.7,2.3s0.6,2,0.6,3.4c0,1.4-0.2,2.8-0.7,4   s-1.2,2.3-2.2,3.3c-0.9,0.9-2.1,1.7-3.5,2.2s-2.9,0.8-4.7,0.8c-1,0-2-0.1-3-0.3c-1-0.2-1.9-0.5-2.8-0.8c-0.9-0.4-1.7-0.8-2.5-1.3   c-0.8-0.5-1.5-1.1-2.1-1.7l1.7-2.8c0.1-0.2,0.3-0.4,0.6-0.5c0.2-0.1,0.5-0.2,0.7-0.2c0.4,0,0.8,0.2,1.2,0.5c0.4,0.3,0.9,0.6,1.5,1   c0.6,0.4,1.3,0.7,2.1,1c0.8,0.3,1.7,0.5,2.8,0.5c1.7,0,3-0.4,3.9-1.2c0.9-0.8,1.4-1.9,1.4-3.4c0-0.8-0.2-1.5-0.6-2   c-0.4-0.5-1-1-1.7-1.3s-1.5-0.7-2.4-0.9s-1.8-0.5-2.7-0.8c-0.9-0.3-1.8-0.6-2.7-1.1c-0.9-0.4-1.7-0.9-2.4-1.6   c-0.7-0.7-1.2-1.5-1.7-2.5c-0.4-1-0.6-2.2-0.6-3.7c0-1.2,0.2-2.3,0.7-3.4c0.5-1.1,1.1-2.1,2-2.9c0.9-0.9,2-1.5,3.3-2   c1.3-0.5,2.8-0.8,4.4-0.8c1.9,0,3.6,0.3,5.2,0.9c1.6,0.6,2.9,1.4,4,2.5L437.3,494.4z"></path>	</g></g><g id="Layer_2"></g></svg>