<svg xmlns="http://www.w3.org/2000/svg" width="264.807" height="60.973" viewBox="0 0 264.807 60.973"><g id="Group_3" data-name="Group 3" transform="translate(-165.9 -206.093)"><g id="Group_1" data-name="Group 1" transform="translate(165.9 206.093)"><path id="Path_1" data-name="Path 1" d="M176.775,245.811a20.339,20.339,0,0,1-7.973-7.562,22.047,22.047,0,0,1,0-21.867,20.344,20.344,0,0,1,7.973-7.563,25.443,25.443,0,0,1,21.046-.85,19.328,19.328,0,0,1,7.24,5.394l-6.1,5.628a13.111,13.111,0,0,0-10.318-4.807,13.7,13.7,0,0,0-6.8,1.671,11.878,11.878,0,0,0-4.661,4.661,14.674,14.674,0,0,0,0,13.6,11.875,11.875,0,0,0,4.661,4.66,13.694,13.694,0,0,0,6.8,1.671,13.043,13.043,0,0,0,10.318-4.866l6.1,5.628a19,19,0,0,1-7.269,5.452,24.141,24.141,0,0,1-9.673,1.876A23.564,23.564,0,0,1,176.775,245.811Z" transform="translate(-165.9 -206.093)" fill="#2d2d82"></path><path id="Path_2" data-name="Path 2" d="M300.389,268.837a15.465,15.465,0,0,1-6.185-5.774,16.888,16.888,0,0,1,0-16.767,15.469,15.469,0,0,1,6.185-5.774,20.179,20.179,0,0,1,17.851,0A15.532,15.532,0,0,1,324.4,246.3a16.89,16.89,0,0,1,0,16.767,15.528,15.528,0,0,1-6.156,5.774,20.182,20.182,0,0,1-17.851,0Zm14.715-7.8a10.092,10.092,0,0,0,0-12.722,7.619,7.619,0,0,0-5.774-2.374,7.714,7.714,0,0,0-5.8,2.374,9.992,9.992,0,0,0,0,12.722,7.713,7.713,0,0,0,5.8,2.375A7.618,7.618,0,0,0,315.1,261.04Z" transform="translate(-254.046 -228.708)" fill="#2d2d82"></path><path id="Path_3" data-name="Path 3" d="M440.455,241.958q3.606,3.518,3.606,10.435v18.057h-9.146V253.8q0-3.751-1.642-5.6a6.02,6.02,0,0,0-4.749-1.847,7.278,7.278,0,0,0-5.511,2.14q-2.052,2.14-2.052,6.361v15.594h-9.145v-31.54h8.735V242.6a12.135,12.135,0,0,1,4.514-3.078,15.73,15.73,0,0,1,5.921-1.085A12.98,12.98,0,0,1,440.455,241.958Z" transform="translate(-337.833 -228.708)" fill="#2d2d82"></path><path id="Path_4" data-name="Path 4" d="M546.4,253.8a9.38,9.38,0,0,1-3.312,1.495,16.774,16.774,0,0,1-4.133.5q-5.628,0-8.706-2.872t-3.078-8.442V231.525H522.3V224.49h4.866v-7.68h9.146v7.68h7.855v7.035h-7.855v12.839a4.3,4.3,0,0,0,1.025,3.078,3.8,3.8,0,0,0,2.9,1.085,5.879,5.879,0,0,0,3.694-1.173Z" transform="translate(-415.081 -213.586)" fill="#2d2d82"></path><path id="Path_5" data-name="Path 5" d="M629.807,257.258h-23.86A7.424,7.424,0,0,0,609,261.89a10.089,10.089,0,0,0,5.98,1.7,12.091,12.091,0,0,0,4.367-.733,10.586,10.586,0,0,0,3.547-2.316l4.866,5.277q-4.456,5.1-13.015,5.1a20.584,20.584,0,0,1-9.438-2.081,15.251,15.251,0,0,1-6.331-5.774,15.906,15.906,0,0,1-2.228-8.383,16.118,16.118,0,0,1,2.2-8.354,15.4,15.4,0,0,1,6.038-5.8,18.693,18.693,0,0,1,16.972-.088,14.561,14.561,0,0,1,5.892,5.716,17.049,17.049,0,0,1,2.14,8.647Q629.983,254.972,629.807,257.258Zm-21.4-10.142a7.488,7.488,0,0,0-2.58,4.807h15.536a7.564,7.564,0,0,0-2.58-4.778,7.71,7.71,0,0,0-5.159-1.788A7.875,7.875,0,0,0,608.409,247.116Z" transform="translate(-467.125 -228.708)" fill="#2d2d82"></path><path id="Path_6" data-name="Path 6" d="M744.441,241.958q3.606,3.518,3.606,10.435v18.057H738.9V253.8q0-3.751-1.642-5.6a6.02,6.02,0,0,0-4.748-1.847,7.278,7.278,0,0,0-5.511,2.14q-2.052,2.14-2.052,6.361v15.594H715.8v-31.54h8.735V242.6a12.137,12.137,0,0,1,4.514-3.078,15.732,15.732,0,0,1,5.921-1.085A12.978,12.978,0,0,1,744.441,241.958Z" transform="translate(-550.366 -228.708)" fill="#2d2d82"></path><path id="Path_7" data-name="Path 7" d="M850.386,253.8a9.388,9.388,0,0,1-3.312,1.495,16.766,16.766,0,0,1-4.132.5q-5.628,0-8.706-2.872t-3.078-8.442V231.525h-4.865V224.49h4.865v-7.68H840.3v7.68h7.856v7.035H840.3v12.839a4.3,4.3,0,0,0,1.026,3.078,3.8,3.8,0,0,0,2.9,1.085,5.879,5.879,0,0,0,3.693-1.173Z" transform="translate(-627.614 -213.586)" fill="#2d2d82"></path></g><rect id="Rectangle_1" data-name="Rectangle 1" width="23.797" height="8.834" rx="4.417" transform="translate(415.743 233.339) rotate(179.999)" fill="#37aae1" style="mix-blend-mode: multiply;isolation: isolate"></rect><rect id="Rectangle_2" data-name="Rectangle 2" width="23.797" height="8.834" rx="4.417" transform="translate(406.91 233.339) rotate(-90.001)" fill="#3caa32" style="mix-blend-mode: multiply;isolation: isolate"></rect><rect id="Rectangle_3" data-name="Rectangle 3" width="23.797" height="8.834" rx="4.417" transform="translate(406.91 224.505)" fill="#fab432" style="mix-blend-mode: multiply;isolation: isolate"></rect><rect id="Rectangle_4" data-name="Rectangle 4" width="23.797" height="8.834" rx="4.417" transform="translate(415.743 224.505) rotate(89.999)" fill="#cd0f2d" style="mix-blend-mode: multiply;isolation: isolate"></rect><g id="Group_2" data-name="Group 2" transform="translate(170.206 254.872)"><path id="Path_8" data-name="Path 8" d="M194.025,379.791a3.945,3.945,0,0,1,.967,2.9V387.7h-2.536v-4.618a2.371,2.371,0,0,0-.431-1.553,1.516,1.516,0,0,0-1.227-.512,1.809,1.809,0,0,0-1.415.577,2.487,2.487,0,0,0-.52,1.715v4.39h-2.536v-4.618q0-2.065-1.659-2.065a1.791,1.791,0,0,0-1.4.577,2.487,2.487,0,0,0-.52,1.715v4.39h-2.536v-8.747h2.423v1.008a3.2,3.2,0,0,1,1.195-.846,4.019,4.019,0,0,1,1.553-.293,3.758,3.758,0,0,1,1.675.366,2.964,2.964,0,0,1,1.2,1.065,3.591,3.591,0,0,1,1.358-1.057,4.279,4.279,0,0,1,1.8-.374A3.529,3.529,0,0,1,194.025,379.791Z" transform="translate(-180.213 -375.637)" fill="#37aae1"></path><path id="Path_9" data-name="Path 9" d="M238.99,379.791a3.7,3.7,0,0,1,1.089,2.919V387.7h-2.374v-1.089a2.826,2.826,0,0,1-2.666,1.219,4.131,4.131,0,0,1-1.748-.342,2.607,2.607,0,0,1-1.13-.943,2.457,2.457,0,0,1-.39-1.366,2.279,2.279,0,0,1,.919-1.919,4.678,4.678,0,0,1,2.837-.7h2.016a1.616,1.616,0,0,0-.5-1.276,2.222,2.222,0,0,0-1.512-.447,4.425,4.425,0,0,0-1.374.219,3.638,3.638,0,0,0-1.146.594l-.911-1.772a5.513,5.513,0,0,1,1.715-.78,7.7,7.7,0,0,1,2.057-.276A4.555,4.555,0,0,1,238.99,379.791Zm-2.163,6.033a1.649,1.649,0,0,0,.715-.886v-.894H235.8q-1.56,0-1.561,1.024a.913.913,0,0,0,.382.773,1.724,1.724,0,0,0,1.049.284A2.208,2.208,0,0,0,236.827,385.824Z" transform="translate(-216.26 -375.637)" fill="#37aae1"></path><path id="Path_10" data-name="Path 10" d="M267.52,376.865l-1.219,1.2V380.3h-2.536V368.231H266.3v6.829l3.707-3.512h3.024l-3.642,3.707,3.967,5.04h-3.073Z" transform="translate(-238.628 -368.231)" fill="#37aae1"></path><path id="Path_11" data-name="Path 11" d="M301.955,384.043h-6.617a2.058,2.058,0,0,0,.845,1.285,2.8,2.8,0,0,0,1.658.472,3.359,3.359,0,0,0,1.211-.2,2.928,2.928,0,0,0,.984-.643l1.35,1.463a4.534,4.534,0,0,1-3.61,1.415,5.713,5.713,0,0,1-2.618-.577,4.233,4.233,0,0,1-1.756-1.6,4.41,4.41,0,0,1-.618-2.325,4.475,4.475,0,0,1,.61-2.317,4.274,4.274,0,0,1,1.675-1.609,5.183,5.183,0,0,1,4.707-.024,4.037,4.037,0,0,1,1.634,1.585,4.727,4.727,0,0,1,.593,2.4Q302,383.409,301.955,384.043Zm-5.935-2.812a2.075,2.075,0,0,0-.715,1.333h4.309a2.1,2.1,0,0,0-.715-1.325,2.139,2.139,0,0,0-1.431-.5A2.182,2.182,0,0,0,296.021,381.231Z" transform="translate(-258.918 -375.637)" fill="#37aae1"></path><path id="Path_12" data-name="Path 12" d="M325.8,368.231h2.537V380.3H325.8Z" transform="translate(-282.004 -368.231)" fill="#37aae1"></path><path id="Path_13" data-name="Path 13" d="M344.158,379.791a3.7,3.7,0,0,1,1.089,2.919V387.7h-2.374v-1.089a2.826,2.826,0,0,1-2.666,1.219,4.13,4.13,0,0,1-1.748-.342,2.606,2.606,0,0,1-1.13-.943,2.458,2.458,0,0,1-.39-1.366,2.28,2.28,0,0,1,.919-1.919,4.679,4.679,0,0,1,2.837-.7h2.016a1.616,1.616,0,0,0-.5-1.276,2.222,2.222,0,0,0-1.512-.447,4.424,4.424,0,0,0-1.374.219,3.638,3.638,0,0,0-1.146.594l-.911-1.772a5.509,5.509,0,0,1,1.715-.78,7.7,7.7,0,0,1,2.057-.276A4.555,4.555,0,0,1,344.158,379.791ZM342,385.824a1.649,1.649,0,0,0,.715-.886v-.894h-1.74q-1.561,0-1.561,1.024a.913.913,0,0,0,.382.773,1.723,1.723,0,0,0,1.049.284A2.208,2.208,0,0,0,342,385.824Z" transform="translate(-289.788 -375.637)" fill="#37aae1"></path><path id="Path_14" data-name="Path 14" d="M374.26,379.791a3.7,3.7,0,0,1,1.089,2.919V387.7h-2.374v-1.089a2.826,2.826,0,0,1-2.666,1.219,4.13,4.13,0,0,1-1.748-.342,2.607,2.607,0,0,1-1.13-.943,2.457,2.457,0,0,1-.39-1.366,2.28,2.28,0,0,1,.918-1.919,4.678,4.678,0,0,1,2.837-.7h2.016a1.616,1.616,0,0,0-.5-1.276,2.222,2.222,0,0,0-1.512-.447,4.424,4.424,0,0,0-1.374.219,3.638,3.638,0,0,0-1.146.594l-.911-1.772a5.509,5.509,0,0,1,1.715-.78,7.7,7.7,0,0,1,2.057-.276A4.556,4.556,0,0,1,374.26,379.791Zm-2.162,6.033a1.649,1.649,0,0,0,.715-.886v-.894h-1.74q-1.561,0-1.561,1.024a.913.913,0,0,0,.382.773,1.723,1.723,0,0,0,1.049.284A2.208,2.208,0,0,0,372.1,385.824Z" transform="translate(-310.834 -375.637)" fill="#37aae1"></path><path id="Path_15" data-name="Path 15" d="M402.684,379.149a4.558,4.558,0,0,1,1.78-.325v2.342q-.423-.032-.569-.033a2.324,2.324,0,0,0-1.707.61,2.462,2.462,0,0,0-.618,1.829v4.13h-2.536v-8.747h2.423v1.154A2.815,2.815,0,0,1,402.684,379.149Z" transform="translate(-333.202 -375.637)" fill="#37aae1"></path><path id="Path_16" data-name="Path 16" d="M417.825,387.564a5.57,5.57,0,0,1-1.659-.675l.845-1.821a5.307,5.307,0,0,0,1.415.61,5.946,5.946,0,0,0,1.626.236q1.609,0,1.61-.8a.564.564,0,0,0-.439-.537,6.521,6.521,0,0,0-1.349-.276,12.965,12.965,0,0,1-1.772-.374,2.746,2.746,0,0,1-1.211-.748,2.125,2.125,0,0,1-.512-1.528,2.4,2.4,0,0,1,.48-1.471,3.085,3.085,0,0,1,1.4-1,5.973,5.973,0,0,1,2.17-.358,8.525,8.525,0,0,1,1.845.2,5.171,5.171,0,0,1,1.52.561l-.845,1.805a5.047,5.047,0,0,0-2.52-.651,2.561,2.561,0,0,0-1.219.228.67.67,0,0,0-.406.585.58.58,0,0,0,.439.569,7.729,7.729,0,0,0,1.4.309,14.975,14.975,0,0,1,1.756.382,2.64,2.64,0,0,1,1.187.74,2.1,2.1,0,0,1,.5,1.5,2.313,2.313,0,0,1-.488,1.447,3.116,3.116,0,0,1-1.423.983,6.336,6.336,0,0,1-2.219.35A8.528,8.528,0,0,1,417.825,387.564Z" transform="translate(-345.18 -375.637)" fill="#37aae1"></path><path id="Path_17" data-name="Path 17" d="M470.292,379.791a3.943,3.943,0,0,1,.967,2.9V387.7h-2.536v-4.618a2.371,2.371,0,0,0-.431-1.553,1.517,1.517,0,0,0-1.228-.512,1.81,1.81,0,0,0-1.415.577,2.486,2.486,0,0,0-.52,1.715v4.39h-2.536v-4.618q0-2.065-1.659-2.065a1.79,1.79,0,0,0-1.4.577,2.486,2.486,0,0,0-.521,1.715v4.39H456.48v-8.747H458.9v1.008a3.209,3.209,0,0,1,1.2-.846,4.017,4.017,0,0,1,1.552-.293,3.76,3.76,0,0,1,1.675.366,2.963,2.963,0,0,1,1.2,1.065,3.594,3.594,0,0,1,1.358-1.057,4.285,4.285,0,0,1,1.8-.374A3.527,3.527,0,0,1,470.292,379.791Z" transform="translate(-373.366 -375.637)" fill="#37aae1"></path><path id="Path_18" data-name="Path 18" d="M517.263,384.043h-6.617a2.06,2.06,0,0,0,.845,1.285,2.8,2.8,0,0,0,1.659.472,3.364,3.364,0,0,0,1.211-.2,2.929,2.929,0,0,0,.983-.643l1.35,1.463a4.536,4.536,0,0,1-3.61,1.415,5.712,5.712,0,0,1-2.617-.577,4.232,4.232,0,0,1-1.756-1.6,4.412,4.412,0,0,1-.618-2.325,4.474,4.474,0,0,1,.61-2.317,4.274,4.274,0,0,1,1.674-1.609,5.184,5.184,0,0,1,4.707-.024,4.039,4.039,0,0,1,1.634,1.585,4.731,4.731,0,0,1,.593,2.4Q517.312,383.409,517.263,384.043Zm-5.934-2.812a2.074,2.074,0,0,0-.715,1.333h4.308a2.1,2.1,0,0,0-.715-1.325,2.14,2.14,0,0,0-1.431-.5A2.182,2.182,0,0,0,511.329,381.231Z" transform="translate(-409.451 -375.637)" fill="#37aae1"></path><path id="Path_19" data-name="Path 19" d="M544.337,383.085a2.6,2.6,0,0,1-.919.414,4.623,4.623,0,0,1-1.146.139,3.4,3.4,0,0,1-2.415-.8A3.048,3.048,0,0,1,539,380.5v-3.593h-1.349v-1.951H539v-2.13h2.536v2.13h2.179v1.951H541.54v3.561a1.191,1.191,0,0,0,.285.853,1.051,1.051,0,0,0,.805.3,1.632,1.632,0,0,0,1.024-.325Z" transform="translate(-430.119 -371.444)" fill="#37aae1"></path><path id="Path_20" data-name="Path 20" d="M587.243,379.791a3.945,3.945,0,0,1,.967,2.9V387.7h-2.536v-4.618a2.371,2.371,0,0,0-.432-1.553,1.515,1.515,0,0,0-1.227-.512,1.809,1.809,0,0,0-1.415.577,2.487,2.487,0,0,0-.52,1.715v4.39h-2.536v-4.618q0-2.065-1.659-2.065a1.791,1.791,0,0,0-1.4.577,2.488,2.488,0,0,0-.52,1.715v4.39h-2.536v-8.747h2.423v1.008a3.2,3.2,0,0,1,1.194-.846,4.025,4.025,0,0,1,1.553-.293,3.76,3.76,0,0,1,1.674.366,2.971,2.971,0,0,1,1.2,1.065,3.587,3.587,0,0,1,1.358-1.057,4.277,4.277,0,0,1,1.8-.374A3.53,3.53,0,0,1,587.243,379.791Z" transform="translate(-455.132 -375.637)" fill="#37aae1"></path><path id="Path_21" data-name="Path 21" d="M634.212,384.043h-6.618a2.06,2.06,0,0,0,.846,1.285,2.8,2.8,0,0,0,1.658.472,3.359,3.359,0,0,0,1.211-.2,2.925,2.925,0,0,0,.984-.643l1.349,1.463a4.533,4.533,0,0,1-3.609,1.415,5.713,5.713,0,0,1-2.618-.577,4.235,4.235,0,0,1-1.756-1.6,4.412,4.412,0,0,1-.618-2.325,4.474,4.474,0,0,1,.61-2.317,4.273,4.273,0,0,1,1.674-1.609,5.184,5.184,0,0,1,4.707-.024,4.034,4.034,0,0,1,1.634,1.585,4.73,4.73,0,0,1,.594,2.4Q634.261,383.409,634.212,384.043Zm-5.935-2.812a2.076,2.076,0,0,0-.715,1.333h4.309a2.1,2.1,0,0,0-.715-1.325,2.137,2.137,0,0,0-1.43-.5A2.182,2.182,0,0,0,628.277,381.231Z" transform="translate(-491.216 -375.637)" fill="#37aae1"></path><path id="Path_22" data-name="Path 22" d="M665.072,384.043h-6.618a2.061,2.061,0,0,0,.846,1.285,2.8,2.8,0,0,0,1.658.472,3.361,3.361,0,0,0,1.211-.2,2.93,2.93,0,0,0,.984-.643l1.349,1.463a4.534,4.534,0,0,1-3.609,1.415,5.714,5.714,0,0,1-2.618-.577,4.235,4.235,0,0,1-1.756-1.6,4.412,4.412,0,0,1-.618-2.325,4.475,4.475,0,0,1,.609-2.317,4.275,4.275,0,0,1,1.675-1.609,5.184,5.184,0,0,1,4.707-.024,4.036,4.036,0,0,1,1.634,1.585,4.727,4.727,0,0,1,.594,2.4Q665.121,383.409,665.072,384.043Zm-5.935-2.812a2.076,2.076,0,0,0-.715,1.333h4.308a2.1,2.1,0,0,0-.715-1.325,2.138,2.138,0,0,0-1.43-.5A2.183,2.183,0,0,0,659.137,381.231Z" transform="translate(-512.792 -375.637)" fill="#37aae1"></path><path id="Path_23" data-name="Path 23" d="M692.572,379.149a4.559,4.559,0,0,1,1.78-.325v2.342q-.423-.032-.569-.033a2.325,2.325,0,0,0-1.707.61,2.464,2.464,0,0,0-.618,1.829v4.13h-2.536v-8.747h2.423v1.154A2.817,2.817,0,0,1,692.572,379.149Z" transform="translate(-535.878 -375.637)" fill="#37aae1"></path><path id="Path_24" data-name="Path 24" d="M721.149,379.258,717.979,388H715.54l-1.968-5.431L711.54,388H709.1l-3.154-8.747h2.39l2.065,5.918,2.146-5.918h2.146l2.081,5.918,2.13-5.918Z" transform="translate(-547.781 -375.941)" fill="#37aae1"></path><path id="Path_25" data-name="Path 25" d="M761.536,379.791a3.7,3.7,0,0,1,1.089,2.919V387.7h-2.374v-1.089a2.827,2.827,0,0,1-2.666,1.219,4.129,4.129,0,0,1-1.748-.342,2.6,2.6,0,0,1-1.13-.943,2.457,2.457,0,0,1-.39-1.366,2.279,2.279,0,0,1,.918-1.919,4.677,4.677,0,0,1,2.837-.7h2.016a1.617,1.617,0,0,0-.5-1.276,2.223,2.223,0,0,0-1.512-.447,4.424,4.424,0,0,0-1.374.219,3.638,3.638,0,0,0-1.146.594l-.91-1.772a5.506,5.506,0,0,1,1.715-.78,7.7,7.7,0,0,1,2.057-.276A4.555,4.555,0,0,1,761.536,379.791Zm-2.162,6.033a1.649,1.649,0,0,0,.715-.886v-.894h-1.74q-1.561,0-1.561,1.024a.914.914,0,0,0,.382.773,1.725,1.725,0,0,0,1.049.284A2.21,2.21,0,0,0,759.374,385.824Z" transform="translate(-581.599 -375.637)" fill="#37aae1"></path><path id="Path_26" data-name="Path 26" d="M791.637,379.791a3.7,3.7,0,0,1,1.089,2.919V387.7h-2.374v-1.089a2.827,2.827,0,0,1-2.666,1.219,4.129,4.129,0,0,1-1.748-.342,2.6,2.6,0,0,1-1.13-.943,2.457,2.457,0,0,1-.39-1.366,2.279,2.279,0,0,1,.919-1.919,4.678,4.678,0,0,1,2.837-.7h2.016a1.616,1.616,0,0,0-.5-1.276,2.222,2.222,0,0,0-1.512-.447,4.425,4.425,0,0,0-1.374.219,3.637,3.637,0,0,0-1.146.594l-.91-1.772a5.5,5.5,0,0,1,1.715-.78,7.7,7.7,0,0,1,2.057-.276A4.555,4.555,0,0,1,791.637,379.791Zm-2.162,6.033a1.648,1.648,0,0,0,.715-.886v-.894h-1.74q-1.561,0-1.561,1.024a.913.913,0,0,0,.382.773,1.725,1.725,0,0,0,1.049.284A2.211,2.211,0,0,0,789.475,385.824Z" transform="translate(-602.644 -375.637)" fill="#37aae1"></path><path id="Path_27" data-name="Path 27" d="M820.06,379.149a4.561,4.561,0,0,1,1.781-.325v2.342q-.423-.032-.569-.033a2.324,2.324,0,0,0-1.707.61,2.464,2.464,0,0,0-.618,1.829v4.13H816.41v-8.747h2.423v1.154A2.817,2.817,0,0,1,820.06,379.149Z" transform="translate(-625.012 -375.637)" fill="#37aae1"></path><path id="Path_28" data-name="Path 28" d="M843.449,368.231V380.3h-2.422v-1.008a3.346,3.346,0,0,1-2.732,1.138,4.545,4.545,0,0,1-2.236-.553,3.961,3.961,0,0,1-1.569-1.577,5.237,5.237,0,0,1,0-4.748,3.964,3.964,0,0,1,1.569-1.577,4.545,4.545,0,0,1,2.236-.553,3.328,3.328,0,0,1,2.618,1.057v-4.244Zm-3.122,9.455a2.771,2.771,0,0,0,0-3.528,2.277,2.277,0,0,0-3.2,0,2.771,2.771,0,0,0,0,3.528,2.277,2.277,0,0,0,3.2,0Z" transform="translate(-637.254 -368.231)" fill="#37aae1"></path><path id="Path_29" data-name="Path 29" d="M877.14,384.043h-6.618a2.06,2.06,0,0,0,.846,1.285,2.8,2.8,0,0,0,1.658.472,3.359,3.359,0,0,0,1.211-.2,2.926,2.926,0,0,0,.984-.643l1.349,1.463a4.533,4.533,0,0,1-3.609,1.415,5.713,5.713,0,0,1-2.618-.577,4.233,4.233,0,0,1-1.756-1.6,4.41,4.41,0,0,1-.618-2.325,4.475,4.475,0,0,1,.609-2.317,4.274,4.274,0,0,1,1.675-1.609,5.184,5.184,0,0,1,4.707-.024,4.035,4.035,0,0,1,1.634,1.585,4.73,4.73,0,0,1,.594,2.4Q877.189,383.409,877.14,384.043Zm-5.935-2.812a2.078,2.078,0,0,0-.715,1.333H874.8a2.1,2.1,0,0,0-.715-1.325,2.137,2.137,0,0,0-1.43-.5A2.182,2.182,0,0,0,871.205,381.231Z" transform="translate(-661.06 -375.637)" fill="#37aae1"></path></g><path id="Path_30" data-name="Path 30" d="M975.833,271.712a4.417,4.417,0,1,1-4.417-4.417A4.348,4.348,0,0,1,975.833,271.712Z" transform="translate(-560.089 -42.789)" fill="#2d2e83"></path><path id="Path_31" data-name="Path 31" d="M967,271.712a4.31,4.31,0,0,1,4.417-4.417,4.371,4.371,0,0,1,4.417,4.417" transform="translate(-560.089 -42.789)" fill="#2d2e83"></path><path id="Path_32" data-name="Path 32" d="M967,271.712a4.417,4.417,0,1,1,8.835,0" transform="translate(-560.089 -42.789)" fill="#2d2e83"></path></g></svg>