<?xml version="1.0" encoding="UTF-8"?>
<svg xmlns="http://www.w3.org/2000/svg" id="Laag_1" version="1.1" viewBox="0 0 291.224 392.8">
  <path d="M291.224,0c-.159,3.267-.837,5.71-4.396,6.266-10.604,1.658-25.437-1.797-35.886.438-14.182,3.034-9.881,22.29-10.223,33.218-2.347,74.993-.815,150.76-.86,225.919-.018,30.687.962,53.066-15.878,80.41-39.073,63.446-164.714,60.784-204.709-.356-14.447-22.085-25.707-71.826-15.083-96.28,14.774-34.006,77.142-11.836,55.46,29.411-8.435,16.046-33.176,20.658-43.574,33.016-2.932,3.485-5.183,7.336-4.208,12.039.909,4.383,8.823,18.937,11.664,23.083,22.755,33.206,69.299,45.118,107.78,43.043,50.212-2.708,54.159-53.224,55.646-92.839,3.447-91.83-.859-184.433.81-276.424-.846-9.377-4.141-13.836-13.779-14.654-5.007-.425-33.517.998-35.082-.844L138.82,0h152.404Z"></path>
</svg>
