<?xml version="1.0" encoding="utf-8"?>
<!-- Generator: Adobe Illustrator 12.0.0, SVG Export Plug-In . SVG Version: 6.00 Build 51448)  -->
<!DOCTYPE svg PUBLIC "-//W3C//DTD SVG 1.0//EN" "http://www.w3.org/TR/2001/REC-SVG-20010904/DTD/svg10.dtd" [
	<!ENTITY ns_svg "http://www.w3.org/2000/svg">
	<!ENTITY ns_xlink "http://www.w3.org/1999/xlink">
]>
<svg  version="1.0" id="Laag_1" xmlns="&ns_svg;" xmlns:xlink="&ns_xlink;" width="425.11" height="150.45"
	 viewBox="0 0 425.11 150.45" overflow="visible" enable-background="new 0 0 425.11 150.45" xml:space="preserve">
<path fill="#FFFFFF" d="M425.11,150.301l-26.023-92.433v-0.004C388.486,21.402,353.777,0,321.729,0H0l25.645,92.593v0.143
	c10.654,36.781,45.387,57.362,75.642,57.713L425.11,150.301z M47.807,86.394c-0.065-0.204-12.174-44.104-17.512-63.353
	c27.39,0,291.401,0,291.401,0c21.692,0,47.468,14.598,55.232,41.162c0.082,0.286,15.514,56.021,17.516,63.214
	c-27.39,0-292.357,0-292.357,0C79.981,127.417,55.318,112.083,47.807,86.394z"/>
<g>
	<path fill-rule="evenodd" clip-rule="evenodd" fill="#FFFFFF" d="M94.543,107.138h10.208v-42.96h11.88v-7.814h-11.88v-6.71
		c0-3.106,1.107-4.205,4.406-4.205h7.475v-9.616h-8.276c-7.908,0-13.813,4.308-13.813,13.821v6.71H82.847l2.227,7.814h9.469V107.138
		z"/>
	<path fill-rule="evenodd" clip-rule="evenodd" fill="#FFFFFF" d="M129.513,90.113c0,11.517,9.015,17.622,17.025,17.622
		c5.313,0,9.922-2.003,13.118-6.008h0.205v5.411h10.208V56.364h-10.208v30.242c0,6.911-4.315,10.916-10.021,10.916
		c-5.803,0-10.11-4.005-10.11-10.916V56.364h-10.217V90.113z"/>
	<path fill-rule="evenodd" clip-rule="evenodd" fill="#FFFFFF" d="M188.149,107.138h10.217V76.896c0-6.915,4.299-10.92,10.119-10.92
		c5.713,0,10.013,4.005,10.013,10.92v30.242h10.209V73.39c0-11.521-9.008-17.63-16.92-17.63c-5.411,0-10.021,2.003-13.225,6.012
		h-0.196v-5.407h-10.217V107.138z"/>
	<path fill-rule="evenodd" clip-rule="evenodd" fill="#FFFFFF" d="M274.004,107.138h10.217V35.833h-10.217v25.938
		c-3.801-3.608-7.903-6.012-13.11-6.012c-6.203,0-10.716,2.808-13.625,6.612c-2.796,3.604-3.604,6.911-3.604,19.331
		c0,12.518,0.809,15.82,3.604,19.428c2.909,3.809,7.422,6.604,13.625,6.604c5.207,0,9.906-2.399,13.11-5.909V107.138z
		 M263.983,65.976c9.522,0,10.021,8.415,10.021,15.726c0,7.409-0.498,15.82-10.021,15.82c-9.604,0-10.103-7.908-10.103-15.82
		C253.881,73.888,254.38,65.976,263.983,65.976z"/>
	<path fill-rule="evenodd" clip-rule="evenodd" fill="#FFFFFF" d="M328.701,107.138h10.209V72.486
		c0-12.518-8.599-16.727-21.121-16.727c-7.609,0-13.232,2.003-17.131,7.414l8.01,6.11c1.807-2.902,4.315-3.903,9.62-3.903
		c7.307,0,10.413,1.7,10.413,6.506v5.313h-14.124c-10.903,0-16.519,6.906-16.519,15.019c0,8.812,6.604,15.518,17.925,15.518
		c6.906,0,10.421-1.599,12.521-5.104h0.196V107.138z M328.701,89.312c0,7.913-2.901,8.811-11.419,8.811c-6.914,0-9.62-3-9.62-6.408
		c0-3.702,2.813-6.109,8.819-6.109h12.22V89.312z"/>
</g>
</svg>
