<svg width="265" height="66" viewBox="0 0 265 66" fill="none" xmlns="http://www.w3.org/2000/svg">
<g clip-path="url(#clip0_3182_1556)">
<path d="M123.359 32.9805C123.495 32.6661 123.7 32.3865 123.959 32.1625C124.23 31.9993 124.544 31.9228 124.859 31.9435H128.9L118.022 54.1605C117.825 54.6366 117.566 55.085 117.253 55.4945C117.173 55.5951 117.072 55.677 116.957 55.7343C116.841 55.7917 116.715 55.8231 116.586 55.8265C116.461 55.8186 116.34 55.783 116.23 55.7223C116.121 55.6616 116.026 55.5773 115.953 55.4755C115.648 55.0664 115.39 54.6239 115.184 54.1565L104.234 31.9405H108.478C108.783 31.9211 109.085 31.9961 109.345 32.1555C109.605 32.3787 109.811 32.6585 109.945 32.9735L116.583 47.1835L123.353 32.9735L123.359 32.9805Z" fill="#F8F3EC"/>
<path d="M167.176 32.7482C167.154 32.5259 167.221 32.3038 167.361 32.1302C167.536 31.9906 167.757 31.9242 167.979 31.9452H171.013C171.24 31.9245 171.466 31.9907 171.646 32.1302C171.72 32.2139 171.777 32.312 171.811 32.4183C171.845 32.5247 171.857 32.637 171.846 32.7482V50.5242C171.84 50.5834 171.846 50.6433 171.863 50.7003C171.88 50.7573 171.908 50.8103 171.946 50.8562C172.04 50.9305 172.159 50.9663 172.278 50.9562H181.448C181.671 50.934 181.893 51.0005 182.066 51.1412C182.206 51.3153 182.272 51.537 182.251 51.7592V54.4952C182.274 54.7175 182.207 54.9396 182.066 55.1132C181.892 55.2528 181.671 55.3192 181.448 55.2982H167.176V32.7552V32.7482Z" fill="#F8F3EC"/>
<path d="M233.303 51.142C233.378 51.2257 233.434 51.3237 233.468 51.4301C233.502 51.5364 233.514 51.6488 233.503 51.76V54.496C233.514 54.6072 233.502 54.7194 233.467 54.8257C233.433 54.932 233.377 55.0301 233.303 55.114C233.122 55.2512 232.897 55.317 232.67 55.299H219.266C219.157 55.3212 219.043 55.3158 218.936 55.2835C218.829 55.2511 218.731 55.1928 218.652 55.1136C218.573 55.0344 218.514 54.9368 218.482 54.8296C218.45 54.7224 218.444 54.6088 218.466 54.499V31.949H232.642C232.869 31.9284 233.095 31.9945 233.275 32.134C233.35 32.2177 233.406 32.3157 233.44 32.4221C233.474 32.5284 233.486 32.6408 233.475 32.752V35.488C233.486 35.5992 233.474 35.7115 233.44 35.8178C233.405 35.9241 233.349 36.0222 233.275 36.106C233.094 36.2432 232.869 36.309 232.642 36.291H223.569C223.51 36.2848 223.45 36.2904 223.393 36.3076C223.336 36.3247 223.283 36.3531 223.237 36.391C223.163 36.4849 223.127 36.6036 223.137 36.723V40.96C223.131 41.0192 223.137 41.0791 223.154 41.1361C223.171 41.1931 223.2 41.2461 223.237 41.292C223.331 41.3663 223.45 41.4021 223.569 41.392H231.503C231.617 41.3719 231.734 41.3796 231.845 41.4143C231.955 41.4491 232.055 41.5099 232.137 41.5917C232.218 41.6734 232.279 41.7736 232.314 41.8839C232.349 41.9941 232.356 42.1112 232.336 42.225V44.925C232.347 45.0362 232.335 45.1484 232.3 45.2547C232.266 45.361 232.21 45.4591 232.136 45.543C231.955 45.6802 231.73 45.746 231.503 45.728H223.565C223.448 45.7166 223.331 45.7459 223.233 45.811C223.193 45.8593 223.164 45.9155 223.146 45.976C223.129 46.0364 223.125 46.0998 223.133 46.162V50.531C223.127 50.5902 223.133 50.65 223.15 50.7071C223.167 50.7641 223.196 50.8171 223.233 50.863C223.327 50.9373 223.446 50.9731 223.565 50.963H232.671C232.898 50.9423 233.124 51.0085 233.304 51.148L233.303 51.142Z" fill="#F8F3EC"/>
<path d="M259.23 32.8156C259.38 32.5437 259.586 32.3055 259.831 32.1156C260.101 31.9858 260.4 31.9286 260.698 31.9496H265.005L257.283 44.8366C256.595 45.9847 256.231 47.2981 256.23 48.6366V54.4936C256.241 54.6048 256.229 54.7171 256.195 54.8234C256.16 54.9297 256.104 55.0278 256.03 55.1116C255.849 55.2488 255.624 55.3146 255.397 55.2966H252.367C252.145 55.3188 251.923 55.2523 251.749 55.1116C251.61 54.9375 251.543 54.7158 251.564 54.4936V48.8016C251.564 47.4631 251.201 46.1497 250.512 45.0016L242.688 31.9486H247.158C247.452 31.9317 247.744 31.9888 248.009 32.1146C248.264 32.2996 248.476 32.5387 248.628 32.8146L253.896 42.0866L259.233 32.8146L259.23 32.8156Z" fill="#F8F3EC"/>
<path d="M131.541 20.3727C131.432 20.4542 131.296 20.493 131.16 20.4817H129.34C129.274 20.4967 129.206 20.4948 129.141 20.4761C129.076 20.4573 129.016 20.4224 128.969 20.3745C128.921 20.3267 128.886 20.2675 128.867 20.2024C128.848 20.1374 128.846 20.0687 128.861 20.0027V6.95569C128.846 6.8897 128.848 6.82098 128.867 6.75594C128.886 6.6909 128.921 6.63168 128.969 6.58382C129.016 6.53596 129.076 6.50102 129.141 6.48229C129.206 6.46355 129.274 6.46163 129.34 6.47669H133.584C135.167 6.36109 136.745 6.75762 138.084 7.60769C138.588 8.01508 138.985 8.53791 139.243 9.13175C139.501 9.7256 139.611 10.3729 139.565 11.0187C139.594 11.8313 139.359 12.6313 138.894 13.2987C138.417 13.936 137.772 14.4277 137.031 14.7187L140.272 19.8597C140.354 19.9725 140.408 20.103 140.43 20.2407C140.43 20.3987 140.272 20.4817 139.951 20.4817H138.01C137.815 20.4933 137.619 20.4558 137.441 20.3727C137.269 20.2508 137.128 20.0893 137.03 19.9017L133.608 14.2177C133.541 14.1309 133.499 14.027 133.487 13.9177C133.487 13.7857 133.608 13.7107 133.849 13.6987C134.582 13.6456 135.286 13.3897 135.881 12.9597C136.136 12.7583 136.339 12.4989 136.472 12.2031C136.606 11.9073 136.667 11.5838 136.65 11.2597C136.676 10.926 136.615 10.5913 136.473 10.2882C136.331 9.98518 136.113 9.72388 135.84 9.5297C135.127 9.11929 134.309 8.92799 133.488 8.97969H131.928C131.858 8.97284 131.788 8.99013 131.728 9.0287C131.687 9.0627 131.668 9.12869 131.668 9.23969V20.0037C131.675 20.0702 131.667 20.1373 131.647 20.2009C131.626 20.2644 131.592 20.3229 131.547 20.3727H131.541Z" fill="#F8F3EC"/>
<path d="M158.826 17.9899C158.871 18.0397 158.905 18.0982 158.926 18.1617C158.946 18.2252 158.954 18.2924 158.947 18.3589V19.9989C158.954 20.0655 158.946 20.1326 158.926 20.1961C158.905 20.2596 158.871 20.3181 158.826 20.3679C158.717 20.4495 158.581 20.4882 158.445 20.4769H150.403C150.337 20.492 150.269 20.4901 150.204 20.4713C150.139 20.4526 150.079 20.4177 150.032 20.3698C149.984 20.3219 149.949 20.2627 149.93 20.1977C149.911 20.1326 149.909 20.0639 149.924 19.9979V6.94998C149.909 6.88399 149.911 6.81526 149.93 6.75022C149.949 6.68518 149.984 6.62596 150.032 6.5781C150.079 6.53024 150.139 6.4953 150.204 6.47657C150.269 6.45783 150.337 6.45591 150.403 6.47098H158.428C158.564 6.45966 158.7 6.49842 158.809 6.57998C158.854 6.62976 158.888 6.68827 158.909 6.75178C158.929 6.8153 158.937 6.88245 158.93 6.94898V8.58898C158.937 8.65551 158.929 8.72265 158.909 8.78617C158.888 8.84969 158.854 8.90819 158.809 8.95798C158.7 9.03953 158.564 9.0783 158.428 9.06698H152.985C152.95 9.05985 152.913 9.06164 152.878 9.07219C152.843 9.08273 152.812 9.10171 152.786 9.12742C152.76 9.15314 152.741 9.18482 152.731 9.21963C152.72 9.25444 152.718 9.29131 152.725 9.32698V11.8669C152.718 11.9026 152.72 11.9395 152.731 11.9743C152.741 12.0091 152.76 12.0408 152.786 12.0665C152.812 12.0922 152.843 12.1112 152.878 12.1217C152.913 12.1323 152.95 12.134 152.985 12.1269H157.749C157.818 12.1154 157.888 12.1204 157.954 12.1415C158.019 12.1626 158.079 12.1991 158.128 12.248C158.177 12.297 158.214 12.3569 158.235 12.4228C158.256 12.4887 158.261 12.5587 158.249 12.6269V14.2509C158.256 14.3175 158.248 14.3846 158.228 14.4481C158.207 14.5116 158.173 14.5701 158.128 14.6199C158.019 14.7015 157.883 14.7402 157.747 14.7289H152.983C152.913 14.7221 152.843 14.7394 152.783 14.7779C152.742 14.8119 152.723 14.8779 152.723 14.9889V17.6089C152.716 17.6446 152.718 17.6815 152.729 17.7163C152.739 17.7511 152.758 17.7828 152.784 17.8085C152.81 17.8342 152.841 17.8532 152.876 17.8637C152.911 17.8743 152.948 17.8761 152.983 17.8689H158.445C158.581 17.8576 158.717 17.8964 158.826 17.9779V17.9899Z" fill="#F8F3EC"/>
<path d="M169.521 16.7342C169.569 16.6929 169.629 16.6677 169.691 16.6622C169.83 16.6773 169.958 16.7416 170.053 16.8432C170.559 17.2426 171.122 17.5629 171.723 17.7932C172.313 18.0238 172.941 18.1428 173.574 18.1442C174.21 18.1825 174.844 18.0329 175.395 17.7142C175.595 17.5915 175.759 17.4189 175.872 17.2133C175.984 17.0078 176.041 16.7764 176.036 16.5422C176.049 16.259 175.956 15.9812 175.776 15.7622C175.538 15.519 175.246 15.3345 174.924 15.2232C174.372 15.0149 173.807 14.8413 173.232 14.7032C172.398 14.5123 171.588 14.224 170.82 13.8442C170.227 13.5475 169.722 13.099 169.357 12.5442C169 11.9399 168.823 11.2458 168.848 10.5442C168.826 9.72547 169.053 8.91933 169.5 8.23317C169.944 7.57575 170.57 7.06129 171.3 6.75217C172.126 6.40087 173.016 6.22744 173.912 6.24317C175.639 6.22603 177.317 6.81407 178.654 7.90517C178.718 7.94259 178.771 7.99528 178.81 8.05848C178.848 8.12168 178.87 8.19339 178.873 8.26717C178.864 8.39919 178.816 8.52538 178.733 8.62916L177.892 9.94816C177.787 10.1215 177.674 10.2082 177.553 10.2082C177.42 10.1923 177.294 10.1373 177.191 10.0502C176.688 9.68807 176.144 9.38603 175.57 9.15017C175.036 8.93603 174.465 8.82736 173.889 8.83017C173.342 8.8 172.799 8.94652 172.34 9.24817C172.16 9.3726 172.013 9.54011 171.914 9.73551C171.815 9.93091 171.766 10.148 171.771 10.3672C171.76 10.6662 171.859 10.959 172.05 11.1892C172.281 11.4312 172.565 11.6158 172.879 11.7282C173.393 11.9204 173.918 12.0804 174.451 12.2072C175.327 12.4038 176.174 12.7103 176.973 13.1192C177.57 13.4235 178.076 13.8781 178.443 14.4382C178.786 15.0224 178.955 15.6915 178.933 16.3682C178.954 17.1944 178.716 18.0065 178.251 18.6902C177.773 19.3624 177.114 19.8861 176.351 20.2012C175.465 20.5693 174.511 20.7501 173.551 20.7322C172.631 20.7381 171.718 20.5824 170.851 20.2722C170.044 19.9841 169.293 19.5581 168.631 19.0132C168.442 18.8662 168.352 18.7342 168.352 18.6132C168.374 18.4755 168.429 18.345 168.51 18.2322L169.351 16.9322C169.397 16.8604 169.455 16.7969 169.521 16.7442V16.7342Z" fill="#F8F3EC"/>
<path d="M188.634 9.78823C189.26 8.69239 190.173 7.78898 191.276 7.17623C192.441 6.55959 193.738 6.2363 195.055 6.23438C196.373 6.23246 197.671 6.55198 198.837 7.16523C199.936 7.7658 200.847 8.65964 201.468 9.74723C202.094 10.8907 202.421 12.1734 202.419 13.4766C202.417 14.7799 202.086 16.0616 201.457 17.2032C200.832 18.2966 199.914 19.1944 198.807 19.7962C197.638 20.4281 196.325 20.7487 194.996 20.7272C193.688 20.7505 192.396 20.4335 191.246 19.8072C190.151 19.2124 189.243 18.325 188.623 17.2442C187.982 16.1179 187.654 14.8403 187.673 13.5442C187.656 12.2312 187.988 10.9371 188.634 9.79423V9.78823ZM191.156 15.8882C191.525 16.571 192.076 17.1386 192.747 17.5282C193.442 17.9163 194.225 18.12 195.02 18.12C195.816 18.12 196.599 17.9163 197.293 17.5282C197.978 17.1371 198.542 16.5661 198.925 15.8772C199.33 15.1494 199.537 14.328 199.525 13.4952C199.538 12.6478 199.334 11.8111 198.933 11.0642C198.56 10.3718 197.998 9.79943 197.312 9.41323C196.619 9.02381 195.835 8.82377 195.039 8.83323C194.242 8.82275 193.457 9.02725 192.766 9.42524C192.092 9.81898 191.539 10.39 191.166 11.0762C190.765 11.8187 190.561 12.6521 190.574 13.4962C190.557 14.3297 190.757 15.1533 191.154 15.8862L191.156 15.8882Z" fill="#F8F3EC"/>
<path d="M214.386 20.3727C214.277 20.4541 214.141 20.4929 214.005 20.4817H212.184C212.118 20.4967 212.05 20.4948 211.985 20.4761C211.92 20.4573 211.86 20.4224 211.813 20.3745C211.765 20.3267 211.73 20.2675 211.711 20.2024C211.692 20.1374 211.69 20.0687 211.705 20.0027V6.95569C211.69 6.8897 211.692 6.82098 211.711 6.75594C211.73 6.6909 211.765 6.63168 211.813 6.58382C211.86 6.53596 211.92 6.50102 211.985 6.48229C212.05 6.46355 212.118 6.46163 212.184 6.47669H216.428C218.011 6.36109 219.589 6.75762 220.928 7.60769C221.432 8.01508 221.829 8.53791 222.087 9.13175C222.345 9.7256 222.455 10.3729 222.409 11.0187C222.438 11.8312 222.203 12.6313 221.738 13.2987C221.26 13.9373 220.612 14.4295 219.868 14.7197L223.109 19.8607C223.191 19.9735 223.245 20.104 223.267 20.2417C223.267 20.3997 223.109 20.4827 222.788 20.4827H220.847C220.652 20.4943 220.456 20.4568 220.278 20.3737C220.106 20.2518 219.965 20.0903 219.867 19.9027L216.445 14.2187C216.378 14.1319 216.336 14.028 216.324 13.9187C216.324 13.7867 216.445 13.7117 216.686 13.6997C217.419 13.6465 218.123 13.3907 218.718 12.9607C218.973 12.7593 219.176 12.4999 219.309 12.2041C219.443 11.9083 219.504 11.5848 219.487 11.2607C219.513 10.927 219.452 10.5923 219.31 10.2892C219.168 9.98618 218.95 9.72488 218.677 9.5307C217.964 9.12029 217.146 8.92899 216.325 8.98069H214.765C214.695 8.97384 214.625 8.99113 214.565 9.0297C214.524 9.0637 214.505 9.12969 214.505 9.24069V20.0037C214.512 20.0702 214.504 20.1373 214.484 20.2009C214.463 20.2644 214.429 20.3229 214.384 20.3727H214.386Z" fill="#F8F3EC"/>
<path d="M242.425 8.9678C242.321 9.05044 242.189 9.0895 242.056 9.0768H238.611C238.576 9.06967 238.539 9.07146 238.504 9.08201C238.469 9.09255 238.438 9.11153 238.412 9.13724C238.386 9.16296 238.367 9.19463 238.357 9.22944C238.346 9.26425 238.344 9.30112 238.351 9.33679V20.0038C238.358 20.0703 238.35 20.1374 238.33 20.201C238.309 20.2645 238.275 20.323 238.23 20.3728C238.121 20.4543 237.985 20.4931 237.849 20.4818H236.028C235.962 20.4968 235.894 20.4949 235.829 20.4762C235.764 20.4574 235.704 20.4225 235.657 20.3746C235.609 20.3268 235.574 20.2676 235.555 20.2025C235.536 20.1375 235.534 20.0687 235.549 20.0028V9.33679C235.553 9.30018 235.549 9.26317 235.536 9.22854C235.524 9.1939 235.504 9.16254 235.477 9.13679C235.417 9.09149 235.342 9.07013 235.266 9.0768H231.825C231.759 9.09186 231.691 9.08993 231.626 9.0712C231.561 9.05246 231.501 9.01753 231.454 8.96967C231.406 8.92181 231.371 8.86258 231.352 8.79755C231.333 8.73251 231.331 8.66378 231.346 8.59779V6.95779C231.331 6.89181 231.333 6.82308 231.352 6.75804C231.371 6.693 231.406 6.63377 231.454 6.58591C231.501 6.53805 231.561 6.50312 231.626 6.48439C231.691 6.46565 231.759 6.46372 231.825 6.47879H242.051C242.117 6.46372 242.186 6.46565 242.251 6.48439C242.316 6.50312 242.375 6.53805 242.423 6.58591C242.471 6.63377 242.506 6.693 242.525 6.75804C242.544 6.82308 242.545 6.89181 242.53 6.95779V8.59779C242.543 8.73026 242.504 8.8625 242.421 8.9668L242.425 8.9678Z" fill="#F8F3EC"/>
<path d="M145.192 40.053L138.554 54.263C138.419 54.5773 138.213 54.857 137.954 55.081C137.695 55.2417 137.392 55.3182 137.087 55.3H132.844L143.794 33.088C143.999 32.6203 144.257 32.1777 144.563 31.769C144.636 31.6672 144.731 31.5829 144.84 31.5222C144.95 31.4615 145.071 31.4259 145.196 31.418C145.325 31.4225 145.451 31.4544 145.566 31.5117C145.681 31.569 145.782 31.6502 145.863 31.75C146.175 32.1604 146.433 32.6086 146.632 33.084L157.51 55.296H153.469C153.154 55.3176 152.841 55.2426 152.569 55.081C152.309 54.8578 152.104 54.5779 151.969 54.263L145.2 40.053H145.192Z" fill="#F8F3EC"/>
<path d="M192.809 32.7482C192.787 32.5259 192.854 32.3038 192.994 32.1302C193.169 31.9906 193.39 31.9242 193.612 31.9452H196.646C196.873 31.9245 197.099 31.9907 197.279 32.1302C197.353 32.2139 197.41 32.312 197.444 32.4183C197.478 32.5247 197.49 32.637 197.479 32.7482V50.5242C197.473 50.5834 197.479 50.6433 197.496 50.7003C197.513 50.7573 197.541 50.8103 197.579 50.8562C197.673 50.9305 197.792 50.9663 197.911 50.9562H207.081C207.304 50.934 207.526 51.0005 207.699 51.1412C207.839 51.3153 207.905 51.537 207.884 51.7592V54.4952C207.907 54.7175 207.84 54.9396 207.699 55.1132C207.525 55.2528 207.304 55.3192 207.081 55.2982H192.809V32.7552V32.7482Z" fill="#F8F3EC"/>
<path d="M55.9554 31.9568H61.5554L46.4634 62.7697C46.1881 63.4289 45.8309 64.0508 45.4004 64.6208C45.2893 64.7603 45.1492 64.8741 44.9899 64.9542C44.8305 65.0343 44.6557 65.0788 44.4774 65.0848C44.3041 65.0742 44.1354 65.025 43.9835 64.9409C43.8316 64.8569 43.7004 64.74 43.5994 64.5988C43.1752 64.0328 42.8185 63.4193 42.5364 62.7707L27.3544 31.9568H33.2374C33.6589 31.9286 34.0787 32.0335 34.4374 32.2567C34.7989 32.5658 35.084 32.9543 35.2704 33.3918L44.4784 53.1007L53.8714 33.3918C54.0599 32.9555 54.3447 32.5674 54.7044 32.2567C55.0798 32.0312 55.5155 31.9265 55.9524 31.9568H55.9554ZM31.9264 26.2198C31.9264 26.2198 30.9764 24.1998 29.9964 22.0698C29.5634 21.1238 29.1064 20.0348 28.8094 19.2388C28.3403 17.9104 27.9748 16.5476 27.7164 15.1627C27.6573 14.8191 27.4863 14.5046 27.2301 14.2681C26.9738 14.0316 26.6467 13.8863 26.2994 13.8547L25.5994 13.8058C25.5354 13.8058 25.0944 13.7978 24.6684 13.7948C24.5621 13.7944 24.4568 13.8155 24.3589 13.8569C24.2609 13.8982 24.1723 13.9588 24.0983 14.0352C24.0244 14.1116 23.9666 14.2021 23.9285 14.3014C23.8903 14.4006 23.8726 14.5065 23.8764 14.6128C23.8874 14.9518 23.9024 15.2947 23.9144 15.4377C24.0208 16.9273 24.2475 18.4058 24.5924 19.8588C24.6374 20.0438 24.6824 20.2508 24.7284 20.4728C23.3862 20.3819 22.0521 20.1954 20.7364 19.9148C18.9194 19.5378 17.7024 18.9648 15.9004 16.2358C15.0151 14.9129 14.2793 13.4959 13.7064 12.0107C13.2034 10.6808 12.8199 9.30873 12.5604 7.91075C12.5108 7.63204 12.3677 7.37859 12.1546 7.19223C11.9415 7.00587 11.6712 6.89776 11.3884 6.88575L10.5814 6.85575C10.3964 6.84775 10.0384 6.83275 9.7254 6.81775C9.655 6.81528 9.58485 6.82771 9.51959 6.85424C9.45432 6.88077 9.3954 6.92079 9.34668 6.97168C9.29796 7.02257 9.26054 7.08318 9.23689 7.14954C9.21323 7.2159 9.20386 7.28651 9.2094 7.35675C9.2354 7.66975 9.2694 8.03175 9.2884 8.20875C9.4354 9.67862 9.70025 11.1343 10.0804 12.5617C10.4416 13.94 10.9249 15.2833 11.5244 16.5758C9.45392 15.513 7.47015 14.2893 5.5914 12.9158C4.52546 12.0676 3.79712 10.867 3.5374 9.52975C3.11978 8.11201 2.87435 6.64915 2.8064 5.17275C2.74284 3.854 2.79572 2.53221 2.9644 1.22275C2.98949 1.02936 2.94787 0.833205 2.84641 0.666665C2.74496 0.500126 2.58975 0.373169 2.4064 0.306752L1.7124 0.0537503C1.59607 0.0108459 1.47192 -0.00669999 1.34826 0.00229004C1.2246 0.0112801 1.10429 0.0466 0.995394 0.105878C0.886496 0.165156 0.791529 0.247024 0.716852 0.345998C0.642175 0.444972 0.589516 0.558764 0.562403 0.67975C0.281738 1.9829 0.106172 3.30649 0.037401 4.63775C-0.0610193 6.29027 0.0349707 7.94862 0.3234 9.57875C0.50006 10.556 0.774093 11.5131 1.1414 12.4358C1.50106 13.2302 2.02369 13.9402 2.6754 14.5197C4.8517 16.4664 7.19657 18.216 9.6824 19.7478C12.4859 21.5004 15.4837 22.9209 18.6154 23.9807C21.4112 24.9788 24.3105 25.6591 27.2584 26.0087C28.81 26.1645 30.369 26.2349 31.9284 26.2198H31.9264ZM89.1804 4.64075C89.1106 3.30941 88.9341 1.98582 88.6524 0.682752C88.6253 0.561767 88.5726 0.447974 88.498 0.349C88.4233 0.250026 88.3283 0.168155 88.2194 0.108876C88.1105 0.0495984 87.9902 0.0142822 87.8665 0.0052922C87.7429 -0.00369782 87.6187 0.013848 87.5024 0.0567525L86.8084 0.309751C86.6248 0.375855 86.4694 0.502749 86.3679 0.66937C86.2664 0.835991 86.2249 1.03232 86.2504 1.22575C86.4191 2.53521 86.472 3.857 86.4084 5.17575C86.3408 6.65219 86.0953 8.11509 85.6774 9.53275C85.419 10.8721 84.6906 12.0751 83.6234 12.9247C81.7443 14.2978 79.7606 15.5215 77.6904 16.5848C78.2887 15.2918 78.7719 13.9486 79.1344 12.5708C79.5146 11.1433 79.7794 9.68762 79.9264 8.21775C79.9454 8.04075 79.9754 7.67875 80.0054 7.36575C80.0109 7.29552 80.0016 7.22491 79.9779 7.15854C79.9543 7.09218 79.9168 7.03157 79.8681 6.98068C79.8194 6.92979 79.7605 6.88977 79.6952 6.86324C79.6299 6.83671 79.5598 6.82428 79.4894 6.82675C79.1764 6.84175 78.8184 6.85675 78.6334 6.86475L77.8264 6.89475C77.5434 6.90603 77.2727 7.01389 77.0595 7.20038C76.8462 7.38686 76.7033 7.64073 76.6544 7.91975C76.3949 9.31774 76.0114 10.6898 75.5084 12.0197C74.9371 13.5056 74.2012 14.9228 73.3144 16.2447C71.5144 18.9697 70.2954 19.5447 68.4784 19.9237C67.1627 20.2044 65.8286 20.3909 64.4864 20.4817C64.5354 20.2597 64.5804 20.0518 64.6224 19.8678C64.9655 18.4144 65.1922 16.9361 65.3004 15.4468C65.3114 15.3038 65.3234 14.9607 65.3384 14.6217C65.3425 14.5154 65.3249 14.4094 65.2869 14.31C65.2489 14.2107 65.1911 14.12 65.1171 14.0436C65.0431 13.9672 64.9544 13.9065 64.8563 13.8653C64.7582 13.8241 64.6528 13.8031 64.5464 13.8038C64.1244 13.8038 63.6794 13.8117 63.6154 13.8147L62.9154 13.8638C62.5677 13.8939 62.2398 14.0388 61.9833 14.2755C61.7268 14.5123 61.5563 14.8275 61.4984 15.1718C61.2403 16.5564 60.8749 17.9188 60.4054 19.2467C60.1054 20.0467 59.6554 21.1347 59.2184 22.0777C58.2384 24.2107 57.2884 26.2278 57.2884 26.2278C58.8478 26.245 60.4069 26.1745 61.9584 26.0168C64.9063 25.6671 67.8056 24.9868 70.6014 23.9888C73.7331 22.9289 76.7309 21.5083 79.5344 19.7558C82.0194 18.2227 84.3641 16.4732 86.5414 14.5278C87.1908 13.9462 87.7131 13.2367 88.0754 12.4438C88.4427 11.5211 88.7167 10.564 88.8934 9.58675C89.1816 7.9566 89.2776 6.29827 89.1794 4.64575L89.1804 4.64075Z" fill="#F8F3EC"/>
</g>
<defs>
<clipPath id="clip0_3182_1556">
<rect width="265" height="66" fill="white"/>
</clipPath>
</defs>
</svg>
