<?xml version="1.0" encoding="utf-8"?>
<!-- Generator: Adobe Illustrator 21.1.0, SVG Export Plug-In . SVG Version: 6.00 Build 0)  -->
<svg version="1.1" id="Laag_1" xmlns="http://www.w3.org/2000/svg" xmlns:xlink="http://www.w3.org/1999/xlink" x="0px" y="0px"
	 viewBox="0 0 205 107.3" style="enable-background:new 0 0 205 107.3;" xml:space="preserve">
<style type="text/css">
	.st0{clip-path:url(#SVGID_2_);enable-background:new    ;}
	.st1{clip-path:url(#SVGID_4_);fill:#FFFFFF;}
	.st2{clip-path:url(#SVGID_4_);fill:#FAB60C;}
</style>
<g>
	<defs>
		<rect id="SVGID_1_" width="205" height="107.2"/>
	</defs>
	<clipPath id="SVGID_2_">
		<use xlink:href="#SVGID_1_"  style="overflow:visible;"/>
	</clipPath>
	<g class="st0">
		<g>
			<defs>
				<rect id="SVGID_3_" width="205" height="107.3"/>
			</defs>
			<clipPath id="SVGID_4_">
				<use xlink:href="#SVGID_3_"  style="overflow:visible;"/>
			</clipPath>
			<path class="st1" d="M15.6,60.1c1.6,1.2,2.5,2.8,2.9,4.8h-5c-0.3-0.7-0.8-1.2-1.5-1.7c-0.7-0.4-1.5-0.6-2.4-0.6
				c-1.5,0-2.7,0.5-3.6,1.5c-0.9,1-1.3,2.3-1.3,4c0,1.8,0.5,3.3,1.4,4.2c0.9,1,2.3,1.5,4,1.5c1.1,0,2.1-0.3,2.9-0.9
				c0.8-0.6,1.4-1.5,1.8-2.6H9V67h9.8v4.6c-0.4,1.1-0.9,2.2-1.8,3.1c-0.8,1-1.8,1.8-3.1,2.4c-1.3,0.6-2.7,0.9-4.3,0.9
				c-2,0-3.7-0.4-5.1-1.2s-2.6-2-3.4-3.5C0.4,71.8,0,70.1,0,68.2c0-1.9,0.4-3.6,1.2-5.1c0.8-1.5,1.9-2.7,3.4-3.5
				c1.5-0.8,3.1-1.2,5.1-1.2C12.1,58.4,14.1,59,15.6,60.1"/>
			<path class="st1" d="M26.3,67.5c-0.6,0.6-0.9,1.6-0.9,2.8c0,1.2,0.3,2.2,0.9,2.8c0.6,0.6,1.4,1,2.3,1c0.9,0,1.6-0.3,2.2-1
				c0.6-0.6,0.9-1.6,0.9-2.8c0-1.2-0.3-2.2-0.9-2.8c-0.6-0.6-1.4-1-2.2-1C27.7,66.5,26.9,66.8,26.3,67.5 M32.6,63.4
				c1.2,0.6,2.1,1.5,2.8,2.7c0.7,1.2,1,2.6,1,4.2c0,1.6-0.3,3-1,4.2c-0.7,1.2-1.6,2.1-2.8,2.7c-1.2,0.6-2.5,0.9-4.1,0.9
				c-1.5,0-2.9-0.3-4.1-0.9c-1.2-0.6-2.1-1.5-2.8-2.7c-0.7-1.2-1-2.6-1-4.2c0-1.6,0.3-3,1-4.2c0.7-1.2,1.6-2.1,2.8-2.7
				c1.2-0.6,2.6-0.9,4.1-0.9C30.1,62.4,31.4,62.8,32.6,63.4"/>
			<path class="st1" d="M47.9,66.9c-0.6-0.5-1.2-0.8-2.1-0.8c-0.9,0-1.6,0.3-2.1,0.8c-0.6,0.5-0.9,1.3-1,2.2h6
				C48.7,68.1,48.4,67.4,47.9,66.9 M53.3,71.1H42.7c0.1,1.1,0.3,2,0.9,2.5c0.5,0.5,1.2,0.8,2,0.8c0.7,0,1.3-0.2,1.7-0.5
				c0.5-0.3,0.8-0.8,0.9-1.3h5c-0.2,1.1-0.6,2-1.3,2.9c-0.7,0.8-1.5,1.5-2.6,2c-1,0.5-2.2,0.7-3.5,0.7c-1.5,0-2.8-0.3-4-0.9
				c-1.2-0.6-2.1-1.5-2.7-2.7c-0.7-1.2-1-2.6-1-4.2c0-1.6,0.3-3,1-4.2c0.6-1.2,1.6-2.1,2.7-2.7c1.2-0.6,2.5-0.9,4-0.9
				c1.5,0,2.8,0.3,4,0.9c1.1,0.6,2,1.5,2.7,2.6c0.6,1.1,0.9,2.4,0.9,3.9C53.4,70.2,53.4,70.7,53.3,71.1"/>
			<path class="st1" d="M60.7,67.5c-0.6,0.7-0.9,1.6-0.9,2.7c0,1.2,0.3,2.1,0.9,2.7c0.6,0.7,1.4,1,2.4,1c1,0,1.8-0.3,2.4-1
				c0.6-0.7,0.9-1.6,0.9-2.7c0-1.1-0.3-2.1-0.9-2.7c-0.6-0.7-1.4-1-2.4-1C62.2,66.6,61.3,66.9,60.7,67.5 M64.7,63.2
				c0.8,0.5,1.4,1.3,1.8,2.2v-7.7h4.7v20.2h-4.7v-2.8c-0.4,0.9-1,1.6-1.8,2.2c-0.8,0.5-1.8,0.8-3,0.8c-1.3,0-2.4-0.3-3.4-0.9
				c-1-0.6-1.8-1.5-2.4-2.7c-0.6-1.2-0.9-2.6-0.9-4.2c0-1.6,0.3-3,0.9-4.2c0.6-1.2,1.4-2.1,2.4-2.7c1-0.6,2.1-0.9,3.4-0.9
				C62.8,62.4,63.8,62.7,64.7,63.2"/>
			<polygon class="st1" points="81.5,73.3 84.8,62.6 89.7,62.6 84.3,77.9 78.5,77.9 73.1,62.6 78.1,62.6 			"/>
			<path class="st1" d="M96.6,67.5c-0.6,0.7-0.9,1.6-0.9,2.7c0,1.2,0.3,2.1,0.9,2.7c0.6,0.7,1.4,1,2.4,1c1,0,1.8-0.3,2.4-1
				c0.6-0.7,0.9-1.6,0.9-2.7c0-1.1-0.3-2.1-0.9-2.7c-0.6-0.7-1.4-1-2.4-1C98,66.6,97.2,66.9,96.6,67.5 M100.5,63.2
				c0.8,0.5,1.5,1.3,1.9,2.2v-2.8h4.7v15.3h-4.7v-2.8c-0.4,0.9-1,1.6-1.9,2.2c-0.8,0.5-1.8,0.8-3,0.8c-1.3,0-2.4-0.3-3.4-0.9
				c-1-0.6-1.8-1.5-2.4-2.7c-0.6-1.2-0.9-2.6-0.9-4.2c0-1.6,0.3-3,0.9-4.2c0.6-1.2,1.4-2.1,2.4-2.7c1-0.6,2.1-0.9,3.4-0.9
				C98.7,62.4,99.7,62.7,100.5,63.2"/>
			<path class="st1" d="M120.4,63.9c1.2,1,1.9,2.2,2.2,3.8h-4.4c-0.1-0.6-0.4-1.1-0.9-1.5c-0.4-0.4-1-0.5-1.7-0.5
				c-0.5,0-0.9,0.1-1.2,0.3c-0.3,0.2-0.4,0.6-0.4,1c0,0.5,0.3,0.8,0.8,1.1c0.5,0.2,1.3,0.5,2.4,0.7c1.2,0.3,2.1,0.6,2.9,0.8
				c0.7,0.3,1.4,0.7,1.9,1.4c0.5,0.6,0.8,1.5,0.8,2.6c0,0.9-0.2,1.7-0.7,2.3c-0.5,0.7-1.2,1.2-2.1,1.6c-0.9,0.4-2,0.6-3.2,0.6
				c-2.1,0-3.7-0.5-5-1.4c-1.2-0.9-2-2.2-2.3-3.9h4.5c0.1,0.7,0.4,1.2,0.8,1.5c0.5,0.3,1.1,0.5,1.9,0.5c0.5,0,0.9-0.1,1.2-0.4
				c0.3-0.2,0.4-0.6,0.4-1c0-0.5-0.3-0.9-0.8-1.1c-0.5-0.2-1.3-0.5-2.4-0.7c-1.1-0.2-2.1-0.5-2.8-0.8c-0.7-0.3-1.4-0.7-1.9-1.3
				c-0.5-0.6-0.8-1.4-0.8-2.5c0-1.4,0.5-2.5,1.6-3.3c1-0.8,2.5-1.3,4.4-1.3C117.7,62.4,119.3,62.9,120.4,63.9"/>
			<path class="st1" d="M134.1,73.9v4H132c-1.8,0-3.2-0.4-4.2-1.3c-1-0.9-1.5-2.3-1.5-4.4v-5.6h-2.1v-3.9h2.1v-3.7h4.7v3.7h3.1v3.9
				H131v5.7c0,0.6,0.1,1,0.4,1.3c0.2,0.2,0.7,0.4,1.2,0.4H134.1z"/>
			<path class="st1" d="M141.6,67.5c-0.6,0.7-0.9,1.6-0.9,2.7c0,1.2,0.3,2.1,0.9,2.7c0.6,0.7,1.4,1,2.4,1c1,0,1.8-0.3,2.4-1
				c0.6-0.7,0.9-1.6,0.9-2.7c0-1.1-0.3-2.1-0.9-2.7c-0.6-0.7-1.4-1-2.4-1C143,66.6,142.2,66.9,141.6,67.5 M145.5,63.2
				c0.8,0.5,1.5,1.3,1.9,2.2v-2.8h4.7v15.2c0,1.4-0.3,2.7-0.8,3.8c-0.5,1.1-1.4,2-2.5,2.7c-1.1,0.7-2.5,1-4.2,1
				c-2.3,0-4.1-0.5-5.5-1.6c-1.4-1.1-2.2-2.6-2.5-4.4h4.6c0.1,0.6,0.5,1.1,1,1.4c0.5,0.3,1.2,0.5,2,0.5c1,0,1.7-0.3,2.3-0.8
				c0.6-0.6,0.9-1.4,0.9-2.7v-2.7c-0.4,0.9-1,1.6-1.9,2.2c-0.8,0.5-1.8,0.8-3,0.8c-1.3,0-2.4-0.3-3.4-0.9c-1-0.6-1.8-1.5-2.4-2.7
				c-0.6-1.2-0.9-2.6-0.9-4.2c0-1.6,0.3-3,0.9-4.2c0.6-1.2,1.4-2.1,2.4-2.7c1-0.6,2.1-0.9,3.4-0.9C143.7,62.4,144.7,62.7,145.5,63.2
				"/>
			<path class="st1" d="M160.1,67.5c-0.6,0.6-0.9,1.6-0.9,2.8c0,1.2,0.3,2.2,0.9,2.8c0.6,0.6,1.4,1,2.3,1c0.9,0,1.6-0.3,2.2-1
				c0.6-0.6,0.9-1.6,0.9-2.8c0-1.2-0.3-2.2-0.9-2.8c-0.6-0.6-1.4-1-2.2-1C161.5,66.5,160.7,66.8,160.1,67.5 M166.5,63.4
				c1.2,0.6,2.1,1.5,2.8,2.7c0.7,1.2,1,2.6,1,4.2c0,1.6-0.3,3-1,4.2c-0.7,1.2-1.6,2.1-2.8,2.7c-1.2,0.6-2.5,0.9-4.1,0.9
				c-1.5,0-2.9-0.3-4.1-0.9c-1.2-0.6-2.1-1.5-2.8-2.7c-0.7-1.2-1-2.6-1-4.2c0-1.6,0.3-3,1-4.2c0.7-1.2,1.6-2.1,2.8-2.7
				c1.2-0.6,2.6-0.9,4.1-0.9C163.9,62.4,165.3,62.8,166.5,63.4"/>
			<path class="st1" d="M181.7,66.9c-0.6-0.5-1.2-0.8-2.1-0.8c-0.9,0-1.6,0.3-2.1,0.8c-0.6,0.5-0.9,1.3-1,2.2h6
				C182.5,68.1,182.3,67.4,181.7,66.9 M187.1,71.1h-10.6c0.1,1.1,0.3,2,0.9,2.5c0.5,0.5,1.2,0.8,2,0.8c0.7,0,1.3-0.2,1.7-0.5
				c0.5-0.3,0.8-0.8,0.9-1.3h5c-0.2,1.1-0.6,2-1.3,2.9c-0.7,0.8-1.5,1.5-2.6,2c-1,0.5-2.2,0.7-3.5,0.7c-1.5,0-2.8-0.3-4-0.9
				c-1.2-0.6-2.1-1.5-2.7-2.7c-0.7-1.2-1-2.6-1-4.2c0-1.6,0.3-3,1-4.2c0.6-1.2,1.6-2.1,2.7-2.7c1.2-0.6,2.5-0.9,4-0.9
				c1.5,0,2.8,0.3,4,0.9c1.1,0.6,2,1.5,2.7,2.6c0.6,1.1,0.9,2.4,0.9,3.9C187.2,70.2,187.2,70.7,187.1,71.1"/>
			<path class="st1" d="M194.6,67.5c-0.6,0.7-0.9,1.6-0.9,2.7c0,1.2,0.3,2.1,0.9,2.7c0.6,0.7,1.4,1,2.4,1c1,0,1.8-0.3,2.4-1
				c0.6-0.7,0.9-1.6,0.9-2.7c0-1.1-0.3-2.1-0.9-2.7c-0.6-0.7-1.4-1-2.4-1C196,66.6,195.2,66.9,194.6,67.5 M198.5,63.2
				c0.8,0.5,1.4,1.3,1.8,2.2v-7.7h4.7v20.2h-4.7v-2.8c-0.4,0.9-1,1.6-1.8,2.2c-0.8,0.5-1.8,0.8-3,0.8c-1.3,0-2.4-0.3-3.4-0.9
				c-1-0.6-1.8-1.5-2.4-2.7c-0.6-1.2-0.9-2.6-0.9-4.2c0-1.6,0.3-3,0.9-4.2c0.6-1.2,1.4-2.1,2.4-2.7c1-0.6,2.1-0.9,3.4-0.9
				C196.6,62.4,197.6,62.7,198.5,63.2"/>
			<polygon class="st2" points="61.6,88.6 61.6,102.1 59.9,102.1 59.9,91.3 55.5,102.1 54,102.1 49.6,91.4 49.6,102.1 47.8,102.1 
				47.8,88.6 50,88.6 54.8,100 59.5,88.6 			"/>
			<path class="st2" d="M66.8,93.9c-0.7,0.7-1,1.7-1,2.9c0,1.2,0.3,2.2,1,2.9c0.7,0.7,1.5,1,2.6,1c0.7,0,1.3-0.2,1.9-0.5
				c0.6-0.3,1-0.8,1.3-1.4c0.3-0.6,0.5-1.3,0.5-2.1c0-0.8-0.2-1.5-0.5-2.1s-0.7-1.1-1.3-1.4c-0.6-0.3-1.2-0.5-1.9-0.5
				C68.3,92.9,67.4,93.2,66.8,93.9 M71.5,92.1c0.7,0.5,1.2,1.2,1.5,2.1v-2.7h1.8v10.7h-1.8v-2.7c-0.3,0.9-0.8,1.6-1.5,2.1
				c-0.7,0.5-1.6,0.8-2.6,0.8c-1,0-1.8-0.2-2.5-0.7c-0.7-0.4-1.3-1.1-1.7-1.9c-0.4-0.8-0.6-1.8-0.6-2.9c0-1.1,0.2-2.1,0.6-2.9
				c0.4-0.8,1-1.5,1.7-1.9c0.7-0.4,1.6-0.7,2.5-0.7C69.9,91.3,70.8,91.5,71.5,92.1"/>
			<polygon class="st2" points="83.6,102.1 79.4,97.3 79.4,102.1 77.7,102.1 77.7,87.7 79.4,87.7 79.4,96.1 83.5,91.4 85.7,91.4 
				80.9,96.7 85.8,102.1 			"/>
			<path class="st2" d="M95,94.3c-0.3-0.5-0.7-0.9-1.2-1.2c-0.5-0.3-1.1-0.4-1.7-0.4c-1,0-1.8,0.3-2.5,0.9c-0.7,0.6-1,1.5-1.1,2.7
				h6.9C95.5,95.5,95.3,94.8,95,94.3 M97.1,97.2h-8.6c0,1.2,0.4,2.1,1,2.8c0.7,0.6,1.5,0.9,2.4,0.9c0.9,0,1.6-0.2,2.2-0.7
				c0.6-0.4,0.9-1,1.1-1.7h1.9c-0.1,0.7-0.4,1.4-0.9,2c-0.5,0.6-1,1-1.7,1.4c-0.7,0.3-1.5,0.5-2.4,0.5c-1,0-1.9-0.2-2.7-0.7
				c-0.8-0.4-1.4-1.1-1.9-1.9c-0.4-0.8-0.7-1.8-0.7-2.9c0-1.1,0.2-2.1,0.7-2.9s1.1-1.5,1.9-1.9c0.8-0.4,1.7-0.7,2.7-0.7
				c1,0,2,0.2,2.7,0.7c0.8,0.4,1.4,1,1.8,1.8c0.4,0.7,0.6,1.6,0.6,2.5C97.2,96.6,97.2,96.9,97.1,97.2"/>
			<rect x="99.5" y="87.7" class="st2" width="1.8" height="14.5"/>
			<path class="st2" d="M106.5,93.9c-0.7,0.7-1,1.7-1,2.9c0,1.2,0.3,2.2,1,2.9c0.7,0.7,1.5,1,2.6,1c0.7,0,1.3-0.2,1.9-0.5
				c0.6-0.3,1-0.8,1.3-1.4c0.3-0.6,0.5-1.3,0.5-2.1c0-0.8-0.2-1.5-0.5-2.1s-0.7-1.1-1.3-1.4c-0.6-0.3-1.2-0.5-1.9-0.5
				C108,92.9,107.1,93.2,106.5,93.9 M111.2,92.1c0.7,0.5,1.2,1.2,1.5,2.1v-2.7h1.8v10.7h-1.8v-2.7c-0.3,0.9-0.8,1.6-1.5,2.1
				c-0.7,0.5-1.6,0.8-2.6,0.8c-1,0-1.8-0.2-2.5-0.7c-0.7-0.4-1.3-1.1-1.7-1.9c-0.4-0.8-0.6-1.8-0.6-2.9c0-1.1,0.2-2.1,0.6-2.9
				c0.4-0.8,1-1.5,1.7-1.9c0.7-0.4,1.6-0.7,2.5-0.7C109.6,91.3,110.5,91.5,111.2,92.1"/>
			<path class="st2" d="M119.6,93.9c-0.7,0.7-1,1.7-1,2.9c0,1.2,0.3,2.2,1,2.9c0.7,0.7,1.5,1,2.6,1c0.7,0,1.3-0.2,1.9-0.5
				c0.6-0.3,1-0.8,1.3-1.4c0.3-0.6,0.5-1.3,0.5-2.1c0-0.8-0.2-1.5-0.5-2.1s-0.7-1.1-1.3-1.4c-0.6-0.3-1.2-0.5-1.9-0.5
				C121.2,92.9,120.3,93.2,119.6,93.9 M124.4,92.1c0.7,0.5,1.2,1.2,1.5,2.1v-2.7h1.8v10.7h-1.8v-2.7c-0.3,0.9-0.8,1.6-1.5,2.1
				c-0.7,0.5-1.6,0.8-2.6,0.8c-1,0-1.8-0.2-2.5-0.7c-0.7-0.4-1.3-1.1-1.7-1.9c-0.4-0.8-0.6-1.8-0.6-2.9c0-1.1,0.2-2.1,0.6-2.9
				c0.4-0.8,1-1.5,1.7-1.9c0.7-0.4,1.6-0.7,2.5-0.7C122.8,91.3,123.7,91.5,124.4,92.1"/>
			<path class="st2" d="M133.8,91.9c0.7-0.4,1.5-0.6,2.4-0.6v1.9h-0.5c-1,0-1.8,0.3-2.5,0.8c-0.6,0.5-1,1.4-1,2.6v5.6h-1.8V91.4h1.8
				v2.2C132.7,92.8,133.2,92.3,133.8,91.9"/>
			<path class="st2" d="M140.3,93.9c-0.7,0.7-1,1.7-1,2.9c0,1.2,0.3,2.2,1,2.9c0.7,0.7,1.5,1,2.6,1c0.7,0,1.3-0.2,1.9-0.5
				c0.6-0.3,1-0.8,1.3-1.4c0.3-0.6,0.5-1.3,0.5-2.1c0-0.8-0.2-1.5-0.5-2.1c-0.3-0.6-0.7-1.1-1.3-1.4c-0.6-0.3-1.2-0.5-1.9-0.5
				C141.8,92.9,141,93.2,140.3,93.9 M145.1,92.1c0.7,0.5,1.2,1.2,1.5,2.1v-6.5h1.8v14.5h-1.8v-2.7c-0.3,0.9-0.8,1.6-1.5,2.1
				c-0.7,0.5-1.6,0.8-2.6,0.8c-1,0-1.8-0.2-2.5-0.7c-0.7-0.4-1.3-1.1-1.7-1.9c-0.4-0.8-0.6-1.8-0.6-2.9c0-1.1,0.2-2.1,0.6-2.9
				c0.4-0.8,1-1.5,1.7-1.9c0.7-0.4,1.6-0.7,2.5-0.7C143.5,91.3,144.3,91.5,145.1,92.1"/>
			<path class="st2" d="M153,102.1h-1.8V91.4h1.8V102.1z M151.2,87.5c0.2-0.2,0.5-0.3,0.9-0.3c0.4,0,0.7,0.1,0.9,0.3
				c0.2,0.2,0.3,0.5,0.3,0.8c0,0.3-0.1,0.6-0.3,0.8c-0.2,0.2-0.5,0.3-0.9,0.3c-0.4,0-0.7-0.1-0.9-0.3c-0.2-0.2-0.3-0.5-0.3-0.8
				C150.9,87.9,151,87.7,151.2,87.5"/>
			<path class="st2" d="M156,89.1c-0.2-0.2-0.3-0.5-0.3-0.8c0-0.3,0.1-0.6,0.3-0.8c0.2-0.2,0.5-0.3,0.9-0.3c0.4,0,0.6,0.1,0.9,0.3
				c0.2,0.2,0.3,0.5,0.3,0.8c0,0.3-0.1,0.6-0.3,0.8s-0.5,0.3-0.9,0.3C156.5,89.4,156.2,89.3,156,89.1 M153.9,105.7h0.7
				c0.5,0,0.8-0.1,1-0.3s0.3-0.6,0.3-1.1V91.4h1.8v12.9c0,1.9-1,2.9-2.9,2.9h-1V105.7z"/>
			<path class="st2" d="M84.3,35.8c0.7,1,1.6,2,2.5,2.9c0,0,0.2-0.2,0.2-0.2c0.3-0.4,0.7-0.7,1-1.1c0.4-0.4,0.8-0.8,1.3-1.2
				c0.4-0.4,0.7-0.7,1.1-1.1c0.3-0.3,0.7-0.7,1-1c0.3-0.3,0.6-0.6,0.9-0.9c0.3-0.3,0.7-0.7,1-1c0.4-0.4,0.9-0.9,1.3-1.3
				c0.3-0.3,0.6-0.6,0.9-0.9c0.3-0.3,0.5-0.5,0.8-0.8c0.5-0.5,1.2-0.6,1.8-0.3c0.8,0.5,1.1,1.5,0.4,2.3c-0.4,0.5-0.9,0.9-1.3,1.4
				c-1.9,1.9-3.8,3.8-5.8,5.8c-0.7,0.7-1.3,1.3-2,2c-0.1,0.1-0.2,0.2-0.3,0.3c0,0,0.2,0.1,0.2,0.2c0.7,0.5,1.4,0.9,2.1,1.4
				c0.2,0.2,0.5,0.3,0.8,0.4c0.1,0.1,0.2,0.1,0.2,0.1c0.1,0,0.2-0.2,0.3-0.2c2.8-2.8,5.6-5.6,8.4-8.4c0.1-0.1,0.2-0.2,0.4-0.3
				c0.4-0.3,1.3-0.3,1.7,0c0.3,0.3,0.6,0.6,0.6,1.1c0,0.5-0.2,0.9-0.5,1.3c-0.7,0.7-1.4,1.4-2.1,2.1c-0.6,0.6-1.2,1.2-1.8,1.7
				c-0.6,0.6-1.2,1.2-1.8,1.8c-0.7,0.7-1.3,1.3-2,2c-0.1,0.1-0.3,0.3-0.3,0.3c0.1,0.1,0.2,0.1,0.3,0.1c0.5,0.1,0.9,0.3,1.4,0.4
				l1.6,0.4l1.7,0.3c0.1,0,0.4,0,0.4,0c0.8-2.7,2.6-4,5.3-4.1c0,0,0-0.1,0-0.1c0-0.2,0-0.4,0.1-0.6c0-0.6,0.2-1.2,0.5-1.7
				c0.2-0.5,0.6-1,1-1.4c0.4-0.4,0.9-0.8,1.4-1c0.6-0.3,1.2-0.4,1.8-0.5c0.2,0,0.5,0,0.7-0.1c0-0.1,0-0.1,0-0.2c0-0.3,0-0.7,0.1-1
				c0-0.1,0.1-0.3,0.1-0.4c0.3-1,0.8-1.8,1.6-2.5c0.4-0.4,0.9-0.6,1.4-0.8c0.7-0.3,1.3-0.4,2-0.4c0.1,0,0.2,0,0.3,0
				c0-2.2,0.9-3.9,2.9-4.9c2-1,3.9-0.6,5.6,0.8c0-0.1,0.1-0.2,0.1-0.3c0.1-0.7,0.1-1.4,0.2-2c0-0.6,0.1-1.2,0-1.8
				c-0.1-1.2-0.1-2.3-0.4-3.4c-0.1-0.4-0.2-0.8-0.2-1.2c0-0.2-0.1-0.3-0.1-0.5c-0.2-0.8-0.4-1.6-0.8-2.4c-0.3-0.6-0.5-1.3-0.8-1.9
				c-0.2-0.5-0.5-0.9-0.7-1.4c-0.4-0.7-0.8-1.3-1.3-2c-0.4-0.6-0.8-1.1-1.3-1.6c-0.6-0.6-1.1-1.2-1.8-1.8c-0.5-0.5-1.1-0.9-1.6-1.3
				c-0.5-0.4-1-0.7-1.5-1.1c-0.6-0.4-1.1-0.7-1.7-1c-0.4-0.2-0.9-0.4-1.3-0.6c-0.5-0.2-1.1-0.4-1.6-0.6c-0.2-0.1-0.4-0.2-0.7-0.2
				c-0.5-0.2-1.1-0.3-1.6-0.4c-0.2,0-0.4-0.1-0.6-0.1c-0.5-0.1-0.9-0.2-1.4-0.3c-0.2,0-0.5-0.1-0.7-0.1c-0.2,0-0.3,0-0.4,0
				c0,0,0.2,0.2,0.2,0.2c0.8,0.9,1.7,1.7,2.5,2.6c1.1,1.1,2.1,2.1,3.2,3.2c0.7,0.7,1.3,1.3,2,2c0.7,0.7,1.5,1.5,2.2,2.2
				c0.4,0.4,0.8,0.9,1.1,1.5c0.3,0.5,0.5,1.1,0.6,1.6c0.2,0.8,0.2,1.6,0.1,2.4c-0.1,0.6-0.3,1.2-0.5,1.7c-0.3,0.6-0.6,1.1-1.1,1.6
				c-0.2,0.2-0.5,0.5-0.7,0.7c-0.5,0.4-1,0.7-1.7,1c-0.5,0.2-1,0.3-1.5,0.4c-0.7,0.1-1.4,0.1-2-0.1c-0.6-0.1-1.2-0.3-1.8-0.6
				c-0.6-0.4-1.2-0.8-1.7-1.3c-0.3-0.3-0.6-0.6-0.9-0.9c-0.4-0.4-0.9-0.9-1.3-1.3c-0.3-0.3-0.6-0.5-0.8-0.8
				c-0.4-0.4-0.7-0.8-1.1-1.1c-0.2-0.2-0.4-0.4-0.6-0.6c-0.4-0.4-0.8-0.8-1.2-1.2c-0.4-0.4-0.8-0.8-1.3-1.2
				c-0.1,0.1-0.2,0.1-0.2,0.2c-2.6,2.6-5.3,5.3-7.9,7.9c-1,1-1.9,1.9-2.9,2.9c-0.9,0.9-1.8,1.8-2.7,2.8c-0.8,0.8-1.6,1.6-2.4,2.4
				c-0.4,0.4-1,1-1.4,1.4c0,0,0,0.1,0.1,0.3c0.2,0.4,0.3,0.9,0.5,1.3c0.3,0.6,0.5,1.2,0.8,1.8c0,0.1,0.1,0.2,0.1,0.2
				c0,0.1,0.1,0.2,0.1,0.2c0.3-0.3,0.6-0.6,0.8-0.8c0.5-0.5,1-1,1.5-1.5c1-1,1.9-1.9,2.9-2.9c0.7-0.7,1.4-1.4,2.2-2.2
				c0.4-0.4,0.9-0.9,1.3-1.3c0.3-0.3,0.6-0.5,0.9-0.5c0.4,0,0.7,0.1,1,0.3c0.4,0.2,0.6,0.6,0.6,1.1c0.1,0.5-0.1,0.9-0.4,1.2
				c-0.6,0.6-1.1,1.1-1.7,1.7c-0.5,0.5-0.9,0.9-1.4,1.4c-0.5,0.5-1,1-1.5,1.6c-0.4,0.4-0.8,0.8-1.2,1.2c-0.4,0.4-0.7,0.7-1.1,1.1
				c-0.3,0.3-0.7,0.7-1.1,1C85.1,35,84.7,35.4,84.3,35.8"/>
			<path class="st1" d="M80.3,26c0,0,0.2-0.1,0.2-0.2c0.6-0.6,1.2-1.2,1.7-1.8c0.4-0.4,0.8-0.8,1.3-1.2c0.8-0.8,1.5-1.5,2.3-2.3
				c0.6-0.6,1.1-1.1,1.7-1.7c0.7-0.7,1.4-1.4,2-2.1c0.4-0.4,0.9-0.8,1.3-1.3c0.5-0.5,1-1,1.5-1.6c0.4-0.4,0.8-0.8,1.2-1.2
				c0.5-0.5,1.1-1.1,1.6-1.6c0.4-0.4,0.8-0.8,1.2-1.2c0.2-0.2,0.5-0.5,0.7-0.7c0.2-0.2,0.4-0.4,0.7-0.6c0.4-0.3,1.2-0.3,1.6,0
				c0.2,0.2,0.4,0.4,0.6,0.6c0.3,0.3,0.6,0.6,0.9,0.9c0.4,0.4,0.8,0.7,1.1,1.1c2.1,2.1,4.1,4.1,6.2,6.2c0.6,0.6,1.3,0.9,2.2,0.9
				c0.6,0,1.1-0.1,1.7-0.3c0.5-0.2,0.9-0.6,1.2-1c0.3-0.4,0.5-0.9,0.6-1.4c0.1-0.5,0.1-1,0-1.5c-0.1-0.3-0.2-0.6-0.4-0.9
				c-0.2-0.2-0.3-0.5-0.5-0.7c-2.4-2.4-4.9-4.9-7.3-7.3c-1.6-1.6-3.2-3.2-4.8-4.8c-0.2-0.2-0.3-0.3-0.3-0.3c-0.6,0.1-1.4,0.2-2,0.3
				c-0.3,0.1-0.6,0.1-1,0.2c-0.3,0.1-0.7,0.2-1,0.3C96.4,0.9,96,1,95.6,1.1c-0.2,0.1-0.5,0.2-0.7,0.3c-1,0.4-1.9,0.8-2.8,1.3
				c-1,0.5-1.9,1.1-2.8,1.8c-1,0.7-1.9,1.5-2.7,2.4c-0.6,0.6-1.2,1.3-1.7,1.9c-0.6,0.7-1.1,1.5-1.5,2.2c-0.3,0.4-0.5,0.8-0.7,1.3
				c0,0,0,0,0,0c-0.1,0.2-0.4,0.8-0.6,1.2c-0.2,0.6-0.4,1.1-0.6,1.7c-0.1,0.4-0.3,0.8-0.4,1.2c-0.1,0.3-0.2,0.7-0.3,1
				c0,0.2-0.1,0.4-0.1,0.6c-0.1,0.7-0.2,1.3-0.4,2c0,0.3-0.1,0.6-0.1,0.9c0,0.9-0.1,1.8-0.1,2.7c0,0.7,0.1,1.4,0.2,2.1
				C80.3,25.7,80.3,25.9,80.3,26"/>
			<path class="st1" d="M117.4,40.1c1.3-1.1,2.5-2.3,3.5-3.7c-0.3-0.3-0.6-0.6-0.8-0.8c-0.6-0.6-1.2-1.2-1.8-1.8
				c-0.2-0.2-0.4-0.4-0.7-0.6c-0.3-0.2-0.7-0.3-1-0.3c-0.9-0.1-1.6,0.2-2.2,0.8c-0.5,0.6-0.7,1.3-0.6,2c0,0.5,0.2,0.9,0.5,1.2
				c0.2,0.2,0.4,0.4,0.6,0.6c0.4,0.4,0.9,0.9,1.3,1.3c0.3,0.3,0.7,0.7,1,1C117.3,40,117.3,40.1,117.4,40.1"/>
			<path class="st1" d="M110.5,44.1c1.7-0.6,3.3-1.4,4.8-2.4c0-0.1-0.1-0.1-0.1-0.2c-0.8-0.8-1.6-1.7-2.5-2.5
				c-0.8-0.7-1.7-0.9-2.7-0.5c-0.7,0.3-1.2,0.8-1.5,1.5c-0.2,0.5-0.2,0.9-0.1,1.4c0.1,0.5,0.4,1,0.7,1.3c0.4,0.4,0.8,0.8,1.1,1.1
				C110.3,44,110.4,44,110.5,44.1"/>
			<path class="st1" d="M124.5,29.2c0,0-0.2-0.2-0.3-0.3l-0.4-0.4c-0.1-0.2-0.2-0.3-0.4-0.4c-0.5-0.4-1.1-0.6-1.8-0.6
				c-1.1,0-2.1,0.8-2.4,1.9c-0.2,0.7-0.1,1.4,0.3,2c0.2,0.3,0.5,0.6,0.7,0.9c0.4,0.4,0.9,0.9,1.3,1.3c0.2,0.2,0.4,0.4,0.6,0.6
				c0,0,0.1,0.1,0.2,0.1c0.5-0.8,0.9-1.6,1.2-2.4C124,30.9,124.3,30.1,124.5,29.2"/>
			<path class="st1" d="M107.5,44.9l0.2,0c-0.5-0.5-1.3-1-2.1-1.1c-0.2,0-0.5,0-0.7,0.1c-0.6,0.2-1.1,0.5-1.5,1.1
				c-0.1,0.1-0.2,0.3-0.3,0.5c0,0,0.3,0,0.4,0c0.6,0,1.1-0.1,1.7-0.1c0.4,0,0.8-0.1,1.2-0.1c0.2,0,0.4-0.1,0.5-0.1
				C107.1,45,107.3,45,107.5,44.9"/>
		</g>
	</g>
</g>
</svg>
