<?xml version="1.0" encoding="utf-8"?>
<!-- Generator: Adobe Illustrator 21.1.0, SVG Export Plug-In . SVG Version: 6.00 Build 0)  -->
<svg version="1.1" id="Logo" xmlns="http://www.w3.org/2000/svg" xmlns:xlink="http://www.w3.org/1999/xlink" x="0px" y="0px"
	 viewBox="0 0 439.607 415.29" enable-background="new 0 0 439.607 415.29" xml:space="preserve">
<g>
	<polyline fill="#6FBE44" points="329.882,154.924 220.201,0 219.856,0 110.177,154.924 	"/>
	<path fill="#273A90" d="M158.785,309.683l0.003,0.426v42.679h-49.411v-42.679H0v-0.587l110.114-154.557h48.674v121.173h24.221
		L158.785,309.683z M109.377,276.138v-49.722l-33.429,49.722H109.377z"/>
	<polygon fill="#6FBE44" points="329.737,155.299 329.737,310.108 330.24,310.108 439.607,310.108 439.607,309.521 	"/>
	<polygon fill="#6FBE44" points="270.011,212.064 228.88,212.064 214.314,232.348 199.747,212.064 158.614,212.064 193.742,260.99 
		158.785,309.683 199.919,309.683 214.314,289.634 228.706,309.683 269.834,309.683 234.88,260.99 	"/>
	<g>
		<path fill="#273A90" d="M60.001,403.076H49.654v-22.097l-9.336,12.796h-0.816l-9.361-12.796v22.097H20.085v-38.135h9.387
			l10.547,14.306l10.6-14.306h9.383V403.076z"/>
		<path fill="#273A90" d="M107.172,403.076H96.573l-2.802-7.729H78.869l-2.849,7.729H65.42l15.182-38.135h11.44L107.172,403.076z
			 M91.394,388.712l-5.023-13.92l-5.078,13.92H91.394z"/>
		<path fill="#273A90" d="M148.642,403.076h-12.628l-13.126-17.857v17.857h-10.349v-38.135h10.349V382l12.43-17.059h11.244
			l-12.776,17.855L148.642,403.076z"/>
		<path fill="#273A90" d="M179.838,403.076H153.96v-38.135h25.454v7.648h-15.101v6.989h14.411v7.676h-14.411v8.147h15.525V403.076z"
			/>
		<path fill="#273A90" d="M213.654,403.076h-26.073v-38.135h10.351v28.996h15.723V403.076z"/>
		<path fill="#273A90" d="M257.457,403.076h-10.601l-2.795-7.729h-14.906l-2.853,7.729h-10.6l15.185-38.135h11.434L257.457,403.076z
			 M241.683,388.712l-5.025-13.92l-5.078,13.92H241.683z"/>
		<path fill="#273A90" d="M300.515,403.076h-10.599l-2.8-7.729h-14.912l-2.843,7.729H258.76l15.179-38.135h11.439L300.515,403.076z
			 M284.739,388.712l-5.031-13.92l-5.076,13.92H284.739z"/>
		<path fill="#273A90" d="M339.109,403.076h-11.115l-2.694-6.768c-0.993-2.479-1.886-4.29-2.681-5.438
			c-0.793-1.146-1.563-1.877-2.317-2.194c-0.748-0.325-1.717-0.487-2.908-0.487h-1.163v14.887H305.88v-38.135h17.605
			c2.839,0,5.168,0.641,6.983,1.929c1.815,1.282,3.123,2.842,3.929,4.679c0.799,1.833,1.197,3.573,1.197,5.225
			c0,1.925-0.334,3.556-1.004,4.882c-0.67,1.33-1.373,2.298-2.112,2.904c-0.745,0.604-1.579,1.185-2.5,1.731
			c1.103,0.717,2.011,1.566,2.73,2.548c0.721,0.981,1.701,2.968,2.937,5.956L339.109,403.076z M325.044,376.994
			c0-1.764-0.522-2.99-1.559-3.689c-1.04-0.698-2.732-1.046-5.079-1.046h-2.175v9.189h2.229c2.525,0,4.251-0.306,5.184-0.919
			C324.578,379.912,325.044,378.733,325.044,376.994z"/>
		<path fill="#273A90" d="M379.912,384.696c0,3.906-0.642,7.042-1.917,9.413c-1.277,2.367-2.789,4.281-4.521,5.745
			c-2.461,2.149-5.899,3.222-10.324,3.222h-18.522v-38.135h14.264c2.145,0,3.983,0.123,5.508,0.372
			c1.525,0.247,2.898,0.595,4.121,1.046c1.223,0.448,2.265,0.953,3.121,1.515c0.857,0.557,1.628,1.156,2.302,1.801
			c1.175,1.063,2.202,2.318,3.087,3.769c0.881,1.446,1.586,3.128,2.104,5.034C379.654,380.385,379.912,382.459,379.912,384.696z
			 M369.389,384.202c0-3.102-0.532-5.514-1.599-7.25c-1.061-1.734-2.345-2.894-3.841-3.481c-1.486-0.59-3.012-0.882-4.565-0.882
			h-4.404v22.589h4.404c2.706,0,5.051-0.714,7.033-2.145C368.399,391.602,369.389,388.659,369.389,384.202z"/>
		<path fill="#273A90" d="M397.511,403.076h-10.348v-38.135h10.348V403.076z"/>
		<path fill="#273A90" d="M418.409,398.342c0,3.394-0.245,6.277-0.728,8.645c-0.492,2.361-1.587,4.339-3.289,5.926
			c-1.696,1.588-4.229,2.378-7.601,2.378c-1.241,0-2.476-0.126-3.714-0.386l-1.561-9.188c1.309-0.036,2.373-0.121,3.196-0.247
			c0.821-0.128,1.493-0.418,2.008-0.866c0.512-0.451,0.874-1.142,1.089-2.079c0.165-0.735,0.248-2.832,0.248-6.299v-31.284h10.352
			V398.342z"/>
	</g>
	<path fill="#273A90" d="M270.064,154.965h59.673v197.822H269.84v-140.62h-40.901L270.064,154.965"/>
</g>
</svg>
