<?xml version="1.0" encoding="UTF-8"?> <svg xmlns="http://www.w3.org/2000/svg" xmlns:xlink="http://www.w3.org/1999/xlink" version="1.1" id="Laag_2_00000091727283689879821380000008530082280295419549_" x="0px" y="0px" viewBox="0 0 417.3 127.6" style="enable-background:new 0 0 417.3 127.6;" xml:space="preserve"> <style type="text/css"> .st0{fill:#F07300;} .st1{fill:#FFFFFF;} .st2{fill:#003F61;} </style> <path class="st0" d="M119.7,61L90.3,6.2c-3.1-5.8-10.2-7.9-15.9-4.7l-53.8,30c-2.4,1.4-4.7,3.8-5.7,7.2L0.5,88.9 c-1.7,6,1.6,12.3,7.6,14.1l84.9,24.1c5.9,1.8,12.1-1.7,13.8-7.7l14-49.2C121.7,67.3,121.2,63.7,119.7,61"></path> <g> <path class="st1" d="M22.5,45.2H32v16.6h17.5V45.2H59v43.2h-9.5V69.7H32v18.6h-9.5L22.5,45.2L22.5,45.2z"></path> <path class="st1" d="M98.5,83.5c-3.3,4.3-7.7,5.9-11.9,5.9c-13.4,0-21.2-10-21.2-22.4c0-12.8,7.9-22.8,21.2-22.8 c8.8,0,17.2,5.4,18.2,15.2h-9.1c-1.1-4.8-4.7-7.3-9.1-7.3C78.2,52.1,75,59.4,75,67c0,7.2,3.2,14.5,11.7,14.5 c6.2,0,9.7-3.3,10.3-9.3h-9.6V65h18.2v23.3h-6.1L98.5,83.5z"></path> </g> <g> <path class="st2" d="M145.3,35.6h6.3v11h11.6v-11h6.3v28.6h-6.3V51.8h-11.6v12.3h-6.3V35.6z"></path> <path class="st2" d="M174.3,49.8c0.3-5.3,5.1-6.9,9.7-6.9c4.1,0,9.1,0.9,9.1,5.9v10.8c0,1.9,0.2,3.8,0.7,4.6h-5.8 c-0.2-0.6-0.4-1.3-0.4-2c-1.8,1.9-4.4,2.6-7,2.6c-3.9,0-7-2-7-6.2c0-4.7,3.5-5.8,7-6.3c3.5-0.5,6.7-0.4,6.7-2.7 c0-2.4-1.7-2.8-3.7-2.8c-2.2,0-3.6,0.9-3.8,3.1H174.3z M187.4,54c-1,0.8-3,0.9-4.7,1.2c-1.8,0.4-3.4,1-3.4,3c0,2.1,1.6,2.6,3.5,2.6 c4.4,0,4.6-3.5,4.6-4.8V54z"></path> <path class="st2" d="M197.7,43.4h5.4v2.9h0.1c1.4-2.3,3.9-3.4,6.3-3.4c6,0,7.6,3.4,7.6,8.5v12.7h-5.7V52.4c0-3.4-1-5.1-3.6-5.1 c-3.1,0-4.4,1.7-4.4,5.9v10.8h-5.7L197.7,43.4L197.7,43.4z"></path> <path class="st2" d="M226,57.4c0,2.5,2.1,3.5,4.4,3.5c1.6,0,3.7-0.6,3.7-2.6c0-1.7-2.4-2.3-6.4-3.2c-3.3-0.7-6.6-1.9-6.6-5.5 c0-5.3,4.6-6.6,9-6.6c4.5,0,8.7,1.5,9.1,6.6h-5.4c-0.2-2.2-1.8-2.8-3.9-2.8c-1.3,0-3.2,0.2-3.2,1.9c0,2,3.2,2.3,6.4,3.1 c3.3,0.8,6.6,2,6.6,5.8c0,5.4-4.7,7.2-9.4,7.2c-4.8,0-9.5-1.8-9.7-7.3H226z"></path> <path class="st2" d="M275.8,60.9c-2.2,2.8-5.1,3.9-7.8,3.9c-8.8,0-14-6.6-14-14.8c0-8.5,5.2-15.1,14-15.1c5.8,0,11.4,3.6,12,10.1 h-6c-0.7-3.2-3.1-4.8-6-4.8c-5.6,0-7.8,4.8-7.8,9.8c0,4.8,2.1,9.6,7.8,9.6c4.1,0,6.4-2.2,6.8-6.2h-6.3v-4.7h12v15.4h-4L275.8,60.9z "></path> <path class="st2" d="M289.8,55.2c0.2,3.6,1.9,5.2,5.1,5.2c2.3,0,4.1-1.4,4.5-2.7h5c-1.6,4.9-5,7-9.7,7c-6.5,0-10.6-4.5-10.6-10.9 c0-6.2,4.3-10.9,10.6-10.9c7,0,10.4,5.9,10,12.3C304.8,55.2,289.8,55.2,289.8,55.2z M299.1,51.6c-0.5-2.9-1.8-4.4-4.5-4.4 c-3.6,0-4.6,2.8-4.7,4.4H299.1z"></path> <path class="st2" d="M319.8,64.1h-6.3l-7.1-20.7h6l4.4,14.1h0.1l4.4-14.1h5.6L319.8,64.1z"></path> <path class="st2" d="M334,55.2c0.2,3.6,1.9,5.2,5.1,5.2c2.3,0,4.1-1.4,4.5-2.7h5c-1.6,4.9-5,7-9.7,7c-6.5,0-10.6-4.5-10.6-10.9 c0-6.2,4.3-10.9,10.6-10.9c7,0,10.4,5.9,10,12.3C348.9,55.2,334,55.2,334,55.2z M343.2,51.6c-0.5-2.9-1.8-4.4-4.5-4.4 c-3.6,0-4.6,2.8-4.7,4.4H343.2z"></path> <path class="st2" d="M352.6,35.6h5.7v28.6h-5.7V35.6z"></path> <path class="st2" d="M368.8,40.2h-5.7v-4.7h5.7V40.2z M363.2,43.4h5.7v20.7h-5.7V43.4z"></path> <path class="st2" d="M373.5,43.4h5.4v2.9h0.1c1.4-2.3,3.9-3.4,6.3-3.4c6,0,7.6,3.4,7.6,8.5v12.7h-5.7V52.4c0-3.4-1-5.1-3.6-5.1 c-3.1,0-4.4,1.7-4.4,5.9v10.8h-5.7V43.4z"></path> <path class="st2" d="M417.3,62.8c0,3.4-1.2,9.2-10.7,9.2c-4.1,0-8.8-1.9-9.1-6.6h5.6c0.5,2.1,2.2,2.8,4.2,2.8 c3.2,0,4.6-2.2,4.6-5.1v-2.7h-0.1c-1.2,2.2-3.7,3.2-6.2,3.2c-6.2,0-8.8-4.7-8.8-10.4c0-5.4,3.1-10.2,8.9-10.2 c2.7,0,4.8,0.9,6.2,3.3h0.1v-2.8h5.4V62.8z M411.9,53.5c0-3.4-1.2-6.4-4.8-6.4c-3.2,0-4.6,2.8-4.6,5.9c0,3,1.1,6.2,4.6,6.2 C410.3,59.2,411.9,56.5,411.9,53.5z"></path> </g> <g> <path class="st2" d="M146.6,95.4c-0.1,5.9,4.1,7.7,9.3,7.7c3,0,7.6-1.6,7.6-5.8c0-3.2-3.2-4.5-5.9-5.2l-6.4-1.6 c-3.4-0.8-6.4-2.4-6.4-6.9c0-2.8,1.8-8,9.8-8c5.6,0,10.6,3,10.6,8.9h-2.7c-0.2-4.4-3.8-6.6-7.8-6.6c-3.7,0-7.2,1.4-7.2,5.7 c0,2.7,2,3.8,4.3,4.4l7,1.7c4,1.1,7.4,2.8,7.4,7.5c0,2-0.8,8.2-10.9,8.2c-6.8,0-11.7-3-11.4-10C143.8,95.4,146.6,95.4,146.6,95.4z"></path> <path class="st2" d="M186.9,104.8h-2.3v-3.7h-0.1c-1.3,2.8-4,4.3-7.1,4.3c-5.2,0-7.2-3-7.2-7.8V84.2h2.5v13.4 c0.1,3.7,1.5,5.7,5.5,5.7c4.3,0,6.2-4.1,6.2-8.3V84.2h2.5V104.8z"></path> <path class="st2" d="M191.9,84.2h2.3v3.9h0.1c1.2-2.8,4-4.5,7.4-4.5c6.3,0,9.3,5.1,9.3,10.9s-3,10.9-9.3,10.9 c-3.1,0-6.1-1.6-7.2-4.5h-0.1v11.6h-2.5V84.2z M201.6,85.7c-5.6,0-7.2,4.1-7.2,8.8c0,4.3,1.9,8.8,7.2,8.8c4.8,0,6.8-4.5,6.8-8.8 S206.4,85.7,201.6,85.7z"></path> <path class="st2" d="M216.5,95.2c0,3.7,2,8.1,6.8,8.1c3.7,0,5.7-2.2,6.5-5.3h2.5c-1.1,4.7-3.8,7.4-9,7.4c-6.6,0-9.3-5-9.3-10.9 c0-5.4,2.8-10.9,9.3-10.9c6.6,0,9.3,5.8,9.1,11.6C232.4,95.2,216.5,95.2,216.5,95.2z M229.9,93.1c-0.1-3.8-2.5-7.4-6.6-7.4 c-4.1,0-6.4,3.6-6.8,7.4H229.9z"></path> <path class="st2" d="M236,84.2h2.3V89h0.1c1.3-3.3,4.1-5.3,7.8-5.1v2.5c-4.6-0.2-7.7,3.1-7.7,7.4v11H236L236,84.2L236,84.2z"></path> <path class="st2" d="M248.8,84.2h2.3v3.5h0.1c1.3-2.5,3.5-4.1,6.8-4.1c2.7,0,5.2,1.3,5.9,4c1.2-2.7,3.8-4,6.6-4 c4.5,0,6.8,2.4,6.8,7.2v14h-2.5V90.9c0-3.4-1.3-5.2-4.9-5.2c-4.4,0-5.6,3.6-5.6,7.4v11.7h-2.5v-14c0-2.8-1.1-5.1-4.3-5.1 c-4.4,0-6.1,3.3-6.2,7.6v11.5h-2.5L248.8,84.2L248.8,84.2z"></path> <path class="st2" d="M282.1,90.5c0.2-4.8,3.6-6.9,8.4-6.9c3.6,0,7.6,1.1,7.6,6.6v11c0,1,0.5,1.5,1.5,1.5c0.3,0,0.6-0.1,0.8-0.2v2.1 c-0.6,0.1-1,0.2-1.6,0.2c-2.6,0-3-1.4-3-3.6h-0.1c-1.8,2.7-3.6,4.2-7.5,4.2c-3.8,0-6.9-1.9-6.9-6c0-5.8,5.6-6,11.1-6.6 c2.1-0.2,3.2-0.5,3.2-2.8c0-3.4-2.4-4.2-5.4-4.2c-3.1,0-5.4,1.4-5.5,4.8H282.1z M295.5,93.5L295.5,93.5c-0.4,0.6-1.5,0.8-2.2,0.9 c-4.3,0.8-9.6,0.7-9.6,4.8c0,2.5,2.2,4.1,4.6,4.1c3.8,0,7.2-2.4,7.2-6.5L295.5,93.5L295.5,93.5z"></path> <path class="st2" d="M303.3,84.2h2.3V89h0.1c1.3-3.3,4.1-5.3,7.8-5.1v2.5c-4.6-0.2-7.7,3.1-7.7,7.4v11h-2.5V84.2z"></path> <path class="st2" d="M316.1,76.3h2.5v17.9l11.4-10h3.4l-8.8,7.6l9.4,13h-3.2l-8.2-11.2l-4.1,3.4v7.8h-2.5V76.3z"></path> <path class="st2" d="M340.3,84.2h4.2v2.1h-4.2v13.9c0,1.6,0.2,2.6,2,2.7c0.7,0,1.4,0,2.2-0.1v2.2c-0.8,0-1.5,0.1-2.2,0.1 c-3.4,0-4.5-1.1-4.5-4.6V86.3h-3.6v-2.1h3.6V78h2.5V84.2z"></path> <path class="st2" d="M349.8,95.2c0,3.7,2,8.1,6.8,8.1c3.7,0,5.7-2.2,6.5-5.3h2.5c-1.1,4.7-3.8,7.4-9,7.4c-6.6,0-9.3-5-9.3-10.9 c0-5.4,2.8-10.9,9.3-10.9c6.6,0,9.3,5.8,9.1,11.6C365.7,95.2,349.8,95.2,349.8,95.2z M363.2,93.1c-0.1-3.8-2.5-7.4-6.6-7.4 c-4.1,0-6.4,3.6-6.8,7.4H363.2z"></path> <path class="st2" d="M369.2,84.2h2.5v3.6h0.1c0.9-2.5,3.7-4.2,6.6-4.2c5.8,0,7.6,3,7.6,8v13.3h-2.5V91.9c0-3.6-1.2-6.2-5.2-6.2 c-4,0-6.4,3-6.5,7.1v12h-2.5V84.2z"></path> </g> </svg> 