<?xml version="1.0" encoding="utf-8"?>
<!-- Generator: Adobe Illustrator 19.1.0, SVG Export Plug-In . SVG Version: 6.00 Build 0)  -->
<svg version="1.1" id="Laag_1" xmlns="http://www.w3.org/2000/svg" xmlns:xlink="http://www.w3.org/1999/xlink" x="0px" y="0px"
	 viewBox="-58 181.4 210.8 37.3" style="enable-background:new -58 181.4 210.8 37.3;" xml:space="preserve">
<style type="text/css">
	.st0{fill:#FFFFFF;}
	.st1{fill:#FFFFFF;stroke:#FFFFFF;stroke-width:0.5;stroke-miterlimit:10;}
	.st2{fill:none;stroke:#FFFFFF;stroke-width:0.552;stroke-miterlimit:10;}
</style>
<g>
	<path class="st0" d="M-48,210.4c-0.8,0-1.5-0.1-2-0.2c-0.5-0.1-1.1-0.2-1.6-0.3c-1.4-0.4-2.4-1-3.1-1.9s-1.2-1.8-1.6-2.9
		c-0.3-1.1-0.5-2.3-0.6-3.5c-0.1-1.2-0.1-2.5-0.1-3.7v-0.2c0-1.8,0.1-3.3,0.2-4.4c0.2-1.2,0.3-2.1,0.5-2.9c0.2-0.8,0.5-1.3,0.7-1.8
		c0.3-0.4,0.5-0.8,0.9-1.2c0.4-0.5,0.9-0.9,1.4-1.2c0.5-0.3,1.1-0.5,1.7-0.7s1.2-0.3,1.8-0.4s1.2-0.1,1.8-0.1c1.3,0,2.6,0.2,3.7,0.5
		c1.2,0.3,2.3,0.9,3,1.8c0.2,0.2,0.4,0.5,0.5,0.6c0.2,0.2,0.3,0.5,0.5,0.9c-0.5,0.1-0.8,0.1-1.1,0.2s-0.5,0.1-0.9,0.2
		c-0.3-0.5-0.6-0.9-1.1-1.2c-0.5-0.3-0.9-0.5-1.4-0.7c-0.5-0.2-1-0.3-1.6-0.3c-0.5-0.1-1.1-0.1-1.6-0.1c-0.5,0-1.1,0.1-1.6,0.1
		c-0.5,0.1-0.9,0.2-1.4,0.3c-0.5,0.2-0.9,0.3-1.2,0.5c-0.4,0.2-0.8,0.5-1.2,0.9c-0.2,0.2-0.4,0.4-0.5,0.7c-0.2,0.3-0.4,0.7-0.5,1.3
		c-0.2,0.6-0.3,1.5-0.5,2.6c-0.2,1.1-0.2,2.6-0.2,4.4v0.2c0,1.8,0.1,3.2,0.2,4.3c0.2,1.1,0.3,1.9,0.5,2.6s0.4,1.1,0.5,1.4
		c0.2,0.3,0.4,0.5,0.5,0.7c0.7,0.7,1.5,1.2,2.3,1.4c0.9,0.2,1.8,0.3,3,0.4c0.5,0,1.1-0.1,1.6-0.2c0.5-0.1,1.1-0.2,1.6-0.3
		c0.5-0.2,1-0.4,1.4-0.7c0.5-0.3,0.8-0.7,1.1-1.2c0.4,0.1,0.7,0.1,1,0.1s0.6,0.1,0.9,0.1c-0.5,0.9-1,1.6-1.8,2.1
		c-0.7,0.5-1.6,1-2.5,1.2c-0.5,0.2-1,0.2-1.6,0.3C-46.7,210.4-47.3,210.4-48,210.4z"/>
	<path class="st0" d="M-28.2,210.4c-1.3,0-2.6-0.2-3.7-0.5c-1.2-0.3-2.2-0.9-3-1.8c-0.3-0.3-0.6-0.7-0.9-1.2c-0.2-0.4-0.5-1-0.7-1.8
		c-0.2-0.8-0.4-1.7-0.5-2.9c-0.2-1.2-0.2-2.6-0.2-4.5v-0.2c0-1.8,0.1-3.3,0.2-4.4c0.2-1.2,0.3-2.1,0.5-2.9c0.2-0.8,0.5-1.3,0.7-1.8
		c0.2-0.5,0.5-0.9,0.9-1.2c0.8-0.9,1.8-1.5,3-1.8c1.2-0.3,2.4-0.5,3.7-0.5c1.3,0,2.6,0.2,3.7,0.5c1.2,0.3,2.2,0.9,3,1.9
		c0.3,0.3,0.6,0.7,0.9,1.2c0.2,0.4,0.5,1,0.7,1.7c0.2,0.7,0.4,1.7,0.5,2.8c0.2,1.2,0.2,2.6,0.2,4.4v0.2c0,1.8-0.1,3.3-0.2,4.5
		c-0.2,1.2-0.3,2.1-0.5,2.9s-0.4,1.3-0.7,1.8c-0.2,0.4-0.5,0.8-0.9,1.2c-0.4,0.5-0.9,0.8-1.4,1.1c-0.5,0.3-1.1,0.5-1.7,0.7
		c-0.6,0.2-1.2,0.3-1.8,0.4C-27,210.4-27.6,210.4-28.2,210.4z M-28.2,208.6c1.1,0,2-0.1,2.9-0.3c0.9-0.2,1.6-0.7,2.4-1.5
		c0.2-0.2,0.4-0.4,0.5-0.7c0.2-0.3,0.4-0.7,0.5-1.3c0.2-0.6,0.3-1.5,0.5-2.6c0.2-1.1,0.2-2.5,0.2-4.4v-0.2c0-1.8-0.1-3.2-0.2-4.3
		c-0.2-1.1-0.3-1.9-0.5-2.6c-0.2-0.6-0.4-1.1-0.5-1.4c-0.2-0.3-0.4-0.5-0.5-0.7c-0.8-0.7-1.6-1.2-2.5-1.4c-0.9-0.2-1.8-0.3-2.8-0.3
		s-1.9,0.1-2.8,0.3c-0.9,0.2-1.6,0.7-2.4,1.4c-0.2,0.2-0.4,0.4-0.5,0.7c-0.2,0.3-0.4,0.7-0.5,1.4c-0.2,0.6-0.3,1.5-0.5,2.6
		c-0.2,1.1-0.2,2.6-0.2,4.3v0.2c0,1.8,0.1,3.3,0.2,4.4c0.1,1.1,0.2,1.9,0.4,2.6c0.2,0.6,0.4,1.1,0.5,1.3c0.2,0.3,0.4,0.5,0.5,0.7
		c0.7,0.7,1.5,1.2,2.3,1.5C-30.2,208.5-29.3,208.6-28.2,208.6z"/>
	<path class="st0" d="M-15.5,210.1v-24.5H-4c2.4,0,4.1,0.7,5.3,2c1.2,1.3,1.7,3.1,1.7,5.3c0,1.3-0.2,2.3-0.5,3.2
		c-0.4,0.9-0.9,1.6-1.6,2.1s-1.6,0.9-2.5,1.2c-0.9,0.2-2,0.3-3.3,0.3c0.6,0.8,1.2,1.6,1.9,2.4c0.6,0.9,1.3,1.8,2,2.6
		c0.7,0.9,1.3,1.8,2,2.7c0.7,0.9,1.3,1.8,1.9,2.6H0.3l-7.8-10.4h-6.2v10.4H-15.5L-15.5,210.1z M-13.5,187.5v10.3H-4
		c0.7,0,1.4-0.1,2-0.2s1.2-0.4,1.6-0.8s0.9-0.9,1.2-1.6c0.3-0.7,0.4-1.6,0.4-2.6s-0.2-1.8-0.4-2.5c-0.2-0.6-0.6-1.2-1.1-1.6
		s-1-0.6-1.6-0.8s-1.3-0.2-2.1-0.3H-13.5z"/>
	<path class="st0" d="M18.1,185.6c2.2,0,4,0.6,5.2,1.9c1.2,1.2,1.9,3,1.9,5.2c0,2.3-0.6,4.1-1.8,5.4s-3,1.9-5.3,1.9H8.6v10H6.7
		v-24.5H18.1L18.1,185.6z M8.6,187.5v10.7h9.6c1.8,0,3.1-0.5,4-1.4s1.2-2.3,1.2-3.9c0-1.7-0.5-3-1.3-3.9c-0.9-0.9-2.2-1.3-3.9-1.4
		L8.6,187.5L8.6,187.5z"/>
	<path class="st0" d="M37.6,210.4c-1.3,0-2.6-0.2-3.7-0.5c-1.2-0.3-2.2-0.9-3-1.8c-0.3-0.3-0.6-0.7-0.9-1.2c-0.2-0.4-0.5-1-0.7-1.8
		c-0.2-0.8-0.4-1.7-0.5-2.9c-0.2-1.2-0.2-2.6-0.2-4.5v-0.2c0-1.8,0.1-3.3,0.2-4.4c0.2-1.2,0.3-2.1,0.5-2.9c0.2-0.8,0.5-1.3,0.7-1.8
		c0.2-0.5,0.5-0.9,0.9-1.2c0.8-0.9,1.8-1.5,3-1.8c1.2-0.3,2.4-0.5,3.7-0.5s2.6,0.2,3.7,0.5c1.2,0.3,2.2,0.9,3,1.9
		c0.3,0.3,0.6,0.7,0.9,1.2c0.2,0.4,0.5,1,0.7,1.7c0.2,0.7,0.4,1.7,0.5,2.8c0.2,1.2,0.2,2.6,0.2,4.4v0.2c0,1.8-0.1,3.3-0.2,4.5
		c-0.2,1.2-0.3,2.1-0.5,2.9c-0.2,0.8-0.4,1.3-0.7,1.8c-0.2,0.4-0.5,0.8-0.9,1.2c-0.4,0.5-0.9,0.8-1.4,1.1c-0.5,0.3-1.1,0.5-1.7,0.7
		c-0.6,0.2-1.2,0.3-1.8,0.4C38.7,210.4,38.1,210.4,37.6,210.4z M37.6,208.6c1.1,0,2-0.1,2.9-0.3c0.9-0.2,1.6-0.7,2.4-1.5
		c0.2-0.2,0.4-0.4,0.5-0.7c0.2-0.3,0.4-0.7,0.5-1.3c0.2-0.6,0.3-1.5,0.5-2.6c0.2-1.1,0.2-2.5,0.2-4.4v-0.2c0-1.8-0.1-3.2-0.2-4.3
		c-0.2-1.1-0.3-1.9-0.5-2.6c-0.2-0.6-0.4-1.1-0.5-1.4c-0.2-0.3-0.4-0.5-0.5-0.7c-0.8-0.7-1.6-1.2-2.5-1.4c-0.9-0.2-1.8-0.3-2.8-0.3
		s-1.9,0.1-2.8,0.3c-0.9,0.2-1.6,0.7-2.4,1.4c-0.2,0.2-0.4,0.4-0.5,0.7c-0.2,0.3-0.4,0.7-0.5,1.4c-0.2,0.6-0.3,1.5-0.5,2.6
		c-0.2,1.1-0.2,2.6-0.2,4.3v0.2c0,1.8,0.1,3.3,0.2,4.4c0.1,1.1,0.2,1.9,0.4,2.6c0.2,0.6,0.4,1.1,0.5,1.3c0.2,0.3,0.4,0.5,0.5,0.7
		c0.7,0.7,1.5,1.2,2.3,1.5C35.5,208.5,36.5,208.6,37.6,208.6z"/>
</g>
<path class="st1" d="M51.6,210.1v-17h7.5c0.7,0,1.3,0.1,1.9,0.3c0.6,0.2,1.1,0.5,1.6,0.9c0.5,0.4,0.8,0.9,1,1.4s0.4,1.2,0.4,1.8
	c0,0.3,0,0.7-0.1,1.1s-0.2,0.7-0.4,1.1c-0.2,0.3-0.4,0.6-0.7,0.9c-0.3,0.3-0.6,0.5-1.1,0.7c0.9,0.5,1.6,1.1,2,1.9s0.6,1.6,0.6,2.6
	c0,0.8-0.2,1.5-0.4,2s-0.6,1-1.1,1.4s-1,0.6-1.6,0.8c-0.6,0.2-1.3,0.2-2.1,0.2L51.6,210.1L51.6,210.1z M59,200.8
	c0.5,0,1-0.1,1.5-0.2c0.5-0.2,0.9-0.3,1.2-0.5c0.3-0.2,0.5-0.6,0.8-1c0.2-0.4,0.3-0.9,0.3-1.6c0-0.5-0.1-1.1-0.3-1.5
	c-0.2-0.4-0.5-0.7-0.8-0.9c-0.3-0.2-0.7-0.4-1.2-0.5c-0.5-0.1-0.9-0.2-1.3-0.2H53v6.4L59,200.8L59,200.8z M59.1,208.7
	c0.5,0,1,0,1.5-0.1c0.5-0.1,0.9-0.2,1.2-0.4c0.4-0.2,0.6-0.5,0.9-0.9s0.3-1,0.3-1.8c0-1.2-0.4-2.1-1.1-2.6c-0.8-0.5-1.7-0.9-2.8-0.9
	h-6.2v6.7H59.1z"/>
<path class="st1" d="M73.5,210.4c0,0-1.8-0.2-2.6-0.4c-0.9-0.2-1.5-0.6-2-1.2c-0.2-0.2-0.4-0.5-0.6-0.8c-0.2-0.3-0.3-0.7-0.5-1.2
	c-0.2-0.5-0.2-1.2-0.3-2c-0.1-0.8-0.2-1.9-0.2-3.1v-0.2c0-1.2,0.1-2.3,0.2-3c0.1-0.8,0.2-1.5,0.3-2c0.2-0.5,0.3-0.9,0.5-1.2
	c0.2-0.3,0.4-0.5,0.5-0.8c0.5-0.6,1.2-1,2-1.2c0.8-0.2,1.7-0.4,2.6-0.4c0.9,0,1.8,0.1,2.6,0.3c0.9,0.2,1.6,0.6,2.1,1.2
	c0.2,0.2,0.4,0.5,0.6,0.8c0.2,0.3,0.3,0.7,0.5,1.2c0.2,0.5,0.2,1.2,0.3,1.9c0.1,0.8,0.2,1.9,0.2,3.1v0.2c0,1.2-0.1,2.3-0.2,3.1
	c-0.1,0.8-0.2,1.5-0.3,2c-0.2,0.5-0.3,0.9-0.5,1.2c-0.2,0.3-0.4,0.5-0.6,0.8c-0.3,0.3-0.6,0.5-1,0.8S73.5,210.4,73.5,210.4z
	 M73.5,209.1c0.8,0,1.4-0.1,2-0.2c0.5-0.2,1.2-0.5,1.6-1c0.2-0.2,0.2-0.3,0.4-0.5s0.2-0.5,0.4-0.9c0.2-0.5,0.2-1,0.3-1.8
	s0.2-1.7,0.2-3v-0.2c0-1.2-0.1-2.3-0.2-3c-0.1-0.8-0.2-1.3-0.3-1.8c-0.2-0.5-0.2-0.8-0.4-0.9s-0.2-0.3-0.4-0.5
	c-0.5-0.5-1.1-0.9-1.7-1s-1.2-0.2-1.9-0.2c-0.7,0-1.3,0.1-1.9,0.2c-0.6,0.2-1.2,0.5-1.6,1c-0.2,0.2-0.2,0.3-0.4,0.5
	c-0.2,0.2-0.2,0.5-0.4,0.9c-0.2,0.5-0.2,1-0.3,1.8s-0.2,1.8-0.2,3v0.2c0,1.2,0,2.3,0.1,3s0.2,1.3,0.3,1.8c0.2,0.5,0.2,0.8,0.4,0.9
	c0.2,0.2,0.3,0.4,0.4,0.5c0.5,0.5,1.1,0.9,1.6,1C72.1,209,72.7,209.1,73.5,209.1z"/>
<path class="st1" d="M90,201.5h5.3v0.1c0,0.9,0,1.9-0.1,2.7c-0.1,0.9-0.2,1.7-0.5,2.5c-0.2,0.8-0.6,1.4-1.1,1.9
	c-0.5,0.5-1.2,0.9-2.1,1.2c-0.6,0.2-1.5,0.3-2.4,0.3c-0.5,0-1-0.1-1.3-0.1c-0.4-0.1-0.7-0.2-1.1-0.2c-0.9-0.2-1.6-0.7-2.2-1.3
	c-0.5-0.6-0.9-1.3-1.1-2.1c-0.2-0.8-0.4-1.6-0.4-2.5c-0.1-0.9-0.1-1.7-0.1-2.6v-0.2c0-1.2,0-2.3,0.1-3.1c0.1-0.8,0.2-1.5,0.3-1.9
	c0.2-0.5,0.3-0.9,0.5-1.2c0.2-0.3,0.4-0.5,0.6-0.8c0.6-0.6,1.3-1.1,2.2-1.2c0.9-0.2,1.6-0.3,2.5-0.3c0.9,0,1.8,0.2,2.6,0.4
	c0.9,0.2,1.6,0.6,2.1,1.2c0.2,0.2,0.5,0.6,0.7,1c-0.2,0-0.3,0-0.5,0.1c-0.2,0-0.2,0-0.3,0c-0.1,0-0.2,0-0.3,0c-0.1,0-0.2,0-0.4,0.1
	c-0.1-0.2-0.2-0.2-0.3-0.4c-0.5-0.5-1.1-0.9-1.6-1c-0.5-0.2-1.2-0.2-2-0.3c-0.8,0-1.4,0.2-2,0.3c-0.5,0.2-1.1,0.5-1.6,0.9
	c-0.2,0.2-0.2,0.3-0.4,0.5c-0.2,0.2-0.2,0.5-0.4,0.9c-0.2,0.5-0.2,1-0.3,1.8s-0.1,1.8-0.1,3v0.2c0,1.2,0,2.3,0.1,3
	c0.1,0.8,0.2,1.4,0.3,1.8c0.2,0.5,0.2,0.8,0.4,1c0.2,0.2,0.2,0.4,0.4,0.5c0.5,0.5,1,0.9,1.6,1c0.5,0.2,1.2,0.2,1.9,0.2
	c0.8,0,1.4-0.1,1.9-0.2c0.5-0.2,1.1-0.5,1.6-1c0.2-0.2,0.2-0.3,0.4-0.5s0.3-0.5,0.4-0.9s0.2-0.9,0.3-1.5c0.1-0.6,0.1-1.3,0.1-2.2
	h-3.9v-1L90,201.5L90,201.5z"/>
<path class="st2" d="M101.2,187.3l1.8,1.8l-1.8,1.8 M105,189.1c0,1.7-1.4,3.1-3.1,3.1c-1.7,0-3.1-1.4-3.1-3.1s1.4-3.1,3.1-3.1
	C103.6,186,105,187.4,105,189.1z"/>
</svg>
