<?xml version="1.0" encoding="UTF-8"?>
<svg xmlns="http://www.w3.org/2000/svg" version="1.1" viewBox="0 0 92.1 92">
  <defs>
    <style>
      .cls-1 {
        fill: #1e1e1c;
        fill-rule: evenodd;
      }

      .cls-2 {
        fill: #ef7e22;
      }

      .cls-3 {
        fill: #fff;
      }
    </style>
  </defs>
  <!-- Generator: Adobe Illustrator 28.6.0, SVG Export Plug-In . SVG Version: 1.2.0 Build 709)  -->
  <g>
    <g id="Layer_1">
      <rect class="cls-2" x="1.4" y="1.4" width="89.2" height="89.2" rx="24.1" ry="24.1"/>
      <path class="cls-3" d="M66.5,2.8c12.5,0,22.7,10.2,22.7,22.7v40.9c0,12.5-10.2,22.7-22.7,22.7H25.6c-12.5,0-22.7-10.2-22.7-22.7V25.6c0-12.5,10.2-22.7,22.7-22.7h40.9M66.5,0H25.6C11.5,0,0,11.5,0,25.6v40.9c0,14.1,11.5,25.5,25.6,25.6h40.9c14.1,0,25.6-11.4,25.6-25.6V25.6c0-14.1-11.5-25.6-25.6-25.6Z"/>
      <path class="cls-1" d="M71.6,76.6v-31l-9.6-30.9-7.8,26.6c-2.6-4.6-8.5-6.1-13.1-3.5-1.5.8-2.7,2.1-3.5,3.5l-8.1-26.7-9.1,31.2v30.8h19v-9.2c0-3.6,3-6.6,6.6-6.6h0c3.7,0,6.6,3,6.6,6.6h0v9.2h19Z"/>
      <path class="cls-3" d="M72.8,77.8h-21.3v-10.4c0-3-2.4-5.4-5.4-5.4-3,0-5.4,2.4-5.4,5.4h0v10.4h-21.4v-32.1L29.5,10.5l8.6,28.3c4.1-4.3,10.9-4.5,15.2-.4.1.1.3.2.4.4l8.3-28.2,10.8,34.9v32.4ZM21.6,46v29.4h16.6v-8c0-4.3,3.5-7.8,7.8-7.8h0c4.3,0,7.8,3.5,7.8,7.8v8h16.6v-29.7l-8.4-27-7.5,25.5-1.4-2.4c-1.5-2.6-4.2-4.1-7.2-4.1-3,0-5.7,1.6-7.2,4.2l-1.4,2.4-7.8-25.5-7.9,27.2Z"/>
    </g>
  </g>
</svg>