<?xml version="1.0" encoding="UTF-8"?>
<svg id="Laag_1" xmlns="http://www.w3.org/2000/svg" version="1.1" viewBox="0 0 600 150">
  <!-- Generator: Adobe Illustrator 29.7.0, SVG Export Plug-In . SVG Version: 2.1.1 Build 138)  -->
  <defs>
    <style>
      .st0 {
        fill: #0e2036;
      }
    </style>
  </defs>
  <g>
    <g>
      <path class="st0" d="M176.9,78.5l-13.4-36.7h7.5l10.2,29.4,10.2-29.4h7.5l-13.4,36.7h-8.7Z"/>
      <path class="st0" d="M201.6,78.5l13.4-36.7h8l13.4,36.7h-7.5l-9.9-28.6-10,28.6h-7.4ZM207.5,70.2l1.9-5.5h18.7l1.8,5.5h-22.4Z"/>
      <path class="st0" d="M246.4,78.5v-36.7h7.1l16.9,25.3v-25.3h7.1v36.7h-7.1l-16.9-25.3v25.3h-7.1Z"/>
      <path class="st0" d="M308.2,78.5v-36.7h7.1v31.2h16.1v5.5h-23.2Z"/>
      <path class="st0" d="M342.7,78.5v-36.7h24.1v5.7h-17v9.6h15.5v5.5h-15.5v10.2h17v5.7h-24.1Z"/>
      <path class="st0" d="M378.4,78.5v-36.7h7.1v31.2h16.1v5.5h-23.2Z"/>
      <path class="st0" d="M417.2,78.5v-12.9l-12.4-23.8h8l8.6,18.1h-1.4l8.6-18.1h8l-12.4,23.8v12.9h-7.1Z"/>
      <path class="st0" d="M456.7,78.5l-13.4-36.7h7.5l10.2,29.4,10.2-29.4h7.5l-13.4,36.7h-8.7Z"/>
      <path class="st0" d="M488.4,78.5v-36.7h24.1v5.7h-17v9.6h15.5v5.5h-15.5v10.2h17v5.7h-24.1Z"/>
      <path class="st0" d="M524.2,78.5v-36.7h7.1v31.2h16.1v5.5h-23.2Z"/>
      <path class="st0" d="M558.7,78.5v-36.7h12.3c4.3,0,7.8.8,10.6,2.3,2.8,1.5,4.8,3.7,6.2,6.4,1.3,2.7,2,6,2,9.7s-.7,6.9-2,9.7c-1.3,2.7-3.4,4.9-6.2,6.4-2.8,1.5-6.3,2.3-10.6,2.3h-12.3ZM565.7,72.4h4.8c3,0,5.4-.5,7.1-1.5,1.7-1,3-2.4,3.7-4.2.7-1.8,1.1-4,1.1-6.6s-.4-4.8-1.1-6.6c-.7-1.8-2-3.2-3.7-4.2-1.7-1-4.1-1.5-7.1-1.5h-4.8v24.6Z"/>
    </g>
    <g>
      <path class="st0" d="M166.4,134.3v-36.7h8.4l11.2,22.9,11.1-22.9h8.4v36.7h-7.1v-24.6l-9.7,19.5h-5.6l-9.7-19.5v24.6h-7.1Z"/>
      <path class="st0" d="M216.9,134.3l13.4-36.7h8l13.4,36.7h-7.5l-9.9-28.6-10,28.6h-7.4ZM222.8,126l1.9-5.5h18.7l1.8,5.5h-22.4Z"/>
      <path class="st0" d="M263,134.3v-36.7h7.1v14.5l13.3-14.5h8.7l-13.5,14.5,13.9,22.2h-8.6l-10.3-16.7-3.4,3.7v13h-7.1Z"/>
      <path class="st0" d="M303.8,134.3v-36.7h24.1v5.7h-17v9.6h15.5v5.5h-15.5v10.2h17v5.7h-24.1Z"/>
      <path class="st0" d="M340.9,134.3v-36.7h7.1v31.2h16.1v5.5h-23.2Z"/>
      <path class="st0" d="M374.2,134.3l13.4-36.7h8l13.4,36.7h-7.5l-9.9-28.6-10,28.6h-7.4ZM380.1,126l1.9-5.5h18.7l1.8,5.5h-22.4Z"/>
      <path class="st0" d="M417.9,134.3l13.4-36.7h8l13.4,36.7h-7.5l-9.9-28.6-10,28.6h-7.4ZM423.8,126l1.9-5.5h18.7l1.8,5.5h-22.4Z"/>
      <path class="st0" d="M464,134.3v-36.7h13.7c3,0,5.4.5,7.3,1.5,1.9,1,3.4,2.4,4.3,4.1.9,1.7,1.4,3.6,1.4,5.6s-.5,3.8-1.4,5.5c-.9,1.7-2.3,3.1-4.3,4.1-1.9,1-4.4,1.5-7.5,1.5h-6.5v14.4h-7.1ZM471.1,114.8h6.2c2.1,0,3.7-.5,4.7-1.6,1-1,1.5-2.4,1.5-4.1s-.5-3.1-1.5-4.1c-1-1-2.6-1.5-4.7-1.5h-6.2v11.3ZM483,134.3l-7.5-16.1h7.6l8,16.1h-8.1Z"/>
      <path class="st0" d="M503.6,134.3v-36.7h12.3c4.3,0,7.8.8,10.6,2.3,2.8,1.5,4.8,3.7,6.2,6.4,1.3,2.7,2,6,2,9.7s-.7,6.9-2,9.7c-1.3,2.7-3.4,4.9-6.2,6.4-2.8,1.5-6.3,2.3-10.6,2.3h-12.3ZM510.7,128.2h4.8c3,0,5.4-.5,7.1-1.5,1.7-1,3-2.4,3.7-4.2s1.1-4,1.1-6.6-.4-4.8-1.1-6.6c-.7-1.8-2-3.2-3.7-4.2-1.7-1-4.1-1.5-7.1-1.5h-4.8v24.6Z"/>
      <path class="st0" d="M547.2,134.3v-36.7h7.1v36.7h-7.1Z"/>
      <path class="st0" d="M577.8,135c-2.4,0-4.5-.5-6.3-1.4-1.8-.9-3.2-2.2-4.2-4-1-1.8-1.5-3.9-1.5-6.4h7.1c0,1.1.2,2.1.5,2.9.3.8.8,1.4,1.5,1.9.7.4,1.6.7,2.6.7s1.9-.2,2.5-.6c.6-.4,1.1-1,1.4-1.7.3-.8.4-1.6.4-2.7v-25.9h7.1v25.9c0,3.7-1,6.5-3.1,8.4s-4.8,2.9-8.3,2.9Z"/>
    </g>
  </g>
  <polygon class="st0" points="75.6 15 48.6 42.1 48.6 42.1 10.3 80.4 10.3 134.3 48.6 134.3 48.6 42.1 86.8 80.4 86.8 134.3 125.1 134.3 125.1 64.5 75.6 15"/>
</svg>