<?xml version="1.0" encoding="UTF-8"?>
<svg width="106px" height="136px" viewBox="0 0 106 136" version="1.1" xmlns="http://www.w3.org/2000/svg" xmlns:xlink="http://www.w3.org/1999/xlink">
    <!-- Generator: Sketch 52.6 (67491) - http://www.bohemiancoding.com/sketch -->
    <title>Houwen_logo</title>
    <desc>Created with Sketch.</desc>
    <defs>
        <polygon id="path-1" points="0 136 105.257 136 105.257 0.643 0 0.643"></polygon>
        <polygon id="path-3" points="0 136 105.257 136 105.257 0.643 0 0.643"></polygon>
        <polygon id="path-5" points="0 136 105.257 136 105.257 0.643 0 0.643"></polygon>
        <polygon id="path-7" points="0 136 105.257 136 105.257 0.643 0 0.643"></polygon>
    </defs>
    <g id="Page-1" stroke="none" stroke-width="1" fill="none" fill-rule="evenodd">
        <g id="Houwen_logo" transform="translate(0.000000, -1.000000)">
            <polygon id="Fill-1" fill="#B2374A" points="11.6694 114.3907 11.6694 114.9987 85.1134 114.9987 93.6824 114.9987 93.6824 114.3907"></polygon>
            <polygon id="Fill-2" fill="#939597" points="16.1793 120.713 16.2623 119.86 16.2213 119.86 15.9023 120.64 14.3773 123.206 14.1673 123.206 12.5503 120.632 12.2473 119.86 12.2063 119.86 12.3233 120.704 12.3233 124.529 11.6693 124.529 11.6693 118.846 12.1893 118.846 14.0253 121.752 14.3013 122.386 14.3183 122.386 14.5783 121.736 16.3303 118.846 16.8743 118.846 16.8743 124.529 16.1793 124.529"></polygon>
            <path d="M24.1075,122.3692 L25.8255,122.3692 L25.1745,120.6402 L24.9665,119.7792 L24.9585,119.7792 L24.7495,120.6562 L24.1075,122.3692 Z M26.0345,122.9542 L23.8825,122.9542 L23.2985,124.5292 L22.6025,124.5292 L24.8235,118.7562 L25.1425,118.7562 L27.3725,124.5292 L26.6345,124.5292 L26.0345,122.9542 Z" id="Fill-3" fill="#939597" fill-rule="nonzero"></path>
            <polygon id="Fill-4" fill="#939597" points="34.2379 121.8985 33.8439 121.8985 33.8439 124.5295 33.1489 124.5295 33.1489 118.8455 33.8439 118.8455 33.8439 121.4925 34.2209 121.3785 36.1919 118.8455 36.9959 118.8455 35.0349 121.2905 34.6819 121.5565 35.1099 121.8825 37.2559 124.5295 36.3759 124.5295"></polygon>
            <polygon id="Fill-5" fill="#939597" points="43.0811 118.8458 46.2751 118.8458 46.2751 119.4468 43.7771 119.4468 43.7771 121.3058 46.0651 121.3058 46.0651 121.9078 43.7771 121.9078 43.7771 123.9288 46.3171 123.9288 46.3171 124.5298 43.0811 124.5298"></polygon>
            <polygon id="Fill-6" fill="#939597" points="55.8648 124.5294 52.3948 124.5294 52.3948 118.8454 53.0898 118.8454 53.0898 123.9284 55.8648 123.9284"></polygon>
            <path d="M61.7789,122.3692 L63.4969,122.3692 L62.8459,120.6402 L62.6379,119.7792 L62.6299,119.7792 L62.4209,120.6562 L61.7789,122.3692 Z M63.7059,122.9542 L61.5529,122.9542 L60.9689,124.5292 L60.2739,124.5292 L62.4949,118.7562 L62.8139,118.7562 L65.0439,124.5292 L64.3049,124.5292 L63.7059,122.9542 Z" id="Fill-7" fill="#939597" fill-rule="nonzero"></path>
            <path d="M71.5025,122.3692 L73.2205,122.3692 L72.5695,120.6402 L72.3615,119.7792 L72.3535,119.7792 L72.1445,120.6562 L71.5025,122.3692 Z M73.4295,122.9542 L71.2765,122.9542 L70.6925,124.5292 L69.9975,124.5292 L72.2185,118.7562 L72.5375,118.7562 L74.7675,124.5292 L74.0285,124.5292 L73.4295,122.9542 Z" id="Fill-8" fill="#939597" fill-rule="nonzero"></path>
            <g id="Group-32" transform="translate(0.000000, 0.357000)">
                <path d="M82.0523,119.0073 L81.8253,119.0073 C81.7473,119.0073 81.6713,119.0113 81.6003,119.0163 C81.5273,119.0223 81.4583,119.0273 81.3943,119.0323 C81.3293,119.0373 81.2783,119.0463 81.2393,119.0573 L81.2393,121.1523 L81.8933,121.1523 C82.2783,121.1523 82.5973,121.0593 82.8493,120.8753 C83.1003,120.6923 83.2263,120.4043 83.2263,120.0153 C83.2263,119.7233 83.1213,119.4823 82.9153,119.2923 C82.7093,119.1023 82.4213,119.0073 82.0523,119.0073 Z M80.5433,118.5453 C80.7553,118.5073 80.9993,118.4783 81.2773,118.4553 C81.5533,118.4353 81.8063,118.4233 82.0353,118.4233 C82.2923,118.4233 82.5363,118.4503 82.7693,118.5053 C83.0003,118.5593 83.2043,118.6483 83.3813,118.7723 C83.5573,118.8973 83.6983,119.0593 83.8043,119.2593 C83.9093,119.4593 83.9633,119.7033 83.9633,119.9903 C83.9633,120.4343 83.8383,120.7943 83.5863,121.0703 C83.3343,121.3463 83.0163,121.5303 82.6303,121.6223 L83.0323,121.9223 L84.4903,124.1723 L83.6783,124.1723 L82.0613,121.7203 L81.2393,121.5983 L81.2393,124.1723 L80.5433,124.1723 L80.5433,118.5453 Z" id="Fill-9" fill="#939597" fill-rule="nonzero"></path>
                <path d="M92.9879,122.7271 C92.9879,122.4991 92.9179,122.3141 92.7779,122.1701 C92.6379,122.0281 92.4639,121.9001 92.2549,121.7901 C92.0449,121.6781 91.8169,121.5741 91.5709,121.4761 C91.3249,121.3791 91.0969,121.2611 90.8869,121.1231 C90.6779,120.9851 90.5039,120.8151 90.3639,120.6121 C90.2239,120.4091 90.1539,120.1511 90.1539,119.8361 C90.1539,119.3931 90.3139,119.0401 90.6329,118.7811 C90.9509,118.5211 91.4029,118.3911 91.9899,118.3911 C92.3309,118.3911 92.6409,118.4151 92.9209,118.4641 C93.1999,118.5131 93.4179,118.5761 93.5749,118.6511 L93.3649,119.2511 C93.2359,119.1901 93.0479,119.1311 92.7989,119.0761 C92.5509,119.0201 92.2699,118.9921 91.9569,118.9921 C91.5889,118.9921 91.3109,119.0721 91.1269,119.2321 C90.9419,119.3911 90.8499,119.5801 90.8499,119.7951 C90.8499,120.0061 90.9209,120.1831 91.0599,120.3241 C91.1989,120.4641 91.3739,120.5901 91.5839,120.7021 C91.7939,120.8121 92.0199,120.9211 92.2659,121.0301 C92.5119,121.1381 92.7409,121.2641 92.9499,121.4081 C93.1589,121.5511 93.3349,121.7231 93.4739,121.9221 C93.6139,122.1231 93.6829,122.3731 93.6829,122.6691 C93.6829,122.9141 93.6379,123.1331 93.5499,123.3281 C93.4599,123.5231 93.3289,123.6911 93.1549,123.8311 C92.9819,123.9721 92.7719,124.0801 92.5269,124.1561 C92.2809,124.2321 92.0009,124.2701 91.6889,124.2701 C91.2689,124.2701 90.9229,124.2391 90.6489,124.1761 C90.3749,124.1151 90.1629,124.0441 90.0119,123.9691 L90.2469,123.3691 C90.3749,123.4371 90.5649,123.5041 90.8159,123.5701 C91.0679,123.6361 91.3499,123.6681 91.6639,123.6681 C91.8469,123.6681 92.0199,123.6521 92.1829,123.6171 C92.3449,123.5811 92.4849,123.5241 92.6019,123.4461 C92.7189,123.3671 92.8129,123.2681 92.8829,123.1491 C92.9529,123.0311 92.9879,122.8901 92.9879,122.7271" id="Fill-11" fill="#939597"></path>
                <polygon id="Fill-13" fill="#233449" points="20.4459 104.3228 13.4079 104.3228 13.4079 110.1048 11.6699 110.1048 11.6699 97.4968 13.4079 97.4968 13.4079 102.9908 20.4459 102.9908 20.4459 97.4968 22.1849 97.4968 22.1849 110.1048 20.4459 110.1048"></polygon>
                <path d="M27.0768,103.8003 C27.0768,104.4973 27.1568,105.1573 27.3178,105.7813 C27.4778,106.4063 27.7258,106.9553 28.0608,107.4303 C28.3958,107.9043 28.8258,108.2823 29.3488,108.5653 C29.8728,108.8473 30.4908,108.9873 31.2028,108.9873 C32.5018,108.9873 33.5208,108.5653 34.2618,107.7183 C35.0008,106.8713 35.3718,105.5663 35.3718,103.8003 C35.3718,103.1163 35.2908,102.4593 35.1308,101.8283 C34.9698,101.1973 34.7188,100.6463 34.3768,100.1713 C34.0348,99.6963 33.6008,99.3193 33.0778,99.0363 C32.5548,98.7543 31.9298,98.6133 31.2028,98.6133 C29.9188,98.6133 28.9098,99.0363 28.1768,99.8833 C27.4438,100.7293 27.0768,102.0353 27.0768,103.8003 M25.2338,103.8003 C25.2338,101.6993 25.7498,100.0873 26.7838,98.9643 C27.8168,97.8423 29.2898,97.2803 31.2028,97.2803 C32.2368,97.2803 33.1298,97.4373 33.8848,97.7493 C34.6388,98.0613 35.2638,98.5023 35.7588,99.0723 C36.2548,99.6433 36.6208,100.3273 36.8588,101.1253 C37.0958,101.9243 37.2148,102.8173 37.2148,103.8003 C37.2148,105.9023 36.6948,107.5143 35.6548,108.6363 C34.6138,109.7603 33.1298,110.3213 31.2028,110.3213 C30.1838,110.3213 29.3008,110.1643 28.5538,109.8533 C27.8068,109.5403 27.1848,109.0993 26.6898,108.5293 C26.1938,107.9593 25.8268,107.2743 25.5898,106.4753 C25.3518,105.6763 25.2338,104.7853 25.2338,103.8003" id="Fill-15" fill="#233449" fill-rule="nonzero"></path>
                <path d="M48.589,97.4966 L50.265,97.4966 L50.265,105.9076 C50.265,106.6646 50.15,107.3186 49.919,107.8716 C49.689,108.4246 49.36,108.8776 48.934,109.2306 C48.508,109.5856 47.995,109.8466 47.395,110.0156 C46.794,110.1826 46.131,110.2676 45.405,110.2676 C43.673,110.2676 42.368,109.9316 41.488,109.2586 C40.608,108.5866 40.169,107.5646 40.169,106.1966 L40.169,97.4966 L41.907,97.4966 L41.907,105.4936 C41.907,106.1306 41.98,106.6676 42.127,107.1056 C42.274,107.5446 42.494,107.8986 42.787,108.1686 C43.08,108.4386 43.446,108.6346 43.887,108.7536 C44.326,108.8736 44.839,108.9346 45.426,108.9346 C46.557,108.9346 47.367,108.6666 47.856,108.1326 C48.344,107.5986 48.589,106.7196 48.589,105.4936 L48.589,97.4966 Z" id="Fill-17" fill="#233449"></path>
                <polygon id="Fill-19" fill="#233449" points="57.5318 105.9439 57.8668 108.0339 57.8878 108.0339 58.2438 105.9079 61.2608 97.4969 62.0978 97.4969 65.1358 105.9439 65.4998 108.0339 65.5208 108.0339 65.9068 105.9079 68.3828 97.4969 70.0578 97.4969 65.9738 110.3019 65.0098 110.3019 62.0348 101.8549 61.6588 99.9469 61.5528 99.9469 61.1768 101.8739 58.2018 110.3019 57.2388 110.3019 53.0498 97.4969 54.8928 97.4969"></polygon>
                <polygon id="Fill-21" fill="#233449" points="72.1822 97.4966 80.1632 97.4966 80.1632 98.8296 73.9212 98.8296 73.9212 102.9546 79.6392 102.9546 79.6392 104.2866 73.9212 104.2866 73.9212 108.7716 80.2682 108.7716 80.2682 110.1046 72.1822 110.1046"></polygon>
                <polygon id="Fill-23" fill="#233449" points="85.7867 101.855 84.6557 100.037 84.5707 100.037 84.7817 101.855 84.7817 110.105 83.1467 110.105 83.1467 97.298 84.0687 97.298 91.0867 105.71 92.1757 107.439 92.2797 107.439 92.0497 105.71 92.0497 97.497 93.6827 97.497 93.6827 110.302 92.7617 110.302"></polygon>
                <path d="M33.6841981,26.4272327 L52.3081589,40.9000824 L73.6135478,24.741839 L79.1122348,24.741839 L79.1122348,79.7250145 L73.6135478,79.7250145 L73.6133718,31.5793047 L52.2902123,47.6307484 L33.6841981,33.5685584 L33.6841981,26.4272327 Z M31.6780535,31.6468682 L31.6780535,79.7088275 C29.0131644,79.7088275 15.1290324,79.7179767 11.5103361,79.7051326 C11.5103361,79.6340501 11.5103361,92.5312969 11.5103361,92.6477736 L93.5203361,92.6477736 C93.5111869,92.6386244 93.5203361,12.0319755 93.5203361,12.0319755 C93.4925365,12.0319755 11.5434141,12.0847595 11.5103361,12.0872228 L11.5103361,74.2516638 C14.8158472,74.2516638 23.0290404,74.2516638 26.1793665,74.2516638 L26.2055825,24.748525 L31.6780535,24.748525 L31.6780535,31.6468682 Z" id="Fill-23" fill="#233449"></path>
                <g id="Fill-27-Clipped">
                    <mask id="mask-2" fill="white">
                        <use xlink:href="#path-1"></use>
                    </mask>
                    <g id="path-1"></g>
                    <polygon id="Fill-27" fill="#FEFEFE" mask="url(#mask-2)" points="0 3.115 2.472 3.115 2.472 0.643 0 0.643"></polygon>
                </g>
                <g id="Fill-29-Clipped">
                    <mask id="mask-4" fill="white">
                        <use xlink:href="#path-3"></use>
                    </mask>
                    <g id="path-1"></g>
                    <polygon id="Fill-29" fill="#FEFEFE" mask="url(#mask-4)" points="102.784 3.128 105.257 3.128 105.257 0.656 102.784 0.656"></polygon>
                </g>
                <g id="Fill-30-Clipped">
                    <mask id="mask-6" fill="white">
                        <use xlink:href="#path-5"></use>
                    </mask>
                    <g id="path-1"></g>
                    <polygon id="Fill-30" fill="#FEFEFE" mask="url(#mask-6)" points="102.784 136 105.257 136 105.257 133.528 102.784 133.528"></polygon>
                </g>
                <g id="Fill-31-Clipped">
                    <mask id="mask-8" fill="white">
                        <use xlink:href="#path-7"></use>
                    </mask>
                    <g id="path-1"></g>
                    <polygon id="Fill-31" fill="#FEFEFE" mask="url(#mask-8)" points="0.012 135.987 2.484 135.987 2.484 133.514 0.012 133.514"></polygon>
                </g>
            </g>
        </g>
    </g>
</svg>