<?xml version="1.0" encoding="UTF-8"?> <svg xmlns="http://www.w3.org/2000/svg" width="265.262" height="34.453" viewBox="0 0 265.262 34.453"><g id="IadvPP.tif" transform="translate(1020.802 -33.3)"><g id="Group_153" data-name="Group 153" transform="translate(-1020.802 33.3)"><path id="Path_1655" data-name="Path 1655" d="M657.964,250.716a1.712,1.712,0,0,0-.349.754c-.789,2.036-1.813,3.973-2.587,6.009a1.441,1.441,0,0,1-1.792,1.09c-.263-.037-.407-.067-.527-.347-1.064-2.485-2.261-4.913-3.2-7.527-.071,1.1-.13,2.127-.2,3.154-.162,2.245-.336,4.489-.495,6.734-.021.292-.135.393-.423.376a8.7,8.7,0,0,0-1.072,0c-.3.02-.4-.082-.37-.386.089-.951.153-1.9.23-2.857q.29-3.583.583-7.166c.067-.823.144-1.646.19-2.47.017-.311.119-.436.438-.414a5.227,5.227,0,0,0,1.023,0c.421-.055.607.147.753.5,1.019,2.442,2.05,4.88,3.072,7.321.153.364.28.739.458,1.213.588-1.694,1.277-3.217,1.933-4.754.57-1.337,1.13-2.679,1.689-4.021a.384.384,0,0,1,.421-.249,7.046,7.046,0,0,0,1.12-.007c.453-.061.557.163.583.535.059.84.129,1.679.2,2.518q.387,4.769.777,9.539c.058.7.065.7-.618.7-1.177,0-1.171,0-1.262-1.186-.187-2.438-.387-4.875-.564-7.314C657.93,251.9,657.964,251.339,657.964,250.716Z" transform="translate(-484.208 -226.734)" fill="#cad300"></path><path id="Path_1656" data-name="Path 1656" d="M1585.707,39.12c.009,3.211.015,6.423.034,9.634,0,.286-.048.406-.366.382a8.874,8.874,0,0,0-1.218,0c-.3.018-.388-.068-.381-.375.021-.957.008-1.914.008-2.871,0-3.342.006-6.683-.008-10.025,0-.367.091-.435.466-.5a2.164,2.164,0,0,1,2.374,1.281c1.819,2.807,3.756,5.537,5.638,8.3.25.367.445.77.74,1.134-.025-.482-.07-.965-.071-1.447-.007-2.936,0-5.872-.013-8.808,0-.362.081-.49.451-.447.478.056,1.122-.2,1.4.1.238.265.08.894.08,1.362,0,3.926,0,7.851.01,11.777,0,.382-.073.477-.486.528a2.047,2.047,0,0,1-2.209-1.125c-1.878-2.921-3.982-5.694-5.845-8.628-.18-.283-.335-.582-.5-.873-.042-.011-.105-.122-.121,0A1.235,1.235,0,0,0,1585.707,39.12Z" transform="translate(-1329.627 -35.129)"></path><path id="Path_1657" data-name="Path 1657" d="M-116.8,38.772c.189,3.385.037,6.772.093,10.158,0,.273-.065.371-.348.355-.421-.023-.845-.018-1.267,0-.242.01-.332-.046-.331-.314q.013-6.566,0-13.131c0-.224.048-.341.292-.3a.15.15,0,0,0,.049,0,2.184,2.184,0,0,1,2.453,1.19c1.771,2.8,3.7,5.49,5.559,8.232.278.41.5.86.745,1.291.19,0,.115-.11.087-.2-.192-3.384-.047-6.772-.1-10.158,0-.265.057-.376.345-.36.421.023.845.019,1.267,0,.243-.01.334.045.334.313q-.013,6.566,0,13.131c0,.221-.045.3-.289.308-1.513.067-1.527.084-2.35-1.106q-2.851-4.125-5.672-8.27c-.288-.423-.512-.891-.765-1.339C-116.934,38.532-116.828,38.671-116.8,38.772Z" transform="translate(206.681 -35.279)"></path><path id="Path_1658" data-name="Path 1658" d="M467.2,38.643c.139,3.337.029,6.677.071,10.015,0,.279-.04.413-.364.39-.5-.036-1.156.164-1.461-.084s-.094-.938-.1-1.433c-.008-3.923,0-7.846-.014-11.77,0-.389.131-.412.476-.481,1.251-.251,1.8.473,2.4,1.392,1.76,2.689,3.614,5.317,5.42,7.977.3.437.533.915.8,1.374.115.047.144.008.1-.1-.225-3.449-.046-6.9-.107-10.352,0-.212.061-.3.273-.269a.353.353,0,0,0,.049,0c.519.007,1.2-.18,1.512.076s.1.972.1,1.485c.008,3.891,0,7.782.013,11.672,0,.378-.062.489-.483.529a2.071,2.071,0,0,1-2.188-1.09c-1.856-2.856-3.84-5.629-5.763-8.443a13.123,13.123,0,0,1-.648-1.184C467.066,38.381,467.2,38.532,467.2,38.643Z" transform="translate(-320.269 -35.041)"></path><path id="Path_1659" data-name="Path 1659" d="M-625.213,40.308a7.021,7.021,0,0,1-7.051,7.2,7.06,7.06,0,0,1-7.1-7.217A7.01,7.01,0,0,1-632.3,33.3,6.967,6.967,0,0,1-625.213,40.308Z" transform="translate(676.585 -33.3)"></path><path id="Path_1660" data-name="Path 1660" d="M652.828,42.721c0-2.139.01-4.278-.01-6.417,0-.371.1-.452.455-.446,1.607.026,3.217-.039,4.821.04a6.229,6.229,0,0,1,5.073,2.606,7.447,7.447,0,0,1,1.143,5.181,6.343,6.343,0,0,1-1.624,3.852,6.687,6.687,0,0,1-4.92,2.046c-1.525.046-3.052.009-4.578.033-.311,0-.37-.09-.368-.38C652.834,47.064,652.828,44.893,652.828,42.721Z" transform="translate(-489.51 -35.608)"></path><path id="Path_1661" data-name="Path 1661" d="M908.916,49.592c-.683,0-1.3-.009-1.916.005a.355.355,0,0,1-.369-.23c-.851-1.621-1.716-3.235-2.562-4.859a.576.576,0,0,0-.615-.395c-.729.036-1.462.025-2.192,0-.3-.009-.382.077-.379.378.016,1.556,0,3.113.015,4.669,0,.322-.05.474-.412.433-.492-.056-1.158.209-1.437-.109-.245-.28-.077-.926-.077-1.41,0-3.907,0-7.814-.01-11.72,0-.39.071-.526.495-.517,1.591.032,3.184,0,4.775.033a3.561,3.561,0,0,1,3.533,2.309,4.273,4.273,0,0,1-.947,4.7,2.809,2.809,0,0,1-.851.541c-.276.116-.34.192-.164.5,1.027,1.8,2.019,3.618,3.021,5.432A2.3,2.3,0,0,1,908.916,49.592Z" transform="translate(-711.596 -35.592)"></path><path id="Path_1662" data-name="Path 1662" d="M1064.662,46.045a6.378,6.378,0,0,1-7.463.815,6.49,6.49,0,0,1-3.465-4.964,7.164,7.164,0,0,1,.61-4.537,6.686,6.686,0,0,1,5.8-3.855,7.842,7.842,0,0,1,5.2,1.371c.249.174.344.273.118.54a4.741,4.741,0,0,0-.586.878c-.134.258-.244.212-.44.084a7.012,7.012,0,0,0-3.5-1.147,5,5,0,0,0-5.25,4.3,5.758,5.758,0,0,0,1.176,4.642,4.975,4.975,0,0,0,5.682,1.378,6.356,6.356,0,0,0,.7-.325,2.232,2.232,0,0,0,1.341-2.839c-.046-.241-.193-.171-.319-.173-.536-.007-1.073-.015-1.608,0-.256.008-.344-.068-.327-.327a7.72,7.72,0,0,0,0-1.021c-.019-.272.1-.319.337-.317,1.121.01,2.243.014,3.364,0,.278,0,.309.1.308.339q-.011,3.113,0,6.227c0,.262-.047.4-.338.354a1.2,1.2,0,0,0-.195,0c-1.189,0-1.188,0-1.148-1.176C1064.664,46.221,1064.662,46.157,1064.662,46.045Z" transform="translate(-851.195 -33.462)"></path><path id="Path_1663" data-name="Path 1663" d="M-762.185,42.64c0,2.157-.01,4.315.01,6.472,0,.365-.085.487-.451.444-.478-.055-1.122.2-1.4-.1-.238-.263-.079-.893-.08-1.361,0-1.4-.011-2.79.006-4.185,0-.313-.074-.4-.4-.4q-3.169.023-6.339,0c-.336,0-.436.076-.432.423.019,1.735,0,3.471.018,5.207,0,.345-.088.447-.428.42a7.555,7.555,0,0,0-1.169,0c-.317.024-.369-.1-.369-.386q.014-6.5,0-12.993c0-.305.084-.393.382-.375a8.841,8.841,0,0,0,1.218,0c.323-.025.366.106.364.387-.012,1.736.005,3.471-.015,5.207,0,.368.1.461.461.457q3.121-.027,6.242,0c.363,0,.471-.087.467-.457-.02-1.719,0-3.439-.016-5.158,0-.332.074-.466.426-.435a5.413,5.413,0,0,0,1.071,0c.4-.045.439.126.436.463C-762.193,38.39-762.185,40.515-762.185,42.64Z" transform="translate(797.373 -35.552)"></path><path id="Path_1664" data-name="Path 1664" d="M1507.048,261.016a1.088,1.088,0,0,1-.119.021c-.661-.022-1.453.25-1.946-.1s-.673-1.1-.985-1.687c-.571-1.066-1.146-2.131-1.7-3.207a.5.5,0,0,0-.536-.3c-.7.012-1.4.023-2.1,0-.34-.013-.4.12-.394.421.013,1.475-.005,2.951.014,4.427,0,.356-.076.511-.454.462-.445-.057-1.019.194-1.31-.106-.266-.275-.079-.835-.08-1.268-.006-3.794,0-7.589-.013-11.383,0-.43.107-.552.54-.54,1.542.044,3.084-.017,4.627.063a3.6,3.6,0,0,1,3.623,3.892,3.642,3.642,0,0,1-2.344,3.554Z" transform="translate(-1251.662 -226.822)" fill="#cad300"></path><path id="Path_1665" data-name="Path 1665" d="M-464.656,40.727c0,1.313,0,2.627,0,3.94a4.875,4.875,0,0,1-4.684,5.079,5.575,5.575,0,0,1-5.048-1.8,4.652,4.652,0,0,1-1.1-3.087c-.023-2.9,0-5.805-.015-8.708,0-.293.1-.35.361-.336a8.5,8.5,0,0,0,1.169,0c.36-.031.42.111.418.437-.013,2.74,0,5.481-.01,8.222a3.318,3.318,0,0,0,1.212,2.87c1.353,1.036,4.5,1.013,5.445-1.1a4.8,4.8,0,0,0,.334-1.986c.005-2.659.008-5.319-.006-7.978,0-.347.058-.5.446-.465a6.14,6.14,0,0,0,1.12,0c.319-.027.369.1.367.384C-464.664,37.711-464.656,39.219-464.656,40.727Z" transform="translate(528.715 -35.567)"></path><path id="Path_1666" data-name="Path 1666" d="M342.252,49.577c-.963,0-.958,0-1.27-.908s-.651-1.826-.955-2.745a.393.393,0,0,0-.443-.327c-1.511.011-3.022.015-4.532,0-.293,0-.379.118-.461.364-.362,1.1-.754,2.184-1.118,3.281-.082.248-.181.368-.467.345a8.355,8.355,0,0,0-1.169,0c-.354.021-.488-.011-.333-.43.881-2.381,1.732-4.773,2.593-7.161.7-1.933,1.4-3.865,2.087-5.8.092-.258.209-.386.511-.362a7.592,7.592,0,0,0,1.266,0c.33-.03.447.125.543.394q1.935,5.4,3.881,10.792c.24.667.485,1.333.728,2,.206.565.206.565-.373.565Z" transform="translate(-199.492 -35.577)"></path><path id="Path_1667" data-name="Path 1667" d="M1355.238,47.5c2.433,0,4.819.011,7.2-.011.417,0,.536.115.493.512-.04.367.115.858-.071,1.08-.222.264-.73.084-1.113.086-2.828.009-5.656,0-8.483.013-.353,0-.462-.067-.466-.444a2.39,2.39,0,0,1,.46-1.517c2.375-3.315,4.61-6.729,7.044-10,.016-.022.011-.059.02-.114h-1.137c-1.853,0-3.705-.007-5.558.007-.331,0-.518-.031-.463-.431s-.164-.921.079-1.17.769-.072,1.17-.073c2.665-.007,5.331.005,8-.014.376,0,.437.105.449.455a2.268,2.268,0,0,1-.46,1.474c-2.12,3-4.2,6.03-6.3,9.045C1355.841,46.761,1355.547,47.1,1355.238,47.5Z" transform="translate(-1121.191 -35.171)"></path><path id="Path_1668" data-name="Path 1668" d="M1257.206,42.71c0-2.125.008-4.249-.007-6.374,0-.355.051-.5.465-.5,2.373.023,4.746.018,7.118,0,.339,0,.465.083.427.427-.044.4.165.924-.078,1.174s-.769.071-1.17.074c-1.479.01-2.958.012-4.437,0-.311,0-.415.067-.409.4q.032,1.751,0,3.5c-.006.326.094.4.407.4,1.4-.017,2.8,0,4.193-.015.3,0,.4.071.372.374-.035.417.13.966-.08,1.22s-.789.078-1.205.082c-1.073.01-2.146.018-3.218,0-.352-.007-.479.066-.471.448.026,1.183.024,2.368,0,3.552-.007.361.086.466.457.462,1.853-.02,3.706,0,5.558-.018.344,0,.453.085.421.426-.037.4.125.927-.077,1.172s-.76.076-1.16.078c-2.194.009-4.388-.007-6.582.014-.409,0-.546-.068-.54-.517C1257.222,46.96,1257.206,44.835,1257.206,42.71Z" transform="translate(-1034.911 -35.591)"></path><path id="Path_1669" data-name="Path 1669" d="M-225.469,42.717c0-2.14.008-4.28-.008-6.42,0-.345.1-.426.432-.424q3.606.022,7.213,0c.327,0,.431.092.4.406-.043.415.177.971-.093,1.21-.231.2-.774.061-1.18.062-1.478,0-2.957.009-4.435-.005-.29,0-.389.06-.384.371q.03,1.775,0,3.55c0,.306.084.378.38.375,1.381-.015,2.762,0,4.142-.015.329,0,.469.064.433.419-.04.4.119.923-.082,1.173-.215.267-.759.077-1.159.082-1.088.013-2.177.022-3.265,0-.381-.01-.457.117-.45.468.022,1.151.026,2.3,0,3.453-.01.411.073.553.524.546,1.8-.03,3.606,0,5.409-.02.357,0,.538.053.489.464-.045.382.12.9-.076,1.124-.232.269-.762.084-1.16.085-2.226.01-4.451,0-6.677.013-.353,0-.464-.068-.46-.445C-225.458,47.029-225.469,44.873-225.469,42.717Z" transform="translate(303.085 -35.622)"></path><path id="Path_1670" data-name="Path 1670" d="M-911.887,47.694a6.885,6.885,0,0,1-7-6.709,6.946,6.946,0,0,1,2.207-5.671,6.618,6.618,0,0,1,4.141-1.784,7.6,7.6,0,0,1,5.379,1.522c.26.2.264.345.072.579a3.222,3.222,0,0,0-.429.647c-.214.45-.435.377-.791.128a5.752,5.752,0,0,0-5.153-.91,4.883,4.883,0,0,0-3.42,4.441,5.287,5.287,0,0,0,2.742,5.419,5.577,5.577,0,0,0,6.22-.9c.3-.273.465-.3.66.065a2.869,2.869,0,0,0,.287.388c.513.66.511.681-.133,1.175A7.681,7.681,0,0,1-911.887,47.694Z" transform="translate(928.839 -33.484)"></path><path id="Path_1671" data-name="Path 1671" d="M792.771,42.732c0-2.141.009-4.283-.009-6.424,0-.357.076-.457.447-.454q3.56.029,7.12,0c.376,0,.48.1.446.46-.037.384.123.9-.071,1.128-.231.274-.761.085-1.159.088q-2.243.019-4.487,0c-.3,0-.38.075-.375.374q.027,1.776,0,3.552c-.005.306.085.374.379.37,1.4-.016,2.8,0,4.194-.014.285,0,.411.045.383.365-.037.417.132.963-.076,1.222-.221.275-.789.081-1.205.086-1.073.013-2.146.022-3.218,0-.377-.009-.462.113-.456.468q.031,1.8,0,3.6c-.006.338.112.394.413.392,1.853-.012,3.706.005,5.559-.016.368,0,.492.089.445.453-.051.4.171.927-.088,1.158-.221.2-.74.068-1.127.068-2.211,0-4.422-.012-6.632.013-.422,0-.494-.118-.49-.508C792.781,46.982,792.771,44.857,792.771,42.732Z" transform="translate(-615.797 -35.604)"></path><path id="Path_1672" data-name="Path 1672" d="M1477.491,42.721c0-2.141.007-4.283-.007-6.424,0-.324.056-.439.414-.437q3.584.026,7.169,0c.338,0,.466.081.427.426-.044.4.165.92-.077,1.172s-.769.074-1.17.076q-2.219.016-4.438,0c-.3,0-.415.057-.409.39.023,1.168.02,2.336,0,3.5,0,.311.07.408.4.4,1.382-.019,2.764.005,4.145-.017.354-.006.449.1.413.433-.044.4.166.922-.077,1.17s-.769.069-1.17.073c-1.1.011-2.211.014-3.316,0-.3,0-.392.086-.388.384.014,1.233.016,2.466,0,3.7,0,.3.08.378.38.376,1.869-.014,3.739,0,5.608-.015.332,0,.464.065.431.419-.038.4.128.927-.073,1.175-.214.265-.761.079-1.161.08-2.227.009-4.454,0-6.681.013-.342,0-.426-.085-.424-.425C1477.5,47.036,1477.491,44.879,1477.491,42.721Z" transform="translate(-1233.705 -35.611)"></path><path id="Path_1673" data-name="Path 1673" d="M938.393,247.727c-.653,1.066-1.244,2.03-1.836,2.994-.627,1.02-1.248,2.044-1.886,3.058a.513.513,0,0,0,.017.613q1.931,3.233,3.847,6.475a.657.657,0,0,1,.031.143h-1.836c-.188,0-.277-.115-.365-.268-1.069-1.855-2.149-3.7-3.213-5.561a.438.438,0,0,0-.45-.268,12.938,12.938,0,0,1-1.316,0c-.344-.023-.4.126-.4.423.011,1.719-.011,3.438.017,5.156.007.444-.131.575-.551.527s-.954.169-1.225-.085-.089-.8-.089-1.213c-.007-3.827,0-7.654-.013-11.481,0-.4.091-.563.509-.517a4.826,4.826,0,0,0,.925,0c.345-.029.443.1.44.439-.016,1.54.009,3.081-.017,4.621-.007.435.11.527.552.576a1.88,1.88,0,0,0,2.174-1.173c.7-1.416,1.61-2.729,2.413-4.1a.631.631,0,0,1,.655-.37C937.277,247.748,937.777,247.727,938.393,247.727Z" transform="translate(-738.815 -226.791)" fill="#cad300"></path><path id="Path_1674" data-name="Path 1674" d="M-1016.342,47.786a6.735,6.735,0,0,1-4.263-1.559c-.212-.175-.283-.285-.061-.521a5.636,5.636,0,0,0,.663-.894c.168-.269.3-.238.52-.057a4.78,4.78,0,0,0,3.718,1.2,1.95,1.95,0,0,0,1.855-2.172,1.76,1.76,0,0,0-.726-1.264,13.765,13.765,0,0,0-2.877-1.49,6.748,6.748,0,0,1-2.24-1.492,3.389,3.389,0,0,1,.039-4.387,4.914,4.914,0,0,1,4.778-1.463A5.766,5.766,0,0,1-1012.5,34.7c.239.163.325.3.14.579-.251.374-.367.965-.7,1.122s-.721-.388-1.126-.561a3.516,3.516,0,0,0-3.515.008,1.7,1.7,0,0,0-.031,3,22.669,22.669,0,0,0,3.055,1.465,4.453,4.453,0,0,1,2.5,2.246,3.827,3.827,0,0,1-3.215,5.156C-1015.733,47.756-1016.075,47.764-1016.342,47.786Z" transform="translate(1020.802 -33.565)"></path><path id="Path_1675" data-name="Path 1675" d="M1369.778,257.021c-.683,0-1.367.025-2.047-.01-.351-.018-.478.127-.576.424-.332,1.011-.695,2.013-1.021,3.026-.094.291-.217.432-.542.4a6.5,6.5,0,0,0-1.072,0c-.392.033-.425-.1-.3-.435.632-1.71,1.25-3.425,1.87-5.139.878-2.428,1.762-4.853,2.62-7.288a.531.531,0,0,1,.627-.435,4.188,4.188,0,0,1,1.392.071c.407.2.4.809.554,1.241q2.085,5.714,4.135,11.44c.192.534.183.537-.395.538-1.349,0-1.347,0-1.789-1.3-.25-.734-.511-1.464-.76-2.2a.444.444,0,0,0-.5-.349C1371.241,257.034,1370.509,257.021,1369.778,257.021Z" transform="translate(-1131.434 -226.64)" fill="#cad300"></path><path id="Path_1676" data-name="Path 1676" d="M1243.589,261.021c-.941,0-.935,0-1.249-.9-.3-.87-.637-1.729-.921-2.605-.091-.282-.233-.335-.491-.333-1.43.009-2.861.013-4.291,0a.424.424,0,0,0-.474.357c-.347,1.041-.721,2.073-1.06,3.117-.09.278-.208.4-.51.378a10.493,10.493,0,0,0-1.17,0c-.311.014-.348-.074-.242-.361.581-1.573,1.141-3.154,1.709-4.732q1.4-3.892,2.792-7.787c.108-.3.256-.455.6-.414a6.5,6.5,0,0,0,.779.006c.747,0,.738,0,1,.726q2.132,5.93,4.274,11.856c.255.706.268.7-.5.7Z" transform="translate(-1013.196 -226.802)" fill="#cad300"></path><path id="Path_1677" data-name="Path 1677" d="M804.059,257.228c-.666,0-1.334.028-2-.011-.389-.022-.526.14-.635.475-.328,1.013-.7,2.011-1.029,3.023-.085.261-.2.373-.475.355a6.956,6.956,0,0,0-1.072,0c-.447.042-.467-.122-.334-.486q1.67-4.571,3.318-9.15c.4-1.093.794-2.184,1.174-3.282a.458.458,0,0,1,.523-.379,9.151,9.151,0,0,0,1.169,0c.322-.021.445.123.547.408q2.215,6.174,4.45,12.341c.195.539.192.545-.4.539-.436,0-.955.118-1.286-.075s-.336-.769-.481-1.177c-.266-.746-.544-1.488-.793-2.24a.43.43,0,0,0-.489-.349C805.522,257.239,804.79,257.228,804.059,257.228Z" transform="translate(-620.926 -226.846)" fill="#cad300"></path><path id="Path_1678" data-name="Path 1678" d="M1043.818,254.409c0-2.06.008-4.12-.008-6.181,0-.347.063-.474.447-.471q3.413.029,6.827,0c.4,0,.482.13.477.5-.016,1.142,0,1.142-1.129,1.142-1.447,0-2.894.008-4.34-.007-.307,0-.423.064-.417.4.021,1.135.017,2.271,0,3.406,0,.3.1.385.39.382,1.317-.014,2.634.009,3.95-.015.372-.007.459.1.455.462-.014,1.128,0,1.129-1.142,1.129-1.089,0-2.178.01-3.267-.006-.3,0-.388.092-.385.388.015,1.168.02,2.336,0,3.5-.007.364.134.42.453.417,1.739-.013,3.479.006,5.218-.015.411-.005.568.077.555.528-.031,1.084-.006,1.085-1.108,1.085-2.129,0-4.259-.02-6.388.015-.52.009-.6-.155-.6-.622C1043.833,258.432,1043.818,256.421,1043.818,254.409Z" transform="translate(-842.347 -226.831)" fill="#cad300"></path><path id="Path_1679" data-name="Path 1679" d="M217.579,35.887c.672,0,1.287.01,1.9-.005.242-.006.239.162.29.307.758,2.147,1.525,4.29,2.272,6.44.519,1.5,1.113,2.966,1.491,4.508a1.924,1.924,0,0,0,.11.243c.276-.831.464-1.6.733-2.354q1.581-4.4,3.12-8.806a.425.425,0,0,1,.487-.341c.546.022,1.094.006,1.688.006-.564,1.543-1.1,3.034-1.654,4.521q-1.335,3.614-2.677,7.225c-.206.557-.414,1.113-.6,1.675a.405.405,0,0,1-.5.324,3.918,3.918,0,0,0-.535,0c-1.037,0-1.034,0-1.395-.983q-1.872-5.089-3.749-10.177C218.245,37.622,217.919,36.783,217.579,35.887Z" transform="translate(-96.74 -35.628)"></path><path id="Path_1680" data-name="Path 1680" d="M1617.032,255.828a3.561,3.561,0,0,1-3.089,3.57,6.023,6.023,0,0,1-5.269-1.379c-.234-.194-.19-.328-.047-.513a4.734,4.734,0,0,0,.524-.7c.219-.435.43-.328.731-.091a4.628,4.628,0,0,0,3.391,1.055,1.98,1.98,0,0,0,1.848-1.469,1.933,1.933,0,0,0-.932-2.07,12.838,12.838,0,0,0-2.127-1.057,7.627,7.627,0,0,1-2.533-1.589,3.271,3.271,0,0,1,.064-4.337,4.792,4.792,0,0,1,4.63-1.327,5.512,5.512,0,0,1,2.266.951c.225.154.3.3.141.56-.22.358-.322.876-.633,1.067-.336.207-.647-.31-.993-.468a3.642,3.642,0,0,0-3.318-.183,1.694,1.694,0,0,0-.228,3.048,16.949,16.949,0,0,0,2.75,1.324,4.808,4.808,0,0,1,2.495,2.058A3.154,3.154,0,0,1,1617.032,255.828Z" transform="translate(-1351.947 -225.081)" fill="#cad300"></path><path id="Path_1681" data-name="Path 1681" d="M-347.753,43.3c0,1.832-.011,3.664.009,5.5,0,.381-.054.56-.488.515-.464-.048-1.1.154-1.361-.082-.3-.273-.089-.913-.09-1.393q-.012-5.082,0-10.164c0-.361-.08-.457-.447-.45-1.3.025-2.6,0-3.9.018-.325,0-.433-.088-.4-.4.045-.413-.178-.967.1-1.205.237-.2.774-.068,1.179-.069,3.2,0,6.4.005,9.6-.01.379,0,.569.049.513.484-.049.38.113.891-.083,1.12s-.732.069-1.117.073c-.975.01-1.951.039-2.923-.011-.53-.027-.619.153-.611.636C-347.735,39.669-347.753,41.485-347.753,43.3Z" transform="translate(419.484 -35.302)"></path><path id="Path_1682" data-name="Path 1682" d="M44.6,41.311a.807.807,0,0,1,.474-.048c1.428,0,2.856,0,4.284,0,.765,0,.657.082.66-.683.006-1.409.019-2.818-.009-4.226-.008-.419.124-.517.518-.5.647.032,1.3.026,1.946,0,.323-.012.408.093.4.408-.015,1.506.005,3.012-.015,4.518-.005.374.086.5.479.49,1.492-.024,2.985-.011,4.478-.007.157,0,.324-.052.472.05-.191.2-.447.166-.685.167-1.151.007-2.3,0-3.454,0-1.272.006-1.121-.118-1.133,1.106,0,.34,0,.68,0,1.019a.858.858,0,0,1-.141.553c0,1.667-.013,3.335,0,5,0,.338-.086.447-.431.433-.648-.027-1.3-.029-1.946,0-.373.017-.5-.079-.492-.475.023-1.651.01-3.3.01-4.954a.977.977,0,0,1-.137-.605c0-.405,0-.81,0-1.216,0-.864,0-.864-.844-.865-1.251,0-2.5,0-3.752,0C45.051,41.479,44.8,41.516,44.6,41.311Z" transform="translate(59.356 -35.602)" fill="#cad300"></path><path id="Path_1683" data-name="Path 1683" d="M1145.037,254.031c0-2.058.008-4.116-.008-6.174,0-.355.083-.51.459-.467.447.052,1.028-.191,1.311.1.258.264.073.834.074,1.268.005,3.273.01,6.547-.007,9.82,0,.409.113.512.514.506,1.493-.024,2.988,0,4.482-.016.355,0,.514.051.506.467-.022,1.143,0,1.144-1.142,1.144-1.884,0-3.767-.012-5.651.009-.418,0-.555-.087-.55-.531C1145.051,258.114,1145.037,256.072,1145.037,254.031Z" transform="translate(-933.689 -226.458)" fill="#cad301"></path><path id="Path_1684" data-name="Path 1684" d="M1206.551,42.243c0-2.139.008-4.279-.008-6.419,0-.346.1-.445.434-.422.484.033,1.139-.167,1.412.077.313.28.1.944.1,1.44.007,3.923,0,7.845.014,11.767,0,.385-.1.511-.478.468-.477-.054-1.121.2-1.394-.1-.237-.266-.073-.893-.074-1.36Q1206.548,44.966,1206.551,42.243Z" transform="translate(-989.163 -35.155)"></path><path id="Path_1685" data-name="Path 1685" d="M44.03,91.808c1.641,0,3.283.022,4.923,0,.407,0,.535.114.517.519-.033.777-.017,1.556-.021,2.335-1.668-.005-3.337-.024-5.005-.006-.391,0-.5-.112-.473-.486C44.023,93.387,43.914,92.595,44.03,91.808Z" transform="translate(59.93 -86.099)" fill="#999e05"></path><path id="Path_1686" data-name="Path 1686" d="M129.257,94.679c0-.793.01-1.587-.017-2.38-.013-.366.107-.469.469-.466,1.655.014,3.309,0,4.964,0,.087.868.013,1.738.041,2.607.01.3-.2.231-.365.231q-2.255,0-4.51,0C129.645,94.67,129.451,94.676,129.257,94.679Z" transform="translate(-17.02 -86.119)" fill="#999e05"></path><path id="Path_1687" data-name="Path 1687" d="M1602.881,66.488a1.39,1.39,0,0,1-.02-.834l.119.239C1602.809,66.069,1602.976,66.3,1602.881,66.488Z" transform="translate(-1346.801 -62.497)" fill="#bfbfbf"></path><path id="Path_1688" data-name="Path 1688" d="M484.155,65.906c-.1-.085-.052-.21-.075-.315-.011-.051-.046-.147.042-.151s.11.092.128.168C484.143,65.683,484.212,65.814,484.155,65.906Z" transform="translate(-337.223 -62.304)" fill="#a9a9a9"></path><path id="Path_1689" data-name="Path 1689" d="M-100.516,65.543c-.057-.121-.162-.274-.026-.364.108-.072.124.075.13.165C-100.52,65.372-100.479,65.478-100.516,65.543Z" transform="translate(190.399 -62.051)" fill="#7f7f7f"></path><path id="Path_1690" data-name="Path 1690" d="M-25.311,143.682a.379.379,0,0,1,.04.366c-.082-.025-.107-.093-.128-.165Z" transform="translate(122.527 -132.911)" fill="#bebebf"></path><path id="Path_1691" data-name="Path 1691" d="M559.231,144.8c.042.094.152.214,0,.272-.107.04-.088-.1-.1-.17Z" transform="translate(-404.961 -133.923)" fill="#7f7f7e"></path><path id="Path_1692" data-name="Path 1692" d="M-613.754,61.945a5.2,5.2,0,0,1-5.115-5.435,5.162,5.162,0,0,1,5.087-5.255,5.161,5.161,0,0,1,5.089,5.253A5.213,5.213,0,0,1-613.754,61.945Z" transform="translate(658.089 -49.503)" fill="#fefefe"></path><path id="Path_1693" data-name="Path 1693" d="M672.529,58.163c0-1.589.007-3.178-.006-4.767,0-.3.046-.428.388-.409a31.12,31.12,0,0,1,3.208.089,4.4,4.4,0,0,1,3.912,3.779,6.209,6.209,0,0,1-.494,4.106,4.46,4.46,0,0,1-3.953,2.389c-.906.06-1.818.02-2.727.05-.3.01-.333-.122-.332-.371C672.533,61.407,672.528,59.785,672.529,58.163Z" transform="translate(-507.291 -51.064)" fill="#fefefe"></path><path id="Path_1694" data-name="Path 1694" d="M919.08,55.435c0-.713,0-1.427,0-2.14,0-.143-.077-.349.2-.343,1.006.022,2.016-.068,3.018.044a2.192,2.192,0,0,1,1.984,2.557,2.227,2.227,0,0,1-2.4,2.3c-.826.041-1.657,0-2.485.013-.263,0-.33-.1-.325-.346C919.089,56.83,919.08,56.133,919.08,55.435Z" transform="translate(-729.785 -51.023)" fill="#fefefe"></path><path id="Path_1695" data-name="Path 1695" d="M1516.769,266.836q0-1.02,0-2.039c0-.165-.021-.328.233-.324.972.017,1.953-.054,2.914.055a2.2,2.2,0,0,1,1.867,2.846,2.134,2.134,0,0,1-2.2,1.855c-.81.028-1.621,0-2.432.021-.29.007-.4-.065-.388-.375C1516.785,268.2,1516.769,267.515,1516.769,266.836Z" transform="translate(-1269.151 -241.909)" fill="#fefefe"></path><path id="Path_1696" data-name="Path 1696" d="M370.739,63.4a1.358,1.358,0,0,1,.031-.2c.64-1.981,1.467-3.9,1.959-5.909.1-.008.133,0,.147.061.478,1.912,1.206,3.741,1.851,5.6.114.328.122.473-.317.461C373.194,63.379,371.976,63.4,370.739,63.4Z" transform="translate(-234.955 -54.949)" fill="#fefefe"></path><path id="Path_1697" data-name="Path 1697" d="M1404.134,266.332c.257.917.474,1.774.776,2.606.385,1.061.732,2.135,1.114,3.2.087.242.1.346-.207.343-1.135-.011-2.271-.014-3.407,0-.326,0-.28-.121-.2-.341.473-1.336.944-2.672,1.4-4.015C1403.8,267.561,1403.943,266.984,1404.134,266.332Z" transform="translate(-1165.725 -243.593)" fill="#fefefe"></path><path id="Path_1698" data-name="Path 1698" d="M1273.052,266.193a29.665,29.665,0,0,0,1.164,3.767c.241.684.467,1.373.719,2.053.089.242.085.343-.218.34q-1.7-.018-3.406,0c-.331,0-.285-.138-.209-.352.439-1.229.884-2.457,1.305-3.692C1272.634,267.644,1272.818,266.964,1273.052,266.193Z" transform="translate(-1047.413 -243.468)" fill="#fefefe"></path><path id="Path_1699" data-name="Path 1699" d="M837.964,267.061c.286,1.094.641,2.161,1.018,3.221.3.836.575,1.678.876,2.512.086.237.095.345-.213.342-1.215-.012-2.431,0-3.7,0C836.571,271.073,837.447,269.134,837.964,267.061Z" transform="translate(-654.766 -244.251)" fill="#fefefe"></path></g></g></svg> 