<?xml version="1.0" encoding="utf-8"?>
<!-- Generator: Adobe Illustrator 27.8.1, SVG Export Plug-In . SVG Version: 6.00 Build 0)  -->
<svg version="1.1" id="Laag_1" xmlns="http://www.w3.org/2000/svg" xmlns:xlink="http://www.w3.org/1999/xlink" x="0px" y="0px"
	 width="184.27px" height="123.57px" viewBox="0 0 184.27 123.57" style="enable-background:new 0 0 184.27 123.57;"
	 xml:space="preserve">
<style type="text/css">
	.st0{fill:#FFFFFF;}
	.st1{fill:#8AC4D8;}
</style>
<rect class="st0" width="184.27" height="123.57"/>
<g>
	<path class="st1" d="M5.42,5.42v67.21c0,0,2.89-0.72,7.76-1.81c14.12-4.44,52.05-15.53,78.96-15.53
		c26.91,0,64.83,11.08,78.96,15.53c4.87,1.1,7.76,1.81,7.76,1.81V5.42H5.42z"/>
	<path d="M171.09,70.81c-15.88-3.58-52.78-11.2-78.96-11.2c-26.18,0-63.09,7.62-78.96,11.2c-4.87,1.1-7.76,1.81-7.76,1.81v45.53
		h2.17h169.1h2.17V72.63C178.86,72.63,175.96,71.91,171.09,70.81z"/>
</g>
<g id="Adriaan">
	<path class="st0" d="M30.68,24.89h5.54l6.8,18.61h-5.27l-1.42-4.28H29.9l-1.45,4.28h-4.98L30.68,24.89z M31.22,35.51h3.98
		l-1.91-6.42h-0.05L31.22,35.51z"/>
	<path class="st0" d="M46.48,24.89h8.15c5.48,0,10.03,2.93,10.03,8.98c0,7.15-5.08,9.62-10.03,9.62h-8.28L46.48,24.89z M51.19,39.95
		h2.21c3.84,0,6.26-1.96,6.26-5.83c0-4.3-2.9-5.68-6.48-5.68h-1.86L51.19,39.95z"/>
	<path class="st0" d="M74.23,43.5h-4.89l0.16-18.61h7.31c3.87,0,7.13,1.02,7.13,5.24c0.08,2.66-1.8,4.71-4.46,4.81V35
		c1.08,0.32,1.88,1.48,2.55,2.69l3.25,5.81h-5.46l-2.66-5.16c-0.57-1.12-1.02-1.94-2.1-1.94h-0.73L74.23,43.5z M74.15,32.85h2.18
		c1.16,0,2.77-0.32,2.77-2.2c0-1.53-0.94-2.21-2.88-2.21h-1.96L74.15,32.85z"/>
	<polygon class="st0" points="88.88,24.89 93.72,24.89 93.56,43.5 88.72,43.5 	"/>
	<path class="st0" d="M104.16,24.89h5.54l6.8,18.61h-5.27l-1.42-4.28h-6.43l-1.45,4.28h-4.97L104.16,24.89z M104.69,35.51h3.98
		l-1.91-6.42h-0.05L104.69,35.51z"/>
	<path class="st0" d="M125.15,24.89h5.54l6.8,18.61h-5.27l-1.42-4.28h-6.42l-1.46,4.28h-4.97L125.15,24.89z M125.69,35.51h3.98
		l-1.91-6.42h-0.05L125.69,35.51z"/>
	<polygon class="st0" points="140.88,24.89 146.74,24.89 153.17,37.1 153.22,37.1 153.33,24.89 157.71,24.89 157.55,43.5 
		151.96,43.5 145.26,31.29 145.21,31.29 145.1,43.5 140.72,43.5 	"/>
</g>
<g id="Heuvel">
	<polygon class="st0" points="26.14,84 31.92,84 31.83,92.49 39.36,92.49 39.49,84 45.27,84 45.07,106.09 39.3,106.09 39.43,97.28 
		31.86,97.28 31.73,106.09 25.95,106.09 	"/>
	<polygon class="st0" points="51.97,84 67.23,84 67.23,88.6 57.75,88.6 57.69,92.84 67.14,92.84 67.14,97.25 57.66,97.25 
		57.59,101.5 67.04,101.5 67.04,106.09 51.78,106.09 	"/>
	<path class="st0" d="M79.45,84c-0.09,4.5-0.09,9-0.09,13.5c0,3.35,1.21,4.63,3.7,4.63c1.79,0,3.77-0.87,3.8-4.76L86.99,84h5.81
		l-0.13,14.04c-0.06,5.68-3.89,8.69-9.58,8.69c-5.49,0-9.54-2.49-9.54-8.78c0-5.27,0.07-9.61,0.13-13.95H79.45z"/>
	<polygon class="st0" points="96.54,84 102.64,84 107.78,100.34 107.84,100.34 113.24,84 119.08,84 111.03,106.09 104.78,106.09 	
		"/>
	<polygon class="st0" points="123.58,84 138.84,84 138.84,88.6 129.36,88.6 129.29,92.84 138.74,92.84 138.74,97.25 129.26,97.25 
		129.2,101.5 138.65,101.5 138.65,106.09 123.39,106.09 	"/>
	<polygon class="st0" points="145.29,84 151.03,84 150.84,101.3 160.81,101.3 160.71,106.09 145.1,106.09 	"/>
</g>
<g id="van_den">
	<polygon class="st0" points="71.36,67.12 73.28,67.12 74.91,72.28 74.93,72.28 76.63,67.12 78.48,67.12 75.94,74.1 73.96,74.1 	"/>
	<path class="st0" d="M80.58,67.12h2.08l2.55,6.98h-1.98l-0.54-1.6h-2.41l-0.55,1.6h-1.87L80.58,67.12z M80.78,71.1h1.49l-0.72-2.41
		h-0.02L80.78,71.1z"/>
	<polygon class="st0" points="86.08,67.12 88.28,67.12 90.69,71.7 90.71,71.7 90.75,67.12 92.39,67.12 92.33,74.1 90.23,74.1 
		87.72,69.52 87.7,69.52 87.66,74.1 86.02,74.1 	"/>
	<path class="st0" d="M97.22,67.12h3.06c2.06,0,3.76,1.1,3.76,3.37c0,2.68-1.9,3.61-3.76,3.61h-3.11L97.22,67.12z M98.98,72.76h0.83
		c1.44,0,2.35-0.73,2.35-2.19c0-1.62-1.09-2.13-2.43-2.13h-0.69L98.98,72.76z"/>
	<polygon class="st0" points="105.45,67.12 110.26,67.12 110.26,68.57 107.27,68.57 107.25,69.91 110.24,69.91 110.24,71.3 
		107.24,71.3 107.22,72.64 110.21,72.64 110.21,74.1 105.38,74.1 	"/>
	<polygon class="st0" points="111.76,67.12 113.96,67.12 116.36,71.7 116.39,71.7 116.43,67.12 118.07,67.12 118.01,74.1 
		115.91,74.1 113.4,69.52 113.38,69.52 113.34,74.1 111.7,74.1 	"/>
</g>
</svg>
