<?xml version="1.0" encoding="UTF-8"?>
<svg xmlns="http://www.w3.org/2000/svg" id="Laag_1" version="1.1" viewBox="0 0 212.77 95.21">
  <defs>
    <style>
      .st0 {
        fill: #f18e00;
      }
    </style>
  </defs>
  <path class="st0" d="M37.65,62.64c0-3.77,2.24-5.29,4.94-5.29,4.47,0,6.35,2.71,6.24,9.3v4.71c-.12,10.35-5.06,17.41-15.88,17.41-9.41,0-15.53-7.18-15.53-16.47v-28.71c0-2.71-.59-3.65-2.24-3.65h-3.06c-3.06,0-4.94-.82-4.94-6.12,0-6.82,3.06-7.18,6-7.18h2.12c2,0,2.12-.94,2.12-3.06v-8.35c0-4.71,3.18-5.53,8.59-5.53,4.59,0,6.94,1.29,6.94,5.88v7.65c0,2.94.12,3.41,2.94,3.41h5.53c3.76,0,5.88,1.18,5.88,6.94,0,4.82-1.53,6.35-4.94,6.35h-5.18c-3.65,0-4.24,0-4.24,3.65v24.35c0,4.24.35,5.65,2.12,5.65,1.65,0,2.59-1.88,2.59-4.12v-6.82Z"></path>
  <path class="st0" d="M53.65,45.94c-2.12,0-4.47-1.88-4.47-4.24,0-1.29,2.47-7.06,5.76-14.24-4.24-1.77-6.94-5.06-6.94-11.06,0-5.53,4-11.41,9.65-11.41,5.06,0,9.29,4.71,9.29,13.53,0,11.88-8.12,27.41-13.29,27.41Z"></path>
  <path class="st0" d="M68.97,44.52c0-10,5.88-19.06,16.59-19.06,5.41,0,8.35,2,12.12,4.47.59-2.59,1.65-4.12,5.29-4.12,2.59,0,5.88,1.06,5.88,4.59,0,1.77-.23,3.88-.23,6.24,0,1.29.23,2.94.23,5.29,0,4.71-3.41,5.29-6.24,5.29-3.29,0-4.35-.71-6.12-3.88-2.35-4.12-4-5.29-6.94-5.29s-5.41,1.88-5.41,4.71c0,4.12,3.18,4.82,10.71,6.35,8.35,1.76,15.77,5.06,15.77,18.35,0,15.77-11.41,20.82-18.82,20.82-5.29,0-9.41-2-13.18-5.65-.47,2.94-2.47,4-5.18,4-4,0-5.65-1.41-5.65-4.94,0-2.71.24-5.29.24-8.35,0-1.77-.24-3.53-.24-5.29,0-4,2-5.18,6-5.18,4.94,0,5.53,1.53,6.94,5.06,1.76,4.47,4,6.59,8.12,6.59,3.18,0,5.88-1.77,5.88-5.29,0-3.88-2.47-4.82-10.82-6.71-11.53-2.47-14.94-10.12-14.94-18Z"></path>
  <path class="st0" d="M156.74,69.7c0,3.18.59,4.12,1.53,4.12.71,0,1.29-.24,1.77-.24,1.65,0,3.88,1.41,3.88,5.65,0,5.41-4.24,9.53-9.53,9.53-3.18,0-7.76-1.77-9.06-6.24-3.18,3.18-7.88,6.24-14.94,6.24-8.94,0-16.71-5.77-16.71-18.24s5.41-17.18,18.24-19.65c6.47-1.18,9.29-2.94,9.29-7.53,0-4.12-2.35-6.12-4.59-6.12-1.29,0-2.71.94-2.71,2.35,0,.94.12,1.76.12,2.71,0,3.06-2.35,7.06-7.41,7.06-5.41,0-9.29-4.35-9.29-9.76,0-7.18,6.12-14.12,19.29-14.12,11.3,0,20.12,3.53,20.12,20.24v24ZM141.21,61c-8.12,1.53-11.77,3.88-11.77,8.59,0,2.71,1.41,5.88,5.06,5.88s6.71-3.06,6.71-7.77v-6.71Z"></path>
  <path class="st0" d="M166.27,44.52c0-10,5.88-19.06,16.59-19.06,5.41,0,8.35,2,12.12,4.47.59-2.59,1.65-4.12,5.3-4.12,2.59,0,5.88,1.06,5.88,4.59,0,1.77-.24,3.88-.24,6.24,0,1.29.24,2.94.24,5.29,0,4.71-3.41,5.29-6.24,5.29-3.29,0-4.35-.71-6.12-3.88-2.35-4.12-4-5.29-6.94-5.29s-5.41,1.88-5.41,4.71c0,4.12,3.18,4.82,10.71,6.35,8.35,1.76,15.77,5.06,15.77,18.35,0,15.77-11.41,20.82-18.83,20.82-5.29,0-9.41-2-13.18-5.65-.47,2.94-2.47,4-5.18,4-4,0-5.65-1.41-5.65-4.94,0-2.71.24-5.29.24-8.35,0-1.77-.24-3.53-.24-5.29,0-4,2-5.18,6-5.18,4.94,0,5.53,1.53,6.94,5.06,1.77,4.47,4,6.59,8.12,6.59,3.18,0,5.88-1.77,5.88-5.29,0-3.88-2.47-4.82-10.82-6.71-11.53-2.47-14.94-10.12-14.94-18Z"></path>
</svg>
