<?xml version="1.0" encoding="UTF-8"?>
<svg id="Laag_1" xmlns="http://www.w3.org/2000/svg" version="1.1" viewBox="0 0 250.232 59">
  <!-- Generator: Adobe Illustrator 29.8.2, SVG Export Plug-In . SVG Version: 2.1.1 Build 3)  -->
  <defs>
    <style>
      .st0 {
        fill: #d6804a;
      }

      .st1 {
        fill: #fff;
      }
    </style>
  </defs>
  <g>
    <path class="st1" d="M72.176,22.717c-.512-.37-1.092-.666-1.726-.9.786-.356,1.427-.851,1.912-1.498.676-.9,1.013-2.027,1.013-3.378,0-1.217-.282-2.263-.844-3.142-.563-.878-1.391-1.548-2.483-2.01s-2.427-.693-4.003-.693h-10.27v23.649h10.609c1.238,0,2.359-.152,3.362-.456,1.001-.304,1.875-.749,2.618-1.334s1.306-1.323,1.689-2.213c.383-.889.574-1.92.574-3.091,0-1.058-.214-2.004-.642-2.838-.428-.833-1.031-1.531-1.808-2.095h0ZM60.639,15.487h4.493c1.103,0,1.926.226,2.466.677.541.45.811,1.092.811,1.926,0,.519-.118.968-.355,1.351s-.58.687-1.031.912c-.451.225-.98.338-1.588.338h-4.797v-5.203h0ZM69.186,29.035c-.27.45-.659.783-1.165.996-.507.215-1.121.321-1.841.321h-5.541v-5.641h5.372c.743,0,1.379.107,1.909.321.529.215.94.523,1.233.929.293.405.439.901.439,1.487,0,.608-.135,1.137-.406,1.588h0Z"/>
    <path class="st1" d="M93.308,19.244c-.345-.474-.735-.912-1.199-1.291-.552-.45-1.194-.805-1.926-1.065-.732-.258-1.537-.388-2.416-.388-1.554,0-2.939.394-4.155,1.182-1.216.789-2.179,1.881-2.888,3.278-.71,1.397-1.065,2.996-1.065,4.797s.349,3.401,1.047,4.797c.698,1.397,1.644,2.5,2.838,3.311,1.193.811,2.534,1.216,4.021,1.216.833,0,1.622-.13,2.365-.389.743-.258,1.413-.608,2.01-1.047.508-.374.932-.802,1.301-1.266v2.364h4.831v-17.872h-4.764v2.372h0ZM91.247,30.285c-.676.428-1.464.642-2.365.642-.878,0-1.65-.214-2.315-.642s-1.188-1.031-1.571-1.807c-.383-.777-.574-1.683-.574-2.719,0-1.013.191-1.903.574-2.669s.907-1.368,1.571-1.807,1.436-.659,2.315-.659c.9,0,1.689.219,2.365.659s1.199,1.042,1.571,1.807c.372.766.557,1.656.557,2.669,0,1.036-.185,1.943-.557,2.719-.372.777-.895,1.38-1.571,1.807Z"/>
    <path class="st1" d="M115.267,16.501c-.901,0-1.762.214-2.584.642-.823.428-1.537,1.019-2.146,1.773-.222.275-.413.566-.59.864l-.086-2.908h-4.628v17.872h4.831v-9.257c0-.563.096-1.081.287-1.554.191-.473.456-.884.794-1.234.338-.348.737-.619,1.199-.811.461-.19.963-.287,1.503-.287.406,0,.805.051,1.199.152s.715.219.963.355l1.284-5.271c-.248-.09-.552-.169-.912-.237-.361-.068-.732-.101-1.115-.101h0Z"/>
    <path class="st1" d="M136.062,17.312c-.913-.541-2.044-.811-3.396-.811-.991,0-1.937.203-2.838.608-.901.406-1.672.941-2.315,1.605-.158.163-.303.331-.437.504l-.087-2.345h-4.595v17.872h4.797v-10.743c0-.473.096-.912.287-1.317.191-.406.45-.765.777-1.081.327-.315.721-.557,1.183-.727.461-.169.963-.253,1.503-.253.676-.023,1.244.09,1.706.338.461.248.805.642,1.031,1.182.225.541.338,1.217.338,2.028v10.574h4.798v-10.946c0-1.599-.232-2.944-.693-4.037-.463-1.092-1.149-1.909-2.061-2.449h0Z"/>
    <path class="st1" d="M159.439,17.312c-.912-.541-2.044-.811-3.396-.811-.991,0-1.937.203-2.838.608-.901.406-1.672.941-2.315,1.605-.14.145-.267.295-.388.448v-9.417h-4.73v25h4.797v-10.743c0-.473.096-.912.288-1.317.191-.406.45-.765.777-1.081.327-.315.72-.557,1.183-.727.461-.169.962-.253,1.503-.253.677-.023,1.244.09,1.707.338.461.248.804.642,1.031,1.182.224.541.338,1.217.338,2.028v10.574h4.797v-10.946c0-1.599-.232-2.944-.693-4.037-.463-1.092-1.149-1.909-2.061-2.449h0Z"/>
    <path class="st1" d="M182.31,17.7c-1.431-.799-3.047-1.199-4.848-1.199-1.824,0-3.452.4-4.882,1.199-1.431.799-2.556,1.898-3.378,3.294-.823,1.397-1.234,2.996-1.234,4.797s.411,3.402,1.234,4.797c.821,1.397,1.947,2.495,3.378,3.294,1.43.799,3.057,1.199,4.882,1.199,1.802,0,3.418-.399,4.848-1.199,1.43-.799,2.551-1.897,3.361-3.294.811-1.396,1.217-2.995,1.217-4.797s-.406-3.4-1.217-4.797c-.81-1.396-1.931-2.494-3.361-3.294h0ZM181.465,28.409c-.395.778-.941,1.385-1.638,1.824-.699.44-1.487.659-2.365.659-.901,0-1.7-.219-2.398-.659-.698-.439-1.25-1.047-1.655-1.824-.406-.777-.597-1.649-.574-2.618-.023-.991.169-1.869.574-2.635.405-.765.957-1.373,1.655-1.824.698-.45,1.498-.676,2.398-.676.879,0,1.666.219,2.365.659.697.439,1.243,1.047,1.638,1.824.394.777.58,1.66.557,2.651.023.969-.164,1.841-.557,2.618Z"/>
    <path class="st1" d="M206.061,17.7c-1.431-.799-3.047-1.199-4.848-1.199-1.824,0-3.452.4-4.882,1.199-1.431.799-2.556,1.898-3.378,3.294-.823,1.397-1.234,2.996-1.234,4.797s.411,3.402,1.234,4.797c.821,1.397,1.947,2.495,3.378,3.294,1.43.799,3.057,1.199,4.882,1.199,1.802,0,3.418-.399,4.848-1.199,1.43-.799,2.551-1.897,3.361-3.294.811-1.396,1.217-2.995,1.217-4.797s-.406-3.4-1.217-4.797c-.81-1.396-1.931-2.494-3.361-3.294ZM205.216,28.409c-.395.778-.941,1.385-1.638,1.824-.699.44-1.487.659-2.365.659-.901,0-1.7-.219-2.398-.659-.698-.439-1.25-1.047-1.655-1.824-.406-.777-.597-1.649-.574-2.618-.023-.991.169-1.869.574-2.635.405-.765.957-1.373,1.655-1.824.698-.45,1.498-.676,2.398-.676.879,0,1.666.219,2.365.659.697.439,1.243,1.047,1.638,1.824.394.777.58,1.66.557,2.651.023.969-.164,1.841-.557,2.618Z"/>
    <path class="st1" d="M226.685,16.501c-.901,0-1.763.214-2.584.642-.822.428-1.537,1.019-2.145,1.773-.222.275-.414.566-.59.864l-.085-2.907h-4.629v17.872h4.831v-9.257c0-.563.096-1.081.287-1.554.191-.473.456-.884.794-1.234.338-.348.738-.619,1.2-.811.461-.19.962-.287,1.503-.287.405,0,.804.051,1.199.152.394.101.715.219.963.355l1.283-5.271c-.248-.09-.552-.169-.912-.237-.361-.068-.731-.101-1.114-.101h0Z"/>
    <path class="st1" d="M249.539,19.761c-.462-1.092-1.149-1.909-2.061-2.449-.912-.541-2.044-.811-3.395-.811-.991,0-1.937.203-2.838.608-.901.406-1.672.941-2.315,1.605-.158.163-.302.331-.437.503l-.087-2.345h-4.595v17.872h4.797v-10.743c0-.473.096-.912.288-1.317.19-.406.45-.765.777-1.081.326-.315.72-.557,1.182-.727.462-.169.963-.253,1.503-.253.676-.023,1.244.09,1.706.338s.805.642,1.031,1.182c.225.541.338,1.217.338,2.028v10.574h4.797v-10.946c0-1.599-.231-2.944-.693-4.037h0Z"/>
  </g>
  <g>
    <path class="st1" d="M61.772,46.61c-.228-.161-.495-.272-.78-.36.346-.151.651-.346.875-.628.298-.374.446-.823.446-1.347,0-.488-.108-.909-.325-1.266-.216-.357-.526-.631-.927-.825s-.877-.291-1.428-.291h-3.845v9.477h3.981c.46,0,.878-.066,1.252-.196.374-.131.695-.318.962-.562.266-.244.471-.537.616-.88.144-.343.217-.727.217-1.151,0-.415-.093-.79-.278-1.124s-.44-.617-.765-.847h0ZM56.843,42.921h2.613c.56,0,.995.14,1.306.42.311.279.467.65.467,1.11,0,.289-.072.549-.216.779-.145.231-.343.411-.596.542-.253.131-.541.196-.866.196h-2.708v-3.046h0ZM61.454,49.528c-.167.262-.402.463-.704.602s-.657.21-1.063.21h-2.843v-3.344h2.775c.416,0,.779.067,1.09.203.311.136.555.325.73.568.177.244.264.528.264.853,0,.343-.083.646-.25.907h0Z"/>
    <polygon class="st1" points="66.631 51.369 72.346 51.369 72.346 50.34 67.688 50.34 67.688 47.009 71.615 47.009 71.615 45.98 67.688 45.98 67.688 42.921 72.373 42.921 72.373 41.892 66.631 41.892 66.631 51.369"/>
    <path class="st1" d="M83.258,43.219c-.397-.425-.864-.752-1.401-.982-.537-.23-1.131-.345-1.781-.345h-3.575v9.477h3.575c.65,0,1.245-.115,1.787-.345s1.009-.555,1.401-.975c.393-.42.697-.92.914-1.503.216-.582.325-1.221.325-1.916s-.109-1.331-.325-1.909-.523-1.079-.921-1.503h0ZM83.17,48.146c-.167.451-.402.842-.704,1.171-.303.33-.663.583-1.083.758s-.878.264-1.375.264h-2.451v-7.42h2.451c.497,0,.953.087,1.367.264.416.176.776.429,1.083.758s.544.719.711,1.171c.167.452.25.957.25,1.517s-.083,1.065-.25,1.517h0Z"/>
    <path class="st1" d="M93.575,47.259c.433-.248.776-.584,1.03-1.009.252-.424.378-.898.378-1.422,0-.559-.13-1.06-.392-1.503-.263-.442-.617-.792-1.063-1.049-.447-.258-.946-.386-1.496-.386h-3.71v9.477h1.056v-3.737h2.59l2.135,3.737h1.259l-2.273-3.913c.166-.056.333-.109.486-.197h0ZM89.378,42.921h2.519c.388,0,.733.081,1.035.244.303.162.539.388.711.677.171.289.257.619.257.988,0,.343-.072.648-.216.915-.144.266-.343.475-.595.629-.253.153-.547.23-.881.23h-2.83v-3.682h0Z"/>
    <polygon class="st1" points="98.571 42.893 100.101 42.893 100.101 50.367 98.571 50.367 98.571 51.369 102.687 51.369 102.687 50.367 101.157 50.367 101.157 42.893 102.687 42.893 102.687 41.892 98.571 41.892 98.571 42.893"/>
    <path class="st1" d="M109.118,42.893h1.72v5.511c0,.397-.079.751-.237,1.063-.158.311-.379.555-.663.73-.284.177-.612.264-.981.264-.189,0-.373-.022-.549-.067-.177-.045-.347-.122-.514-.23-.168-.109-.335-.253-.501-.433s-.331-.407-.494-.677l-.704.731c.144.262.312.501.501.717.189.217.402.399.637.549s.488.263.758.339c.271.077.56.115.867.115.441,0,.843-.075,1.205-.224.361-.148.672-.359.934-.629s.465-.591.609-.961c.145-.37.217-.772.217-1.205v-5.592h1.394v-1.001h-4.197v1.001h0Z"/>
    <polygon class="st1" points="117.633 41.892 117.106 41.892 117.106 51.369 118.162 51.369 118.162 47.144 122.427 47.144 122.427 46.102 118.162 46.102 118.162 42.921 123.063 42.921 123.063 41.892 118.162 41.892 117.633 41.892"/>
    <path class="st1" d="M132.114,47.003c-.267-.212-.587-.395-.962-.549-.374-.153-.796-.284-1.265-.393-.398-.09-.738-.187-1.022-.291s-.514-.221-.691-.352c-.176-.13-.305-.284-.386-.46s-.121-.376-.121-.602c0-.306.085-.579.257-.819.172-.239.408-.426.711-.561.302-.136.652-.203,1.049-.203.343,0,.657.056.941.169s.546.278.785.494.454.474.643.772l.745-.731c-.216-.352-.474-.655-.772-.907-.297-.253-.638-.444-1.021-.575-.384-.13-.82-.196-1.306-.196-.433,0-.84.063-1.218.189-.379.126-.709.305-.989.535-.279.23-.498.503-.656.819s-.237.659-.237,1.029c0,.388.061.724.183,1.009s.302.535.542.752c.239.216.532.399.88.549s.751.277,1.212.386c.316.081.602.163.859.244s.485.172.684.271c.199.1.365.212.501.339.136.126.237.271.305.433.067.162.101.347.101.555,0,.316-.095.596-.284.839-.189.244-.451.433-.785.568-.335.136-.705.203-1.111.203-.56,0-1.063-.121-1.51-.365-.446-.244-.882-.668-1.306-1.273l-.731.813c.271.397.583.73.934,1.001.352.271.74.474,1.165.609.424.136.875.203,1.354.203.667,0,1.252-.117,1.753-.352.501-.235.892-.562,1.171-.982s.42-.91.42-1.469c0-.361-.07-.681-.21-.961s-.343-.526-.609-.738h0Z"/>
    <path class="st1" d="M141.244,47.408l-3.396-5.516h-1.03v9.477h1.056v-4.332c0-.876-.014-1.631-.041-2.268-.015-.368-.055-.719-.086-1.077l3.091,4.928h.731l3.15-4.944c-.033.388-.073.775-.09,1.167-.027.65-.041,1.381-.041,2.194v4.332h1.056v-9.477h-.962l-3.441,5.516h0Z"/>
    <path class="st1" d="M152.768,41.892l-3.628,9.477h1.083l.99-2.613h4.228l.984,2.613h1.15l-3.601-9.477h-1.206ZM155.051,47.727h-3.45l.922-2.437c.081-.226.163-.451.244-.677.081-.225.163-.454.244-.684s.16-.46.237-.69c.031-.093.06-.184.09-.276.025.075.046.134.072.215.076.235.158.476.244.725.086.248.167.487.244.717.076.23.147.432.21.602l.943,2.505h0Z"/>
    <polygon class="st1" points="168.609 41.892 167.187 41.892 162.123 46.903 162.123 41.892 161.067 41.892 161.067 51.369 162.123 51.369 162.123 48.208 163.809 46.566 167.417 51.369 168.744 51.369 164.549 45.846 168.609 41.892"/>
    <polygon class="st1" points="172.29 51.369 178.005 51.369 178.005 50.34 173.347 50.34 173.347 47.009 177.273 47.009 177.273 45.98 173.347 45.98 173.347 42.921 178.032 42.921 178.032 41.892 172.29 41.892 172.29 51.369"/>
    <polygon class="st1" points="183.217 41.892 182.161 41.892 182.161 51.369 187.766 51.369 187.766 50.34 183.217 50.34 183.217 41.892"/>
    <path class="st1" d="M194.157,41.892l-3.628,9.477h1.083l.99-2.613h4.228l.984,2.613h1.15l-3.601-9.477h-1.206ZM196.441,47.727h-3.45l.922-2.437c.081-.226.163-.451.244-.677.081-.225.163-.454.244-.684s.16-.46.237-.69c.031-.093.06-.184.09-.276.025.075.046.134.072.215.076.235.158.476.244.725.086.248.167.487.244.717.076.23.147.432.21.602l.943,2.505h0Z"/>
    <path class="st1" d="M205.029,41.892l-3.628,9.477h1.083l.99-2.613h4.228l.984,2.613h1.15l-3.601-9.477h-1.206ZM207.312,47.727h-3.45l.922-2.437c.081-.226.163-.451.244-.677.081-.225.163-.454.244-.684s.16-.46.237-.69c.031-.093.06-.184.09-.276.025.075.046.134.072.215.076.235.158.476.244.725.086.248.167.487.244.717.076.23.147.432.21.602l.943,2.505h0Z"/>
    <path class="st1" d="M218.581,47.259c.433-.248.776-.584,1.03-1.009.252-.424.378-.898.378-1.422,0-.559-.13-1.06-.392-1.503-.263-.442-.617-.792-1.063-1.049-.447-.258-.946-.386-1.496-.386h-3.71v9.477h1.056v-3.737h2.59l2.135,3.737h1.259l-2.273-3.913c.166-.056.333-.109.486-.197h0ZM214.384,42.921h2.519c.388,0,.733.081,1.035.244.303.162.539.388.711.677.171.289.257.619.257.988,0,.343-.072.648-.216.915-.144.266-.343.475-.595.629-.253.153-.547.23-.881.23h-2.83v-3.682Z"/>
    <path class="st1" d="M230.779,43.219c-.397-.425-.864-.752-1.4-.982-.537-.23-1.131-.345-1.781-.345h-3.575v9.477h3.575c.65,0,1.245-.115,1.787-.345s1.009-.555,1.401-.975c.393-.42.697-.92.914-1.503.216-.582.325-1.221.325-1.916s-.109-1.331-.325-1.909-.523-1.079-.921-1.503h0ZM230.692,48.146c-.167.451-.402.842-.704,1.171-.303.33-.663.583-1.083.758s-.878.264-1.375.264h-2.451v-7.42h2.451c.497,0,.953.087,1.367.264.416.176.776.429,1.083.758s.544.719.711,1.171c.167.452.25.957.25,1.517s-.083,1.065-.25,1.517h0Z"/>
    <polygon class="st1" points="235.193 42.893 236.724 42.893 236.724 50.367 235.193 50.367 235.193 51.369 239.309 51.369 239.309 50.367 237.779 50.367 237.779 42.893 239.309 42.893 239.309 41.892 235.193 41.892 235.193 42.893"/>
    <path class="st1" d="M245.741,41.892v1.001h1.72v5.511c0,.397-.079.751-.237,1.063-.158.311-.379.555-.663.73-.284.177-.612.264-.981.264-.189,0-.373-.022-.549-.067-.177-.045-.347-.122-.514-.23-.168-.109-.335-.253-.501-.433s-.331-.407-.494-.677l-.704.731c.144.262.312.501.501.717.189.217.402.399.637.549s.488.263.758.339c.271.077.56.115.867.115.441,0,.843-.075,1.205-.224.361-.148.672-.359.934-.629s.465-.591.609-.961c.145-.37.217-.772.217-1.205v-5.592h1.394v-1.001h-4.197,0Z"/>
  </g>
  <path class="st0" d="M35.892,50.929c-6.281,5.083-14.29,7.915-22.367,8.069-3.028.03-6.069-.277-9.034-.945l7.694-15.682c2.798.414,5.681.272,8.429-.437,2.616-.715,5.155-1.907,7.323-3.561,3.946-2.824,6.361-7.412,6.494-12.33.199-5.938-3.129-12.42-8.844-14.739-4.886-2.087-11.227-.813-14.85,3.192-3.63,3.981-3.34,10.49.499,14.254,1.383,1.369,3.334,2.244,5.321,2.361.106.004.334.025.435.031.075.006.577-.021.71-.022h.018c.165.01.414-.049.58-.062.336-.017.819-.151,1.154-.221.269-.08.567-.192.841-.271.177-.081.627-.281.813-.361.176-.101.607-.35.778-.442.15-.113.575-.412.734-.524.35-.298.699-.617.997-.969,1.549-1.845,1.934-4.517,1.046-6.763-.869-2.187-2.816-3.855-5.304-3.857-.98-.006-1.994.246-2.852.742l-.264.149c-.12.095-.373.266-.494.357-.074.062-.248.22-.322.278-.059.063-.226.248-.289.311-1.574,1.811-1.266,4.853.685,6.281,1.374,1.057,3.534.804,4.697-.383.302-.305.536-.674.673-1.097-.104.164-.225.316-.359.457-.593.618-1.439.986-2.361.935-1.329-.074-2.406-.993-2.749-2.206-.124-.338-.186-.708-.166-1.093.179-3.092,4.276-4.075,6.279-1.913,1.787,1.802,1.723,4.893-.124,6.653-.846.805-1.808,1.31-2.802,1.548-2.756.661-5.745-.749-7.118-3.598-1.325-2.65-.866-5.998,1.091-8.24.113-.126.41-.428.527-.553.212-.196.524-.45.744-.639.375-.266.83-.592,1.241-.801,4.703-2.555,10.365-.718,13.078,3.811,2.644,4.251,2.212,9.905-.998,13.749-.49.629-1.186,1.265-1.797,1.781l-.38.319-.402.286-.82.564-.868.488c-.57.324-1.211.577-1.817.826l-.953.307c-1.909.576-3.907.742-5.862.532-3.423-.367-6.723-1.887-9.191-4.378C-2.272,25.557-1.627,12.919,6.458,5.895,14.616-1.554,27.659-1.962,36.447,4.776c7.029,5.342,11.135,14.147,11.011,22.944-.063,9.132-4.422,17.578-11.566,23.209Z"/>
</svg>