<?xml version="1.0" encoding="utf-8"?>
<!-- Generator: Adobe Illustrator 27.5.0, SVG Export Plug-In . SVG Version: 6.00 Build 0)  -->
<svg version="1.1" id="Laag_1" xmlns="http://www.w3.org/2000/svg" xmlns:xlink="http://www.w3.org/1999/xlink" x="0px" y="0px"
	 viewBox="0 0 149 51" style="enable-background:new 0 0 149 51;" xml:space="preserve">
<style type="text/css">
	.st0{clip-path:url(#SVGID_00000135663348774632794030000007895865176960499384_);}
	.st1{fill:#000316;}
	.st2{fill:#272727;}
</style>
<g>
	<defs>
		<rect id="SVGID_1_" y="0" width="149" height="51"/>
	</defs>
	<clipPath id="SVGID_00000134948614607837568080000018399298624450204600_">
		<use xlink:href="#SVGID_1_"  style="overflow:visible;"/>
	</clipPath>
	<g style="clip-path:url(#SVGID_00000134948614607837568080000018399298624450204600_);">
		<path class="st1" d="M0,44.9V9.3h6.1V15c0,0.3,0.1,0.4,0.4,0.4c0.3,0,0.5-0.1,0.6-0.4c2-4,5.1-6.8,11.9-6.8
			c8.5,0,13.6,5.1,13.6,14.4v22.3h-6.1V23.7c0-6.5-3.4-9.9-9.5-9.9c-6.8,0-10.9,4.1-10.9,12.7v18.5L0,44.9L0,44.9z"/>
		<path class="st1" d="M76.8,27.1c0,12.3-8.2,18.9-18.4,18.9c-10.3,0-18.4-6.5-18.4-18.9c0-12.3,8.2-18.9,18.4-18.9
			C68.6,8.3,76.8,14.8,76.8,27.1z M46.1,27.1c0,8.6,5.1,13.4,12.2,13.4s12.2-4.8,12.2-13.4c0-8.6-5.1-13.4-12.2-13.4
			S46.1,18.5,46.1,27.1z"/>
		<path class="st1" d="M148.7,20.6h-6.3c-0.5-4.9-3.7-7.1-9.5-7.1c-5.7,0-8.1,2.2-8.1,5.1s2.1,4,6.9,4.9l5,1
			c6.5,1.2,12.1,3.4,12.1,10.4s-5.4,11-14.5,11c-9.1,0-16-4-16.5-12.5h6.2c0.5,4.7,4.4,7.2,10.3,7.2c5.9,0,8.4-2.3,8.4-5.4
			c0-3.1-2.4-4.1-7.3-5.1l-5-1c-6.9-1.3-11.7-3.7-11.7-10.5c0-6.9,5.9-10.5,14.2-10.5C141.4,8.3,148,11.9,148.7,20.6L148.7,20.6z"/>
		<path class="st2" d="M78.9,51v-2.5l0.1-0.1L92,26.6L79.8,15.7v-2.1l7.1-2.8l10,9.3c0,0,0,0,0,0c0.2-0.1,0.2-0.2,0.3-0.3l9.9-16.9
			l7.4-2.9v2.5l-12.8,21.4L114.2,35v2.1l-7.2,2.8l-10.2-9.5c0,0,0,0,0,0c-0.2,0.1-0.2,0.2-0.3,0.3L86.3,48.1L78.9,51L78.9,51z
			 M80.1,48.9v0.3l5.4-2.1l10-17c0.2-0.3,0.5-0.7,1-0.9c0.7-0.3,1.1,0.1,1.3,0.2l9.7,9l5.6-2.2v-0.7l-12.8-11.4l13.2-22V1.8
			l-5.3,2.1l-9.7,16.5c-0.2,0.3-0.5,0.7-1,0.9c-0.7,0.3-1.1-0.1-1.3-0.2l-9.5-8.8L81,14.5v0.7l12.6,11.2L80.1,48.9L80.1,48.9z"/>
	</g>
</g>
</svg>
