<?xml version="1.0" encoding="utf-8"?>
<!-- Generator: Adobe Illustrator 22.1.0, SVG Export Plug-In . SVG Version: 6.00 Build 0)  -->
<svg version="1.1" id="Laag_1" xmlns="http://www.w3.org/2000/svg" xmlns:xlink="http://www.w3.org/1999/xlink" x="0px" y="0px"
	 viewBox="0 0 443.1 224.5" style="enable-background:new 0 0 443.1 224.5;" xml:space="preserve">
<style type="text/css">
	.st0{fill:#E43027;}
	.st1{fill:#FFFFFF;}
</style>
<g>
	<path class="st0" d="M19.1,64.2L15.4,83H0L17.8,1h19.1l15.9,82H37.3l-3.5-18.8H19.1z M32.3,51.8l-2.7-17.2c-0.9-5-2-13.1-2.7-18.6
		h-0.4c-0.8,5.5-2.1,14-2.9,18.7l-3,17L32.3,51.8z"/>
	<path class="st0" d="M61.8,1h15.9v68.5h21V83h-37L61.8,1z"/>
	<path class="st0" d="M108,1h16v68.5h21V83h-37V1z"/>
	<path class="st0" d="M154.2,2.2c5.7-1.1,11.6-1.6,17.4-1.6c8.8,0,16.5,1.2,21.9,6.1c5,4.5,6.4,10,6.4,17c0,8.8-4.3,16.7-12.7,20.6
		v0.2c5.6,2.2,8.4,7.4,10,16.2c1.6,9.1,3.8,19.2,5.2,22.3h-16.7c-1-2.3-2.8-10.6-4-19.6c-1.5-10.2-4-13.2-9.4-13.2H170V83h-15.9V2.2
		H154.2z M170.2,38h2.8c6.9,0,10.9-5.6,10.9-12.8c0-6.9-2.8-11.9-10-12.2c-1.3-0.1-2.5,0.1-3.8,0.5V38H170.2z"/>
	<path class="st0" d="M259.8,40.5c0,30.9-10.9,43.4-26.5,43.4c-18.6,0-25.9-19.7-25.9-42.2S216.3,0,234.4,0
		C254.2,0,259.8,21.8,259.8,40.5z M223.9,42c0,18.6,3.5,28.1,10,28.1c6.7,0,9.2-12.2,9.2-28.8c0-14.4-2.2-27.4-9.4-27.4
		C227.5,13.9,223.9,24.3,223.9,42z"/>
	<path class="st0" d="M285.4,1v53.3c0,12,3.6,15.7,7.8,15.7c4.6,0,7.9-3.3,7.9-15.7V1h16v50.5c0,21-7.9,32.5-23.7,32.5
		c-17.1,0-23.8-11.8-23.8-32.4V1H285.4z"/>
	<path class="st0" d="M330.7,83V1h14.6L358,33.1c2.4,6.3,6.5,16.8,8.8,24h0.2c-0.5-8.6-1.6-22.9-1.6-38V1h14v82h-14.6l-12.5-31.2
		c-2.7-6.9-6.5-17.3-8.3-24.7h-0.2c0.4,8.3,1,20.9,1,37.5V83H330.7z"/>
	<path class="st0" d="M393.5,2.2c5.3-1.1,10.7-1.7,16.2-1.6c10.3,0,17.5,2.4,22.7,7.3c7.1,6.3,10.7,17.1,10.7,33.1
		c0,16.5-4.3,28.3-11.4,34.7c-5.5,5.3-13.6,7.9-25.1,7.9c-4.4,0-8.8-0.3-13.1-0.8L393.5,2.2L393.5,2.2z M409.4,70.3
		c0.9,0.2,1.9,0.3,2.8,0.2c7.7,0,14.4-7.5,14.4-30.2c0-16.8-4.4-27-14-27c-1.1-0.1-2.1,0.1-3.2,0.4L409.4,70.3z"/>
	<path class="st1" d="M46.8,138.5c-0.5-9.3-1-19.6-0.7-27.5h-0.4c-1.6,7.8-3.4,16.2-5.6,24.4l-8.6,32.9h-5.1L18,136.7
		c-2.3-9-4.4-17.6-5.7-25.7H12c0,8.2-0.4,18-0.8,28l-1.4,29.7H2.6l4.2-70.2h8.6l8.2,32.1c2.4,9.3,4.2,16.1,5.6,24.2h0.3
		c1.4-8,2.9-14.7,5.2-24.2l7.9-32.1h9l4.1,70.2h-7.5L46.8,138.5z"/>
	<path class="st1" d="M74.4,147.7l-4.7,21H62l16-70.2h8.9l15.6,70.2h-7.9l-4.7-21H74.4z M88.9,141.2l-3.6-17.8c-1-5-2-10.8-2.8-16
		H82c-0.8,5.3-1.9,11.4-2.8,16.1l-3.7,17.8L88.9,141.2L88.9,141.2z"/>
	<path class="st1" d="M111.3,98.5h8v33.3h0.2c1.6-2.9,3-5.7,4.4-8.4L137,98.5h8.9l-17.2,30l17.6,40.2h-8.6l-14.4-33.9l-4,6.8v27.1
		h-8L111.3,98.5z"/>
	<path class="st1" d="M179,135.4h-17.6v26.4h20v7h-28V98.5h26.8v7h-18.8v23.1H179V135.4z"/>
	<path class="st1" d="M190.3,98.5h8V162h19.8v6.8h-27.8V98.5z"/>
	<path class="st1" d="M234.9,147.7l-4.7,21h-7.7l16.1-70.2h8.9l15.6,70.3h-7.9l-4.7-21L234.9,147.7z M249.3,141.2l-3.6-17.8
		c-1.1-5-2-10.8-2.8-16h-0.4c-0.8,5.3-1.9,11.4-2.8,16.1l-3.7,17.8L249.3,141.2L249.3,141.2z"/>
	<path class="st1" d="M280.2,147.7l-4.7,21h-7.7l16-70.2h8.9l15.6,70.2h-7.9l-4.7-21H280.2z M294.7,141.2l-3.7-17.8
		c-1-5-2-10.8-2.8-16h-0.4c-0.8,5.3-1.9,11.4-2.8,16.1l-3.6,17.8L294.7,141.2L294.7,141.2z"/>
	<path class="st1" d="M317.1,99.5c3.8-0.9,7.7-1.4,11.6-1.4c7,0,12.2,1.5,15.8,5c3.4,3.6,4.9,8.2,4.9,13.8c0,9-4.2,14.8-11.3,18v0.2
		c5.2,1.6,7.9,6.6,9.5,15.7c1.6,9.7,3,15.6,4,17.8h-8.1c-1-2.1-2.4-8.8-3.8-17.4c-1.6-9.6-4.6-13.2-11.5-13.2h-3.1v30.7h-8V99.5z
		 M325.1,131.9h3.3c7.7,0,12.8-5.6,12.8-14.1c0-8.1-3.3-13.1-12-13.2c-1.4,0-2.8,0.1-4.2,0.4L325.1,131.9z"/>
	<path class="st1" d="M359.7,99.5c3.5-1,7.2-1.4,10.8-1.4c7.4,0,12.6,1.9,16.5,5.3c5.4,4.7,9.5,13.8,9.5,28.4c0,16-4,24.8-8.4,29.6
		c-4.6,5.2-11.3,7.6-19.4,7.6c-3,0.1-6-0.2-9-0.7V99.5z M367.7,162.1c1,0.2,2,0.2,3,0.2c8.9,0,17.4-6.4,17.4-30.2
		c0-17.7-5.4-27.4-16.7-27.4c-1.3,0-2.5,0.1-3.8,0.4L367.7,162.1z"/>
	<path class="st1" d="M414.1,98.5v70.2h-8V98.5H414.1z"/>
	<path class="st1" d="M434.5,98.5h8v50.4c0,15.7-6.4,20.6-16.5,20.6c-1.8,0.1-3.5-0.2-5.2-0.7l0.7-6.8c1.3,0.3,2.6,0.5,3.9,0.4
		c5.7,0,9.1-2.3,9.1-13.4V98.5z"/>
</g>
<g>
	<g>
		<path class="st1" d="M278.9,191.8L278.9,191.8v0.9v17.5h-2.4v-22h3.6l5.6,18.1l5.6-18.1h3.3v22h-2.4v-17.5v-0.9l0,0l-5.6,18.4
			h-1.8L278.9,191.8z"/>
		<path class="st1" d="M306.5,187.6c3.9,0,8.3,2.7,8.3,11.6c0,11.6-7.4,11.6-8.3,11.6c-1.2,0-8.3-0.3-8.3-11.6
			C297.9,191.5,301.4,187.6,306.5,187.6z M306.5,208.4c1.2,0,5.9-0.3,5.9-9.2c0-5-1.8-9.2-5.9-9.2c-5.3,0-5.9,6.8-5.9,9.2
			C300.6,202.8,301.4,208.4,306.5,208.4z"/>
		<path class="st1" d="M329.7,197.7v2.4h-9.2v7.7h10.4v2.4h-13.1v-22h12.8v2.4h-10.4v6.8h9.5V197.7z"/>
		<path class="st1" d="M333.5,188.2h7.7c1.8,0,5.9,0.3,5.9,5.9c0,2.4-1.2,5-3,5.3l0,0c2.4,1.2,2.4,3,2.7,5.3c0,3,0,3.9,0.6,5.3H345
			c-0.6-0.9-0.6-1.8-0.6-4.8c0-2.4-0.3-4.8-3.3-4.8h-5v9.2h-2.4v-21.7h-0.2V188.2z M335.9,198.6h5.3c1.2,0,3.6-0.6,3.6-3.9
			c0-3-1.5-3.9-3.9-3.9h-5V198.6z"/>
		<path class="st1" d="M365.9,198.9v11.6h-1.8v-3.6l0,0c-0.9,2.7-3,4.2-5.9,4.2c-4.2,0-8.3-3-8.3-11.9c0-7.4,3.3-11.3,8.6-11.3
			c4.8,0,6.8,3.6,7.1,7.1h-2.4c0-2.1-1.2-4.8-4.8-4.8c-5.6,0-5.9,6.5-5.9,8.9c0,1.5,0.3,9.2,5.9,9.2c4.5,0,5.3-4.5,5.3-7.1h-5v-2.4
			L365.9,198.9L365.9,198.9z"/>
		<path class="st1" d="M381.2,197.7v2.4H372v7.7h10.4v2.4h-13v-22h12.8v2.4h-10.5v6.8h9.5V197.7z"/>
		<path class="st1" d="M386.3,203.4c0,3,1.8,5,5,5c3.3,0,4.5-2.1,4.5-4.2c0-2.7-1.8-3.6-3.6-3.9c-4.2-1.2-7.7-1.5-7.7-6.5
			c0-4.2,2.7-6.2,6.8-6.2c4.5,0,6.2,3,6.5,6.2h-2.4c-0.3-3.6-3-3.9-4.2-3.9c-2.4,0-4.2,1.5-4.2,3.6c0,2.7,2.1,3,4.5,3.6
			c3.3,0.9,6.8,1.5,6.8,6.8c0,6.5-5.6,6.5-7.1,6.5c-2.7,0-7.1-0.6-7.4-7.7h2.4L386.3,203.4L386.3,203.4z"/>
		<path class="st1" d="M399.7,190.9v-2.7h14v2.4h-5.6v19.6h-2.4v-19.6h-5.9L399.7,190.9L399.7,190.9z"/>
		<path class="st1" d="M427.9,197.7v2.4h-9.2v7.7h10.4v2.4h-12.8v-22h12.8v2.4h-10.4v6.8h9.2V197.7z"/>
		<path class="st1" d="M443,210.2h-11.3v-22h2.4v19.6h8.9V210.2L443,210.2z"/>
	</g>
	<g>
		<path class="st1" d="M132.4,184.4h1.5v33h-1.5V184.4z"/>
		<path class="st1" d="M145.5,190.9v-2.7h14v2.4h-5.7v19.6h-2.4v-19.6h-5.9L145.5,190.9L145.5,190.9z"/>
		<path class="st1" d="M164.2,188.2v22h-2.4v-22H164.2z"/>
		<path class="st1" d="M179.9,210.2h-11.3v-22h2.4v19.6h8.9L179.9,210.2L179.9,210.2z"/>
		<path class="st1" d="M189.7,188.2c4.2,0,5.3,3,5.3,5.6c0,2.4-1.2,4.5-3,4.8l0,0c1.5,0.3,3.9,1.5,3.9,5.3c0,3.3-1.2,6.2-6.2,6.2
			h-7.4v-22L189.7,188.2L189.7,188.2z M184.4,197.7h4.8c2.7,0,3.6-1.5,3.6-3.6c0-1.2-0.3-3.6-3.3-3.6h-4.8v7.1L184.4,197.7
			L184.4,197.7z M184.4,207.8h5c1.8,0,4.2-0.3,4.2-3.9c0-3-1.5-3.9-4.2-3.9h-5V207.8z"/>
		<path class="st1" d="M201.6,188.2v13.1c0,2.7,0.3,7.1,4.8,7.1c3.6,0,4.8-2.4,4.8-7.1v-13.1h2.4v13.4c0,8.9-5,9.2-7.1,9.2
			c-6.5,0-7.1-5.3-7.1-9.2v-13.4H201.6z"/>
		<path class="st1" d="M217.1,188.2h7.7c1.8,0,5.9,0.3,5.9,5.9c0,2.4-1.2,5-3,5.3l0,0c2.4,1.2,2.4,3,2.7,5.3c0,3,0,3.9,0.6,5.3h-2.4
			c-0.6-0.9-0.6-1.8-0.6-4.8c0-2.4-0.3-4.8-3.3-4.8h-5.3v9.2H217L217.1,188.2L217.1,188.2z M219.4,198.6h5.3c1.2,0,3.6-0.6,3.6-3.9
			c0-3-1.5-3.9-3.9-3.9h-5V198.6z"/>
		<path class="st1" d="M249.4,198.9v11.6h-1.8v-3.6l0,0c-0.9,2.7-3,4.2-5.9,4.2c-4.2,0-8.3-3-8.3-11.9c0-7.4,3.3-11.3,8.6-11.3
			c4.8,0,6.8,3.6,7.1,7.1h-2.3c0-2.1-1.2-4.8-4.8-4.8c-5.6,0-5.9,6.5-5.9,8.9c0,1.5,0.3,9.2,5.9,9.2c4.5,0,5.3-4.5,5.3-7.1h-5v-2.4
			L249.4,198.9L249.4,198.9z"/>
		<path class="st1" d="M262.2,184.4h1.5v33h-1.5V184.4z"/>
	</g>
	<g>
		<path class="st1" d="M8.6,210.2h-3l-4.8-22h2.7l3.6,18.4l3.6-18.4h2.7l3.6,18.4l3.6-18.4h2.7l-4.8,22h-3l-3.6-18.4L8.6,210.2z"/>
		<path class="st1" d="M24.9,210.2h-2.7l6.8-22h2.7l6.8,22h-2.6l-1.8-5.6h-7.4L24.9,210.2z M33.5,202.2l-3-10.7l-3,10.7H33.5z"/>
		<path class="st1" d="M40.6,210.2h-2.7l6.8-22h2.7l6.8,22h-2.7l-1.8-5.6h-7.4L40.6,210.2z M49.2,202.2l-3-10.7l-3,10.7H49.2z"/>
		<path class="st1" d="M67.6,210.2H56.3v-22h2.4v19.6h8.9V210.2z"/>
		<path class="st1" d="M74.1,210.2h-3l-4.8-22H69l3.6,18.4l3.6-18.4h2.7l3.6,18.4l3.6-18.4h2.7l-4.8,22h-3l-3.6-18.4L74.1,210.2z"/>
		<path class="st1" d="M92.9,188.2v22h-2.4v-22H92.9z M97.6,203.1c0,3.6,0.6,5.3,3,5.3c2.7,0,3-2.4,3-5.3v-14.9h2.4v14.3
			c0,5.6-1.5,8.3-5.3,8.3c-1.8,0-5.3-0.6-5.3-6.8v-0.9L97.6,203.1L97.6,203.1z"/>
		<path class="st1" d="M121.1,188.2h3.3l-7.4,8.9l8,13.1h-3.3l-6.5-11l-3,3.6v7.4h-2.4v-22h2.4v11L121.1,188.2z"/>
	</g>
</g>
</svg>
