<?xml version="1.0" encoding="utf-8"?>
<!-- Generator: Adobe Illustrator 19.1.0, SVG Export Plug-In . SVG Version: 6.00 Build 0)  -->
<svg version="1.1" id="Laag_1" xmlns="http://www.w3.org/2000/svg" xmlns:xlink="http://www.w3.org/1999/xlink" x="0px" y="0px"
	 viewBox="-71 183.4 282.8 37.3" style="enable-background:new -71 183.4 282.8 37.3;" xml:space="preserve">
<style type="text/css">
	.st0{fill:#FFFFFF;}
	.st1{fill:none;stroke:#FFFFFF;stroke-width:0.552;stroke-miterlimit:10;}
</style>
<g>
	<path class="st0" d="M-59.5,220.7c-1,0-1.8-0.1-2.6-0.2c-0.7-0.1-1.4-0.3-2-0.4c-1.7-0.5-3.1-1.3-4-2.4c-0.9-1.1-1.6-2.3-2-3.7
		s-0.7-2.9-0.8-4.5c-0.1-1.6-0.1-3.2-0.1-4.8v-0.3c0-2.3,0.1-4.2,0.2-5.7c0.2-1.5,0.4-2.7,0.6-3.6c0.2-0.9,0.6-1.7,0.9-2.2
		c0.4-0.5,0.7-1,1.1-1.5c0.5-0.6,1.1-1.1,1.8-1.4c0.7-0.4,1.4-0.7,2.1-0.9c0.7-0.2,1.5-0.4,2.3-0.5c0.8-0.1,1.5-0.1,2.3-0.1
		c1.6,0,3.2,0.2,4.8,0.7c1.5,0.4,2.8,1.2,3.9,2.3c0.2,0.3,0.5,0.6,0.7,0.8c0.2,0.3,0.4,0.6,0.6,1c-0.6,0.1-1,0.1-1.4,0.2
		c-0.4,0.1-0.7,0.1-1.1,0.2c-0.4-0.6-0.8-1.1-1.4-1.5c-0.6-0.4-1.2-0.7-1.8-0.9c-0.7-0.2-1.3-0.4-2-0.4c-0.7-0.1-1.4-0.1-2-0.1
		c-0.7,0-1.4,0.1-2,0.1c-0.6,0.1-1.2,0.2-1.8,0.4c-0.6,0.2-1.1,0.4-1.6,0.7c-0.5,0.3-1,0.7-1.4,1.1c-0.2,0.2-0.5,0.5-0.7,0.9
		c-0.2,0.4-0.5,0.9-0.7,1.7c-0.2,0.8-0.4,1.9-0.6,3.3c-0.2,1.4-0.2,3.3-0.2,5.6v0.3c0,2.3,0.1,4.1,0.2,5.5c0.2,1.4,0.3,2.5,0.6,3.3
		c0.2,0.8,0.5,1.4,0.7,1.8c0.2,0.4,0.5,0.6,0.7,0.9c0.9,0.9,1.9,1.5,3,1.8c1.1,0.3,2.3,0.4,3.7,0.5c0.7,0,1.4-0.1,2.1-0.2
		c0.7-0.1,1.4-0.2,2.1-0.4c0.7-0.2,1.3-0.5,1.8-0.9c0.6-0.4,1-0.9,1.4-1.4c0.5,0.1,0.9,0.1,1.3,0.1c0.4,0,0.8,0.1,1.2,0.1
		c-0.6,1.1-1.3,2-2.2,2.7c-0.9,0.7-2,1.3-3.2,1.6c-0.6,0.2-1.3,0.3-2,0.4C-57.8,220.6-58.6,220.7-59.5,220.7z"/>
	<path class="st0" d="M-34.1,220.7c-1.7,0-3.3-0.2-4.8-0.7c-1.5-0.4-2.8-1.1-3.8-2.2c-0.4-0.4-0.8-0.9-1.1-1.5
		c-0.3-0.5-0.6-1.3-0.9-2.2c-0.2-0.9-0.5-2.2-0.6-3.7c-0.2-1.5-0.2-3.4-0.2-5.7v-0.3c0-2.3,0.1-4.1,0.2-5.6c0.2-1.5,0.4-2.7,0.6-3.7
		c0.3-1,0.6-1.7,0.9-2.3c0.3-0.6,0.7-1.1,1-1.5c1-1.1,2.3-1.8,3.8-2.3c1.5-0.4,3.1-0.7,4.8-0.7c1.6,0,3.2,0.2,4.8,0.6
		c1.6,0.4,2.8,1.2,3.8,2.4c0.4,0.4,0.8,0.9,1.1,1.5c0.3,0.5,0.6,1.3,0.9,2.2c0.2,0.9,0.4,2.1,0.6,3.6c0.2,1.5,0.2,3.4,0.2,5.7v0.3
		c0,2.3-0.1,4.2-0.2,5.7c-0.2,1.5-0.4,2.7-0.6,3.7c-0.2,0.9-0.5,1.7-0.9,2.2c-0.3,0.5-0.7,1-1.1,1.5c-0.5,0.6-1.1,1-1.8,1.4
		c-0.7,0.4-1.4,0.7-2.2,0.9c-0.8,0.2-1.5,0.4-2.3,0.5C-32.6,220.6-33.4,220.7-34.1,220.7z M-34.1,218.4c1.4,0,2.6-0.1,3.7-0.4
		c1.1-0.3,2.1-0.9,3.1-1.9c0.2-0.2,0.5-0.5,0.7-0.9c0.2-0.4,0.5-0.9,0.7-1.7c0.2-0.8,0.4-1.9,0.6-3.3c0.2-1.4,0.2-3.2,0.2-5.5v-0.3
		c0-2.3-0.1-4.1-0.2-5.5c-0.2-1.4-0.3-2.5-0.6-3.3c-0.2-0.8-0.5-1.4-0.7-1.7c-0.2-0.4-0.5-0.6-0.7-0.9c-1-0.9-2.1-1.5-3.2-1.8
		c-1.1-0.3-2.3-0.4-3.6-0.4c-1.3,0-2.5,0.1-3.6,0.4c-1.1,0.3-2.1,0.9-3.1,1.8c-0.2,0.2-0.5,0.5-0.7,0.9c-0.2,0.4-0.5,0.9-0.7,1.7
		c-0.2,0.8-0.4,1.9-0.6,3.3c-0.2,1.4-0.2,3.2-0.2,5.5v0.3c0,2.3,0.1,4.1,0.2,5.5c0.1,1.4,0.3,2.5,0.5,3.3c0.2,0.8,0.5,1.4,0.7,1.7
		c0.3,0.4,0.5,0.6,0.7,0.9c0.9,0.9,1.9,1.6,3,1.9C-36.7,218.3-35.5,218.4-34.1,218.4z"/>
	<path class="st0" d="M-17.9,220.2V189h14.6c3,0,5.3,0.8,6.8,2.5c1.5,1.7,2.2,4,2.2,6.8c0,1.6-0.2,3-0.7,4.1c-0.5,1.1-1.2,2-2.1,2.7
		c-0.9,0.7-1.9,1.2-3.2,1.4c-1.2,0.3-2.6,0.4-4.1,0.4c0.7,1,1.5,2,2.4,3.1c0.8,1.1,1.7,2.3,2.5,3.4c0.9,1.2,1.7,2.3,2.6,3.5
		c0.9,1.1,1.7,2.2,2.5,3.3H2.4l-10-13.3h-7.9v13.3H-17.9z M-15.5,191.4v13.1h12.2c0.9,0,1.8-0.1,2.6-0.3c0.8-0.2,1.5-0.5,2.1-1
		c0.6-0.5,1.1-1.2,1.4-2c0.4-0.9,0.5-1.9,0.5-3.3c0-1.3-0.2-2.3-0.5-3.2c-0.3-0.8-0.8-1.5-1.4-2c-0.6-0.5-1.3-0.8-2.1-1
		c-0.8-0.2-1.7-0.3-2.6-0.3H-15.5z"/>
	<path class="st0" d="M24.9,189c2.8,0,5,0.8,6.6,2.4c1.6,1.6,2.4,3.8,2.4,6.7c0,2.9-0.8,5.2-2.3,6.9c-1.5,1.7-3.8,2.5-6.8,2.5H12.8
		v12.8h-2.4V189H24.9z M12.8,191.4V205H25c2.3,0,3.9-0.6,5-1.8c1.1-1.2,1.6-2.9,1.6-5c0-2.2-0.6-3.9-1.7-5c-1.2-1.1-2.8-1.7-4.9-1.8
		H12.8z"/>
	<path class="st0" d="M49.7,220.7c-1.7,0-3.3-0.2-4.8-0.7c-1.5-0.4-2.8-1.1-3.8-2.2c-0.4-0.4-0.8-0.9-1.1-1.5
		c-0.3-0.5-0.6-1.3-0.9-2.2c-0.2-0.9-0.5-2.2-0.6-3.7c-0.2-1.5-0.2-3.4-0.2-5.7v-0.3c0-2.3,0.1-4.1,0.2-5.6c0.2-1.5,0.4-2.7,0.6-3.7
		c0.3-1,0.6-1.7,0.9-2.3c0.3-0.6,0.7-1.1,1-1.5c1-1.1,2.3-1.8,3.8-2.3c1.5-0.4,3.1-0.7,4.8-0.7c1.6,0,3.2,0.2,4.8,0.6
		s2.8,1.2,3.8,2.4c0.4,0.4,0.8,0.9,1.1,1.5c0.3,0.5,0.6,1.3,0.9,2.2c0.2,0.9,0.4,2.1,0.6,3.6c0.2,1.5,0.2,3.4,0.2,5.7v0.3
		c0,2.3-0.1,4.2-0.2,5.7c-0.2,1.5-0.4,2.7-0.6,3.7c-0.2,0.9-0.5,1.7-0.9,2.2c-0.3,0.5-0.7,1-1.1,1.5c-0.5,0.6-1.1,1-1.8,1.4
		c-0.7,0.4-1.4,0.7-2.2,0.9c-0.8,0.2-1.5,0.4-2.3,0.5C51.2,220.6,50.5,220.7,49.7,220.7z M49.7,218.4c1.4,0,2.6-0.1,3.7-0.4
		c1.1-0.3,2.1-0.9,3.1-1.9c0.2-0.2,0.5-0.5,0.7-0.9c0.2-0.4,0.5-0.9,0.7-1.7c0.2-0.8,0.4-1.9,0.6-3.3c0.2-1.4,0.2-3.2,0.2-5.5v-0.3
		c0-2.3-0.1-4.1-0.2-5.5c-0.2-1.4-0.3-2.5-0.6-3.3c-0.2-0.8-0.5-1.4-0.7-1.7c-0.2-0.4-0.5-0.6-0.7-0.9c-1-0.9-2.1-1.5-3.2-1.8
		c-1.1-0.3-2.3-0.4-3.6-0.4c-1.3,0-2.5,0.1-3.6,0.4c-1.1,0.3-2.1,0.9-3.1,1.8c-0.2,0.2-0.5,0.5-0.7,0.9c-0.2,0.4-0.5,0.9-0.7,1.7
		c-0.2,0.8-0.4,1.9-0.6,3.3c-0.2,1.4-0.2,3.2-0.2,5.5v0.3c0,2.3,0.1,4.1,0.2,5.5c0.1,1.4,0.3,2.5,0.5,3.3c0.2,0.8,0.5,1.4,0.7,1.7
		c0.3,0.4,0.5,0.6,0.7,0.9c0.9,0.9,1.9,1.6,3,1.9C47.2,218.3,48.4,218.4,49.7,218.4z"/>
</g>
<g>
	<path class="st0" d="M99.6,196.9c-0.7,2-1.3,3.9-1.9,5.8c-0.6,1.9-1.2,3.7-1.8,5.6s-1.2,3.7-1.8,5.5c-0.6,1.9-1.3,3.8-1.9,5.7h-3
		l-6.5-19.3l-6.5,19.3h-3c-1.3-3.9-2.5-7.7-3.8-11.3c-1.2-3.7-2.5-7.4-3.7-11.3h2.7l6.3,19.9c0.4-1.4,0.9-2.9,1.5-4.6
		c0.5-1.7,1.1-3.4,1.7-5.2c0.6-1.8,1.1-3.5,1.7-5.2c0.6-1.7,1.1-3.3,1.5-4.8h3.3l6.3,19.9c0.4-1.4,0.9-2.9,1.5-4.6
		c0.5-1.7,1.1-3.4,1.7-5.2c0.6-1.8,1.1-3.5,1.7-5.2c0.5-1.7,1-3.3,1.5-4.8H99.6z"/>
	<path class="st0" d="M122.5,208.2c0,1.7-0.2,3.3-0.5,4.8c-0.4,1.4-0.9,2.7-1.7,3.7c-0.8,1-1.8,1.9-3.1,2.4
		c-1.3,0.6-2.8,0.9-4.7,0.9c-1.9,0-3.5-0.3-4.7-1c-1.3-0.6-2.3-1.5-3-2.6c-0.7-1.1-1.3-2.3-1.6-3.8c-0.3-1.4-0.5-2.9-0.5-4.5
		c0-1.7,0.2-3.3,0.5-4.8c0.3-1.5,0.8-2.7,1.6-3.8c0.7-1.1,1.7-1.9,3-2.5c1.3-0.6,2.8-0.9,4.7-0.9c2,0,3.6,0.3,4.9,0.9
		c1.3,0.6,2.3,1.5,3.1,2.5c0.8,1.1,1.3,2.3,1.6,3.8C122.4,205,122.5,206.6,122.5,208.2z M112.4,217.7c1.5,0,2.8-0.3,3.8-0.8
		c1-0.5,1.7-1.2,2.3-2.1c0.6-0.9,0.9-1.9,1.1-3c0.2-1.1,0.3-2.3,0.3-3.6c0-1.4-0.1-2.7-0.3-3.8c-0.2-1.2-0.6-2.2-1.2-3
		c-0.6-0.9-1.3-1.5-2.3-2c-1-0.5-2.2-0.7-3.7-0.7c-1.6,0-2.9,0.3-3.8,0.8c-1,0.5-1.7,1.2-2.2,2.1c-0.5,0.9-0.8,1.9-1,3
		c-0.2,1.1-0.2,2.3-0.2,3.5c0,1.3,0.1,2.6,0.3,3.7c0.2,1.2,0.5,2.2,1.1,3c0.5,0.9,1.3,1.5,2.2,2
		C109.7,217.4,110.9,217.7,112.4,217.7z"/>
	<path class="st0" d="M148.1,219.6h-2.4V207c0-1.1-0.1-1.9-0.2-2.7c-0.1-0.7-0.3-1.3-0.5-1.8c-0.2-0.5-0.5-0.9-0.7-1.3
		c-0.3-0.3-0.5-0.6-0.8-0.9c-0.5-0.4-1.1-0.8-1.9-1.3c-0.8-0.5-1.9-0.7-3.1-0.7c-1.2,0-2.2,0.2-3.1,0.7c-0.8,0.5-1.5,0.9-2,1.3
		c-0.2,0.2-0.5,0.5-0.8,0.8c-0.3,0.3-0.5,0.7-0.7,1.2c-0.2,0.5-0.4,1.1-0.5,1.8c-0.1,0.7-0.2,1.7-0.2,2.8v12.5h-2.4v-22.7h2.4v3.3
		c0.2-0.5,0.6-1,1.1-1.4c0.5-0.5,1.1-0.9,1.7-1.2c0.7-0.4,1.4-0.6,2.1-0.9c0.8-0.2,1.6-0.3,2.4-0.3c1.7,0,3.1,0.2,4.3,0.7
		c1.2,0.5,2.2,1.2,3,2.1c0.8,0.9,1.4,2,1.8,3.4c0.4,1.3,0.6,2.8,0.6,4.5V219.6z"/>
	<path class="st0" d="M173.8,209.1h-17.5c0,2.8,0.6,4.9,1.7,6.4c1.2,1.5,3.1,2.3,5.8,2.3c1.4,0,2.5-0.2,3.4-0.7
		c0.9-0.5,1.6-1,2.1-1.5c0.5,0.1,1,0.1,1.5,0.2s0.9,0.1,1.3,0.2c-0.8,1.3-1.9,2.3-3.3,3c-1.4,0.7-3.1,1.1-4.9,1.1
		c-1.9,0-3.4-0.3-4.7-0.9c-1.3-0.6-2.3-1.5-3.1-2.5c-0.8-1.1-1.3-2.3-1.7-3.8c-0.3-1.4-0.5-3-0.5-4.6c0-1.7,0.2-3.3,0.5-4.8
		s0.9-2.7,1.6-3.8c0.8-1.1,1.8-1.9,3.1-2.5c1.3-0.6,2.9-0.9,4.8-0.9c1.9,0,3.4,0.3,4.7,0.9c1.3,0.6,2.3,1.4,3.1,2.5
		c0.8,1.1,1.3,2.3,1.7,3.8s0.5,3,0.5,4.8V209.1z M163.8,198.6c-1,0-2,0.1-2.9,0.4c-0.9,0.3-1.7,0.8-2.4,1.4
		c-0.7,0.7-1.2,1.5-1.6,2.6c-0.4,1.1-0.6,2.4-0.6,3.9h15c0-1.6-0.2-2.9-0.6-4c-0.4-1.1-0.9-1.9-1.6-2.6c-0.7-0.6-1.5-1.1-2.4-1.4
		C165.8,198.8,164.9,198.6,163.8,198.6z"/>
	<path class="st0" d="M198.9,219.6h-2.4V207c0-1.1-0.1-1.9-0.2-2.7c-0.1-0.7-0.3-1.3-0.5-1.8c-0.2-0.5-0.5-0.9-0.7-1.3
		c-0.3-0.3-0.5-0.6-0.8-0.9c-0.5-0.4-1.1-0.8-1.9-1.3c-0.8-0.5-1.9-0.7-3.1-0.7c-1.2,0-2.2,0.2-3.1,0.7c-0.8,0.5-1.5,0.9-2,1.3
		c-0.2,0.2-0.5,0.5-0.8,0.8c-0.3,0.3-0.5,0.7-0.7,1.2c-0.2,0.5-0.4,1.1-0.5,1.8c-0.1,0.7-0.2,1.7-0.2,2.8v12.5h-2.4v-22.7h2.4v3.3
		c0.2-0.5,0.6-1,1.1-1.4s1.1-0.9,1.7-1.2c0.7-0.4,1.4-0.6,2.1-0.9c0.8-0.2,1.6-0.3,2.4-0.3c1.7,0,3.1,0.2,4.3,0.7
		c1.2,0.5,2.2,1.2,3,2.1c0.8,0.9,1.4,2,1.8,3.4c0.4,1.3,0.6,2.8,0.6,4.5V219.6z"/>
</g>
<path class="st1" d="M206.7,190.7l2.3,2.3l-2.3,2.3 M211.6,193c0,2.2-1.8,4-4,4c-2.2,0-4-1.8-4-4c0-2.2,1.8-4,4-4
	C209.8,189,211.6,190.8,211.6,193z"/>
</svg>
