<svg xmlns="http://www.w3.org/2000/svg" width="216.8" height="49.4" xml:space="preserve" style="enable-background:new 0 0 216.8 49.4" viewBox="0 0 216.8 49.4"><path d="M20.5 28v2.7H0V.2h20.1v2.7H3v11h14.9v2.5H3V28h17.5zM26.1.2l10 16.4L46.1.2h3.3L37.5 19.4v11.3h-3V19.3L22.8.2h3.3zm43.5 5.7c-1-1-2.1-1.8-3.5-2.4-1.5-.6-3.2-.9-4.9-.9-2.7 0-4.7.5-5.9 1.5-1.2 1-1.9 2.5-1.8 4.1 0 .8.1 1.6.5 2.3.4.6.9 1.2 1.5 1.5.8.5 1.7.9 2.7 1.1 1.1.3 2.3.6 3.8.9 1.5.3 2.9.7 4.4 1.1 1.2.4 2.3.9 3.3 1.6.9.6 1.6 1.4 2.1 2.4.5 1.1.8 2.3.7 3.5 0 1.3-.2 2.5-.8 3.7-.5 1-1.3 1.9-2.3 2.6-1.1.7-2.2 1.2-3.5 1.5-1.4.4-2.9.6-4.3.6-4.5.1-8.9-1.5-12.2-4.4l1.5-2.4c1.3 1.3 2.8 2.3 4.5 3 2 .8 4.1 1.3 6.3 1.2 2 .1 4-.3 5.7-1.3 1.4-.8 2.2-2.4 2.1-4 0-.8-.2-1.7-.6-2.4-.4-.7-1-1.3-1.7-1.7-.9-.5-1.9-.9-2.9-1.2-1.2-.3-2.5-.7-4-1-1.6-.4-3-.8-4.2-1.2-1.1-.3-2.1-.8-3-1.5-.8-.6-1.4-1.3-1.8-2.2-.4-1-.7-2-.6-3.1 0-1.3.2-2.6.8-3.8.5-1.1 1.3-2 2.2-2.7 1-.8 2.2-1.3 3.4-1.7 1.2-.4 2.7-.6 4.2-.6 1.8 0 3.7.3 5.4.9 1.6.6 3 1.5 4.3 2.6l-1.4 2.4zM98.5 28v2.7H78V.2h20.1v2.7H80.9v11h14.9v2.5H80.9V28h17.6zm5.8 2.7V.2h12.8c1.3 0 2.5.3 3.6.8s2.1 1.3 2.9 2.2c.8.9 1.4 1.9 1.9 3.1.4 1.1.7 2.3.7 3.5 0 1.1-.2 2.2-.5 3.2s-.8 1.9-1.4 2.7c-.6.8-1.3 1.5-2.1 2.1-.8.6-1.8 1-2.8 1.1l7.5 11.8h-3.4l-7.2-11.3h-9v11.3h-3zm3-13.9h10c.8 0 1.7-.2 2.4-.6.7-.4 1.4-.9 1.9-1.6.5-.7.9-1.4 1.2-2.2.3-.8.4-1.7.4-2.6 0-.9-.2-1.8-.5-2.6s-.8-1.6-1.3-2.2c-.6-.6-1.2-1.1-2-1.5-.7-.4-1.6-.6-2.4-.6h-9.7v13.9zM156.7.2v30.5h-3V16.5h-18.1v14.3h-3V.2h3v13.6h18.1V.2h3zm20.1 30.7c-2 0-4-.4-5.8-1.3-1.7-.8-3.3-2-4.5-3.5-1.3-1.5-2.3-3.1-2.9-5-.7-1.8-1-3.8-1-5.7 0-2 .4-4 1.1-5.8.7-1.8 1.7-3.5 3-4.9 1.3-1.4 2.8-2.6 4.6-3.4C173.1.5 175 0 177 0s4 .4 5.8 1.4c1.7.9 3.3 2.1 4.5 3.5 1.3 1.5 2.2 3.1 2.9 5 .7 1.8 1 3.7 1 5.6 0 2-.4 4-1.1 5.8-.7 1.8-1.7 3.5-3 4.9-1.3 1.4-2.8 2.6-4.5 3.4-2 .9-3.9 1.3-5.8 1.3zm-11.4-15.4c0 1.6.3 3.3.8 4.8s1.3 2.9 2.3 4.1c1 1.2 2.2 2.1 3.6 2.8 1.4.7 3 1.1 4.6 1.1 1.6 0 3.2-.4 4.7-1.1 1.4-.7 2.6-1.7 3.6-2.9s1.7-2.6 2.3-4.1c.5-1.5.8-3.1.8-4.6 0-1.6-.3-3.3-.8-4.8S186 7.9 185 6.7c-1-1.2-2.2-2.1-3.6-2.8-1.4-.7-3-1.1-4.6-1.1-1.6 0-3.2.4-4.7 1.1-1.4.7-2.6 1.7-3.6 2.9s-1.7 2.6-2.3 4.1c-.5 1.4-.7 3-.8 4.6zm31.4 15.2V.2h20v2.7h-17v11.2h14.4v2.5h-14.4v14.1h-3z"/><path d="M22.6 48.6v.7h-5.7v-8.5h5.6v.7h-4.8v3.1h4.2v.7h-4.2v3.3h4.9zm4-7.8 2.8 4.6 2.8-4.6h.9l-3.3 5.4v3.2H29v-3.2l-3.3-5.3.9-.1zm14.5 1.6c-.3-.3-.6-.5-1-.7-.4-.2-.9-.3-1.4-.3-.6 0-1.2.1-1.7.4-.3.3-.5.7-.5 1.2 0 .2 0 .4.1.6.1.2.3.3.4.4.2.1.5.2.7.3.3.1.7.2 1.1.3l1.2.3c.3.1.6.3.9.4.2.2.4.4.6.7.1.3.2.6.2 1s-.1.7-.2 1c-.2.3-.4.5-.6.7-.3.2-.6.3-1 .4-.4.1-.8.1-1.2.1-1.3 0-2.5-.4-3.4-1.2l.4-.7c.4.4.8.6 1.3.8.6.2 1.2.4 1.8.3.6 0 1.1-.1 1.6-.4.4-.2.6-.7.6-1.1 0-.2 0-.5-.2-.7-.1-.2-.3-.4-.5-.5-.3-.1-.5-.3-.8-.3-.3-.1-.7-.2-1.1-.3l-1.2-.3c-.3-.1-.6-.2-.8-.4-.2-.2-.4-.4-.5-.6-.1-.3-.2-.6-.2-.9 0-.4.1-.7.2-1.1.1-.3.4-.6.6-.8.3-.2.6-.4 1-.5.4-.1.8-.2 1.2-.2.5 0 1 .1 1.5.3.4.2.9.4 1.2.7l-.3 1.1zm10.5 6.2v.7h-5.7v-8.5h5.6v.7h-4.8v3.1h4.2v.7h-4.2v3.3h4.9zm4.1.7v-8.5h3.6c.4 0 .7.1 1 .2.3.2.6.4.8.6.2.3.4.5.5.9.1.3.2.6.2 1 0 .3 0 .6-.1.9-.1.3-.2.5-.4.8l-.6.6c-.2.2-.5.3-.8.3l2.1 3.3h-1l-2-3.1h-2.5v3.1l-.8-.1zm.8-3.9h2.8c.2 0 .5-.1.7-.2.2-.1.4-.3.5-.4.1-.2.3-.4.3-.6.1-.2.1-.5.1-.7 0-.3 0-.5-.1-.7-.1-.2-.2-.4-.4-.6-.2-.2-.3-.3-.6-.4-.2-.1-.4-.2-.7-.2h-2.7l.1 3.8zm14.5-3c-.3-.3-.6-.5-1-.7-.4-.2-.9-.3-1.4-.3-.6 0-1.2.1-1.7.4-.3.3-.5.7-.5 1.2 0 .2 0 .4.1.6.1.2.3.3.4.4.2.1.5.2.7.3.3.1.7.2 1.1.3l1.2.3c.3.1.6.3.9.4.2.2.4.4.6.7.1.3.2.6.2 1s-.1.7-.2 1c-.2.3-.4.5-.6.7-.3.2-.6.3-1 .4-.4.1-.8.1-1.2.1-1.3 0-2.5-.4-3.4-1.2l.4-.7c.4.4.8.6 1.3.8.6.2 1.2.4 1.8.3.6 0 1.1-.1 1.6-.4.4-.2.6-.7.6-1.1 0-.2 0-.5-.2-.7-.1-.2-.3-.4-.5-.5-.3-.1-.5-.3-.8-.3-.3-.1-.7-.2-1.1-.3l-1.2-.3c-.3-.1-.6-.2-.8-.4-.2-.2-.4-.4-.5-.6-.1-.3-.2-.6-.2-.9 0-.4.1-.7.2-1.1.1-.3.4-.6.6-.8.3-.2.6-.4 1-.5.4-.1.8-.2 1.2-.2.5 0 1 .1 1.5.3.4.2.9.4 1.2.7l-.3 1.1zm10.6-.9h-3v7.8h-.8v-7.8h-3v-.7h6.9l-.1.7zm9.5 7.1v.7h-5.7v-8.5H91v.7h-4.8v3.1h4.2v.7h-4.2v3.3h4.9zm4 .7v-8.5h3.6c.4 0 .7.1 1 .2.3.2.6.4.8.6.2.3.4.5.5.9.1.3.2.6.2 1 0 .3 0 .6-.1.9-.1.3-.2.5-.4.8l-.6.6c-.2.2-.5.3-.8.3l2.1 3.3h-.9l-2-3.1H96v3.1l-.9-.1zm.9-3.9h2.8c.2 0 .5-.1.7-.2.2-.1.4-.3.5-.4.1-.2.3-.4.3-.6.1-.2.1-.5.1-.7 0-.3 0-.5-.1-.7-.1-.2-.2-.4-.4-.6-.2-.2-.3-.3-.6-.4-.2-.1-.4-.2-.7-.2H96v3.8zm9.5 3.9v-8.5h.8v5l4.7-5h.9l-3.5 3.8 3.7 4.8h-.9l-3.3-4.3-1.6 1.7v2.6l-.8-.1zm21.4-1.2c-.7.8-1.7 1.3-2.7 1.3-.6 0-1.1-.1-1.6-.4-.5-.2-.9-.6-1.3-1s-.6-.9-.8-1.4c-.2-.5-.3-1-.3-1.6 0-.6.1-1.1.3-1.6.2-.5.5-1 .8-1.4.3-.4.8-.7 1.2-1 .5-.2 1-.4 1.6-.4.4 0 .8 0 1.1.1.3.1.6.2.9.4.3.2.5.4.7.6.2.2.4.5.5.8l-.6.4c-.2-.5-.6-.9-1.1-1.2-.5-.3-1-.4-1.5-.4-.4 0-.9.1-1.3.3-.4.2-.7.5-1 .8-.3.3-.5.7-.6 1.1-.1.4-.2.9-.2 1.3 0 .5.1.9.2 1.4.2.4.4.8.7 1.1.3.3.6.6 1 .8.4.2.8.3 1.3.3s1-.1 1.4-.3c.5-.3.9-.6 1.3-1.1v-1.4H125V45h2.6v4.2h-.7v-1.1zm10.7.5v.7h-5.7v-8.5h5.6v.7h-4.8v3.1h4.2v.7h-4.2v3.3h4.9zm4.8-6.3v7h-.8v-8.5h.6l5.7 7.1v-7.1h.8v8.5h-.7l-5.6-7zm10.9 7v-8.5h.8v8.5h-.8zm11.1-.7v.7h-5.7v-8.5h5.6v.7h-4.8v3.1h4.2v.7h-4.2v3.3h4.9zm10.1-7.1h-3v7.8h-.8v-7.8h-3v-.7h6.9l-.1.7zm9.5 7.1v.7h-5.7v-8.5h5.6v.7h-4.8v3.1h4.2v.7h-4.2v3.3h4.9zm4.8-6.3v7h-.8v-8.5h.6l5.7 7.1v-7.1h.8v8.5h-.7l-5.6-7z" style="fill:#a9aaad"/></svg>