<?xml version="1.0" encoding="utf-8"?>
<!-- Generator: Adobe Illustrator 26.4.0, SVG Export Plug-In . SVG Version: 6.00 Build 0)  -->
<svg version="1.1" id="Layer_1" xmlns="http://www.w3.org/2000/svg" xmlns:xlink="http://www.w3.org/1999/xlink" x="0px" y="0px"
	 viewBox="0 0 200 62.6" style="enable-background:new 0 0 200 62.6;" xml:space="preserve">
<style type="text/css">
	.st0{fill:#FFFFFF;}
	.st1{opacity:0.3;}
</style>
<g>
	<g>
		<path class="st0" d="M1.3,25.4L0,25.2v-1.1h5.4v1.1l-1.6,0.2v10.1l3.6-0.2l1.1-3.2l1.4,0.2l-0.5,4.3H0v-1l1.3-0.2V25.4z"/>
		<path class="st0" d="M15.4,24.1H18l3.9,11.5l1,0.2v1h-5v-1l1.3-0.2l-0.7-2.2h-4.4l-0.7,2.2l1.4,0.2v1h-4.3l0-1l1-0.2L15.4,24.1z
			 M16.6,26.9l-0.3-1.3L16,26.9l-1.5,5.2h3.7L16.6,26.9z"/>
		<path class="st0" d="M25,25.4l-1.3-0.2v-1.1h3.8l5,7.6l0.9,1.9v-8.3l-1.5-0.2v-1.1h4.2v1.1L35,25.4v11.3h-2l-5.3-8l-1.2-2.2v9.1
			l1.7,0.2v1h-4.5v-1l1.3-0.2V25.4z"/>
		<path class="st0" d="M38.3,25.4L37,25.2v-1.1h2.5c0.4,0,0.9,0,1.5-0.1c0.1,0,0.4,0,0.7,0c0.3,0,0.6,0,0.8,0c2.1,0,3.6,0.5,4.7,1.6
			c1,1,1.5,2.5,1.5,4.4c0,1.3-0.3,2.5-0.8,3.6c-0.5,1-1.2,1.8-2.2,2.4c-0.9,0.6-2.1,0.9-3.3,0.9c-0.3,0-0.8,0-1.5-0.1
			c-0.7,0-1.1-0.1-1.3-0.1h-2.6v-1l1.3-0.2V25.4z M42.4,35.7c1.1,0,2-0.5,2.7-1.4c0.6-0.9,1-2.2,1-4c0-1.7-0.3-3-0.9-3.9
			c-0.6-0.9-1.6-1.4-2.9-1.4c-0.3,0-0.6,0-0.8,0.1c-0.3,0-0.4,0.1-0.5,0.1v10.4C41.1,35.7,41.7,35.7,42.4,35.7z"/>
		<path class="st0" d="M52.5,36.1c-0.9-0.5-1.6-1.3-2-2.3s-0.7-2-0.7-3.3c0-1.4,0.3-2.6,0.8-3.6c0.5-1,1.3-1.7,2.3-2.3
			c1-0.5,2.1-0.8,3.4-0.8c1.2,0,2.6,0.2,4.1,0.5l-0.2,3.2h-1.7l-0.5-2.2c-0.1-0.1-0.3-0.2-0.6-0.3c-0.3-0.1-0.7-0.1-1.2-0.1
			c-1.1,0-2,0.4-2.6,1.3c-0.6,0.9-0.9,2.2-0.9,3.9c0,1.7,0.3,3,0.8,4c0.5,1,1.4,1.5,2.5,1.5c0.5,0,0.9-0.1,1.3-0.2
			c0.4-0.1,0.7-0.3,0.9-0.4v-3.6l-1.8-0.2v-1.1h5.1v1.1l-0.9,0.2V36c-0.2,0-0.7,0.1-1.3,0.3c-0.7,0.2-1.3,0.3-1.9,0.4
			s-1.1,0.1-1.7,0.1C54.5,36.9,53.4,36.6,52.5,36.1z"/>
		<path class="st0" d="M63.7,35.2c-0.9-1.2-1.4-2.7-1.4-4.7c0-1.3,0.2-2.4,0.7-3.4c0.5-1,1.2-1.7,2-2.3c0.9-0.5,1.9-0.8,3-0.8
			c1.9,0,3.3,0.6,4.2,1.7c0.9,1.1,1.4,2.6,1.4,4.6c0,1.3-0.2,2.5-0.7,3.5c-0.5,1-1.2,1.8-2.1,2.3c-0.9,0.6-1.9,0.8-3,0.8
			C65.9,36.9,64.6,36.3,63.7,35.2z M65.8,26.4c-0.5,0.9-0.8,2.3-0.8,4.1c0,1.8,0.3,3.1,0.8,4c0.5,0.9,1.2,1.4,2.2,1.4
			c0.9,0,1.6-0.5,2.2-1.4c0.5-1,0.8-2.4,0.8-4.2c0-1.8-0.2-3.1-0.7-3.9C69.6,25.4,68.9,25,68,25C67,25,66.3,25.5,65.8,26.4z"/>
		<path class="st0" d="M75.8,25.4l-1.4-0.2v-1.1h9l0.2,2.8h-1.2l-0.6-1.7l-3.7-0.2v4.6l2.4-0.1l0.3-1.4H82v4.1h-1.1l-0.3-1.5
			l-2.4-0.1v4.8l4.1-0.2l1-2.2l1.3,0.4l-0.4,3.1h-9.7v-1l1.3-0.2V25.4z"/>
		<path class="st0" d="M86.9,25.4l-1.3-0.2v-1.1h2.5c0.4,0,0.9,0,1.5-0.1c0.1,0,0.4,0,0.7,0c0.3,0,0.6,0,0.8,0
			c2.1,0,3.6,0.5,4.7,1.6c1,1,1.5,2.5,1.5,4.4c0,1.3-0.3,2.5-0.8,3.6c-0.5,1-1.2,1.8-2.2,2.4c-0.9,0.6-2.1,0.9-3.3,0.9
			c-0.3,0-0.8,0-1.5-0.1c-0.7,0-1.1-0.1-1.3-0.1h-2.6v-1l1.3-0.2V25.4z M90.9,35.7c1.1,0,2-0.5,2.7-1.4c0.6-0.9,1-2.2,1-4
			c0-1.7-0.3-3-0.9-3.9c-0.6-0.9-1.6-1.4-2.9-1.4c-0.3,0-0.6,0-0.8,0.1c-0.3,0-0.4,0.1-0.5,0.1v10.4C89.7,35.7,90.2,35.7,90.9,35.7z
			"/>
	</g>
	<g>
		<path class="st0" d="M125.5,25.4l-1.3-0.2v-1.1h3.8l5,7.6l0.9,1.9v-8.3l-1.5-0.2v-1.1h4.2v1.1l-1.3,0.2v11.3h-2l-5.3-8l-1.2-2.2
			v9.1l1.7,0.2v1h-4.5v-1l1.3-0.2V25.4z"/>
		<path class="st0" d="M139.3,35.2c-0.9-1.2-1.4-2.7-1.4-4.7c0-1.3,0.2-2.4,0.7-3.4c0.5-1,1.2-1.7,2-2.3c0.9-0.5,1.9-0.8,3-0.8
			c1.9,0,3.3,0.6,4.2,1.7c0.9,1.1,1.4,2.6,1.4,4.6c0,1.3-0.2,2.5-0.7,3.5c-0.5,1-1.2,1.8-2.1,2.3c-0.9,0.6-1.9,0.8-3,0.8
			C141.6,36.9,140.2,36.3,139.3,35.2z M141.4,26.4c-0.5,0.9-0.8,2.3-0.8,4.1c0,1.8,0.3,3.1,0.8,4c0.5,0.9,1.2,1.4,2.2,1.4
			c0.9,0,1.6-0.5,2.2-1.4c0.5-1,0.8-2.4,0.8-4.2c0-1.8-0.2-3.1-0.7-3.9c-0.5-0.9-1.2-1.3-2.2-1.3C142.7,25,142,25.5,141.4,26.4z"/>
		<path class="st0" d="M152,35.2c-0.9-1.2-1.4-2.7-1.4-4.7c0-1.3,0.2-2.4,0.7-3.4c0.5-1,1.2-1.7,2-2.3c0.9-0.5,1.9-0.8,3-0.8
			c1.9,0,3.3,0.6,4.2,1.7c0.9,1.1,1.4,2.6,1.4,4.6c0,1.3-0.2,2.5-0.7,3.5c-0.5,1-1.2,1.8-2.1,2.3c-0.9,0.6-1.9,0.8-3,0.8
			C154.3,36.9,152.9,36.3,152,35.2z M154.1,26.4c-0.5,0.9-0.8,2.3-0.8,4.1c0,1.8,0.3,3.1,0.8,4c0.5,0.9,1.2,1.4,2.2,1.4
			c0.9,0,1.6-0.5,2.2-1.4c0.5-1,0.8-2.4,0.8-4.2c0-1.8-0.2-3.1-0.7-3.9c-0.5-0.9-1.2-1.3-2.2-1.3C155.4,25,154.6,25.5,154.1,26.4z"
			/>
		<path class="st0" d="M163.4,35.7l1.3-0.2V25.4l-1.3-0.2v-1h2.5c0.2,0,0.5,0,0.7,0c0.3,0,0.5,0,0.6,0c0.6,0,1.1-0.1,1.5-0.1
			c1.2,0,2.1,0.1,2.8,0.4c0.7,0.2,1.2,0.6,1.5,1.1c0.3,0.5,0.5,1.1,0.5,1.9c0,0.8-0.2,1.5-0.6,2.2c-0.4,0.7-1,1.1-1.8,1.4
			c0.5,0.2,0.9,0.5,1.2,1c0.3,0.5,0.7,1.2,1.1,2c0.3,0.6,0.5,1,0.7,1.2c0.2,0.2,0.3,0.4,0.4,0.4l0.6,0.2v1h-2.9
			c-0.2,0-0.4-0.2-0.6-0.6c-0.2-0.4-0.5-0.9-0.8-1.7c-0.4-0.9-0.7-1.6-1-2.2c-0.3-0.5-0.6-0.8-0.9-1h-1.7v4.2l1.6,0.2v1h-5.4V35.7z
			 M170.3,29.6c0.4-0.5,0.5-1.2,0.5-2.1c0-0.8-0.2-1.4-0.5-1.8c-0.4-0.4-1-0.6-1.8-0.6c-0.3,0-0.6,0-0.8,0c-0.2,0-0.4,0-0.4,0v5.1
			c0.1,0,0.5,0,1,0h0.6C169.5,30.3,170,30,170.3,29.6z"/>
		<path class="st0" d="M177.3,25.4l-1.4-0.2v-1.1h9l0.2,2.8H184l-0.6-1.7l-3.7-0.2v4.6l2.4-0.1l0.3-1.4h1.1v4.1h-1.1l-0.3-1.5
			l-2.4-0.1v4.8l4.1-0.2l1-2.2l1.3,0.4l-0.4,3.1H176v-1l1.3-0.2V25.4z"/>
		<path class="st0" d="M188.8,25.4l-1.3-0.2v-1.1h3.8l5,7.6l0.9,1.9v-8.3l-1.5-0.2v-1.1h4.2v1.1l-1.3,0.2v11.3h-2l-5.3-8l-1.2-2.2
			v9.1l1.7,0.2v1h-4.5v-1l1.3-0.2V25.4z"/>
	</g>
	<g class="st1">
		<path class="st0" d="M104.3,62.3c7.3-4.8,10.1-11.5,10.2-19.4c0.2-8.4,0-16.9,0.1-25.3c0.1-7.9,5-15.3,11.6-17.6
			c0,0.1,0.1,0.3,0.1,0.3c-7.2,5.5-8.1,13.1-7.8,21.4c0.2,8.5,0.7,17.1-0.5,25.6c-1,6.5-4.3,11.5-10.3,14.4
			C106.7,62.2,105.7,63,104.3,62.3z"/>
		<path class="st0" d="M115.4,0.2c-7.9,6.7-9.4,15.4-9.1,24.9c0.2,7.3,0.1,14.6-0.1,21.9c-0.2,6.7-5.4,13.6-11.4,15.3
			c7.8-5.7,8-13.8,7.9-22.2c-0.1-7.4-0.2-14.9,0.1-22.3c0.3-7.9,3.8-14,11.4-17.4C114.6,0.4,115,0.3,115.4,0.2z"/>
		<path class="st0" d="M81.3,38.7c1.9-0.2,2,1,2,2.4c0,3.5,0.1,7,1.2,10.5c1,3,2.4,5.6,4.9,7.7c0.6,0.5,2.1,0.8,1,2
			c-0.8,0.9-1.9,1.7-3.3,0.6c-1.8-1.5-3.3-3.2-4.4-5.2c-2.6-5-3.6-10.3-3.4-15.8C79.4,39.3,79.8,38.5,81.3,38.7z"/>
		<path class="st0" d="M141.4,18c0,0.8,0,1.6,0,2.4c0,1.2-0.7,1.5-1.8,1.5c-1.1,0-1.7-0.3-1.8-1.5c-0.3-2.9-0.7-5.9-1.3-8.7
			c-0.7-3.2-2.2-5.9-4.7-8.1c-0.8-0.7-2.3-1.2-1-2.6c1.2-1.3,2.5-0.9,3.6,0.2c4.5,4.2,6.3,9.6,7,15.5
			C141.4,17.1,141.4,17.6,141.4,18C141.4,18,141.4,18,141.4,18z"/>
		<path class="st0" d="M70.8,0c4.9,0.7,7.4,3.4,9.4,6.6c2.6,4.1,3.3,8.6,3.2,13.4c-0.1,1.5-0.7,2-2.1,2c-1.6,0-1.9-0.9-1.9-2.2
			c0-2.2,0.1-4.4-0.2-6.5C78.3,8,75.5,3.8,70.8,0z"/>
		<path class="st0" d="M81.6,0.6c5.8,1,8.8,4,11,8c1.7,3.2,2.6,6.8,2.6,10.5c0,1.1,0.6,2.7-1.5,2.8c-2.2,0.2-2.4-1.3-2.5-2.8
			c-0.1-2.1-0.3-4.1-0.8-6.1C89.1,8.2,86.5,4.2,81.6,0.6z"/>
		<path class="st0" d="M91.1,42.3c0.5-1.4-0.9-3.6,1.9-3.6c1.3,0,2.1,0.3,2.2,1.9c0.1,3.9-0.6,7.9,1.1,11.8c0.5,1.1-0.4,2.7-1.5,3.1
			c-1.5,0.5-1.6-1.3-2-2.2C91.2,49.7,91.7,45.8,91.1,42.3z"/>
		<path class="st0" d="M126.5,6.4c3.3,4.4,3.2,9.2,3,14.1c0,1.2-0.8,1.5-1.9,1.4c-0.9,0-1.9,0-2-1.3c-0.2-3.7,0.3-7.4-1.1-11.1
			C124.3,8.8,125.2,7.5,126.5,6.4z"/>
		<path class="st0" d="M139,50c-4.8-1.5-8.7-4.1-10.9-8.7c-0.4-0.8-1.3-2,0.3-2.5c1-0.4,2.3-0.5,2.9,1C133,43.8,135.8,47,139,50z"/>
		<path class="st0" d="M148.5,49.6c-4.6-1.5-7.5-4.6-9.1-8.8c-0.2-0.6-1.1-1.5,0-2c0.8-0.3,2.1-0.5,2.5,0.3
			C143.6,42.9,145.6,46.4,148.5,49.6z"/>
	</g>
</g>
</svg>
