<?xml version="1.0" encoding="UTF-8"?>
<svg id="Layer_1" data-name="Layer 1" xmlns="http://www.w3.org/2000/svg" viewBox="0 0 480.34 196.46">
  <defs>
    <style>
      .cls-1 {
        fill: #1d1d1b;
      }

      .cls-2 {
        fill: #fff;
      }

      .cls-3 {
        stroke: #9c9b9b;
        stroke-miterlimit: 10;
        stroke-width: .5px;
      }

      .cls-3, .cls-4 {
        fill: none;
      }

      .cls-5 {
        fill: #9d9d9c;
      }

      .cls-6 {
        fill: #f49600;
      }

      .cls-4 {
        stroke: #9d9d9c;
        stroke-width: .24px;
      }
    </style>
  </defs>
  <polygon class="cls-1" points="0 151.06 0 113.62 6.24 113.62 6.24 145.84 34.61 145.84 34.61 151.06 0 151.06"/>
  <path class="cls-1" d="M43.39,151.06l17.77-30.77h5.3l18.21,30.77h-6.31l-3.99-7.18h-21.26l-3.91,7.18h-5.81ZM55.58,139.45h16.33l-8.2-14.66-8.13,14.66Z"/>
  <g>
    <path class="cls-1" d="M102.45,126.47c.29,1.79.44,3.63.44,5.52v19.08h-5.37v-30.77h4.43l22.56,20.1c1.4,1.26,2.64,2.66,3.7,4.21-.34-1.84-.51-3.75-.51-5.73v-18.58h5.37v30.77h-3.99l-23-20.39c-1.55-1.35-2.76-2.76-3.63-4.21"/>
    <path class="cls-1" d="M180.31,124.87h-24.31v21.63h24.31v-8.42h-12.55v-4.21h18.36v9.94c0,2.81-.53,4.72-1.6,5.73-1.06,1.02-3.05,1.52-5.95,1.52h-20.82c-2.95,0-4.94-.51-5.98-1.52-1.04-1.02-1.56-2.93-1.56-5.73v-16.18c0-2.8.53-4.73,1.6-5.77,1.06-1.04,3.05-1.56,5.95-1.56h20.82c2.76,0,4.71.5,5.84,1.49,1.14.99,1.71,2.79,1.71,5.41v.87l-5.81,1.02v-4.21Z"/>
    <polygon class="cls-1" points="202.58 151.06 202.58 120.3 233.56 120.3 233.56 124.87 208.39 124.87 208.39 132.78 223.55 132.78 223.55 137.35 208.39 137.35 208.39 146.57 233.86 146.57 233.86 151.06 202.58 151.06"/>
    <path class="cls-1" d="M253.3,126.47c.29,1.79.44,3.63.44,5.52v19.08h-5.37v-30.77h4.43l22.57,20.1c1.4,1.26,2.63,2.66,3.7,4.21-.34-1.84-.51-3.75-.51-5.73v-18.58h5.37v30.77h-4l-23-20.39c-1.55-1.35-2.75-2.76-3.63-4.21"/>
    <path class="cls-1" d="M301.77,151.07v-30.77h25.98c4.5,0,6.75,2,6.75,6.01v3.54c0,3.09-1.79,4.85-5.37,5.29,3.73.39,5.59,2.38,5.59,5.96v3.92c0,4.03-2.98,6.04-8.93,6.04h-24.02ZM328.7,130.21v-2.85c0-1.66-1.09-2.49-3.27-2.49h-17.84v7.76h17.84c1.21,0,2.06-.15,2.55-.46.48-.31.72-.96.72-1.96M307.58,137.21v9.29h17.84c1.31,0,2.21-.25,2.72-.76.51-.5.76-1.4.76-2.7v-2.38c0-2.3-1.16-3.45-3.48-3.45h-17.84Z"/>
    <polygon class="cls-1" points="351.26 151.06 351.26 120.3 382.24 120.3 382.24 124.87 357.07 124.87 357.07 132.78 372.22 132.78 372.22 137.35 357.07 137.35 357.07 146.57 382.53 146.57 382.53 151.06 351.26 151.06"/>
    <path class="cls-1" d="M397.04,151.06v-30.77h24.8c4.32,0,6.47,1.98,6.47,5.95v6.89c0,3.92-2.16,5.88-6.47,5.88h-4.07l13.57,12.04h-7.77l-12.28-12.04h-8.44v12.04h-5.81ZM419.24,124.87h-16.39v9.87h16.39c1.55,0,2.52-.36,2.91-1.08.24-.44.37-1.1.37-2.02v-3.67c0-2.06-1.09-3.1-3.27-3.1"/>
    <path class="cls-1" d="M474.54,124.87h-24.31v21.63h24.31v-8.42h-12.55v-4.21h18.35v9.94c0,2.81-.54,4.72-1.59,5.73-1.07,1.02-3.05,1.52-5.96,1.52h-20.82c-2.95,0-4.95-.51-5.98-1.52-1.04-1.02-1.57-2.93-1.57-5.73v-16.18c0-2.8.53-4.73,1.6-5.77,1.06-1.04,3.04-1.56,5.95-1.56h20.82c2.76,0,4.71.5,5.84,1.49,1.14.99,1.71,2.79,1.71,5.41v.87l-5.8,1.02v-4.21Z"/>
    <path class="cls-5" d="M68.28,175.62l.1,3v14.57h-3.36v-21.6h3.36l10.75,14,9.88-14h3.77v21.6h-3.77v-14.57c0-1.05.08-2.05.25-3-.48,1.36-.95,2.36-1.43,3l-8.31,11.16h-1.07l-8.61-11.06c-.65-.81-1.17-1.85-1.58-3.1"/>
    <path class="cls-5" d="M101.85,193.19l12.48-21.6h3.72l12.79,21.6h-4.43l-2.8-5.04h-14.93l-2.75,5.04h-4.07ZM110.41,185.04h11.46l-5.76-10.29-5.71,10.29Z"/>
    <polygon class="cls-5" points="139.86 193.19 139.86 171.59 143.94 171.59 143.94 180.86 157.59 171.59 163.24 171.59 147.3 182.03 165.02 193.19 158.35 193.19 143.94 183.51 143.94 193.19 139.86 193.19"/>
    <polygon class="cls-5" points="173.17 193.19 173.17 171.59 194.93 171.59 194.93 174.8 177.25 174.8 177.25 180.35 187.9 180.35 187.9 183.56 177.25 183.56 177.25 190.03 195.13 190.03 195.13 193.19 173.17 193.19"/>
    <polygon class="cls-5" points="205.32 193.19 205.32 171.59 209.4 171.59 209.4 189.93 226.21 189.93 226.21 193.19 205.32 193.19"/>
    <path class="cls-5" d="M231.61,193.19l12.48-21.6h3.72l12.79,21.6h-4.43l-2.8-5.04h-14.93l-2.75,5.04h-4.08ZM240.17,185.04h11.46l-5.76-10.29-5.71,10.29Z"/>
    <path class="cls-5" d="M266.1,193.19l12.48-21.6h3.72l12.79,21.6h-4.43l-2.8-5.04h-14.93l-2.76,5.04h-4.08ZM274.66,185.04h11.46l-5.76-10.29-5.7,10.29Z"/>
    <path class="cls-5" d="M304.1,193.19v-21.6h17.42c3.03,0,4.55,1.39,4.55,4.17v4.84c0,2.75-1.52,4.12-4.55,4.12h-2.86l9.53,8.46h-5.45l-8.63-8.46h-5.93v8.46h-4.08ZM319.7,174.8h-11.52v6.93h11.52c1.08,0,1.76-.25,2.04-.76.16-.3.25-.78.25-1.41v-2.58c0-1.45-.77-2.17-2.29-2.17"/>
    <path class="cls-5" d="M351.99,171.59c4.01,0,6.9.56,8.66,1.68,3.12,1.97,4.69,4.99,4.69,9.07,0,7.24-4.46,10.85-13.35,10.85h-12.43v-21.6h12.43ZM351.54,174.8h-7.9v15.18h7.9c3.39,0,5.86-.56,7.41-1.68,1.55-1.12,2.32-3.12,2.32-5.98s-.82-4.72-2.44-5.88c-1.5-1.09-3.92-1.63-7.29-1.63"/>
    <rect class="cls-5" x="377.46" y="171.64" width="4.08" height="21.55"/>
    <path class="cls-5" d="M398.04,193.19c-2.04,0-3.43-.34-4.17-1.03-.75-.69-1.12-2.02-1.12-4.01v-4.18l4.08-.82v6.83h11.46v-18.39h4.08v16.5c0,1.97-.38,3.31-1.12,4.02-.76.71-2.15,1.07-4.18,1.07h-9.02Z"/>
    <polygon class="cls-2" points="239.99 7.32 243.61 2.01 246.35 7.83 250.77 3.15 252.56 9.31 257.65 5.39 258.47 11.76 264.12 8.68 263.92 15.1 269.97 12.93 268.77 19.25 275.1 18.06 272.93 24.11 279.35 23.92 276.27 29.56 282.65 30.37 278.72 35.46 284.88 37.27 280.2 41.67 286.01 44.42 280.71 48.05 286.01 51.66 280.2 54.41 284.88 58.82 278.72 60.63 282.65 65.71 276.27 66.53 279.35 72.17 272.93 71.98 275.1 78.02 268.77 76.84 269.97 83.15 263.92 80.99 264.12 87.41 258.47 84.33 257.65 90.7 252.56 86.77 250.77 92.94 246.35 88.27 243.61 94.07 239.99 88.76 236.36 94.07 233.62 88.27 229.21 92.94 227.4 86.77 222.32 90.7 221.51 84.33 215.86 87.41 216.05 80.99 210.01 83.15 211.2 76.84 204.88 78.02 207.05 71.98 200.62 72.17 203.71 66.53 197.33 65.71 201.26 60.63 195.09 58.82 199.77 54.41 193.96 51.66 199.27 48.05 193.96 44.42 199.77 41.67 195.09 37.27 201.26 35.46 197.33 30.37 203.71 29.56 200.62 23.92 207.05 24.11 204.88 18.06 211.2 19.25 210.01 12.93 216.05 15.1 215.86 8.68 221.51 11.76 222.32 5.39 227.4 9.31 229.21 3.15 233.62 7.83 236.36 2.01 239.99 7.32"/>
    <polygon class="cls-3" points="239.99 7.32 243.61 2.01 246.35 7.83 250.77 3.15 252.56 9.31 257.65 5.39 258.47 11.76 264.12 8.68 263.92 15.1 269.97 12.93 268.77 19.25 275.1 18.06 272.93 24.11 279.35 23.92 276.27 29.56 282.65 30.37 278.72 35.46 284.88 37.27 280.2 41.67 286.01 44.42 280.71 48.05 286.01 51.66 280.2 54.41 284.88 58.82 278.72 60.63 282.65 65.71 276.27 66.53 279.35 72.17 272.93 71.98 275.1 78.02 268.77 76.84 269.97 83.15 263.92 80.99 264.12 87.41 258.47 84.33 257.65 90.7 252.56 86.77 250.77 92.94 246.35 88.27 243.61 94.07 239.99 88.76 236.36 94.07 233.62 88.27 229.21 92.94 227.4 86.77 222.32 90.7 221.51 84.33 215.86 87.41 216.05 80.99 210.01 83.15 211.2 76.84 204.88 78.02 207.05 71.98 200.62 72.17 203.71 66.53 197.33 65.71 201.26 60.63 195.09 58.82 199.77 54.41 193.96 51.66 199.27 48.05 193.96 44.42 199.77 41.67 195.09 37.27 201.26 35.46 197.33 30.37 203.71 29.56 200.62 23.92 207.05 24.11 204.88 18.06 211.2 19.25 210.01 12.93 216.05 15.1 215.86 8.68 221.51 11.76 222.32 5.39 227.4 9.31 229.21 3.15 233.62 7.83 236.36 2.01 239.99 7.32"/>
    <path class="cls-4" d="M276.01,47.69c0,19.89-16.13,36.02-36.02,36.02s-36.03-16.13-36.03-36.02,16.13-36.03,36.03-36.03,36.02,16.12,36.02,36.03Z"/>
    <path class="cls-6" d="M222.47,64.83V30.35h27.74c2.54,0,4.38.52,5.54,1.57,1.16,1.05,1.73,2.75,1.73,5.11v7.69c0,2.36-.58,4.06-1.73,5.11-1.16,1.05-3,1.57-5.54,1.57h-5.07l15.77,13.43h-8.55l-14.02-13.43h-10.13v13.43h-5.74ZM248,34.83h-19.79v12.1h19.79c1.37,0,2.34-.25,2.9-.74.55-.49.83-1.42.83-2.8v-5.02c0-1.33-.28-2.26-.83-2.77-.56-.51-1.53-.77-2.9-.77"/>
  </g>
</svg>