<svg width="1786" height="332" viewBox="0 0 1786 332" fill="none" xmlns="http://www.w3.org/2000/svg">
<path d="M63.9 135.8C78.7 136.5 93.2 130.8 103.4 120.1C111.6 110.5 116.4 98.5 116.9 85.9H105.1C103.1 107.5 89.4 125.1 64.2 125.1C34.2 125.1 17.9 100.9 17.9 68.2C17.9 36 33.6 10.6 64.4 10.6C82.7 9.1 99.3 21.6 102.8 39.7H114.9C110.5 15.4 92.2 0 64.6 0C27.6 0 5.1 28.7 5.1 68.2C5 108.2 27.5 135.8 63.9 135.8ZM124.7 133.5H137.1L152.4 92.3H209.3L224.5 133.5H237.7L188 2.6H174.1L124.7 133.5ZM156.1 82.2L174.4 33.4C177.3 25.5 180.8 14.4 180.8 14.4H181.2C181.2 14.4 185 26.1 187.8 33.4L205.7 82.2H156.1ZM367.9 133.4H380.1V2.6H367.8L367.9 133.4ZM444.9 133.4H457.2V13.6H501.3V2.6H400.6V13.6H444.9V133.4ZM495.2 133.4H507.6L522.9 92.2H579.8L595 133.4H608.2L558.5 2.6H544.6L495.2 133.4ZM526.7 82.2L545 33.4C547.9 25.5 551.4 14.4 551.4 14.4H551.8C551.8 14.4 555.6 26.1 558.4 33.4L576.3 82.2H526.7ZM626.1 133.4H708.1V122.1H638.3V2.6H626L626.1 133.4ZM255.4 2.6H306.8C321.1 2.6 330.6 6.6 337.5 13.9C343.4 20.1 346.6 28.4 346.6 39.2C346.6 63.4 332.5 76.5 305.1 76.5H267.6V133.4H255.3V2.6H255.4ZM304.3 66.1C325.5 66.1 334.3 56 334.3 39.6C334.3 22.8 324.2 13.4 305.4 13.4H267.7V66.1H304.3ZM5 183.3H38.7L59.2 252C62.1 261.9 65.3 275.1 65.3 275.1H65.7C65.7 275.1 69 261.8 71.8 252L92.1 183.3H124.9L81.9 314.2H48.4L5 183.3ZM161.4 183.3H194.7L241.9 314.2H207.8L200.1 290.6H154.3L146.8 314.2H114.2L161.4 183.3ZM192.7 267.4L182.8 235.7C180.6 228.9 177.7 217.2 177.7 217.2H177.3C177.3 217.2 174.2 228.9 172 235.7L161.9 267.4H192.7ZM255.7 183.3H288.1V286.7H346.9V314.1H255.7V183.3ZM360.1 268.1V183.4H392.5V269.2C392.5 282 399.1 290.6 415 290.6C430 290.6 437.2 281.4 437.2 268.6V183.3H469.6V268C469.6 298.2 451.4 316.5 415 316.5C378.3 316.6 360.1 298.7 360.1 268.1ZM491.1 183.3H590.3V210H523.5V233.4H580.8V258.6H523.5V286.6H591.4V314H491.1V183.3Z" fill="white"/>
<path d="M674 316.6C693.938 316.6 710.1 300.438 710.1 280.5C710.1 260.563 693.938 244.4 674 244.4C654.063 244.4 637.9 260.563 637.9 280.5C637.9 300.438 654.063 316.6 674 316.6Z" fill="#EEDD82"/>
<path d="M807.2 176.5H815.2C816.3 187.5 823 193.2 835.2 193.2C844.2 193.2 850.6 189.1 850.6 181.1C850.6 172.2 842.8 170.1 831.2 167.6C819.8 165.1 810 161.8 810 149.6C810 138.9 818.9 132.5 832 132.5C848.2 132.5 854.9 140.7 856.5 152.7H848.8C847.6 143.5 841.6 138.8 832.1 138.8C823.3 138.8 817.5 142.5 817.5 149.2C817.5 156.5 824.7 158.7 834.4 160.6C847 163.1 858.5 166.2 858.5 180.8C858.5 192.9 848.6 199.7 834.7 199.7C816.6 199.7 807.9 189.5 807.2 176.5ZM869.6 151.6H876.9V158.2H877.1C880.6 153.4 885.3 150.5 892.1 150.5C904 150.5 912.2 159.6 912.2 175.1C912.2 190.1 904.5 199.7 891.8 199.7C885.5 199.7 880.9 197.8 877 192.8H876.8V213.4H869.5V151.6H869.6ZM904.7 175.2C904.7 164.7 900.3 156.7 891.4 156.7C881.2 156.7 876.5 165 876.5 175.2C876.5 185.4 880.6 193.6 891.4 193.6C900.3 193.6 904.7 185.8 904.7 175.2ZM919.7 175C919.7 161.4 928.6 150.4 941.9 150.4C955.9 150.4 963.5 161.3 963.5 176.8H927.3C927.8 186.3 933 193.6 942.4 193.6C949.2 193.6 953.7 190.3 955.4 184H962.6C960.4 194.1 953.1 199.8 942.5 199.8C928 199.7 919.7 188.6 919.7 175ZM927.4 171.2H955.6C955.1 161.9 950.3 156.2 941.9 156.2C933.2 156.2 928.5 162.7 927.4 171.2ZM970.7 175C970.7 161.4 979.4 150.4 993.3 150.4C1004.3 150.4 1011.7 156.7 1013.3 166.7H1005.9C1004.8 160.4 1000.4 156.5 993.3 156.5C983.3 156.5 978.2 164.7 978.2 175.1C978.2 185.4 983.4 193.6 993.3 193.6C1000.9 193.6 1005.4 189.3 1006.1 182H1013.3C1012.3 193.2 1005 199.8 993.3 199.8C979.4 199.7 970.7 188.6 970.7 175ZM1023 133.7H1030.3V142.8H1023V133.7ZM1023 151.6H1030.3V198.4H1023V151.6ZM1071.7 191.9C1068.8 195.5 1064 199.3 1056 199.3C1047.1 199.3 1040.2 195.1 1040.2 186.3C1040.2 175.3 1048.9 173 1060.6 171.2C1067.2 170.2 1071.8 169.6 1071.8 164.5C1071.8 159.2 1068 156.3 1061.3 156.3C1053.7 156.3 1049.9 159.6 1049.6 166.6H1042.5C1042.8 157.5 1048.7 150.8 1061.2 150.8C1071.2 150.8 1078.5 154.5 1078.5 165.7V188C1078.5 191.8 1079.4 193.9 1083.5 193H1083.8V198.3C1082.9 198.7 1081.7 199 1079.8 199C1075 198.9 1072.5 196.7 1071.7 191.9ZM1071.9 181.1V173.1C1069.5 174.6 1065.2 175.8 1061.2 176.5C1053.9 177.9 1048 179.1 1048 186C1048 192.2 1052.9 193.6 1057.7 193.6C1067.5 193.7 1071.9 186.5 1071.9 181.1ZM1092.2 133.7H1099.5V198.5H1092.2V133.7ZM1112.5 133.7H1119.8V142.8H1112.5V133.7ZM1112.5 151.6H1119.8V198.4H1112.5V151.6ZM1129.5 183.2H1137C1138 191.4 1143.4 193.6 1150.4 193.6C1158.1 193.6 1161.3 190.2 1161.3 185.9C1161.3 180.6 1157.7 179.3 1149.1 177.5C1139.9 175.6 1131.6 173.7 1131.6 163.5C1131.6 155.7 1137.6 150.6 1148.4 150.6C1160 150.6 1165.7 156.1 1166.8 165.3H1159.3C1158.6 159.1 1155.2 156.4 1148.3 156.4C1141.6 156.4 1138.9 159.4 1138.9 163.1C1138.9 168.2 1143.4 169.2 1151.5 170.8C1160.9 172.7 1168.8 174.8 1168.8 185.6C1168.8 195 1161.1 199.8 1150.3 199.8C1137.4 199.8 1130.2 193.7 1129.5 183.2ZM1174.6 151.6H1181.4V136.8H1188.7V151.6H1197.8V157.6H1188.7V188C1188.7 191.3 1190.4 192.3 1193.4 192.3C1194.8 192.3 1196.5 191.9 1197.3 191.7H1197.6V198C1195.9 198.4 1193.9 198.6 1191.7 198.6C1185.7 198.6 1181.4 196.2 1181.4 189.5V157.6H1174.6V151.6ZM1222.6 175C1222.6 161.4 1231.3 150.4 1245.2 150.4C1259.2 150.4 1267.7 161.4 1267.7 175C1267.7 188.6 1259.2 199.6 1245.2 199.6C1231.3 199.7 1222.6 188.6 1222.6 175ZM1260.3 175C1260.3 164.7 1255.2 156.4 1245.3 156.4C1235.3 156.4 1230.2 164.6 1230.2 175C1230.2 185.3 1235.4 193.5 1245.3 193.5C1255.2 193.5 1260.3 185.4 1260.3 175ZM1277.8 151.6H1285.1V158.2H1285.3C1288.8 153.4 1293.5 150.5 1300.3 150.5C1312.2 150.5 1320.4 159.6 1320.4 175.1C1320.4 190.1 1312.7 199.7 1300 199.7C1293.7 199.7 1289.1 197.8 1285.2 192.8H1285V213.4H1277.7V151.6H1277.8ZM1313 175.2C1313 164.7 1308.6 156.7 1299.7 156.7C1289.5 156.7 1284.8 165 1284.8 175.2C1284.8 185.4 1288.9 193.6 1299.7 193.6C1308.5 193.6 1313 185.8 1313 175.2ZM1345 175.1C1345 159.5 1354 150.5 1365.6 150.5C1372.2 150.5 1377.3 153.8 1380.3 158.2H1380.5V133.7H1387.8V198.5H1380.5V192.8H1380.3C1376.8 197.3 1372.4 199.9 1365.8 199.9C1353 199.8 1345 190.2 1345 175.1ZM1380.9 175.2C1380.9 164.3 1375.6 156.7 1366 156.7C1357.1 156.7 1352.6 164.7 1352.6 175.2C1352.6 185.8 1357.1 193.6 1366.1 193.6C1376.4 193.6 1380.9 185.8 1380.9 175.2ZM1397.8 175C1397.8 161.4 1406.7 150.4 1420 150.4C1434 150.4 1441.6 161.3 1441.6 176.8H1405.4C1405.9 186.3 1411.1 193.6 1420.5 193.6C1427.3 193.6 1431.8 190.3 1433.5 184H1440.7C1438.5 194.1 1431.2 199.8 1420.6 199.8C1406.1 199.7 1397.8 188.6 1397.8 175ZM1405.5 171.2H1433.7C1433.2 161.9 1428.4 156.2 1420 156.2C1411.3 156.2 1406.6 162.7 1405.5 171.2ZM807.2 269.7H815.1L823.3 298.6C824.4 302.5 825.8 308.7 825.8 308.7H826C826 308.7 827.4 302.5 828.4 298.8L836.3 269.7H844L851.6 298.8C852.6 302.6 853.9 308.7 853.9 308.7H854.1C854.1 308.7 855.5 302.5 856.7 298.6L865.4 269.7H873L857.7 316.5H850.2L842.4 288.2C841.3 284.3 840.1 278.4 840.1 278.4H839.9C839.9 278.4 838.6 284.3 837.5 288.2L829.6 316.5H822L807.2 269.7ZM877.5 293.2C877.5 279.6 886.2 268.6 900.1 268.6C914.1 268.6 922.6 279.6 922.6 293.2C922.6 306.8 914.1 317.8 900.1 317.8C886.2 317.8 877.5 306.7 877.5 293.2ZM915.2 293.2C915.2 282.9 910.1 274.6 900.2 274.6C890.2 274.6 885.1 282.8 885.1 293.2C885.1 303.5 890.3 311.7 900.2 311.7C910.1 311.6 915.2 303.5 915.2 293.2ZM940.1 275.9H940.3C943.7 271.5 948.4 268.7 955.2 268.7C965 268.7 971 274 971 283.7V316.6H963.7V284.4C963.7 278.3 959.7 274.9 953.1 274.9C945.7 274.9 940.2 280.2 940.2 287.9V316.7H932.9V269.9H940.2L940.1 275.9ZM983.3 251.8H990.6V260.9H983.3V251.8ZM983.3 269.7H990.6V316.5H983.3V269.7ZM1010.6 275.9H1010.8C1014.2 271.5 1018.9 268.7 1025.7 268.7C1035.5 268.7 1041.5 274 1041.5 283.7V316.6H1034.2V284.4C1034.2 278.3 1030.2 274.9 1023.6 274.9C1016.2 274.9 1010.7 280.2 1010.7 287.9V316.7H1003.4V269.9H1010.7L1010.6 275.9ZM1052.6 319.1H1059.4C1060.1 324.3 1065 326.3 1072.3 326.3C1080.9 326.3 1085.7 322.4 1085.7 314.3V307.6H1085.5C1082.1 312 1078.3 314.8 1071.6 314.8C1059.5 314.8 1051.1 305.1 1051.1 291.6C1051.1 277 1060.2 268.5 1071.1 268.5C1077.9 268.5 1082.2 271.1 1085.4 275.6H1085.6V269.6H1092.9V313.9C1092.9 326.2 1084.7 332 1072.3 332C1060.3 332.1 1053.4 327.2 1052.6 319.1ZM1086.2 291.3C1086.2 281.1 1081.9 274.7 1071.9 274.7C1063.1 274.7 1058.7 281.6 1058.7 291.7C1058.7 301.9 1063.3 308.6 1072 308.6C1082.8 308.7 1086.2 301.2 1086.2 291.3ZM1104.1 288.2H1128.4V294.9H1104.1V288.2ZM1154 293.2C1154 279.6 1162.9 268.6 1176.2 268.6C1190.2 268.6 1197.8 279.5 1197.8 295H1161.6C1162.1 304.5 1167.3 311.8 1176.7 311.8C1183.5 311.8 1188 308.5 1189.7 302.2H1196.9C1194.7 312.3 1187.4 318 1176.8 318C1162.4 317.8 1154 306.7 1154 293.2ZM1161.7 289.4H1189.9C1189.4 280.1 1184.6 274.4 1176.2 274.4C1167.5 274.3 1162.8 280.8 1161.7 289.4ZM1215 275.9H1215.2C1218.6 271.5 1223.3 268.7 1230.1 268.7C1239.9 268.7 1245.9 274 1245.9 283.7V316.6H1238.6V284.4C1238.6 278.3 1234.6 274.9 1228 274.9C1220.6 274.9 1215.1 280.2 1215.1 287.9V316.7H1207.8V269.9H1215.1L1215 275.9ZM1273.4 310.7L1299.5 276.4V276.1H1275V269.7H1309.8V274L1282.9 309.5V309.8H1310.8V316.5H1273.5L1273.4 310.7ZM1316.2 293.2C1316.2 279.6 1324.9 268.6 1338.8 268.6C1352.8 268.6 1361.3 279.6 1361.3 293.2C1361.3 306.8 1352.8 317.8 1338.8 317.8C1324.9 317.8 1316.2 306.7 1316.2 293.2ZM1353.9 293.2C1353.9 282.9 1348.8 274.6 1338.9 274.6C1328.9 274.6 1323.8 282.8 1323.8 293.2C1323.8 303.5 1329 311.7 1338.9 311.7C1348.8 311.6 1353.9 303.5 1353.9 293.2ZM1378.8 277.5H1379C1381.8 273 1386.7 269.2 1392.9 269.2C1394.3 269.2 1395 269.4 1395.9 269.7V276.8H1395.6C1394.5 276.4 1393.8 276.3 1392.3 276.3C1385.1 276.3 1378.7 281.7 1378.7 290.5V316.5H1371.4V269.7H1378.7V277.5H1378.8ZM1402.3 319.1H1409.1C1409.8 324.3 1414.7 326.3 1422 326.3C1430.6 326.3 1435.4 322.4 1435.4 314.3V307.6H1435.2C1431.8 312 1428 314.8 1421.3 314.8C1409.2 314.8 1400.8 305.1 1400.8 291.6C1400.8 277 1409.9 268.5 1420.8 268.5C1427.6 268.5 1431.9 271.1 1435.1 275.6H1435.3V269.6H1442.6V313.9C1442.6 326.2 1434.4 332 1422 332C1410 332.1 1403.1 327.2 1402.3 319.1ZM1435.9 291.3C1435.9 281.1 1431.6 274.7 1421.6 274.7C1412.8 274.7 1408.4 281.6 1408.4 291.7C1408.4 301.9 1413 308.6 1421.7 308.6C1432.4 308.7 1435.9 301.2 1435.9 291.3ZM1455.3 269.7H1462.6V276.4H1462.8C1465.7 271.9 1470.7 268.6 1476.6 268.6C1482.3 268.6 1486.8 271.5 1488.8 276.9H1489C1492 271.6 1497.6 268.6 1503.3 268.6C1511.6 268.6 1517.5 273.9 1517.5 283.6V316.5H1510.2V284C1510.2 278.2 1506.3 274.8 1501.6 274.8C1495.5 274.8 1490.1 280.1 1490.1 287.4V316.6H1482.8V284.1C1482.8 278.3 1479.5 274.9 1474.7 274.9C1469 274.9 1462.7 280.2 1462.7 287.5V316.7H1455.4L1455.3 269.7ZM1558.6 310C1555.7 313.6 1550.9 317.4 1542.9 317.4C1534 317.4 1527.1 313.2 1527.1 304.4C1527.1 293.4 1535.8 291.1 1547.5 289.3C1554.1 288.3 1558.7 287.7 1558.7 282.6C1558.7 277.3 1554.9 274.4 1548.2 274.4C1540.6 274.4 1536.8 277.7 1536.5 284.7H1529.4C1529.7 275.6 1535.6 268.9 1548.1 268.9C1558.1 268.9 1565.4 272.6 1565.4 283.8V306.1C1565.4 309.9 1566.3 312 1570.4 311.1H1570.7V316.4C1569.8 316.8 1568.6 317.1 1566.7 317.1C1561.9 317 1559.4 314.8 1558.6 310ZM1558.8 299.2V291.2C1556.4 292.7 1552.1 293.9 1548.1 294.6C1540.8 296 1534.9 297.2 1534.9 304.1C1534.9 310.3 1539.8 311.7 1544.6 311.7C1554.4 311.8 1558.8 304.7 1558.8 299.2ZM1586.2 277.5H1586.4C1589.2 273 1594.1 269.2 1600.3 269.2C1601.7 269.2 1602.4 269.4 1603.3 269.7V276.8H1603C1601.9 276.4 1601.2 276.3 1599.7 276.3C1592.5 276.3 1586.1 281.7 1586.1 290.5V316.5H1578.8V269.7H1586.1V277.5H1586.2ZM1626.8 291.3L1619.9 297.8V316.5H1612.6V251.7H1619.9V289.6L1640.5 269.6H1649.8L1631.9 286.4L1652 316.4H1643.4L1626.8 291.3ZM1655.7 269.7H1662.5V254.9H1669.8V269.7H1678.9V275.7H1669.8V306.1C1669.8 309.4 1671.5 310.4 1674.5 310.4C1675.9 310.4 1677.6 310 1678.4 309.8H1678.7V316.1C1677 316.5 1675 316.7 1672.8 316.7C1666.8 316.7 1662.5 314.3 1662.5 307.6V275.5H1655.7V269.7Z" fill="white"/>
</svg>
