<?xml version="1.0" encoding="UTF-8"?>
<svg xmlns="http://www.w3.org/2000/svg" width="430" height="169" viewBox="0 0 430 169" fill="none">
  <g clip-path="url(#clip0_2630_128)">
    <path d="M409.807 128.024C401.462 138.505 388.117 145.279 373.081 145.279C347.776 145.279 327.273 126.069 327.273 102.36C327.273 78.6511 347.776 59.4414 373.081 59.4414C385.815 59.4414 397.325 64.3113 405.616 72.1468L423.529 55.4984C410.652 43.3322 392.811 35.8 373.081 35.8C333.838 35.8 302.04 65.6088 302.04 102.36C302.04 139.111 333.856 168.92 373.081 168.92C396.39 168.92 417.091 158.388 430.04 142.144L409.807 128.024Z" fill="white"></path>
    <path d="M158.68 166.696L134.433 84.7005C126.478 56.5094 99.9442 35.8 68.4186 35.8C30.6017 35.8 -0.0400391 65.6088 -0.0400391 102.36C-0.0400391 139.111 30.619 168.92 68.4186 168.92C92.1278 168.92 113.029 157.192 125.317 139.381L133.376 166.696H158.68ZM68.4359 145.279C44.0508 145.279 24.2931 126.069 24.2931 102.36C24.2931 78.6511 44.0508 59.4414 68.4359 59.4414C92.821 59.4414 112.579 78.6511 112.579 102.36C112.579 126.069 92.821 145.279 68.4359 145.279Z" fill="white"></path>
    <path d="M222.68 35.5216C205.689 35.5216 190.15 41.4486 178.111 51.2593V-0.0400085H153.56V102.221C153.56 139.066 184.515 168.92 222.68 168.92C260.845 168.92 291.8 139.049 291.8 102.221C291.8 65.3927 260.845 35.5216 222.68 35.5216ZM222.68 145.229C198.059 145.229 178.111 125.979 178.111 102.221C178.111 78.4624 198.059 59.2125 222.68 59.2125C247.301 59.2125 267.249 78.4624 267.249 102.221C267.249 125.979 247.301 145.229 222.68 145.229Z" fill="white"></path>
  </g>
  <defs>
    <clipPath id="clip0_2630_128">
      <rect width="430" height="169" fill="white"></rect>
    </clipPath>
  </defs>
</svg>
