<?xml version="1.0" encoding="utf-8"?>
<!-- Generator: Adobe Illustrator 16.0.0, SVG Export Plug-In . SVG Version: 6.00 Build 0)  -->
<!DOCTYPE svg PUBLIC "-//W3C//DTD SVG 1.1//EN" "http://www.w3.org/Graphics/SVG/1.1/DTD/svg11.dtd">
<svg version="1.1" id="Layer_1" xmlns="http://www.w3.org/2000/svg" xmlns:xlink="http://www.w3.org/1999/xlink" x="0px" y="0px"
	 width="450.02px" height="92.902px" viewBox="0 178.563 450.02 92.902" enable-background="new 0 178.563 450.02 92.902"
	 xml:space="preserve">
<title>JCVANKESSEL_vastgoed_logo_RGB</title>
<path d="M441.582,268.971h-2.507v-11.143h2.507c1.884,0,3.327,0.488,4.33,1.463c2.015,2.369,2.015,5.849,0,8.217
	C444.909,268.487,443.464,268.971,441.582,268.971 M450,263.402c0.032-1.436-0.301-2.857-0.968-4.129
	c-0.646-1.169-1.628-2.117-2.819-2.719c-1.378-0.674-2.897-1.004-4.43-0.962h-5.238v15.673h5.256
	c1.534,0.041,3.056-0.295,4.43-0.979c1.194-0.607,2.177-1.562,2.819-2.737c0.665-1.272,0.998-2.693,0.968-4.129 M433.189,257.604
	v-2.04h-8.966v15.673h8.966v-2.064h-6.436v-4.861h5.775v-1.958h-5.775v-4.749H433.189z M413.051,257.717
	c0.931-0.017,1.848,0.22,2.654,0.684c0.786,0.469,1.42,1.154,1.823,1.977c0.873,1.904,0.873,4.094,0,5.998
	c-0.403,0.822-1.037,1.508-1.823,1.977c-0.805,0.467-1.724,0.703-2.654,0.684c-0.939,0.019-1.867-0.218-2.684-0.684
	c-0.791-0.467-1.428-1.153-1.834-1.977c-0.874-1.904-0.874-4.094,0-5.998c0.406-0.823,1.043-1.51,1.834-1.977
	C411.185,257.938,412.112,257.701,413.051,257.717 M413.051,255.357c-1.387-0.02-2.753,0.333-3.958,1.02
	c-1.175,0.678-2.14,1.666-2.79,2.855c-1.352,2.586-1.352,5.671,0,8.258c0.653,1.189,1.618,2.178,2.79,2.861
	c2.455,1.376,5.449,1.376,7.904,0c1.169-0.683,2.128-1.672,2.772-2.861c1.337-2.59,1.337-5.668,0-8.258
	c-0.641-1.17-1.589-2.141-2.743-2.809c-1.201-0.685-2.563-1.037-3.946-1.02 M394.943,255.469c-1.409-0.029-2.8,0.319-4.028,1.009
	c-1.148,0.664-2.084,1.643-2.696,2.819c-1.268,2.607-1.268,5.651,0,8.258c0.613,1.184,1.553,2.167,2.708,2.832
	c1.23,0.697,2.626,1.051,4.04,1.02c1.249,0.027,2.485-0.257,3.599-0.825c1.024-0.528,1.902-1.302,2.554-2.253
	c0.644-0.939,1.065-2.012,1.233-3.139v-2.424h-7.881v1.869h5.751c-0.128,1.277-0.729,2.461-1.687,3.315
	c-0.935,0.796-2.131,1.216-3.356,1.18c-0.979,0.021-1.945-0.211-2.808-0.673c-0.807-0.449-1.463-1.127-1.888-1.945
	c-0.467-0.963-0.695-2.023-0.667-3.092c-0.021-1.021,0.204-2.032,0.655-2.949c0.406-0.813,1.039-1.49,1.822-1.952
	c0.798-0.466,1.707-0.704,2.631-0.69c0.977-0.023,1.938,0.238,2.767,0.756c0.756,0.482,1.342,1.189,1.675,2.022h2.666
	c-0.348-1.506-1.222-2.839-2.465-3.757c-1.365-0.953-3.003-1.436-4.666-1.375 M373.666,255.61v1.993h4.354v13.633h2.554v-13.633
	h4.371v-2.04L373.666,255.61z M371.448,267.107c0.041-0.848-0.188-1.687-0.654-2.396c-0.414-0.583-0.963-1.059-1.599-1.386
	c-0.785-0.381-1.6-0.696-2.436-0.944c-0.785-0.265-1.398-0.501-1.853-0.702c-0.431-0.185-0.814-0.465-1.121-0.819
	c-0.303-0.372-0.46-0.842-0.442-1.321c-0.039-0.593,0.198-1.17,0.644-1.563c0.484-0.384,1.093-0.579,1.71-0.548
	c1.315-0.08,2.477,0.852,2.685,2.152h2.73c-0.1-1.184-0.682-2.273-1.61-3.014c-1.089-0.83-2.437-1.248-3.805-1.18
	c-0.915-0.02-1.824,0.156-2.666,0.519c-0.721,0.312-1.336,0.826-1.77,1.48c-0.423,0.661-0.641,1.433-0.625,2.218
	c-0.045,0.836,0.183,1.664,0.648,2.359c0.403,0.573,0.939,1.039,1.563,1.357c0.771,0.369,1.57,0.682,2.389,0.932
	c0.797,0.266,1.428,0.502,1.888,0.708c0.452,0.192,0.855,0.485,1.18,0.854c0.32,0.39,0.486,0.883,0.466,1.387
	c0.024,0.598-0.205,1.178-0.631,1.599c-0.481,0.438-1.12,0.663-1.77,0.625c-0.754,0.036-1.491-0.228-2.053-0.731
	c-0.5-0.463-0.813-1.092-0.879-1.77h-2.708c0.059,0.854,0.359,1.672,0.867,2.359c0.521,0.697,1.217,1.245,2.018,1.587
	c0.903,0.397,1.88,0.599,2.867,0.59c0.958,0.034,1.91-0.169,2.771-0.59c0.705-0.353,1.292-0.905,1.688-1.587
	c0.371-0.654,0.564-1.395,0.561-2.146 M348.61,265.957l2.596-7.326l2.601,7.326H348.61z M355.688,271.307h2.714l-5.758-15.473
	h-2.907l-5.775,15.432h2.708l1.18-3.398h6.653L355.688,271.307z M327.829,255.635l5.639,15.672h3.238l5.663-15.672h-2.755
	l-4.53,12.977l-4.507-12.977H327.829z"/>
<path d="M438.763,207.679h-8.429v34.843H450v-6.488h-11.208L438.763,207.679z M424.607,214.38v-6.701h-21.689v34.843h21.684v-6.742
	h-13.254v-7.75h11.797v-6.353h-11.797v-7.296H424.607z M397.686,232.713c0.089-1.957-0.445-3.891-1.528-5.521
	c-0.946-1.341-2.195-2.44-3.645-3.209c-1.765-0.882-3.593-1.632-5.469-2.241c-1.545-0.559-2.725-1.019-3.539-1.38
	c-0.769-0.326-1.465-0.804-2.047-1.404c-0.536-0.563-0.829-1.316-0.813-2.094c-0.063-0.869,0.269-1.72,0.902-2.318
	c0.665-0.541,1.503-0.821,2.359-0.791c1.013-0.051,2.002,0.316,2.737,1.015c0.718,0.741,1.17,1.7,1.285,2.725h9.119
	c-0.164-2.96-1.569-5.714-3.869-7.585c-2.28-1.84-5.361-2.761-9.243-2.761c-2.186-0.047-4.357,0.354-6.382,1.18
	c-1.753,0.725-3.265,1.931-4.359,3.48c-1.076,1.58-1.629,3.457-1.581,5.368c-0.087,1.93,0.439,3.838,1.505,5.45
	c0.924,1.328,2.159,2.409,3.598,3.149c1.748,0.852,3.551,1.585,5.397,2.194c1.51,0.527,2.689,0.979,3.539,1.356
	c0.8,0.342,1.527,0.835,2.141,1.451c0.573,0.594,0.884,1.393,0.861,2.219c0.038,0.883-0.301,1.74-0.932,2.359
	c-0.695,0.628-1.612,0.955-2.548,0.908c-1.136,0.043-2.242-0.364-3.079-1.133c-0.84-0.825-1.34-1.934-1.404-3.108h-8.978
	c0.232,3.421,1.608,6.083,4.129,7.986s5.745,2.853,9.674,2.849c2.285,0.068,4.555-0.402,6.624-1.374
	c1.701-0.813,3.134-2.097,4.129-3.698c0.933-1.529,1.419-3.288,1.404-5.078 M367.791,232.707c0.1-1.951-0.424-3.881-1.492-5.516
	c-0.951-1.346-2.209-2.445-3.669-3.209c-1.764-0.884-3.591-1.633-5.468-2.241c-1.545-0.559-2.725-1.019-3.539-1.38
	c-0.779-0.329-1.483-0.813-2.07-1.421c-0.537-0.563-0.829-1.316-0.814-2.094c-0.052-0.867,0.289-1.711,0.927-2.3
	c0.665-0.541,1.503-0.821,2.359-0.791c1.013-0.051,2.002,0.316,2.736,1.015c0.716,0.742,1.166,1.7,1.28,2.725h9.119
	c-0.165-2.96-1.569-5.714-3.869-7.585c-2.281-1.84-5.362-2.761-9.243-2.761c-2.186-0.047-4.358,0.354-6.382,1.18
	c-1.753,0.725-3.265,1.931-4.359,3.48c-1.076,1.58-1.629,3.457-1.581,5.368c-0.087,1.93,0.439,3.838,1.504,5.45
	c0.925,1.328,2.16,2.409,3.599,3.149c1.748,0.852,3.551,1.585,5.397,2.194c1.51,0.527,2.689,0.979,3.539,1.356
	c0.8,0.342,1.526,0.835,2.141,1.451c0.576,0.592,0.887,1.393,0.861,2.219c0.038,0.883-0.301,1.74-0.932,2.359
	c-0.703,0.626-1.626,0.946-2.566,0.891c-1.135,0.043-2.241-0.365-3.079-1.133c-0.839-0.825-1.34-1.934-1.403-3.109h-8.954
	c0.232,3.422,1.608,6.084,4.129,7.987s5.745,2.858,9.674,2.866c2.285,0.068,4.555-0.402,6.624-1.374
	c1.702-0.812,3.135-2.096,4.129-3.698C367.321,236.256,367.807,234.497,367.791,232.707 M337.632,214.38v-6.701h-21.683v34.843
	h21.683v-6.742h-13.254v-7.75h11.797v-6.353h-11.797v-7.296H337.632z M312.622,207.679h-10.098l-11.927,15.336v-15.336h-8.43v34.843
	h8.43v-15.625l11.826,15.625h10.198l-14.044-17.79L312.622,207.679z M275.55,207.679h-8.423v21.612l-14.08-21.612h-8.44v34.843h8.44
	v-21.388l14.098,21.388h8.43L275.55,207.679z M219.385,229.758l4.388-12.818l4.336,12.818H219.385z M232.444,242.521h8.972
	l-12.764-34.601h-9.709l-12.765,34.601h8.848l2.165-6.358h13.089L232.444,242.521z M174.249,207.679l12.074,34.843h10.895
	l12.121-34.843h-9.019l-8.523,26.22l-8.529-26.22H174.249z M156.312,207.431c-2.993-0.05-5.942,0.725-8.523,2.242
	c-2.498,1.497-4.516,3.676-5.816,6.282c-1.421,2.858-2.135,6.016-2.082,9.208c-0.057,3.17,0.653,6.307,2.07,9.143
	c1.307,2.602,3.323,4.779,5.816,6.282c2.578,1.536,5.534,2.322,8.535,2.271c4.172,0,7.622-1.008,10.352-3.025
	c2.773-2.09,4.796-5.022,5.763-8.358h-3.646c-0.858,2.423-2.463,4.51-4.583,5.964c-2.135,1.482-4.779,2.221-7.934,2.217
	c-4.729,0.088-9.082-2.574-11.16-6.824c-1.162-2.386-1.736-5.015-1.675-7.668c-0.054-2.652,0.521-5.28,1.675-7.668
	c2.065-4.261,6.414-6.937,11.148-6.86c3.146,0,5.791,0.739,7.934,2.218c2.117,1.456,3.721,3.543,4.583,5.963h3.646
	c-0.966-3.334-2.988-6.266-5.763-8.353c-2.729-2.021-6.18-3.032-10.352-3.032 M130.181,207.773v26.372
	c0.048,1.427-0.396,2.825-1.257,3.964c-0.837,1.068-2.229,1.604-4.164,1.604c-2.041,0-3.539-0.631-4.488-1.899
	c-1.016-1.481-1.518-3.255-1.428-5.049h-3.451c0,3.186,0.838,5.664,2.514,7.438c1.675,1.773,4.009,2.658,7.001,2.654
	c2.726,0,4.868-0.796,6.43-2.389c1.561-1.592,2.348-3.702,2.359-6.329v-26.366H130.181z"/>
<path fill="#0071B9" d="M41.178,236.693l9.703-11.69l23.547,29.651h-18.51L41.178,236.693z M21.235,236.664v-2.777l31.41-38.53
	h17.796l-35.12,42.329v16.969H21.235V236.664z M21.235,195.375h14.086v15.177l-14.086,17.271V195.375z M0,271.466h92.872v-92.902H0
	V271.466z"/>
</svg>
