<?xml version="1.0" encoding="utf-8"?>
<!-- Generator: Adobe Illustrator 24.0.2, SVG Export Plug-In . SVG Version: 6.00 Build 0)  -->
<svg version="1.1" id="Ebene_1" xmlns="http://www.w3.org/2000/svg" xmlns:xlink="http://www.w3.org/1999/xlink" x="0px" y="0px"
	 width="650px" height="288px" viewBox="0 0 650 288" style="enable-background:new 0 0 650 288;" xml:space="preserve">
<style type="text/css">
	.st0{fill:#FFFFFF;}
	.st1{fill:#00385F;}
	.st2{fill:url(#SVGID_1_);}
</style>
<path class="st0" d="M0,118.1c0,93.5,78.7,169.3,175.8,169.3s175.8-75.8,175.8-169.3c0-43.9-17.4-83.9-45.9-114H45.9
	C17.4,34.2,0,74.2,0,118.1z"/>
<path class="st1" d="M321.3,74.1h13.2L345.3,21h-13.2L321.3,74.1L321.3,74.1z M358.4,74.1h12.8l5.4-26.6c0.7-3.4,1.8-4.8,4.1-4.8
	c2.3,0,2.8,1.4,2.2,4.8l-5.4,26.6h12.8l6.2-30.4c1.8-8.6-2.2-11-7.8-11c-3.9,0-8,1.6-10.9,6.2c-0.7-4.1-2.9-6.2-8.1-6.2
	c-4.4,0-8.1,2-10.5,6h-0.1l1-4.9h-12.4l-8.4,40.2h12.8l5.4-26.6c0.7-3.4,1.8-4.8,4.1-4.8s2.8,1.4,2.2,4.8L358.4,74.1L358.4,74.1z
	 M413.6,74.1h12.8l5.4-26.6c0.7-3.4,1.8-4.8,4.1-4.8c2.3,0,2.8,1.4,2.2,4.8l-5.4,26.6h12.8l6.2-30.4c1.8-8.6-2.2-11-7.8-11
	c-3.9,0-8,1.6-10.9,6.2c-0.7-4.1-2.9-6.2-8.1-6.2c-4.4,0-8.1,2-10.5,6h-0.1l1-4.9h-12.4l-8.2,40.2h12.8l5.4-26.6
	c0.7-3.4,1.8-4.8,4.1-4.8c2.3,0,2.8,1.4,2.2,4.8L413.6,74.1L413.6,74.1z M485.7,54c2.4-11.6,3-21.2-12-21.2
	c-14.4,0-18.5,10.6-20.6,21.2c-2.4,11.6-3,21.2,12,21.2C479.5,75.1,483.5,64.5,485.7,54L485.7,54z M465.8,54
	c2.1-10.2,3.3-12.6,6.1-12.6c2.9,0,3.1,2.4,1,12.6c-2.1,10.1-3.2,12.5-6.1,12.5C464,66.5,463.7,64.1,465.8,54L465.8,54z M485.8,74.1
	h12.3l1.1-5.5h0.1c0.7,4.5,2.9,6.6,7.4,6.6c8.6,0,13-7.2,16-22.1c3.2-15.6-0.3-20.4-7.7-20.4c-3.6,0-7.1,1.5-9.2,5.6h-0.1l3.5-17.4
	h-12.8L485.8,74.1L485.8,74.1z M502.7,54c1.8-8.7,2.9-11.3,5.8-11.3c3,0,3.1,2.5,1.3,11.3c-1.8,8.6-2.9,11.2-5.9,11.2
	C501,65.1,500.9,62.6,502.7,54L502.7,54z M522.6,74.1h12.8l8.2-40.2h-12.8L522.6,74.1L522.6,74.1z M531.4,30.9h12.8l2-10h-12.8
	L531.4,30.9L531.4,30.9z M541,74.1h12.8L564.5,21h-12.8L541,74.1L541,74.1z M559.3,74.1h12.8l8.2-40.2h-12.8L559.3,74.1L559.3,74.1z
	 M568.1,30.9h12.8l2-10h-12.8L568.1,30.9L568.1,30.9z M611.6,56.2l0.8-4.1c3-14.6-1.3-19.4-11.5-19.4c-11.5,0-17.5,5.8-20.6,21.2
	s-0.3,21.2,12.1,21.2c10.6,0,16-5.4,18.1-15.2h-11.6c-1.1,5.5-2.8,7-5,7c-1.8,0-3.3-1.1-2.4-5.4l1.1-5.3H611.6L611.6,56.2z
	 M601.1,48.9h-7l0.4-1.8c0.9-4.2,2.1-6.2,4.7-6.2c2.7,0,3.2,1.9,2.3,6.2L601.1,48.9L601.1,48.9z M611.5,74.1h12.8l5.4-26.6
	c0.7-3.4,1.8-4.8,4.1-4.8s2.8,1.4,2.2,4.8l-5.4,26.6h12.8l6.2-30.4c1.8-8.6-2.2-11-7.8-11c-4.4,0-8.1,2-10.5,6h-0.1l1-4.9h-12.4
	L611.5,74.1L611.5,74.1z"/>
<path class="st1" d="M413.5,110.6h12.8l0.7-3.4c2.1-10.3-1.1-16.8-13-16.8c-13.7,0-19.6,7.3-23.7,27.7c-4,19.8-2.3,27.7,12.5,27.7
	c8.5,0,17.5-3.6,20.5-18.5l0.8-4h-12.8c-2,10.1-3.4,13-6.6,13c-4.1,0-3.7-3.9-0.8-18.3c2.9-14.4,4.1-18.3,8.2-18.3
	c2.6,0,3.3,1.8,2,7.8L413.5,110.6L413.5,110.6z M458.1,126.8l0.8-4.1c3-14.6-1.3-19.4-11.5-19.4c-11.5,0-17.5,5.8-20.7,21.2
	c-3.1,15.4-0.3,21.2,12.1,21.2c10.6,0,16-5.4,18.1-15.2h-11.5c-1.1,5.5-2.8,7-5,7c-1.8,0-3.3-1.1-2.4-5.4l1.1-5.3H458.1L458.1,126.8
	z M447.8,119.5h-7l0.4-1.8c0.9-4.2,2.1-6.2,4.7-6.2c2.7,0,3.2,1.9,2.3,6.2L447.8,119.5L447.8,119.5z M458.1,144.7h12.8l5.4-26.6
	c0.7-3.4,1.8-4.8,4.1-4.8c2.3,0,2.8,1.4,2.2,4.8l-5.4,26.6H490l6.2-30.4c1.8-8.6-2.2-11-7.8-11c-4.4,0-8.1,2-10.5,6h-0.1l1-4.9
	h-12.4L458.1,144.7L458.1,144.7z M498.9,113.4h4.3l-4.4,21.5c-1.8,8.9,1,10.3,8.8,10.3c2.1,0,4.7-0.1,7.1-0.4l1.8-8.9h-2
	c-2.1,0-2.9-0.8-2.4-3.1l3.9-19.2h5l1.8-9h-5l2.4-11.9h-12.8l-2.4,11.9h-4.3L498.9,113.4L498.9,113.4z M551.5,126.8l0.8-4.1
	c3-14.6-1.3-19.4-11.5-19.4c-11.5,0-17.5,5.8-20.7,21.2c-3.1,15.4-0.3,21.2,12.1,21.2c10.6,0,16-5.4,18.1-15.2h-11.5
	c-1.1,5.5-2.8,7-5,7c-1.8,0-3.3-1.1-2.4-5.4l1.1-5.3H551.5L551.5,126.8z M541.1,119.5h-7l0.4-1.8c0.9-4.2,2.1-6.2,4.7-6.2
	c2.7,0,3.2,1.9,2.3,6.2L541.1,119.5L541.1,119.5z M551.1,144.7h12.8l4.5-22c1.1-5.3,4.1-7.2,8.6-7.2c1.1,0,2,0.1,3.1,0.3l2.5-12.5
	h-2.1c-3.8,0-7.7,2.6-10.1,7.5h-0.1l1.3-6.4h-12.4L551.1,144.7L551.1,144.7z"/>
<path class="st1" d="M361.2,214.3h13.2l8.4-41.4h9.9l2.4-11.8H362l-2.4,11.8h9.9L361.2,214.3L361.2,214.3z M415.6,196.4l0.8-4.1
	c3-14.6-1.3-19.4-11.5-19.4c-11.5,0-17.5,5.8-20.6,21.2s-0.3,21.2,12.1,21.2c10.6,0,16-5.4,18.1-15.2H403c-1.1,5.5-2.8,7-5,7
	c-1.8,0-3.3-1.1-2.4-5.4l1.1-5.3H415.6L415.6,196.4z M405.2,189.1h-7l0.4-1.8c0.9-4.3,2.1-6.2,4.7-6.2c2.7,0,3.2,1.9,2.3,6.2
	L405.2,189.1L405.2,189.1z M449.8,196.4l0.8-4.1c3-14.6-1.3-19.4-11.5-19.4c-11.5,0-17.5,5.8-20.6,21.2s-0.3,21.2,12.1,21.2
	c10.6,0,16-5.4,18.1-15.2h-11.5c-1.1,5.5-2.8,7-5,7c-1.8,0-3.3-1.1-2.4-5.4l1.1-5.3H449.8L449.8,196.4z M439.4,189.1h-7l0.4-1.8
	c0.9-4.3,2.1-6.2,4.7-6.2c2.7,0,3.2,1.9,2.3,6.2L439.4,189.1L439.4,189.1z M451.8,204.3c-1.8,8.6,2.2,11,7.8,11c4.4,0,8.1-2,10.5-6
	h0.1l-1,4.9h12.4l8.2-40.2h-12.8l-5.4,26.6c-0.7,3.4-1.8,4.8-4.1,4.8c-2.3,0-2.8-1.4-2.2-4.8l5.4-26.6h-12.8L451.8,204.3
	L451.8,204.3z M491.9,214.3h14.5l9.7-28.6h0.1l-1.9,28.6h14.5l16-40.2h-12.4l-9.1,29h-0.1l2.1-29h-13.6l-9.6,29H502l2.7-29h-12.4
	L491.9,214.3L491.9,214.3z M573.3,196.4l0.8-4.1c3-14.6-1.3-19.4-11.5-19.4c-11.5,0-17.5,5.8-20.6,21.2
	c-3.1,15.4-0.3,21.2,12.1,21.2c10.6,0,16-5.4,18.1-15.2h-11.5c-1.1,5.5-2.8,7-5,7c-1.8,0-3.3-1.1-2.4-5.4l1.1-5.3H573.3L573.3,196.4
	z M562.9,189.1h-7l0.4-1.8c0.9-4.3,2.1-6.2,4.7-6.2c2.7,0,3.2,1.9,2.3,6.2L562.9,189.1L562.9,189.1z M573.3,214.3H586l5.4-26.6
	c0.7-3.4,1.8-4.8,4.1-4.8s2.8,1.4,2.2,4.8l-5.4,26.6H605l6.2-30.4c1.8-8.6-2.2-11-7.8-11c-4.4,0-8.1,2-10.5,6h-0.1l1-4.9h-12.4
	L573.3,214.3L573.3,214.3z"/>
<path class="st0" d="M175.6,236.3c67.8,0,122.8-52.9,122.8-118.1S243.4,0,175.6,0S52.7,52.9,52.7,118.1S107.8,236.3,175.6,236.3
	L175.6,236.3z"/>
<path class="st1" d="M175.6,233.8c66.4,0,120.2-51.7,120.2-115.6S242,2.5,175.6,2.5S55.3,54.2,55.3,118.1S109.2,233.8,175.6,233.8
	L175.6,233.8z"/>
<linearGradient id="SVGID_1_" gradientUnits="userSpaceOnUse" x1="55.3319" y1="-342.1455" x2="295.8808" y2="-342.1455" gradientTransform="matrix(1 0 0 -1 0 -240.0945)">
	<stop  offset="0" style="stop-color:#C0D8E7"/>
	<stop  offset="0.2654" style="stop-color:#7696B4"/>
	<stop  offset="0.5056" style="stop-color:#3B698E"/>
	<stop  offset="0.7737" style="stop-color:#00476F"/>
	<stop  offset="1" style="stop-color:#00385F"/>
</linearGradient>
<path class="st2" d="M175.6,2.5c-66.4,0-120.2,51.7-120.2,115.6c0,32.9,14.3,62.5,37.1,83.5c50.7-16.6,102.4-36.5,153.3-59.6
	c17.3-7.8,34-15.8,50.1-24C295.8,54.2,242,2.5,175.6,2.5z"/>
<path class="st0" d="M143.6,192.2h27.7v-1.5c-3.4-0.1-5.6-0.3-6.8-0.8c-1.2-0.4-1.7-1.5-1.7-3.3c0-0.7,0.1-1.6,0.4-2.8
	c0.2-0.8,0.4-1.7,0.7-2.6l13.4-45.5h5.3c3.9,0,6.6,0.7,7.9,2.1c1.3,1.4,2,3.5,2,6.3l-0.2,3.2l1.7,0.2l4.2-14.9h-51l-4,14.1l1.7,0.3
	c3.1-5.4,5.9-8.6,8.3-9.6c2.4-1.1,7.2-1.6,14.6-1.6l-14,48.3c-0.8,2.7-2.1,4.6-4.1,5.6c-1.2,0.6-3.2,1-6,1.2V192.2L143.6,192.2z"/>
<path class="st0" d="M109.7,115.8h23.2v-1.5c-2.1-0.1-3.7-0.4-4.8-0.9c-1.1-0.5-1.6-1.5-1.6-3c0-0.5,0.1-1.2,0.3-2.1
	c0.2-0.9,0.5-2.1,0.9-3.5l11.6-40.4c0.8-2.8,1.7-4.5,2.6-5.2c0.9-0.7,2.7-1.2,5.2-1.5v-1.5h-23.7v1.5c2.5,0.1,4.2,0.5,5.2,1.1
	c1,0.6,1.5,1.6,1.5,3c0,0.7-0.1,1.3-0.2,2c-0.2,0.7-0.4,1.8-0.9,3.5l-11.6,40.4c-0.8,2.8-1.9,4.7-3.2,5.6c-0.8,0.6-2.4,1-4.6,1.2
	L109.7,115.8L109.7,115.8z M232.8,54.9c-11.1,0-20.5,4.3-28.2,12.9c-7.1,7.8-10.6,16.3-10.6,25.6c0,6.4,2.1,12.1,6.3,16.9
	c4.2,4.8,10.3,7.2,18.2,7.2c5.2,0,10-1.2,14.4-3.6c4.4-2.4,8.3-5.8,11.7-10l-1.5-1.3c-3.8,3.5-6.9,6-9.3,7.4
	c-4,2.3-8.4,3.4-13.2,3.4c-4.7,0-8.5-1.6-11.4-4.8c-3-3.2-4.4-8-4.4-14.3c0-8.5,2.4-16.3,7.3-23.6c5.6-8.3,12.7-12.5,21.3-12.5
	c5.6,0,9.6,2,12.1,6.1c1.3,2.2,2.2,5.1,2.5,8.7l1.7,0.2l3.5-18.2h-1.9c-0.3,0.7-0.7,1.2-1.2,1.5c-0.5,0.4-1.3,0.5-2.4,0.5
	c-0.7,0-2.6-0.4-5.8-1.1C238.5,55.3,235.5,54.9,232.8,54.9L232.8,54.9L232.8,54.9z"/>
</svg>
