<?xml version="1.0" encoding="UTF-8"?> <svg xmlns="http://www.w3.org/2000/svg" xmlns:xlink="http://www.w3.org/1999/xlink" version="1.1" id="Laag_1" x="0px" y="0px" viewBox="0 0 283.5 141.7" style="enable-background:new 0 0 283.5 141.7;" xml:space="preserve"> <style type="text/css"> .st0{clip-path:url(#SVGID_00000170970485826575654140000006003429108193481103_);} .st1{clip-path:url(#SVGID_00000170970485826575654140000006003429108193481103_);fill:#E5C27B;} .st2{clip-path:url(#SVGID_00000170970485826575654140000006003429108193481103_);fill:#D9A942;} .st3{clip-path:url(#SVGID_00000170970485826575654140000006003429108193481103_);fill:#D49E29;} .st4{clip-path:url(#SVGID_00000170970485826575654140000006003429108193481103_);fill:#B1CAEB;} .st5{clip-path:url(#SVGID_00000170970485826575654140000006003429108193481103_);fill:#A8B7BD;} .st6{clip-path:url(#SVGID_00000170970485826575654140000006003429108193481103_);fill:#A5ADA8;} .st7{clip-path:url(#SVGID_00000170970485826575654140000006003429108193481103_);fill:#A5AAA1;} .st8{clip-path:url(#SVGID_00000170970485826575654140000006003429108193481103_);fill:#8FB6E1;} .st9{clip-path:url(#SVGID_00000170970485826575654140000006003429108193481103_);fill:#8BAFD2;} .st10{clip-path:url(#SVGID_00000170970485826575654140000006003429108193481103_);fill:#7FADDE;} .st11{clip-path:url(#SVGID_00000170970485826575654140000006003429108193481103_);fill:#7EAADA;} .st12{clip-path:url(#SVGID_00000170970485826575654140000006003429108193481103_);fill:#9776AD;} .st13{clip-path:url(#SVGID_00000170970485826575654140000006003429108193481103_);fill:#E1AF71;} .st14{clip-path:url(#SVGID_00000170970485826575654140000006003429108193481103_);fill:#D6953A;} .st15{clip-path:url(#SVGID_00000170970485826575654140000006003429108193481103_);fill:#C59F6F;} .st16{clip-path:url(#SVGID_00000170970485826575654140000006003429108193481103_);fill:#C2955B;} .st17{clip-path:url(#SVGID_00000170970485826575654140000006003429108193481103_);fill:#C09153;} .st18{clip-path:url(#SVGID_00000170970485826575654140000006003429108193481103_);fill:#BB986F;} .st19{clip-path:url(#SVGID_00000170970485826575654140000006003429108193481103_);fill:#BB9466;} .st20{clip-path:url(#SVGID_00000170970485826575654140000006003429108193481103_);fill:#B7976E;} .st21{clip-path:url(#SVGID_00000170970485826575654140000006003429108193481103_);fill:#B7956C;} .st22{clip-path:url(#SVGID_00000170970485826575654140000006003429108193481103_);fill:#B97860;} .st23{clip-path:url(#SVGID_00000170970485826575654140000006003429108193481103_);fill:#B56D4E;} .st24{clip-path:url(#SVGID_00000170970485826575654140000006003429108193481103_);fill:#C98332;} .st25{clip-path:url(#SVGID_00000170970485826575654140000006003429108193481103_);fill:#8E5072;} .st26{clip-path:url(#SVGID_00000170970485826575654140000006003429108193481103_);fill:#855179;} .st27{clip-path:url(#SVGID_00000170970485826575654140000006003429108193481103_);fill:#844577;} .st28{clip-path:url(#SVGID_00000170970485826575654140000006003429108193481103_);fill:#8D496B;} .st29{clip-path:url(#SVGID_00000170970485826575654140000006003429108193481103_);fill:#8A4A6E;} .st30{clip-path:url(#SVGID_00000170970485826575654140000006003429108193481103_);fill:#89456D;} .st31{clip-path:url(#SVGID_00000170970485826575654140000006003429108193481103_);fill:#89446A;} .st32{clip-path:url(#SVGID_00000170970485826575654140000006003429108193481103_);fill:#76458C;} .st33{clip-path:url(#SVGID_00000170970485826575654140000006003429108193481103_);fill:#8D90C5;} .st34{clip-path:url(#SVGID_00000170970485826575654140000006003429108193481103_);fill:#693483;} .st35{clip-path:url(#SVGID_00000170970485826575654140000006003429108193481103_);fill:#6F347B;} .st36{clip-path:url(#SVGID_00000170970485826575654140000006003429108193481103_);fill:#703377;} .st37{clip-path:url(#SVGID_00000170970485826575654140000006003429108193481103_);fill:#642D7E;} .st38{clip-path:url(#SVGID_00000170970485826575654140000006003429108193481103_);fill:#63297C;} .st39{clip-path:url(#SVGID_00000170970485826575654140000006003429108193481103_);fill:#6961A4;} .st40{clip-path:url(#SVGID_00000170970485826575654140000006003429108193481103_);fill:#636BAE;} .st41{clip-path:url(#SVGID_00000170970485826575654140000006003429108193481103_);fill:#454D99;} .st42{clip-path:url(#SVGID_00000121236931996011318080000010514966420026351790_);fill:url(#SVGID_00000019640167517429416820000000476919646633414288_);} .st43{clip-path:url(#SVGID_00000026146078545261740880000005623308828795892108_);fill:url(#SVGID_00000059267668475936316360000011363183193300947078_);} </style> <g> <defs> <rect id="SVGID_1_" width="283.5" height="141.7"></rect> </defs> <clipPath id="SVGID_00000103231174810186300980000006667991371680350123_"> <use xlink:href="#SVGID_1_" style="overflow:visible;"></use> </clipPath> <path style="clip-path:url(#SVGID_00000103231174810186300980000006667991371680350123_);" d="M51.4,84.9c0,1.8-0.2,3.3-0.6,4.7 c-0.4,1.4-0.9,2.5-1.6,3.6c-0.7,1-1.5,1.9-2.5,2.6c-1,0.7-2.1,1.3-3.3,1.7c-1.2,0.4-2.5,0.7-3.9,0.9c-1.4,0.2-2.8,0.3-4.3,0.3H17.9 V71.2h17.3c1.5,0,2.9,0.1,4.3,0.3c1.4,0.2,2.7,0.5,3.9,0.9c1.2,0.4,2.3,1,3.3,1.7c1,0.7,1.8,1.6,2.5,2.6c0.7,1,1.2,2.2,1.6,3.6 C51.2,81.6,51.4,83.1,51.4,84.9 M44,84.9c0-1.3-0.2-2.5-0.5-3.4c-0.3-1-0.9-1.8-1.6-2.4c-0.8-0.6-1.7-1.1-2.9-1.4 c-1.2-0.3-2.7-0.5-4.4-0.5h-9.2v15.5h9.2c1.7,0,3.2-0.2,4.4-0.5c1.2-0.3,2.2-0.8,2.9-1.4c0.7-0.6,1.3-1.5,1.6-2.4 C43.8,87.3,44,86.2,44,84.9"></path> <rect x="56.5" y="71.2" style="clip-path:url(#SVGID_00000103231174810186300980000006667991371680350123_);" width="7.4" height="27.4"></rect> <path style="clip-path:url(#SVGID_00000103231174810186300980000006667991371680350123_);" d="M92.3,88.5c0,1.8-0.3,3.4-0.9,4.7 c-0.6,1.3-1.5,2.4-2.6,3.2c-1.1,0.9-2.5,1.5-4.2,1.9c-1.6,0.4-3.5,0.6-5.6,0.6c-1,0-2,0-3.1-0.1c-1.1-0.1-2.1-0.2-3-0.4 c-1-0.1-1.9-0.3-2.7-0.5c-0.8-0.2-1.5-0.3-2-0.5V91c0.6,0.2,1.2,0.5,1.8,0.7c0.7,0.2,1.4,0.4,2.2,0.6c0.8,0.2,1.7,0.3,2.7,0.5 c1,0.1,2.1,0.2,3.3,0.2c1.3,0,2.4-0.1,3.2-0.4c0.9-0.3,1.5-0.7,2.1-1.2c0.5-0.5,0.9-1.1,1.1-1.8c0.2-0.7,0.3-1.4,0.3-2.3V71.2h7.4 V88.5z"></path> <polygon style="clip-path:url(#SVGID_00000103231174810186300980000006667991371680350123_);" points="106.5,81.7 121.6,71.2 131.5,71.2 113.1,84.3 132.7,98.6 122,98.6 106.5,87.2 106.5,98.6 99,98.6 99,71.2 106.5,71.2 "></polygon> <polygon style="clip-path:url(#SVGID_00000103231174810186300980000006667991371680350123_);" points="155.4,98.6 146.8,98.6 132.9,71.2 141.2,71.2 151.1,91.8 161.1,71.2 169.3,71.2 "></polygon> <path style="clip-path:url(#SVGID_00000103231174810186300980000006667991371680350123_);" d="M190.5,93.4h-15.3l-2.6,5.2h-8.2 l14.3-27.4h8.2l14.3,27.4h-8.2L190.5,93.4z M177.9,88.1h10L183,78L177.9,88.1z"></path> <path style="clip-path:url(#SVGID_00000103231174810186300980000006667991371680350123_);" d="M231.1,78.9 c-0.5-0.3-1.2-0.5-2.1-0.9c-0.8-0.3-1.8-0.6-2.9-0.9c-1.1-0.3-2.2-0.5-3.5-0.7c-1.3-0.2-2.6-0.3-3.9-0.3c-1.1,0-2,0-2.7,0.1 c-0.8,0.1-1.4,0.2-1.9,0.3c-0.5,0.1-0.9,0.2-1.2,0.4c-0.3,0.1-0.5,0.3-0.7,0.4c-0.2,0.1-0.3,0.3-0.3,0.4c0,0.1-0.1,0.3-0.1,0.4 c0,0.4,0.2,0.7,0.6,1c0.4,0.3,0.9,0.6,1.6,0.8c0.7,0.2,1.5,0.5,2.4,0.7c0.9,0.2,1.9,0.4,2.9,0.6c1,0.2,2.1,0.5,3.2,0.7 c1.1,0.3,2.2,0.6,3.2,0.9c1,0.3,2,0.7,2.9,1.2c0.9,0.5,1.7,1,2.4,1.6c0.7,0.6,1.2,1.3,1.6,2.1c0.4,0.8,0.6,1.7,0.6,2.7 c0,1.3-0.2,2.4-0.7,3.4c-0.5,0.9-1.1,1.7-1.9,2.4c-0.8,0.7-1.7,1.2-2.7,1.6c-1,0.4-2.1,0.7-3.2,0.9c-1.1,0.2-2.3,0.4-3.4,0.4 c-1.1,0.1-2.2,0.1-3.3,0.1c-2.7,0-5.2-0.2-7.5-0.7c-2.3-0.4-4.3-1-6.1-1.7v-6.5c1.8,1,3.9,1.8,6.2,2.4c2.3,0.6,4.8,0.9,7.5,0.9 c1.6,0,2.8-0.1,3.8-0.2c1-0.2,1.8-0.4,2.3-0.6c0.6-0.3,0.9-0.5,1.1-0.8c0.2-0.3,0.3-0.6,0.3-0.9c0-0.4-0.2-0.8-0.6-1.1 c-0.4-0.3-0.9-0.6-1.6-0.9c-0.7-0.2-1.5-0.5-2.4-0.7c-0.9-0.2-1.9-0.4-2.9-0.6c-1-0.2-2.1-0.4-3.2-0.7c-1.1-0.2-2.1-0.5-3.2-0.8 c-1-0.3-2-0.7-2.9-1.1c-0.9-0.4-1.7-0.9-2.4-1.5c-0.7-0.6-1.2-1.3-1.6-2.1c-0.4-0.8-0.6-1.7-0.6-2.7c0-1.2,0.2-2.3,0.6-3.1 c0.4-0.9,1-1.6,1.7-2.2c0.7-0.6,1.6-1.1,2.5-1.5c0.9-0.4,2-0.7,3-0.9c1.1-0.2,2.1-0.4,3.2-0.4c1.1-0.1,2.1-0.1,3.1-0.1 c1.1,0,2.2,0.1,3.3,0.2c1.1,0.1,2.2,0.3,3.3,0.4c1.1,0.2,2.1,0.4,3.2,0.7c1,0.3,2,0.5,2.8,0.8V78.9z"></path> <polygon style="clip-path:url(#SVGID_00000103231174810186300980000006667991371680350123_);" points="254.9,77.2 254.9,98.6 247.5,98.6 247.5,77.2 235.9,77.2 235.9,71.2 266.5,71.2 266.5,77.2 "></polygon> <polygon style="clip-path:url(#SVGID_00000103231174810186300980000006667991371680350123_);" points="29.5,115.3 29.5,108.9 26.1,115.3 23.8,115.3 20.4,108.9 20.4,115.3 17.9,115.3 17.9,106.2 21.2,106.2 24.9,113.1 28.6,106.2 32,106.2 32,115.3 "></polygon> <path style="clip-path:url(#SVGID_00000103231174810186300980000006667991371680350123_);" d="M43.3,113.6h-5.1l-0.9,1.7h-2.8 l4.8-9.2h2.8l4.8,9.2h-2.8L43.3,113.6z M39.1,111.8h3.3l-1.7-3.4L39.1,111.8z"></path> <polygon style="clip-path:url(#SVGID_00000103231174810186300980000006667991371680350123_);" points="52,109.7 57,106.2 60.4,106.2 54.2,110.6 60.8,115.3 57.2,115.3 52,111.5 52,115.3 49.5,115.3 49.5,106.2 52,106.2 "></polygon> <polygon style="clip-path:url(#SVGID_00000103231174810186300980000006667991371680350123_);" points="63.3,115.3 63.3,106.2 72.6,106.2 72.6,108.1 65.8,108.1 65.8,109.6 72.2,109.6 72.2,111.6 65.8,111.6 65.8,113.4 72.6,113.4 72.6,115.3 "></polygon> <polygon style="clip-path:url(#SVGID_00000103231174810186300980000006667991371680350123_);" points="76.1,115.3 76.1,106.2 78.6,106.2 78.6,113.3 85.3,113.3 85.3,115.3 "></polygon> <path style="clip-path:url(#SVGID_00000103231174810186300980000006667991371680350123_);" d="M95.7,113.6h-5.1l-0.9,1.7H87 l4.8-9.2h2.8l4.8,9.2h-2.8L95.7,113.6z M91.5,111.8h3.3l-1.7-3.4L91.5,111.8z"></path> <path style="clip-path:url(#SVGID_00000103231174810186300980000006667991371680350123_);" d="M109.3,113.6h-5.1l-0.9,1.7h-2.8 l4.8-9.2h2.8l4.8,9.2h-2.8L109.3,113.6z M105,111.8h3.3l-1.7-3.4L105,111.8z"></path> <path style="clip-path:url(#SVGID_00000103231174810186300980000006667991371680350123_);" d="M117.9,115.3h-2.5v-9.2h6.2 c0.7,0,1.2,0.1,1.7,0.2c0.5,0.1,0.8,0.3,1.1,0.6c0.3,0.3,0.5,0.6,0.6,0.9c0.1,0.4,0.2,0.8,0.2,1.2c0,0.4-0.1,0.7-0.2,1 c-0.1,0.3-0.3,0.5-0.4,0.7c-0.2,0.2-0.4,0.4-0.6,0.5c-0.2,0.1-0.5,0.3-0.8,0.4l3,3.6h-2.9l-2.8-3.4h-2.7V115.3z M122.8,109.1 c0-0.2,0-0.3-0.1-0.5c0-0.1-0.1-0.2-0.2-0.3c-0.1-0.1-0.3-0.1-0.5-0.2c-0.2,0-0.4-0.1-0.7-0.1h-3.4v2h3.4c0.3,0,0.5,0,0.7-0.1 c0.2,0,0.3-0.1,0.5-0.2c0.1-0.1,0.2-0.2,0.2-0.3C122.8,109.4,122.8,109.2,122.8,109.1"></path> <rect x="135.4" y="106.2" style="clip-path:url(#SVGID_00000103231174810186300980000006667991371680350123_);" width="2.5" height="9.1"></rect> <polygon style="clip-path:url(#SVGID_00000103231174810186300980000006667991371680350123_);" points="150.4,115.3 144.3,109 144.3,115.3 141.8,115.3 141.8,106.2 144.5,106.2 150.7,112.5 150.7,106.2 153.1,106.2 153.1,115.3 "></polygon> <polygon style="clip-path:url(#SVGID_00000103231174810186300980000006667991371680350123_);" points="169.4,115.3 166.6,115.3 161.9,106.2 164.7,106.2 168,113 171.3,106.2 174.1,106.2 "></polygon> <path style="clip-path:url(#SVGID_00000103231174810186300980000006667991371680350123_);" d="M182.3,113.6h-5.1l-0.9,1.7h-2.8 l4.8-9.2h2.8l4.8,9.2h-2.8L182.3,113.6z M178.1,111.8h3.3l-1.7-3.4L178.1,111.8z"></path> <path style="clip-path:url(#SVGID_00000103231174810186300980000006667991371680350123_);" d="M196.9,108.7 c-0.2-0.1-0.4-0.2-0.7-0.3c-0.3-0.1-0.6-0.2-1-0.3c-0.4-0.1-0.8-0.2-1.2-0.2c-0.4-0.1-0.9-0.1-1.3-0.1c-0.4,0-0.7,0-0.9,0 c-0.2,0-0.5,0.1-0.6,0.1c-0.2,0-0.3,0.1-0.4,0.1c-0.1,0-0.2,0.1-0.2,0.1l-0.1,0.1l0,0.1c0,0.1,0.1,0.3,0.2,0.4 c0.1,0.1,0.3,0.2,0.5,0.3c0.2,0.1,0.5,0.2,0.8,0.2c0.3,0.1,0.6,0.1,1,0.2c0.3,0.1,0.7,0.2,1.1,0.2c0.4,0.1,0.7,0.2,1.1,0.3 c0.3,0.1,0.7,0.2,1,0.4c0.3,0.2,0.6,0.3,0.8,0.5c0.2,0.2,0.4,0.4,0.5,0.7c0.1,0.3,0.2,0.6,0.2,0.9c0,0.4-0.1,0.8-0.2,1.1 c-0.2,0.3-0.4,0.6-0.6,0.8c-0.3,0.2-0.6,0.4-0.9,0.5c-0.3,0.1-0.7,0.2-1.1,0.3c-0.4,0.1-0.8,0.1-1.1,0.1c-0.4,0-0.7,0-1.1,0 c-0.9,0-1.7-0.1-2.5-0.2c-0.8-0.2-1.5-0.3-2-0.6v-2.2c0.6,0.3,1.3,0.6,2.1,0.8c0.8,0.2,1.6,0.3,2.5,0.3c0.5,0,1,0,1.3-0.1 c0.3-0.1,0.6-0.1,0.8-0.2c0.2-0.1,0.3-0.2,0.4-0.3c0.1-0.1,0.1-0.2,0.1-0.3c0-0.1-0.1-0.3-0.2-0.4c-0.1-0.1-0.3-0.2-0.5-0.3 c-0.2-0.1-0.5-0.2-0.8-0.2c-0.3-0.1-0.6-0.1-1-0.2c-0.3-0.1-0.7-0.1-1.1-0.2c-0.4-0.1-0.7-0.2-1.1-0.3c-0.3-0.1-0.7-0.2-1-0.4 c-0.3-0.1-0.6-0.3-0.8-0.5c-0.2-0.2-0.4-0.4-0.5-0.7c-0.1-0.3-0.2-0.6-0.2-0.9c0-0.4,0.1-0.8,0.2-1c0.1-0.3,0.3-0.5,0.6-0.7 c0.2-0.2,0.5-0.4,0.8-0.5c0.3-0.1,0.7-0.2,1-0.3c0.4-0.1,0.7-0.1,1.1-0.1c0.4,0,0.7,0,1,0c0.4,0,0.7,0,1.1,0.1 c0.4,0,0.7,0.1,1.1,0.1c0.4,0.1,0.7,0.1,1.1,0.2c0.3,0.1,0.7,0.2,0.9,0.3V108.7z"></path> <polygon style="clip-path:url(#SVGID_00000103231174810186300980000006667991371680350123_);" points="206.2,108.2 206.2,115.3 203.8,115.3 203.8,108.2 199.9,108.2 199.9,106.2 210.1,106.2 210.1,108.2 "></polygon> <path style="clip-path:url(#SVGID_00000103231174810186300980000006667991371680350123_);" d="M218.6,105.9c0.9,0,1.7,0.1,2.5,0.2 c0.8,0.2,1.5,0.3,2.1,0.6v2.2c-0.3-0.1-0.5-0.3-0.9-0.4c-0.3-0.1-0.7-0.3-1-0.4c-0.4-0.1-0.8-0.2-1.2-0.2c-0.4-0.1-0.9-0.1-1.3-0.1 c-0.6,0-1.1,0-1.5,0.1c-0.4,0.1-0.8,0.2-1.1,0.3c-0.3,0.1-0.6,0.3-0.8,0.5c-0.2,0.2-0.4,0.4-0.5,0.6c-0.1,0.2-0.2,0.4-0.2,0.7 c0,0.2-0.1,0.4-0.1,0.6c0,0.2,0,0.4,0.1,0.6c0,0.2,0.1,0.4,0.2,0.6c0.1,0.2,0.3,0.4,0.4,0.6c0.2,0.2,0.4,0.4,0.7,0.5 c0.3,0.2,0.7,0.3,1.1,0.4c0.4,0.1,0.9,0.1,1.5,0.1c0.3,0,0.5,0,0.8,0c0.2,0,0.4,0,0.6-0.1c0.2,0,0.4-0.1,0.5-0.1 c0.2,0,0.3-0.1,0.5-0.1v-1.1h-2.8v-2h5.2v4.7c-0.3,0.1-0.7,0.2-1.1,0.3c-0.4,0.1-0.8,0.2-1.3,0.2c-0.4,0.1-0.9,0.1-1.3,0.1 c-0.4,0-0.8,0.1-1.2,0.1c-0.6,0-1.2,0-1.7-0.1c-0.6-0.1-1.1-0.2-1.5-0.4c-0.5-0.2-0.9-0.4-1.3-0.6c-0.4-0.3-0.7-0.6-1-0.9 c-0.3-0.4-0.5-0.8-0.6-1.2c-0.2-0.5-0.2-1-0.2-1.5c0-0.6,0.1-1.1,0.2-1.5c0.2-0.5,0.4-0.9,0.7-1.2c0.3-0.4,0.6-0.7,1-0.9 c0.4-0.3,0.8-0.5,1.3-0.6c0.5-0.2,1-0.3,1.5-0.4C217.5,106,218,105.9,218.6,105.9"></path> <path style="clip-path:url(#SVGID_00000103231174810186300980000006667991371680350123_);" d="M239.1,110.7c0,0.8-0.1,1.5-0.4,2.1 c-0.3,0.6-0.7,1.1-1.2,1.5c-0.5,0.4-1.2,0.7-2,0.9c-0.8,0.2-1.6,0.3-2.6,0.3c-1,0-1.8-0.1-2.6-0.3c-0.8-0.2-1.4-0.5-2-0.9 c-0.5-0.4-1-0.9-1.3-1.5c-0.3-0.6-0.4-1.3-0.4-2.1c0-0.8,0.1-1.5,0.4-2.1c0.3-0.6,0.7-1.1,1.3-1.5c0.5-0.4,1.2-0.7,2-0.9 c0.8-0.2,1.6-0.3,2.6-0.3c1,0,1.8,0.1,2.6,0.3c0.8,0.2,1.4,0.5,2,0.9c0.5,0.4,0.9,0.9,1.2,1.5C238.9,109.3,239.1,110,239.1,110.7 M236.6,110.7c0-0.3-0.1-0.7-0.2-1c-0.1-0.3-0.3-0.6-0.6-0.9c-0.3-0.3-0.7-0.5-1.1-0.7c-0.5-0.2-1.1-0.3-1.8-0.3 c-0.5,0-0.9,0-1.3,0.1c-0.4,0.1-0.7,0.2-1,0.3c-0.3,0.1-0.5,0.3-0.7,0.5c-0.2,0.2-0.3,0.4-0.4,0.6c-0.1,0.2-0.2,0.4-0.2,0.7 c0,0.2-0.1,0.5-0.1,0.7c0,0.2,0,0.5,0.1,0.7c0,0.2,0.1,0.5,0.2,0.7c0.1,0.2,0.3,0.4,0.4,0.6c0.2,0.2,0.4,0.3,0.7,0.5 c0.3,0.1,0.6,0.2,1,0.3c0.4,0.1,0.8,0.1,1.3,0.1c0.7,0,1.4-0.1,1.8-0.3c0.5-0.2,0.9-0.4,1.1-0.7c0.3-0.3,0.5-0.6,0.6-0.9 C236.5,111.4,236.6,111.1,236.6,110.7"></path> <polygon style="clip-path:url(#SVGID_00000103231174810186300980000006667991371680350123_);" points="242.4,115.3 242.4,106.2 251.7,106.2 251.7,108.1 244.9,108.1 244.9,109.6 251.3,109.6 251.3,111.6 244.9,111.6 244.9,113.4 251.8,113.4 251.8,115.3 "></polygon> <path style="clip-path:url(#SVGID_00000103231174810186300980000006667991371680350123_);" d="M266.4,110.7c0,0.6-0.1,1.1-0.2,1.6 c-0.1,0.5-0.3,0.9-0.5,1.2c-0.2,0.3-0.5,0.6-0.8,0.9c-0.3,0.2-0.7,0.4-1.1,0.6c-0.4,0.1-0.8,0.2-1.3,0.3c-0.5,0.1-0.9,0.1-1.4,0.1 h-5.8v-9.2h5.8c0.5,0,1,0,1.4,0.1c0.5,0.1,0.9,0.2,1.3,0.3c0.4,0.1,0.8,0.3,1.1,0.6c0.3,0.2,0.6,0.5,0.8,0.9s0.4,0.7,0.5,1.2 C266.4,109.6,266.4,110.2,266.4,110.7 M264,110.7c0-0.4-0.1-0.8-0.2-1.1c-0.1-0.3-0.3-0.6-0.5-0.8c-0.3-0.2-0.6-0.4-1-0.5 c-0.4-0.1-0.9-0.2-1.5-0.2h-3.1v5.2h3.1c0.6,0,1.1-0.1,1.5-0.2c0.4-0.1,0.7-0.3,1-0.5c0.3-0.2,0.4-0.5,0.5-0.8 C263.9,111.6,264,111.2,264,110.7"></path> <polygon style="clip-path:url(#SVGID_00000103231174810186300980000006667991371680350123_);fill:#E5C27B;" points="37.2,33.4 37.2,61.8 57.3,61.8 57.3,61.8 57.3,33.4 37.2,33.4 "></polygon> <polygon style="clip-path:url(#SVGID_00000103231174810186300980000006667991371680350123_);fill:#E5C27B;" points="209,35.5 199.4,35.5 199.4,35.5 198.9,35.5 195.9,35.5 195.3,35.5 195.3,35.5 195.3,35.5 195.3,19.4 185.9,19.4 185.9,19.4 185.9,46.3 182.9,46.3 182.9,46.3 182.9,38.2 181.5,38.2 181.5,38.2 181.5,38.2 181.5,35.5 178.7,35.5 178.7,35.5 172.1,35.5 169.3,35.5 169.3,35.5 169.3,42.1 167.9,42.1 167.9,42.1 167.9,35.5 167.9,35.5 160,35.5 160,35.5 160,33.4 160,33.4 154.2,33.4 154.2,33.4 154.2,19.4 144.8,19.4 144.8,19.4 144.8,33.4 140,33.4 140,33.4 140,35.5 140,35.5 137.7,35.5 137.7,35.5 137.2,35.5 133.6,35.5 133.6,35.5 133.6,19.4 124.2,19.4 124.2,42.1 124.2,42.1 121.2,42.1 121.2,42.1 121.2,38.2 119.8,38.2 119.8,38.2 119.8,38.2 119.8,35.5 119,35.5 119,33.4 119,33.4 98.9,33.4 98.9,33.4 98.9,35.5 98.9,35.5 98.3,35.5 98.3,33.4 92.5,33.4 92.5,19.4 83.1,19.4 83.1,33.4 78.3,33.4 78.3,35.5 78.3,35.5 69.3,35.5 69.3,35.5 69.3,42.1 59.5,42.1 59.5,61.8 69.3,61.8 70.7,61.8 78.3,61.8 78.3,61.8 78.7,61.8 79.5,61.8 80.2,61.8 80.2,61.8 83.1,61.8 83.1,61.8 92.5,61.8 96.2,61.8 96.2,61.8 98.3,61.8 98.3,61.8 98.9,61.8 98.9,61.8 100.6,61.8 104.6,61.8 106.2,61.8 106.2,61.8 110.4,61.8 111.8,61.8 111.8,61.8 119,61.8 119,61.8 119.8,61.8 120.6,61.8 121.2,61.8 121.2,61.8 124.2,61.8 124.6,61.8 124.6,61.8 128.2,61.8 131,61.8 132.4,61.8 132.4,61.8 133.6,61.8 137.2,61.8 137.7,61.8 137.7,61.8 140,61.8 140.4,61.8 141.2,61.8 141.9,61.8 144.8,61.8 144.8,61.8 145.6,61.8 147.2,61.8 147.3,61.8 154.2,61.8 154.2,61.8 157.9,61.8 157.9,61.8 160,61.8 162.3,61.8 162.3,61.8 165.7,61.8 165.7,61.8 166.3,61.8 166.3,61.8 167.9,61.8 167.9,61.8 169.3,61.8 169.3,61.8 172.1,61.8 173.5,61.8 178.7,61.8 178.7,61.8 181.5,61.8 182.3,61.8 182.9,61.8 182.9,61.8 185.9,61.8 185.9,61.8 186.3,61.8 189.9,61.8 189.9,61.8 195.3,61.8 195.3,61.8 195.9,61.8 198.9,61.8 199.4,61.8 199.4,61.8 205.9,61.8 207.3,61.8 227.4,61.8 227.4,46.3 209,46.3 "></polygon> <rect x="231" y="35.5" style="clip-path:url(#SVGID_00000103231174810186300980000006667991371680350123_);fill:#E5C27B;" width="9.4" height="26.3"></rect> <rect x="37.2" y="33.4" style="clip-path:url(#SVGID_00000103231174810186300980000006667991371680350123_);fill:#E5C27B;" width="20.1" height="28.4"></rect> <rect x="59.5" y="42.1" style="clip-path:url(#SVGID_00000103231174810186300980000006667991371680350123_);fill:#E5C27B;" width="9.8" height="19.7"></rect> <polygon style="clip-path:url(#SVGID_00000103231174810186300980000006667991371680350123_);fill:#E5C27B;" points="70.7,42.1 70.7,42.1 70.7,38.2 70.7,38.2 78.3,38.2 78.3,38.2 78.3,35.5 69.3,35.5 69.3,42.1 "></polygon> <path style="clip-path:url(#SVGID_00000103231174810186300980000006667991371680350123_);fill:#E5C27B;" d="M78.3,38.2L78.3,38.2 L78.3,38.2z"></path> <rect x="69.3" y="42.1" style="clip-path:url(#SVGID_00000103231174810186300980000006667991371680350123_);fill:#D9A942;" width="1.4" height="19.7"></rect> <polygon style="clip-path:url(#SVGID_00000103231174810186300980000006667991371680350123_);fill:#D9A942;" points="70.7,42.1 69.3,42.1 69.3,42.1 "></polygon> <rect x="70.7" y="38.2" style="clip-path:url(#SVGID_00000103231174810186300980000006667991371680350123_);fill:#D9A942;" width="7.6" height="3.9"></rect> <path style="clip-path:url(#SVGID_00000103231174810186300980000006667991371680350123_);fill:#D49E29;" d="M78.3,42.1h-7.6H78.3z"></path> <rect x="70.7" y="42.1" style="clip-path:url(#SVGID_00000103231174810186300980000006667991371680350123_);fill:#D49E29;" width="7.6" height="19.7"></rect> <rect x="83.1" y="19.4" style="clip-path:url(#SVGID_00000103231174810186300980000006667991371680350123_);fill:#E5C27B;" width="9.4" height="14"></rect> <rect x="98.3" y="35.5" style="clip-path:url(#SVGID_00000103231174810186300980000006667991371680350123_);fill:#E5C27B;" width="0" height="26.3"></rect> <rect x="98.3" y="35.5" style="clip-path:url(#SVGID_00000103231174810186300980000006667991371680350123_);fill:#E5C27B;" width="0.6" height="26.3"></rect> <polygon style="clip-path:url(#SVGID_00000103231174810186300980000006667991371680350123_);fill:#B1CAEB;" points="78.7,38.2 80.2,38.2 80.2,38.2 80.2,61.8 83.1,61.8 83.1,33.4 78.3,33.4 78.3,35.5 78.7,35.5 78.7,35.5 "></polygon> <polygon style="clip-path:url(#SVGID_00000103231174810186300980000006667991371680350123_);fill:#B1CAEB;" points="96.2,61.8 96.2,35.5 96.2,35.5 98.3,35.5 98.3,33.4 92.5,33.4 92.5,61.8 "></polygon> <polygon style="clip-path:url(#SVGID_00000103231174810186300980000006667991371680350123_);fill:#A8B7BD;" points="78.7,35.5 78.7,35.5 78.3,35.5 78.3,35.5 78.3,35.5 78.3,35.5 78.3,35.5 "></polygon> <rect x="78.3" y="35.5" style="clip-path:url(#SVGID_00000103231174810186300980000006667991371680350123_);fill:#A8B7BD;" width="0.4" height="2.7"></rect> <rect x="78.3" y="35.5" style="clip-path:url(#SVGID_00000103231174810186300980000006667991371680350123_);fill:#A8B7BD;" width="0" height="2.7"></rect> <path style="clip-path:url(#SVGID_00000103231174810186300980000006667991371680350123_);fill:#A8B7BD;" d="M78.3,35.5h0.4H78.3z"></path> <rect x="78.7" y="38.2" style="clip-path:url(#SVGID_00000103231174810186300980000006667991371680350123_);fill:#A8B7BD;" width="1.4" height="0"></rect> <polygon style="clip-path:url(#SVGID_00000103231174810186300980000006667991371680350123_);fill:#A8B7BD;" points="78.7,38.2 78.7,42.1 79.5,42.1 79.5,42.1 79.5,61.8 80.2,61.8 80.2,38.2 "></polygon> <polygon style="clip-path:url(#SVGID_00000103231174810186300980000006667991371680350123_);fill:#A8B7BD;" points="80.2,38.2 80.2,38.2 80.2,61.8 80.2,61.8 80.2,38.2 "></polygon> <rect x="78.7" y="42.1" style="clip-path:url(#SVGID_00000103231174810186300980000006667991371680350123_);fill:#A5ADA8;" width="0.8" height="19.7"></rect> <rect x="78.7" y="42.1" style="clip-path:url(#SVGID_00000103231174810186300980000006667991371680350123_);fill:#A5ADA8;" width="0.8" height="0"></rect> <rect x="78.3" y="38.2" style="clip-path:url(#SVGID_00000103231174810186300980000006667991371680350123_);fill:#A5ADA8;" width="0.4" height="3.9"></rect> <rect x="78.3" y="38.2" style="clip-path:url(#SVGID_00000103231174810186300980000006667991371680350123_);fill:#A5ADA8;" width="0.4" height="0"></rect> <polygon style="clip-path:url(#SVGID_00000103231174810186300980000006667991371680350123_);fill:#A5AAA1;" points="78.3,42.1 78.7,42.1 78.7,42.1 78.3,42.1 78.3,42.1 "></polygon> <rect x="78.3" y="42.1" style="clip-path:url(#SVGID_00000103231174810186300980000006667991371680350123_);fill:#A5AAA1;" width="0.4" height="19.7"></rect> <rect x="78.3" y="42.1" style="clip-path:url(#SVGID_00000103231174810186300980000006667991371680350123_);fill:#A5AAA1;" width="0" height="19.7"></rect> <path style="clip-path:url(#SVGID_00000103231174810186300980000006667991371680350123_);fill:#A5AAA1;" d="M78.3,42.1L78.3,42.1 L78.3,42.1z"></path> <rect x="83.1" y="33.4" style="clip-path:url(#SVGID_00000103231174810186300980000006667991371680350123_);fill:#A8B7BD;" width="9.4" height="28.4"></rect> <rect x="96.2" y="35.5" style="clip-path:url(#SVGID_00000103231174810186300980000006667991371680350123_);fill:#A8B7BD;" width="2.2" height="26.3"></rect> <path style="clip-path:url(#SVGID_00000103231174810186300980000006667991371680350123_);fill:#A8B7BD;" d="M96.2,35.5h2.2H96.2z"></path> <rect x="96.2" y="35.5" style="clip-path:url(#SVGID_00000103231174810186300980000006667991371680350123_);fill:#A8B7BD;" width="0" height="26.3"></rect> <polygon style="clip-path:url(#SVGID_00000103231174810186300980000006667991371680350123_);fill:#A8B7BD;" points="96.2,35.5 96.2,35.5 98.3,35.5 98.3,35.5 96.2,35.5 "></polygon> <rect x="119" y="35.5" style="clip-path:url(#SVGID_00000103231174810186300980000006667991371680350123_);fill:#B1CAEB;" width="0.8" height="2.7"></rect> <polygon style="clip-path:url(#SVGID_00000103231174810186300980000006667991371680350123_);fill:#B1CAEB;" points="120.6,42.1 120.6,42.1 120.6,46.3 121.2,46.3 121.2,42.1 121.2,42.1 121.2,42.1 121.2,38.2 119.8,38.2 119.8,42.1 "></polygon> <path style="clip-path:url(#SVGID_00000103231174810186300980000006667991371680350123_);fill:#B1CAEB;" d="M121.2,46.3h-0.6H121.2 z"></path> <rect x="120.6" y="46.3" style="clip-path:url(#SVGID_00000103231174810186300980000006667991371680350123_);fill:#A8B7BD;" width="0.6" height="15.5"></rect> <path style="clip-path:url(#SVGID_00000103231174810186300980000006667991371680350123_);fill:#A8B7BD;" d="M121.2,46.3h-0.6H121.2 z"></path> <rect x="119.8" y="42.1" style="clip-path:url(#SVGID_00000103231174810186300980000006667991371680350123_);fill:#8FB6E1;" width="0.8" height="4.3"></rect> <rect x="119.8" y="46.3" style="clip-path:url(#SVGID_00000103231174810186300980000006667991371680350123_);fill:#8BAFD2;" width="0.8" height="15.5"></rect> <polygon style="clip-path:url(#SVGID_00000103231174810186300980000006667991371680350123_);fill:#8FB6E1;" points="119.8,42.1 119.8,42.1 119.8,42.1 119.8,38.2 119,38.2 119,42.1 "></polygon> <rect x="119.8" y="38.2" style="clip-path:url(#SVGID_00000103231174810186300980000006667991371680350123_);fill:#8FB6E1;" width="0" height="3.9"></rect> <rect x="119" y="42.1" style="clip-path:url(#SVGID_00000103231174810186300980000006667991371680350123_);fill:#7FADDE;" width="0.8" height="4.3"></rect> <rect x="119" y="46.3" style="clip-path:url(#SVGID_00000103231174810186300980000006667991371680350123_);fill:#7EAADA;" width="0.8" height="15.5"></rect> <polygon style="clip-path:url(#SVGID_00000103231174810186300980000006667991371680350123_);fill:#B1CAEB;" points="128.2,35.5 128.2,35.5 131,35.5 133.6,35.5 133.6,19.4 124.2,19.4 124.2,42.1 128.2,42.1 "></polygon> <polygon style="clip-path:url(#SVGID_00000103231174810186300980000006667991371680350123_);fill:#A8B7BD;" points="131,35.5 131,35.5 128.2,35.5 128.2,42.1 131,42.1 "></polygon> <rect x="169.3" y="35.5" style="clip-path:url(#SVGID_00000103231174810186300980000006667991371680350123_);fill:#9776AD;" width="2.8" height="6.6"></rect> <polygon style="clip-path:url(#SVGID_00000103231174810186300980000006667991371680350123_);fill:#E1AF71;" points="106.2,35.5 106.2,42.1 110.4,42.1 110.4,35.5 110.4,35.5 119,35.5 119,33.4 98.9,33.4 98.9,35.5 "></polygon> <rect x="110.4" y="35.5" style="clip-path:url(#SVGID_00000103231174810186300980000006667991371680350123_);fill:#E1AF71;" width="0" height="6.6"></rect> <path style="clip-path:url(#SVGID_00000103231174810186300980000006667991371680350123_);fill:#D6953A;" d="M106.2,35.5h-7.3H106.2 z"></path> <polygon style="clip-path:url(#SVGID_00000103231174810186300980000006667991371680350123_);fill:#D6953A;" points="100.6,61.8 100.6,42.1 106.2,42.1 106.2,42.1 106.2,42.1 106.2,35.5 98.9,35.5 98.9,61.8 "></polygon> <rect x="106.2" y="42.1" style="clip-path:url(#SVGID_00000103231174810186300980000006667991371680350123_);fill:#C59F6F;" width="4.2" height="4.3"></rect> <path style="clip-path:url(#SVGID_00000103231174810186300980000006667991371680350123_);fill:#C59F6F;" d="M110.4,42.1h-4.2H110.4 z"></path> <path style="clip-path:url(#SVGID_00000103231174810186300980000006667991371680350123_);fill:#C59F6F;" d="M106.2,42.1L106.2,42.1 L106.2,42.1z"></path> <polygon style="clip-path:url(#SVGID_00000103231174810186300980000006667991371680350123_);fill:#C2955B;" points="104.6,46.3 104.6,46.3 106.2,46.3 106.2,42.1 100.6,42.1 100.6,61.8 104.6,61.8 "></polygon> <rect x="106.2" y="42.1" style="clip-path:url(#SVGID_00000103231174810186300980000006667991371680350123_);fill:#C2955B;" width="0" height="4.3"></rect> <rect x="106.2" y="46.3" style="clip-path:url(#SVGID_00000103231174810186300980000006667991371680350123_);fill:#C2955B;" width="4.2" height="15.5"></rect> <rect x="104.6" y="46.3" style="clip-path:url(#SVGID_00000103231174810186300980000006667991371680350123_);fill:#C09153;" width="1.6" height="15.5"></rect> <path style="clip-path:url(#SVGID_00000103231174810186300980000006667991371680350123_);fill:#C09153;" d="M106.2,46.3h-1.6H106.2 z"></path> <rect x="106.2" y="46.3" style="clip-path:url(#SVGID_00000103231174810186300980000006667991371680350123_);fill:#C09153;" width="0" height="15.5"></rect> <path style="clip-path:url(#SVGID_00000103231174810186300980000006667991371680350123_);fill:#C09153;" d="M106.2,46.3L106.2,46.3 L106.2,46.3z"></path> <polygon style="clip-path:url(#SVGID_00000103231174810186300980000006667991371680350123_);fill:#C59F6F;" points="111.8,42.1 111.8,42.1 111.8,38.2 111.8,38.2 111.8,42.1 "></polygon> <polygon style="clip-path:url(#SVGID_00000103231174810186300980000006667991371680350123_);fill:#C59F6F;" points="111.8,42.1 111.8,38.2 111.8,38.2 111.8,38.2 111.8,38.2 119,38.2 119,38.2 119,35.5 110.4,35.5 110.4,42.1 "></polygon> <rect x="114.7" y="31.2" style="clip-path:url(#SVGID_00000103231174810186300980000006667991371680350123_);fill:#C59F6F;" width="0" height="8.6"></rect> <rect x="119" y="35.5" style="clip-path:url(#SVGID_00000103231174810186300980000006667991371680350123_);fill:#C59F6F;" width="0" height="2.7"></rect> <polygon style="clip-path:url(#SVGID_00000103231174810186300980000006667991371680350123_);fill:#BB986F;" points="111.8,46.3 111.8,42.1 110.4,42.1 110.4,42.1 110.4,46.3 "></polygon> <path style="clip-path:url(#SVGID_00000103231174810186300980000006667991371680350123_);fill:#BB986F;" d="M110.4,42.1L110.4,42.1 L110.4,42.1z"></path> <path style="clip-path:url(#SVGID_00000103231174810186300980000006667991371680350123_);fill:#BB986F;" d="M111.8,42.1h-1.4H111.8 z"></path> <rect x="110.4" y="46.3" style="clip-path:url(#SVGID_00000103231174810186300980000006667991371680350123_);fill:#BB9466;" width="1.4" height="15.5"></rect> <polygon style="clip-path:url(#SVGID_00000103231174810186300980000006667991371680350123_);fill:#BB986F;" points="111.8,38.2 111.8,38.2 119,38.2 119,38.2 119,38.2 119,38.2 "></polygon> <rect x="111.8" y="38.2" style="clip-path:url(#SVGID_00000103231174810186300980000006667991371680350123_);fill:#BB986F;" width="7.2" height="3.9"></rect> <rect x="119" y="38.2" style="clip-path:url(#SVGID_00000103231174810186300980000006667991371680350123_);fill:#BB986F;" width="0" height="3.9"></rect> <rect x="111.8" y="42.1" style="clip-path:url(#SVGID_00000103231174810186300980000006667991371680350123_);fill:#B7976E;" width="7.2" height="4.3"></rect> <rect x="119" y="42.1" style="clip-path:url(#SVGID_00000103231174810186300980000006667991371680350123_);fill:#B7976E;" width="0" height="4.3"></rect> <polygon style="clip-path:url(#SVGID_00000103231174810186300980000006667991371680350123_);fill:#B7956C;" points="119,61.8 119,46.3 119,46.3 119,46.3 111.8,46.3 111.8,61.8 "></polygon> <rect x="119" y="46.3" style="clip-path:url(#SVGID_00000103231174810186300980000006667991371680350123_);fill:#B7956C;" width="0" height="15.5"></rect> <rect x="121.2" y="42.1" style="clip-path:url(#SVGID_00000103231174810186300980000006667991371680350123_);fill:#E1AF71;" width="2.9" height="4.3"></rect> <rect x="121.2" y="46.3" style="clip-path:url(#SVGID_00000103231174810186300980000006667991371680350123_);fill:#D6953A;" width="2.9" height="15.5"></rect> <rect x="121.2" y="42.1" style="clip-path:url(#SVGID_00000103231174810186300980000006667991371680350123_);fill:#C59F6F;" width="0" height="4.3"></rect> <polygon style="clip-path:url(#SVGID_00000103231174810186300980000006667991371680350123_);fill:#C2955B;" points="121.2,46.3 121.2,61.8 121.2,61.8 121.2,46.3 121.2,46.3 "></polygon> <path style="clip-path:url(#SVGID_00000103231174810186300980000006667991371680350123_);fill:#C59F6F;" d="M124.6,46.3L124.6,46.3 L124.6,46.3z"></path> <polygon style="clip-path:url(#SVGID_00000103231174810186300980000006667991371680350123_);fill:#C59F6F;" points="124.6,46.3 124.6,46.3 124.6,61.8 128.2,61.8 128.2,42.1 124.2,42.1 124.2,46.3 124.6,46.3 "></polygon> <polygon style="clip-path:url(#SVGID_00000103231174810186300980000006667991371680350123_);fill:#C2955B;" points="124.6,61.8 124.6,46.3 124.2,46.3 124.2,46.3 124.2,61.8 "></polygon> <path style="clip-path:url(#SVGID_00000103231174810186300980000006667991371680350123_);fill:#C2955B;" d="M124.6,46.3h-0.5H124.6 z"></path> <rect x="128.2" y="42.1" style="clip-path:url(#SVGID_00000103231174810186300980000006667991371680350123_);fill:#C2955B;" width="2.8" height="19.7"></rect> <rect x="133.6" y="35.5" style="clip-path:url(#SVGID_00000103231174810186300980000006667991371680350123_);fill:#D6953A;" width="3.6" height="2.7"></rect> <polygon style="clip-path:url(#SVGID_00000103231174810186300980000006667991371680350123_);fill:#C2955B;" points="131,42.1 131,42.1 132.4,42.1 132.4,38.2 132.4,38.2 133.6,38.2 133.6,35.5 131,35.5 "></polygon> <polygon style="clip-path:url(#SVGID_00000103231174810186300980000006667991371680350123_);fill:#B97860;" points="140.4,38.2 140.4,38.2 140.4,35.5 137.7,35.5 137.7,38.2 "></polygon> <rect x="137.2" y="35.5" style="clip-path:url(#SVGID_00000103231174810186300980000006667991371680350123_);fill:#B56D4E;" width="0.4" height="2.7"></rect> <path style="clip-path:url(#SVGID_00000103231174810186300980000006667991371680350123_);fill:#C98332;" d="M132.4,42.1H131H132.4z "></path> <rect x="131" y="42.1" style="clip-path:url(#SVGID_00000103231174810186300980000006667991371680350123_);fill:#C98332;" width="1.4" height="19.7"></rect> <rect x="133.6" y="38.2" style="clip-path:url(#SVGID_00000103231174810186300980000006667991371680350123_);fill:#8E5072;" width="3.6" height="3.9"></rect> <rect x="132.4" y="38.2" style="clip-path:url(#SVGID_00000103231174810186300980000006667991371680350123_);fill:#855179;" width="1.2" height="3.9"></rect> <rect x="136" y="38.2" style="clip-path:url(#SVGID_00000103231174810186300980000006667991371680350123_);fill:#844577;" width="4.4" height="3.9"></rect> <rect x="133.6" y="42.1" style="clip-path:url(#SVGID_00000103231174810186300980000006667991371680350123_);fill:#8D496B;" width="7.6" height="19.7"></rect> <rect x="133.6" y="42.1" style="clip-path:url(#SVGID_00000103231174810186300980000006667991371680350123_);fill:#8D496B;" width="3.6" height="0"></rect> <rect x="132.4" y="42.1" style="clip-path:url(#SVGID_00000103231174810186300980000006667991371680350123_);fill:#8A4A6E;" width="1.2" height="19.7"></rect> <rect x="132.4" y="42.1" style="clip-path:url(#SVGID_00000103231174810186300980000006667991371680350123_);fill:#8A4A6E;" width="1.2" height="0"></rect> <path style="clip-path:url(#SVGID_00000103231174810186300980000006667991371680350123_);fill:#89456D;" d="M140,42.1h-2.3H140z"></path> <rect x="137.2" y="42.1" style="clip-path:url(#SVGID_00000103231174810186300980000006667991371680350123_);fill:#89446A;" width="0.4" height="0"></rect> <rect x="144.8" y="19.4" style="clip-path:url(#SVGID_00000103231174810186300980000006667991371680350123_);fill:#9776AD;" width="9.4" height="14"></rect> <path style="clip-path:url(#SVGID_00000103231174810186300980000006667991371680350123_);fill:#9776AD;" d="M162.3,46.3H160H162.3z "></path> <polygon style="clip-path:url(#SVGID_00000103231174810186300980000006667991371680350123_);fill:#9776AD;" points="162.3,46.3 162.3,42.1 167.9,42.1 167.9,35.5 160,35.5 160,46.3 "></polygon> <rect x="160" y="46.3" style="clip-path:url(#SVGID_00000103231174810186300980000006667991371680350123_);fill:#76458C;" width="2.2" height="15.5"></rect> <polygon style="clip-path:url(#SVGID_00000103231174810186300980000006667991371680350123_);fill:#9776AD;" points="185.9,61.8 185.9,46.3 182.9,46.3 182.9,46.3 182.9,61.8 "></polygon> <rect x="185.9" y="46.3" style="clip-path:url(#SVGID_00000103231174810186300980000006667991371680350123_);fill:#9776AD;" width="0" height="15.5"></rect> <rect x="195.3" y="35.5" style="clip-path:url(#SVGID_00000103231174810186300980000006667991371680350123_);fill:#8D90C5;" width="3.6" height="26.3"></rect> <polygon style="clip-path:url(#SVGID_00000103231174810186300980000006667991371680350123_);fill:#9776AD;" points="154.2,46.3 157.9,46.3 157.9,35.5 157.9,35.5 160,35.5 160,33.4 154.2,33.4 "></polygon> <rect x="154.2" y="46.3" style="clip-path:url(#SVGID_00000103231174810186300980000006667991371680350123_);fill:#76458C;" width="3.6" height="15.5"></rect> <path style="clip-path:url(#SVGID_00000103231174810186300980000006667991371680350123_);fill:#76458C;" d="M157.9,46.3h-3.6H157.9 z"></path> <rect x="144.8" y="33.4" style="clip-path:url(#SVGID_00000103231174810186300980000006667991371680350123_);fill:#9776AD;" width="0" height="2.1"></rect> <polygon style="clip-path:url(#SVGID_00000103231174810186300980000006667991371680350123_);fill:#9776AD;" points="140.4,35.5 144.8,35.5 144.8,33.4 140,33.4 140,35.5 "></polygon> <polygon style="clip-path:url(#SVGID_00000103231174810186300980000006667991371680350123_);fill:#76458C;" points="140.4,38.2 140.4,38.2 141.9,38.2 141.9,38.2 141.9,38.2 141.9,61.8 144.8,61.8 144.8,35.5 140.4,35.5 "></polygon> <rect x="144.8" y="35.5" style="clip-path:url(#SVGID_00000103231174810186300980000006667991371680350123_);fill:#76458C;" width="0" height="26.3"></rect> <path style="clip-path:url(#SVGID_00000103231174810186300980000006667991371680350123_);fill:#76458C;" d="M140.4,38.2L140.4,38.2 L140.4,38.2z"></path> <path style="clip-path:url(#SVGID_00000103231174810186300980000006667991371680350123_);fill:#844577;" d="M140.4,35.5H140H140.4z "></path> <polygon style="clip-path:url(#SVGID_00000103231174810186300980000006667991371680350123_);fill:#844577;" points="140.4,35.5 140.4,35.5 140,35.5 140.4,35.5 "></polygon> <path style="clip-path:url(#SVGID_00000103231174810186300980000006667991371680350123_);fill:#844577;" d="M140.4,35.5L140.4,35.5 L140.4,35.5z"></path> <rect x="140.4" y="35.5" style="clip-path:url(#SVGID_00000103231174810186300980000006667991371680350123_);fill:#844577;" width="0" height="2.7"></rect> <polygon style="clip-path:url(#SVGID_00000103231174810186300980000006667991371680350123_);fill:#693483;" points="140.4,38.2 140.4,42.1 141.2,42.1 141.2,42.1 141.2,61.8 141.9,61.8 141.9,38.2 "></polygon> <rect x="140.4" y="38.2" style="clip-path:url(#SVGID_00000103231174810186300980000006667991371680350123_);fill:#693483;" width="1.4" height="0"></rect> <rect x="140.4" y="42.1" style="clip-path:url(#SVGID_00000103231174810186300980000006667991371680350123_);fill:#6F347B;" width="0.8" height="0"></rect> <rect x="140" y="38.2" style="clip-path:url(#SVGID_00000103231174810186300980000006667991371680350123_);fill:#6F347B;" width="0.4" height="0"></rect> <rect x="140" y="42.1" style="clip-path:url(#SVGID_00000103231174810186300980000006667991371680350123_);fill:#703377;" width="0.4" height="0"></rect> <polygon style="clip-path:url(#SVGID_00000103231174810186300980000006667991371680350123_);fill:#76458C;" points="147.2,35.5 147.2,46.3 154.2,46.3 154.2,33.4 144.8,33.4 144.8,35.5 "></polygon> <rect x="154.2" y="33.4" style="clip-path:url(#SVGID_00000103231174810186300980000006667991371680350123_);fill:#76458C;" width="0" height="12.9"></rect> <polygon style="clip-path:url(#SVGID_00000103231174810186300980000006667991371680350123_);fill:#693483;" points="145.6,46.3 145.6,46.3 147.2,46.3 147.2,46.3 147.2,35.5 144.8,35.5 144.8,61.8 145.6,61.8 "></polygon> <path style="clip-path:url(#SVGID_00000103231174810186300980000006667991371680350123_);fill:#693483;" d="M147.2,46.3L147.2,46.3 L147.2,46.3z"></path> <rect x="147.2" y="46.3" style="clip-path:url(#SVGID_00000103231174810186300980000006667991371680350123_);fill:#693483;" width="7" height="15.5"></rect> <rect x="154.2" y="46.3" style="clip-path:url(#SVGID_00000103231174810186300980000006667991371680350123_);fill:#693483;" width="0" height="15.5"></rect> <path style="clip-path:url(#SVGID_00000103231174810186300980000006667991371680350123_);fill:#693483;" d="M154.2,46.3h-7H154.2z"></path> <path style="clip-path:url(#SVGID_00000103231174810186300980000006667991371680350123_);fill:#693483;" d="M154.2,46.3L154.2,46.3 L154.2,46.3z"></path> <rect x="145.6" y="46.3" style="clip-path:url(#SVGID_00000103231174810186300980000006667991371680350123_);fill:#642D7E;" width="1.6" height="15.5"></rect> <path style="clip-path:url(#SVGID_00000103231174810186300980000006667991371680350123_);fill:#642D7E;" d="M145.6,46.3h1.6H145.6z "></path> <polygon style="clip-path:url(#SVGID_00000103231174810186300980000006667991371680350123_);fill:#76458C;" points="157.9,46.3 157.9,46.3 160,46.3 160,35.5 157.9,35.5 "></polygon> <path style="clip-path:url(#SVGID_00000103231174810186300980000006667991371680350123_);fill:#76458C;" d="M157.9,35.5h2.2H157.9z "></path> <path style="clip-path:url(#SVGID_00000103231174810186300980000006667991371680350123_);fill:#76458C;" d="M157.9,35.5h2.2H157.9z "></path> <rect x="157.9" y="46.3" style="clip-path:url(#SVGID_00000103231174810186300980000006667991371680350123_);fill:#693483;" width="2.2" height="15.5"></rect> <rect x="157.9" y="46.3" style="clip-path:url(#SVGID_00000103231174810186300980000006667991371680350123_);fill:#693483;" width="0" height="15.5"></rect> <rect x="167.9" y="42.1" style="clip-path:url(#SVGID_00000103231174810186300980000006667991371680350123_);fill:#9776AD;" width="1.4" height="4.3"></rect> <rect x="169.3" y="42.1" style="clip-path:url(#SVGID_00000103231174810186300980000006667991371680350123_);fill:#9776AD;" width="0" height="4.3"></rect> <rect x="169.3" y="42.1" style="clip-path:url(#SVGID_00000103231174810186300980000006667991371680350123_);fill:#76458C;" width="2.8" height="4.3"></rect> <polygon style="clip-path:url(#SVGID_00000103231174810186300980000006667991371680350123_);fill:#76458C;" points="165.7,46.3 165.7,61.8 166.3,61.8 166.3,46.3 166.3,46.3 167.9,46.3 167.9,42.1 162.3,42.1 162.3,46.3 162.3,46.3 "></polygon> <path style="clip-path:url(#SVGID_00000103231174810186300980000006667991371680350123_);fill:#76458C;" d="M162.3,46.3L162.3,46.3 L162.3,46.3z"></path> <rect x="162.3" y="46.3" style="clip-path:url(#SVGID_00000103231174810186300980000006667991371680350123_);fill:#693483;" width="3.4" height="15.5"></rect> <polygon style="clip-path:url(#SVGID_00000103231174810186300980000006667991371680350123_);fill:#693483;" points="165.7,61.8 165.7,61.8 165.7,46.3 162.3,46.3 165.7,46.3 "></polygon> <rect x="169.3" y="46.3" style="clip-path:url(#SVGID_00000103231174810186300980000006667991371680350123_);fill:#76458C;" width="0" height="15.5"></rect> <rect x="167.9" y="46.3" style="clip-path:url(#SVGID_00000103231174810186300980000006667991371680350123_);fill:#76458C;" width="1.4" height="15.5"></rect> <rect x="169.3" y="46.3" style="clip-path:url(#SVGID_00000103231174810186300980000006667991371680350123_);fill:#693483;" width="2.8" height="15.5"></rect> <rect x="166.3" y="46.3" style="clip-path:url(#SVGID_00000103231174810186300980000006667991371680350123_);fill:#693483;" width="0" height="15.5"></rect> <rect x="166.3" y="46.3" style="clip-path:url(#SVGID_00000103231174810186300980000006667991371680350123_);fill:#693483;" width="1.6" height="15.5"></rect> <path style="clip-path:url(#SVGID_00000103231174810186300980000006667991371680350123_);fill:#693483;" d="M166.3,46.3L166.3,46.3 L166.3,46.3z"></path> <path style="clip-path:url(#SVGID_00000103231174810186300980000006667991371680350123_);fill:#693483;" d="M166.3,46.3h1.6H166.3z "></path> <rect x="178.7" y="35.5" style="clip-path:url(#SVGID_00000103231174810186300980000006667991371680350123_);fill:#9776AD;" width="2.8" height="2.7"></rect> <rect x="178.7" y="35.5" style="clip-path:url(#SVGID_00000103231174810186300980000006667991371680350123_);fill:#76458C;" width="0" height="2.7"></rect> <polygon style="clip-path:url(#SVGID_00000103231174810186300980000006667991371680350123_);fill:#76458C;" points="173.5,42.1 173.5,38.2 173.5,38.2 173.5,38.2 178.7,38.2 178.7,35.5 172.1,35.5 172.1,42.1 "></polygon> <rect x="172.1" y="42.1" style="clip-path:url(#SVGID_00000103231174810186300980000006667991371680350123_);fill:#693483;" width="1.4" height="4.3"></rect> <path style="clip-path:url(#SVGID_00000103231174810186300980000006667991371680350123_);fill:#693483;" d="M173.5,42.1h-1.4H173.5 z"></path> <path style="clip-path:url(#SVGID_00000103231174810186300980000006667991371680350123_);fill:#693483;" d="M173.5,42.1h-1.4H173.5 z"></path> <rect x="172.1" y="46.3" style="clip-path:url(#SVGID_00000103231174810186300980000006667991371680350123_);fill:#642D7E;" width="1.4" height="15.5"></rect> <polygon style="clip-path:url(#SVGID_00000103231174810186300980000006667991371680350123_);fill:#9776AD;" points="182.3,42.1 182.3,42.1 182.3,42.1 182.3,46.3 182.9,46.3 182.9,38.2 181.5,38.2 181.5,42.1 "></polygon> <rect x="182.3" y="46.3" style="clip-path:url(#SVGID_00000103231174810186300980000006667991371680350123_);fill:#76458C;" width="0.6" height="15.5"></rect> <rect x="182.3" y="46.3" style="clip-path:url(#SVGID_00000103231174810186300980000006667991371680350123_);fill:#76458C;" width="0.6" height="0"></rect> <rect x="181.5" y="42.1" style="clip-path:url(#SVGID_00000103231174810186300980000006667991371680350123_);fill:#76458C;" width="0.8" height="0"></rect> <rect x="181.5" y="42.1" style="clip-path:url(#SVGID_00000103231174810186300980000006667991371680350123_);fill:#76458C;" width="0.8" height="4.3"></rect> <polygon style="clip-path:url(#SVGID_00000103231174810186300980000006667991371680350123_);fill:#693483;" points="181.5,61.8 182.3,61.8 182.3,46.3 182.3,46.3 181.5,46.3 "></polygon> <rect x="178.7" y="38.2" style="clip-path:url(#SVGID_00000103231174810186300980000006667991371680350123_);fill:#76458C;" width="2.8" height="3.9"></rect> <rect x="178.7" y="38.2" style="clip-path:url(#SVGID_00000103231174810186300980000006667991371680350123_);fill:#693483;" width="0" height="3.9"></rect> <rect x="178.7" y="42.1" style="clip-path:url(#SVGID_00000103231174810186300980000006667991371680350123_);fill:#693483;" width="2.8" height="4.3"></rect> <rect x="178.7" y="42.1" style="clip-path:url(#SVGID_00000103231174810186300980000006667991371680350123_);fill:#693483;" width="2.8" height="0"></rect> <rect x="178.7" y="42.1" style="clip-path:url(#SVGID_00000103231174810186300980000006667991371680350123_);fill:#642D7E;" width="0" height="0"></rect> <rect x="178.7" y="42.1" style="clip-path:url(#SVGID_00000103231174810186300980000006667991371680350123_);fill:#642D7E;" width="0" height="4.3"></rect> <rect x="178.7" y="46.3" style="clip-path:url(#SVGID_00000103231174810186300980000006667991371680350123_);fill:#642D7E;" width="2.8" height="15.5"></rect> <rect x="178.7" y="46.3" style="clip-path:url(#SVGID_00000103231174810186300980000006667991371680350123_);fill:#63297C;" width="0" height="15.5"></rect> <rect x="173.5" y="38.2" style="clip-path:url(#SVGID_00000103231174810186300980000006667991371680350123_);fill:#63297C;" width="5.3" height="23.6"></rect> <polygon style="clip-path:url(#SVGID_00000103231174810186300980000006667991371680350123_);fill:#8D90C5;" points="186.3,46.3 186.3,61.8 189.9,61.8 189.9,35.5 189.9,35.5 195.3,35.5 195.3,19.4 185.9,19.4 185.9,46.3 "></polygon> <rect x="185.9" y="46.3" style="clip-path:url(#SVGID_00000103231174810186300980000006667991371680350123_);fill:#6961A4;" width="0.5" height="15.5"></rect> <rect x="189.9" y="35.5" style="clip-path:url(#SVGID_00000103231174810186300980000006667991371680350123_);fill:#636BAE;" width="5.4" height="0"></rect> <rect x="189.9" y="35.5" style="clip-path:url(#SVGID_00000103231174810186300980000006667991371680350123_);fill:#636BAE;" width="6" height="26.3"></rect> <polygon style="clip-path:url(#SVGID_00000103231174810186300980000006667991371680350123_);fill:#454D99;" points="209,46.3 209,35.5 199.4,35.5 199.4,35.5 198.9,35.5 198.9,61.8 199.4,61.8 199.4,61.8 205.9,61.8 207.3,61.8 227.4,61.8 227.4,46.3 "></polygon> <rect x="231" y="35.5" style="clip-path:url(#SVGID_00000103231174810186300980000006667991371680350123_);fill:#8D90C5;" width="9.4" height="26.3"></rect> </g> <g> <defs> <rect id="SVGID_00000093167660063373788890000005398727343236739712_" x="17.9" y="121.2" width="248.6" height="3.1"></rect> </defs> <clipPath id="SVGID_00000158739434648889040440000006590431481356098958_"> <use xlink:href="#SVGID_00000093167660063373788890000005398727343236739712_" style="overflow:visible;"></use> </clipPath> <radialGradient id="SVGID_00000075126820267926968550000014561511559757880767_" cx="-4.339927e-08" cy="141.732" r="1" gradientTransform="matrix(87.8989 0 0 -87.8989 142.1875 12580.8447)" gradientUnits="userSpaceOnUse"> <stop offset="0" style="stop-color:#FFFFFF"></stop> <stop offset="0.1002" style="stop-color:#E9EBEC"></stop> <stop offset="0.2994" style="stop-color:#B4B8BB"></stop> <stop offset="0.579" style="stop-color:#687175"></stop> <stop offset="0.925" style="stop-color:#101D20"></stop> <stop offset="1" style="stop-color:#000000"></stop> </radialGradient> <rect x="17.9" y="121.2" style="clip-path:url(#SVGID_00000158739434648889040440000006590431481356098958_);fill:url(#SVGID_00000075126820267926968550000014561511559757880767_);" width="248.6" height="3.1"></rect> </g> <g> <defs> <rect id="SVGID_00000168107640779602277630000013998462880654290111_" x="17.9" y="61.7" width="248.6" height="3.1"></rect> </defs> <clipPath id="SVGID_00000063609313484547393950000000376347259449438601_"> <use xlink:href="#SVGID_00000168107640779602277630000013998462880654290111_" style="overflow:visible;"></use> </clipPath> <radialGradient id="SVGID_00000168822938594696502630000006757223326638721925_" cx="-4.339927e-08" cy="141.732" r="1" gradientTransform="matrix(87.8989 0 0 -87.8989 142.1875 12521.4082)" gradientUnits="userSpaceOnUse"> <stop offset="0" style="stop-color:#FFFFFF"></stop> <stop offset="0.1002" style="stop-color:#E9EBEC"></stop> <stop offset="0.2994" style="stop-color:#B4B8BB"></stop> <stop offset="0.579" style="stop-color:#687175"></stop> <stop offset="0.925" style="stop-color:#101D20"></stop> <stop offset="1" style="stop-color:#000000"></stop> </radialGradient> <rect x="17.9" y="61.7" style="clip-path:url(#SVGID_00000063609313484547393950000000376347259449438601_);fill:url(#SVGID_00000168822938594696502630000006757223326638721925_);" width="248.6" height="3.1"></rect> </g> </svg> 