<svg xmlns="http://www.w3.org/2000/svg" xmlns:xlink="http://www.w3.org/1999/xlink" width="284" height="73.824" viewBox="0 0 284 73.824">
  <defs>
    <clipPath id="clip-path">
      <rect id="Rectangle_96" data-name="Rectangle 96" width="82.906" height="73.824" fill="none"/>
    </clipPath>
    <clipPath id="clip-path-2">
      <rect id="Rectangle_97" data-name="Rectangle 97" width="166.374" height="44.885" fill="none"/>
    </clipPath>
  </defs>
  <g id="Group_6" data-name="Group 6" transform="translate(-181.644 -62.991)">
    <g id="Group_3" data-name="Group 3" transform="translate(181.644 62.991)">
      <path id="Path_1" data-name="Path 1" d="M17.887,8.674H13.942v3.312H21.2V4.729H17.887Z" transform="translate(7.615 2.584)" fill="#99b6ab"/>
      <rect id="Rectangle_1" data-name="Rectangle 1" width="3.312" height="3.312" transform="translate(8.737 67.953)" fill="#5f7a8a"/>
      <path id="Path_2" data-name="Path 2" d="M29.885,45.6v3.312H33.2V45.6Z" transform="translate(16.322 24.908)" fill="#5f7a8a"/>
      <rect id="Rectangle_2" data-name="Rectangle 2" width="3.312" height="3.312" transform="translate(38.32 59.196)" fill="#040506"/>
      <rect id="Rectangle_3" data-name="Rectangle 3" width="3.312" height="3.312" transform="translate(14.624 17.751)" fill="#040506"/>
      <rect id="Rectangle_4" data-name="Rectangle 4" width="3.312" height="3.312" transform="translate(6.049 11.349)" fill="#5f7a8a"/>
      <rect id="Rectangle_5" data-name="Rectangle 5" width="3.312" height="3.312" transform="translate(4.793 53.433)" fill="#ea664b"/>
      <rect id="Rectangle_6" data-name="Rectangle 6" width="3.312" height="3.313" transform="translate(0.849 57.378)" fill="#99b6ab"/>
      <rect id="Rectangle_7" data-name="Rectangle 7" width="3.312" height="3.312" transform="translate(19.585 38.539)" fill="#5f7a8a"/>
      <rect id="Rectangle_8" data-name="Rectangle 8" width="3.312" height="3.312" transform="translate(10.71 30.62)" fill="#ea664b"/>
      <rect id="Rectangle_9" data-name="Rectangle 9" width="3.312" height="3.312" transform="translate(4.793 37.473)" fill="#99b6ab"/>
      <rect id="Rectangle_10" data-name="Rectangle 10" width="3.312" height="3.312" transform="translate(8.737 41.446)" fill="#5f7a8a"/>
      <rect id="Rectangle_11" data-name="Rectangle 11" width="3.312" height="3.312" transform="translate(19.585 34.564)" fill="#5f7a8a"/>
      <rect id="Rectangle_12" data-name="Rectangle 12" width="3.312" height="3.313" transform="translate(0 45.441)" fill="#040506"/>
      <rect id="Rectangle_13" data-name="Rectangle 13" width="3.312" height="3.312" transform="translate(23.529 42.515)" fill="#5f7a8a"/>
      <rect id="Rectangle_14" data-name="Rectangle 14" width="3.312" height="3.312" transform="translate(23.529 38.57)" fill="#5f7a8a"/>
      <path id="Path_3" data-name="Path 3" d="M13.428,33.095H10.116V44.3h3.312V40.351h3.944V37.039H13.428Z" transform="translate(5.525 18.075)" fill="#5f7a8a"/>
      <rect id="Rectangle_15" data-name="Rectangle 15" width="11.2" height="3.312" transform="translate(26.487 63.14)" fill="#ea664b"/>
      <g id="Group_2" data-name="Group 2" transform="translate(0 0)">
        <g id="Group_1" data-name="Group 1" clip-path="url(#clip-path)">
          <path id="Path_4" data-name="Path 4" d="M47.743,2.112v.046h.094l-.094-.046" transform="translate(26.075 1.154)" fill="#99b6ab"/>
          <path id="Path_5" data-name="Path 5" d="M50.294,3.589V5.3h2.325c-.77-.611-1.548-1.183-2.325-1.707" transform="translate(27.468 1.961)" fill="#040506"/>
          <path id="Path_6" data-name="Path 6" d="M51.055,5.863V3.74c-.662-.427-1.333-.826-2-1.189H47.743V5.863Z" transform="translate(26.075 1.394)" fill="#040506"/>
          <path id="Path_7" data-name="Path 7" d="M45.953,1.239A33.3,33.3,0,0,0,42.641.424V3.082h3.312Z" transform="translate(23.288 0.232)" fill="#99b6ab"/>
          <path id="Path_8" data-name="Path 8" d="M48.5,2.378a31.411,31.411,0,0,0-3.312-1.3V2.723H48.5Z" transform="translate(24.682 0.59)" fill="#99b6ab"/>
          <rect id="Rectangle_16" data-name="Rectangle 16" width="3.312" height="3.312" transform="translate(69.874 3.946)" fill="#99b6ab"/>
          <rect id="Rectangle_17" data-name="Rectangle 17" width="3.312" height="3.312" transform="translate(65.929 3.946)" fill="#5f7a8a"/>
          <rect id="Rectangle_18" data-name="Rectangle 18" width="3.312" height="3.312" transform="translate(65.929 7.89)" fill="#5f7a8a"/>
          <rect id="Rectangle_19" data-name="Rectangle 19" width="3.312" height="3.312" transform="translate(69.874 7.89)" fill="#99b6ab"/>
          <rect id="Rectangle_20" data-name="Rectangle 20" width="3.312" height="3.312" transform="translate(69.874 11.834)" fill="#99b6ab"/>
          <rect id="Rectangle_21" data-name="Rectangle 21" width="3.312" height="3.312" transform="translate(65.929 11.834)" fill="#040506"/>
          <rect id="Rectangle_22" data-name="Rectangle 22" width="3.312" height="3.312" transform="translate(73.818 7.89)" fill="#ea664b"/>
          <path id="Path_9" data-name="Path 9" d="M50.294,5.1V8.414h3.312V5.278L53.4,5.1Z" transform="translate(27.468 2.787)" fill="#ea664b"/>
          <path id="Path_10" data-name="Path 10" d="M50.294,10.965h1.129L53.606,8.7V7.654H50.294Z" transform="translate(27.468 4.181)" fill="#ea664b"/>
          <rect id="Rectangle_23" data-name="Rectangle 23" width="3.312" height="3.312" transform="translate(73.818 11.834)" fill="#99b6ab"/>
          <path id="Path_11" data-name="Path 11" d="M47.743,13.516h1.274L51.055,11.4V10.2H47.743Z" transform="translate(26.075 5.574)" fill="#5f7a8a"/>
          <path id="Path_12" data-name="Path 12" d="M50.294,10.2v.54l.52-.54Z" transform="translate(27.468 5.574)" fill="#5f7a8a"/>
          <path id="Path_13" data-name="Path 13" d="M48.371,12.755h-.628V13a1.418,1.418,0,0,0,.628-.247" transform="translate(26.075 6.967)" fill="#5f7a8a"/>
          <path id="Path_14" data-name="Path 14" d="M53.463,6.121l0,0c-.2-.182-.4-.365-.615-.55V8.16h.939a1.514,1.514,0,0,0-.32-2.039" transform="translate(28.861 3.041)" fill="#99b6ab"/>
          <path id="Path_15" data-name="Path 15" d="M52.845,8.041l.373-.388h-.373Z" transform="translate(28.861 4.18)" fill="#99b6ab"/>
          <path id="Path_16" data-name="Path 16" d="M45.788,11.558V10.2H42.942a20.689,20.689,0,0,1,2.846,1.354" transform="translate(23.453 5.574)" fill="#040506"/>
          <path id="Path_17" data-name="Path 17" d="M45.192,10.2v1.732a20.141,20.141,0,0,1,2.192,1.58H48.5V10.2Z" transform="translate(24.682 5.574)" fill="#040506"/>
          <path id="Path_18" data-name="Path 18" d="M47.468,12.755h-.379a1.471,1.471,0,0,0,.379.189Z" transform="translate(25.718 6.967)" fill="#5f7a8a"/>
          <path id="Path_19" data-name="Path 19" d="M30.267,1.528q-1.134.436-2.236.951h2.236Z" transform="translate(15.309 0.835)" fill="#99b6ab"/>
          <path id="Path_20" data-name="Path 20" d="M33.2.713c-1.123.288-2.234.631-3.312,1.022V2.922H33.2Z" transform="translate(16.322 0.39)" fill="#ea664b"/>
          <rect id="Rectangle_24" data-name="Rectangle 24" width="3.312" height="3.312" transform="translate(46.208 3.946)" fill="#ea664b"/>
          <rect id="Rectangle_25" data-name="Rectangle 25" width="3.312" height="3.312" transform="translate(42.264 3.946)" fill="#040506"/>
          <path id="Path_21" data-name="Path 21" d="M35.749.211c-1.105.153-2.216.362-3.312.622V3.2h3.312Z" transform="translate(17.716 0.116)" fill="#5f7a8a"/>
          <path id="Path_22" data-name="Path 22" d="M38.3,0h-.045c-1.088.032-2.189.114-3.267.244V3.312H38.3Z" transform="translate(19.109 0.001)" fill="#5f7a8a"/>
          <rect id="Rectangle_26" data-name="Rectangle 26" width="3.312" height="3.312" transform="translate(54.097 3.946)" fill="#5f7a8a"/>
          <rect id="Rectangle_27" data-name="Rectangle 27" width="3.312" height="3.312" transform="translate(50.153 3.946)" fill="#ea664b"/>
          <path id="Path_23" data-name="Path 23" d="M40.851.079C40.287.042,39.711.015,39.136,0h-1.6V3.313h3.312Z" transform="translate(20.502 0.001)" fill="#5f7a8a"/>
          <path id="Path_24" data-name="Path 24" d="M43.4.5C42.337.312,41.225.173,40.09.08V3.268H43.4Z" transform="translate(21.895 0.044)" fill="#99b6ab"/>
          <rect id="Rectangle_28" data-name="Rectangle 28" width="3.312" height="3.312" transform="translate(61.985 3.946)" fill="#ea664b"/>
          <rect id="Rectangle_29" data-name="Rectangle 29" width="3.312" height="3.312" transform="translate(58.041 3.946)" fill="#ea664b"/>
          <path id="Path_25" data-name="Path 25" d="M28.1,2.694A35.238,35.238,0,0,0,24.784,4.7V5.785H28.1Z" transform="translate(13.536 1.472)" fill="#99b6ab"/>
          <path id="Path_26" data-name="Path 26" d="M23.816,4.919h.864v-.64c-.291.209-.58.422-.864.64" transform="translate(13.007 2.338)" fill="#99b6ab"/>
          <path id="Path_27" data-name="Path 27" d="M23.875,5.1c-.561.455-1.113.929-1.642,1.413v1.9h3.312V5.1Z" transform="translate(12.143 2.787)" fill="#99b6ab"/>
          <rect id="Rectangle_30" data-name="Rectangle 30" width="3.312" height="3.312" transform="translate(38.32 7.89)" fill="#040506"/>
          <rect id="Rectangle_31" data-name="Rectangle 31" width="3.312" height="3.312" transform="translate(38.32 11.834)" fill="#ea664b"/>
          <rect id="Rectangle_32" data-name="Rectangle 32" width="3.312" height="3.312" transform="translate(34.376 11.834)" fill="#5f7a8a"/>
          <rect id="Rectangle_33" data-name="Rectangle 33" width="3.312" height="3.312" transform="translate(42.264 7.89)" fill="#040506"/>
          <rect id="Rectangle_34" data-name="Rectangle 34" width="3.312" height="3.312" transform="translate(46.208 7.89)" fill="#ea664b"/>
          <rect id="Rectangle_35" data-name="Rectangle 35" width="3.312" height="3.312" transform="translate(46.208 11.834)" fill="#5f7a8a"/>
          <rect id="Rectangle_36" data-name="Rectangle 36" width="3.312" height="3.312" transform="translate(42.264 11.834)" fill="#040506"/>
          <rect id="Rectangle_37" data-name="Rectangle 37" width="3.312" height="3.312" transform="translate(42.264 15.778)" fill="#5f7a8a"/>
          <path id="Path_28" data-name="Path 28" d="M29.886,13.517h.045A19.453,19.453,0,0,1,33.2,11.224V10.205H29.886Z" transform="translate(16.322 5.574)" fill="#5f7a8a"/>
          <path id="Path_29" data-name="Path 29" d="M27.841,16.068a20.219,20.219,0,0,1,2.791-3.312h-3.3v3.312Z" transform="translate(14.929 6.967)" fill="#040506"/>
          <path id="Path_30" data-name="Path 30" d="M33.94,10.2h-1.5v.683q.735-.373,1.5-.683" transform="translate(17.716 5.574)" fill="#5f7a8a"/>
          <rect id="Rectangle_38" data-name="Rectangle 38" width="3.312" height="3.312" transform="translate(50.153 7.89)" fill="#040506"/>
          <rect id="Rectangle_39" data-name="Rectangle 39" width="3.312" height="3.312" transform="translate(54.097 7.89)" fill="#ea664b"/>
          <path id="Path_31" data-name="Path 31" d="M34.988,10.8a19.57,19.57,0,0,1,3.312-.538V7.653H34.988Z" transform="translate(19.109 4.18)" fill="#040506"/>
          <rect id="Rectangle_40" data-name="Rectangle 40" width="3.312" height="3.312" transform="translate(50.153 11.834)" fill="#040506"/>
          <rect id="Rectangle_41" data-name="Rectangle 41" width="3.312" height="3.312" transform="translate(58.041 7.89)" fill="#ea664b"/>
          <rect id="Rectangle_42" data-name="Rectangle 42" width="3.312" height="3.312" transform="translate(61.985 7.89)" fill="#5f7a8a"/>
          <path id="Path_32" data-name="Path 32" d="M40.09,7.653v2.778a20.731,20.731,0,0,1,2.5.533H43.4V7.653Z" transform="translate(21.895 4.18)" fill="#5f7a8a"/>
          <path id="Path_33" data-name="Path 33" d="M40.851,10.346V7.653H37.539v2.571c.308-.014.6-.022.9-.022a20.729,20.729,0,0,1,2.412.144" transform="translate(20.502 4.18)" fill="#040506"/>
          <rect id="Rectangle_43" data-name="Rectangle 43" width="3.312" height="3.312" transform="translate(34.376 15.778)" fill="#ea664b"/>
          <rect id="Rectangle_44" data-name="Rectangle 44" width="3.312" height="3.312" transform="translate(38.32 15.778)" fill="#ea664b"/>
          <rect id="Rectangle_45" data-name="Rectangle 45" width="3.312" height="3.312" transform="translate(38.32 19.723)" fill="#040506"/>
          <rect id="Rectangle_46" data-name="Rectangle 46" width="3.312" height="3.312" transform="translate(34.376 19.723)" fill="#ea664b"/>
          <rect id="Rectangle_47" data-name="Rectangle 47" width="3.312" height="3.312" transform="translate(34.376 23.667)" fill="#5f7a8a"/>
          <path id="Path_34" data-name="Path 34" d="M24.784,18.619h2.364a21.3,21.3,0,0,1,.948-2.046V15.307H24.784Z" transform="translate(13.536 8.361)" fill="#040506"/>
          <path id="Path_35" data-name="Path 35" d="M25.988,21.17a21.852,21.852,0,0,1,.917-3.312H24.784V21.17Z" transform="translate(13.536 9.754)" fill="#ea664b"/>
          <rect id="Rectangle_48" data-name="Rectangle 48" width="3.312" height="3.312" transform="translate(34.376 27.611)" fill="#5f7a8a"/>
          <path id="Path_36" data-name="Path 36" d="M27.335,15.306v.158l.1-.158Z" transform="translate(14.929 8.36)" fill="#040506"/>
          <rect id="Rectangle_49" data-name="Rectangle 49" width="3.312" height="3.312" transform="translate(34.376 31.555)" fill="#ea664b"/>
          <path id="Path_37" data-name="Path 37" d="M25.876,20.408H24.784V23.72h.8a22.571,22.571,0,0,1,.3-3.312" transform="translate(13.536 11.146)" fill="#ea664b"/>
          <path id="Path_38" data-name="Path 38" d="M25.876,26.272a21.953,21.953,0,0,1-.3-3.312h-.8v3.312Z" transform="translate(13.535 12.54)" fill="#040506"/>
          <rect id="Rectangle_50" data-name="Rectangle 50" width="3.312" height="3.312" transform="translate(34.376 35.5)" fill="#ea664b"/>
          <rect id="Rectangle_51" data-name="Rectangle 51" width="3.312" height="3.312" transform="translate(30.431 19.723)" fill="#99b6ab"/>
          <path id="Path_39" data-name="Path 39" d="M17.171,12.755l-.04.082v3.23h3.312V12.755Z" transform="translate(9.356 6.967)" fill="#99b6ab"/>
          <rect id="Rectangle_52" data-name="Rectangle 52" width="3.312" height="3.312" transform="translate(30.431 23.667)" fill="#99b6ab"/>
          <rect id="Rectangle_53" data-name="Rectangle 53" width="3.312" height="3.312" transform="translate(30.431 27.611)" fill="#5f7a8a"/>
          <rect id="Rectangle_54" data-name="Rectangle 54" width="3.312" height="3.312" transform="translate(26.487 27.611)" fill="#ea664b"/>
          <rect id="Rectangle_55" data-name="Rectangle 55" width="3.312" height="3.312" transform="translate(26.487 31.555)" fill="#ea664b"/>
          <rect id="Rectangle_56" data-name="Rectangle 56" width="3.312" height="3.312" transform="translate(30.431 31.555)" fill="#5f7a8a"/>
          <rect id="Rectangle_57" data-name="Rectangle 57" width="3.312" height="3.312" transform="translate(30.431 35.5)" fill="#99b6ab"/>
          <path id="Path_40" data-name="Path 40" d="M47.157,32.808h.275v-.1a1.751,1.751,0,0,0-.275.1" transform="translate(25.755 17.866)" fill="#ea664b"/>
          <path id="Path_41" data-name="Path 41" d="M48.5,33.183H47.384a18.585,18.585,0,0,1-2.192,1.5v1.817H48.5Z" transform="translate(24.682 18.124)" fill="#040506"/>
          <path id="Path_42" data-name="Path 42" d="M45.953,34.379a21.383,21.383,0,0,1-3.312,1.427v.036h3.312Z" transform="translate(23.288 18.777)" fill="#ea664b"/>
          <path id="Path_43" data-name="Path 43" d="M47.743,32.677v.15H48.3a1.527,1.527,0,0,0-.555-.15" transform="translate(26.075 17.847)" fill="#ea664b"/>
          <path id="Path_44" data-name="Path 44" d="M50.294,35.036v.448h.421Z" transform="translate(27.468 19.135)" fill="#ea664b"/>
          <path id="Path_45" data-name="Path 45" d="M51.055,35.375,49,33.183H47.743V36.5h3.312Z" transform="translate(26.075 18.123)" fill="#ea664b"/>
          <rect id="Rectangle_58" data-name="Rectangle 58" width="3.312" height="3.312" transform="translate(73.818 55.252)" fill="#040506"/>
          <path id="Path_46" data-name="Path 46" d="M51.309,35.734H50.294v3.312h3.312v-.867Z" transform="translate(27.468 19.517)" fill="#5f7a8a"/>
          <rect id="Rectangle_59" data-name="Rectangle 59" width="3.312" height="3.312" transform="translate(77.762 59.196)" fill="#5f7a8a"/>
          <rect id="Rectangle_60" data-name="Rectangle 60" width="3.312" height="3.312" transform="translate(73.818 59.196)" fill="#040506"/>
          <path id="Path_47" data-name="Path 47" d="M52.845,37.945h.184l-.184-.195Z" transform="translate(28.861 20.618)" fill="#5f7a8a"/>
          <path id="Path_48" data-name="Path 48" d="M53.649,38.314l-.026-.028h-.778v2.933q.364-.334.708-.668a1.673,1.673,0,0,0,.1-2.237" transform="translate(28.861 20.911)" fill="#5f7a8a"/>
          <rect id="Rectangle_61" data-name="Rectangle 61" width="3.312" height="3.312" transform="translate(65.929 55.252)" fill="#5f7a8a"/>
          <rect id="Rectangle_62" data-name="Rectangle 62" width="3.312" height="3.312" transform="translate(69.874 55.252)" fill="#040506"/>
          <rect id="Rectangle_63" data-name="Rectangle 63" width="3.312" height="3.312" transform="translate(69.874 59.196)" fill="#99b6ab"/>
          <rect id="Rectangle_64" data-name="Rectangle 64" width="3.312" height="3.312" transform="translate(65.929 59.196)" fill="#5f7a8a"/>
          <rect id="Rectangle_65" data-name="Rectangle 65" width="3.312" height="3.312" transform="translate(65.929 63.14)" fill="#040506"/>
          <rect id="Rectangle_66" data-name="Rectangle 66" width="3.312" height="3.312" transform="translate(69.874 63.14)" fill="#99b6ab"/>
          <path id="Path_49" data-name="Path 49" d="M45.192,45.474a33.4,33.4,0,0,0,3.312-1.33v-.758H45.192Z" transform="translate(24.682 23.697)" fill="#99b6ab"/>
          <path id="Path_50" data-name="Path 50" d="M45.953,45.682V43.388H42.641v3.171c1.119-.238,2.231-.532,3.312-.877" transform="translate(23.288 23.697)" fill="#ea664b"/>
          <path id="Path_51" data-name="Path 51" d="M47.743,44.149H49.77c.428-.249.86-.513,1.285-.789V40.837H47.743Z" transform="translate(26.075 22.304)" fill="#99b6ab"/>
          <path id="Path_52" data-name="Path 52" d="M50.294,40.836v2.107a33.765,33.765,0,0,0,2.792-2.107Z" transform="translate(27.468 22.303)" fill="#5f7a8a"/>
          <path id="Path_53" data-name="Path 53" d="M47.743,43.842q.445-.22.889-.455h-.889Z" transform="translate(26.075 23.697)" fill="#ea664b"/>
          <rect id="Rectangle_67" data-name="Rectangle 67" width="3.312" height="3.312" transform="translate(34.376 47.362)" fill="#ea664b"/>
          <rect id="Rectangle_68" data-name="Rectangle 68" width="3.312" height="3.312" transform="translate(38.32 47.362)" fill="#5f7a8a"/>
          <rect id="Rectangle_69" data-name="Rectangle 69" width="3.312" height="3.312" transform="translate(38.32 51.308)" fill="#040506"/>
          <rect id="Rectangle_70" data-name="Rectangle 70" width="3.312" height="3.312" transform="translate(34.376 51.308)" fill="#99b6ab"/>
          <path id="Path_54" data-name="Path 54" d="M30.647,33.944v-.221a20,20,0,0,1-2.679-3.091h-.632v3.312Z" transform="translate(14.929 16.73)" fill="#5f7a8a"/>
          <path id="Path_55" data-name="Path 55" d="M33.2,36.495V35.2a19.453,19.453,0,0,1-2.975-2.015h-.337v3.312Z" transform="translate(16.322 18.124)" fill="#ea664b"/>
          <rect id="Rectangle_71" data-name="Rectangle 71" width="3.312" height="3.312" transform="translate(42.264 51.306)" fill="#ea664b"/>
          <rect id="Rectangle_72" data-name="Rectangle 72" width="3.312" height="3.312" transform="translate(42.264 55.252)" fill="#5f7a8a"/>
          <rect id="Rectangle_73" data-name="Rectangle 73" width="3.312" height="3.312" transform="translate(46.208 55.252)" fill="#ea664b"/>
          <rect id="Rectangle_74" data-name="Rectangle 74" width="3.312" height="3.312" transform="translate(46.208 59.196)" fill="#ea664b"/>
          <rect id="Rectangle_75" data-name="Rectangle 75" width="3.312" height="3.312" transform="translate(42.264 59.196)" fill="#5f7a8a"/>
          <rect id="Rectangle_76" data-name="Rectangle 76" width="3.312" height="3.312" transform="translate(42.264 63.14)" fill="#5f7a8a"/>
          <rect id="Rectangle_77" data-name="Rectangle 77" width="3.312" height="3.312" transform="translate(50.153 55.252)" fill="#99b6ab"/>
          <path id="Path_56" data-name="Path 56" d="M38.3,39.046v-2.9a20.164,20.164,0,0,1-2.774-.414h-.538v3.312Z" transform="translate(19.109 19.517)" fill="#99b6ab"/>
          <rect id="Rectangle_78" data-name="Rectangle 78" width="3.312" height="3.312" transform="translate(54.097 59.196)" fill="#5f7a8a"/>
          <rect id="Rectangle_79" data-name="Rectangle 79" width="3.312" height="3.312" transform="translate(50.153 59.196)" fill="#5f7a8a"/>
          <path id="Path_57" data-name="Path 57" d="M32.437,34.7v.965H34.71a19.344,19.344,0,0,1-2.273-.965" transform="translate(17.716 18.953)" fill="#99b6ab"/>
          <path id="Path_58" data-name="Path 58" d="M40.851,35.96a20.635,20.635,0,0,1-2.313.131c-.323,0-.657-.008-1-.025v2.856h3.312Z" transform="translate(20.502 19.64)" fill="#ea664b"/>
          <path id="Path_59" data-name="Path 59" d="M43.4,35.734H41.6c-.5.107-1.005.2-1.507.269v3.043H43.4Z" transform="translate(21.895 19.517)" fill="#5f7a8a"/>
          <rect id="Rectangle_80" data-name="Rectangle 80" width="3.312" height="3.312" transform="translate(61.985 59.196)" fill="#ea664b"/>
          <rect id="Rectangle_81" data-name="Rectangle 81" width="3.312" height="3.312" transform="translate(58.041 59.196)" fill="#ea664b"/>
          <rect id="Rectangle_82" data-name="Rectangle 82" width="3.312" height="3.312" transform="translate(34.376 55.252)" fill="#040506"/>
          <rect id="Rectangle_83" data-name="Rectangle 83" width="3.312" height="3.312" transform="translate(38.32 55.252)" fill="#040506"/>
          <rect id="Rectangle_84" data-name="Rectangle 84" width="3.312" height="3.312" transform="translate(46.208 63.14)" fill="#5f7a8a"/>
          <rect id="Rectangle_85" data-name="Rectangle 85" width="3.312" height="3.312" transform="translate(50.153 63.14)" fill="#99b6ab"/>
          <rect id="Rectangle_86" data-name="Rectangle 86" width="3.312" height="3.312" transform="translate(54.097 63.14)" fill="#5f7a8a"/>
          <rect id="Rectangle_87" data-name="Rectangle 87" width="3.312" height="3.312" transform="translate(54.097 67.084)" fill="#99b6ab"/>
          <path id="Path_60" data-name="Path 60" d="M35.749,46.7V43.388H32.437v2.99c.5.118,1.013.226,1.52.322Z" transform="translate(17.716 23.697)" fill="#040506"/>
          <rect id="Rectangle_88" data-name="Rectangle 88" width="3.312" height="3.312" transform="translate(58.041 63.14)" fill="#ea664b"/>
          <rect id="Rectangle_89" data-name="Rectangle 89" width="3.312" height="3.312" transform="translate(61.985 63.14)" fill="#040506"/>
          <path id="Path_61" data-name="Path 61" d="M43.329,46.7l.073-.014v-3.3H40.09V46.7Z" transform="translate(21.895 23.697)" fill="#040506"/>
          <rect id="Rectangle_90" data-name="Rectangle 90" width="3.312" height="3.312" transform="translate(58.041 67.084)" fill="#040506"/>
          <path id="Path_62" data-name="Path 62" d="M27.335,30.014v.325h.206c-.07-.108-.138-.216-.206-.325" transform="translate(14.929 16.393)" fill="#99b6ab"/>
          <rect id="Rectangle_91" data-name="Rectangle 91" width="3.312" height="3.312" transform="translate(34.376 39.473)" fill="#99b6ab"/>
          <path id="Path_63" data-name="Path 63" d="M26,25.53H24.784v3.312h2.16A21.291,21.291,0,0,1,26,25.53" transform="translate(13.536 13.944)" fill="#99b6ab"/>
          <path id="Path_64" data-name="Path 64" d="M28.1,31.393V29.98a20.934,20.934,0,0,1-.9-1.9h-2.41v3.312Z" transform="translate(13.536 15.337)" fill="#5f7a8a"/>
          <rect id="Rectangle_92" data-name="Rectangle 92" width="3.312" height="3.312" transform="translate(34.376 43.417)" fill="#ea664b"/>
          <rect id="Rectangle_93" data-name="Rectangle 93" width="3.312" height="3.312" transform="translate(30.431 39.473)" fill="#99b6ab"/>
          <rect id="Rectangle_94" data-name="Rectangle 94" width="3.312" height="3.312" transform="translate(30.431 47.363)" fill="#99b6ab"/>
          <rect id="Rectangle_95" data-name="Rectangle 95" width="3.312" height="3.312" transform="translate(30.431 51.306)" fill="#99b6ab"/>
        </g>
      </g>
    </g>
    <g id="Group_5" data-name="Group 5" transform="translate(299.27 77.461)">
      <g id="Group_4" data-name="Group 4" transform="translate(0 0)" clip-path="url(#clip-path-2)">
        <path id="Path_65" data-name="Path 65" d="M144.839,24.518c-.288.468,0,1.007.647,1.007h3.882a.787.787,0,0,0,.611-.324l5.07-8.232h.108L160.3,25.2a.733.733,0,0,0,.611.324h3.883a.642.642,0,0,0,.611-1.007l-7.477-11.9,7.224-11.251a.646.646,0,0,0-.61-1.007h-4.172a.658.658,0,0,0-.574.324L155.12,8.3h-.036l-4.6-7.62a.711.711,0,0,0-.575-.324h-4.17a.647.647,0,0,0-.611,1.007l7.19,11.251Zm-18.946.324a.684.684,0,0,0,.684.683h14.631a.683.683,0,0,0,.683-.683V21.894a.682.682,0,0,0-.683-.683H130.566V14.919h8.88a.682.682,0,0,0,.683-.683V11.253a.708.708,0,0,0-.683-.683h-8.88v-5.9h10.642a.682.682,0,0,0,.683-.683V1.043a.683.683,0,0,0-.683-.683H126.577a.684.684,0,0,0-.684.683Zm-18.153,0a.682.682,0,0,0,.683.683H121.58a.683.683,0,0,0,.683-.683V21.894a.682.682,0,0,0-.683-.683h-9.168V1.043a.707.707,0,0,0-.683-.683h-3.307a.682.682,0,0,0-.683.683ZM91.13,12.007V4.781H95.3A3.586,3.586,0,0,1,99,8.269a3.7,3.7,0,0,1-3.7,3.738ZM86.457,24.842a.684.684,0,0,0,.684.683h3.307a.707.707,0,0,0,.683-.683V16.394h4.494A8.086,8.086,0,0,0,103.641,8.3,8.04,8.04,0,0,0,95.589.36H87.141a.684.684,0,0,0-.684.683ZM53.42,24.7a.659.659,0,0,0,.683.828h3.236a.7.7,0,0,0,.647-.539L60.071,11.36h.108l6.364,14.129a.646.646,0,0,0,.611.4H67.8a.611.611,0,0,0,.611-.4L74.7,11.36h.108l2.12,13.625a.781.781,0,0,0,.683.539h3.272a.625.625,0,0,0,.647-.828L77.291.539A.607.607,0,0,0,76.644,0h-.575a.62.62,0,0,0-.611.36l-7.91,16.968H67.44L59.531.36A.656.656,0,0,0,58.92,0h-.575A.607.607,0,0,0,57.7.539ZM29.19,12.978a8.251,8.251,0,1,1,8.233,8.233,8.316,8.316,0,0,1-8.233-8.233m-4.672,0a12.923,12.923,0,0,0,25.846,0,12.923,12.923,0,1,0-25.846,0M0,12.978A12.888,12.888,0,0,0,12.978,25.885,12.337,12.337,0,0,0,21.713,22.4a.685.685,0,0,0,.036-.971l-2.229-2.3a.662.662,0,0,0-.9,0,8.631,8.631,0,0,1-5.5,2.05,8.142,8.142,0,0,1-8.054-8.3,8.151,8.151,0,0,1,8.018-8.376,8.507,8.507,0,0,1,5.536,2.12.574.574,0,0,0,.9,0l2.193-2.264a.67.67,0,0,0-.036-1.007A12.164,12.164,0,0,0,12.978,0,12.949,12.949,0,0,0,0,12.978" transform="translate(0 0.001)" fill="#5e7b8c"/>
        <path id="Path_66" data-name="Path 66" d="M156.141,35.675a.453.453,0,0,0,.459.458h1.109a.464.464,0,0,0,.458-.458V29.728L163.732,36a.411.411,0,0,0,.344.134h1.53a.4.4,0,0,0,.344-.63l-5.85-6.444,5.526-5.621a.4.4,0,0,0-.268-.688h-1.435a.489.489,0,0,0-.363.192L158.168,28.5v-5.3a.465.465,0,0,0-.458-.459H156.6a.454.454,0,0,0-.459.459Zm-13-6.424V24.6h3.4a2.343,2.343,0,0,1,2.333,2.275,2.376,2.376,0,0,1-2.333,2.371Zm-2.007,6.52a.362.362,0,0,0,.363.363h1.243a.376.376,0,0,0,.364-.363V30.895h2.886l2.544,5.067a.354.354,0,0,0,.306.171h1.491a.362.362,0,0,0,.324-.555l-2.618-4.856a4.246,4.246,0,0,0,2.829-3.882,4.126,4.126,0,0,0-4.169-4.092h-5.2a.363.363,0,0,0-.363.363Zm-16.864-6.31a4.962,4.962,0,1,1,4.952,4.952,5.011,5.011,0,0,1-4.952-4.952m-1.912,0a6.874,6.874,0,1,0,6.864-6.9,6.823,6.823,0,0,0-6.864,6.9m-16.06,6.6a.365.365,0,0,0,.344.268h.306a.366.366,0,0,0,.326-.21l3.307-9.5h.1l3.365,9.5a.366.366,0,0,0,.326.21h.3a.368.368,0,0,0,.345-.268l3.614-12.849a.334.334,0,0,0-.345-.459H117a.394.394,0,0,0-.343.268l-2.275,8.776h-.077l-3.155-9.025a.345.345,0,0,0-.324-.211h-.345a.342.342,0,0,0-.324.211l-3.118,9.025h-.076l-2.313-8.776a.394.394,0,0,0-.345-.268h-1.28a.334.334,0,0,0-.345.459ZM80.66,29.46a4.962,4.962,0,1,1,4.952,4.952A5.011,5.011,0,0,1,80.66,29.46m-1.912,0a6.874,6.874,0,1,0,6.864-6.9,6.823,6.823,0,0,0-6.864,6.9m-8.662,6.31a.376.376,0,0,0,.364.363h1.262a.375.375,0,0,0,.363-.363V24.546h3.116a.362.362,0,0,0,.363-.363V23.112a.362.362,0,0,0-.363-.363H66.97a.363.363,0,0,0-.363.363v1.072a.363.363,0,0,0,.363.363h3.116Zm-18.044,0a.375.375,0,0,0,.363.363h1.262a.376.376,0,0,0,.364-.363V24.546h3.116a.363.363,0,0,0,.363-.363V23.112a.363.363,0,0,0-.363-.363H48.926a.362.362,0,0,0-.363.363v1.072a.362.362,0,0,0,.363.363h3.116Zm-12.868,0a.363.363,0,0,0,.364.363h6.806a.362.362,0,0,0,.363-.363V34.719a.363.363,0,0,0-.363-.364H41.163V23.112a.377.377,0,0,0-.364-.363H39.538a.363.363,0,0,0-.364.363Zm-7.991,0a.375.375,0,0,0,.363.363h1.262a.375.375,0,0,0,.363-.363V23.112a.376.376,0,0,0-.363-.363H31.545a.376.376,0,0,0-.363.363ZM14.95,31.143a5.068,5.068,0,0,0,5.181,5.181,5.088,5.088,0,0,0,5.219-5.181V23.112a.375.375,0,0,0-.363-.363H23.706a.363.363,0,0,0-.363.363v7.935a3.2,3.2,0,1,1-6.386-.037v-7.9a.363.363,0,0,0-.363-.363H15.313a.375.375,0,0,0-.363.363ZM2.865,34.374V30.282h2.62a2.2,2.2,0,0,1,2.351,2.007,2.036,2.036,0,0,1-2.064,2.084Zm.019-5.812V24.546H5.466a1.847,1.847,0,0,1,1.97,1.97,1.918,1.918,0,0,1-1.97,2.046ZM.934,35.77a.362.362,0,0,0,.363.363H5.791c2.409,0,4.167-1.548,4.167-3.69a3.462,3.462,0,0,0-2.389-3.116,3.675,3.675,0,0,0,1.988-3.04A3.672,3.672,0,0,0,5.58,22.749H1.3a.363.363,0,0,0-.363.363Z" transform="translate(0.354 8.561)" fill="#5e7b8c"/>
      </g>
    </g>
  </g>
</svg>
